<svg version="1.1" xmlns="http://www.w3.org/2000/svg" xmlns:xlink="http://www.w3.org/1999/xlink" stroke-linecap="round" stroke-linejoin="round" stroke-width="0" fill-rule="evenodd" width="112.395mm" height="126.79761mm" viewBox="-2025.0 -1599.8400000000256 149050.0 146788.15"><defs><circle cx="0" cy="0" r="550" id="G0RgFBVZ2N7L_pad-64"/><circle cx="0" cy="0" r="550" id="G0RgFBVZ2N7L_pad-65"/></defs><g transform="translate(0,145175.61) scale(1,-1)" fill="currentColor" stroke="currentColor"><use xlink:href="#G0RgFBVZ2N7L_pad-64" x="116108.05" y="46834.61"/><use xlink:href="#G0RgFBVZ2N7L_pad-64" x="121228.05" y="61334.61"/><use xlink:href="#G0RgFBVZ2N7L_pad-64" x="118668.05" y="61334.61"/><use xlink:href="#G0RgFBVZ2N7L_pad-64" x="116108.05" y="61334.61"/><use xlink:href="#G0RgFBVZ2N7L_pad-64" x="121228.05" y="46834.61"/><use xlink:href="#G0RgFBVZ2N7L_pad-64" x="118668.05" y="46834.61"/><use xlink:href="#G0RgFBVZ2N7L_pad-64" x="28984.95" y="98376.39"/><use xlink:href="#G0RgFBVZ2N7L_pad-64" x="23864.95" y="83876.39"/><use xlink:href="#G0RgFBVZ2N7L_pad-64" x="26424.95" y="83876.39"/><use xlink:href="#G0RgFBVZ2N7L_pad-64" x="28984.95" y="83876.39"/><use xlink:href="#G0RgFBVZ2N7L_pad-64" x="23864.95" y="98376.39"/><use xlink:href="#G0RgFBVZ2N7L_pad-64" x="26424.95" y="98376.39"/><use xlink:href="#G0RgFBVZ2N7L_pad-64" x="42310" y="83841"/><use xlink:href="#G0RgFBVZ2N7L_pad-64" x="47430" y="98341"/><use xlink:href="#G0RgFBVZ2N7L_pad-64" x="44870" y="98341"/><use xlink:href="#G0RgFBVZ2N7L_pad-64" x="42310" y="98341"/><use xlink:href="#G0RgFBVZ2N7L_pad-64" x="47430" y="83841"/><use xlink:href="#G0RgFBVZ2N7L_pad-64" x="44870" y="83841"/><use xlink:href="#G0RgFBVZ2N7L_pad-64" x="28984" y="135417.01"/><use xlink:href="#G0RgFBVZ2N7L_pad-64" x="23864" y="120917"/><use xlink:href="#G0RgFBVZ2N7L_pad-64" x="26424" y="120917"/><use xlink:href="#G0RgFBVZ2N7L_pad-64" x="28984" y="120917"/><use xlink:href="#G0RgFBVZ2N7L_pad-64" x="23864" y="135417.01"/><use xlink:href="#G0RgFBVZ2N7L_pad-64" x="26424" y="135417.01"/><use xlink:href="#G0RgFBVZ2N7L_pad-64" x="42260.05" y="120936.61"/><use xlink:href="#G0RgFBVZ2N7L_pad-64" x="47380.05" y="135436.61"/><use xlink:href="#G0RgFBVZ2N7L_pad-64" x="44820.05" y="135436.61"/><use xlink:href="#G0RgFBVZ2N7L_pad-64" x="42260.05" y="135436.61"/><use xlink:href="#G0RgFBVZ2N7L_pad-64" x="47380.05" y="120936.61"/><use xlink:href="#G0RgFBVZ2N7L_pad-64" x="44820.05" y="120936.61"/><use xlink:href="#G0RgFBVZ2N7L_pad-64" x="100272.95" y="98376.39"/><use xlink:href="#G0RgFBVZ2N7L_pad-64" x="97712.95" y="98376.39"/><use xlink:href="#G0RgFBVZ2N7L_pad-64" x="102832.95" y="83876.39"/><use xlink:href="#G0RgFBVZ2N7L_pad-64" x="100272.95" y="83876.39"/><use xlink:href="#G0RgFBVZ2N7L_pad-64" x="97712.95" y="83876.39"/><use xlink:href="#G0RgFBVZ2N7L_pad-64" x="102832.95" y="98376.39"/><use xlink:href="#G0RgFBVZ2N7L_pad-64" x="81695" y="120929"/><use xlink:href="#G0RgFBVZ2N7L_pad-64" x="84255" y="120929"/><use xlink:href="#G0RgFBVZ2N7L_pad-64" x="79135" y="135429"/><use xlink:href="#G0RgFBVZ2N7L_pad-64" x="81695" y="135429"/><use xlink:href="#G0RgFBVZ2N7L_pad-64" x="84255" y="135429"/><use xlink:href="#G0RgFBVZ2N7L_pad-64" x="79135" y="120929"/><use xlink:href="#G0RgFBVZ2N7L_pad-64" x="118718" y="83841"/><use xlink:href="#G0RgFBVZ2N7L_pad-64" x="121278" y="83841"/><use xlink:href="#G0RgFBVZ2N7L_pad-64" x="116158" y="98341"/><use xlink:href="#G0RgFBVZ2N7L_pad-64" x="118718" y="98341"/><use xlink:href="#G0RgFBVZ2N7L_pad-64" x="121278" y="98341"/><use xlink:href="#G0RgFBVZ2N7L_pad-64" x="116158" y="83841"/><use xlink:href="#G0RgFBVZ2N7L_pad-64" x="28984.95" y="24274.39"/><use xlink:href="#G0RgFBVZ2N7L_pad-64" x="23864.95" y="9774.39"/><use xlink:href="#G0RgFBVZ2N7L_pad-64" x="26424.95" y="9774.39"/><use xlink:href="#G0RgFBVZ2N7L_pad-64" x="28984.95" y="9774.39"/><use xlink:href="#G0RgFBVZ2N7L_pad-64" x="23864.95" y="24274.39"/><use xlink:href="#G0RgFBVZ2N7L_pad-64" x="26424.95" y="24274.39"/><use xlink:href="#G0RgFBVZ2N7L_pad-64" x="42310" y="9739"/><use xlink:href="#G0RgFBVZ2N7L_pad-64" x="47430" y="24239"/><use xlink:href="#G0RgFBVZ2N7L_pad-64" x="44870" y="24239"/><use xlink:href="#G0RgFBVZ2N7L_pad-64" x="42310" y="24239"/><use xlink:href="#G0RgFBVZ2N7L_pad-64" x="47430" y="9739"/><use xlink:href="#G0RgFBVZ2N7L_pad-64" x="44870" y="9739"/><use xlink:href="#G0RgFBVZ2N7L_pad-64" x="102832.95" y="24274.39"/><use xlink:href="#G0RgFBVZ2N7L_pad-64" x="97712.95" y="9774.39"/><use xlink:href="#G0RgFBVZ2N7L_pad-64" x="100272.95" y="9774.39"/><use xlink:href="#G0RgFBVZ2N7L_pad-64" x="102832.95" y="9774.39"/><use xlink:href="#G0RgFBVZ2N7L_pad-64" x="97712.95" y="24274.39"/><use xlink:href="#G0RgFBVZ2N7L_pad-64" x="100272.95" y="24274.39"/><use xlink:href="#G0RgFBVZ2N7L_pad-64" x="116158" y="9739"/><use xlink:href="#G0RgFBVZ2N7L_pad-64" x="121278" y="24239"/><use xlink:href="#G0RgFBVZ2N7L_pad-64" x="118718" y="24239"/><use xlink:href="#G0RgFBVZ2N7L_pad-64" x="116158" y="24239"/><use xlink:href="#G0RgFBVZ2N7L_pad-64" x="121278" y="9739"/><use xlink:href="#G0RgFBVZ2N7L_pad-64" x="118718" y="9739"/><use xlink:href="#G0RgFBVZ2N7L_pad-64" x="28984" y="61315"/><use xlink:href="#G0RgFBVZ2N7L_pad-64" x="23864" y="46815"/><use xlink:href="#G0RgFBVZ2N7L_pad-64" x="26424" y="46815"/><use xlink:href="#G0RgFBVZ2N7L_pad-64" x="28984" y="46815"/><use xlink:href="#G0RgFBVZ2N7L_pad-64" x="23864" y="61315"/><use xlink:href="#G0RgFBVZ2N7L_pad-64" x="26424" y="61315"/><use xlink:href="#G0RgFBVZ2N7L_pad-64" x="42260.05" y="46834.61"/><use xlink:href="#G0RgFBVZ2N7L_pad-64" x="47380.05" y="61334.61"/><use xlink:href="#G0RgFBVZ2N7L_pad-64" x="44820.05" y="61334.61"/><use xlink:href="#G0RgFBVZ2N7L_pad-64" x="42260.05" y="61334.61"/><use xlink:href="#G0RgFBVZ2N7L_pad-64" x="47380.05" y="46834.61"/><use xlink:href="#G0RgFBVZ2N7L_pad-64" x="44820.05" y="46834.61"/><use xlink:href="#G0RgFBVZ2N7L_pad-64" x="102832" y="61315"/><use xlink:href="#G0RgFBVZ2N7L_pad-64" x="97712" y="46815"/><use xlink:href="#G0RgFBVZ2N7L_pad-64" x="100272" y="46815"/><use xlink:href="#G0RgFBVZ2N7L_pad-64" x="102832" y="46815"/><use xlink:href="#G0RgFBVZ2N7L_pad-64" x="97712" y="61315"/><use xlink:href="#G0RgFBVZ2N7L_pad-64" x="100272" y="61315"/><use xlink:href="#G0RgFBVZ2N7L_pad-65" x="135159" y="118825"/><use xlink:href="#G0RgFBVZ2N7L_pad-65" x="135159" y="121385"/><use xlink:href="#G0RgFBVZ2N7L_pad-65" x="120659" y="116265"/><use xlink:href="#G0RgFBVZ2N7L_pad-65" x="120659" y="118825"/><use xlink:href="#G0RgFBVZ2N7L_pad-65" x="120659" y="121385"/><use xlink:href="#G0RgFBVZ2N7L_pad-65" x="135159" y="116265"/></g></svg>