%TF.GenerationSoftware,Altium Limited,Altium Designer,22.1.2 (22)*%
G04 Layer_Color=8421504*
%FSLAX45Y45*%
%MOMM*%
%TF.SameCoordinates,073EAA7F-B3E9-4302-98AB-51A492F3094A*%
%TF.FilePolarity,Positive*%
%TF.FileFunction,Paste,Top*%
%TF.Part,Single*%
G01*
G75*
%TA.AperFunction,SMDPad,CuDef*%
%ADD10R,1.00000X0.90000*%
G04:AMPARAMS|DCode=11|XSize=0.55mm|YSize=1.25mm|CornerRadius=0.0495mm|HoleSize=0mm|Usage=FLASHONLY|Rotation=90.000|XOffset=0mm|YOffset=0mm|HoleType=Round|Shape=RoundedRectangle|*
%AMROUNDEDRECTD11*
21,1,0.55000,1.15100,0,0,90.0*
21,1,0.45100,1.25000,0,0,90.0*
1,1,0.09900,0.57550,0.22550*
1,1,0.09900,0.57550,-0.22550*
1,1,0.09900,-0.57550,-0.22550*
1,1,0.09900,-0.57550,0.22550*
%
%ADD11ROUNDEDRECTD11*%
%ADD12R,0.90000X0.80000*%
%ADD13R,0.80000X0.90000*%
%ADD14R,1.20000X1.00000*%
%ADD15R,0.45000X0.90000*%
%ADD16R,1.00000X1.20000*%
%ADD19R,1.70000X2.50000*%
%ADD20R,0.90000X1.00000*%
%ADD21R,0.90000X0.45000*%
%TA.AperFunction,NonConductor*%
%ADD59R,0.70000X1.65000*%
%ADD60R,0.60000X1.65000*%
%ADD61R,1.65000X0.70000*%
%ADD62R,1.65000X0.60000*%
D10*
X11973800Y2072200D02*
D03*
Y1937200D02*
D03*
X13538499Y11192500D02*
D03*
Y11327500D02*
D03*
X2613800Y9404500D02*
D03*
Y9539500D02*
D03*
X6296300Y8876400D02*
D03*
Y8741400D02*
D03*
X3041100Y12994000D02*
D03*
Y13128999D02*
D03*
X6331300Y13393500D02*
D03*
Y13258501D02*
D03*
X2332500Y7566100D02*
D03*
Y7701100D02*
D03*
X8194300Y9272400D02*
D03*
Y9407400D02*
D03*
X8050700Y13115100D02*
D03*
Y13250101D02*
D03*
X11888500Y9410600D02*
D03*
Y9545600D02*
D03*
X8051500Y12568000D02*
D03*
Y12433000D02*
D03*
X2549900Y2018600D02*
D03*
Y1883600D02*
D03*
X6245400Y2149700D02*
D03*
Y2014700D02*
D03*
X8267000Y2175000D02*
D03*
Y2040000D02*
D03*
X2545700Y5085800D02*
D03*
Y5220800D02*
D03*
X6275000Y5722000D02*
D03*
Y5587000D02*
D03*
X8267300Y5702000D02*
D03*
Y5567000D02*
D03*
X11939100Y5070600D02*
D03*
Y5205600D02*
D03*
X855700Y7070000D02*
D03*
Y6935000D02*
D03*
D11*
X13352699Y10573800D02*
D03*
Y10700800D02*
D03*
Y10827800D02*
D03*
Y10954800D02*
D03*
Y11081800D02*
D03*
Y11208800D02*
D03*
Y11335800D02*
D03*
X12827699Y10573800D02*
D03*
Y10700800D02*
D03*
Y10827800D02*
D03*
Y10954800D02*
D03*
Y11081800D02*
D03*
Y11208800D02*
D03*
Y11335800D02*
D03*
D12*
X13552499Y10956300D02*
D03*
X13722501D02*
D03*
X13552200Y10652200D02*
D03*
X13722200D02*
D03*
X12644200Y10698700D02*
D03*
X12474200D02*
D03*
D13*
X13236200Y11536600D02*
D03*
Y11706600D02*
D03*
X11311300Y11582600D02*
D03*
Y11412600D02*
D03*
X11187800Y11582400D02*
D03*
Y11412400D02*
D03*
D14*
X13785400Y11819400D02*
D03*
Y11619400D02*
D03*
D15*
X3652301Y4360400D02*
D03*
X3732300D02*
D03*
X3492301D02*
D03*
X3572301D02*
D03*
Y4190400D02*
D03*
X3492301D02*
D03*
X3732300D02*
D03*
X3652301D02*
D03*
X7290000Y11415000D02*
D03*
X7370000D02*
D03*
X7130001D02*
D03*
X7210001D02*
D03*
Y11585000D02*
D03*
X7130001D02*
D03*
X7370000D02*
D03*
X7290000D02*
D03*
X10915001Y11415000D02*
D03*
X10995000D02*
D03*
X10755001D02*
D03*
X10835001D02*
D03*
Y11585000D02*
D03*
X10755001D02*
D03*
X10995000D02*
D03*
X10915001D02*
D03*
X3665001Y11415000D02*
D03*
X3745000D02*
D03*
X3505001D02*
D03*
X3585001D02*
D03*
Y11585000D02*
D03*
X3505001D02*
D03*
X3745000D02*
D03*
X3665001D02*
D03*
X7210000Y10335000D02*
D03*
X7130000D02*
D03*
X7369999D02*
D03*
X7289999D02*
D03*
Y10165000D02*
D03*
X7369999D02*
D03*
X7130000D02*
D03*
X7210000D02*
D03*
X10835000Y10335000D02*
D03*
X10755000D02*
D03*
X10994999D02*
D03*
X10915000D02*
D03*
Y10165000D02*
D03*
X10994999D02*
D03*
X10755000D02*
D03*
X10835000D02*
D03*
X3585000Y10335000D02*
D03*
X3505000D02*
D03*
X3744999D02*
D03*
X3665000D02*
D03*
Y10165000D02*
D03*
X3744999D02*
D03*
X3505000D02*
D03*
X3585000D02*
D03*
X7197300Y2940400D02*
D03*
X7117300D02*
D03*
X7357299D02*
D03*
X7277299D02*
D03*
Y3110400D02*
D03*
X7357299D02*
D03*
X7117300D02*
D03*
X7197300D02*
D03*
X10822300Y2940400D02*
D03*
X10742300D02*
D03*
X10982299D02*
D03*
X10902300D02*
D03*
Y3110400D02*
D03*
X10982299D02*
D03*
X10742300D02*
D03*
X10822300D02*
D03*
X3572300Y2940400D02*
D03*
X3492300D02*
D03*
X3732299D02*
D03*
X3652300D02*
D03*
Y3110400D02*
D03*
X3732299D02*
D03*
X3492300D02*
D03*
X3572300D02*
D03*
X7277300Y4360400D02*
D03*
X7357300D02*
D03*
X7117301D02*
D03*
X7197301D02*
D03*
Y4190400D02*
D03*
X7117301D02*
D03*
X7357300D02*
D03*
X7277300D02*
D03*
X10902301Y4360400D02*
D03*
X10982300D02*
D03*
X10742301D02*
D03*
X10822301D02*
D03*
Y4190400D02*
D03*
X10742301D02*
D03*
X10982300D02*
D03*
X10902301D02*
D03*
D16*
X11601705Y6440300D02*
D03*
X11801705D02*
D03*
X2707595Y8080800D02*
D03*
X2907595D02*
D03*
X4431900Y8081400D02*
D03*
X4231900D02*
D03*
X2705100Y13841901D02*
D03*
X2905100D02*
D03*
X4416905Y13850500D02*
D03*
X4216905D02*
D03*
X10092395Y8080800D02*
D03*
X10292395D02*
D03*
X8129300Y13875000D02*
D03*
X7929300D02*
D03*
X11816700Y8081400D02*
D03*
X11616700D02*
D03*
X2907595Y670600D02*
D03*
X2707595D02*
D03*
X4231900Y671200D02*
D03*
X4431900D02*
D03*
X10292395Y670600D02*
D03*
X10092395D02*
D03*
X11616700Y671200D02*
D03*
X11816700D02*
D03*
X2905100Y6431700D02*
D03*
X2705100D02*
D03*
X4216905Y6440300D02*
D03*
X4416905D02*
D03*
X10289900Y6431700D02*
D03*
X10089900D02*
D03*
D19*
X12061500Y14194701D02*
D03*
Y13794701D02*
D03*
D20*
X244300Y5482600D02*
D03*
X379300D02*
D03*
X1996500Y10149800D02*
D03*
X1861500D02*
D03*
X5667500Y10153300D02*
D03*
X5532500D02*
D03*
X1471200Y11783100D02*
D03*
X1606200D02*
D03*
X5157700D02*
D03*
X5292700D02*
D03*
X1606595Y10150900D02*
D03*
X1471595D02*
D03*
X5298995D02*
D03*
X5163995D02*
D03*
X1825505Y11780400D02*
D03*
X1960505D02*
D03*
X5517905D02*
D03*
X5652905D02*
D03*
X9228000Y10158600D02*
D03*
X9363000D02*
D03*
X8973805Y11780400D02*
D03*
X8838805D02*
D03*
X12921800Y10149800D02*
D03*
X13056799D02*
D03*
X12666700Y11780900D02*
D03*
X12531700D02*
D03*
X8991395Y10150900D02*
D03*
X8856395D02*
D03*
X9210305Y11780400D02*
D03*
X9345305D02*
D03*
X12683795Y10150900D02*
D03*
X12548795D02*
D03*
X12902705Y11780400D02*
D03*
X13037704D02*
D03*
X7566100Y10342500D02*
D03*
X7701100D02*
D03*
X11191100D02*
D03*
X11326100D02*
D03*
X3941100D02*
D03*
X4076100D02*
D03*
X1975400Y2744700D02*
D03*
X1840400D02*
D03*
X5664700Y2745600D02*
D03*
X5529700D02*
D03*
X9353700Y2743900D02*
D03*
X9218700D02*
D03*
X13051700Y2742100D02*
D03*
X12916701D02*
D03*
X1446700Y4370400D02*
D03*
X1581700D02*
D03*
X5147400Y4374400D02*
D03*
X5282400D02*
D03*
X8857400Y4370600D02*
D03*
X8992400D02*
D03*
X12536800Y4374400D02*
D03*
X12671800D02*
D03*
X1471595Y2740700D02*
D03*
X1606595D02*
D03*
X5163995D02*
D03*
X5298995D02*
D03*
X8856395D02*
D03*
X8991395D02*
D03*
X12548795D02*
D03*
X12683795D02*
D03*
X1960505Y4370200D02*
D03*
X1825505D02*
D03*
X5652905D02*
D03*
X5517905D02*
D03*
X9345305D02*
D03*
X9210305D02*
D03*
X13037704D02*
D03*
X12902705D02*
D03*
X6786200Y4182900D02*
D03*
X6921200D02*
D03*
X10411200D02*
D03*
X10546200D02*
D03*
X3161200D02*
D03*
X3296200D02*
D03*
X239200Y9058900D02*
D03*
X374200D02*
D03*
X14257800Y5417700D02*
D03*
X14122800D02*
D03*
X14265601Y7818200D02*
D03*
X14130600D02*
D03*
X14248599Y9010300D02*
D03*
X14113600D02*
D03*
D21*
X1260000Y7290000D02*
D03*
Y7370000D02*
D03*
Y7130001D02*
D03*
Y7210001D02*
D03*
X1090000D02*
D03*
Y7130001D02*
D03*
Y7370000D02*
D03*
Y7290000D02*
D03*
X2340000Y7210000D02*
D03*
Y7130000D02*
D03*
Y7369999D02*
D03*
Y7289999D02*
D03*
X2510000D02*
D03*
Y7369999D02*
D03*
Y7130000D02*
D03*
Y7210000D02*
D03*
D59*
X4061800Y3367901D02*
D03*
X3162800D02*
D03*
X4061800Y3932901D02*
D03*
X3162800D02*
D03*
X7699497Y10592500D02*
D03*
X6800497D02*
D03*
X7699497Y11157500D02*
D03*
X6800497D02*
D03*
X11324470Y10592496D02*
D03*
X10425470D02*
D03*
X11324470Y11157496D02*
D03*
X10425470D02*
D03*
X4074433Y10592484D02*
D03*
X3175433D02*
D03*
X4074433Y11157484D02*
D03*
X3175433D02*
D03*
X7686823Y3367895D02*
D03*
X6787823D02*
D03*
X7686823Y3932895D02*
D03*
X6787823D02*
D03*
X11311828Y3367906D02*
D03*
X10412828D02*
D03*
X11311828Y3932906D02*
D03*
X10412828D02*
D03*
D60*
X3929791Y3367948D02*
D03*
X3802791D02*
D03*
X3675791D02*
D03*
X3548791D02*
D03*
X3421791D02*
D03*
X3294791D02*
D03*
X3929791Y3932948D02*
D03*
X3802791D02*
D03*
X3675791D02*
D03*
X3548791D02*
D03*
X3421791D02*
D03*
X3294791D02*
D03*
X7567505Y10592467D02*
D03*
X7440505D02*
D03*
X7313505D02*
D03*
X7186505D02*
D03*
X7059505D02*
D03*
X6932505D02*
D03*
X7567505Y11157467D02*
D03*
X7440505D02*
D03*
X7313505D02*
D03*
X7186505D02*
D03*
X7059505D02*
D03*
X6932505D02*
D03*
X11192499Y10592486D02*
D03*
X11065499D02*
D03*
X10938499D02*
D03*
X10811499D02*
D03*
X10684499D02*
D03*
X10557499D02*
D03*
X11192499Y11157486D02*
D03*
X11065499D02*
D03*
X10938499D02*
D03*
X10811499D02*
D03*
X10684499D02*
D03*
X10557499D02*
D03*
X3942500Y10592502D02*
D03*
X3815500D02*
D03*
X3688500D02*
D03*
X3561500D02*
D03*
X3434500D02*
D03*
X3307500D02*
D03*
X3942500Y11157502D02*
D03*
X3815500D02*
D03*
X3688500D02*
D03*
X3561500D02*
D03*
X3434500D02*
D03*
X3307500D02*
D03*
X7554796Y3367900D02*
D03*
X7427796D02*
D03*
X7300796D02*
D03*
X7173796D02*
D03*
X7046796D02*
D03*
X6919796D02*
D03*
X7554796Y3932900D02*
D03*
X7427796D02*
D03*
X7300796D02*
D03*
X7173796D02*
D03*
X7046796D02*
D03*
X6919796D02*
D03*
X11179803Y3367900D02*
D03*
X11052803D02*
D03*
X10925803D02*
D03*
X10798803D02*
D03*
X10671803D02*
D03*
X10544803D02*
D03*
X11179803Y3932900D02*
D03*
X11052803D02*
D03*
X10925803D02*
D03*
X10798803D02*
D03*
X10671803D02*
D03*
X10544803D02*
D03*
D61*
X2082485Y7699524D02*
D03*
X2082488Y6800530D02*
D03*
X1517519Y7699480D02*
D03*
Y6800480D02*
D03*
D62*
X2082584Y7567518D02*
D03*
Y7440518D02*
D03*
X2082583Y7313518D02*
D03*
Y7186519D02*
D03*
X2082580Y7059521D02*
D03*
X2082580Y6932522D02*
D03*
X1517588Y7567514D02*
D03*
Y7440514D02*
D03*
X1517453Y7313507D02*
D03*
X1517452Y7186508D02*
D03*
Y7059508D02*
D03*
X1517584Y6932518D02*
D03*
%TF.MD5,c7c2663a3a7d8385a30abfe65bc16a4e*%
M02*
