%TF.GenerationSoftware,Altium Limited,Altium Designer,22.1.2 (22)*%
G04 Layer_Color=0*
%FSLAX45Y45*%
%MOMM*%
%TF.SameCoordinates,073EAA7F-B3E9-4302-98AB-51A492F3094A*%
%TF.FilePolarity,Positive*%
%TF.FileFunction,Plated,1,2,PTH,Drill*%
%TF.Part,Single*%
G01*
G75*
%TA.AperFunction,ComponentDrill*%
%ADD66C,1.00000*%
%ADD67O,1.80000X4.40000*%
%ADD68C,1.00000*%
%ADD69C,1.50000*%
%ADD70C,0.85000*%
%TA.AperFunction,ViaDrill,NotFilled*%
%ADD71C,0.30000*%
%ADD72C,0.50000*%
D66*
X10177900Y13952400D02*
D03*
Y13698399D02*
D03*
Y13444400D02*
D03*
Y13190401D02*
D03*
Y12936400D02*
D03*
Y12682400D02*
D03*
Y12428400D02*
D03*
Y12174400D02*
D03*
X10431900D02*
D03*
X10685900D02*
D03*
X10939900D02*
D03*
X11193900D02*
D03*
X11447900D02*
D03*
X11701900D02*
D03*
Y12428400D02*
D03*
Y12682400D02*
D03*
Y12936400D02*
D03*
Y13190401D02*
D03*
Y13444400D02*
D03*
Y13698399D02*
D03*
Y13952400D02*
D03*
Y14206400D02*
D03*
X12543905Y4674300D02*
D03*
X12793905D02*
D03*
X13043906D02*
D03*
X12543905Y6124300D02*
D03*
X13043906D02*
D03*
X1965395Y9846800D02*
D03*
X1715395D02*
D03*
X1465395D02*
D03*
X1965395Y8396800D02*
D03*
X1465395D02*
D03*
X5657795Y9846800D02*
D03*
X5407795D02*
D03*
X5157795D02*
D03*
X5657795Y8396800D02*
D03*
X5157795D02*
D03*
X1466705Y12084500D02*
D03*
X1716705D02*
D03*
X1966705D02*
D03*
X1466705Y13534500D02*
D03*
X1966705D02*
D03*
X5159105Y12084500D02*
D03*
X5409105D02*
D03*
X5659105D02*
D03*
X5159105Y13534500D02*
D03*
X5659105D02*
D03*
X8850195Y8396800D02*
D03*
X9350195D02*
D03*
X8850195Y9846800D02*
D03*
X9100195D02*
D03*
X9350195D02*
D03*
X9351505Y13534500D02*
D03*
X8851505D02*
D03*
X9351505Y12084500D02*
D03*
X9101505D02*
D03*
X8851505D02*
D03*
X12542595Y8396800D02*
D03*
X13042595D02*
D03*
X12542595Y9846800D02*
D03*
X12792595D02*
D03*
X13042595D02*
D03*
X13043906Y13534500D02*
D03*
X12543905D02*
D03*
X13043906Y12084500D02*
D03*
X12793905D02*
D03*
X12543905D02*
D03*
X1965395Y2436600D02*
D03*
X1715395D02*
D03*
X1465395D02*
D03*
X1965395Y986600D02*
D03*
X1465395D02*
D03*
X5657795Y2436600D02*
D03*
X5407795D02*
D03*
X5157795D02*
D03*
X5657795Y986600D02*
D03*
X5157795D02*
D03*
X9350195Y2436600D02*
D03*
X9100195D02*
D03*
X8850195D02*
D03*
X9350195Y986600D02*
D03*
X8850195D02*
D03*
X13042595Y2436600D02*
D03*
X12792595D02*
D03*
X12542595D02*
D03*
X13042595Y986600D02*
D03*
X12542595D02*
D03*
X1466705Y4674300D02*
D03*
X1716705D02*
D03*
X1966705D02*
D03*
X1466705Y6124300D02*
D03*
X1966705D02*
D03*
X5159105Y4674300D02*
D03*
X5409105D02*
D03*
X5659105D02*
D03*
X5159105Y6124300D02*
D03*
X5659105D02*
D03*
X8851505Y4674300D02*
D03*
X9101505D02*
D03*
X9351505D02*
D03*
X8851505Y6124300D02*
D03*
X9351505D02*
D03*
D67*
X12223905Y5424300D02*
D03*
X13363905D02*
D03*
X2285394Y9096800D02*
D03*
X1145395D02*
D03*
X5977794D02*
D03*
X4837795D02*
D03*
X1146705Y12834500D02*
D03*
X2286705D02*
D03*
X4839105D02*
D03*
X5979105D02*
D03*
X8530195Y9096800D02*
D03*
X9670195D02*
D03*
X9671505Y12834500D02*
D03*
X8531505D02*
D03*
X12222595Y9096800D02*
D03*
X13362595D02*
D03*
X13363905Y12834500D02*
D03*
X12223905D02*
D03*
X2285394Y1686600D02*
D03*
X1145395D02*
D03*
X5977794D02*
D03*
X4837795D02*
D03*
X9670195D02*
D03*
X8530195D02*
D03*
X13362595D02*
D03*
X12222595D02*
D03*
X1146705Y5424300D02*
D03*
X2286705D02*
D03*
X4839105D02*
D03*
X5979105D02*
D03*
X8531505D02*
D03*
X9671505D02*
D03*
D68*
X242500Y4525000D02*
D03*
Y4975000D02*
D03*
Y9525000D02*
D03*
Y9975000D02*
D03*
X14257500Y4975000D02*
D03*
Y4525000D02*
D03*
X242500Y7025000D02*
D03*
Y7475000D02*
D03*
X14257500D02*
D03*
Y7025000D02*
D03*
Y9975000D02*
D03*
Y9525000D02*
D03*
D69*
X492500Y4400000D02*
D03*
Y5100000D02*
D03*
Y9400000D02*
D03*
Y10100000D02*
D03*
X14007500Y5100000D02*
D03*
Y4400000D02*
D03*
X492500Y6900000D02*
D03*
Y7600000D02*
D03*
X14007500D02*
D03*
Y6900000D02*
D03*
Y10100000D02*
D03*
Y9400000D02*
D03*
D70*
X12460700Y14209599D02*
D03*
Y13859599D02*
D03*
D71*
X7694400Y11453412D02*
D03*
X7513600Y11701700D02*
D03*
X7698900Y11714400D02*
D03*
X7517582Y11500100D02*
D03*
X7925400Y13021700D02*
D03*
X9099500Y10041200D02*
D03*
X6843600Y11837800D02*
D03*
X6710800Y11834000D02*
D03*
X6709200Y11497400D02*
D03*
X6835700D02*
D03*
X4061100Y3222200D02*
D03*
X3296200Y4058600D02*
D03*
X2542300Y5336300D02*
D03*
X1391500Y6799800D02*
D03*
X2229600Y7567000D02*
D03*
X1722200Y10157200D02*
D03*
X2614500Y9279400D02*
D03*
X3941100Y10438600D02*
D03*
X3087000Y11157700D02*
D03*
X6713700Y11157100D02*
D03*
X7566100Y10440200D02*
D03*
X10322200Y11157200D02*
D03*
X11191100Y10466800D02*
D03*
X12787400Y10150300D02*
D03*
X6921200Y4079800D02*
D03*
X7796100Y3370000D02*
D03*
X12763300Y4368900D02*
D03*
X11412700Y3373200D02*
D03*
X11183000Y4083000D02*
D03*
X10547100Y4073400D02*
D03*
X928100Y7413300D02*
D03*
X1366400Y7210300D02*
D03*
X1367600Y7290900D02*
D03*
X1329456Y7413965D02*
D03*
X960100Y7211300D02*
D03*
X928100Y7292600D02*
D03*
X7634300Y3051100D02*
D03*
X7499200Y3028700D02*
D03*
X7501700Y2854100D02*
D03*
X7633800Y2852630D02*
D03*
X6636500Y3036200D02*
D03*
X6641400Y2854100D02*
D03*
X6794270Y2858330D02*
D03*
X6798500Y3038700D02*
D03*
X7473846Y10168846D02*
D03*
X7460900Y9937400D02*
D03*
X7570100Y10135100D02*
D03*
X7574250Y9853150D02*
D03*
X6917400Y9846400D02*
D03*
X6920000Y10096100D02*
D03*
X6777000Y10083100D02*
D03*
Y9846400D02*
D03*
X2426600Y7458900D02*
D03*
X2631100Y7457700D02*
D03*
D72*
X7638600Y4765200D02*
D03*
X7754600D02*
D03*
X7630100Y5068800D02*
D03*
X6750400Y5083600D02*
D03*
X7751600Y5069900D02*
D03*
X6893800Y5089900D02*
D03*
X9352100Y8695700D02*
D03*
X5661200Y8689500D02*
D03*
X6900300Y4763700D02*
D03*
X6766300Y4766800D02*
D03*
X5661300Y1293100D02*
D03*
X9348600Y1282900D02*
D03*
X14143800Y7290800D02*
D03*
X13416901Y7299000D02*
D03*
Y7428800D02*
D03*
X13962100Y7296600D02*
D03*
X13421600Y7171500D02*
D03*
X13959801Y7159700D02*
D03*
X13420000Y1230700D02*
D03*
X13402400Y4840900D02*
D03*
X13873300Y4830000D02*
D03*
X13854100Y1221500D02*
D03*
X14213400Y10758000D02*
D03*
X14219400Y11066700D02*
D03*
X13722501Y11066200D02*
D03*
X13721899Y10758500D02*
D03*
%TF.MD5,b8903ab21ed1d74b48293b62d762aa0b*%
M02*
