G04*
G04 #@! TF.GenerationSoftware,Altium Limited,Altium Designer,22.1.2 (22)*
G04*
G04 Layer_Color=8421504*
%FSLAX44Y44*%
%MOMM*%
G71*
G04*
G04 #@! TF.SameCoordinates,F829EE80-CB85-4AFF-B22B-D38DDCB41736*
G04*
G04*
G04 #@! TF.FilePolarity,Positive*
G04*
G01*
G75*
%ADD16R,0.7000X1.6500*%
%ADD17R,0.6000X1.6500*%
%ADD18R,1.6500X0.7000*%
%ADD19R,1.6500X0.6000*%
%ADD20R,0.9000X0.8000*%
%ADD21R,0.4500X0.9000*%
%ADD22R,1.0000X1.2000*%
%ADD23R,1.7000X2.5000*%
G04:AMPARAMS|DCode=24|XSize=0.55mm|YSize=1.25mm|CornerRadius=0.0495mm|HoleSize=0mm|Usage=FLASHONLY|Rotation=90.000|XOffset=0mm|YOffset=0mm|HoleType=Round|Shape=RoundedRectangle|*
%AMROUNDEDRECTD24*
21,1,0.5500,1.1510,0,0,90.0*
21,1,0.4510,1.2500,0,0,90.0*
1,1,0.0990,0.5755,0.2255*
1,1,0.0990,0.5755,-0.2255*
1,1,0.0990,-0.5755,-0.2255*
1,1,0.0990,-0.5755,0.2255*
%
%ADD24ROUNDEDRECTD24*%
%ADD25R,0.9000X1.0000*%
%ADD26R,1.0000X0.9000*%
%ADD27R,0.9000X0.4500*%
%ADD28R,0.8000X0.9000*%
%ADD29R,1.2000X1.0000*%
D16*
X316280Y393290D02*
D03*
X406180D02*
D03*
X316280Y336790D02*
D03*
X406180D02*
D03*
X680050Y1115750D02*
D03*
X769950D02*
D03*
X680050Y1059250D02*
D03*
X769950D02*
D03*
X1042547Y1115750D02*
D03*
X1132447D02*
D03*
X1042547Y1059250D02*
D03*
X1132447D02*
D03*
X317543Y1115748D02*
D03*
X407443D02*
D03*
X317543Y1059248D02*
D03*
X407443D02*
D03*
X678782Y393289D02*
D03*
X768682D02*
D03*
X678782Y336790D02*
D03*
X768682D02*
D03*
X1041283Y393291D02*
D03*
X1131183D02*
D03*
X1041283Y336791D02*
D03*
X1131183D02*
D03*
D17*
X329479Y393295D02*
D03*
X342179D02*
D03*
X354879D02*
D03*
X367579D02*
D03*
X380279D02*
D03*
X392979D02*
D03*
X329479Y336795D02*
D03*
X342179D02*
D03*
X354879D02*
D03*
X367579D02*
D03*
X380279D02*
D03*
X392979D02*
D03*
X693251Y1115747D02*
D03*
X705950D02*
D03*
X718651D02*
D03*
X731350D02*
D03*
X744051D02*
D03*
X756750D02*
D03*
X693251Y1059247D02*
D03*
X705950D02*
D03*
X718651D02*
D03*
X731350D02*
D03*
X744051D02*
D03*
X756750D02*
D03*
X1055750Y1115749D02*
D03*
X1068450D02*
D03*
X1081150D02*
D03*
X1093850D02*
D03*
X1106550D02*
D03*
X1119250D02*
D03*
X1055750Y1059249D02*
D03*
X1068450D02*
D03*
X1081150D02*
D03*
X1093850D02*
D03*
X1106550D02*
D03*
X1119250D02*
D03*
X330750Y1115750D02*
D03*
X343450D02*
D03*
X356150D02*
D03*
X368850D02*
D03*
X381550D02*
D03*
X394250D02*
D03*
X330750Y1059250D02*
D03*
X343450D02*
D03*
X356150D02*
D03*
X368850D02*
D03*
X381550D02*
D03*
X394250D02*
D03*
X691980Y393290D02*
D03*
X704680D02*
D03*
X717380D02*
D03*
X730080D02*
D03*
X742780D02*
D03*
X755480D02*
D03*
X691980Y336790D02*
D03*
X704680D02*
D03*
X717380D02*
D03*
X730080D02*
D03*
X742780D02*
D03*
X755480D02*
D03*
X1054480Y393290D02*
D03*
X1067180D02*
D03*
X1079880D02*
D03*
X1092580D02*
D03*
X1105280D02*
D03*
X1117980D02*
D03*
X1054480Y336790D02*
D03*
X1067180D02*
D03*
X1079880D02*
D03*
X1092580D02*
D03*
X1105280D02*
D03*
X1117980D02*
D03*
D18*
X151752Y680048D02*
D03*
Y769948D02*
D03*
X208249Y680053D02*
D03*
X208249Y769952D02*
D03*
D19*
X151758Y693252D02*
D03*
X151745Y705951D02*
D03*
Y718651D02*
D03*
X151745Y731351D02*
D03*
X151759Y744051D02*
D03*
Y756751D02*
D03*
X208258Y693252D02*
D03*
X208258Y705952D02*
D03*
X208258Y718652D02*
D03*
Y731352D02*
D03*
X208258Y744052D02*
D03*
Y756752D02*
D03*
D20*
X1372250Y1095630D02*
D03*
X1355250D02*
D03*
X1247420Y1069870D02*
D03*
X1264420D02*
D03*
X1372220Y1065220D02*
D03*
X1355220D02*
D03*
D21*
X365230Y419040D02*
D03*
X373230D02*
D03*
X349230D02*
D03*
X357230D02*
D03*
Y436040D02*
D03*
X349230D02*
D03*
X373230D02*
D03*
X365230D02*
D03*
X729000Y1158500D02*
D03*
X737000D02*
D03*
X713000D02*
D03*
X721000D02*
D03*
Y1141500D02*
D03*
X713000D02*
D03*
X737000D02*
D03*
X729000D02*
D03*
X1091500Y1158500D02*
D03*
X1099500D02*
D03*
X1075500D02*
D03*
X1083500D02*
D03*
Y1141500D02*
D03*
X1075500D02*
D03*
X1099500D02*
D03*
X1091500D02*
D03*
X366500Y1158500D02*
D03*
X374500D02*
D03*
X350500D02*
D03*
X358500D02*
D03*
Y1141500D02*
D03*
X350500D02*
D03*
X374500D02*
D03*
X366500D02*
D03*
X721000Y1016500D02*
D03*
X713000D02*
D03*
X737000D02*
D03*
X729000D02*
D03*
Y1033500D02*
D03*
X737000D02*
D03*
X713000D02*
D03*
X721000D02*
D03*
X1083500Y1016500D02*
D03*
X1075500D02*
D03*
X1099500D02*
D03*
X1091500D02*
D03*
Y1033500D02*
D03*
X1099500D02*
D03*
X1075500D02*
D03*
X1083500D02*
D03*
X358500Y1016500D02*
D03*
X350500D02*
D03*
X374500D02*
D03*
X366500D02*
D03*
Y1033500D02*
D03*
X374500D02*
D03*
X350500D02*
D03*
X358500D02*
D03*
X719730Y311040D02*
D03*
X711730D02*
D03*
X735730D02*
D03*
X727730D02*
D03*
Y294040D02*
D03*
X735730D02*
D03*
X711730D02*
D03*
X719730D02*
D03*
X1082230Y311040D02*
D03*
X1074230D02*
D03*
X1098230D02*
D03*
X1090230D02*
D03*
Y294040D02*
D03*
X1098230D02*
D03*
X1074230D02*
D03*
X1082230D02*
D03*
X357230Y311040D02*
D03*
X349230D02*
D03*
X373230D02*
D03*
X365230D02*
D03*
Y294040D02*
D03*
X373230D02*
D03*
X349230D02*
D03*
X357230D02*
D03*
X727730Y419040D02*
D03*
X735730D02*
D03*
X711730D02*
D03*
X719730D02*
D03*
Y436040D02*
D03*
X711730D02*
D03*
X735730D02*
D03*
X727730D02*
D03*
X1090230Y419040D02*
D03*
X1098230D02*
D03*
X1074230D02*
D03*
X1082230D02*
D03*
Y436040D02*
D03*
X1074230D02*
D03*
X1098230D02*
D03*
X1090230D02*
D03*
D22*
X1180171Y644030D02*
D03*
X1160171D02*
D03*
X290760Y808080D02*
D03*
X270760D02*
D03*
X423190Y808140D02*
D03*
X443190D02*
D03*
X290510Y1384190D02*
D03*
X270510D02*
D03*
X421690Y1385050D02*
D03*
X441690D02*
D03*
X1029240Y808080D02*
D03*
X1009240D02*
D03*
X792930Y1387500D02*
D03*
X812930D02*
D03*
X1161670Y808140D02*
D03*
X1181670D02*
D03*
X270760Y67060D02*
D03*
X290760D02*
D03*
X443190Y67120D02*
D03*
X423190D02*
D03*
X1009240Y67060D02*
D03*
X1029240D02*
D03*
X1181670Y67120D02*
D03*
X1161670D02*
D03*
X270510Y643170D02*
D03*
X290510D02*
D03*
X441690Y644030D02*
D03*
X421690D02*
D03*
X1008990Y643170D02*
D03*
X1028990D02*
D03*
D23*
X1206150Y1379470D02*
D03*
Y1419470D02*
D03*
D24*
X1282770Y1133580D02*
D03*
Y1120880D02*
D03*
Y1108180D02*
D03*
Y1095480D02*
D03*
Y1082780D02*
D03*
Y1070080D02*
D03*
Y1057380D02*
D03*
X1335270Y1133580D02*
D03*
Y1120880D02*
D03*
Y1108180D02*
D03*
Y1095480D02*
D03*
Y1082780D02*
D03*
Y1070080D02*
D03*
Y1057380D02*
D03*
D25*
X37930Y548260D02*
D03*
X24430D02*
D03*
X186150Y1014980D02*
D03*
X199650D02*
D03*
X553250Y1015330D02*
D03*
X566750D02*
D03*
X160620Y1178310D02*
D03*
X147120D02*
D03*
X529270D02*
D03*
X515770D02*
D03*
X147160Y1015090D02*
D03*
X160660D02*
D03*
X516399D02*
D03*
X529899D02*
D03*
X196050Y1178040D02*
D03*
X182551D02*
D03*
X565290D02*
D03*
X551791D02*
D03*
X936300Y1015860D02*
D03*
X922800D02*
D03*
X883880Y1178040D02*
D03*
X897381D02*
D03*
X1305680Y1014980D02*
D03*
X1292180D02*
D03*
X1253170Y1178090D02*
D03*
X1266670D02*
D03*
X885639Y1015090D02*
D03*
X899139D02*
D03*
X934530Y1178040D02*
D03*
X921031D02*
D03*
X1254880Y1015090D02*
D03*
X1268380D02*
D03*
X1303770Y1178040D02*
D03*
X1290271D02*
D03*
X770110Y1034250D02*
D03*
X756610D02*
D03*
X1132610D02*
D03*
X1119110D02*
D03*
X407610D02*
D03*
X394110D02*
D03*
X184040Y274470D02*
D03*
X197540D02*
D03*
X552970Y274560D02*
D03*
X566470D02*
D03*
X921870Y274390D02*
D03*
X935370D02*
D03*
X1291670Y274210D02*
D03*
X1305170D02*
D03*
X158170Y437040D02*
D03*
X144670D02*
D03*
X528240Y437440D02*
D03*
X514740D02*
D03*
X899240Y437060D02*
D03*
X885740D02*
D03*
X1267180Y437440D02*
D03*
X1253680D02*
D03*
X160660Y274070D02*
D03*
X147160D02*
D03*
X529899D02*
D03*
X516399D02*
D03*
X899139D02*
D03*
X885639D02*
D03*
X1268380D02*
D03*
X1254880D02*
D03*
X182551Y437020D02*
D03*
X196050D02*
D03*
X551791D02*
D03*
X565290D02*
D03*
X921031D02*
D03*
X934530D02*
D03*
X1290271D02*
D03*
X1303770D02*
D03*
X692120Y418290D02*
D03*
X678620D02*
D03*
X1054620D02*
D03*
X1041120D02*
D03*
X329620D02*
D03*
X316120D02*
D03*
X37420Y905890D02*
D03*
X23920D02*
D03*
X1412280Y541770D02*
D03*
X1425780D02*
D03*
X1413060Y781820D02*
D03*
X1426560D02*
D03*
X1411360Y901030D02*
D03*
X1424860D02*
D03*
D26*
X261380Y953950D02*
D03*
Y940450D02*
D03*
X629630Y874140D02*
D03*
Y887640D02*
D03*
X304110Y1312900D02*
D03*
Y1299400D02*
D03*
X633130Y1325850D02*
D03*
Y1339350D02*
D03*
X233250Y770110D02*
D03*
Y756610D02*
D03*
X1353850Y1132750D02*
D03*
Y1119250D02*
D03*
X819430Y940740D02*
D03*
Y927240D02*
D03*
X805070Y1325010D02*
D03*
Y1311510D02*
D03*
X1188850Y954560D02*
D03*
Y941060D02*
D03*
X805150Y1243300D02*
D03*
Y1256800D02*
D03*
X254990Y188360D02*
D03*
Y201860D02*
D03*
X624540Y201470D02*
D03*
Y214970D02*
D03*
X826700Y204000D02*
D03*
Y217500D02*
D03*
X1197380Y193720D02*
D03*
Y207220D02*
D03*
X254570Y522080D02*
D03*
Y508580D02*
D03*
X627500Y558700D02*
D03*
Y572200D02*
D03*
X826730Y556700D02*
D03*
Y570200D02*
D03*
X1193910Y520560D02*
D03*
Y507060D02*
D03*
X85570Y693500D02*
D03*
Y707000D02*
D03*
D27*
X109000Y729000D02*
D03*
Y737000D02*
D03*
Y713000D02*
D03*
Y721000D02*
D03*
X126000D02*
D03*
Y713000D02*
D03*
Y737000D02*
D03*
Y729000D02*
D03*
X251000Y721000D02*
D03*
Y713000D02*
D03*
Y737000D02*
D03*
Y729000D02*
D03*
X234000D02*
D03*
Y737000D02*
D03*
Y713000D02*
D03*
Y721000D02*
D03*
D28*
X1323620Y1170660D02*
D03*
Y1153660D02*
D03*
X1131130Y1141260D02*
D03*
Y1158260D02*
D03*
X1118780Y1141240D02*
D03*
Y1158240D02*
D03*
D29*
X1378540Y1161940D02*
D03*
Y1181940D02*
D03*
M02*
