G04*
G04 #@! TF.GenerationSoftware,Altium Limited,Altium Designer,22.1.2 (22)*
G04*
G04 Layer_Color=16711935*
%FSLAX44Y44*%
%MOMM*%
G71*
G04*
G04 #@! TF.SameCoordinates,F829EE80-CB85-4AFF-B22B-D38DDCB41736*
G04*
G04*
G04 #@! TF.FilePolarity,Negative*
G04*
G01*
G75*
%ADD42C,1.6080*%
%ADD43C,1.7000*%
%ADD44C,1.5500*%
%ADD45R,1.5500X1.5500*%
G04:AMPARAMS|DCode=46|XSize=2.4mm|YSize=5mm|CornerRadius=1.2mm|HoleSize=0mm|Usage=FLASHONLY|Rotation=0.000|XOffset=0mm|YOffset=0mm|HoleType=Round|Shape=RoundedRectangle|*
%AMROUNDEDRECTD46*
21,1,2.4000,2.6000,0,0,0.0*
21,1,0.0000,5.0000,0,0,0.0*
1,1,2.4000,0.0000,-1.3000*
1,1,2.4000,0.0000,-1.3000*
1,1,2.4000,0.0000,1.3000*
1,1,2.4000,0.0000,1.3000*
%
%ADD46ROUNDEDRECTD46*%
%ADD47C,2.3000*%
%ADD48R,1.5500X1.5500*%
%ADD49C,1.3000*%
%ADD50R,1.3000X1.3000*%
D42*
X1170190Y1420640D02*
D03*
Y1395240D02*
D03*
Y1369840D02*
D03*
Y1344440D02*
D03*
Y1319040D02*
D03*
Y1293640D02*
D03*
Y1268240D02*
D03*
Y1242840D02*
D03*
Y1217440D02*
D03*
X1144790D02*
D03*
X1119390D02*
D03*
X1093990D02*
D03*
X1068590D02*
D03*
X1043190D02*
D03*
X1017790D02*
D03*
Y1242840D02*
D03*
Y1268240D02*
D03*
Y1293640D02*
D03*
Y1319040D02*
D03*
Y1344440D02*
D03*
Y1369840D02*
D03*
Y1395240D02*
D03*
D43*
X1186681Y468346D02*
D03*
X1212281D02*
D03*
X1161080Y613346D02*
D03*
X1186681D02*
D03*
X1212281D02*
D03*
X1161080Y468346D02*
D03*
X264249Y983764D02*
D03*
X238650D02*
D03*
X289849Y838764D02*
D03*
X264249D02*
D03*
X238650D02*
D03*
X289849Y983764D02*
D03*
X448700Y838410D02*
D03*
X474300D02*
D03*
X423100Y983410D02*
D03*
X448700D02*
D03*
X474300D02*
D03*
X423100Y838410D02*
D03*
X264240Y1354170D02*
D03*
X238640D02*
D03*
X289840Y1209170D02*
D03*
X264240D02*
D03*
X238640D02*
D03*
X289840Y1354170D02*
D03*
X448200Y1209366D02*
D03*
X473801D02*
D03*
X422601Y1354366D02*
D03*
X448200D02*
D03*
X473801D02*
D03*
X422601Y1209366D02*
D03*
X1028329Y983764D02*
D03*
X977130Y838764D02*
D03*
X1002729D02*
D03*
X1028329D02*
D03*
X977130Y983764D02*
D03*
X1002729D02*
D03*
X791350Y1209290D02*
D03*
X842550Y1354290D02*
D03*
X816950D02*
D03*
X791350D02*
D03*
X842550Y1209290D02*
D03*
X816950D02*
D03*
X1161580Y838410D02*
D03*
X1212780Y983410D02*
D03*
X1187180D02*
D03*
X1161580D02*
D03*
X1212780Y838410D02*
D03*
X1187180D02*
D03*
X1351590Y1162650D02*
D03*
X1206590Y1213850D02*
D03*
Y1188250D02*
D03*
Y1162650D02*
D03*
X1351590Y1213850D02*
D03*
Y1188250D02*
D03*
X264249Y242744D02*
D03*
X238650D02*
D03*
X289849Y97744D02*
D03*
X264249D02*
D03*
X238650D02*
D03*
X289849Y242744D02*
D03*
X448700Y97390D02*
D03*
X474300D02*
D03*
X423100Y242390D02*
D03*
X448700D02*
D03*
X474300D02*
D03*
X423100Y97390D02*
D03*
X1002729Y242744D02*
D03*
X977130D02*
D03*
X1028329Y97744D02*
D03*
X1002729D02*
D03*
X977130D02*
D03*
X1028329Y242744D02*
D03*
X1187180Y97390D02*
D03*
X1212780D02*
D03*
X1161580Y242390D02*
D03*
X1187180D02*
D03*
X1212780D02*
D03*
X1161580Y97390D02*
D03*
X264240Y613150D02*
D03*
X238640D02*
D03*
X289840Y468150D02*
D03*
X264240D02*
D03*
X238640D02*
D03*
X289840Y613150D02*
D03*
X448200Y468346D02*
D03*
X473801D02*
D03*
X422601Y613346D02*
D03*
X448200D02*
D03*
X473801D02*
D03*
X422601Y468346D02*
D03*
X1002720Y613150D02*
D03*
X977120D02*
D03*
X1028320Y468150D02*
D03*
X1002720D02*
D03*
X977120D02*
D03*
X1028320Y613150D02*
D03*
D44*
X1304391Y612430D02*
D03*
X1254390D02*
D03*
X1304391Y467430D02*
D03*
X1279390D02*
D03*
X24250Y497500D02*
D03*
X146539Y839680D02*
D03*
X196539D02*
D03*
X146539Y984680D02*
D03*
X171539D02*
D03*
X515779Y839680D02*
D03*
X565779D02*
D03*
X515779Y984680D02*
D03*
X540779D02*
D03*
X196670Y1353450D02*
D03*
X146671D02*
D03*
X196670Y1208450D02*
D03*
X171670D02*
D03*
X565910Y1353450D02*
D03*
X515910D02*
D03*
X565910Y1208450D02*
D03*
X540910D02*
D03*
X910020Y984680D02*
D03*
X885020D02*
D03*
X935020Y839680D02*
D03*
X885020D02*
D03*
X910151Y1208450D02*
D03*
X935151D02*
D03*
X885151Y1353450D02*
D03*
X935151D02*
D03*
X1279259Y984680D02*
D03*
X1254259D02*
D03*
X1304259Y839680D02*
D03*
X1254259D02*
D03*
X1279390Y1208450D02*
D03*
X1304391D02*
D03*
X1254390Y1353450D02*
D03*
X1304391D02*
D03*
X146539Y98660D02*
D03*
X196539D02*
D03*
X146539Y243660D02*
D03*
X171539D02*
D03*
X515779Y98660D02*
D03*
X565779D02*
D03*
X515779Y243660D02*
D03*
X540779D02*
D03*
X885020Y98660D02*
D03*
X935020D02*
D03*
X885020Y243660D02*
D03*
X910020D02*
D03*
X1254259Y98660D02*
D03*
X1304259D02*
D03*
X1254259Y243660D02*
D03*
X1279259D02*
D03*
X196670Y612430D02*
D03*
X146671D02*
D03*
X196670Y467430D02*
D03*
X171670D02*
D03*
X565910Y612430D02*
D03*
X515910D02*
D03*
X565910Y467430D02*
D03*
X540910D02*
D03*
X935151Y612430D02*
D03*
X885151D02*
D03*
X935151Y467430D02*
D03*
X910151D02*
D03*
X24250Y997500D02*
D03*
X1425750Y452500D02*
D03*
X24250Y747500D02*
D03*
X1425750Y702500D02*
D03*
Y952500D02*
D03*
D45*
X1254390Y467430D02*
D03*
X196539Y984680D02*
D03*
X565779D02*
D03*
X146671Y1208450D02*
D03*
X515910D02*
D03*
X935020Y984680D02*
D03*
X885151Y1208450D02*
D03*
X1304259Y984680D02*
D03*
X1254390Y1208450D02*
D03*
X196539Y243660D02*
D03*
X565779D02*
D03*
X935020D02*
D03*
X1304259D02*
D03*
X146671Y467430D02*
D03*
X515910D02*
D03*
X885151D02*
D03*
D46*
X1336391Y542430D02*
D03*
X1222391D02*
D03*
X114539Y909680D02*
D03*
X228539D02*
D03*
X483779D02*
D03*
X597779D02*
D03*
X228671Y1283450D02*
D03*
X114670D02*
D03*
X597910D02*
D03*
X483910D02*
D03*
X967020Y909680D02*
D03*
X853019D02*
D03*
X853150Y1283450D02*
D03*
X967150D02*
D03*
X1336259Y909680D02*
D03*
X1222260D02*
D03*
X1222391Y1283450D02*
D03*
X1336391D02*
D03*
X114539Y168660D02*
D03*
X228539D02*
D03*
X483779D02*
D03*
X597779D02*
D03*
X853019D02*
D03*
X967020D02*
D03*
X1222260D02*
D03*
X1336259D02*
D03*
X228671Y542430D02*
D03*
X114670D02*
D03*
X597910D02*
D03*
X483910D02*
D03*
X967150D02*
D03*
X853150D02*
D03*
D47*
X49250Y510000D02*
D03*
Y440000D02*
D03*
Y1010000D02*
D03*
Y940000D02*
D03*
X1400750Y440000D02*
D03*
Y510000D02*
D03*
X49250Y760000D02*
D03*
Y690000D02*
D03*
X1400750D02*
D03*
Y760000D02*
D03*
Y940000D02*
D03*
Y1010000D02*
D03*
D48*
X24250Y452500D02*
D03*
Y952500D02*
D03*
X1425750Y497500D02*
D03*
X24250Y702500D02*
D03*
X1425750Y747500D02*
D03*
Y997500D02*
D03*
D49*
X1246070Y1385960D02*
D03*
D50*
Y1420960D02*
D03*
M02*
