G04*
G04 #@! TF.GenerationSoftware,Altium Limited,Altium Designer,22.1.2 (22)*
G04*
G04 Layer_Physical_Order=2*
G04 Layer_Color=16711680*
%FSLAX44Y44*%
%MOMM*%
G71*
G04*
G04 #@! TF.SameCoordinates,F829EE80-CB85-4AFF-B22B-D38DDCB41736*
G04*
G04*
G04 #@! TF.FilePolarity,Positive*
G04*
G01*
G75*
%ADD44C,1.5500*%
%ADD45R,1.5500X1.5500*%
G04:AMPARAMS|DCode=46|XSize=2.4mm|YSize=5mm|CornerRadius=1.2mm|HoleSize=0mm|Usage=FLASHONLY|Rotation=0.000|XOffset=0mm|YOffset=0mm|HoleType=Round|Shape=RoundedRectangle|*
%AMROUNDEDRECTD46*
21,1,2.4000,2.6000,0,0,0.0*
21,1,0.0000,5.0000,0,0,0.0*
1,1,2.4000,0.0000,-1.3000*
1,1,2.4000,0.0000,-1.3000*
1,1,2.4000,0.0000,1.3000*
1,1,2.4000,0.0000,1.3000*
%
%ADD46ROUNDEDRECTD46*%
%ADD47C,2.3000*%
%ADD48R,1.5500X1.5500*%
%ADD51C,0.3048*%
%ADD52C,0.3810*%
%ADD56C,1.5080*%
%ADD57C,1.6000*%
%ADD58C,1.2000*%
%ADD59R,1.2000X1.2000*%
%ADD60C,0.6000*%
%ADD61C,0.9000*%
G36*
X1447928Y1299142D02*
Y150858D01*
X1299142Y2072D01*
X150858D01*
X2072Y150858D01*
Y1299142D01*
X150858Y1447928D01*
X1299142D01*
X1447928Y1299142D01*
D02*
G37*
%LPC*%
G36*
X1254102Y1428992D02*
X1238038D01*
Y1412928D01*
X1254102D01*
Y1428992D01*
D02*
G37*
G36*
X1171450Y1430212D02*
X1168930D01*
X1166495Y1429560D01*
X1164313Y1428300D01*
X1162531Y1426517D01*
X1161270Y1424335D01*
X1160618Y1421900D01*
Y1419380D01*
X1161270Y1416945D01*
X1162531Y1414763D01*
X1164313Y1412980D01*
X1166495Y1411720D01*
X1168930Y1411068D01*
X1171450D01*
X1173885Y1411720D01*
X1176067Y1412980D01*
X1177850Y1414763D01*
X1179110Y1416945D01*
X1179762Y1419380D01*
Y1421900D01*
X1179110Y1424335D01*
X1177850Y1426517D01*
X1176067Y1428300D01*
X1173885Y1429560D01*
X1171450Y1430212D01*
D02*
G37*
G36*
Y1404812D02*
X1168930D01*
X1166495Y1404160D01*
X1164313Y1402899D01*
X1162531Y1401117D01*
X1161270Y1398935D01*
X1160618Y1396500D01*
Y1393980D01*
X1161270Y1391545D01*
X1162531Y1389363D01*
X1164313Y1387581D01*
X1166495Y1386320D01*
X1168930Y1385668D01*
X1171450D01*
X1173885Y1386320D01*
X1176067Y1387581D01*
X1177850Y1389363D01*
X1179110Y1391545D01*
X1179762Y1393980D01*
Y1396500D01*
X1179110Y1398935D01*
X1177850Y1401117D01*
X1176067Y1402899D01*
X1173885Y1404160D01*
X1171450Y1404812D01*
D02*
G37*
G36*
X1019050D02*
X1016530D01*
X1014095Y1404160D01*
X1011913Y1402899D01*
X1010130Y1401117D01*
X1008870Y1398935D01*
X1008218Y1396500D01*
Y1393980D01*
X1008870Y1391545D01*
X1010130Y1389363D01*
X1011913Y1387581D01*
X1014095Y1386320D01*
X1016530Y1385668D01*
X1019050D01*
X1021485Y1386320D01*
X1023667Y1387581D01*
X1025450Y1389363D01*
X1026710Y1391545D01*
X1027362Y1393980D01*
Y1396500D01*
X1026710Y1398935D01*
X1025450Y1401117D01*
X1023667Y1402899D01*
X1021485Y1404160D01*
X1019050Y1404812D01*
D02*
G37*
G36*
X1171450Y1379412D02*
X1168930D01*
X1166495Y1378760D01*
X1164313Y1377500D01*
X1162531Y1375717D01*
X1161270Y1373535D01*
X1160618Y1371100D01*
Y1368580D01*
X1161270Y1366145D01*
X1162531Y1363963D01*
X1164313Y1362180D01*
X1166495Y1360920D01*
X1168930Y1360268D01*
X1171450D01*
X1173885Y1360920D01*
X1176067Y1362180D01*
X1177850Y1363963D01*
X1179110Y1366145D01*
X1179762Y1368580D01*
Y1371100D01*
X1179110Y1373535D01*
X1177850Y1375717D01*
X1176067Y1377500D01*
X1173885Y1378760D01*
X1171450Y1379412D01*
D02*
G37*
G36*
X1019050D02*
X1016530D01*
X1014095Y1378760D01*
X1011913Y1377500D01*
X1010130Y1375717D01*
X1008870Y1373535D01*
X1008218Y1371100D01*
Y1368580D01*
X1008870Y1366145D01*
X1010130Y1363963D01*
X1011913Y1362180D01*
X1014095Y1360920D01*
X1016530Y1360268D01*
X1019050D01*
X1021485Y1360920D01*
X1023667Y1362180D01*
X1025450Y1363963D01*
X1026710Y1366145D01*
X1027362Y1368580D01*
Y1371100D01*
X1026710Y1373535D01*
X1025450Y1375717D01*
X1023667Y1377500D01*
X1021485Y1378760D01*
X1019050Y1379412D01*
D02*
G37*
G36*
X475188Y1364906D02*
X475071D01*
Y1355636D01*
X484341D01*
Y1355754D01*
X483622Y1358434D01*
X482235Y1360838D01*
X480272Y1362800D01*
X477869Y1364188D01*
X475188Y1364906D01*
D02*
G37*
G36*
X472531D02*
X472413D01*
X469732Y1364188D01*
X467329Y1362800D01*
X465366Y1360838D01*
X463979Y1358434D01*
X463260Y1355754D01*
Y1355636D01*
X472531D01*
Y1364906D01*
D02*
G37*
G36*
X843938Y1364830D02*
X843820D01*
Y1355560D01*
X853090D01*
Y1355678D01*
X852372Y1358358D01*
X850984Y1360762D01*
X849022Y1362724D01*
X846618Y1364112D01*
X843938Y1364830D01*
D02*
G37*
G36*
X841280D02*
X841162D01*
X838482Y1364112D01*
X836078Y1362724D01*
X834116Y1360762D01*
X832728Y1358358D01*
X832010Y1355678D01*
Y1355560D01*
X841280D01*
Y1364830D01*
D02*
G37*
G36*
X240028Y1364710D02*
X239910D01*
Y1355440D01*
X249180D01*
Y1355558D01*
X248462Y1358238D01*
X247074Y1360642D01*
X245112Y1362604D01*
X242708Y1363992D01*
X240028Y1364710D01*
D02*
G37*
G36*
X237370D02*
X237252D01*
X234572Y1363992D01*
X232168Y1362604D01*
X230206Y1360642D01*
X228818Y1358238D01*
X228100Y1355558D01*
Y1355440D01*
X237370D01*
Y1364710D01*
D02*
G37*
G36*
X449521Y1364398D02*
X446880D01*
X444328Y1363714D01*
X442041Y1362394D01*
X440173Y1360526D01*
X438852Y1358238D01*
X438168Y1355687D01*
Y1353045D01*
X438852Y1350494D01*
X440173Y1348206D01*
X442041Y1346339D01*
X444328Y1345018D01*
X446880Y1344334D01*
X449521D01*
X452073Y1345018D01*
X454360Y1346339D01*
X456228Y1348206D01*
X457549Y1350494D01*
X458232Y1353045D01*
Y1355687D01*
X457549Y1358238D01*
X456228Y1360526D01*
X454360Y1362394D01*
X452073Y1363714D01*
X449521Y1364398D01*
D02*
G37*
G36*
X423921D02*
X421280D01*
X418728Y1363714D01*
X416441Y1362394D01*
X414573Y1360526D01*
X413252Y1358238D01*
X412569Y1355687D01*
Y1353045D01*
X413252Y1350494D01*
X414573Y1348206D01*
X416441Y1346339D01*
X418728Y1345018D01*
X421280Y1344334D01*
X423921D01*
X426473Y1345018D01*
X428760Y1346339D01*
X430628Y1348206D01*
X431949Y1350494D01*
X432632Y1353045D01*
Y1355687D01*
X431949Y1358238D01*
X430628Y1360526D01*
X428760Y1362394D01*
X426473Y1363714D01*
X423921Y1364398D01*
D02*
G37*
G36*
X818271Y1364322D02*
X815629D01*
X813078Y1363638D01*
X810790Y1362318D01*
X808922Y1360450D01*
X807602Y1358162D01*
X806918Y1355611D01*
Y1352969D01*
X807602Y1350418D01*
X808922Y1348130D01*
X810790Y1346262D01*
X813078Y1344942D01*
X815629Y1344258D01*
X818271D01*
X820822Y1344942D01*
X823110Y1346262D01*
X824978Y1348130D01*
X826298Y1350418D01*
X826982Y1352969D01*
Y1355611D01*
X826298Y1358162D01*
X824978Y1360450D01*
X823110Y1362318D01*
X820822Y1363638D01*
X818271Y1364322D01*
D02*
G37*
G36*
X792671D02*
X790029D01*
X787478Y1363638D01*
X785190Y1362318D01*
X783322Y1360450D01*
X782002Y1358162D01*
X781318Y1355611D01*
Y1352969D01*
X782002Y1350418D01*
X783322Y1348130D01*
X785190Y1346262D01*
X787478Y1344942D01*
X790029Y1344258D01*
X792671D01*
X795222Y1344942D01*
X797510Y1346262D01*
X799378Y1348130D01*
X800698Y1350418D01*
X801382Y1352969D01*
Y1355611D01*
X800698Y1358162D01*
X799378Y1360450D01*
X797510Y1362318D01*
X795222Y1363638D01*
X792671Y1364322D01*
D02*
G37*
G36*
X291161Y1364202D02*
X288519D01*
X285968Y1363518D01*
X283680Y1362198D01*
X281812Y1360330D01*
X280492Y1358042D01*
X279808Y1355491D01*
Y1352849D01*
X280492Y1350298D01*
X281812Y1348010D01*
X283680Y1346142D01*
X285968Y1344822D01*
X288519Y1344138D01*
X291161D01*
X293712Y1344822D01*
X296000Y1346142D01*
X297868Y1348010D01*
X299188Y1350298D01*
X299872Y1352849D01*
Y1355491D01*
X299188Y1358042D01*
X297868Y1360330D01*
X296000Y1362198D01*
X293712Y1363518D01*
X291161Y1364202D01*
D02*
G37*
G36*
X265561D02*
X262919D01*
X260368Y1363518D01*
X258080Y1362198D01*
X256212Y1360330D01*
X254892Y1358042D01*
X254208Y1355491D01*
Y1352849D01*
X254892Y1350298D01*
X256212Y1348010D01*
X258080Y1346142D01*
X260368Y1344822D01*
X262919Y1344138D01*
X265561D01*
X268112Y1344822D01*
X270400Y1346142D01*
X272268Y1348010D01*
X273588Y1350298D01*
X274272Y1352849D01*
Y1355491D01*
X273588Y1358042D01*
X272268Y1360330D01*
X270400Y1362198D01*
X268112Y1363518D01*
X265561Y1364202D01*
D02*
G37*
G36*
X484341Y1353096D02*
X475071D01*
Y1343826D01*
X475188D01*
X477869Y1344544D01*
X480272Y1345932D01*
X482235Y1347894D01*
X483622Y1350298D01*
X484341Y1352978D01*
Y1353096D01*
D02*
G37*
G36*
X472531D02*
X463260D01*
Y1352978D01*
X463979Y1350298D01*
X465366Y1347894D01*
X467329Y1345932D01*
X469732Y1344544D01*
X472413Y1343826D01*
X472531D01*
Y1353096D01*
D02*
G37*
G36*
X853090Y1353020D02*
X843820D01*
Y1343750D01*
X843938D01*
X846618Y1344468D01*
X849022Y1345856D01*
X850984Y1347818D01*
X852372Y1350222D01*
X853090Y1352902D01*
Y1353020D01*
D02*
G37*
G36*
X841280D02*
X832010D01*
Y1352902D01*
X832728Y1350222D01*
X834116Y1347818D01*
X836078Y1345856D01*
X838482Y1344468D01*
X841162Y1343750D01*
X841280D01*
Y1353020D01*
D02*
G37*
G36*
X1255678Y1363232D02*
X1253103D01*
X1250615Y1362565D01*
X1248384Y1361278D01*
X1246563Y1359456D01*
X1245275Y1357226D01*
X1244609Y1354738D01*
Y1352162D01*
X1245275Y1349674D01*
X1246563Y1347444D01*
X1248384Y1345623D01*
X1250615Y1344335D01*
X1253103Y1343668D01*
X1255678D01*
X1258166Y1344335D01*
X1260397Y1345623D01*
X1262218Y1347444D01*
X1263506Y1349674D01*
X1264173Y1352162D01*
Y1354738D01*
X1263506Y1357226D01*
X1262218Y1359456D01*
X1260397Y1361278D01*
X1258166Y1362565D01*
X1255678Y1363232D01*
D02*
G37*
G36*
X886438D02*
X883863D01*
X881375Y1362565D01*
X879144Y1361278D01*
X877323Y1359456D01*
X876035Y1357226D01*
X875368Y1354738D01*
Y1352162D01*
X876035Y1349674D01*
X877323Y1347444D01*
X879144Y1345623D01*
X881375Y1344335D01*
X883863Y1343668D01*
X886438D01*
X888926Y1344335D01*
X891157Y1345623D01*
X892978Y1347444D01*
X894266Y1349674D01*
X894932Y1352162D01*
Y1354738D01*
X894266Y1357226D01*
X892978Y1359456D01*
X891157Y1361278D01*
X888926Y1362565D01*
X886438Y1363232D01*
D02*
G37*
G36*
X517198D02*
X514623D01*
X512135Y1362565D01*
X509904Y1361278D01*
X508083Y1359456D01*
X506795Y1357226D01*
X506129Y1354738D01*
Y1352162D01*
X506795Y1349674D01*
X508083Y1347444D01*
X509904Y1345623D01*
X512135Y1344335D01*
X514623Y1343668D01*
X517198D01*
X519686Y1344335D01*
X521917Y1345623D01*
X523738Y1347444D01*
X525026Y1349674D01*
X525692Y1352162D01*
Y1354738D01*
X525026Y1357226D01*
X523738Y1359456D01*
X521917Y1361278D01*
X519686Y1362565D01*
X517198Y1363232D01*
D02*
G37*
G36*
X147958D02*
X145383D01*
X142895Y1362565D01*
X140664Y1361278D01*
X138843Y1359456D01*
X137555Y1357226D01*
X136889Y1354738D01*
Y1352162D01*
X137555Y1349674D01*
X138843Y1347444D01*
X140664Y1345623D01*
X142895Y1344335D01*
X145383Y1343668D01*
X147958D01*
X150446Y1344335D01*
X152677Y1345623D01*
X154498Y1347444D01*
X155786Y1349674D01*
X156453Y1352162D01*
Y1354738D01*
X155786Y1357226D01*
X154498Y1359456D01*
X152677Y1361278D01*
X150446Y1362565D01*
X147958Y1363232D01*
D02*
G37*
G36*
X249180Y1352900D02*
X239910D01*
Y1343630D01*
X240028D01*
X242708Y1344348D01*
X245112Y1345736D01*
X247074Y1347698D01*
X248462Y1350102D01*
X249180Y1352782D01*
Y1352900D01*
D02*
G37*
G36*
X237370D02*
X228100D01*
Y1352782D01*
X228818Y1350102D01*
X230206Y1347698D01*
X232168Y1345736D01*
X234572Y1344348D01*
X237252Y1343630D01*
X237370D01*
Y1352900D01*
D02*
G37*
G36*
X1171450Y1354012D02*
X1168930D01*
X1166495Y1353360D01*
X1164313Y1352099D01*
X1162531Y1350317D01*
X1161270Y1348135D01*
X1160618Y1345700D01*
Y1343180D01*
X1161270Y1340745D01*
X1162531Y1338563D01*
X1164313Y1336781D01*
X1166495Y1335520D01*
X1168930Y1334868D01*
X1171450D01*
X1173885Y1335520D01*
X1176067Y1336781D01*
X1177850Y1338563D01*
X1179110Y1340745D01*
X1179762Y1343180D01*
Y1345700D01*
X1179110Y1348135D01*
X1177850Y1350317D01*
X1176067Y1352099D01*
X1173885Y1353360D01*
X1171450Y1354012D01*
D02*
G37*
G36*
X1019050D02*
X1016530D01*
X1014095Y1353360D01*
X1011913Y1352099D01*
X1010130Y1350317D01*
X1008870Y1348135D01*
X1008218Y1345700D01*
Y1343180D01*
X1008870Y1340745D01*
X1010130Y1338563D01*
X1011913Y1336781D01*
X1014095Y1335520D01*
X1016530Y1334868D01*
X1019050D01*
X1021485Y1335520D01*
X1023667Y1336781D01*
X1025450Y1338563D01*
X1026710Y1340745D01*
X1027362Y1343180D01*
Y1345700D01*
X1026710Y1348135D01*
X1025450Y1350317D01*
X1023667Y1352099D01*
X1021485Y1353360D01*
X1019050Y1354012D01*
D02*
G37*
G36*
X1171450Y1328612D02*
X1168930D01*
X1166495Y1327960D01*
X1164313Y1326700D01*
X1162531Y1324917D01*
X1161270Y1322735D01*
X1160618Y1320300D01*
Y1317780D01*
X1161270Y1315345D01*
X1162531Y1313163D01*
X1164313Y1311380D01*
X1166495Y1310120D01*
X1168930Y1309468D01*
X1171450D01*
X1173885Y1310120D01*
X1176067Y1311380D01*
X1177850Y1313163D01*
X1179110Y1315345D01*
X1179762Y1317780D01*
Y1320300D01*
X1179110Y1322735D01*
X1177850Y1324917D01*
X1176067Y1326700D01*
X1173885Y1327960D01*
X1171450Y1328612D01*
D02*
G37*
G36*
X1019050D02*
X1016530D01*
X1014095Y1327960D01*
X1011913Y1326700D01*
X1010130Y1324917D01*
X1008870Y1322735D01*
X1008218Y1320300D01*
Y1317780D01*
X1008870Y1315345D01*
X1010130Y1313163D01*
X1011913Y1311380D01*
X1014095Y1310120D01*
X1016530Y1309468D01*
X1019050D01*
X1021485Y1310120D01*
X1023667Y1311380D01*
X1025450Y1313163D01*
X1026710Y1315345D01*
X1027362Y1317780D01*
Y1320300D01*
X1026710Y1322735D01*
X1025450Y1324917D01*
X1023667Y1326700D01*
X1021485Y1327960D01*
X1019050Y1328612D01*
D02*
G37*
G36*
X1171450Y1303212D02*
X1168930D01*
X1166495Y1302560D01*
X1164313Y1301299D01*
X1162531Y1299517D01*
X1161270Y1297335D01*
X1160618Y1294900D01*
Y1292380D01*
X1161270Y1289945D01*
X1162531Y1287763D01*
X1164313Y1285981D01*
X1166495Y1284720D01*
X1168930Y1284068D01*
X1171450D01*
X1173885Y1284720D01*
X1176067Y1285981D01*
X1177850Y1287763D01*
X1179110Y1289945D01*
X1179762Y1292380D01*
Y1294900D01*
X1179110Y1297335D01*
X1177850Y1299517D01*
X1176067Y1301299D01*
X1173885Y1302560D01*
X1171450Y1303212D01*
D02*
G37*
G36*
X1019050D02*
X1016530D01*
X1014095Y1302560D01*
X1011913Y1301299D01*
X1010130Y1299517D01*
X1008870Y1297335D01*
X1008218Y1294900D01*
Y1292380D01*
X1008870Y1289945D01*
X1010130Y1287763D01*
X1011913Y1285981D01*
X1014095Y1284720D01*
X1016530Y1284068D01*
X1019050D01*
X1021485Y1284720D01*
X1023667Y1285981D01*
X1025450Y1287763D01*
X1026710Y1289945D01*
X1027362Y1292380D01*
Y1294900D01*
X1026710Y1297335D01*
X1025450Y1299517D01*
X1023667Y1301299D01*
X1021485Y1302560D01*
X1019050Y1303212D01*
D02*
G37*
G36*
X1171450Y1277812D02*
X1168930D01*
X1166495Y1277160D01*
X1164313Y1275900D01*
X1162531Y1274117D01*
X1161270Y1271935D01*
X1160618Y1269500D01*
Y1266980D01*
X1161270Y1264545D01*
X1162531Y1262363D01*
X1164313Y1260581D01*
X1166495Y1259320D01*
X1168930Y1258668D01*
X1171450D01*
X1173885Y1259320D01*
X1176067Y1260581D01*
X1177850Y1262363D01*
X1179110Y1264545D01*
X1179762Y1266980D01*
Y1269500D01*
X1179110Y1271935D01*
X1177850Y1274117D01*
X1176067Y1275900D01*
X1173885Y1277160D01*
X1171450Y1277812D01*
D02*
G37*
G36*
X1019050D02*
X1016530D01*
X1014095Y1277160D01*
X1011913Y1275900D01*
X1010130Y1274117D01*
X1008870Y1271935D01*
X1008218Y1269500D01*
Y1266980D01*
X1008870Y1264545D01*
X1010130Y1262363D01*
X1011913Y1260581D01*
X1014095Y1259320D01*
X1016530Y1258668D01*
X1019050D01*
X1021485Y1259320D01*
X1023667Y1260581D01*
X1025450Y1262363D01*
X1026710Y1264545D01*
X1027362Y1266980D01*
Y1269500D01*
X1026710Y1271935D01*
X1025450Y1274117D01*
X1023667Y1275900D01*
X1021485Y1277160D01*
X1019050Y1277812D01*
D02*
G37*
G36*
X1171450Y1252412D02*
X1168930D01*
X1166495Y1251760D01*
X1164313Y1250499D01*
X1162531Y1248717D01*
X1161270Y1246535D01*
X1160618Y1244100D01*
Y1241580D01*
X1161270Y1239145D01*
X1162531Y1236963D01*
X1164313Y1235181D01*
X1166495Y1233920D01*
X1168930Y1233268D01*
X1171450D01*
X1173885Y1233920D01*
X1176067Y1235181D01*
X1177850Y1236963D01*
X1179110Y1239145D01*
X1179762Y1241580D01*
Y1244100D01*
X1179110Y1246535D01*
X1177850Y1248717D01*
X1176067Y1250499D01*
X1173885Y1251760D01*
X1171450Y1252412D01*
D02*
G37*
G36*
X1019050D02*
X1016530D01*
X1014095Y1251760D01*
X1011913Y1250499D01*
X1010130Y1248717D01*
X1008870Y1246535D01*
X1008218Y1244100D01*
Y1241580D01*
X1008870Y1239145D01*
X1010130Y1236963D01*
X1011913Y1235181D01*
X1014095Y1233920D01*
X1016530Y1233268D01*
X1019050D01*
X1021485Y1233920D01*
X1023667Y1235181D01*
X1025450Y1236963D01*
X1026710Y1239145D01*
X1027362Y1241580D01*
Y1244100D01*
X1026710Y1246535D01*
X1025450Y1248717D01*
X1023667Y1250499D01*
X1021485Y1251760D01*
X1019050Y1252412D01*
D02*
G37*
G36*
X1207978Y1224390D02*
X1207860D01*
Y1215120D01*
X1217130D01*
Y1215238D01*
X1216412Y1217918D01*
X1215024Y1220322D01*
X1213062Y1222284D01*
X1210658Y1223672D01*
X1207978Y1224390D01*
D02*
G37*
G36*
X1352978D02*
X1352860D01*
Y1215120D01*
X1362130D01*
Y1215238D01*
X1361412Y1217918D01*
X1360024Y1220322D01*
X1358062Y1222284D01*
X1355658Y1223672D01*
X1352978Y1224390D01*
D02*
G37*
G36*
X1350320D02*
X1350202D01*
X1347522Y1223672D01*
X1345118Y1222284D01*
X1343156Y1220322D01*
X1341768Y1217918D01*
X1341050Y1215238D01*
Y1215120D01*
X1350320D01*
Y1224390D01*
D02*
G37*
G36*
X1205320D02*
X1205202D01*
X1202522Y1223672D01*
X1200118Y1222284D01*
X1198156Y1220322D01*
X1196768Y1217918D01*
X1196050Y1215238D01*
Y1215120D01*
X1205320D01*
Y1224390D01*
D02*
G37*
G36*
X475188Y1219906D02*
X475070D01*
Y1210636D01*
X484341D01*
Y1210754D01*
X483622Y1213434D01*
X482235Y1215838D01*
X480272Y1217800D01*
X477869Y1219188D01*
X475188Y1219906D01*
D02*
G37*
G36*
X472531D02*
X472413D01*
X469732Y1219188D01*
X467329Y1217800D01*
X465366Y1215838D01*
X463979Y1213434D01*
X463260Y1210754D01*
Y1210636D01*
X472531D01*
Y1219906D01*
D02*
G37*
G36*
X843938Y1219830D02*
X843820D01*
Y1210560D01*
X853090D01*
Y1210678D01*
X852372Y1213358D01*
X850984Y1215762D01*
X849022Y1217724D01*
X846618Y1219112D01*
X843938Y1219830D01*
D02*
G37*
G36*
X841280D02*
X841162D01*
X838482Y1219112D01*
X836078Y1217724D01*
X834116Y1215762D01*
X832728Y1213358D01*
X832010Y1210678D01*
Y1210560D01*
X841280D01*
Y1219830D01*
D02*
G37*
G36*
X240028Y1219710D02*
X239910D01*
Y1210440D01*
X249180D01*
Y1210558D01*
X248462Y1213238D01*
X247074Y1215642D01*
X245112Y1217604D01*
X242708Y1218992D01*
X240028Y1219710D01*
D02*
G37*
G36*
X237370D02*
X237252D01*
X234572Y1218992D01*
X232168Y1217604D01*
X230206Y1215642D01*
X228818Y1213238D01*
X228100Y1210558D01*
Y1210440D01*
X237370D01*
Y1219710D01*
D02*
G37*
G36*
X1171450Y1227012D02*
X1168930D01*
X1166495Y1226360D01*
X1164313Y1225099D01*
X1162531Y1223317D01*
X1161270Y1221135D01*
X1160618Y1218700D01*
Y1216180D01*
X1161270Y1213745D01*
X1162531Y1211563D01*
X1164313Y1209781D01*
X1166495Y1208520D01*
X1168930Y1207868D01*
X1171450D01*
X1173885Y1208520D01*
X1176067Y1209781D01*
X1177850Y1211563D01*
X1179110Y1213745D01*
X1179762Y1216180D01*
Y1218700D01*
X1179110Y1221135D01*
X1177850Y1223317D01*
X1176067Y1225099D01*
X1173885Y1226360D01*
X1171450Y1227012D01*
D02*
G37*
G36*
X1146050D02*
X1143530D01*
X1141095Y1226360D01*
X1138913Y1225099D01*
X1137131Y1223317D01*
X1135870Y1221135D01*
X1135218Y1218700D01*
Y1216180D01*
X1135870Y1213745D01*
X1137131Y1211563D01*
X1138913Y1209781D01*
X1141095Y1208520D01*
X1143530Y1207868D01*
X1146050D01*
X1148485Y1208520D01*
X1150667Y1209781D01*
X1152449Y1211563D01*
X1153710Y1213745D01*
X1154362Y1216180D01*
Y1218700D01*
X1153710Y1221135D01*
X1152449Y1223317D01*
X1150667Y1225099D01*
X1148485Y1226360D01*
X1146050Y1227012D01*
D02*
G37*
G36*
X1120650D02*
X1118130D01*
X1115695Y1226360D01*
X1113513Y1225099D01*
X1111730Y1223317D01*
X1110470Y1221135D01*
X1109818Y1218700D01*
Y1216180D01*
X1110470Y1213745D01*
X1111730Y1211563D01*
X1113513Y1209781D01*
X1115695Y1208520D01*
X1118130Y1207868D01*
X1120650D01*
X1123085Y1208520D01*
X1125267Y1209781D01*
X1127049Y1211563D01*
X1128310Y1213745D01*
X1128962Y1216180D01*
Y1218700D01*
X1128310Y1221135D01*
X1127049Y1223317D01*
X1125267Y1225099D01*
X1123085Y1226360D01*
X1120650Y1227012D01*
D02*
G37*
G36*
X1095250D02*
X1092730D01*
X1090295Y1226360D01*
X1088113Y1225099D01*
X1086330Y1223317D01*
X1085070Y1221135D01*
X1084418Y1218700D01*
Y1216180D01*
X1085070Y1213745D01*
X1086330Y1211563D01*
X1088113Y1209781D01*
X1090295Y1208520D01*
X1092730Y1207868D01*
X1095250D01*
X1097685Y1208520D01*
X1099867Y1209781D01*
X1101649Y1211563D01*
X1102910Y1213745D01*
X1103562Y1216180D01*
Y1218700D01*
X1102910Y1221135D01*
X1101649Y1223317D01*
X1099867Y1225099D01*
X1097685Y1226360D01*
X1095250Y1227012D01*
D02*
G37*
G36*
X1069850D02*
X1067330D01*
X1064895Y1226360D01*
X1062713Y1225099D01*
X1060930Y1223317D01*
X1059670Y1221135D01*
X1059018Y1218700D01*
Y1216180D01*
X1059670Y1213745D01*
X1060930Y1211563D01*
X1062713Y1209781D01*
X1064895Y1208520D01*
X1067330Y1207868D01*
X1069850D01*
X1072285Y1208520D01*
X1074467Y1209781D01*
X1076249Y1211563D01*
X1077510Y1213745D01*
X1078162Y1216180D01*
Y1218700D01*
X1077510Y1221135D01*
X1076249Y1223317D01*
X1074467Y1225099D01*
X1072285Y1226360D01*
X1069850Y1227012D01*
D02*
G37*
G36*
X1044450D02*
X1041930D01*
X1039495Y1226360D01*
X1037313Y1225099D01*
X1035530Y1223317D01*
X1034270Y1221135D01*
X1033618Y1218700D01*
Y1216180D01*
X1034270Y1213745D01*
X1035530Y1211563D01*
X1037313Y1209781D01*
X1039495Y1208520D01*
X1041930Y1207868D01*
X1044450D01*
X1046885Y1208520D01*
X1049067Y1209781D01*
X1050850Y1211563D01*
X1052110Y1213745D01*
X1052762Y1216180D01*
Y1218700D01*
X1052110Y1221135D01*
X1050850Y1223317D01*
X1049067Y1225099D01*
X1046885Y1226360D01*
X1044450Y1227012D01*
D02*
G37*
G36*
X1019050D02*
X1016530D01*
X1014095Y1226360D01*
X1011913Y1225099D01*
X1010130Y1223317D01*
X1008870Y1221135D01*
X1008218Y1218700D01*
Y1216180D01*
X1008870Y1213745D01*
X1010130Y1211563D01*
X1011913Y1209781D01*
X1014095Y1208520D01*
X1016530Y1207868D01*
X1019050D01*
X1021485Y1208520D01*
X1023667Y1209781D01*
X1025450Y1211563D01*
X1026710Y1213745D01*
X1027362Y1216180D01*
Y1218700D01*
X1026710Y1221135D01*
X1025450Y1223317D01*
X1023667Y1225099D01*
X1021485Y1226360D01*
X1019050Y1227012D01*
D02*
G37*
G36*
X1362130Y1212580D02*
X1352860D01*
Y1203310D01*
X1352978D01*
X1355658Y1204028D01*
X1358062Y1205416D01*
X1360024Y1207378D01*
X1361412Y1209782D01*
X1362130Y1212462D01*
Y1212580D01*
D02*
G37*
G36*
X1350320D02*
X1341050D01*
Y1212462D01*
X1341768Y1209782D01*
X1343156Y1207378D01*
X1345118Y1205416D01*
X1347522Y1204028D01*
X1350202Y1203310D01*
X1350320D01*
Y1212580D01*
D02*
G37*
G36*
X1217130D02*
X1207860D01*
Y1203310D01*
X1207978D01*
X1210658Y1204028D01*
X1213062Y1205416D01*
X1215024Y1207378D01*
X1216412Y1209782D01*
X1217130Y1212462D01*
Y1212580D01*
D02*
G37*
G36*
X1205320D02*
X1196050D01*
Y1212462D01*
X1196768Y1209782D01*
X1198156Y1207378D01*
X1200118Y1205416D01*
X1202522Y1204028D01*
X1205202Y1203310D01*
X1205320D01*
Y1212580D01*
D02*
G37*
G36*
X449521Y1219398D02*
X446880D01*
X444328Y1218714D01*
X442041Y1217394D01*
X440173Y1215526D01*
X438852Y1213238D01*
X438168Y1210687D01*
Y1208045D01*
X438852Y1205494D01*
X440173Y1203206D01*
X442041Y1201339D01*
X444328Y1200018D01*
X446880Y1199334D01*
X449521D01*
X452073Y1200018D01*
X454360Y1201339D01*
X456228Y1203206D01*
X457549Y1205494D01*
X458232Y1208045D01*
Y1210687D01*
X457549Y1213238D01*
X456228Y1215526D01*
X454360Y1217394D01*
X452073Y1218714D01*
X449521Y1219398D01*
D02*
G37*
G36*
X423921D02*
X421280D01*
X418728Y1218714D01*
X416441Y1217394D01*
X414573Y1215526D01*
X413252Y1213238D01*
X412569Y1210687D01*
Y1208045D01*
X413252Y1205494D01*
X414573Y1203206D01*
X416441Y1201339D01*
X418728Y1200018D01*
X421280Y1199334D01*
X423921D01*
X426473Y1200018D01*
X428760Y1201339D01*
X430628Y1203206D01*
X431949Y1205494D01*
X432632Y1208045D01*
Y1210687D01*
X431949Y1213238D01*
X430628Y1215526D01*
X428760Y1217394D01*
X426473Y1218714D01*
X423921Y1219398D01*
D02*
G37*
G36*
X818271Y1219322D02*
X815629D01*
X813078Y1218638D01*
X810790Y1217318D01*
X808922Y1215450D01*
X807602Y1213162D01*
X806918Y1210611D01*
Y1207969D01*
X807602Y1205418D01*
X808922Y1203130D01*
X810790Y1201262D01*
X813078Y1199942D01*
X815629Y1199258D01*
X818271D01*
X820822Y1199942D01*
X823110Y1201262D01*
X824978Y1203130D01*
X826298Y1205418D01*
X826982Y1207969D01*
Y1210611D01*
X826298Y1213162D01*
X824978Y1215450D01*
X823110Y1217318D01*
X820822Y1218638D01*
X818271Y1219322D01*
D02*
G37*
G36*
X792671D02*
X790029D01*
X787478Y1218638D01*
X785190Y1217318D01*
X783322Y1215450D01*
X782002Y1213162D01*
X781318Y1210611D01*
Y1207969D01*
X782002Y1205418D01*
X783322Y1203130D01*
X785190Y1201262D01*
X787478Y1199942D01*
X790029Y1199258D01*
X792671D01*
X795222Y1199942D01*
X797510Y1201262D01*
X799378Y1203130D01*
X800698Y1205418D01*
X801382Y1207969D01*
Y1210611D01*
X800698Y1213162D01*
X799378Y1215450D01*
X797510Y1217318D01*
X795222Y1218638D01*
X792671Y1219322D01*
D02*
G37*
G36*
X291161Y1219202D02*
X288519D01*
X285968Y1218518D01*
X283680Y1217198D01*
X281812Y1215330D01*
X280492Y1213042D01*
X279808Y1210491D01*
Y1207849D01*
X280492Y1205298D01*
X281812Y1203010D01*
X283680Y1201142D01*
X285968Y1199822D01*
X288519Y1199138D01*
X291161D01*
X293712Y1199822D01*
X296000Y1201142D01*
X297868Y1203010D01*
X299188Y1205298D01*
X299872Y1207849D01*
Y1210491D01*
X299188Y1213042D01*
X297868Y1215330D01*
X296000Y1217198D01*
X293712Y1218518D01*
X291161Y1219202D01*
D02*
G37*
G36*
X265561D02*
X262919D01*
X260368Y1218518D01*
X258080Y1217198D01*
X256212Y1215330D01*
X254892Y1213042D01*
X254208Y1210491D01*
Y1207849D01*
X254892Y1205298D01*
X256212Y1203010D01*
X258080Y1201142D01*
X260368Y1199822D01*
X262919Y1199138D01*
X265561D01*
X268112Y1199822D01*
X270400Y1201142D01*
X272268Y1203010D01*
X273588Y1205298D01*
X274272Y1207849D01*
Y1210491D01*
X273588Y1213042D01*
X272268Y1215330D01*
X270400Y1217198D01*
X268112Y1218518D01*
X265561Y1219202D01*
D02*
G37*
G36*
X484341Y1208096D02*
X475070D01*
Y1198826D01*
X475188D01*
X477869Y1199544D01*
X480272Y1200932D01*
X482235Y1202894D01*
X483622Y1205298D01*
X484341Y1207978D01*
Y1208096D01*
D02*
G37*
G36*
X472531D02*
X463260D01*
Y1207978D01*
X463979Y1205298D01*
X465366Y1202894D01*
X467329Y1200932D01*
X469732Y1199544D01*
X472413Y1198826D01*
X472531D01*
Y1208096D01*
D02*
G37*
G36*
X853090Y1208020D02*
X843820D01*
Y1198750D01*
X843938D01*
X846618Y1199468D01*
X849022Y1200856D01*
X850984Y1202818D01*
X852372Y1205222D01*
X853090Y1207902D01*
Y1208020D01*
D02*
G37*
G36*
X841280D02*
X832010D01*
Y1207902D01*
X832728Y1205222D01*
X834116Y1202818D01*
X836078Y1200856D01*
X838482Y1199468D01*
X841162Y1198750D01*
X841280D01*
Y1208020D01*
D02*
G37*
G36*
X1305678Y1218232D02*
X1303103D01*
X1300615Y1217565D01*
X1298384Y1216278D01*
X1296563Y1214456D01*
X1295275Y1212226D01*
X1294608Y1209738D01*
Y1207162D01*
X1295275Y1204674D01*
X1296563Y1202444D01*
X1298384Y1200622D01*
X1300615Y1199335D01*
X1303103Y1198668D01*
X1305678D01*
X1308166Y1199335D01*
X1310397Y1200622D01*
X1312218Y1202444D01*
X1313506Y1204674D01*
X1314173Y1207162D01*
Y1209738D01*
X1313506Y1212226D01*
X1312218Y1214456D01*
X1310397Y1216278D01*
X1308166Y1217565D01*
X1305678Y1218232D01*
D02*
G37*
G36*
X1264173D02*
X1244609D01*
Y1198668D01*
X1264173D01*
Y1218232D01*
D02*
G37*
G36*
X936438D02*
X933863D01*
X931375Y1217565D01*
X929144Y1216278D01*
X927323Y1214456D01*
X926035Y1212226D01*
X925368Y1209738D01*
Y1207162D01*
X926035Y1204674D01*
X927323Y1202444D01*
X929144Y1200622D01*
X931375Y1199335D01*
X933863Y1198668D01*
X936438D01*
X938926Y1199335D01*
X941157Y1200622D01*
X942978Y1202444D01*
X944266Y1204674D01*
X944932Y1207162D01*
Y1209738D01*
X944266Y1212226D01*
X942978Y1214456D01*
X941157Y1216278D01*
X938926Y1217565D01*
X936438Y1218232D01*
D02*
G37*
G36*
X894932D02*
X875368D01*
Y1198668D01*
X894932D01*
Y1218232D01*
D02*
G37*
G36*
X567198D02*
X564623D01*
X562135Y1217565D01*
X559904Y1216278D01*
X558083Y1214456D01*
X556795Y1212226D01*
X556129Y1209738D01*
Y1207162D01*
X556795Y1204674D01*
X558083Y1202444D01*
X559904Y1200622D01*
X562135Y1199335D01*
X564623Y1198668D01*
X567198D01*
X569686Y1199335D01*
X571917Y1200622D01*
X573738Y1202444D01*
X575026Y1204674D01*
X575692Y1207162D01*
Y1209738D01*
X575026Y1212226D01*
X573738Y1214456D01*
X571917Y1216278D01*
X569686Y1217565D01*
X567198Y1218232D01*
D02*
G37*
G36*
X525692D02*
X506129D01*
Y1198668D01*
X525692D01*
Y1218232D01*
D02*
G37*
G36*
X197958D02*
X195383D01*
X192895Y1217565D01*
X190664Y1216278D01*
X188843Y1214456D01*
X187555Y1212226D01*
X186889Y1209738D01*
Y1207162D01*
X187555Y1204674D01*
X188843Y1202444D01*
X190664Y1200622D01*
X192895Y1199335D01*
X195383Y1198668D01*
X197958D01*
X200446Y1199335D01*
X202677Y1200622D01*
X204498Y1202444D01*
X205786Y1204674D01*
X206453Y1207162D01*
Y1209738D01*
X205786Y1212226D01*
X204498Y1214456D01*
X202677Y1216278D01*
X200446Y1217565D01*
X197958Y1218232D01*
D02*
G37*
G36*
X156453D02*
X136889D01*
Y1198668D01*
X156453D01*
Y1218232D01*
D02*
G37*
G36*
X249180Y1207900D02*
X239910D01*
Y1198630D01*
X240028D01*
X242708Y1199348D01*
X245112Y1200736D01*
X247074Y1202698D01*
X248462Y1205102D01*
X249180Y1207782D01*
Y1207900D01*
D02*
G37*
G36*
X237370D02*
X228100D01*
Y1207782D01*
X228818Y1205102D01*
X230206Y1202698D01*
X232168Y1200736D01*
X234572Y1199348D01*
X237252Y1198630D01*
X237370D01*
Y1207900D01*
D02*
G37*
G36*
X1352911Y1198282D02*
X1350269D01*
X1347718Y1197598D01*
X1345430Y1196278D01*
X1343562Y1194410D01*
X1342242Y1192122D01*
X1341558Y1189571D01*
Y1186929D01*
X1342242Y1184378D01*
X1343562Y1182090D01*
X1345430Y1180222D01*
X1347718Y1178902D01*
X1350269Y1178218D01*
X1352911D01*
X1355462Y1178902D01*
X1357750Y1180222D01*
X1359618Y1182090D01*
X1360938Y1184378D01*
X1361622Y1186929D01*
Y1189571D01*
X1360938Y1192122D01*
X1359618Y1194410D01*
X1357750Y1196278D01*
X1355462Y1197598D01*
X1352911Y1198282D01*
D02*
G37*
G36*
X1207911D02*
X1205269D01*
X1202718Y1197598D01*
X1200430Y1196278D01*
X1198562Y1194410D01*
X1197242Y1192122D01*
X1196558Y1189571D01*
Y1186929D01*
X1197242Y1184378D01*
X1198562Y1182090D01*
X1200430Y1180222D01*
X1202718Y1178902D01*
X1205269Y1178218D01*
X1207911D01*
X1210462Y1178902D01*
X1212750Y1180222D01*
X1214618Y1182090D01*
X1215938Y1184378D01*
X1216622Y1186929D01*
Y1189571D01*
X1215938Y1192122D01*
X1214618Y1194410D01*
X1212750Y1196278D01*
X1210462Y1197598D01*
X1207911Y1198282D01*
D02*
G37*
G36*
X1352911Y1172682D02*
X1350269D01*
X1347718Y1171998D01*
X1345430Y1170678D01*
X1343562Y1168810D01*
X1342242Y1166522D01*
X1341558Y1163971D01*
Y1161329D01*
X1342242Y1158778D01*
X1343562Y1156490D01*
X1345430Y1154622D01*
X1347718Y1153302D01*
X1350269Y1152618D01*
X1352911D01*
X1355462Y1153302D01*
X1357750Y1154622D01*
X1359618Y1156490D01*
X1360938Y1158778D01*
X1361622Y1161329D01*
Y1163971D01*
X1360938Y1166522D01*
X1359618Y1168810D01*
X1357750Y1170678D01*
X1355462Y1171998D01*
X1352911Y1172682D01*
D02*
G37*
G36*
X1207911D02*
X1205269D01*
X1202718Y1171998D01*
X1200430Y1170678D01*
X1198562Y1168810D01*
X1197242Y1166522D01*
X1196558Y1163971D01*
Y1161329D01*
X1197242Y1158778D01*
X1198562Y1156490D01*
X1200430Y1154622D01*
X1202718Y1153302D01*
X1205269Y1152618D01*
X1207911D01*
X1210462Y1153302D01*
X1212750Y1154622D01*
X1214618Y1156490D01*
X1215938Y1158778D01*
X1216622Y1161329D01*
Y1163971D01*
X1215938Y1166522D01*
X1214618Y1168810D01*
X1212750Y1170678D01*
X1210462Y1171998D01*
X1207911Y1172682D01*
D02*
G37*
G36*
X752361Y1175202D02*
X750359D01*
X748510Y1174436D01*
X747094Y1173020D01*
X746328Y1171171D01*
Y1169169D01*
X747094Y1167320D01*
X747545Y1166869D01*
Y1152913D01*
X747492Y1152860D01*
X746726Y1151011D01*
Y1149009D01*
X747492Y1147160D01*
X748908Y1145744D01*
X750757Y1144978D01*
X752759D01*
X754609Y1145744D01*
X756024Y1147160D01*
X756790Y1149009D01*
Y1151011D01*
X756024Y1152860D01*
X755573Y1153311D01*
Y1167267D01*
X755626Y1167320D01*
X756392Y1169169D01*
Y1171171D01*
X755626Y1173020D01*
X754210Y1174436D01*
X752361Y1175202D01*
D02*
G37*
G36*
X685361Y1188812D02*
X683359D01*
X681510Y1188046D01*
X680094Y1186630D01*
X679328Y1184781D01*
Y1182779D01*
X679951Y1181275D01*
Y1153237D01*
X679304Y1152590D01*
X678538Y1150741D01*
Y1148739D01*
X679304Y1146890D01*
X680720Y1145474D01*
X682569Y1144708D01*
X684571D01*
X686420Y1145474D01*
X687836Y1146890D01*
X688602Y1148739D01*
Y1150741D01*
X687979Y1152245D01*
Y1180283D01*
X688626Y1180930D01*
X689392Y1182779D01*
Y1184781D01*
X688626Y1186630D01*
X687210Y1188046D01*
X685361Y1188812D01*
D02*
G37*
G36*
X672081Y1188432D02*
X670079D01*
X668230Y1187666D01*
X666814Y1186250D01*
X666048Y1184401D01*
Y1182399D01*
X666814Y1180550D01*
X666986Y1180378D01*
Y1152922D01*
X666654Y1152590D01*
X665888Y1150741D01*
Y1148739D01*
X666654Y1146890D01*
X668070Y1145474D01*
X669919Y1144708D01*
X671921D01*
X673770Y1145474D01*
X675186Y1146890D01*
X675952Y1148739D01*
Y1150741D01*
X675186Y1152590D01*
X675014Y1152762D01*
Y1180218D01*
X675346Y1180550D01*
X676112Y1182399D01*
Y1184401D01*
X675346Y1186250D01*
X673930Y1187666D01*
X672081Y1188432D01*
D02*
G37*
G36*
X770891Y1176472D02*
X768889D01*
X767040Y1175706D01*
X765624Y1174290D01*
X764858Y1172441D01*
Y1170439D01*
X765624Y1168590D01*
X765876Y1168338D01*
Y1151262D01*
X765731Y1151046D01*
X765426Y1149510D01*
Y1148443D01*
X765174Y1148192D01*
X764408Y1146342D01*
Y1144340D01*
X765174Y1142491D01*
X766590Y1141075D01*
X768439Y1140309D01*
X770441D01*
X772290Y1141075D01*
X773706Y1142491D01*
X774472Y1144340D01*
Y1146342D01*
X773706Y1148192D01*
X773549Y1148349D01*
X773599Y1148424D01*
X773904Y1149960D01*
Y1168338D01*
X774156Y1168590D01*
X774922Y1170439D01*
Y1172441D01*
X774156Y1174290D01*
X772740Y1175706D01*
X770891Y1176472D01*
D02*
G37*
G36*
X1422800Y1113202D02*
X1421080D01*
X1419419Y1112757D01*
X1417929Y1111897D01*
X1416713Y1110681D01*
X1416462Y1110246D01*
X1377699D01*
X1377477Y1110631D01*
X1376261Y1111847D01*
X1374771Y1112707D01*
X1373110Y1113152D01*
X1371390D01*
X1369729Y1112707D01*
X1368239Y1111847D01*
X1367023Y1110631D01*
X1366163Y1109141D01*
X1365718Y1107480D01*
Y1105760D01*
X1366163Y1104099D01*
X1367023Y1102609D01*
X1368239Y1101393D01*
X1369729Y1100533D01*
X1371390Y1100088D01*
X1373110D01*
X1374771Y1100533D01*
X1376261Y1101393D01*
X1377477Y1102609D01*
X1377699Y1102994D01*
X1416520D01*
X1416713Y1102659D01*
X1417929Y1101443D01*
X1419419Y1100583D01*
X1421080Y1100138D01*
X1422800D01*
X1424461Y1100583D01*
X1425951Y1101443D01*
X1427167Y1102659D01*
X1428027Y1104149D01*
X1428472Y1105810D01*
Y1107530D01*
X1428027Y1109191D01*
X1427167Y1110681D01*
X1425951Y1111897D01*
X1424461Y1112757D01*
X1422800Y1113202D01*
D02*
G37*
G36*
X1373050Y1082382D02*
X1371330D01*
X1369669Y1081937D01*
X1368179Y1081077D01*
X1366963Y1079861D01*
X1366103Y1078371D01*
X1365658Y1076710D01*
Y1074990D01*
X1366103Y1073329D01*
X1366963Y1071839D01*
X1368179Y1070623D01*
X1369669Y1069763D01*
X1371330Y1069318D01*
X1373050D01*
X1374711Y1069763D01*
X1376201Y1070623D01*
X1377417Y1071839D01*
X1377625Y1072199D01*
X1415876D01*
X1416113Y1071789D01*
X1417329Y1070573D01*
X1418819Y1069713D01*
X1420480Y1069268D01*
X1422200D01*
X1423861Y1069713D01*
X1425351Y1070573D01*
X1426567Y1071789D01*
X1427427Y1073279D01*
X1427872Y1074940D01*
Y1076660D01*
X1427427Y1078321D01*
X1426567Y1079811D01*
X1425351Y1081027D01*
X1423861Y1081887D01*
X1422200Y1082332D01*
X1420480D01*
X1418819Y1081887D01*
X1417329Y1081027D01*
X1416113Y1079811D01*
X1415905Y1079451D01*
X1377654D01*
X1377417Y1079861D01*
X1376201Y1081077D01*
X1374711Y1081937D01*
X1373050Y1082382D01*
D02*
G37*
G36*
X1435532Y1007282D02*
X1415968D01*
Y987718D01*
X1435532D01*
Y1007282D01*
D02*
G37*
G36*
X978517Y994304D02*
X978400D01*
Y985034D01*
X987669D01*
Y985152D01*
X986951Y987832D01*
X985564Y990236D01*
X983601Y992198D01*
X981198Y993586D01*
X978517Y994304D01*
D02*
G37*
G36*
X240037D02*
X239919D01*
Y985034D01*
X249189D01*
Y985152D01*
X248471Y987832D01*
X247084Y990236D01*
X245121Y992198D01*
X242718Y993586D01*
X240037Y994304D01*
D02*
G37*
G36*
X975860D02*
X975742D01*
X973061Y993586D01*
X970658Y992198D01*
X968695Y990236D01*
X967308Y987832D01*
X966590Y985152D01*
Y985034D01*
X975860D01*
Y994304D01*
D02*
G37*
G36*
X237379D02*
X237262D01*
X234581Y993586D01*
X232178Y992198D01*
X230215Y990236D01*
X228828Y987832D01*
X228109Y985152D01*
Y985034D01*
X237379D01*
Y994304D01*
D02*
G37*
G36*
X1214168Y993950D02*
X1214050D01*
Y984680D01*
X1223320D01*
Y984798D01*
X1222602Y987478D01*
X1221214Y989882D01*
X1219252Y991844D01*
X1216848Y993232D01*
X1214168Y993950D01*
D02*
G37*
G36*
X475688D02*
X475570D01*
Y984680D01*
X484840D01*
Y984798D01*
X484122Y987478D01*
X482734Y989882D01*
X480772Y991844D01*
X478368Y993232D01*
X475688Y993950D01*
D02*
G37*
G36*
X1211510D02*
X1211392D01*
X1208712Y993232D01*
X1206308Y991844D01*
X1204346Y989882D01*
X1202958Y987478D01*
X1202240Y984798D01*
Y984680D01*
X1211510D01*
Y993950D01*
D02*
G37*
G36*
X473030D02*
X472912D01*
X470232Y993232D01*
X467828Y991844D01*
X465866Y989882D01*
X464478Y987478D01*
X463760Y984798D01*
Y984680D01*
X473030D01*
Y993950D01*
D02*
G37*
G36*
X748385Y1021917D02*
X746384D01*
X744534Y1021151D01*
X743119Y1019735D01*
X742353Y1017886D01*
Y1015884D01*
X743119Y1014034D01*
X743370Y1013782D01*
Y998060D01*
X743240Y998006D01*
X741824Y996590D01*
X741058Y994741D01*
Y992739D01*
X741824Y990890D01*
X743240Y989474D01*
X745089Y988708D01*
X747091D01*
X748940Y989474D01*
X750356Y990890D01*
X751122Y992739D01*
Y994236D01*
X751399Y995627D01*
Y1009712D01*
X752669Y1010274D01*
X753203Y1009788D01*
Y988210D01*
X753159Y988165D01*
X752393Y986316D01*
Y984314D01*
X753159Y982465D01*
X754575Y981049D01*
X756424Y980283D01*
X758426D01*
X760275Y981049D01*
X761691Y982465D01*
X762457Y984314D01*
Y986316D01*
X761691Y988165D01*
X761232Y988625D01*
Y1010615D01*
X761276Y1010660D01*
X762042Y1012509D01*
Y1014511D01*
X761276Y1016360D01*
X759860Y1017776D01*
X758011Y1018542D01*
X756009D01*
X754160Y1017776D01*
X753687Y1017303D01*
X752417Y1017829D01*
Y1017886D01*
X751650Y1019735D01*
X750235Y1021151D01*
X748385Y1021917D01*
D02*
G37*
G36*
X693001Y1014642D02*
X690999D01*
X689150Y1013876D01*
X687734Y1012460D01*
X686968Y1010611D01*
Y1008609D01*
X687734Y1006760D01*
X687856Y1006638D01*
Y987872D01*
X687474Y987490D01*
X686708Y985641D01*
Y983639D01*
X687474Y981790D01*
X688890Y980374D01*
X690739Y979608D01*
X692741D01*
X694590Y980374D01*
X696006Y981790D01*
X696772Y983639D01*
Y985641D01*
X696006Y987490D01*
X695884Y987612D01*
Y1006378D01*
X696266Y1006760D01*
X697032Y1008609D01*
Y1010611D01*
X696266Y1012460D01*
X694850Y1013876D01*
X693001Y1014642D01*
D02*
G37*
G36*
X678701Y1013342D02*
X676699D01*
X674850Y1012576D01*
X673434Y1011160D01*
X672668Y1009311D01*
Y1007309D01*
X673434Y1005460D01*
X673686Y1005208D01*
Y987742D01*
X673434Y987490D01*
X672668Y985641D01*
Y983639D01*
X673434Y981790D01*
X674850Y980374D01*
X676699Y979608D01*
X678701D01*
X680550Y980374D01*
X681966Y981790D01*
X682732Y983639D01*
Y985641D01*
X681966Y987490D01*
X681714Y987742D01*
Y1005208D01*
X681966Y1005460D01*
X682732Y1007309D01*
Y1009311D01*
X681966Y1011160D01*
X680550Y1012576D01*
X678701Y1013342D01*
D02*
G37*
G36*
X1314041Y994462D02*
X1294478D01*
Y974898D01*
X1314041D01*
Y994462D01*
D02*
G37*
G36*
X1255547D02*
X1252972D01*
X1250484Y993795D01*
X1248253Y992507D01*
X1246432Y990686D01*
X1245144Y988456D01*
X1244477Y985968D01*
Y983392D01*
X1245144Y980904D01*
X1246432Y978674D01*
X1248253Y976852D01*
X1250484Y975565D01*
X1252972Y974898D01*
X1255547D01*
X1258035Y975565D01*
X1260266Y976852D01*
X1262087Y978674D01*
X1263375Y980904D01*
X1264042Y983392D01*
Y985968D01*
X1263375Y988456D01*
X1262087Y990686D01*
X1260266Y992507D01*
X1258035Y993795D01*
X1255547Y994462D01*
D02*
G37*
G36*
X944801D02*
X925238D01*
Y974898D01*
X944801D01*
Y994462D01*
D02*
G37*
G36*
X886307D02*
X883732D01*
X881244Y993795D01*
X879013Y992507D01*
X877192Y990686D01*
X875904Y988456D01*
X875238Y985968D01*
Y983392D01*
X875904Y980904D01*
X877192Y978674D01*
X879013Y976852D01*
X881244Y975565D01*
X883732Y974898D01*
X886307D01*
X888795Y975565D01*
X891026Y976852D01*
X892847Y978674D01*
X894135Y980904D01*
X894801Y983392D01*
Y985968D01*
X894135Y988456D01*
X892847Y990686D01*
X891026Y992507D01*
X888795Y993795D01*
X886307Y994462D01*
D02*
G37*
G36*
X575561D02*
X555998D01*
Y974898D01*
X575561D01*
Y994462D01*
D02*
G37*
G36*
X517067D02*
X514492D01*
X512004Y993795D01*
X509773Y992507D01*
X507952Y990686D01*
X506664Y988456D01*
X505998Y985968D01*
Y983392D01*
X506664Y980904D01*
X507952Y978674D01*
X509773Y976852D01*
X512004Y975565D01*
X514492Y974898D01*
X517067D01*
X519555Y975565D01*
X521786Y976852D01*
X523607Y978674D01*
X524895Y980904D01*
X525561Y983392D01*
Y985968D01*
X524895Y988456D01*
X523607Y990686D01*
X521786Y992507D01*
X519555Y993795D01*
X517067Y994462D01*
D02*
G37*
G36*
X206322D02*
X186758D01*
Y974898D01*
X206322D01*
Y994462D01*
D02*
G37*
G36*
X147827D02*
X145252D01*
X142764Y993795D01*
X140533Y992507D01*
X138712Y990686D01*
X137424Y988456D01*
X136757Y985968D01*
Y983392D01*
X137424Y980904D01*
X138712Y978674D01*
X140533Y976852D01*
X142764Y975565D01*
X145252Y974898D01*
X147827D01*
X150315Y975565D01*
X152546Y976852D01*
X154367Y978674D01*
X155655Y980904D01*
X156321Y983392D01*
Y985968D01*
X155655Y988456D01*
X154367Y990686D01*
X152546Y992507D01*
X150315Y993795D01*
X147827Y994462D01*
D02*
G37*
G36*
X1029650Y993796D02*
X1027009D01*
X1024457Y993112D01*
X1022170Y991792D01*
X1020302Y989924D01*
X1018981Y987636D01*
X1018298Y985085D01*
Y982443D01*
X1018981Y979892D01*
X1020302Y977604D01*
X1022170Y975736D01*
X1024457Y974416D01*
X1027009Y973732D01*
X1029650D01*
X1032202Y974416D01*
X1034489Y975736D01*
X1036357Y977604D01*
X1037678Y979892D01*
X1038361Y982443D01*
Y985085D01*
X1037678Y987636D01*
X1036357Y989924D01*
X1034489Y991792D01*
X1032202Y993112D01*
X1029650Y993796D01*
D02*
G37*
G36*
X1004050D02*
X1001409D01*
X998857Y993112D01*
X996570Y991792D01*
X994702Y989924D01*
X993381Y987636D01*
X992698Y985085D01*
Y982443D01*
X993381Y979892D01*
X994702Y977604D01*
X996570Y975736D01*
X998857Y974416D01*
X1001409Y973732D01*
X1004050D01*
X1006602Y974416D01*
X1008889Y975736D01*
X1010757Y977604D01*
X1012078Y979892D01*
X1012761Y982443D01*
Y985085D01*
X1012078Y987636D01*
X1010757Y989924D01*
X1008889Y991792D01*
X1006602Y993112D01*
X1004050Y993796D01*
D02*
G37*
G36*
X291170D02*
X288529D01*
X285977Y993112D01*
X283690Y991792D01*
X281822Y989924D01*
X280501Y987636D01*
X279818Y985085D01*
Y982443D01*
X280501Y979892D01*
X281822Y977604D01*
X283690Y975736D01*
X285977Y974416D01*
X288529Y973732D01*
X291170D01*
X293722Y974416D01*
X296009Y975736D01*
X297877Y977604D01*
X299198Y979892D01*
X299881Y982443D01*
Y985085D01*
X299198Y987636D01*
X297877Y989924D01*
X296009Y991792D01*
X293722Y993112D01*
X291170Y993796D01*
D02*
G37*
G36*
X265570D02*
X262929D01*
X260377Y993112D01*
X258090Y991792D01*
X256222Y989924D01*
X254901Y987636D01*
X254217Y985085D01*
Y982443D01*
X254901Y979892D01*
X256222Y977604D01*
X258090Y975736D01*
X260377Y974416D01*
X262929Y973732D01*
X265570D01*
X268122Y974416D01*
X270409Y975736D01*
X272277Y977604D01*
X273598Y979892D01*
X274281Y982443D01*
Y985085D01*
X273598Y987636D01*
X272277Y989924D01*
X270409Y991792D01*
X268122Y993112D01*
X265570Y993796D01*
D02*
G37*
G36*
X1188501Y993442D02*
X1185859D01*
X1183308Y992758D01*
X1181020Y991438D01*
X1179152Y989570D01*
X1177832Y987282D01*
X1177148Y984731D01*
Y982089D01*
X1177832Y979538D01*
X1179152Y977250D01*
X1181020Y975382D01*
X1183308Y974062D01*
X1185859Y973378D01*
X1188501D01*
X1191052Y974062D01*
X1193340Y975382D01*
X1195208Y977250D01*
X1196528Y979538D01*
X1197212Y982089D01*
Y984731D01*
X1196528Y987282D01*
X1195208Y989570D01*
X1193340Y991438D01*
X1191052Y992758D01*
X1188501Y993442D01*
D02*
G37*
G36*
X1162901D02*
X1160259D01*
X1157708Y992758D01*
X1155420Y991438D01*
X1153552Y989570D01*
X1152232Y987282D01*
X1151548Y984731D01*
Y982089D01*
X1152232Y979538D01*
X1153552Y977250D01*
X1155420Y975382D01*
X1157708Y974062D01*
X1160259Y973378D01*
X1162901D01*
X1165452Y974062D01*
X1167740Y975382D01*
X1169608Y977250D01*
X1170928Y979538D01*
X1171612Y982089D01*
Y984731D01*
X1170928Y987282D01*
X1169608Y989570D01*
X1167740Y991438D01*
X1165452Y992758D01*
X1162901Y993442D01*
D02*
G37*
G36*
X450021D02*
X447379D01*
X444828Y992758D01*
X442540Y991438D01*
X440672Y989570D01*
X439352Y987282D01*
X438668Y984731D01*
Y982089D01*
X439352Y979538D01*
X440672Y977250D01*
X442540Y975382D01*
X444828Y974062D01*
X447379Y973378D01*
X450021D01*
X452572Y974062D01*
X454860Y975382D01*
X456728Y977250D01*
X458048Y979538D01*
X458732Y982089D01*
Y984731D01*
X458048Y987282D01*
X456728Y989570D01*
X454860Y991438D01*
X452572Y992758D01*
X450021Y993442D01*
D02*
G37*
G36*
X424421D02*
X421779D01*
X419228Y992758D01*
X416940Y991438D01*
X415072Y989570D01*
X413752Y987282D01*
X413068Y984731D01*
Y982089D01*
X413752Y979538D01*
X415072Y977250D01*
X416940Y975382D01*
X419228Y974062D01*
X421779Y973378D01*
X424421D01*
X426972Y974062D01*
X429260Y975382D01*
X431128Y977250D01*
X432448Y979538D01*
X433132Y982089D01*
Y984731D01*
X432448Y987282D01*
X431128Y989570D01*
X429260Y991438D01*
X426972Y992758D01*
X424421Y993442D01*
D02*
G37*
G36*
X987669Y982494D02*
X978400D01*
Y973224D01*
X978517D01*
X981198Y973942D01*
X983601Y975330D01*
X985564Y977292D01*
X986951Y979696D01*
X987669Y982376D01*
Y982494D01*
D02*
G37*
G36*
X975860D02*
X966590D01*
Y982376D01*
X967308Y979696D01*
X968695Y977292D01*
X970658Y975330D01*
X973061Y973942D01*
X975742Y973224D01*
X975860D01*
Y982494D01*
D02*
G37*
G36*
X249189D02*
X239919D01*
Y973224D01*
X240037D01*
X242718Y973942D01*
X245121Y975330D01*
X247084Y977292D01*
X248471Y979696D01*
X249189Y982376D01*
Y982494D01*
D02*
G37*
G36*
X237379D02*
X228109D01*
Y982376D01*
X228828Y979696D01*
X230215Y977292D01*
X232178Y975330D01*
X234581Y973942D01*
X237262Y973224D01*
X237379D01*
Y982494D01*
D02*
G37*
G36*
X1223320Y982140D02*
X1214050D01*
Y972870D01*
X1214168D01*
X1216848Y973588D01*
X1219252Y974976D01*
X1221214Y976938D01*
X1222602Y979342D01*
X1223320Y982022D01*
Y982140D01*
D02*
G37*
G36*
X1211510D02*
X1202240D01*
Y982022D01*
X1202958Y979342D01*
X1204346Y976938D01*
X1206308Y974976D01*
X1208712Y973588D01*
X1211392Y972870D01*
X1211510D01*
Y982140D01*
D02*
G37*
G36*
X484840D02*
X475570D01*
Y972870D01*
X475688D01*
X478368Y973588D01*
X480772Y974976D01*
X482734Y976938D01*
X484122Y979342D01*
X484840Y982022D01*
Y982140D01*
D02*
G37*
G36*
X473030D02*
X463760D01*
Y982022D01*
X464478Y979342D01*
X465866Y976938D01*
X467828Y974976D01*
X470232Y973588D01*
X472912Y972870D01*
X473030D01*
Y982140D01*
D02*
G37*
G36*
X34032Y962282D02*
X14468D01*
Y942718D01*
X34032D01*
Y962282D01*
D02*
G37*
G36*
X978517Y849304D02*
X978400D01*
Y840034D01*
X987669D01*
Y840152D01*
X986951Y842832D01*
X985564Y845236D01*
X983601Y847198D01*
X981198Y848586D01*
X978517Y849304D01*
D02*
G37*
G36*
X240037D02*
X239919D01*
Y840034D01*
X249189D01*
Y840152D01*
X248471Y842832D01*
X247084Y845236D01*
X245121Y847198D01*
X242718Y848586D01*
X240037Y849304D01*
D02*
G37*
G36*
X975860D02*
X975742D01*
X973061Y848586D01*
X970658Y847198D01*
X968695Y845236D01*
X967308Y842832D01*
X966590Y840152D01*
Y840034D01*
X975860D01*
Y849304D01*
D02*
G37*
G36*
X237379D02*
X237262D01*
X234581Y848586D01*
X232178Y847198D01*
X230215Y845236D01*
X228828Y842832D01*
X228109Y840152D01*
Y840034D01*
X237379D01*
Y849304D01*
D02*
G37*
G36*
X1214168Y848950D02*
X1214050D01*
Y839680D01*
X1223320D01*
Y839798D01*
X1222602Y842478D01*
X1221214Y844882D01*
X1219252Y846844D01*
X1216848Y848232D01*
X1214168Y848950D01*
D02*
G37*
G36*
X475688D02*
X475570D01*
Y839680D01*
X484840D01*
Y839798D01*
X484122Y842478D01*
X482734Y844882D01*
X480772Y846844D01*
X478368Y848232D01*
X475688Y848950D01*
D02*
G37*
G36*
X473030D02*
X472912D01*
X470232Y848232D01*
X467828Y846844D01*
X465866Y844882D01*
X464478Y842478D01*
X463760Y839798D01*
Y839680D01*
X473030D01*
Y848950D01*
D02*
G37*
G36*
X1211510D02*
X1211392D01*
X1208712Y848232D01*
X1206308Y846844D01*
X1204346Y844882D01*
X1202958Y842478D01*
X1202240Y839798D01*
Y839680D01*
X1211510D01*
Y848950D01*
D02*
G37*
G36*
X1305547Y849462D02*
X1302972D01*
X1300484Y848795D01*
X1298253Y847507D01*
X1296432Y845686D01*
X1295144Y843456D01*
X1294478Y840968D01*
Y838392D01*
X1295144Y835904D01*
X1296432Y833674D01*
X1298253Y831852D01*
X1300484Y830565D01*
X1302972Y829898D01*
X1305547D01*
X1308035Y830565D01*
X1310266Y831852D01*
X1312087Y833674D01*
X1313375Y835904D01*
X1314041Y838392D01*
Y840968D01*
X1313375Y843456D01*
X1312087Y845686D01*
X1310266Y847507D01*
X1308035Y848795D01*
X1305547Y849462D01*
D02*
G37*
G36*
X936070Y876102D02*
X934350D01*
X932689Y875657D01*
X931199Y874797D01*
X929983Y873581D01*
X929123Y872091D01*
X928678Y870430D01*
Y868710D01*
X929123Y867049D01*
X929983Y865559D01*
X931101Y864442D01*
Y848713D01*
X929013Y847507D01*
X927192Y845686D01*
X925904Y843456D01*
X925238Y840968D01*
Y838392D01*
X925904Y835904D01*
X927192Y833674D01*
X929013Y831852D01*
X931244Y830565D01*
X933732Y829898D01*
X936307D01*
X938795Y830565D01*
X941026Y831852D01*
X942847Y833674D01*
X944135Y835904D01*
X944801Y838392D01*
Y840968D01*
X944135Y843456D01*
X942847Y845686D01*
X941026Y847507D01*
X939129Y848603D01*
Y864290D01*
X939221Y864343D01*
X940437Y865559D01*
X941297Y867049D01*
X941742Y868710D01*
Y870430D01*
X941297Y872091D01*
X940437Y873581D01*
X939221Y874797D01*
X937731Y875657D01*
X936070Y876102D01*
D02*
G37*
G36*
X566980Y875482D02*
X565260D01*
X563599Y875037D01*
X562109Y874177D01*
X560893Y872961D01*
X560033Y871471D01*
X559588Y869810D01*
Y868090D01*
X560033Y866429D01*
X560893Y864939D01*
X561936Y863897D01*
Y848756D01*
X559773Y847507D01*
X557952Y845686D01*
X556664Y843456D01*
X555998Y840968D01*
Y838392D01*
X556664Y835904D01*
X557952Y833674D01*
X559773Y831852D01*
X562004Y830565D01*
X564492Y829898D01*
X567067D01*
X569555Y830565D01*
X571786Y831852D01*
X573607Y833674D01*
X574895Y835904D01*
X575561Y838392D01*
Y840968D01*
X574895Y843456D01*
X573607Y845686D01*
X571786Y847507D01*
X569964Y848559D01*
Y863627D01*
X570131Y863723D01*
X571347Y864939D01*
X572207Y866429D01*
X572652Y868090D01*
Y869810D01*
X572207Y871471D01*
X571347Y872961D01*
X570131Y874177D01*
X568641Y875037D01*
X566980Y875482D01*
D02*
G37*
G36*
X197827Y849462D02*
X195252D01*
X192764Y848795D01*
X190533Y847507D01*
X188712Y845686D01*
X187424Y843456D01*
X186758Y840968D01*
Y838392D01*
X187424Y835904D01*
X188712Y833674D01*
X190533Y831852D01*
X192764Y830565D01*
X195252Y829898D01*
X197827D01*
X200315Y830565D01*
X202546Y831852D01*
X204367Y833674D01*
X205655Y835904D01*
X206322Y838392D01*
Y840968D01*
X205655Y843456D01*
X204367Y845686D01*
X202546Y847507D01*
X200315Y848795D01*
X197827Y849462D01*
D02*
G37*
G36*
X1029650Y848796D02*
X1027009D01*
X1024457Y848112D01*
X1022170Y846792D01*
X1020302Y844924D01*
X1018981Y842636D01*
X1018298Y840085D01*
Y837443D01*
X1018981Y834892D01*
X1020302Y832604D01*
X1022170Y830736D01*
X1024457Y829416D01*
X1027009Y828732D01*
X1029650D01*
X1032202Y829416D01*
X1034489Y830736D01*
X1036357Y832604D01*
X1037678Y834892D01*
X1038361Y837443D01*
Y840085D01*
X1037678Y842636D01*
X1036357Y844924D01*
X1034489Y846792D01*
X1032202Y848112D01*
X1029650Y848796D01*
D02*
G37*
G36*
X1004050D02*
X1001409D01*
X998857Y848112D01*
X996570Y846792D01*
X994702Y844924D01*
X993381Y842636D01*
X992698Y840085D01*
Y837443D01*
X993381Y834892D01*
X994702Y832604D01*
X996570Y830736D01*
X998857Y829416D01*
X1001409Y828732D01*
X1004050D01*
X1006602Y829416D01*
X1008889Y830736D01*
X1010757Y832604D01*
X1012078Y834892D01*
X1012761Y837443D01*
Y840085D01*
X1012078Y842636D01*
X1010757Y844924D01*
X1008889Y846792D01*
X1006602Y848112D01*
X1004050Y848796D01*
D02*
G37*
G36*
X291170D02*
X288529D01*
X285977Y848112D01*
X283690Y846792D01*
X281822Y844924D01*
X280501Y842636D01*
X279818Y840085D01*
Y837443D01*
X280501Y834892D01*
X281822Y832604D01*
X283690Y830736D01*
X285977Y829416D01*
X288529Y828732D01*
X291170D01*
X293722Y829416D01*
X296009Y830736D01*
X297877Y832604D01*
X299198Y834892D01*
X299881Y837443D01*
Y840085D01*
X299198Y842636D01*
X297877Y844924D01*
X296009Y846792D01*
X293722Y848112D01*
X291170Y848796D01*
D02*
G37*
G36*
X265570D02*
X262929D01*
X260377Y848112D01*
X258090Y846792D01*
X256222Y844924D01*
X254901Y842636D01*
X254217Y840085D01*
Y837443D01*
X254901Y834892D01*
X256222Y832604D01*
X258090Y830736D01*
X260377Y829416D01*
X262929Y828732D01*
X265570D01*
X268122Y829416D01*
X270409Y830736D01*
X272277Y832604D01*
X273598Y834892D01*
X274281Y837443D01*
Y840085D01*
X273598Y842636D01*
X272277Y844924D01*
X270409Y846792D01*
X268122Y848112D01*
X265570Y848796D01*
D02*
G37*
G36*
X1188501Y848442D02*
X1185859D01*
X1183308Y847758D01*
X1181020Y846438D01*
X1179152Y844570D01*
X1177832Y842282D01*
X1177148Y839731D01*
Y837089D01*
X1177832Y834538D01*
X1179152Y832250D01*
X1181020Y830382D01*
X1183308Y829062D01*
X1185859Y828378D01*
X1188501D01*
X1191052Y829062D01*
X1193340Y830382D01*
X1195208Y832250D01*
X1196528Y834538D01*
X1197212Y837089D01*
Y839731D01*
X1196528Y842282D01*
X1195208Y844570D01*
X1193340Y846438D01*
X1191052Y847758D01*
X1188501Y848442D01*
D02*
G37*
G36*
X1162901D02*
X1160259D01*
X1157708Y847758D01*
X1155420Y846438D01*
X1153552Y844570D01*
X1152232Y842282D01*
X1151548Y839731D01*
Y837089D01*
X1152232Y834538D01*
X1153552Y832250D01*
X1155420Y830382D01*
X1157708Y829062D01*
X1160259Y828378D01*
X1162901D01*
X1165452Y829062D01*
X1167740Y830382D01*
X1169608Y832250D01*
X1170928Y834538D01*
X1171612Y837089D01*
Y839731D01*
X1170928Y842282D01*
X1169608Y844570D01*
X1167740Y846438D01*
X1165452Y847758D01*
X1162901Y848442D01*
D02*
G37*
G36*
X450021D02*
X447379D01*
X444828Y847758D01*
X442540Y846438D01*
X440672Y844570D01*
X439352Y842282D01*
X438668Y839731D01*
Y837089D01*
X439352Y834538D01*
X440672Y832250D01*
X442540Y830382D01*
X444828Y829062D01*
X447379Y828378D01*
X450021D01*
X452572Y829062D01*
X454860Y830382D01*
X456728Y832250D01*
X458048Y834538D01*
X458732Y837089D01*
Y839731D01*
X458048Y842282D01*
X456728Y844570D01*
X454860Y846438D01*
X452572Y847758D01*
X450021Y848442D01*
D02*
G37*
G36*
X424421D02*
X421779D01*
X419228Y847758D01*
X416940Y846438D01*
X415072Y844570D01*
X413752Y842282D01*
X413068Y839731D01*
Y837089D01*
X413752Y834538D01*
X415072Y832250D01*
X416940Y830382D01*
X419228Y829062D01*
X421779Y828378D01*
X424421D01*
X426972Y829062D01*
X429260Y830382D01*
X431128Y832250D01*
X432448Y834538D01*
X433132Y837089D01*
Y839731D01*
X432448Y842282D01*
X431128Y844570D01*
X429260Y846438D01*
X426972Y847758D01*
X424421Y848442D01*
D02*
G37*
G36*
X987669Y837494D02*
X978400D01*
Y828224D01*
X978517D01*
X981198Y828942D01*
X983601Y830330D01*
X985564Y832292D01*
X986951Y834696D01*
X987669Y837376D01*
Y837494D01*
D02*
G37*
G36*
X975860D02*
X966590D01*
Y837376D01*
X967308Y834696D01*
X968695Y832292D01*
X970658Y830330D01*
X973061Y828942D01*
X975742Y828224D01*
X975860D01*
Y837494D01*
D02*
G37*
G36*
X249189D02*
X239919D01*
Y828224D01*
X240037D01*
X242718Y828942D01*
X245121Y830330D01*
X247084Y832292D01*
X248471Y834696D01*
X249189Y837376D01*
Y837494D01*
D02*
G37*
G36*
X237379D02*
X228109D01*
Y837376D01*
X228828Y834696D01*
X230215Y832292D01*
X232178Y830330D01*
X234581Y828942D01*
X237262Y828224D01*
X237379D01*
Y837494D01*
D02*
G37*
G36*
X1223320Y837140D02*
X1214050D01*
Y827870D01*
X1214168D01*
X1216848Y828588D01*
X1219252Y829976D01*
X1221214Y831938D01*
X1222602Y834342D01*
X1223320Y837022D01*
Y837140D01*
D02*
G37*
G36*
X1211510D02*
X1202240D01*
Y837022D01*
X1202958Y834342D01*
X1204346Y831938D01*
X1206308Y829976D01*
X1208712Y828588D01*
X1211392Y827870D01*
X1211510D01*
Y837140D01*
D02*
G37*
G36*
X484840D02*
X475570D01*
Y827870D01*
X475688D01*
X478368Y828588D01*
X480772Y829976D01*
X482734Y831938D01*
X484122Y834342D01*
X484840Y837022D01*
Y837140D01*
D02*
G37*
G36*
X473030D02*
X463760D01*
Y837022D01*
X464478Y834342D01*
X465866Y831938D01*
X467828Y829976D01*
X470232Y828588D01*
X472912Y827870D01*
X473030D01*
Y837140D01*
D02*
G37*
G36*
X133947Y746429D02*
X131945D01*
X130095Y745662D01*
X129422Y744989D01*
X96267D01*
X95660Y745596D01*
X93811Y746362D01*
X91809D01*
X89960Y745596D01*
X88544Y744180D01*
X87778Y742331D01*
Y740329D01*
X88544Y738480D01*
X89960Y737064D01*
X91809Y736298D01*
X93811D01*
X95660Y737064D01*
X96334Y737738D01*
X129488D01*
X130095Y737131D01*
X131945Y736365D01*
X133947D01*
X135796Y737131D01*
X137212Y738546D01*
X137978Y740396D01*
Y742397D01*
X137212Y744247D01*
X135796Y745662D01*
X133947Y746429D01*
D02*
G37*
G36*
X243661Y750922D02*
X241659D01*
X239810Y750156D01*
X238394Y748740D01*
X237628Y746891D01*
Y744889D01*
X238394Y743040D01*
X239810Y741624D01*
X241659Y740858D01*
X243661D01*
X245510Y741624D01*
X246091Y742204D01*
X259559D01*
X260260Y741504D01*
X262109Y740738D01*
X264111D01*
X265960Y741504D01*
X267376Y742920D01*
X268142Y744769D01*
Y746771D01*
X267376Y748620D01*
X265960Y750036D01*
X264111Y750802D01*
X262109D01*
X260260Y750036D01*
X259679Y749456D01*
X246211D01*
X245510Y750156D01*
X243661Y750922D01*
D02*
G37*
G36*
X1435532Y757282D02*
X1415968D01*
Y737718D01*
X1435532D01*
Y757282D01*
D02*
G37*
G36*
X1342550Y749412D02*
X1340830D01*
X1339169Y748967D01*
X1337679Y748107D01*
X1336463Y746891D01*
X1335603Y745401D01*
X1335158Y743740D01*
Y742020D01*
X1335603Y740359D01*
X1336463Y738869D01*
X1337679Y737653D01*
X1338637Y737100D01*
Y735680D01*
X1337679Y735127D01*
X1336463Y733911D01*
X1335603Y732421D01*
X1335158Y730760D01*
Y729040D01*
X1335603Y727379D01*
X1336463Y725889D01*
X1337679Y724673D01*
X1338633Y724123D01*
X1338695Y722692D01*
X1338149Y722377D01*
X1336933Y721161D01*
X1336073Y719671D01*
X1335628Y718010D01*
Y716290D01*
X1336073Y714629D01*
X1336933Y713139D01*
X1338149Y711923D01*
X1339639Y711063D01*
X1341300Y710618D01*
X1343020D01*
X1344681Y711063D01*
X1346171Y711923D01*
X1347182Y712934D01*
X1390190D01*
X1390753Y711959D01*
X1391969Y710743D01*
X1393459Y709883D01*
X1395120Y709438D01*
X1396840D01*
X1398501Y709883D01*
X1399991Y710743D01*
X1401207Y711959D01*
X1402067Y713449D01*
X1402512Y715110D01*
Y716830D01*
X1402067Y718491D01*
X1401207Y719981D01*
X1399991Y721197D01*
X1398501Y722057D01*
X1398240Y722127D01*
Y723442D01*
X1398731Y723573D01*
X1400221Y724433D01*
X1401437Y725649D01*
X1402297Y727139D01*
X1402742Y728800D01*
Y730520D01*
X1402297Y732181D01*
X1401437Y733671D01*
X1400221Y734887D01*
X1398731Y735747D01*
X1397070Y736192D01*
X1395350D01*
X1393689Y735747D01*
X1392199Y734887D01*
X1390983Y733671D01*
X1390830Y733406D01*
X1347209D01*
X1346917Y733911D01*
X1345701Y735127D01*
X1344743Y735680D01*
Y737100D01*
X1345701Y737653D01*
X1346917Y738869D01*
X1347139Y739254D01*
X1400138D01*
X1408187Y731205D01*
X1407848Y729940D01*
Y728220D01*
X1408293Y726559D01*
X1409153Y725069D01*
X1410369Y723853D01*
X1411859Y722993D01*
X1413520Y722548D01*
X1415240D01*
X1416901Y722993D01*
X1418391Y723853D01*
X1419607Y725069D01*
X1420467Y726559D01*
X1420912Y728220D01*
Y729940D01*
X1420467Y731601D01*
X1419607Y733091D01*
X1418391Y734307D01*
X1416901Y735167D01*
X1415240Y735612D01*
X1414035D01*
X1404204Y745444D01*
X1403027Y746230D01*
X1401640Y746506D01*
X1401640Y746506D01*
X1347139D01*
X1346917Y746891D01*
X1345701Y748107D01*
X1344211Y748967D01*
X1342550Y749412D01*
D02*
G37*
G36*
X93811Y734292D02*
X91809D01*
X89960Y733526D01*
X88544Y732110D01*
X87778Y730261D01*
Y728259D01*
X88544Y726410D01*
X89960Y724994D01*
X90757Y724664D01*
X91721Y723996D01*
X91392Y723131D01*
X90978Y722131D01*
Y720129D01*
X91744Y718280D01*
X93160Y716864D01*
X95009Y716098D01*
X97011D01*
X98860Y716864D01*
X99451Y717454D01*
X133099D01*
X133790Y716764D01*
X135639Y715998D01*
X137641D01*
X139490Y716764D01*
X140906Y718180D01*
X141672Y720029D01*
Y722031D01*
X140906Y723880D01*
X139786Y725000D01*
X141026Y726240D01*
X141792Y728089D01*
Y730091D01*
X141026Y731940D01*
X139610Y733356D01*
X137761Y734122D01*
X135759D01*
X133910Y733356D01*
X133354Y732801D01*
X96386D01*
X95660Y733526D01*
X93811Y734292D01*
D02*
G37*
G36*
X34032Y712282D02*
X14468D01*
Y692718D01*
X34032D01*
Y712282D01*
D02*
G37*
G36*
X1213668Y623886D02*
X1213551D01*
Y614616D01*
X1222821D01*
Y614734D01*
X1222102Y617414D01*
X1220715Y619818D01*
X1218752Y621780D01*
X1216349Y623168D01*
X1213668Y623886D01*
D02*
G37*
G36*
X475188D02*
X475071D01*
Y614616D01*
X484341D01*
Y614734D01*
X483622Y617414D01*
X482235Y619818D01*
X480272Y621780D01*
X477869Y623168D01*
X475188Y623886D01*
D02*
G37*
G36*
X1211011D02*
X1210893D01*
X1208212Y623168D01*
X1205809Y621780D01*
X1203846Y619818D01*
X1202459Y617414D01*
X1201740Y614734D01*
Y614616D01*
X1211011D01*
Y623886D01*
D02*
G37*
G36*
X472531D02*
X472413D01*
X469732Y623168D01*
X467329Y621780D01*
X465366Y619818D01*
X463979Y617414D01*
X463260Y614734D01*
Y614616D01*
X472531D01*
Y623886D01*
D02*
G37*
G36*
X978508Y623690D02*
X978390D01*
Y614420D01*
X987660D01*
Y614538D01*
X986942Y617218D01*
X985554Y619622D01*
X983592Y621584D01*
X981188Y622972D01*
X978508Y623690D01*
D02*
G37*
G36*
X975850D02*
X975732D01*
X973052Y622972D01*
X970648Y621584D01*
X968686Y619622D01*
X967298Y617218D01*
X966580Y614538D01*
Y614420D01*
X975850D01*
Y623690D01*
D02*
G37*
G36*
X240028D02*
X239910D01*
Y614420D01*
X249180D01*
Y614538D01*
X248462Y617218D01*
X247074Y619622D01*
X245112Y621584D01*
X242708Y622972D01*
X240028Y623690D01*
D02*
G37*
G36*
X237370D02*
X237252D01*
X234572Y622972D01*
X232168Y621584D01*
X230206Y619622D01*
X228818Y617218D01*
X228100Y614538D01*
Y614420D01*
X237370D01*
Y623690D01*
D02*
G37*
G36*
X1188001Y623378D02*
X1185360D01*
X1182808Y622694D01*
X1180521Y621374D01*
X1178653Y619506D01*
X1177332Y617218D01*
X1176648Y614667D01*
Y612025D01*
X1177332Y609474D01*
X1178653Y607186D01*
X1180521Y605318D01*
X1182808Y603998D01*
X1185360Y603314D01*
X1188001D01*
X1190553Y603998D01*
X1192840Y605318D01*
X1194708Y607186D01*
X1196029Y609474D01*
X1196712Y612025D01*
Y614667D01*
X1196029Y617218D01*
X1194708Y619506D01*
X1192840Y621374D01*
X1190553Y622694D01*
X1188001Y623378D01*
D02*
G37*
G36*
X1162401D02*
X1159760D01*
X1157208Y622694D01*
X1154921Y621374D01*
X1153053Y619506D01*
X1151732Y617218D01*
X1151049Y614667D01*
Y612025D01*
X1151732Y609474D01*
X1153053Y607186D01*
X1154921Y605318D01*
X1157208Y603998D01*
X1159760Y603314D01*
X1162401D01*
X1164953Y603998D01*
X1167240Y605318D01*
X1169108Y607186D01*
X1170429Y609474D01*
X1171113Y612025D01*
Y614667D01*
X1170429Y617218D01*
X1169108Y619506D01*
X1167240Y621374D01*
X1164953Y622694D01*
X1162401Y623378D01*
D02*
G37*
G36*
X449521D02*
X446880D01*
X444328Y622694D01*
X442041Y621374D01*
X440173Y619506D01*
X438852Y617218D01*
X438168Y614667D01*
Y612025D01*
X438852Y609474D01*
X440173Y607186D01*
X442041Y605318D01*
X444328Y603998D01*
X446880Y603314D01*
X449521D01*
X452073Y603998D01*
X454360Y605318D01*
X456228Y607186D01*
X457549Y609474D01*
X458232Y612025D01*
Y614667D01*
X457549Y617218D01*
X456228Y619506D01*
X454360Y621374D01*
X452073Y622694D01*
X449521Y623378D01*
D02*
G37*
G36*
X423921D02*
X421280D01*
X418728Y622694D01*
X416441Y621374D01*
X414573Y619506D01*
X413252Y617218D01*
X412569Y614667D01*
Y612025D01*
X413252Y609474D01*
X414573Y607186D01*
X416441Y605318D01*
X418728Y603998D01*
X421280Y603314D01*
X423921D01*
X426473Y603998D01*
X428760Y605318D01*
X430628Y607186D01*
X431949Y609474D01*
X432632Y612025D01*
Y614667D01*
X431949Y617218D01*
X430628Y619506D01*
X428760Y621374D01*
X426473Y622694D01*
X423921Y623378D01*
D02*
G37*
G36*
X1029641Y623182D02*
X1026999D01*
X1024448Y622498D01*
X1022160Y621178D01*
X1020292Y619310D01*
X1018972Y617022D01*
X1018288Y614471D01*
Y611829D01*
X1018972Y609278D01*
X1020292Y606990D01*
X1022160Y605122D01*
X1024448Y603802D01*
X1026999Y603118D01*
X1029641D01*
X1032192Y603802D01*
X1034480Y605122D01*
X1036348Y606990D01*
X1037668Y609278D01*
X1038352Y611829D01*
Y614471D01*
X1037668Y617022D01*
X1036348Y619310D01*
X1034480Y621178D01*
X1032192Y622498D01*
X1029641Y623182D01*
D02*
G37*
G36*
X1004041D02*
X1001399D01*
X998848Y622498D01*
X996560Y621178D01*
X994692Y619310D01*
X993372Y617022D01*
X992688Y614471D01*
Y611829D01*
X993372Y609278D01*
X994692Y606990D01*
X996560Y605122D01*
X998848Y603802D01*
X1001399Y603118D01*
X1004041D01*
X1006592Y603802D01*
X1008880Y605122D01*
X1010748Y606990D01*
X1012068Y609278D01*
X1012752Y611829D01*
Y614471D01*
X1012068Y617022D01*
X1010748Y619310D01*
X1008880Y621178D01*
X1006592Y622498D01*
X1004041Y623182D01*
D02*
G37*
G36*
X291161D02*
X288519D01*
X285968Y622498D01*
X283680Y621178D01*
X281812Y619310D01*
X280492Y617022D01*
X279808Y614471D01*
Y611829D01*
X280492Y609278D01*
X281812Y606990D01*
X283680Y605122D01*
X285968Y603802D01*
X288519Y603118D01*
X291161D01*
X293712Y603802D01*
X296000Y605122D01*
X297868Y606990D01*
X299188Y609278D01*
X299872Y611829D01*
Y614471D01*
X299188Y617022D01*
X297868Y619310D01*
X296000Y621178D01*
X293712Y622498D01*
X291161Y623182D01*
D02*
G37*
G36*
X265561D02*
X262919D01*
X260368Y622498D01*
X258080Y621178D01*
X256212Y619310D01*
X254892Y617022D01*
X254208Y614471D01*
Y611829D01*
X254892Y609278D01*
X256212Y606990D01*
X258080Y605122D01*
X260368Y603802D01*
X262919Y603118D01*
X265561D01*
X268112Y603802D01*
X270400Y605122D01*
X272268Y606990D01*
X273588Y609278D01*
X274272Y611829D01*
Y614471D01*
X273588Y617022D01*
X272268Y619310D01*
X270400Y621178D01*
X268112Y622498D01*
X265561Y623182D01*
D02*
G37*
G36*
X1222821Y612076D02*
X1213551D01*
Y602806D01*
X1213668D01*
X1216349Y603524D01*
X1218752Y604912D01*
X1220715Y606874D01*
X1222102Y609278D01*
X1222821Y611958D01*
Y612076D01*
D02*
G37*
G36*
X1211011D02*
X1201740D01*
Y611958D01*
X1202459Y609278D01*
X1203846Y606874D01*
X1205809Y604912D01*
X1208212Y603524D01*
X1210893Y602806D01*
X1211011D01*
Y612076D01*
D02*
G37*
G36*
X484341D02*
X475071D01*
Y602806D01*
X475188D01*
X477869Y603524D01*
X480272Y604912D01*
X482235Y606874D01*
X483622Y609278D01*
X484341Y611958D01*
Y612076D01*
D02*
G37*
G36*
X472531D02*
X463260D01*
Y611958D01*
X463979Y609278D01*
X465366Y606874D01*
X467329Y604912D01*
X469732Y603524D01*
X472413Y602806D01*
X472531D01*
Y612076D01*
D02*
G37*
G36*
X1255678Y622212D02*
X1253103D01*
X1250615Y621545D01*
X1248384Y620258D01*
X1246563Y618436D01*
X1245275Y616206D01*
X1244609Y613718D01*
Y611142D01*
X1245275Y608654D01*
X1246563Y606424D01*
X1248384Y604603D01*
X1250615Y603315D01*
X1253103Y602648D01*
X1255678D01*
X1258166Y603315D01*
X1260397Y604603D01*
X1262218Y606424D01*
X1263506Y608654D01*
X1264173Y611142D01*
Y613718D01*
X1263506Y616206D01*
X1262218Y618436D01*
X1260397Y620258D01*
X1258166Y621545D01*
X1255678Y622212D01*
D02*
G37*
G36*
X886438D02*
X883863D01*
X881375Y621545D01*
X879144Y620258D01*
X877323Y618436D01*
X876035Y616206D01*
X875368Y613718D01*
Y611142D01*
X876035Y608654D01*
X877323Y606424D01*
X879144Y604603D01*
X881375Y603315D01*
X883863Y602648D01*
X886438D01*
X888926Y603315D01*
X891157Y604603D01*
X892978Y606424D01*
X894266Y608654D01*
X894932Y611142D01*
Y613718D01*
X894266Y616206D01*
X892978Y618436D01*
X891157Y620258D01*
X888926Y621545D01*
X886438Y622212D01*
D02*
G37*
G36*
X517198D02*
X514623D01*
X512135Y621545D01*
X509904Y620258D01*
X508083Y618436D01*
X506795Y616206D01*
X506129Y613718D01*
Y611142D01*
X506795Y608654D01*
X508083Y606424D01*
X509904Y604603D01*
X512135Y603315D01*
X514623Y602648D01*
X517198D01*
X519686Y603315D01*
X521917Y604603D01*
X523738Y606424D01*
X525026Y608654D01*
X525692Y611142D01*
Y613718D01*
X525026Y616206D01*
X523738Y618436D01*
X521917Y620258D01*
X519686Y621545D01*
X517198Y622212D01*
D02*
G37*
G36*
X147958D02*
X145383D01*
X142895Y621545D01*
X140664Y620258D01*
X138843Y618436D01*
X137555Y616206D01*
X136889Y613718D01*
Y611142D01*
X137555Y608654D01*
X138843Y606424D01*
X140664Y604603D01*
X142895Y603315D01*
X145383Y602648D01*
X147958D01*
X150446Y603315D01*
X152677Y604603D01*
X154498Y606424D01*
X155786Y608654D01*
X156453Y611142D01*
Y613718D01*
X155786Y616206D01*
X154498Y618436D01*
X152677Y620258D01*
X150446Y621545D01*
X147958Y622212D01*
D02*
G37*
G36*
X987660Y611880D02*
X978390D01*
Y602610D01*
X978508D01*
X981188Y603328D01*
X983592Y604716D01*
X985554Y606678D01*
X986942Y609082D01*
X987660Y611762D01*
Y611880D01*
D02*
G37*
G36*
X975850D02*
X966580D01*
Y611762D01*
X967298Y609082D01*
X968686Y606678D01*
X970648Y604716D01*
X973052Y603328D01*
X975732Y602610D01*
X975850D01*
Y611880D01*
D02*
G37*
G36*
X249180Y611880D02*
X239910D01*
Y602610D01*
X240028D01*
X242708Y603328D01*
X245112Y604716D01*
X247074Y606678D01*
X248462Y609082D01*
X249180Y611762D01*
Y611880D01*
D02*
G37*
G36*
X237370D02*
X228100D01*
Y611762D01*
X228818Y609082D01*
X230206Y606678D01*
X232168Y604716D01*
X234572Y603328D01*
X237252Y602610D01*
X237370D01*
Y611880D01*
D02*
G37*
G36*
X776020Y513522D02*
X774300D01*
X772639Y513077D01*
X771149Y512217D01*
X769933Y511001D01*
X769787Y510747D01*
X768320D01*
X768237Y510891D01*
X767021Y512107D01*
X765531Y512967D01*
X763870Y513412D01*
X762150D01*
X760489Y512967D01*
X758999Y512107D01*
X757783Y510891D01*
X756923Y509401D01*
X756478Y507740D01*
Y506020D01*
X756923Y504359D01*
X757783Y502869D01*
X758999Y501653D01*
X759421Y501410D01*
Y481319D01*
X758633Y480531D01*
X757773Y479041D01*
X757328Y477380D01*
Y475660D01*
X757773Y473999D01*
X758633Y472509D01*
X759849Y471293D01*
X761339Y470433D01*
X763000Y469988D01*
X764720D01*
X766381Y470433D01*
X767871Y471293D01*
X768884Y472306D01*
X769660Y472423D01*
X770436Y472306D01*
X771449Y471293D01*
X772939Y470433D01*
X774600Y469988D01*
X776320D01*
X777981Y470433D01*
X779471Y471293D01*
X780687Y472509D01*
X781547Y473999D01*
X781992Y475660D01*
Y477380D01*
X781547Y479041D01*
X780687Y480531D01*
X779471Y481747D01*
X779324Y481832D01*
Y501917D01*
X780387Y502979D01*
X781247Y504469D01*
X781692Y506130D01*
Y507850D01*
X781247Y509511D01*
X780387Y511001D01*
X779171Y512217D01*
X777681Y513077D01*
X776020Y513522D01*
D02*
G37*
G36*
X1435532Y507282D02*
X1415968D01*
Y487718D01*
X1435532D01*
Y507282D01*
D02*
G37*
G36*
X690240Y515522D02*
X688520D01*
X686859Y515077D01*
X685369Y514217D01*
X684153Y513001D01*
X683293Y511511D01*
X682848Y509850D01*
Y508130D01*
X683293Y506469D01*
X684153Y504979D01*
X685369Y503763D01*
X685691Y503577D01*
Y481269D01*
X684803Y480381D01*
X684060Y479094D01*
X683360Y479039D01*
X683334Y479045D01*
X682713Y479208D01*
X681857Y480691D01*
X680641Y481907D01*
X679849Y482364D01*
Y503932D01*
X680267Y504349D01*
X681127Y505839D01*
X681572Y507500D01*
Y509220D01*
X681127Y510881D01*
X680267Y512371D01*
X679051Y513587D01*
X677561Y514447D01*
X675900Y514892D01*
X674180D01*
X672519Y514447D01*
X671029Y513587D01*
X669813Y512371D01*
X668953Y510881D01*
X668508Y509220D01*
Y507500D01*
X668953Y505839D01*
X669813Y504349D01*
X671029Y503133D01*
X671821Y502676D01*
Y481109D01*
X671403Y480691D01*
X670543Y479201D01*
X670098Y477540D01*
Y475820D01*
X670543Y474159D01*
X671403Y472669D01*
X672619Y471453D01*
X674109Y470593D01*
X675770Y470148D01*
X677490D01*
X679151Y470593D01*
X680641Y471453D01*
X681857Y472669D01*
X682600Y473956D01*
X683300Y474011D01*
X683326Y474005D01*
X683947Y473842D01*
X684803Y472359D01*
X686019Y471143D01*
X687509Y470283D01*
X689170Y469838D01*
X690890D01*
X692551Y470283D01*
X694041Y471143D01*
X695257Y472359D01*
X696117Y473849D01*
X696562Y475510D01*
Y477230D01*
X696117Y478891D01*
X695257Y480381D01*
X694041Y481597D01*
X693719Y481783D01*
Y504091D01*
X694607Y504979D01*
X695467Y506469D01*
X695912Y508130D01*
Y509850D01*
X695467Y511511D01*
X694607Y513001D01*
X693391Y514217D01*
X691901Y515077D01*
X690240Y515522D01*
D02*
G37*
G36*
X1341100Y490622D02*
X1339380D01*
X1337719Y490177D01*
X1336229Y489317D01*
X1335013Y488101D01*
X1334153Y486611D01*
X1333708Y484950D01*
Y483230D01*
X1334153Y481569D01*
X1335013Y480079D01*
X1336229Y478863D01*
X1337719Y478003D01*
X1339380Y477558D01*
X1341100D01*
X1342761Y478003D01*
X1344251Y478863D01*
X1345307Y479919D01*
X1381566D01*
X1382103Y478989D01*
X1383319Y477773D01*
X1384809Y476913D01*
X1386470Y476468D01*
X1388190D01*
X1389851Y476913D01*
X1391341Y477773D01*
X1392557Y478989D01*
X1393417Y480479D01*
X1393862Y482140D01*
Y483860D01*
X1393417Y485521D01*
X1392557Y487011D01*
X1391341Y488227D01*
X1389851Y489087D01*
X1388190Y489532D01*
X1386470D01*
X1384809Y489087D01*
X1383319Y488227D01*
X1382263Y487171D01*
X1346004D01*
X1345467Y488101D01*
X1344251Y489317D01*
X1342761Y490177D01*
X1341100Y490622D01*
D02*
G37*
G36*
X1213668Y478886D02*
X1213550D01*
Y469616D01*
X1222821D01*
Y469734D01*
X1222102Y472414D01*
X1220715Y474818D01*
X1218752Y476780D01*
X1216349Y478168D01*
X1213668Y478886D01*
D02*
G37*
G36*
X475188D02*
X475070D01*
Y469616D01*
X484341D01*
Y469734D01*
X483622Y472414D01*
X482235Y474818D01*
X480272Y476780D01*
X477869Y478168D01*
X475188Y478886D01*
D02*
G37*
G36*
X1211011D02*
X1210893D01*
X1208212Y478168D01*
X1205809Y476780D01*
X1203846Y474818D01*
X1202459Y472414D01*
X1201740Y469734D01*
Y469616D01*
X1211011D01*
Y478886D01*
D02*
G37*
G36*
X472531D02*
X472413D01*
X469732Y478168D01*
X467329Y476780D01*
X465366Y474818D01*
X463979Y472414D01*
X463260Y469734D01*
Y469616D01*
X472531D01*
Y478886D01*
D02*
G37*
G36*
X978508Y478690D02*
X978390D01*
Y469420D01*
X987660D01*
Y469538D01*
X986942Y472218D01*
X985554Y474622D01*
X983592Y476584D01*
X981188Y477972D01*
X978508Y478690D01*
D02*
G37*
G36*
X975850D02*
X975732D01*
X973052Y477972D01*
X970648Y476584D01*
X968686Y474622D01*
X967298Y472218D01*
X966580Y469538D01*
Y469420D01*
X975850D01*
Y478690D01*
D02*
G37*
G36*
X240028D02*
X239910D01*
Y469420D01*
X249180D01*
Y469538D01*
X248462Y472218D01*
X247074Y474622D01*
X245112Y476584D01*
X242708Y477972D01*
X240028Y478690D01*
D02*
G37*
G36*
X237370D02*
X237252D01*
X234572Y477972D01*
X232168Y476584D01*
X230206Y474622D01*
X228818Y472218D01*
X228100Y469538D01*
Y469420D01*
X237370D01*
Y478690D01*
D02*
G37*
G36*
X1188001Y478378D02*
X1185360D01*
X1182808Y477694D01*
X1180521Y476374D01*
X1178653Y474506D01*
X1177332Y472218D01*
X1176648Y469667D01*
Y467025D01*
X1177332Y464474D01*
X1178653Y462186D01*
X1180521Y460318D01*
X1182808Y458998D01*
X1185360Y458314D01*
X1188001D01*
X1190553Y458998D01*
X1192840Y460318D01*
X1194708Y462186D01*
X1196029Y464474D01*
X1196712Y467025D01*
Y469667D01*
X1196029Y472218D01*
X1194708Y474506D01*
X1192840Y476374D01*
X1190553Y477694D01*
X1188001Y478378D01*
D02*
G37*
G36*
X1162401D02*
X1159760D01*
X1157208Y477694D01*
X1154921Y476374D01*
X1153053Y474506D01*
X1151732Y472218D01*
X1151049Y469667D01*
Y467025D01*
X1151732Y464474D01*
X1153053Y462186D01*
X1154921Y460318D01*
X1157208Y458998D01*
X1159760Y458314D01*
X1162401D01*
X1164953Y458998D01*
X1167240Y460318D01*
X1169108Y462186D01*
X1170429Y464474D01*
X1171113Y467025D01*
Y469667D01*
X1170429Y472218D01*
X1169108Y474506D01*
X1167240Y476374D01*
X1164953Y477694D01*
X1162401Y478378D01*
D02*
G37*
G36*
X449521D02*
X446880D01*
X444328Y477694D01*
X442041Y476374D01*
X440173Y474506D01*
X438852Y472218D01*
X438168Y469667D01*
Y467025D01*
X438852Y464474D01*
X440173Y462186D01*
X442041Y460318D01*
X444328Y458998D01*
X446880Y458314D01*
X449521D01*
X452073Y458998D01*
X454360Y460318D01*
X456228Y462186D01*
X457549Y464474D01*
X458232Y467025D01*
Y469667D01*
X457549Y472218D01*
X456228Y474506D01*
X454360Y476374D01*
X452073Y477694D01*
X449521Y478378D01*
D02*
G37*
G36*
X423921D02*
X421280D01*
X418728Y477694D01*
X416441Y476374D01*
X414573Y474506D01*
X413252Y472218D01*
X412569Y469667D01*
Y467025D01*
X413252Y464474D01*
X414573Y462186D01*
X416441Y460318D01*
X418728Y458998D01*
X421280Y458314D01*
X423921D01*
X426473Y458998D01*
X428760Y460318D01*
X430628Y462186D01*
X431949Y464474D01*
X432632Y467025D01*
Y469667D01*
X431949Y472218D01*
X430628Y474506D01*
X428760Y476374D01*
X426473Y477694D01*
X423921Y478378D01*
D02*
G37*
G36*
X1029641Y478182D02*
X1026999D01*
X1024448Y477498D01*
X1022160Y476178D01*
X1020292Y474310D01*
X1018972Y472022D01*
X1018288Y469471D01*
Y466829D01*
X1018972Y464278D01*
X1020292Y461990D01*
X1022160Y460122D01*
X1024448Y458802D01*
X1026999Y458118D01*
X1029641D01*
X1032192Y458802D01*
X1034480Y460122D01*
X1036348Y461990D01*
X1037668Y464278D01*
X1038352Y466829D01*
Y469471D01*
X1037668Y472022D01*
X1036348Y474310D01*
X1034480Y476178D01*
X1032192Y477498D01*
X1029641Y478182D01*
D02*
G37*
G36*
X1004041D02*
X1001399D01*
X998848Y477498D01*
X996560Y476178D01*
X994692Y474310D01*
X993372Y472022D01*
X992688Y469471D01*
Y466829D01*
X993372Y464278D01*
X994692Y461990D01*
X996560Y460122D01*
X998848Y458802D01*
X1001399Y458118D01*
X1004041D01*
X1006592Y458802D01*
X1008880Y460122D01*
X1010748Y461990D01*
X1012068Y464278D01*
X1012752Y466829D01*
Y469471D01*
X1012068Y472022D01*
X1010748Y474310D01*
X1008880Y476178D01*
X1006592Y477498D01*
X1004041Y478182D01*
D02*
G37*
G36*
X291161D02*
X288519D01*
X285968Y477498D01*
X283680Y476178D01*
X281812Y474310D01*
X280492Y472022D01*
X279808Y469471D01*
Y466829D01*
X280492Y464278D01*
X281812Y461990D01*
X283680Y460122D01*
X285968Y458802D01*
X288519Y458118D01*
X291161D01*
X293712Y458802D01*
X296000Y460122D01*
X297868Y461990D01*
X299188Y464278D01*
X299872Y466829D01*
Y469471D01*
X299188Y472022D01*
X297868Y474310D01*
X296000Y476178D01*
X293712Y477498D01*
X291161Y478182D01*
D02*
G37*
G36*
X265561D02*
X262919D01*
X260368Y477498D01*
X258080Y476178D01*
X256212Y474310D01*
X254892Y472022D01*
X254208Y469471D01*
Y466829D01*
X254892Y464278D01*
X256212Y461990D01*
X258080Y460122D01*
X260368Y458802D01*
X262919Y458118D01*
X265561D01*
X268112Y458802D01*
X270400Y460122D01*
X272268Y461990D01*
X273588Y464278D01*
X274272Y466829D01*
Y469471D01*
X273588Y472022D01*
X272268Y474310D01*
X270400Y476178D01*
X268112Y477498D01*
X265561Y478182D01*
D02*
G37*
G36*
X1222821Y467076D02*
X1213550D01*
Y457806D01*
X1213668D01*
X1216349Y458524D01*
X1218752Y459912D01*
X1220715Y461874D01*
X1222102Y464278D01*
X1222821Y466958D01*
Y467076D01*
D02*
G37*
G36*
X1211011D02*
X1201740D01*
Y466958D01*
X1202459Y464278D01*
X1203846Y461874D01*
X1205809Y459912D01*
X1208212Y458524D01*
X1210893Y457806D01*
X1211011D01*
Y467076D01*
D02*
G37*
G36*
X484341D02*
X475070D01*
Y457806D01*
X475188D01*
X477869Y458524D01*
X480272Y459912D01*
X482235Y461874D01*
X483622Y464278D01*
X484341Y466958D01*
Y467076D01*
D02*
G37*
G36*
X472531D02*
X463260D01*
Y466958D01*
X463979Y464278D01*
X465366Y461874D01*
X467329Y459912D01*
X469732Y458524D01*
X472413Y457806D01*
X472531D01*
Y467076D01*
D02*
G37*
G36*
X1305678Y477212D02*
X1303103D01*
X1300615Y476545D01*
X1298384Y475257D01*
X1296563Y473436D01*
X1295275Y471206D01*
X1294608Y468718D01*
Y466142D01*
X1295275Y463654D01*
X1296563Y461424D01*
X1298384Y459603D01*
X1300615Y458315D01*
X1303103Y457648D01*
X1305678D01*
X1308166Y458315D01*
X1310397Y459603D01*
X1312218Y461424D01*
X1313506Y463654D01*
X1314173Y466142D01*
Y468718D01*
X1313506Y471206D01*
X1312218Y473436D01*
X1310397Y475257D01*
X1308166Y476545D01*
X1305678Y477212D01*
D02*
G37*
G36*
X1264173D02*
X1244609D01*
Y457648D01*
X1264173D01*
Y477212D01*
D02*
G37*
G36*
X936438D02*
X933863D01*
X931375Y476545D01*
X929144Y475257D01*
X927323Y473436D01*
X926035Y471206D01*
X925368Y468718D01*
Y466142D01*
X926035Y463654D01*
X927323Y461424D01*
X929144Y459603D01*
X931375Y458315D01*
X933863Y457648D01*
X936438D01*
X938926Y458315D01*
X941157Y459603D01*
X942978Y461424D01*
X944266Y463654D01*
X944932Y466142D01*
Y468718D01*
X944266Y471206D01*
X942978Y473436D01*
X941157Y475257D01*
X938926Y476545D01*
X936438Y477212D01*
D02*
G37*
G36*
X894932D02*
X875368D01*
Y457648D01*
X894932D01*
Y477212D01*
D02*
G37*
G36*
X567198D02*
X564623D01*
X562135Y476545D01*
X559904Y475257D01*
X558083Y473436D01*
X556795Y471206D01*
X556129Y468718D01*
Y466142D01*
X556795Y463654D01*
X558083Y461424D01*
X559904Y459603D01*
X562135Y458315D01*
X564623Y457648D01*
X567198D01*
X569686Y458315D01*
X571917Y459603D01*
X573738Y461424D01*
X575026Y463654D01*
X575692Y466142D01*
Y468718D01*
X575026Y471206D01*
X573738Y473436D01*
X571917Y475257D01*
X569686Y476545D01*
X567198Y477212D01*
D02*
G37*
G36*
X525692D02*
X506129D01*
Y457648D01*
X525692D01*
Y477212D01*
D02*
G37*
G36*
X197958D02*
X195383D01*
X192895Y476545D01*
X190664Y475257D01*
X188843Y473436D01*
X187555Y471206D01*
X186889Y468718D01*
Y466142D01*
X187555Y463654D01*
X188843Y461424D01*
X190664Y459603D01*
X192895Y458315D01*
X195383Y457648D01*
X197958D01*
X200446Y458315D01*
X202677Y459603D01*
X204498Y461424D01*
X205786Y463654D01*
X206453Y466142D01*
Y468718D01*
X205786Y471206D01*
X204498Y473436D01*
X202677Y475257D01*
X200446Y476545D01*
X197958Y477212D01*
D02*
G37*
G36*
X156453D02*
X136889D01*
Y457648D01*
X156453D01*
Y477212D01*
D02*
G37*
G36*
X987660Y466880D02*
X978390D01*
Y457610D01*
X978508D01*
X981188Y458328D01*
X983592Y459716D01*
X985554Y461678D01*
X986942Y464082D01*
X987660Y466762D01*
Y466880D01*
D02*
G37*
G36*
X975850D02*
X966580D01*
Y466762D01*
X967298Y464082D01*
X968686Y461678D01*
X970648Y459716D01*
X973052Y458328D01*
X975732Y457610D01*
X975850D01*
Y466880D01*
D02*
G37*
G36*
X249180Y466880D02*
X239910D01*
Y457610D01*
X240028D01*
X242708Y458328D01*
X245112Y459716D01*
X247074Y461678D01*
X248462Y464082D01*
X249180Y466762D01*
Y466880D01*
D02*
G37*
G36*
X237370D02*
X228100D01*
Y466762D01*
X228818Y464082D01*
X230206Y461678D01*
X232168Y459716D01*
X234572Y458328D01*
X237252Y457610D01*
X237370D01*
Y466880D01*
D02*
G37*
G36*
X34032Y462282D02*
X14468D01*
Y442718D01*
X34032D01*
Y462282D01*
D02*
G37*
G36*
X680851Y308902D02*
X678849D01*
X677000Y308136D01*
X675584Y306720D01*
X674818Y304871D01*
Y302869D01*
X675584Y301020D01*
X675624Y300979D01*
Y289147D01*
X675161Y288683D01*
X674395Y286834D01*
Y284832D01*
X675161Y282983D01*
X676577Y281567D01*
X678426Y280801D01*
X680428D01*
X682277Y281567D01*
X683693Y282983D01*
X684459Y284832D01*
Y286834D01*
X683693Y288683D01*
X683653Y288724D01*
Y300556D01*
X684116Y301020D01*
X684882Y302869D01*
Y304871D01*
X684116Y306720D01*
X682700Y308136D01*
X680851Y308902D01*
D02*
G37*
G36*
X750921Y307902D02*
X748919D01*
X747070Y307136D01*
X745654Y305720D01*
X744888Y303871D01*
Y301869D01*
X745654Y300020D01*
X746419Y299254D01*
Y288776D01*
X745904Y288260D01*
X745138Y286411D01*
Y284409D01*
X745904Y282560D01*
X747320Y281144D01*
X749169Y280378D01*
X751171D01*
X753020Y281144D01*
X754436Y282560D01*
X755202Y284409D01*
Y286411D01*
X754436Y288260D01*
X753671Y289026D01*
Y299504D01*
X754186Y300020D01*
X754952Y301869D01*
Y303871D01*
X754186Y305720D01*
X752770Y307136D01*
X750921Y307902D01*
D02*
G37*
G36*
X664651Y308652D02*
X662649D01*
X660800Y307886D01*
X659384Y306470D01*
X658618Y304621D01*
Y302619D01*
X659384Y300770D01*
X659881Y300273D01*
Y288267D01*
X659874Y288260D01*
X659108Y286411D01*
Y284409D01*
X659874Y282560D01*
X661290Y281144D01*
X663139Y280378D01*
X665141D01*
X666990Y281144D01*
X668406Y282560D01*
X669172Y284409D01*
Y286411D01*
X668406Y288260D01*
X667909Y288757D01*
Y300763D01*
X667916Y300770D01*
X668682Y302619D01*
Y304621D01*
X667916Y306470D01*
X666500Y307886D01*
X664651Y308652D01*
D02*
G37*
G36*
X764431Y310142D02*
X762429D01*
X760580Y309376D01*
X759164Y307960D01*
X758398Y306111D01*
Y304109D01*
X759164Y302260D01*
X759779Y301644D01*
Y288779D01*
X759114Y288113D01*
X758348Y286264D01*
Y284262D01*
X759114Y282413D01*
X760530Y280997D01*
X762379Y280231D01*
X764381D01*
X766230Y280997D01*
X767646Y282413D01*
X768412Y284262D01*
Y286264D01*
X767646Y288113D01*
X767031Y288729D01*
Y301594D01*
X767696Y302260D01*
X768462Y304109D01*
Y306111D01*
X767696Y307960D01*
X766280Y309376D01*
X764431Y310142D01*
D02*
G37*
G36*
X978517Y253284D02*
X978400D01*
Y244014D01*
X987669D01*
Y244132D01*
X986951Y246812D01*
X985564Y249216D01*
X983601Y251178D01*
X981198Y252566D01*
X978517Y253284D01*
D02*
G37*
G36*
X240037D02*
X239919D01*
Y244014D01*
X249189D01*
Y244132D01*
X248471Y246812D01*
X247084Y249216D01*
X245121Y251178D01*
X242718Y252566D01*
X240037Y253284D01*
D02*
G37*
G36*
X237379D02*
X237262D01*
X234581Y252566D01*
X232178Y251178D01*
X230215Y249216D01*
X228828Y246812D01*
X228109Y244132D01*
Y244014D01*
X237379D01*
Y253284D01*
D02*
G37*
G36*
X975860D02*
X975742D01*
X973061Y252566D01*
X970658Y251178D01*
X968695Y249216D01*
X967308Y246812D01*
X966590Y244132D01*
Y244014D01*
X975860D01*
Y253284D01*
D02*
G37*
G36*
X1214168Y252930D02*
X1214050D01*
Y243660D01*
X1223320D01*
Y243778D01*
X1222602Y246458D01*
X1221214Y248862D01*
X1219252Y250824D01*
X1216848Y252212D01*
X1214168Y252930D01*
D02*
G37*
G36*
X475688D02*
X475570D01*
Y243660D01*
X484840D01*
Y243778D01*
X484122Y246458D01*
X482734Y248862D01*
X480772Y250824D01*
X478368Y252212D01*
X475688Y252930D01*
D02*
G37*
G36*
X1211510D02*
X1211392D01*
X1208712Y252212D01*
X1206308Y250824D01*
X1204346Y248862D01*
X1202958Y246458D01*
X1202240Y243778D01*
Y243660D01*
X1211510D01*
Y252930D01*
D02*
G37*
G36*
X473030D02*
X472912D01*
X470232Y252212D01*
X467828Y250824D01*
X465866Y248862D01*
X464478Y246458D01*
X463760Y243778D01*
Y243660D01*
X473030D01*
Y252930D01*
D02*
G37*
G36*
X1314041Y253442D02*
X1294478D01*
Y233878D01*
X1314041D01*
Y253442D01*
D02*
G37*
G36*
X1255547D02*
X1252972D01*
X1250484Y252775D01*
X1248253Y251488D01*
X1246432Y249666D01*
X1245144Y247436D01*
X1244477Y244948D01*
Y242372D01*
X1245144Y239884D01*
X1246432Y237654D01*
X1248253Y235832D01*
X1250484Y234545D01*
X1252972Y233878D01*
X1255547D01*
X1258035Y234545D01*
X1260266Y235832D01*
X1262087Y237654D01*
X1263375Y239884D01*
X1264042Y242372D01*
Y244948D01*
X1263375Y247436D01*
X1262087Y249666D01*
X1260266Y251488D01*
X1258035Y252775D01*
X1255547Y253442D01*
D02*
G37*
G36*
X944801D02*
X925238D01*
Y233878D01*
X944801D01*
Y253442D01*
D02*
G37*
G36*
X886307D02*
X883732D01*
X881244Y252775D01*
X879013Y251488D01*
X877192Y249666D01*
X875904Y247436D01*
X875238Y244948D01*
Y242372D01*
X875904Y239884D01*
X877192Y237654D01*
X879013Y235832D01*
X881244Y234545D01*
X883732Y233878D01*
X886307D01*
X888795Y234545D01*
X891026Y235832D01*
X892847Y237654D01*
X894135Y239884D01*
X894801Y242372D01*
Y244948D01*
X894135Y247436D01*
X892847Y249666D01*
X891026Y251488D01*
X888795Y252775D01*
X886307Y253442D01*
D02*
G37*
G36*
X575561D02*
X555998D01*
Y233878D01*
X575561D01*
Y253442D01*
D02*
G37*
G36*
X517067D02*
X514492D01*
X512004Y252775D01*
X509773Y251488D01*
X507952Y249666D01*
X506664Y247436D01*
X505998Y244948D01*
Y242372D01*
X506664Y239884D01*
X507952Y237654D01*
X509773Y235832D01*
X512004Y234545D01*
X514492Y233878D01*
X517067D01*
X519555Y234545D01*
X521786Y235832D01*
X523607Y237654D01*
X524895Y239884D01*
X525561Y242372D01*
Y244948D01*
X524895Y247436D01*
X523607Y249666D01*
X521786Y251488D01*
X519555Y252775D01*
X517067Y253442D01*
D02*
G37*
G36*
X206322D02*
X186758D01*
Y233878D01*
X206322D01*
Y253442D01*
D02*
G37*
G36*
X147827D02*
X145252D01*
X142764Y252775D01*
X140533Y251488D01*
X138712Y249666D01*
X137424Y247436D01*
X136757Y244948D01*
Y242372D01*
X137424Y239884D01*
X138712Y237654D01*
X140533Y235832D01*
X142764Y234545D01*
X145252Y233878D01*
X147827D01*
X150315Y234545D01*
X152546Y235832D01*
X154367Y237654D01*
X155655Y239884D01*
X156321Y242372D01*
Y244948D01*
X155655Y247436D01*
X154367Y249666D01*
X152546Y251488D01*
X150315Y252775D01*
X147827Y253442D01*
D02*
G37*
G36*
X1029650Y252776D02*
X1027009D01*
X1024457Y252092D01*
X1022170Y250772D01*
X1020302Y248904D01*
X1018981Y246616D01*
X1018298Y244065D01*
Y241423D01*
X1018981Y238872D01*
X1020302Y236584D01*
X1022170Y234716D01*
X1024457Y233396D01*
X1027009Y232712D01*
X1029650D01*
X1032202Y233396D01*
X1034489Y234716D01*
X1036357Y236584D01*
X1037678Y238872D01*
X1038361Y241423D01*
Y244065D01*
X1037678Y246616D01*
X1036357Y248904D01*
X1034489Y250772D01*
X1032202Y252092D01*
X1029650Y252776D01*
D02*
G37*
G36*
X1004050D02*
X1001409D01*
X998857Y252092D01*
X996570Y250772D01*
X994702Y248904D01*
X993381Y246616D01*
X992698Y244065D01*
Y241423D01*
X993381Y238872D01*
X994702Y236584D01*
X996570Y234716D01*
X998857Y233396D01*
X1001409Y232712D01*
X1004050D01*
X1006602Y233396D01*
X1008889Y234716D01*
X1010757Y236584D01*
X1012078Y238872D01*
X1012761Y241423D01*
Y244065D01*
X1012078Y246616D01*
X1010757Y248904D01*
X1008889Y250772D01*
X1006602Y252092D01*
X1004050Y252776D01*
D02*
G37*
G36*
X291170D02*
X288529D01*
X285977Y252092D01*
X283690Y250772D01*
X281822Y248904D01*
X280501Y246616D01*
X279818Y244065D01*
Y241423D01*
X280501Y238872D01*
X281822Y236584D01*
X283690Y234716D01*
X285977Y233396D01*
X288529Y232712D01*
X291170D01*
X293722Y233396D01*
X296009Y234716D01*
X297877Y236584D01*
X299198Y238872D01*
X299881Y241423D01*
Y244065D01*
X299198Y246616D01*
X297877Y248904D01*
X296009Y250772D01*
X293722Y252092D01*
X291170Y252776D01*
D02*
G37*
G36*
X265570D02*
X262929D01*
X260377Y252092D01*
X258090Y250772D01*
X256222Y248904D01*
X254901Y246616D01*
X254217Y244065D01*
Y241423D01*
X254901Y238872D01*
X256222Y236584D01*
X258090Y234716D01*
X260377Y233396D01*
X262929Y232712D01*
X265570D01*
X268122Y233396D01*
X270409Y234716D01*
X272277Y236584D01*
X273598Y238872D01*
X274281Y241423D01*
Y244065D01*
X273598Y246616D01*
X272277Y248904D01*
X270409Y250772D01*
X268122Y252092D01*
X265570Y252776D01*
D02*
G37*
G36*
X1188501Y252422D02*
X1185859D01*
X1183308Y251738D01*
X1181020Y250418D01*
X1179152Y248550D01*
X1177832Y246262D01*
X1177148Y243711D01*
Y241069D01*
X1177832Y238518D01*
X1179152Y236230D01*
X1181020Y234362D01*
X1183308Y233042D01*
X1185859Y232358D01*
X1188501D01*
X1191052Y233042D01*
X1193340Y234362D01*
X1195208Y236230D01*
X1196528Y238518D01*
X1197212Y241069D01*
Y243711D01*
X1196528Y246262D01*
X1195208Y248550D01*
X1193340Y250418D01*
X1191052Y251738D01*
X1188501Y252422D01*
D02*
G37*
G36*
X1162901D02*
X1160259D01*
X1157708Y251738D01*
X1155420Y250418D01*
X1153552Y248550D01*
X1152232Y246262D01*
X1151548Y243711D01*
Y241069D01*
X1152232Y238518D01*
X1153552Y236230D01*
X1155420Y234362D01*
X1157708Y233042D01*
X1160259Y232358D01*
X1162901D01*
X1165452Y233042D01*
X1167740Y234362D01*
X1169608Y236230D01*
X1170928Y238518D01*
X1171612Y241069D01*
Y243711D01*
X1170928Y246262D01*
X1169608Y248550D01*
X1167740Y250418D01*
X1165452Y251738D01*
X1162901Y252422D01*
D02*
G37*
G36*
X450021D02*
X447379D01*
X444828Y251738D01*
X442540Y250418D01*
X440672Y248550D01*
X439352Y246262D01*
X438668Y243711D01*
Y241069D01*
X439352Y238518D01*
X440672Y236230D01*
X442540Y234362D01*
X444828Y233042D01*
X447379Y232358D01*
X450021D01*
X452572Y233042D01*
X454860Y234362D01*
X456728Y236230D01*
X458048Y238518D01*
X458732Y241069D01*
Y243711D01*
X458048Y246262D01*
X456728Y248550D01*
X454860Y250418D01*
X452572Y251738D01*
X450021Y252422D01*
D02*
G37*
G36*
X424421D02*
X421779D01*
X419228Y251738D01*
X416940Y250418D01*
X415072Y248550D01*
X413752Y246262D01*
X413068Y243711D01*
Y241069D01*
X413752Y238518D01*
X415072Y236230D01*
X416940Y234362D01*
X419228Y233042D01*
X421779Y232358D01*
X424421D01*
X426972Y233042D01*
X429260Y234362D01*
X431128Y236230D01*
X432448Y238518D01*
X433132Y241069D01*
Y243711D01*
X432448Y246262D01*
X431128Y248550D01*
X429260Y250418D01*
X426972Y251738D01*
X424421Y252422D01*
D02*
G37*
G36*
X987669Y241474D02*
X978400D01*
Y232204D01*
X978517D01*
X981198Y232922D01*
X983601Y234310D01*
X985564Y236272D01*
X986951Y238676D01*
X987669Y241356D01*
Y241474D01*
D02*
G37*
G36*
X975860D02*
X966590D01*
Y241356D01*
X967308Y238676D01*
X968695Y236272D01*
X970658Y234310D01*
X973061Y232922D01*
X975742Y232204D01*
X975860D01*
Y241474D01*
D02*
G37*
G36*
X249189D02*
X239919D01*
Y232204D01*
X240037D01*
X242718Y232922D01*
X245121Y234310D01*
X247084Y236272D01*
X248471Y238676D01*
X249189Y241356D01*
Y241474D01*
D02*
G37*
G36*
X237379D02*
X228109D01*
Y241356D01*
X228828Y238676D01*
X230215Y236272D01*
X232178Y234310D01*
X234581Y232922D01*
X237262Y232204D01*
X237379D01*
Y241474D01*
D02*
G37*
G36*
X1223320Y241120D02*
X1214050D01*
Y231850D01*
X1214168D01*
X1216848Y232568D01*
X1219252Y233956D01*
X1221214Y235918D01*
X1222602Y238322D01*
X1223320Y241002D01*
Y241120D01*
D02*
G37*
G36*
X1211510D02*
X1202240D01*
Y241002D01*
X1202958Y238322D01*
X1204346Y235918D01*
X1206308Y233956D01*
X1208712Y232568D01*
X1211392Y231850D01*
X1211510D01*
Y241120D01*
D02*
G37*
G36*
X484840D02*
X475570D01*
Y231850D01*
X475688D01*
X478368Y232568D01*
X480772Y233956D01*
X482734Y235918D01*
X484122Y238322D01*
X484840Y241002D01*
Y241120D01*
D02*
G37*
G36*
X473030D02*
X463760D01*
Y241002D01*
X464478Y238322D01*
X465866Y235918D01*
X467828Y233956D01*
X470232Y232568D01*
X472912Y231850D01*
X473030D01*
Y241120D01*
D02*
G37*
G36*
X1342860Y129602D02*
X1341140D01*
X1339479Y129157D01*
X1337989Y128297D01*
X1336773Y127081D01*
X1335913Y125591D01*
X1335468Y123930D01*
Y122210D01*
X1335913Y120549D01*
X1336773Y119059D01*
X1337989Y117843D01*
X1339479Y116983D01*
X1341140Y116538D01*
X1342860D01*
X1344521Y116983D01*
X1346011Y117843D01*
X1347152Y118984D01*
X1379695D01*
X1380183Y118139D01*
X1381399Y116923D01*
X1382889Y116063D01*
X1384550Y115618D01*
X1386270D01*
X1387931Y116063D01*
X1389421Y116923D01*
X1390637Y118139D01*
X1391497Y119629D01*
X1391942Y121290D01*
Y123010D01*
X1391497Y124671D01*
X1390637Y126161D01*
X1389421Y127377D01*
X1387931Y128237D01*
X1386270Y128682D01*
X1384550D01*
X1382889Y128237D01*
X1381399Y127377D01*
X1380258Y126236D01*
X1347715D01*
X1347227Y127081D01*
X1346011Y128297D01*
X1344521Y129157D01*
X1342860Y129602D01*
D02*
G37*
G36*
X240037Y108284D02*
X239919D01*
Y99014D01*
X249189D01*
Y99132D01*
X248471Y101812D01*
X247084Y104216D01*
X245121Y106178D01*
X242718Y107566D01*
X240037Y108284D01*
D02*
G37*
G36*
X978517D02*
X978400D01*
Y99014D01*
X987669D01*
Y99132D01*
X986951Y101812D01*
X985564Y104216D01*
X983601Y106178D01*
X981198Y107566D01*
X978517Y108284D01*
D02*
G37*
G36*
X237379D02*
X237262D01*
X234581Y107566D01*
X232178Y106178D01*
X230215Y104216D01*
X228828Y101812D01*
X228109Y99132D01*
Y99014D01*
X237379D01*
Y108284D01*
D02*
G37*
G36*
X975860D02*
X975742D01*
X973061Y107566D01*
X970658Y106178D01*
X968695Y104216D01*
X967308Y101812D01*
X966590Y99132D01*
Y99014D01*
X975860D01*
Y108284D01*
D02*
G37*
G36*
X1214168Y107930D02*
X1214050D01*
Y98660D01*
X1223320D01*
Y98778D01*
X1222602Y101458D01*
X1221214Y103862D01*
X1219252Y105824D01*
X1216848Y107212D01*
X1214168Y107930D01*
D02*
G37*
G36*
X475688D02*
X475570D01*
Y98660D01*
X484840D01*
Y98778D01*
X484122Y101458D01*
X482734Y103862D01*
X480772Y105824D01*
X478368Y107212D01*
X475688Y107930D01*
D02*
G37*
G36*
X1211510D02*
X1211392D01*
X1208712Y107212D01*
X1206308Y105824D01*
X1204346Y103862D01*
X1202958Y101458D01*
X1202240Y98778D01*
Y98660D01*
X1211510D01*
Y107930D01*
D02*
G37*
G36*
X473030D02*
X472912D01*
X470232Y107212D01*
X467828Y105824D01*
X465866Y103862D01*
X464478Y101458D01*
X463760Y98778D01*
Y98660D01*
X473030D01*
Y107930D01*
D02*
G37*
G36*
X1305547Y108442D02*
X1302972D01*
X1300484Y107775D01*
X1298253Y106488D01*
X1296432Y104666D01*
X1295144Y102436D01*
X1294478Y99948D01*
Y97372D01*
X1295144Y94884D01*
X1296432Y92654D01*
X1298253Y90832D01*
X1300484Y89545D01*
X1302972Y88878D01*
X1305547D01*
X1308035Y89545D01*
X1310266Y90832D01*
X1312087Y92654D01*
X1313375Y94884D01*
X1314041Y97372D01*
Y99948D01*
X1313375Y102436D01*
X1312087Y104666D01*
X1310266Y106488D01*
X1308035Y107775D01*
X1305547Y108442D01*
D02*
G37*
G36*
X935720Y134822D02*
X934000D01*
X932339Y134377D01*
X930849Y133517D01*
X929633Y132301D01*
X928773Y130811D01*
X928328Y129150D01*
Y127430D01*
X928773Y125769D01*
X929633Y124279D01*
X930849Y123063D01*
X931314Y122795D01*
Y107794D01*
X931244Y107775D01*
X929013Y106488D01*
X927192Y104666D01*
X925904Y102436D01*
X925238Y99948D01*
Y97372D01*
X925904Y94884D01*
X927192Y92654D01*
X929013Y90832D01*
X931244Y89545D01*
X933732Y88878D01*
X936307D01*
X938795Y89545D01*
X941026Y90832D01*
X942847Y92654D01*
X944135Y94884D01*
X944801Y97372D01*
Y99948D01*
X944135Y102436D01*
X942847Y104666D01*
X941026Y106488D01*
X938795Y107775D01*
X938565Y107837D01*
Y122887D01*
X938871Y123063D01*
X940087Y124279D01*
X940947Y125769D01*
X941392Y127430D01*
Y129150D01*
X940947Y130811D01*
X940087Y132301D01*
X938871Y133517D01*
X937381Y134377D01*
X935720Y134822D01*
D02*
G37*
G36*
X566990Y135842D02*
X565270D01*
X563609Y135397D01*
X562119Y134537D01*
X560903Y133321D01*
X560043Y131831D01*
X559598Y130170D01*
Y128450D01*
X560043Y126789D01*
X560903Y125299D01*
X561941Y124262D01*
Y107739D01*
X559773Y106488D01*
X557952Y104666D01*
X556664Y102436D01*
X555998Y99948D01*
Y97372D01*
X556664Y94884D01*
X557952Y92654D01*
X559773Y90832D01*
X562004Y89545D01*
X564492Y88878D01*
X567067D01*
X569555Y89545D01*
X571786Y90832D01*
X573607Y92654D01*
X574895Y94884D01*
X575561Y97372D01*
Y99948D01*
X574895Y102436D01*
X573607Y104666D01*
X571786Y106488D01*
X569969Y107536D01*
Y123984D01*
X570141Y124083D01*
X571357Y125299D01*
X572217Y126789D01*
X572662Y128450D01*
Y130170D01*
X572217Y131831D01*
X571357Y133321D01*
X570141Y134537D01*
X568651Y135397D01*
X566990Y135842D01*
D02*
G37*
G36*
X197827Y108442D02*
X195252D01*
X192764Y107775D01*
X190533Y106488D01*
X188712Y104666D01*
X187424Y102436D01*
X186758Y99948D01*
Y97372D01*
X187424Y94884D01*
X188712Y92654D01*
X190533Y90832D01*
X192764Y89545D01*
X195252Y88878D01*
X197827D01*
X200315Y89545D01*
X202546Y90832D01*
X204367Y92654D01*
X205655Y94884D01*
X206322Y97372D01*
Y99948D01*
X205655Y102436D01*
X204367Y104666D01*
X202546Y106488D01*
X200315Y107775D01*
X197827Y108442D01*
D02*
G37*
G36*
X1029650Y107776D02*
X1027009D01*
X1024457Y107092D01*
X1022170Y105772D01*
X1020302Y103904D01*
X1018981Y101616D01*
X1018298Y99065D01*
Y96423D01*
X1018981Y93872D01*
X1020302Y91584D01*
X1022170Y89716D01*
X1024457Y88396D01*
X1027009Y87712D01*
X1029650D01*
X1032202Y88396D01*
X1034489Y89716D01*
X1036357Y91584D01*
X1037678Y93872D01*
X1038361Y96423D01*
Y99065D01*
X1037678Y101616D01*
X1036357Y103904D01*
X1034489Y105772D01*
X1032202Y107092D01*
X1029650Y107776D01*
D02*
G37*
G36*
X1004050D02*
X1001409D01*
X998857Y107092D01*
X996570Y105772D01*
X994702Y103904D01*
X993381Y101616D01*
X992698Y99065D01*
Y96423D01*
X993381Y93872D01*
X994702Y91584D01*
X996570Y89716D01*
X998857Y88396D01*
X1001409Y87712D01*
X1004050D01*
X1006602Y88396D01*
X1008889Y89716D01*
X1010757Y91584D01*
X1012078Y93872D01*
X1012761Y96423D01*
Y99065D01*
X1012078Y101616D01*
X1010757Y103904D01*
X1008889Y105772D01*
X1006602Y107092D01*
X1004050Y107776D01*
D02*
G37*
G36*
X291170D02*
X288529D01*
X285977Y107092D01*
X283690Y105772D01*
X281822Y103904D01*
X280501Y101616D01*
X279818Y99065D01*
Y96423D01*
X280501Y93872D01*
X281822Y91584D01*
X283690Y89716D01*
X285977Y88396D01*
X288529Y87712D01*
X291170D01*
X293722Y88396D01*
X296009Y89716D01*
X297877Y91584D01*
X299198Y93872D01*
X299881Y96423D01*
Y99065D01*
X299198Y101616D01*
X297877Y103904D01*
X296009Y105772D01*
X293722Y107092D01*
X291170Y107776D01*
D02*
G37*
G36*
X265570D02*
X262929D01*
X260377Y107092D01*
X258090Y105772D01*
X256222Y103904D01*
X254901Y101616D01*
X254217Y99065D01*
Y96423D01*
X254901Y93872D01*
X256222Y91584D01*
X258090Y89716D01*
X260377Y88396D01*
X262929Y87712D01*
X265570D01*
X268122Y88396D01*
X270409Y89716D01*
X272277Y91584D01*
X273598Y93872D01*
X274281Y96423D01*
Y99065D01*
X273598Y101616D01*
X272277Y103904D01*
X270409Y105772D01*
X268122Y107092D01*
X265570Y107776D01*
D02*
G37*
G36*
X1188501Y107422D02*
X1185859D01*
X1183308Y106738D01*
X1181020Y105418D01*
X1179152Y103550D01*
X1177832Y101262D01*
X1177148Y98711D01*
Y96069D01*
X1177832Y93518D01*
X1179152Y91230D01*
X1181020Y89362D01*
X1183308Y88042D01*
X1185859Y87358D01*
X1188501D01*
X1191052Y88042D01*
X1193340Y89362D01*
X1195208Y91230D01*
X1196528Y93518D01*
X1197212Y96069D01*
Y98711D01*
X1196528Y101262D01*
X1195208Y103550D01*
X1193340Y105418D01*
X1191052Y106738D01*
X1188501Y107422D01*
D02*
G37*
G36*
X1162901D02*
X1160259D01*
X1157708Y106738D01*
X1155420Y105418D01*
X1153552Y103550D01*
X1152232Y101262D01*
X1151548Y98711D01*
Y96069D01*
X1152232Y93518D01*
X1153552Y91230D01*
X1155420Y89362D01*
X1157708Y88042D01*
X1160259Y87358D01*
X1162901D01*
X1165452Y88042D01*
X1167740Y89362D01*
X1169608Y91230D01*
X1170928Y93518D01*
X1171612Y96069D01*
Y98711D01*
X1170928Y101262D01*
X1169608Y103550D01*
X1167740Y105418D01*
X1165452Y106738D01*
X1162901Y107422D01*
D02*
G37*
G36*
X450021D02*
X447379D01*
X444828Y106738D01*
X442540Y105418D01*
X440672Y103550D01*
X439352Y101262D01*
X438668Y98711D01*
Y96069D01*
X439352Y93518D01*
X440672Y91230D01*
X442540Y89362D01*
X444828Y88042D01*
X447379Y87358D01*
X450021D01*
X452572Y88042D01*
X454860Y89362D01*
X456728Y91230D01*
X458048Y93518D01*
X458732Y96069D01*
Y98711D01*
X458048Y101262D01*
X456728Y103550D01*
X454860Y105418D01*
X452572Y106738D01*
X450021Y107422D01*
D02*
G37*
G36*
X424421D02*
X421779D01*
X419228Y106738D01*
X416940Y105418D01*
X415072Y103550D01*
X413752Y101262D01*
X413068Y98711D01*
Y96069D01*
X413752Y93518D01*
X415072Y91230D01*
X416940Y89362D01*
X419228Y88042D01*
X421779Y87358D01*
X424421D01*
X426972Y88042D01*
X429260Y89362D01*
X431128Y91230D01*
X432448Y93518D01*
X433132Y96069D01*
Y98711D01*
X432448Y101262D01*
X431128Y103550D01*
X429260Y105418D01*
X426972Y106738D01*
X424421Y107422D01*
D02*
G37*
G36*
X987669Y96474D02*
X978400D01*
Y87204D01*
X978517D01*
X981198Y87922D01*
X983601Y89310D01*
X985564Y91272D01*
X986951Y93676D01*
X987669Y96356D01*
Y96474D01*
D02*
G37*
G36*
X975860D02*
X966590D01*
Y96356D01*
X967308Y93676D01*
X968695Y91272D01*
X970658Y89310D01*
X973061Y87922D01*
X975742Y87204D01*
X975860D01*
Y96474D01*
D02*
G37*
G36*
X249189D02*
X239919D01*
Y87204D01*
X240037D01*
X242718Y87922D01*
X245121Y89310D01*
X247084Y91272D01*
X248471Y93676D01*
X249189Y96356D01*
Y96474D01*
D02*
G37*
G36*
X237379D02*
X228109D01*
Y96356D01*
X228828Y93676D01*
X230215Y91272D01*
X232178Y89310D01*
X234581Y87922D01*
X237262Y87204D01*
X237379D01*
Y96474D01*
D02*
G37*
G36*
X1223320Y96120D02*
X1214050D01*
Y86850D01*
X1214168D01*
X1216848Y87568D01*
X1219252Y88956D01*
X1221214Y90918D01*
X1222602Y93322D01*
X1223320Y96002D01*
Y96120D01*
D02*
G37*
G36*
X1211510D02*
X1202240D01*
Y96002D01*
X1202958Y93322D01*
X1204346Y90918D01*
X1206308Y88956D01*
X1208712Y87568D01*
X1211392Y86850D01*
X1211510D01*
Y96120D01*
D02*
G37*
G36*
X484840D02*
X475570D01*
Y86850D01*
X475688D01*
X478368Y87568D01*
X480772Y88956D01*
X482734Y90918D01*
X484122Y93322D01*
X484840Y96002D01*
Y96120D01*
D02*
G37*
G36*
X473030D02*
X463760D01*
Y96002D01*
X464478Y93322D01*
X465866Y90918D01*
X467828Y88956D01*
X470232Y87568D01*
X472912Y86850D01*
X473030D01*
Y96120D01*
D02*
G37*
%LPD*%
G36*
X1390983Y725649D02*
X1392199Y724433D01*
X1393689Y723573D01*
X1393950Y723503D01*
Y722188D01*
X1393459Y722057D01*
X1391969Y721197D01*
X1390958Y720186D01*
X1347950D01*
X1347387Y721161D01*
X1346171Y722377D01*
X1345217Y722927D01*
X1345155Y724358D01*
X1345701Y724673D01*
X1346917Y725889D01*
X1347070Y726154D01*
X1390692D01*
X1390983Y725649D01*
D02*
G37*
D44*
X1304391Y612430D02*
D03*
X1254390D02*
D03*
X1304391Y467430D02*
D03*
X1279390D02*
D03*
X24250Y497500D02*
D03*
X146539Y839680D02*
D03*
X196539D02*
D03*
X146539Y984680D02*
D03*
X171539D02*
D03*
X515779Y839680D02*
D03*
X565779D02*
D03*
X515779Y984680D02*
D03*
X540779D02*
D03*
X196670Y1353450D02*
D03*
X146671D02*
D03*
X196670Y1208450D02*
D03*
X171670D02*
D03*
X565910Y1353450D02*
D03*
X515910D02*
D03*
X565910Y1208450D02*
D03*
X540910D02*
D03*
X910020Y984680D02*
D03*
X885020D02*
D03*
X935020Y839680D02*
D03*
X885020D02*
D03*
X910151Y1208450D02*
D03*
X935151D02*
D03*
X885151Y1353450D02*
D03*
X935151D02*
D03*
X1279259Y984680D02*
D03*
X1254259D02*
D03*
X1304259Y839680D02*
D03*
X1254259D02*
D03*
X1279390Y1208450D02*
D03*
X1304391D02*
D03*
X1254390Y1353450D02*
D03*
X1304391D02*
D03*
X146539Y98660D02*
D03*
X196539D02*
D03*
X146539Y243660D02*
D03*
X171539D02*
D03*
X515779Y98660D02*
D03*
X565779D02*
D03*
X515779Y243660D02*
D03*
X540779D02*
D03*
X885020Y98660D02*
D03*
X935020D02*
D03*
X885020Y243660D02*
D03*
X910020D02*
D03*
X1254259Y98660D02*
D03*
X1304259D02*
D03*
X1254259Y243660D02*
D03*
X1279259D02*
D03*
X196670Y612430D02*
D03*
X146671D02*
D03*
X196670Y467430D02*
D03*
X171670D02*
D03*
X565910Y612430D02*
D03*
X515910D02*
D03*
X565910Y467430D02*
D03*
X540910D02*
D03*
X935151Y612430D02*
D03*
X885151D02*
D03*
X935151Y467430D02*
D03*
X910151D02*
D03*
X24250Y997500D02*
D03*
X1425750Y452500D02*
D03*
X24250Y747500D02*
D03*
X1425750Y702500D02*
D03*
Y952500D02*
D03*
D45*
X1254390Y467430D02*
D03*
X196539Y984680D02*
D03*
X565779D02*
D03*
X146671Y1208450D02*
D03*
X515910D02*
D03*
X935020Y984680D02*
D03*
X885151Y1208450D02*
D03*
X1304259Y984680D02*
D03*
X1254390Y1208450D02*
D03*
X196539Y243660D02*
D03*
X565779D02*
D03*
X935020D02*
D03*
X1304259D02*
D03*
X146671Y467430D02*
D03*
X515910D02*
D03*
X885151D02*
D03*
D46*
X1336391Y542430D02*
D03*
X1222391D02*
D03*
X114539Y909680D02*
D03*
X228539D02*
D03*
X483779D02*
D03*
X597779D02*
D03*
X228671Y1283450D02*
D03*
X114670D02*
D03*
X597910D02*
D03*
X483910D02*
D03*
X967020Y909680D02*
D03*
X853019D02*
D03*
X853150Y1283450D02*
D03*
X967150D02*
D03*
X1336259Y909680D02*
D03*
X1222260D02*
D03*
X1222391Y1283450D02*
D03*
X1336391D02*
D03*
X114539Y168660D02*
D03*
X228539D02*
D03*
X483779D02*
D03*
X597779D02*
D03*
X853019D02*
D03*
X967020D02*
D03*
X1222260D02*
D03*
X1336259D02*
D03*
X228671Y542430D02*
D03*
X114670D02*
D03*
X597910D02*
D03*
X483910D02*
D03*
X967150D02*
D03*
X853150D02*
D03*
D47*
X49250Y510000D02*
D03*
Y440000D02*
D03*
Y1010000D02*
D03*
Y940000D02*
D03*
X1400750Y440000D02*
D03*
Y510000D02*
D03*
X49250Y760000D02*
D03*
Y690000D02*
D03*
X1400750D02*
D03*
Y760000D02*
D03*
Y940000D02*
D03*
Y1010000D02*
D03*
D48*
X24250Y452500D02*
D03*
Y952500D02*
D03*
X1425750Y497500D02*
D03*
X24250Y702500D02*
D03*
X1425750Y747500D02*
D03*
Y997500D02*
D03*
D51*
X132946Y741396D02*
X133310Y741032D01*
X92810Y741330D02*
X92843Y741363D01*
X132912D01*
X132946Y741396D01*
X133310Y740750D02*
Y741032D01*
X96060Y721080D02*
X136590D01*
X96010Y721130D02*
X96060Y721080D01*
X136590D02*
X136640Y721030D01*
X136675Y729175D02*
X136760Y729090D01*
X92810Y729260D02*
X92895Y729175D01*
X136675D01*
X763405Y285288D02*
Y305085D01*
X763380Y285263D02*
X763405Y285288D01*
Y305085D02*
X763430Y305110D01*
X749920Y302870D02*
X750045Y302745D01*
Y285535D02*
Y302745D01*
Y285535D02*
X750170Y285410D01*
X242660Y745890D02*
X242720Y745830D01*
X263050D01*
X263110Y745770D01*
X934860Y128290D02*
X934940Y128210D01*
Y98740D02*
Y128210D01*
Y98740D02*
X935020Y98660D01*
X1401640Y742880D02*
X1414380Y730140D01*
Y729080D02*
Y730140D01*
X1341690Y742880D02*
X1401640D01*
X1341690Y729900D02*
X1341810Y729780D01*
X1396090D01*
X1396210Y729660D01*
X1342160Y717150D02*
X1342750Y716560D01*
X1395390D01*
X1395980Y715970D01*
X1342000Y123070D02*
X1342460Y122610D01*
X1384950D01*
X1385410Y122150D01*
X1340240Y484090D02*
X1340785Y483545D01*
X1386785D01*
X1387330Y483000D01*
X1421315Y1075825D02*
X1421340Y1075800D01*
X1372215Y1075825D02*
X1421315D01*
X1372190Y1075850D02*
X1372215Y1075825D01*
X1421890Y1106620D02*
X1421940Y1106670D01*
X1372250Y1106620D02*
X1421890D01*
D52*
X769440Y1145341D02*
Y1149510D01*
X751360Y1170170D02*
X751559Y1169971D01*
Y1150209D02*
X751758Y1150010D01*
X751559Y1150209D02*
Y1169971D01*
X769440Y1149510D02*
X769890Y1149960D01*
Y1171440D01*
X683570Y1149740D02*
X683965Y1150135D01*
Y1183385D02*
X684360Y1183780D01*
X683965Y1150135D02*
Y1183385D01*
X671000Y1149820D02*
Y1183320D01*
X671080Y1183400D01*
X670920Y1149740D02*
X671000Y1149820D01*
X679639Y286045D02*
Y303659D01*
X679850Y303870D01*
X679427Y285833D02*
X679639Y286045D01*
X663895Y285655D02*
Y303375D01*
X663650Y303620D02*
X663895Y303375D01*
Y285655D02*
X664140Y285410D01*
X746090Y994333D02*
X747385Y995627D01*
X746090Y993740D02*
Y994333D01*
X747385Y995627D02*
Y1016885D01*
X757217Y985523D02*
Y1013303D01*
Y985523D02*
X757425Y985315D01*
X757010Y1013510D02*
X757217Y1013303D01*
X691870Y984770D02*
Y1009480D01*
X692000Y1009610D01*
X691740Y984640D02*
X691870Y984770D01*
X677700Y984640D02*
Y1008310D01*
X763435Y476945D02*
X763860Y476520D01*
X763435Y476945D02*
Y506455D01*
X775310Y476670D02*
Y506840D01*
Y476670D02*
X775460Y476520D01*
X675835Y477475D02*
Y507565D01*
X689380Y508990D02*
X689705Y508665D01*
X675835Y477475D02*
X676630Y476680D01*
X675040Y508360D02*
X675835Y507565D01*
X775160Y506990D02*
X775310Y506840D01*
X763010Y506880D02*
X763435Y506455D01*
X689705Y476695D02*
Y508665D01*
Y476695D02*
X690030Y476370D01*
X935115Y869475D02*
X935210Y869570D01*
X935115Y839775D02*
Y869475D01*
X935020Y839680D02*
X935115Y839775D01*
X565950Y868780D02*
X566120Y868950D01*
X565950Y839850D02*
Y868780D01*
X565779Y839680D02*
X565950Y839850D01*
X565955Y129135D02*
X566130Y129310D01*
X565955Y98835D02*
Y129135D01*
X565779Y98660D02*
X565955Y98835D01*
D56*
X1170190Y1420640D02*
D03*
Y1395240D02*
D03*
Y1369840D02*
D03*
Y1344440D02*
D03*
Y1319040D02*
D03*
Y1293640D02*
D03*
Y1268240D02*
D03*
Y1242840D02*
D03*
Y1217440D02*
D03*
X1144790D02*
D03*
X1119390D02*
D03*
X1093990D02*
D03*
X1068590D02*
D03*
X1043190D02*
D03*
X1017790D02*
D03*
Y1242840D02*
D03*
Y1268240D02*
D03*
Y1293640D02*
D03*
Y1319040D02*
D03*
Y1344440D02*
D03*
Y1369840D02*
D03*
Y1395240D02*
D03*
D57*
X1186681Y468346D02*
D03*
X1212281D02*
D03*
X1161080Y613346D02*
D03*
X1186681D02*
D03*
X1212281D02*
D03*
X1161080Y468346D02*
D03*
X264249Y983764D02*
D03*
X238650D02*
D03*
X289849Y838764D02*
D03*
X264249D02*
D03*
X238650D02*
D03*
X289849Y983764D02*
D03*
X448700Y838410D02*
D03*
X474300D02*
D03*
X423100Y983410D02*
D03*
X448700D02*
D03*
X474300D02*
D03*
X423100Y838410D02*
D03*
X264240Y1354170D02*
D03*
X238640D02*
D03*
X289840Y1209170D02*
D03*
X264240D02*
D03*
X238640D02*
D03*
X289840Y1354170D02*
D03*
X448200Y1209366D02*
D03*
X473801D02*
D03*
X422601Y1354366D02*
D03*
X448200D02*
D03*
X473801D02*
D03*
X422601Y1209366D02*
D03*
X1028329Y983764D02*
D03*
X977130Y838764D02*
D03*
X1002729D02*
D03*
X1028329D02*
D03*
X977130Y983764D02*
D03*
X1002729D02*
D03*
X791350Y1209290D02*
D03*
X842550Y1354290D02*
D03*
X816950D02*
D03*
X791350D02*
D03*
X842550Y1209290D02*
D03*
X816950D02*
D03*
X1161580Y838410D02*
D03*
X1212780Y983410D02*
D03*
X1187180D02*
D03*
X1161580D02*
D03*
X1212780Y838410D02*
D03*
X1187180D02*
D03*
X1351590Y1162650D02*
D03*
X1206590Y1213850D02*
D03*
Y1188250D02*
D03*
Y1162650D02*
D03*
X1351590Y1213850D02*
D03*
Y1188250D02*
D03*
X264249Y242744D02*
D03*
X238650D02*
D03*
X289849Y97744D02*
D03*
X264249D02*
D03*
X238650D02*
D03*
X289849Y242744D02*
D03*
X448700Y97390D02*
D03*
X474300D02*
D03*
X423100Y242390D02*
D03*
X448700D02*
D03*
X474300D02*
D03*
X423100Y97390D02*
D03*
X1002729Y242744D02*
D03*
X977130D02*
D03*
X1028329Y97744D02*
D03*
X1002729D02*
D03*
X977130D02*
D03*
X1028329Y242744D02*
D03*
X1187180Y97390D02*
D03*
X1212780D02*
D03*
X1161580Y242390D02*
D03*
X1187180D02*
D03*
X1212780D02*
D03*
X1161580Y97390D02*
D03*
X264240Y613150D02*
D03*
X238640D02*
D03*
X289840Y468150D02*
D03*
X264240D02*
D03*
X238640D02*
D03*
X289840Y613150D02*
D03*
X448200Y468346D02*
D03*
X473801D02*
D03*
X422601Y613346D02*
D03*
X448200D02*
D03*
X473801D02*
D03*
X422601Y468346D02*
D03*
X1002720Y613150D02*
D03*
X977120D02*
D03*
X1028320Y468150D02*
D03*
X1002720D02*
D03*
X977120D02*
D03*
X1028320Y613150D02*
D03*
D58*
X1246070Y1385960D02*
D03*
D59*
Y1420960D02*
D03*
D60*
X769440Y1145341D02*
D03*
X751360Y1170170D02*
D03*
X769890Y1171440D02*
D03*
X751758Y1150010D02*
D03*
X792540Y1302170D02*
D03*
X909950Y1004120D02*
D03*
X684360Y1183780D02*
D03*
X671080Y1183400D02*
D03*
X670920Y1149740D02*
D03*
X683570D02*
D03*
X406110Y322220D02*
D03*
X329620Y405860D02*
D03*
X254230Y533630D02*
D03*
X139150Y679980D02*
D03*
X222960Y756700D02*
D03*
X172220Y1015720D02*
D03*
X261450Y927940D02*
D03*
X394110Y1043860D02*
D03*
X308700Y1115770D02*
D03*
X671370Y1115710D02*
D03*
X756610Y1044020D02*
D03*
X1032220Y1115720D02*
D03*
X1119110Y1046680D02*
D03*
X1278740Y1015030D02*
D03*
X692120Y407980D02*
D03*
X779610Y337000D02*
D03*
X1276330Y436890D02*
D03*
X1141270Y337320D02*
D03*
X1118300Y408300D02*
D03*
X1054710Y407340D02*
D03*
X92810Y741330D02*
D03*
X136640Y721030D02*
D03*
X136760Y729090D02*
D03*
X132946Y741396D02*
D03*
X96010Y721130D02*
D03*
X92810Y729260D02*
D03*
X763430Y305110D02*
D03*
X749920Y302870D02*
D03*
X750170Y285410D02*
D03*
X763380Y285263D02*
D03*
X663650Y303620D02*
D03*
X664140Y285410D02*
D03*
X679427Y285833D02*
D03*
X679850Y303870D02*
D03*
X747385Y1016885D02*
D03*
X746090Y993740D02*
D03*
X757010Y1013510D02*
D03*
X757425Y985315D02*
D03*
X691740Y984640D02*
D03*
X692000Y1009610D02*
D03*
X677700Y1008310D02*
D03*
Y984640D02*
D03*
X242660Y745890D02*
D03*
X263110Y745770D02*
D03*
D61*
X763860Y476520D02*
D03*
X775460D02*
D03*
X763010Y506880D02*
D03*
X675040Y508360D02*
D03*
X775160Y506990D02*
D03*
X689380Y508990D02*
D03*
X935210Y869570D02*
D03*
X566120Y868950D02*
D03*
X690030Y476370D02*
D03*
X676630Y476680D02*
D03*
X566130Y129310D02*
D03*
X934860Y128290D02*
D03*
X1414380Y729080D02*
D03*
X1341690Y729900D02*
D03*
Y742880D02*
D03*
X1396210Y729660D02*
D03*
X1342160Y717150D02*
D03*
X1395980Y715970D02*
D03*
X1342000Y123070D02*
D03*
X1340240Y484090D02*
D03*
X1387330Y483000D02*
D03*
X1385410Y122150D02*
D03*
X1421340Y1075800D02*
D03*
X1421940Y1106670D02*
D03*
X1372250Y1106620D02*
D03*
X1372190Y1075850D02*
D03*
M02*
