<svg version="1.1" xmlns="http://www.w3.org/2000/svg" xmlns:xlink="http://www.w3.org/1999/xlink" stroke-linecap="round" stroke-linejoin="round" stroke-width="0" fill-rule="evenodd" width="141.15mm" height="133.198mm" viewBox="-2025.0 5154.549999999988 149050.0 146788.15"><defs><circle cx="0" cy="0" r="500" id="jaSDMR-r2YMv_pad-66"/><rect x="-900" y="-2200" width="1800" height="4400" rx="900" ry="900" id="jaSDMR-r2YMv_pad-67"/><circle cx="0" cy="0" r="500" id="jaSDMR-r2YMv_pad-68"/><circle cx="0" cy="0" r="750" id="jaSDMR-r2YMv_pad-69"/><circle cx="0" cy="0" r="425" id="jaSDMR-r2YMv_pad-70"/><circle cx="0" cy="0" r="150" id="jaSDMR-r2YMv_pad-71"/><circle cx="0" cy="0" r="250" id="jaSDMR-r2YMv_pad-72"/></defs><g transform="translate(0,151930) scale(1,-1)" fill="currentColor" stroke="currentColor"><use xlink:href="#jaSDMR-r2YMv_pad-66" x="101779" y="139524"/><use xlink:href="#jaSDMR-r2YMv_pad-66" x="101779" y="136983.99"/><use xlink:href="#jaSDMR-r2YMv_pad-66" x="101779" y="134444"/><use xlink:href="#jaSDMR-r2YMv_pad-66" x="101779" y="131904.01"/><use xlink:href="#jaSDMR-r2YMv_pad-66" x="101779" y="129364"/><use xlink:href="#jaSDMR-r2YMv_pad-66" x="101779" y="126824"/><use xlink:href="#jaSDMR-r2YMv_pad-66" x="101779" y="124284"/><use xlink:href="#jaSDMR-r2YMv_pad-66" x="101779" y="121744"/><use xlink:href="#jaSDMR-r2YMv_pad-66" x="104319" y="121744"/><use xlink:href="#jaSDMR-r2YMv_pad-66" x="106859" y="121744"/><use xlink:href="#jaSDMR-r2YMv_pad-66" x="109399" y="121744"/><use xlink:href="#jaSDMR-r2YMv_pad-66" x="111939" y="121744"/><use xlink:href="#jaSDMR-r2YMv_pad-66" x="114479" y="121744"/><use xlink:href="#jaSDMR-r2YMv_pad-66" x="117019" y="121744"/><use xlink:href="#jaSDMR-r2YMv_pad-66" x="117019" y="124284"/><use xlink:href="#jaSDMR-r2YMv_pad-66" x="117019" y="126824"/><use xlink:href="#jaSDMR-r2YMv_pad-66" x="117019" y="129364"/><use xlink:href="#jaSDMR-r2YMv_pad-66" x="117019" y="131904.01"/><use xlink:href="#jaSDMR-r2YMv_pad-66" x="117019" y="134444"/><use xlink:href="#jaSDMR-r2YMv_pad-66" x="117019" y="136983.99"/><use xlink:href="#jaSDMR-r2YMv_pad-66" x="117019" y="139524"/><use xlink:href="#jaSDMR-r2YMv_pad-66" x="117019" y="142064"/><use xlink:href="#jaSDMR-r2YMv_pad-66" x="125439.05" y="46743"/><use xlink:href="#jaSDMR-r2YMv_pad-66" x="127939.05" y="46743"/><use xlink:href="#jaSDMR-r2YMv_pad-66" x="130439.06" y="46743"/><use xlink:href="#jaSDMR-r2YMv_pad-66" x="125439.05" y="61243"/><use xlink:href="#jaSDMR-r2YMv_pad-66" x="130439.06" y="61243"/><use xlink:href="#jaSDMR-r2YMv_pad-66" x="19653.95" y="98468"/><use xlink:href="#jaSDMR-r2YMv_pad-66" x="17153.95" y="98468"/><use xlink:href="#jaSDMR-r2YMv_pad-66" x="14653.95" y="98468"/><use xlink:href="#jaSDMR-r2YMv_pad-66" x="19653.95" y="83968"/><use xlink:href="#jaSDMR-r2YMv_pad-66" x="14653.95" y="83968"/><use xlink:href="#jaSDMR-r2YMv_pad-66" x="56577.95" y="98468"/><use xlink:href="#jaSDMR-r2YMv_pad-66" x="54077.95" y="98468"/><use xlink:href="#jaSDMR-r2YMv_pad-66" x="51577.95" y="98468"/><use xlink:href="#jaSDMR-r2YMv_pad-66" x="56577.95" y="83968"/><use xlink:href="#jaSDMR-r2YMv_pad-66" x="51577.95" y="83968"/><use xlink:href="#jaSDMR-r2YMv_pad-66" x="14667.05" y="120845"/><use xlink:href="#jaSDMR-r2YMv_pad-66" x="17167.05" y="120845"/><use xlink:href="#jaSDMR-r2YMv_pad-66" x="19667.05" y="120845"/><use xlink:href="#jaSDMR-r2YMv_pad-66" x="14667.05" y="135345"/><use xlink:href="#jaSDMR-r2YMv_pad-66" x="19667.05" y="135345"/><use xlink:href="#jaSDMR-r2YMv_pad-66" x="51591.05" y="120845"/><use xlink:href="#jaSDMR-r2YMv_pad-66" x="54091.05" y="120845"/><use xlink:href="#jaSDMR-r2YMv_pad-66" x="56591.05" y="120845"/><use xlink:href="#jaSDMR-r2YMv_pad-66" x="51591.05" y="135345"/><use xlink:href="#jaSDMR-r2YMv_pad-66" x="56591.05" y="135345"/><use xlink:href="#jaSDMR-r2YMv_pad-66" x="88501.95" y="83968"/><use xlink:href="#jaSDMR-r2YMv_pad-66" x="93501.95" y="83968"/><use xlink:href="#jaSDMR-r2YMv_pad-66" x="88501.95" y="98468"/><use xlink:href="#jaSDMR-r2YMv_pad-66" x="91001.95" y="98468"/><use xlink:href="#jaSDMR-r2YMv_pad-66" x="93501.95" y="98468"/><use xlink:href="#jaSDMR-r2YMv_pad-66" x="93515.05" y="135345"/><use xlink:href="#jaSDMR-r2YMv_pad-66" x="88515.05" y="135345"/><use xlink:href="#jaSDMR-r2YMv_pad-66" x="93515.05" y="120845"/><use xlink:href="#jaSDMR-r2YMv_pad-66" x="91015.05" y="120845"/><use xlink:href="#jaSDMR-r2YMv_pad-66" x="88515.05" y="120845"/><use xlink:href="#jaSDMR-r2YMv_pad-66" x="125425.95" y="83968"/><use xlink:href="#jaSDMR-r2YMv_pad-66" x="130425.95" y="83968"/><use xlink:href="#jaSDMR-r2YMv_pad-66" x="125425.95" y="98468"/><use xlink:href="#jaSDMR-r2YMv_pad-66" x="127925.95" y="98468"/><use xlink:href="#jaSDMR-r2YMv_pad-66" x="130425.95" y="98468"/><use xlink:href="#jaSDMR-r2YMv_pad-66" x="130439.06" y="135345"/><use xlink:href="#jaSDMR-r2YMv_pad-66" x="125439.05" y="135345"/><use xlink:href="#jaSDMR-r2YMv_pad-66" x="130439.06" y="120845"/><use xlink:href="#jaSDMR-r2YMv_pad-66" x="127939.05" y="120845"/><use xlink:href="#jaSDMR-r2YMv_pad-66" x="125439.05" y="120845"/><use xlink:href="#jaSDMR-r2YMv_pad-66" x="19653.95" y="24366"/><use xlink:href="#jaSDMR-r2YMv_pad-66" x="17153.95" y="24366"/><use xlink:href="#jaSDMR-r2YMv_pad-66" x="14653.95" y="24366"/><use xlink:href="#jaSDMR-r2YMv_pad-66" x="19653.95" y="9866"/><use xlink:href="#jaSDMR-r2YMv_pad-66" x="14653.95" y="9866"/><use xlink:href="#jaSDMR-r2YMv_pad-66" x="56577.95" y="24366"/><use xlink:href="#jaSDMR-r2YMv_pad-66" x="54077.95" y="24366"/><use xlink:href="#jaSDMR-r2YMv_pad-66" x="51577.95" y="24366"/><use xlink:href="#jaSDMR-r2YMv_pad-66" x="56577.95" y="9866"/><use xlink:href="#jaSDMR-r2YMv_pad-66" x="51577.95" y="9866"/><use xlink:href="#jaSDMR-r2YMv_pad-66" x="93501.95" y="24366"/><use xlink:href="#jaSDMR-r2YMv_pad-66" x="91001.95" y="24366"/><use xlink:href="#jaSDMR-r2YMv_pad-66" x="88501.95" y="24366"/><use xlink:href="#jaSDMR-r2YMv_pad-66" x="93501.95" y="9866"/><use xlink:href="#jaSDMR-r2YMv_pad-66" x="88501.95" y="9866"/><use xlink:href="#jaSDMR-r2YMv_pad-66" x="130425.95" y="24366"/><use xlink:href="#jaSDMR-r2YMv_pad-66" x="127925.95" y="24366"/><use xlink:href="#jaSDMR-r2YMv_pad-66" x="125425.95" y="24366"/><use xlink:href="#jaSDMR-r2YMv_pad-66" x="130425.95" y="9866"/><use xlink:href="#jaSDMR-r2YMv_pad-66" x="125425.95" y="9866"/><use xlink:href="#jaSDMR-r2YMv_pad-66" x="14667.05" y="46743"/><use xlink:href="#jaSDMR-r2YMv_pad-66" x="17167.05" y="46743"/><use xlink:href="#jaSDMR-r2YMv_pad-66" x="19667.05" y="46743"/><use xlink:href="#jaSDMR-r2YMv_pad-66" x="14667.05" y="61243"/><use xlink:href="#jaSDMR-r2YMv_pad-66" x="19667.05" y="61243"/><use xlink:href="#jaSDMR-r2YMv_pad-66" x="51591.05" y="46743"/><use xlink:href="#jaSDMR-r2YMv_pad-66" x="54091.05" y="46743"/><use xlink:href="#jaSDMR-r2YMv_pad-66" x="56591.05" y="46743"/><use xlink:href="#jaSDMR-r2YMv_pad-66" x="51591.05" y="61243"/><use xlink:href="#jaSDMR-r2YMv_pad-66" x="56591.05" y="61243"/><use xlink:href="#jaSDMR-r2YMv_pad-66" x="88515.05" y="46743"/><use xlink:href="#jaSDMR-r2YMv_pad-66" x="91015.05" y="46743"/><use xlink:href="#jaSDMR-r2YMv_pad-66" x="93515.05" y="46743"/><use xlink:href="#jaSDMR-r2YMv_pad-66" x="88515.05" y="61243"/><use xlink:href="#jaSDMR-r2YMv_pad-66" x="93515.05" y="61243"/><use xlink:href="#jaSDMR-r2YMv_pad-67" x="122239.05" y="54243"/><use xlink:href="#jaSDMR-r2YMv_pad-67" x="133639.05" y="54243"/><use xlink:href="#jaSDMR-r2YMv_pad-67" x="22853.94" y="90968"/><use xlink:href="#jaSDMR-r2YMv_pad-67" x="11453.95" y="90968"/><use xlink:href="#jaSDMR-r2YMv_pad-67" x="59777.94" y="90968"/><use xlink:href="#jaSDMR-r2YMv_pad-67" x="48377.95" y="90968"/><use xlink:href="#jaSDMR-r2YMv_pad-67" x="11467.05" y="128345"/><use xlink:href="#jaSDMR-r2YMv_pad-67" x="22867.05" y="128345"/><use xlink:href="#jaSDMR-r2YMv_pad-67" x="48391.05" y="128345"/><use xlink:href="#jaSDMR-r2YMv_pad-67" x="59791.05" y="128345"/><use xlink:href="#jaSDMR-r2YMv_pad-67" x="85301.95" y="90968"/><use xlink:href="#jaSDMR-r2YMv_pad-67" x="96701.95" y="90968"/><use xlink:href="#jaSDMR-r2YMv_pad-67" x="96715.05" y="128345"/><use xlink:href="#jaSDMR-r2YMv_pad-67" x="85315.05" y="128345"/><use xlink:href="#jaSDMR-r2YMv_pad-67" x="122225.95" y="90968"/><use xlink:href="#jaSDMR-r2YMv_pad-67" x="133625.95" y="90968"/><use xlink:href="#jaSDMR-r2YMv_pad-67" x="133639.05" y="128345"/><use xlink:href="#jaSDMR-r2YMv_pad-67" x="122239.05" y="128345"/><use xlink:href="#jaSDMR-r2YMv_pad-67" x="22853.94" y="16866"/><use xlink:href="#jaSDMR-r2YMv_pad-67" x="11453.95" y="16866"/><use xlink:href="#jaSDMR-r2YMv_pad-67" x="59777.94" y="16866"/><use xlink:href="#jaSDMR-r2YMv_pad-67" x="48377.95" y="16866"/><use xlink:href="#jaSDMR-r2YMv_pad-67" x="96701.95" y="16866"/><use xlink:href="#jaSDMR-r2YMv_pad-67" x="85301.95" y="16866"/><use xlink:href="#jaSDMR-r2YMv_pad-67" x="133625.95" y="16866"/><use xlink:href="#jaSDMR-r2YMv_pad-67" x="122225.95" y="16866"/><use xlink:href="#jaSDMR-r2YMv_pad-67" x="11467.05" y="54243"/><use xlink:href="#jaSDMR-r2YMv_pad-67" x="22867.05" y="54243"/><use xlink:href="#jaSDMR-r2YMv_pad-67" x="48391.05" y="54243"/><use xlink:href="#jaSDMR-r2YMv_pad-67" x="59791.05" y="54243"/><use xlink:href="#jaSDMR-r2YMv_pad-67" x="85315.05" y="54243"/><use xlink:href="#jaSDMR-r2YMv_pad-67" x="96715.05" y="54243"/><use xlink:href="#jaSDMR-r2YMv_pad-68" x="2425" y="45250"/><use xlink:href="#jaSDMR-r2YMv_pad-68" x="2425" y="49750"/><use xlink:href="#jaSDMR-r2YMv_pad-68" x="2425" y="95250"/><use xlink:href="#jaSDMR-r2YMv_pad-68" x="2425" y="99750"/><use xlink:href="#jaSDMR-r2YMv_pad-68" x="142575" y="49750"/><use xlink:href="#jaSDMR-r2YMv_pad-68" x="142575" y="45250"/><use xlink:href="#jaSDMR-r2YMv_pad-68" x="2425" y="70250"/><use xlink:href="#jaSDMR-r2YMv_pad-68" x="2425" y="74750"/><use xlink:href="#jaSDMR-r2YMv_pad-68" x="142575" y="74750"/><use xlink:href="#jaSDMR-r2YMv_pad-68" x="142575" y="70250"/><use xlink:href="#jaSDMR-r2YMv_pad-68" x="142575" y="99750"/><use xlink:href="#jaSDMR-r2YMv_pad-68" x="142575" y="95250"/><use xlink:href="#jaSDMR-r2YMv_pad-69" x="4925" y="44000"/><use xlink:href="#jaSDMR-r2YMv_pad-69" x="4925" y="51000"/><use xlink:href="#jaSDMR-r2YMv_pad-69" x="4925" y="94000"/><use xlink:href="#jaSDMR-r2YMv_pad-69" x="4925" y="101000"/><use xlink:href="#jaSDMR-r2YMv_pad-69" x="140075" y="51000"/><use xlink:href="#jaSDMR-r2YMv_pad-69" x="140075" y="44000"/><use xlink:href="#jaSDMR-r2YMv_pad-69" x="4925" y="69000"/><use xlink:href="#jaSDMR-r2YMv_pad-69" x="4925" y="76000"/><use xlink:href="#jaSDMR-r2YMv_pad-69" x="140075" y="76000"/><use xlink:href="#jaSDMR-r2YMv_pad-69" x="140075" y="69000"/><use xlink:href="#jaSDMR-r2YMv_pad-69" x="140075" y="101000"/><use xlink:href="#jaSDMR-r2YMv_pad-69" x="140075" y="94000"/><use xlink:href="#jaSDMR-r2YMv_pad-70" x="124607" y="142095.99"/><use xlink:href="#jaSDMR-r2YMv_pad-70" x="124607" y="138595.99"/><use xlink:href="#jaSDMR-r2YMv_pad-71" x="76944" y="114534.12"/><use xlink:href="#jaSDMR-r2YMv_pad-71" x="75136" y="117017"/><use xlink:href="#jaSDMR-r2YMv_pad-71" x="76989" y="117144"/><use xlink:href="#jaSDMR-r2YMv_pad-71" x="75175.82" y="115001"/><use xlink:href="#jaSDMR-r2YMv_pad-71" x="79254" y="130217"/><use xlink:href="#jaSDMR-r2YMv_pad-71" x="90995" y="100412"/><use xlink:href="#jaSDMR-r2YMv_pad-71" x="68436" y="118378"/><use xlink:href="#jaSDMR-r2YMv_pad-71" x="67108" y="118340"/><use xlink:href="#jaSDMR-r2YMv_pad-71" x="67092" y="114974"/><use xlink:href="#jaSDMR-r2YMv_pad-71" x="68357" y="114974"/><use xlink:href="#jaSDMR-r2YMv_pad-71" x="40611" y="32222"/><use xlink:href="#jaSDMR-r2YMv_pad-71" x="32962" y="40586"/><use xlink:href="#jaSDMR-r2YMv_pad-71" x="25423" y="53363"/><use xlink:href="#jaSDMR-r2YMv_pad-71" x="13915" y="67998"/><use xlink:href="#jaSDMR-r2YMv_pad-71" x="22296" y="75670"/><use xlink:href="#jaSDMR-r2YMv_pad-71" x="17222" y="101572"/><use xlink:href="#jaSDMR-r2YMv_pad-71" x="26145" y="92794"/><use xlink:href="#jaSDMR-r2YMv_pad-71" x="39411" y="104386"/><use xlink:href="#jaSDMR-r2YMv_pad-71" x="30870" y="111577"/><use xlink:href="#jaSDMR-r2YMv_pad-71" x="67137" y="111571"/><use xlink:href="#jaSDMR-r2YMv_pad-71" x="75661" y="104402"/><use xlink:href="#jaSDMR-r2YMv_pad-71" x="103222" y="111572"/><use xlink:href="#jaSDMR-r2YMv_pad-71" x="111911" y="104668"/><use xlink:href="#jaSDMR-r2YMv_pad-71" x="127874" y="101503"/><use xlink:href="#jaSDMR-r2YMv_pad-71" x="69212" y="40798"/><use xlink:href="#jaSDMR-r2YMv_pad-71" x="77961" y="33700"/><use xlink:href="#jaSDMR-r2YMv_pad-71" x="127633" y="43689"/><use xlink:href="#jaSDMR-r2YMv_pad-71" x="114127" y="33732"/><use xlink:href="#jaSDMR-r2YMv_pad-71" x="111830" y="40830"/><use xlink:href="#jaSDMR-r2YMv_pad-71" x="105471" y="40734"/><use xlink:href="#jaSDMR-r2YMv_pad-71" x="9281" y="74133"/><use xlink:href="#jaSDMR-r2YMv_pad-71" x="13664" y="72103"/><use xlink:href="#jaSDMR-r2YMv_pad-71" x="13676" y="72909"/><use xlink:href="#jaSDMR-r2YMv_pad-71" x="13294.56" y="74139.65"/><use xlink:href="#jaSDMR-r2YMv_pad-71" x="9601" y="72113"/><use xlink:href="#jaSDMR-r2YMv_pad-71" x="9281" y="72926"/><use xlink:href="#jaSDMR-r2YMv_pad-71" x="76343" y="30511"/><use xlink:href="#jaSDMR-r2YMv_pad-71" x="74992" y="30287"/><use xlink:href="#jaSDMR-r2YMv_pad-71" x="75017" y="28541"/><use xlink:href="#jaSDMR-r2YMv_pad-71" x="76338" y="28526.3"/><use xlink:href="#jaSDMR-r2YMv_pad-71" x="66365" y="30362"/><use xlink:href="#jaSDMR-r2YMv_pad-71" x="66414" y="28541"/><use xlink:href="#jaSDMR-r2YMv_pad-71" x="67942.7" y="28583.3"/><use xlink:href="#jaSDMR-r2YMv_pad-71" x="67985" y="30387"/><use xlink:href="#jaSDMR-r2YMv_pad-71" x="74738.46" y="101688.46"/><use xlink:href="#jaSDMR-r2YMv_pad-71" x="74609" y="99374"/><use xlink:href="#jaSDMR-r2YMv_pad-71" x="75701" y="101351"/><use xlink:href="#jaSDMR-r2YMv_pad-71" x="75742.5" y="98531.5"/><use xlink:href="#jaSDMR-r2YMv_pad-71" x="69174" y="98464"/><use xlink:href="#jaSDMR-r2YMv_pad-71" x="69200" y="100961"/><use xlink:href="#jaSDMR-r2YMv_pad-71" x="67770" y="100831"/><use xlink:href="#jaSDMR-r2YMv_pad-71" x="67770" y="98464"/><use xlink:href="#jaSDMR-r2YMv_pad-71" x="24266" y="74589"/><use xlink:href="#jaSDMR-r2YMv_pad-71" x="26311" y="74577"/><use xlink:href="#jaSDMR-r2YMv_pad-72" x="76386" y="47652"/><use xlink:href="#jaSDMR-r2YMv_pad-72" x="77546" y="47652"/><use xlink:href="#jaSDMR-r2YMv_pad-72" x="76301" y="50688"/><use xlink:href="#jaSDMR-r2YMv_pad-72" x="67504" y="50836"/><use xlink:href="#jaSDMR-r2YMv_pad-72" x="77516" y="50699"/><use xlink:href="#jaSDMR-r2YMv_pad-72" x="68938" y="50899"/><use xlink:href="#jaSDMR-r2YMv_pad-72" x="93521" y="86957"/><use xlink:href="#jaSDMR-r2YMv_pad-72" x="56612" y="86895"/><use xlink:href="#jaSDMR-r2YMv_pad-72" x="69003" y="47637"/><use xlink:href="#jaSDMR-r2YMv_pad-72" x="67663" y="47668"/><use xlink:href="#jaSDMR-r2YMv_pad-72" x="56613" y="12931"/><use xlink:href="#jaSDMR-r2YMv_pad-72" x="93486" y="12829"/><use xlink:href="#jaSDMR-r2YMv_pad-72" x="141438" y="72908"/><use xlink:href="#jaSDMR-r2YMv_pad-72" x="134169.01" y="72990"/><use xlink:href="#jaSDMR-r2YMv_pad-72" x="134169.01" y="74288"/><use xlink:href="#jaSDMR-r2YMv_pad-72" x="139621" y="72966"/><use xlink:href="#jaSDMR-r2YMv_pad-72" x="134216" y="71715"/><use xlink:href="#jaSDMR-r2YMv_pad-72" x="139598.01" y="71597"/><use xlink:href="#jaSDMR-r2YMv_pad-72" x="134200" y="12307"/><use xlink:href="#jaSDMR-r2YMv_pad-72" x="134024" y="48409"/><use xlink:href="#jaSDMR-r2YMv_pad-72" x="138733" y="48300"/><use xlink:href="#jaSDMR-r2YMv_pad-72" x="138541" y="12215"/><use xlink:href="#jaSDMR-r2YMv_pad-72" x="142134" y="107580"/><use xlink:href="#jaSDMR-r2YMv_pad-72" x="142194" y="110667"/><use xlink:href="#jaSDMR-r2YMv_pad-72" x="137225.01" y="110662"/><use xlink:href="#jaSDMR-r2YMv_pad-72" x="137218.99" y="107585"/></g></svg>