<svg version="1.1" xmlns="http://www.w3.org/2000/svg" xmlns:xlink="http://www.w3.org/1999/xlink" stroke-linecap="round" stroke-linejoin="round" stroke-width="0" fill-rule="evenodd" width="143.32679000000002mm" height="141.584mm" viewBox="-2025.0 -1691.4500000000116 149050.0 146788.15"><defs><rect x="-500" y="-450" width="1000" height="900" id="BCZSOGtu8PcW_pad-10"/><g id="BCZSOGtu8PcW_pad-11"><polygon points="575.5,-275 575.5,275 -575.5,275 -575.5,-275"/><polygon points="625,-225.5 625,225.5 -625,225.5 -625,-225.5"/><circle cx="575.5" cy="225.5" r="49.5"/><circle cx="575.5" cy="-225.5" r="49.5"/><circle cx="-575.5" cy="-225.5" r="49.5"/><circle cx="-575.5" cy="225.5" r="49.5"/></g><rect x="-450" y="-400" width="900" height="800" id="BCZSOGtu8PcW_pad-12"/><rect x="-400" y="-450" width="800" height="900" id="BCZSOGtu8PcW_pad-13"/><rect x="-600" y="-500" width="1200" height="1000" id="BCZSOGtu8PcW_pad-14"/><rect x="-225" y="-450" width="450" height="900" id="BCZSOGtu8PcW_pad-15"/><rect x="-500" y="-600" width="1000" height="1200" id="BCZSOGtu8PcW_pad-16"/><rect x="-400" y="-875" width="800" height="1750" id="BCZSOGtu8PcW_pad-17"/><rect x="-350" y="-875" width="700" height="1750" id="BCZSOGtu8PcW_pad-18"/><rect x="-850" y="-1250" width="1700" height="2500" id="BCZSOGtu8PcW_pad-19"/><rect x="-450" y="-500" width="900" height="1000" id="BCZSOGtu8PcW_pad-20"/><rect x="-450" y="-225" width="900" height="450" id="BCZSOGtu8PcW_pad-21"/><rect x="-875" y="-400" width="1750" height="800" id="BCZSOGtu8PcW_pad-22"/><rect x="-875" y="-350" width="1750" height="700" id="BCZSOGtu8PcW_pad-23"/><circle cx="0" cy="0" r="800" id="BCZSOGtu8PcW_pad-29"/><circle cx="0" cy="0" r="754" id="BCZSOGtu8PcW_pad-30"/><g id="BCZSOGtu8PcW_pad-31"><rect x="-1200" y="-1300" width="2400" height="2600"/><rect x="0" y="-2500" width="0" height="5000"/><circle cx="0" cy="-1300" r="1200"/><circle cx="0" cy="-1300" r="1200"/><circle cx="0" cy="1300" r="1200"/><circle cx="0" cy="1300" r="1200"/></g><rect x="-775" y="-775" width="1550" height="1550" id="BCZSOGtu8PcW_pad-32"/><circle cx="0" cy="0" r="775" id="BCZSOGtu8PcW_pad-33"/><rect x="-775" y="-775" width="1550" height="1550" id="BCZSOGtu8PcW_pad-34"/><circle cx="0" cy="0" r="1150" id="BCZSOGtu8PcW_pad-35"/><rect x="-600" y="-600" width="1200" height="1200" id="BCZSOGtu8PcW_pad-36"/><circle cx="0" cy="0" r="600" id="BCZSOGtu8PcW_pad-37"/><circle cx="0" cy="0" r="300" id="BCZSOGtu8PcW_pad-38"/><circle cx="0" cy="0" r="450" id="BCZSOGtu8PcW_pad-39"/></defs><g transform="translate(0,145084) scale(1,-1)" fill="currentColor" stroke="currentColor"><use xlink:href="#BCZSOGtu8PcW_pad-10" x="119738" y="20722"/><use xlink:href="#BCZSOGtu8PcW_pad-10" x="119738" y="19372"/><use xlink:href="#BCZSOGtu8PcW_pad-10" x="135384.99" y="111925"/><use xlink:href="#BCZSOGtu8PcW_pad-10" x="135384.99" y="113275"/><use xlink:href="#BCZSOGtu8PcW_pad-10" x="26138" y="94045"/><use xlink:href="#BCZSOGtu8PcW_pad-10" x="26138" y="95395"/><use xlink:href="#BCZSOGtu8PcW_pad-10" x="62963" y="88764"/><use xlink:href="#BCZSOGtu8PcW_pad-10" x="62963" y="87414"/><use xlink:href="#BCZSOGtu8PcW_pad-10" x="30411" y="129940"/><use xlink:href="#BCZSOGtu8PcW_pad-10" x="30411" y="131289.99"/><use xlink:href="#BCZSOGtu8PcW_pad-10" x="63313" y="133935"/><use xlink:href="#BCZSOGtu8PcW_pad-10" x="63313" y="132585.01"/><use xlink:href="#BCZSOGtu8PcW_pad-10" x="23325" y="75661"/><use xlink:href="#BCZSOGtu8PcW_pad-10" x="23325" y="77011"/><use xlink:href="#BCZSOGtu8PcW_pad-10" x="81943" y="92724"/><use xlink:href="#BCZSOGtu8PcW_pad-10" x="81943" y="94074"/><use xlink:href="#BCZSOGtu8PcW_pad-10" x="80507" y="131151"/><use xlink:href="#BCZSOGtu8PcW_pad-10" x="80507" y="132501.01"/><use xlink:href="#BCZSOGtu8PcW_pad-10" x="118885" y="94106"/><use xlink:href="#BCZSOGtu8PcW_pad-10" x="118885" y="95456"/><use xlink:href="#BCZSOGtu8PcW_pad-10" x="80515" y="125680"/><use xlink:href="#BCZSOGtu8PcW_pad-10" x="80515" y="124330"/><use xlink:href="#BCZSOGtu8PcW_pad-10" x="25499" y="20186"/><use xlink:href="#BCZSOGtu8PcW_pad-10" x="25499" y="18836"/><use xlink:href="#BCZSOGtu8PcW_pad-10" x="62454" y="21497"/><use xlink:href="#BCZSOGtu8PcW_pad-10" x="62454" y="20147"/><use xlink:href="#BCZSOGtu8PcW_pad-10" x="82670" y="21750"/><use xlink:href="#BCZSOGtu8PcW_pad-10" x="82670" y="20400"/><use xlink:href="#BCZSOGtu8PcW_pad-10" x="25457" y="50858"/><use xlink:href="#BCZSOGtu8PcW_pad-10" x="25457" y="52208"/><use xlink:href="#BCZSOGtu8PcW_pad-10" x="62750" y="57220"/><use xlink:href="#BCZSOGtu8PcW_pad-10" x="62750" y="55870"/><use xlink:href="#BCZSOGtu8PcW_pad-10" x="82673" y="57020"/><use xlink:href="#BCZSOGtu8PcW_pad-10" x="82673" y="55670"/><use xlink:href="#BCZSOGtu8PcW_pad-10" x="119391" y="50706"/><use xlink:href="#BCZSOGtu8PcW_pad-10" x="119391" y="52056"/><use xlink:href="#BCZSOGtu8PcW_pad-10" x="8557" y="70700"/><use xlink:href="#BCZSOGtu8PcW_pad-10" x="8557" y="69350"/><use xlink:href="#BCZSOGtu8PcW_pad-11" x="133526.99" y="105738"/><use xlink:href="#BCZSOGtu8PcW_pad-11" x="133526.99" y="107008"/><use xlink:href="#BCZSOGtu8PcW_pad-11" x="133526.99" y="108278"/><use xlink:href="#BCZSOGtu8PcW_pad-11" x="133526.99" y="109548"/><use xlink:href="#BCZSOGtu8PcW_pad-11" x="133526.99" y="110818"/><use xlink:href="#BCZSOGtu8PcW_pad-11" x="133526.99" y="112088"/><use xlink:href="#BCZSOGtu8PcW_pad-11" x="133526.99" y="113358"/><use xlink:href="#BCZSOGtu8PcW_pad-11" x="128276.99" y="105738"/><use xlink:href="#BCZSOGtu8PcW_pad-11" x="128276.99" y="107008"/><use xlink:href="#BCZSOGtu8PcW_pad-11" x="128276.99" y="108278"/><use xlink:href="#BCZSOGtu8PcW_pad-11" x="128276.99" y="109548"/><use xlink:href="#BCZSOGtu8PcW_pad-11" x="128276.99" y="110818"/><use xlink:href="#BCZSOGtu8PcW_pad-11" x="128276.99" y="112088"/><use xlink:href="#BCZSOGtu8PcW_pad-11" x="128276.99" y="113358"/><use xlink:href="#BCZSOGtu8PcW_pad-12" x="135524.99" y="109563"/><use xlink:href="#BCZSOGtu8PcW_pad-12" x="137225.01" y="109563"/><use xlink:href="#BCZSOGtu8PcW_pad-12" x="135522" y="106522"/><use xlink:href="#BCZSOGtu8PcW_pad-12" x="137222" y="106522"/><use xlink:href="#BCZSOGtu8PcW_pad-12" x="126442" y="106987"/><use xlink:href="#BCZSOGtu8PcW_pad-12" x="124742" y="106987"/><use xlink:href="#BCZSOGtu8PcW_pad-13" x="132362" y="115366"/><use xlink:href="#BCZSOGtu8PcW_pad-13" x="132362" y="117066"/><use xlink:href="#BCZSOGtu8PcW_pad-13" x="113113" y="115826"/><use xlink:href="#BCZSOGtu8PcW_pad-13" x="113113" y="114126"/><use xlink:href="#BCZSOGtu8PcW_pad-13" x="111878" y="115824"/><use xlink:href="#BCZSOGtu8PcW_pad-13" x="111878" y="114124"/><use xlink:href="#BCZSOGtu8PcW_pad-14" x="137854" y="118194"/><use xlink:href="#BCZSOGtu8PcW_pad-14" x="137854" y="116194"/><use xlink:href="#BCZSOGtu8PcW_pad-15" x="36523.01" y="43604"/><use xlink:href="#BCZSOGtu8PcW_pad-15" x="37323" y="43604"/><use xlink:href="#BCZSOGtu8PcW_pad-15" x="34923.01" y="43604"/><use xlink:href="#BCZSOGtu8PcW_pad-15" x="35723.01" y="43604"/><use xlink:href="#BCZSOGtu8PcW_pad-15" x="35723.01" y="41904"/><use xlink:href="#BCZSOGtu8PcW_pad-15" x="34923.01" y="41904"/><use xlink:href="#BCZSOGtu8PcW_pad-15" x="37323" y="41904"/><use xlink:href="#BCZSOGtu8PcW_pad-15" x="36523.01" y="41904"/><use xlink:href="#BCZSOGtu8PcW_pad-15" x="72900" y="114150"/><use xlink:href="#BCZSOGtu8PcW_pad-15" x="73700" y="114150"/><use xlink:href="#BCZSOGtu8PcW_pad-15" x="71300.01" y="114150"/><use xlink:href="#BCZSOGtu8PcW_pad-15" x="72100.01" y="114150"/><use xlink:href="#BCZSOGtu8PcW_pad-15" x="72100.01" y="115850"/><use xlink:href="#BCZSOGtu8PcW_pad-15" x="71300.01" y="115850"/><use xlink:href="#BCZSOGtu8PcW_pad-15" x="73700" y="115850"/><use xlink:href="#BCZSOGtu8PcW_pad-15" x="72900" y="115850"/><use xlink:href="#BCZSOGtu8PcW_pad-15" x="109150.01" y="114150"/><use xlink:href="#BCZSOGtu8PcW_pad-15" x="109950" y="114150"/><use xlink:href="#BCZSOGtu8PcW_pad-15" x="107550.01" y="114150"/><use xlink:href="#BCZSOGtu8PcW_pad-15" x="108350.01" y="114150"/><use xlink:href="#BCZSOGtu8PcW_pad-15" x="108350.01" y="115850"/><use xlink:href="#BCZSOGtu8PcW_pad-15" x="107550.01" y="115850"/><use xlink:href="#BCZSOGtu8PcW_pad-15" x="109950" y="115850"/><use xlink:href="#BCZSOGtu8PcW_pad-15" x="109150.01" y="115850"/><use xlink:href="#BCZSOGtu8PcW_pad-15" x="36650.01" y="114150"/><use xlink:href="#BCZSOGtu8PcW_pad-15" x="37450" y="114150"/><use xlink:href="#BCZSOGtu8PcW_pad-15" x="35050.01" y="114150"/><use xlink:href="#BCZSOGtu8PcW_pad-15" x="35850.01" y="114150"/><use xlink:href="#BCZSOGtu8PcW_pad-15" x="35850.01" y="115850"/><use xlink:href="#BCZSOGtu8PcW_pad-15" x="35050.01" y="115850"/><use xlink:href="#BCZSOGtu8PcW_pad-15" x="37450" y="115850"/><use xlink:href="#BCZSOGtu8PcW_pad-15" x="36650.01" y="115850"/><use xlink:href="#BCZSOGtu8PcW_pad-15" x="72100" y="103350"/><use xlink:href="#BCZSOGtu8PcW_pad-15" x="71300" y="103350"/><use xlink:href="#BCZSOGtu8PcW_pad-15" x="73699.99" y="103350"/><use xlink:href="#BCZSOGtu8PcW_pad-15" x="72899.99" y="103350"/><use xlink:href="#BCZSOGtu8PcW_pad-15" x="72899.99" y="101650"/><use xlink:href="#BCZSOGtu8PcW_pad-15" x="73699.99" y="101650"/><use xlink:href="#BCZSOGtu8PcW_pad-15" x="71300" y="101650"/><use xlink:href="#BCZSOGtu8PcW_pad-15" x="72100" y="101650"/><use xlink:href="#BCZSOGtu8PcW_pad-15" x="108350" y="103350"/><use xlink:href="#BCZSOGtu8PcW_pad-15" x="107550" y="103350"/><use xlink:href="#BCZSOGtu8PcW_pad-15" x="109949.99" y="103350"/><use xlink:href="#BCZSOGtu8PcW_pad-15" x="109150" y="103350"/><use xlink:href="#BCZSOGtu8PcW_pad-15" x="109150" y="101650"/><use xlink:href="#BCZSOGtu8PcW_pad-15" x="109949.99" y="101650"/><use xlink:href="#BCZSOGtu8PcW_pad-15" x="107550" y="101650"/><use xlink:href="#BCZSOGtu8PcW_pad-15" x="108350" y="101650"/><use xlink:href="#BCZSOGtu8PcW_pad-15" x="35850" y="103350"/><use xlink:href="#BCZSOGtu8PcW_pad-15" x="35050" y="103350"/><use xlink:href="#BCZSOGtu8PcW_pad-15" x="37449.99" y="103350"/><use xlink:href="#BCZSOGtu8PcW_pad-15" x="36650" y="103350"/><use xlink:href="#BCZSOGtu8PcW_pad-15" x="36650" y="101650"/><use xlink:href="#BCZSOGtu8PcW_pad-15" x="37449.99" y="101650"/><use xlink:href="#BCZSOGtu8PcW_pad-15" x="35050" y="101650"/><use xlink:href="#BCZSOGtu8PcW_pad-15" x="35850" y="101650"/><use xlink:href="#BCZSOGtu8PcW_pad-15" x="71973" y="29404"/><use xlink:href="#BCZSOGtu8PcW_pad-15" x="71173" y="29404"/><use xlink:href="#BCZSOGtu8PcW_pad-15" x="73572.99" y="29404"/><use xlink:href="#BCZSOGtu8PcW_pad-15" x="72772.99" y="29404"/><use xlink:href="#BCZSOGtu8PcW_pad-15" x="72772.99" y="31104"/><use xlink:href="#BCZSOGtu8PcW_pad-15" x="73572.99" y="31104"/><use xlink:href="#BCZSOGtu8PcW_pad-15" x="71173" y="31104"/><use xlink:href="#BCZSOGtu8PcW_pad-15" x="71973" y="31104"/><use xlink:href="#BCZSOGtu8PcW_pad-15" x="108223" y="29404"/><use xlink:href="#BCZSOGtu8PcW_pad-15" x="107423" y="29404"/><use xlink:href="#BCZSOGtu8PcW_pad-15" x="109822.99" y="29404"/><use xlink:href="#BCZSOGtu8PcW_pad-15" x="109023" y="29404"/><use xlink:href="#BCZSOGtu8PcW_pad-15" x="109023" y="31104"/><use xlink:href="#BCZSOGtu8PcW_pad-15" x="109822.99" y="31104"/><use xlink:href="#BCZSOGtu8PcW_pad-15" x="107423" y="31104"/><use xlink:href="#BCZSOGtu8PcW_pad-15" x="108223" y="31104"/><use xlink:href="#BCZSOGtu8PcW_pad-15" x="35723" y="29404"/><use xlink:href="#BCZSOGtu8PcW_pad-15" x="34923" y="29404"/><use xlink:href="#BCZSOGtu8PcW_pad-15" x="37322.99" y="29404"/><use xlink:href="#BCZSOGtu8PcW_pad-15" x="36523" y="29404"/><use xlink:href="#BCZSOGtu8PcW_pad-15" x="36523" y="31104"/><use xlink:href="#BCZSOGtu8PcW_pad-15" x="37322.99" y="31104"/><use xlink:href="#BCZSOGtu8PcW_pad-15" x="34923" y="31104"/><use xlink:href="#BCZSOGtu8PcW_pad-15" x="35723" y="31104"/><use xlink:href="#BCZSOGtu8PcW_pad-15" x="72773" y="43604"/><use xlink:href="#BCZSOGtu8PcW_pad-15" x="73573" y="43604"/><use xlink:href="#BCZSOGtu8PcW_pad-15" x="71173.01" y="43604"/><use xlink:href="#BCZSOGtu8PcW_pad-15" x="71973.01" y="43604"/><use xlink:href="#BCZSOGtu8PcW_pad-15" x="71973.01" y="41904"/><use xlink:href="#BCZSOGtu8PcW_pad-15" x="71173.01" y="41904"/><use xlink:href="#BCZSOGtu8PcW_pad-15" x="73573" y="41904"/><use xlink:href="#BCZSOGtu8PcW_pad-15" x="72773" y="41904"/><use xlink:href="#BCZSOGtu8PcW_pad-15" x="109023.01" y="43604"/><use xlink:href="#BCZSOGtu8PcW_pad-15" x="109823" y="43604"/><use xlink:href="#BCZSOGtu8PcW_pad-15" x="107423.01" y="43604"/><use xlink:href="#BCZSOGtu8PcW_pad-15" x="108223.01" y="43604"/><use xlink:href="#BCZSOGtu8PcW_pad-15" x="108223.01" y="41904"/><use xlink:href="#BCZSOGtu8PcW_pad-15" x="107423.01" y="41904"/><use xlink:href="#BCZSOGtu8PcW_pad-15" x="109823" y="41904"/><use xlink:href="#BCZSOGtu8PcW_pad-15" x="109023.01" y="41904"/><use xlink:href="#BCZSOGtu8PcW_pad-16" x="116017.05" y="64403"/><use xlink:href="#BCZSOGtu8PcW_pad-16" x="118017.05" y="64403"/><use xlink:href="#BCZSOGtu8PcW_pad-16" x="27075.95" y="80808"/><use xlink:href="#BCZSOGtu8PcW_pad-16" x="29075.95" y="80808"/><use xlink:href="#BCZSOGtu8PcW_pad-16" x="44319" y="80814"/><use xlink:href="#BCZSOGtu8PcW_pad-16" x="42319" y="80814"/><use xlink:href="#BCZSOGtu8PcW_pad-16" x="27051" y="138419.01"/><use xlink:href="#BCZSOGtu8PcW_pad-16" x="29051" y="138419.01"/><use xlink:href="#BCZSOGtu8PcW_pad-16" x="44169.05" y="138505"/><use xlink:href="#BCZSOGtu8PcW_pad-16" x="42169.05" y="138505"/><use xlink:href="#BCZSOGtu8PcW_pad-16" x="100923.95" y="80808"/><use xlink:href="#BCZSOGtu8PcW_pad-16" x="102923.95" y="80808"/><use xlink:href="#BCZSOGtu8PcW_pad-16" x="81293" y="138750"/><use xlink:href="#BCZSOGtu8PcW_pad-16" x="79293" y="138750"/><use xlink:href="#BCZSOGtu8PcW_pad-16" x="118167" y="80814"/><use xlink:href="#BCZSOGtu8PcW_pad-16" x="116167" y="80814"/><use xlink:href="#BCZSOGtu8PcW_pad-16" x="29075.95" y="6706"/><use xlink:href="#BCZSOGtu8PcW_pad-16" x="27075.95" y="6706"/><use xlink:href="#BCZSOGtu8PcW_pad-16" x="42319" y="6712"/><use xlink:href="#BCZSOGtu8PcW_pad-16" x="44319" y="6712"/><use xlink:href="#BCZSOGtu8PcW_pad-16" x="102923.95" y="6706"/><use xlink:href="#BCZSOGtu8PcW_pad-16" x="100923.95" y="6706"/><use xlink:href="#BCZSOGtu8PcW_pad-16" x="116167" y="6712"/><use xlink:href="#BCZSOGtu8PcW_pad-16" x="118167" y="6712"/><use xlink:href="#BCZSOGtu8PcW_pad-16" x="29051" y="64317"/><use xlink:href="#BCZSOGtu8PcW_pad-16" x="27051" y="64317"/><use xlink:href="#BCZSOGtu8PcW_pad-16" x="42169.05" y="64403"/><use xlink:href="#BCZSOGtu8PcW_pad-16" x="44169.05" y="64403"/><use xlink:href="#BCZSOGtu8PcW_pad-16" x="102899" y="64317"/><use xlink:href="#BCZSOGtu8PcW_pad-16" x="100899" y="64317"/><use xlink:href="#BCZSOGtu8PcW_pad-17" x="31628" y="33679"/><use xlink:href="#BCZSOGtu8PcW_pad-17" x="40618" y="33679"/><use xlink:href="#BCZSOGtu8PcW_pad-17" x="40618" y="39329"/><use xlink:href="#BCZSOGtu8PcW_pad-17" x="31628" y="39329"/><use xlink:href="#BCZSOGtu8PcW_pad-17" x="76995" y="105925"/><use xlink:href="#BCZSOGtu8PcW_pad-17" x="68005" y="105925"/><use xlink:href="#BCZSOGtu8PcW_pad-17" x="68005" y="111575"/><use xlink:href="#BCZSOGtu8PcW_pad-17" x="76995" y="111575"/><use xlink:href="#BCZSOGtu8PcW_pad-17" x="113245" y="105925"/><use xlink:href="#BCZSOGtu8PcW_pad-17" x="104255" y="105925"/><use xlink:href="#BCZSOGtu8PcW_pad-17" x="104255" y="111575"/><use xlink:href="#BCZSOGtu8PcW_pad-17" x="113245" y="111575"/><use xlink:href="#BCZSOGtu8PcW_pad-17" x="40745" y="105925"/><use xlink:href="#BCZSOGtu8PcW_pad-17" x="31755" y="105925"/><use xlink:href="#BCZSOGtu8PcW_pad-17" x="31755" y="111575"/><use xlink:href="#BCZSOGtu8PcW_pad-17" x="40745" y="111575"/><use xlink:href="#BCZSOGtu8PcW_pad-17" x="67878" y="33679"/><use xlink:href="#BCZSOGtu8PcW_pad-17" x="76868" y="33679"/><use xlink:href="#BCZSOGtu8PcW_pad-17" x="76868" y="39329"/><use xlink:href="#BCZSOGtu8PcW_pad-17" x="67878" y="39329"/><use xlink:href="#BCZSOGtu8PcW_pad-17" x="104128" y="33679"/><use xlink:href="#BCZSOGtu8PcW_pad-17" x="113118" y="33679"/><use xlink:href="#BCZSOGtu8PcW_pad-17" x="113118" y="39329"/><use xlink:href="#BCZSOGtu8PcW_pad-17" x="104128" y="39329"/><use xlink:href="#BCZSOGtu8PcW_pad-18" x="32948" y="33679"/><use xlink:href="#BCZSOGtu8PcW_pad-18" x="34218" y="33679"/><use xlink:href="#BCZSOGtu8PcW_pad-18" x="35488" y="33679"/><use xlink:href="#BCZSOGtu8PcW_pad-18" x="36758" y="33679"/><use xlink:href="#BCZSOGtu8PcW_pad-18" x="38028" y="33679"/><use xlink:href="#BCZSOGtu8PcW_pad-18" x="39298" y="33679"/><use xlink:href="#BCZSOGtu8PcW_pad-18" x="39298" y="39329"/><use xlink:href="#BCZSOGtu8PcW_pad-18" x="38028" y="39329"/><use xlink:href="#BCZSOGtu8PcW_pad-18" x="36758" y="39329"/><use xlink:href="#BCZSOGtu8PcW_pad-18" x="35488" y="39329"/><use xlink:href="#BCZSOGtu8PcW_pad-18" x="34218" y="39329"/><use xlink:href="#BCZSOGtu8PcW_pad-18" x="32948" y="39329"/><use xlink:href="#BCZSOGtu8PcW_pad-18" x="75675" y="105925"/><use xlink:href="#BCZSOGtu8PcW_pad-18" x="74405" y="105925"/><use xlink:href="#BCZSOGtu8PcW_pad-18" x="73135" y="105925"/><use xlink:href="#BCZSOGtu8PcW_pad-18" x="71865" y="105925"/><use xlink:href="#BCZSOGtu8PcW_pad-18" x="70595" y="105925"/><use xlink:href="#BCZSOGtu8PcW_pad-18" x="69325" y="105925"/><use xlink:href="#BCZSOGtu8PcW_pad-18" x="69325" y="111575"/><use xlink:href="#BCZSOGtu8PcW_pad-18" x="70595" y="111575"/><use xlink:href="#BCZSOGtu8PcW_pad-18" x="71865" y="111575"/><use xlink:href="#BCZSOGtu8PcW_pad-18" x="73135" y="111575"/><use xlink:href="#BCZSOGtu8PcW_pad-18" x="74405" y="111575"/><use xlink:href="#BCZSOGtu8PcW_pad-18" x="75675" y="111575"/><use xlink:href="#BCZSOGtu8PcW_pad-18" x="111925" y="105925"/><use xlink:href="#BCZSOGtu8PcW_pad-18" x="110655" y="105925"/><use xlink:href="#BCZSOGtu8PcW_pad-18" x="109385" y="105925"/><use xlink:href="#BCZSOGtu8PcW_pad-18" x="108115" y="105925"/><use xlink:href="#BCZSOGtu8PcW_pad-18" x="106845" y="105925"/><use xlink:href="#BCZSOGtu8PcW_pad-18" x="105575" y="105925"/><use xlink:href="#BCZSOGtu8PcW_pad-18" x="105575" y="111575"/><use xlink:href="#BCZSOGtu8PcW_pad-18" x="106845" y="111575"/><use xlink:href="#BCZSOGtu8PcW_pad-18" x="108115" y="111575"/><use xlink:href="#BCZSOGtu8PcW_pad-18" x="109385" y="111575"/><use xlink:href="#BCZSOGtu8PcW_pad-18" x="110655" y="111575"/><use xlink:href="#BCZSOGtu8PcW_pad-18" x="111925" y="111575"/><use xlink:href="#BCZSOGtu8PcW_pad-18" x="39425" y="105925"/><use xlink:href="#BCZSOGtu8PcW_pad-18" x="38155" y="105925"/><use xlink:href="#BCZSOGtu8PcW_pad-18" x="36885" y="105925"/><use xlink:href="#BCZSOGtu8PcW_pad-18" x="35615" y="105925"/><use xlink:href="#BCZSOGtu8PcW_pad-18" x="34345" y="105925"/><use xlink:href="#BCZSOGtu8PcW_pad-18" x="33075" y="105925"/><use xlink:href="#BCZSOGtu8PcW_pad-18" x="33075" y="111575"/><use xlink:href="#BCZSOGtu8PcW_pad-18" x="34345" y="111575"/><use xlink:href="#BCZSOGtu8PcW_pad-18" x="35615" y="111575"/><use xlink:href="#BCZSOGtu8PcW_pad-18" x="36885" y="111575"/><use xlink:href="#BCZSOGtu8PcW_pad-18" x="38155" y="111575"/><use xlink:href="#BCZSOGtu8PcW_pad-18" x="39425" y="111575"/><use xlink:href="#BCZSOGtu8PcW_pad-18" x="69198" y="33679"/><use xlink:href="#BCZSOGtu8PcW_pad-18" x="70468" y="33679"/><use xlink:href="#BCZSOGtu8PcW_pad-18" x="71738" y="33679"/><use xlink:href="#BCZSOGtu8PcW_pad-18" x="73008" y="33679"/><use xlink:href="#BCZSOGtu8PcW_pad-18" x="74278" y="33679"/><use xlink:href="#BCZSOGtu8PcW_pad-18" x="75548" y="33679"/><use xlink:href="#BCZSOGtu8PcW_pad-18" x="75548" y="39329"/><use xlink:href="#BCZSOGtu8PcW_pad-18" x="74278" y="39329"/><use xlink:href="#BCZSOGtu8PcW_pad-18" x="73008" y="39329"/><use xlink:href="#BCZSOGtu8PcW_pad-18" x="71738" y="39329"/><use xlink:href="#BCZSOGtu8PcW_pad-18" x="70468" y="39329"/><use xlink:href="#BCZSOGtu8PcW_pad-18" x="69198" y="39329"/><use xlink:href="#BCZSOGtu8PcW_pad-18" x="105448" y="33679"/><use xlink:href="#BCZSOGtu8PcW_pad-18" x="106718" y="33679"/><use xlink:href="#BCZSOGtu8PcW_pad-18" x="107988" y="33679"/><use xlink:href="#BCZSOGtu8PcW_pad-18" x="109258" y="33679"/><use xlink:href="#BCZSOGtu8PcW_pad-18" x="110528" y="33679"/><use xlink:href="#BCZSOGtu8PcW_pad-18" x="111798" y="33679"/><use xlink:href="#BCZSOGtu8PcW_pad-18" x="111798" y="39329"/><use xlink:href="#BCZSOGtu8PcW_pad-18" x="110528" y="39329"/><use xlink:href="#BCZSOGtu8PcW_pad-18" x="109258" y="39329"/><use xlink:href="#BCZSOGtu8PcW_pad-18" x="107988" y="39329"/><use xlink:href="#BCZSOGtu8PcW_pad-18" x="106718" y="39329"/><use xlink:href="#BCZSOGtu8PcW_pad-18" x="105448" y="39329"/><use xlink:href="#BCZSOGtu8PcW_pad-19" x="120615" y="141947.01"/><use xlink:href="#BCZSOGtu8PcW_pad-19" x="120615" y="137947.01"/><use xlink:href="#BCZSOGtu8PcW_pad-20" x="2443" y="54826"/><use xlink:href="#BCZSOGtu8PcW_pad-20" x="3793" y="54826"/><use xlink:href="#BCZSOGtu8PcW_pad-20" x="19965" y="101498"/><use xlink:href="#BCZSOGtu8PcW_pad-20" x="18615" y="101498"/><use xlink:href="#BCZSOGtu8PcW_pad-20" x="56675" y="101533"/><use xlink:href="#BCZSOGtu8PcW_pad-20" x="55325" y="101533"/><use xlink:href="#BCZSOGtu8PcW_pad-20" x="14712" y="117831"/><use xlink:href="#BCZSOGtu8PcW_pad-20" x="16062" y="117831"/><use xlink:href="#BCZSOGtu8PcW_pad-20" x="51577" y="117831"/><use xlink:href="#BCZSOGtu8PcW_pad-20" x="52927" y="117831"/><use xlink:href="#BCZSOGtu8PcW_pad-20" x="16065.95" y="101509"/><use xlink:href="#BCZSOGtu8PcW_pad-20" x="14715.95" y="101509"/><use xlink:href="#BCZSOGtu8PcW_pad-20" x="52989.95" y="101509"/><use xlink:href="#BCZSOGtu8PcW_pad-20" x="51639.95" y="101509"/><use xlink:href="#BCZSOGtu8PcW_pad-20" x="18255.05" y="117804"/><use xlink:href="#BCZSOGtu8PcW_pad-20" x="19605.05" y="117804"/><use xlink:href="#BCZSOGtu8PcW_pad-20" x="55179.05" y="117804"/><use xlink:href="#BCZSOGtu8PcW_pad-20" x="56529.05" y="117804"/><use xlink:href="#BCZSOGtu8PcW_pad-20" x="92280" y="101586"/><use xlink:href="#BCZSOGtu8PcW_pad-20" x="93630" y="101586"/><use xlink:href="#BCZSOGtu8PcW_pad-20" x="89738.05" y="117804"/><use xlink:href="#BCZSOGtu8PcW_pad-20" x="88388.05" y="117804"/><use xlink:href="#BCZSOGtu8PcW_pad-20" x="129218" y="101498"/><use xlink:href="#BCZSOGtu8PcW_pad-20" x="130567.99" y="101498"/><use xlink:href="#BCZSOGtu8PcW_pad-20" x="126667" y="117809"/><use xlink:href="#BCZSOGtu8PcW_pad-20" x="125317" y="117809"/><use xlink:href="#BCZSOGtu8PcW_pad-20" x="89913.95" y="101509"/><use xlink:href="#BCZSOGtu8PcW_pad-20" x="88563.95" y="101509"/><use xlink:href="#BCZSOGtu8PcW_pad-20" x="92103.05" y="117804"/><use xlink:href="#BCZSOGtu8PcW_pad-20" x="93453.05" y="117804"/><use xlink:href="#BCZSOGtu8PcW_pad-20" x="126837.95" y="101509"/><use xlink:href="#BCZSOGtu8PcW_pad-20" x="125487.95" y="101509"/><use xlink:href="#BCZSOGtu8PcW_pad-20" x="129027.05" y="117804"/><use xlink:href="#BCZSOGtu8PcW_pad-20" x="130377.04" y="117804"/><use xlink:href="#BCZSOGtu8PcW_pad-20" x="75661" y="103425"/><use xlink:href="#BCZSOGtu8PcW_pad-20" x="77011" y="103425"/><use xlink:href="#BCZSOGtu8PcW_pad-20" x="111911" y="103425"/><use xlink:href="#BCZSOGtu8PcW_pad-20" x="113261" y="103425"/><use xlink:href="#BCZSOGtu8PcW_pad-20" x="39411" y="103425"/><use xlink:href="#BCZSOGtu8PcW_pad-20" x="40761" y="103425"/><use xlink:href="#BCZSOGtu8PcW_pad-20" x="19754" y="27447"/><use xlink:href="#BCZSOGtu8PcW_pad-20" x="18404" y="27447"/><use xlink:href="#BCZSOGtu8PcW_pad-20" x="56647" y="27456"/><use xlink:href="#BCZSOGtu8PcW_pad-20" x="55297" y="27456"/><use xlink:href="#BCZSOGtu8PcW_pad-20" x="93537" y="27439"/><use xlink:href="#BCZSOGtu8PcW_pad-20" x="92187" y="27439"/><use xlink:href="#BCZSOGtu8PcW_pad-20" x="130517" y="27421"/><use xlink:href="#BCZSOGtu8PcW_pad-20" x="129167.01" y="27421"/><use xlink:href="#BCZSOGtu8PcW_pad-20" x="14467" y="43704"/><use xlink:href="#BCZSOGtu8PcW_pad-20" x="15817" y="43704"/><use xlink:href="#BCZSOGtu8PcW_pad-20" x="51474" y="43744"/><use xlink:href="#BCZSOGtu8PcW_pad-20" x="52824" y="43744"/><use xlink:href="#BCZSOGtu8PcW_pad-20" x="88574" y="43706"/><use xlink:href="#BCZSOGtu8PcW_pad-20" x="89924" y="43706"/><use xlink:href="#BCZSOGtu8PcW_pad-20" x="125368" y="43744"/><use xlink:href="#BCZSOGtu8PcW_pad-20" x="126718" y="43744"/><use xlink:href="#BCZSOGtu8PcW_pad-20" x="14715.95" y="27407"/><use xlink:href="#BCZSOGtu8PcW_pad-20" x="16065.95" y="27407"/><use xlink:href="#BCZSOGtu8PcW_pad-20" x="51639.95" y="27407"/><use xlink:href="#BCZSOGtu8PcW_pad-20" x="52989.95" y="27407"/><use xlink:href="#BCZSOGtu8PcW_pad-20" x="88563.95" y="27407"/><use xlink:href="#BCZSOGtu8PcW_pad-20" x="89913.95" y="27407"/><use xlink:href="#BCZSOGtu8PcW_pad-20" x="125487.95" y="27407"/><use xlink:href="#BCZSOGtu8PcW_pad-20" x="126837.95" y="27407"/><use xlink:href="#BCZSOGtu8PcW_pad-20" x="19605.05" y="43702"/><use xlink:href="#BCZSOGtu8PcW_pad-20" x="18255.05" y="43702"/><use xlink:href="#BCZSOGtu8PcW_pad-20" x="56529.05" y="43702"/><use xlink:href="#BCZSOGtu8PcW_pad-20" x="55179.05" y="43702"/><use xlink:href="#BCZSOGtu8PcW_pad-20" x="93453.05" y="43702"/><use xlink:href="#BCZSOGtu8PcW_pad-20" x="92103.05" y="43702"/><use xlink:href="#BCZSOGtu8PcW_pad-20" x="130377.04" y="43702"/><use xlink:href="#BCZSOGtu8PcW_pad-20" x="129027.05" y="43702"/><use xlink:href="#BCZSOGtu8PcW_pad-20" x="67862" y="41829"/><use xlink:href="#BCZSOGtu8PcW_pad-20" x="69212" y="41829"/><use xlink:href="#BCZSOGtu8PcW_pad-20" x="104112" y="41829"/><use xlink:href="#BCZSOGtu8PcW_pad-20" x="105462" y="41829"/><use xlink:href="#BCZSOGtu8PcW_pad-20" x="31612" y="41829"/><use xlink:href="#BCZSOGtu8PcW_pad-20" x="32962" y="41829"/><use xlink:href="#BCZSOGtu8PcW_pad-20" x="2392" y="90589"/><use xlink:href="#BCZSOGtu8PcW_pad-20" x="3742" y="90589"/><use xlink:href="#BCZSOGtu8PcW_pad-20" x="142578" y="54177"/><use xlink:href="#BCZSOGtu8PcW_pad-20" x="141228" y="54177"/><use xlink:href="#BCZSOGtu8PcW_pad-20" x="142656.01" y="78182"/><use xlink:href="#BCZSOGtu8PcW_pad-20" x="141306" y="78182"/><use xlink:href="#BCZSOGtu8PcW_pad-20" x="142485.99" y="90103"/><use xlink:href="#BCZSOGtu8PcW_pad-20" x="141136" y="90103"/><use xlink:href="#BCZSOGtu8PcW_pad-21" x="12600" y="72900"/><use xlink:href="#BCZSOGtu8PcW_pad-21" x="12600" y="73700"/><use xlink:href="#BCZSOGtu8PcW_pad-21" x="12600" y="71300.01"/><use xlink:href="#BCZSOGtu8PcW_pad-21" x="12600" y="72100.01"/><use xlink:href="#BCZSOGtu8PcW_pad-21" x="10900" y="72100.01"/><use xlink:href="#BCZSOGtu8PcW_pad-21" x="10900" y="71300.01"/><use xlink:href="#BCZSOGtu8PcW_pad-21" x="10900" y="73700"/><use xlink:href="#BCZSOGtu8PcW_pad-21" x="10900" y="72900"/><use xlink:href="#BCZSOGtu8PcW_pad-21" x="23400" y="72100"/><use xlink:href="#BCZSOGtu8PcW_pad-21" x="23400" y="71300"/><use xlink:href="#BCZSOGtu8PcW_pad-21" x="23400" y="73699.99"/><use xlink:href="#BCZSOGtu8PcW_pad-21" x="23400" y="72899.99"/><use xlink:href="#BCZSOGtu8PcW_pad-21" x="25100" y="72899.99"/><use xlink:href="#BCZSOGtu8PcW_pad-21" x="25100" y="73699.99"/><use xlink:href="#BCZSOGtu8PcW_pad-21" x="25100" y="71300"/><use xlink:href="#BCZSOGtu8PcW_pad-21" x="25100" y="72100"/><use xlink:href="#BCZSOGtu8PcW_pad-22" x="20825" y="76995"/><use xlink:href="#BCZSOGtu8PcW_pad-22" x="20825" y="68005"/><use xlink:href="#BCZSOGtu8PcW_pad-22" x="15175" y="68005"/><use xlink:href="#BCZSOGtu8PcW_pad-22" x="15175" y="76995"/><use xlink:href="#BCZSOGtu8PcW_pad-23" x="20825" y="75675"/><use xlink:href="#BCZSOGtu8PcW_pad-23" x="20825" y="74405"/><use xlink:href="#BCZSOGtu8PcW_pad-23" x="20825" y="73135"/><use xlink:href="#BCZSOGtu8PcW_pad-23" x="20825" y="71865"/><use xlink:href="#BCZSOGtu8PcW_pad-23" x="20825" y="70595"/><use xlink:href="#BCZSOGtu8PcW_pad-23" x="20825" y="69325"/><use xlink:href="#BCZSOGtu8PcW_pad-23" x="15175" y="69325"/><use xlink:href="#BCZSOGtu8PcW_pad-23" x="15175" y="70595"/><use xlink:href="#BCZSOGtu8PcW_pad-23" x="15175" y="71865"/><use xlink:href="#BCZSOGtu8PcW_pad-23" x="15175" y="73135"/><use xlink:href="#BCZSOGtu8PcW_pad-23" x="15175" y="74405"/><use xlink:href="#BCZSOGtu8PcW_pad-23" x="15175" y="75675"/><path d="M 111003.08 120115 115777.49 115340.59 M 115777.49 113486.51 115777.49 115340.59 M 109645 120115 111003.08 120115 M 115777.49 113486.51 120986 108278 128276.99 108278 M 112032 119973 123096.4 108908.6 129367.4 108908.6 M 114644 118268 122724.6 110187.4 131416.81 110187.4 M 114644 118268 114644 119920 M 117684 116100 121696 112088 128276.99 112088 M 117684 116100 117684 120346 117737 120399 M 131416.81 110187.4 132047.41 110818 133526.99 110818 M 131268.01 107008 133526.99 107008 M 129367.4 108908.6 131268.01 107008 M 135509.99 109548 135524.99 109563 M 133526.99 109548 135509.99 109548 M 133526.99 105738 134738.01 105738 135522 106522 M 126442 106987 126463 107008 128276.99 107008 M 132820.01 118843 135141.01 118843 M 132362 117066 132362 118385 132820.01 118843 M 135141.01 118843 135159 118825 M 128276.99 110818 128298 110839 131350.01 110839 132362 111851 132362 115366 M 73572.99 31104 73572.99 31898.99 74278 32604 74278 33679 M 72767 31109.99 72772.99 31104 M 72767 31109.99 72767 32060 73008 32301 73008 33679 M 20825 70595 22249 70595 22251 70593 22693.01 70593 23400 71300 M 21034.6 72074.6 23650.4 72074.6 M 20825 71865 21034.6 72074.6 M 22104 73135 22339.01 72899.99 M 20825 73135 22104 73135 M 22339.01 72899.99 23400 72899.99 M 23353.99 73746 23400 73699.99 M 22590 73746 23353.99 73746 M 21931 74405 22590 73746 M 20825 74405 21931 74405 M 40611 32222 40618 32229 40618 33679 M 32962 40586 32962 41829 M 32948 39329 32948 40572 32962 40586 M 25423 53363 25457 53329 M 25457 52208 25457 53329 M 13915 67998 15168 67998 15175 68005 M 20827.5 75672.5 22293.5 75672.5 M 23320.5 75665.5 23325 75661 M 20825 75675 20827.5 75672.5 M 22300.5 75665.5 23320.5 75665.5 M 22293.5 75672.5 22300.5 75665.5 M 16604.35 101572 17222 101572 M 16541.35 101509 16604.35 101572 M 16065.95 101509 16541.35 101509 M 26138 92801 26145 92794 M 26138 92801 26138 94045 M 39411 104386 39411 105911 M 39411 103425 39411 104386 M 39411 105911 39425 105925 M 30870 111577 30872 111575 31755 111575 M 67137 111571 67141 111575 68005 111575 M 75661 104402 75661 105911 M 75661 103425 75661 104402 M 75661 105911 75675 105925 M 103222 111572 103225 111575 104255 111575 M 111911 104668 111911 105911 M 111911 103425 111911 104668 M 111911 105911 111925 105925 M 127868 101509 127874 101503 M 126837.95 101509 127868 101509 M 69212 40798 69212 41829 M 69212 39343 69212 40798 M 69198 39329 69212 39343 M 77940 33679 77961 33700 M 76868 33679 77940 33679 M 127633 43689 127646 43702 129027.05 43702 M 114074 33679 114127 33732 M 113118 33679 114074 33679 M 111798 40798 111830 40830 M 111798 39329 111798 40798 M 105462 40743 105471 40734 M 105462 40743 105462 41829 M 105448 40711 105471 40734 M 105448 39329 105448 40711 M 9281 74133 9281 74157 M 2425 81013 9281 74157 M 2425 81013 2425 95250 M 12600 72100.01 14939.99 72100.01 M 12600 72900 14940 72900 M 12972.61 73772.6 13605 74405 M 2443 59857 9601 67015 9601 72113 M 2443 54826 2443 59857 M 2443 53749 2443 54826 M 1154 52460 2443 53749 M 1154 46521 1154 52460 M 1154 46521 2425 45250 M 8557 70700 8557 72202 9281 72926 M 2425 70250 2875 70700 8557 70700 M 12600 73700 12672.6 73772.6 M 13605 74405 15175 74405 M 12672.6 73772.6 12972.61 73772.6 M 13392 71300.01 13899.4 70792.6 M 12600 71300.01 13392 71300.01 M 13899.4 70792.6 14977.4 70792.6 15175 70595 M 14939.99 72100.01 15175 71865 M 14940 72900 15175 73135 M 74980.6 30298.4 74992 30287 M 73103.2 30298.4 74980.6 30298.4 M 75017 27494 80763 21748 M 75017 27494 75017 28541 M 76338 28526.3 76343 28521.3 M 76343 28183.9 76343 28521.3 M 24266 73270 24266 74589 24311.88 74634.88 M 23895.99 72899.99 24266 73270 M 23400 72899.99 23895.99 72899.99 M 27510 73378 131201 73378 M 26311 74577 27510 73378 M 121185.55 49352.1 133080.9 49352.1 M 118668.05 46834.61 121185.55 49352.1 M 133080.9 49352.1 134024 48409 M 76343 28183.9 81971.3 22555.6 85803.49 22555.6 M 80763 21748 85892.68 21748 M 86418.78 21221.9 89599.1 21221.9 M 85892.68 21748 86418.78 21221.9 M 85803.49 22555.6 86629.19 21729.9 91396.1 21729.9 M 89599.1 21221.9 93486 17335 M 91396.1 21729.9 92484 20642 129336 20642 M 93486 12829 93486 17335 M 25622.48 70626.9 27511.58 72516 M 25832.9 70118.9 27429 71715 M 23400 70431 23712.1 70118.9 M 24205.6 70811.55 24390.26 70626.9 M 23712.1 70118.9 25832.9 70118.9 M 24390.26 70626.9 25622.48 70626.9 M 73572.99 31104 75750 31104 76343 30511 M 129336 20642 130425.95 19552.05 M 130425.95 9866 130425.95 19552.05 M 122117 11855 123090 10882 M 123090 9205 123090 10882 M 119529 11855 122117 11855 M 118718 11044 119529 11855 M 123090 9205 124631 7664 130741 7664 134200 11123 134200 12307 M 72772.99 30628.6 72772.99 31104 M 72772.99 30628.6 73103.2 30298.4 M 131718.99 72516 132192.99 72990 M 27511.58 72516 131718.99 72516 M 131201 73378 132110.99 74288 134169.01 74288 M 23650.4 72074.6 23844.4 71880.6 23997.3 71880.6 24205.6 71672.29 M 24205.6 70811.55 24205.6 71672.29 M 132192.99 72990 134169.01 72990 M 23400 70431 23400 71300 M 27429 71715 134216 71715 M 142575 78101 142656.01 78182 M 142575 74750 142575 78101 M 141438 72908 143292.01 72908 144162.45 73778.45 144162.45 79101.55 M 142485.99 80778 142485.99 90103 M 142485.99 80778 144162.45 79101.55 M 139621 72966 141405 74750 142575 74750 M 139598.01 71597 143728 71597 144175.99 71149 M 144175.99 68647 144175.99 71149 M 142578 67049 144175.99 68647 M 142578 54177 142578 67049 M 142575 54174 142578 54177 M 142575 49750 142575 54174 M 142485.99 90103 143774.99 91392 143774.99 98550 M 142575 99750 143774.99 98550 M 118718 9739 118718 11044 M 138054.99 48978 138054.99 101966 M 138054.99 48978 138733 48300 M 138569.4 49902.6 139884 48588 M 139884 46633 139884 48588 M 138569.4 49902.6 138569.4 101623.64 M 138569.4 12243.4 138569.4 45318.4 139884 46633 M 138054.99 101966 142134 106045 M 138541 12215 138569.4 12243.4 M 143283 106337.24 143283 108423 M 138569.4 101623.64 143283 106337.24 M 142134 106045 142134 107580 M 142194 109512 143283 108423 M 142194 109512 142194 110667 M 137225.01 110662 137225.01 110662 M 137225.01 109563 137225.01 110662 M 137218.99 106525 137218.99 107585 M 137218.99 106525 137222 106522" fill="none" stroke-width="304.8"/><path d="M 111240.78 119105 114159.54 116186.24 M 107804 119105 111240.78 119105 M 106933 119976 107804 119105 M 114159.54 108474.54 114159.54 116186.24 M 113772 108087 114159.54 108474.54 M 105955.22 108087 113772 108087 M 111878 115824 111878 116366 M 103530 117172 111072 117172 111878 116366 M 112903.5 116035.5 113113 115826 M 112903.5 116035.5 112903.5 116205.28 M 111038.78 118070 112903.5 116205.28 M 105981 118070 111038.78 118070 M 104048 120003 105981 118070 M 101516 119186 103530 117172 M 104048 120003 104048 120267.97 M 101516 119186 101516 120031 M 104831.3 106963.08 105955.22 108087 M 104831.3 106501.3 104831.3 106963.08 M 104255 105925 104831.3 106501.3 M 85360.82 108861 112065 108861 113394 110190 M 82646.81 111575 85360.82 108861 M 68228.18 107621 100568 107621 M 105575 104628 105575 105925 M 105114 104167 105575 104628 M 104022 104167 105114 104167 M 100568 107621 104022 104167 M 113113 114126 113245 113994 M 113245 111575 113245 113994 M 111878 111622 111925 111575 M 111878 111622 111878 114124 M 79480 124105 80515 124105 M 80515 124330 80627.5 124217.5 80677.5 124217.5 M 80824.5 124046.19 81047.69 123823 96049.07 123823 M 80677.5 124217.5 80824.5 124070.5 M 80824.5 124046.19 80824.5 124070.5 M 81695 120929 83902.3 123136.3 117916.7 123136.3 119053 122000 M 119053 120431 119053 122000 M 119053 120431 120659 118825 M 76989 121614 79480 124105 M 109150.01 112482.69 109150.01 114707.31 M 110338.08 114993.7 110366.78 114965 M 109150.01 114707.31 109436.4 114993.7 110338.08 114993.7 M 123735 114965 125325.95 116555.95 M 130325.94 117948 130325.94 120862 M 125325.95 116555.95 125325.95 117821 M 130325.94 117948 130452.96 117821 M 127618 114167 130377.04 116926.05 130377.04 117804 M 122608 135345 125439.05 135345 M 119035 131772 122608 135345 M 76527.12 114534.12 76944 114534.12 M 75079 122870.63 75136 122813.63 M 75136 117017 75136 122813.63 M 75079 122870.63 75079 128608 78972 132501.01 M 76989 117144 76989 121614 M 74240.5 118966.5 74240.5 131089.49 M 72513 117239 74240.5 118966.5 M 74240.5 131089.49 76580 133429 M 72900 112482.69 72900 114625.4 M 76143 114150 76527.12 114534.12 M 73275.6 115001 75175.82 115001 M 73700 114150 76143 114150 M 72900 114625.4 73275.6 115001 M 80507 132501.01 86506 132501.01 M 78972 132501.01 80507 132501.01 M 54292.05 132644 66264.83 132644 M 66276.83 132632 67103 132632 M 66264.83 132644 66276.83 132632 M 30411 131265 62184 131265 M 26067 131265 30411 131265 M 17070.05 132942 24390 132942 26067 131265 M 86506 132501.01 88380.05 134375.05 M 80133.5 133867.49 81695 135429 M 79487.82 133429 79926.32 133867.49 80133.5 133867.49 M 76580 133429 79487.82 133429 M 51591.05 135345 54292.05 132644 M 68436 118378 68436 131299 M 67103 132632 68436 131299 M 67108 118340 67108 126341 M 62184 131265 67108 126341 M 14667.05 135345 17070.05 132942 M 89928 37057 111747 37057 M 76227 41172 85813 41172 89928 37057 M 32291 44982 34512.7 42760.3 35342.11 42760.3 M 23778 44982 32291 44982 M 71973 31104 72032 31163 72032 32156 M 71738 32450 72032 32156 M 71738 32450 71738 33679 M 71173 31104 71173 31817 M 70468 32522 71173 31817 M 70468 32522 70468 33679 M 88388.05 46616 88515.05 46743 M 88388.05 43702 88388.05 46616 M 107981.7 102506.3 108350 102874.6 108350 103315.5 M 101041.27 102537.7 101072.67 102506.3 M 93628.95 102034.4 94132.25 102537.7 M 93628.95 101509 93628.95 102034.4 M 101072.67 102506.3 107981.7 102506.3 M 94132.25 102537.7 101041.27 102537.7 M 93501.95 101382 93628.95 101509 M 93501.95 98468 93501.95 101382 M 78922.03 95351.97 128398.93 95351.97 M 75742.5 98531.5 78922.03 95351.97 M 89396 103319 107544.99 103319 M 88563.95 98530 88563.95 102486.95 89396 103319 M 91863 94074 93521 92416 M 78225 94074 91863 94074 M 56612 86895 57039 87322 M 65475 87322 69205 91052 M 57039 87322 65475 87322 M 74609 97690 78225 94074 M 118718 83841 118718 85722 119366 86370 122249 86370 123451 85168 M 123451 82490 123451 85168 M 125648 80293 130931.49 80293 M 123451 82490 125648 80293 M 130931.49 80293 132032.26 81393.75 132032.26 93851.24 134421.2 96240.2 134421.2 102868.59 M 132264.59 105025.2 134421.2 102868.59 M 126703.8 105025.2 132264.59 105025.2 M 124742 106987 126703.8 105025.2 M 59302 124483 66546 117239 72513 117239 M 48366.44 124483 59302 124483 M 67916 114150 71300.01 114150 M 67092 114974 67916 114150 M 72100.01 114150 72100.01 114739.31 M 72100.01 113048.91 72100.01 114150 M 68380 114997 71842.32 114997 M 68357 114974 68380 114997 M 76014.8 113565.8 82669.2 113565.8 M 75675 113226 76014.8 113565.8 M 82669.2 113565.8 86610 109625 M 75675 111575 75675 113226 M 75675 109971.18 75675 111575 M 73700 113700.79 73700 114150 M 109258 39329 109277 39348 109277 40718 M 109023.01 40972 109277 40718 M 109023.01 40972 109023.01 41904 M 107988 39329 107988 40681 108223.01 40916.01 108223.01 41904 M 106675 39372 106675 40680.59 M 106675 39372 106718 39329 M 106675 40680.59 107423.01 41428.6 107423.01 41904 M 67663 45056.05 67663 47668 M 67663 45056.05 70815.05 41904 M 70468 40500 71173.01 41205.01 M 70468 39329 70468 40500 M 71173.01 41205.01 71173.01 41904 M 71955 41886 71973.01 41904 M 71955 40798 71955 41886 M 71738 40581 71955 40798 M 71738 39329 71738 40581 M 73008 39329 73015 39336 73015 41186.61 M 72773 41428.6 73015 41186.61 M 72773 41428.6 72773 41904 M 73573 41573 73573 41904 M 73573 41573 74278 40868 M 74278 39329 74278 40868 M 44820.05 120936.61 48366.44 124483 M 66365 30362 66382.9 30362 M 67124.9 31104 71173 31104 M 66382.9 30362 67124.9 31104 M 66414 26503 66414 28541 M 62845 22934 66414 26503 M 64135 21560 67942.7 25367.7 67942.7 28583.3 M 58642 21560 64135 21560 M 70658.22 30387 70784.92 30260.3 M 67985 30387 70658.22 30387 M 70784.92 30260.3 71561.07 30260.3 M 69198 32597 69198 34897 M 68608 32007 69198 32597 M 63081 32007 68608 32007 M 59614 35474 63081 32007 M 87076.3 36417 89814.3 33679 M 67878 35383 68912 36417 87076.3 36417 M 60982 40806 64296 37492 M 76250 37492 76868 38110 M 64296 37492 76250 37492 M 69198 34897 69621 35320 M 32948 32778.6 32948 33679 32948 34692 M 69621 35320 81804 35320 M 67878 33679 67878 35383 M 105448 33090 105448 33679 M 104387 32029 105448 33090 M 81804 35320 85095 32029 104387 32029 M 89814.3 33679 104128 33679 M 111747 37057 113118 38428 113118 39329 M 75548 40493 76227 41172 M 75548 39329 75548 40493 M 76868 38110 76868 39329 M 40272 40806 60982 40806 M 39863.18 40899.18 40178.81 40899.18 40272 40806 M 39298 40334 39863.18 40899.18 M 39298 39329 39298 40334 M 64566 33679 67878 33679 M 62186.8 36058.2 62375.84 35869.15 62375.85 35869.15 64566 33679 M 33488.02 36058.2 62186.8 36058.2 M 32204.3 34774.48 33488.02 36058.2 M 32204.3 34255.3 32204.3 34774.48 M 31628 33679 32204.3 34255.3 M 32304.88 32410.3 32579.7 32410.3 M 32085.58 32191 32304.88 32410.3 M 13910 32191 32085.58 32191 M 32579.7 32410.3 32948 32778.6 M 7730 38371 13910 32191 M 32948 34692 33730 35474 59614 35474 M 40618 38749 40618 39329 M 38887 37018 40618 38749 M 15455 37018 38887 37018 M 9873.35 42599.65 15455 37018 M 9873.35 42599.65 9873.35 58102.09 14925.26 63154 21314 63154 M 23630 65470 23630 68368 M 21314 63154 23630 65470 M 20825 69325 22673 69325 23630 68368 M 8632 41073 16026 33679 M 8632 58004 18030 67402 M 8632 41073 8632 58004 M 7730 38371 7730 58583 17064 67917 M 18030 67402 18030 74601.78 M 17064 67917 17064 74297.78 M 15701.3 75148.7 16213.07 75148.7 17064 74297.78 M 15175 75675 15701.3 75148.7 M 16026 33679 31628 33679 M 16213.07 76418.7 18030 74601.78 M 15751.3 76418.7 16213.07 76418.7 M 9599 84718 18614.2 75702.8 M 18614.2 68901.8 19511 68005 M 18614.2 68901.8 18614.2 75702.8 M 15175 76995 15751.3 76418.7 M 37711.07 30260.3 37753.77 30303 M 36546 30537.68 36823.38 30260.3 M 36546 30537.68 36546 32071 M 36823.38 30260.3 37711.07 30260.3 M 49596 30303 51577.95 28321.05 M 37753.77 30303 49596 30303 M 51577.95 27407 51577.95 28321.05 M 51577.95 24366 51577.95 27407 M 21370 30234 34521.22 30234 M 16070 31104 34923 31104 M 14653.95 24366 14653.95 29687.95 M 34534.92 30247.7 35465.31 30247.7 35723 30505.39 M 34521.22 30234 34534.92 30247.7 M 35723 30505.39 35723 31876 M 14653.95 29687.95 16070 31104 M 19653.95 28517.95 21370 30234 M 35467 32132 35467 33658 M 35467 32132 35723 31876 M 19653.95 27407 19653.95 28517.95 M 19653.95 24366 19653.95 27407 M 56523 24420.94 56523 29546 M 37322.99 31104 54965 31104 56523 29546 M 8796 81930 13731 76995 M 8796 104437 12846 108487 M 8796 81930 8796 104437 M 9599 84718 9599 101380 12197 103978 M 19511 68005 20825 68005 M 7803 81891 14019 75675 M 7803 81891 7803 106157 11203 109557 M 12197 103978 32144 103978 33075 104909 33075 105925 M 38716 108487 40745 110516 M 12846 108487 38716 108487 M 13731 76995 15175 76995 M 14019 75675 15166 75675 M 59460.3 107193.7 62829 103825 M 32548.7 107193.7 59460.3 107193.7 M 31755 106400 32548.7 107193.7 M 31755 105925 31755 106400 M 40745 110516 40745 111575 M 11203 109557 38411 109557 39425 110571 39425 111575 M 40745 111575 43565 108755 75859 108755 76995 109891 76995 111575 M 39425 111575 39425 112999.75 39648.19 113222.93 46170.07 113222.93 49645 109748 M 75451.82 109748 75675 109971.18 M 49645 109748 75451.82 109748 M 62829 103825 68675 103825 69325 104475 69325 105925 M 68005 105925 68005 107397.82 68228.18 107621 M 86610 109625 111584 109625 111925 109966 M 113245 111575 113394 111426 M 113394 110190 113394 111426 M 76995 111575 82646.81 111575 M 111925 109966 111925 111575 M 19653.95 83968 20919 85233.05 M 20919 94376 21937 95394 M 26138 95394 65111 95394 M 21937 95394 26138 95394 M 20919 85233.05 20919 94376 M 74614 101872.18 74614 101967.77 M 74614 101872.18 74738.46 101747.72 M 74738.46 101688.46 74738.46 101747.72 M 74609 97690 74609 99374 M 75701 101351 75701 101706.95 M 69174 98464 69205 98433 M 69205 91052 69205 98433 M 69200 100961 69205 100966 69205 101411 M 67770 101559 69561 103350 M 67770 100831 67770 101559 M 67739 98022 67739 98433 67770 98464 M 109447.51 30247.7 122684.3 30247.7 125425.95 27506.05 M 109023 31104 109023 31579.4 M 109023 30680 109023 31104 M 26390.8 21077.8 57287.59 21077.8 M 59143.79 22934 62845 22934 M 57287.59 21077.8 59143.79 22934 M 25499 20186 26390.8 21077.8 M 21173 20186 25499 20186 M 56613 19531 58642 21560 M 56613 12931 56613 19531 M 112281.97 100549.8 119933.8 100549.8 M 110331.77 102500 112281.97 100549.8 M 110573.76 103084.2 112523.96 101134 118780 101134 M 36907.68 102500 37831.77 102500 M 37493 103798.21 37512.2 103817.41 M 37715.79 103084.2 38073.76 103084.2 M 37484.49 103099.6 37700.39 103099.6 M 37512.2 104242.2 38198 104928 M 37449.99 103134.1 37484.49 103099.6 M 37512.2 103817.41 37512.2 104242.2 M 39894.77 100437 48902 100437 M 38073.76 103084.2 40023.96 101134 M 37700.39 103099.6 37715.79 103084.2 M 38198 104928 38198 105924 M 37449.99 103134.1 37449.99 103350 M 37831.77 102500 39894.77 100437 M 37493 103349 37493 103798.21 M 40023.96 101134 46977 101134 M 110655 105881 110698 105924 M 109993 103350 110655 104012 110655 105881 M 119933.8 100549.8 120893 101509 M 70296 102502 71842.31 102502 72100 102759.69 72100 103315.5 M 74405 105881 74448 105924 M 73743 103350 74405 104012 74405 105881 M 128398.93 95351.97 130425.95 93324.95 M 76397 43753 76397 47641 M 76386 47652 76397 47641 M 69003 44542.23 70784.93 42760.3 M 69003 44542.23 69003 47637 M 47599.45 49614 97473 49614 100272 46815 M 44820.05 46834.61 47599.45 49614 M 106783 42970.89 106783 42974.21 M 93712.55 43876.1 105881.11 43876.1 106783 42974.21 M 93696.05 43892.61 93712.55 43876.1 M 93696.05 43892.61 93696.05 43945 M 98432.41 43291.9 105639.13 43291.9 M 93515.05 43945 93515.05 46743 M 106198.8 42728.91 106198.8 42732.23 M 105639.13 43291.9 106198.8 42732.23 M 106783 42970.89 107006.18 42747.7 107902.81 42747.7 M 108126 42386.69 108126 42524.52 M 107902.81 42747.7 108126 42524.52 M 108126 42386.69 108188.51 42324.18 M 108188.51 41938.5 108188.51 42324.18 M 107423.01 41904 107423.01 42129 M 106764.2 42163.5 107388.51 42163.5 M 106198.8 42728.91 106764.2 42163.5 M 97577.5 42437 98432.41 43291.9 M 107388.51 42163.5 107423.01 42129 M 93453.05 43702 93696.05 43945 M 77546 44075.82 77546 47652 M 66068 57220 68938 54350 M 68938 50899 68938 54350 M 43260.5 50858 43282.5 50836 67504 50836 M 77516 50699 77519.5 50702.5 119370.5 50702.5 M 119391 50723 125209 50723 M 76301 50688 76301 53868 M 119370.5 50702.5 119391 50723 M 76301 53868 79453 57020 M 23463.18 43841 32456.78 43841 M 14513 42783 14513 46588.95 M 32456.78 43841 34121.68 42176.1 M 48817.83 115001 50957.75 117140.92 M 36650.01 112482.69 36650.01 114736.02 M 50981.36 117140.92 51204.55 117364.11 M 50957.75 117140.92 50981.36 117140.92 M 51204.55 117544.5 51591.05 117931 M 51204.55 117364.11 51204.55 117544.5 M 36914.99 115001 48817.83 115001 M 51591.05 117931 51591.05 120845 M 88401.95 116468.05 90703 114167 M 96207.17 114986 107154.23 114986 M 90703 114167 107543 114167 M 108350.01 113048.91 108350.01 114728.32 M 107154.23 114986 107161.93 114993.7 M 108084.62 114993.7 108350.01 114728.32 M 88401.95 116468.05 88401.95 120862 M 107161.93 114993.7 108084.62 114993.7 M 94035.25 117157.92 96207.17 114986 M 109225.5 111734.5 109385 111575 M 109225.5 111734.5 109225.5 112407.19 M 109150.01 112482.69 109225.5 112407.19 M 102237 96405 116782 96405 M 100272.95 98369.05 102237 96405 M 116782 96405 118718 98341 M 65111 95394 67739 98022 M 69561 103350 71300 103350 M 69205 101411 70296 102502 M 93521 86957 93521 92416 M 130425.95 83968 130425.95 93324.95 M 62750 57220 66068 57220 M 55597.05 57237 62750 57237 M 51591.05 61243 55597.05 57237 M 87180 61243 88515.05 61243 M 82673 57020 82914.4 57261.4 M 83198.4 57261.4 87180 61243 M 82914.4 57261.4 83198.4 57261.4 M 79453 57020 82673 57020 M 125209 50723 126214 51728 126214 60468.05 M 125439.05 61243 126214 60468.05 M 75617.14 42146.96 77546 44075.82 M 73815.96 42146.96 75617.14 42146.96 M 73573 41904 73815.96 42146.96 M 75404.3 42760.3 76397 43753 M 73153.9 42760.3 75404.3 42760.3 M 72773 42379.4 73153.9 42760.3 M 72773 41904 72773 42379.4 M 70815.05 41904 71173.01 41904 M 71973.01 41904 71973.01 42537.12 M 71749.82 42760.3 71973.01 42537.12 M 70784.93 42760.3 71749.82 42760.3 M 25457 50858 43260.5 50858 M 20220 50972 25457 50972 M 14667.05 56524.95 20220 50972 M 14667.05 56524.95 14667.05 61243 M 19653.95 9866 19653.95 18666.95 21173 20186 M 71973 30750 71973 31104 M 71791.7 30568.7 71973 30750 M 71791.7 30490.92 71791.7 30568.7 M 71561.07 30260.3 71791.7 30490.92 M 44870 83841 46744 85715 98434.34 85715 100272.95 83876.39 M 100272.95 98369.05 100272.95 98376.39 M 42832 96303 44870 98341 M 28498.34 96303 42832 96303 M 26424.95 98376.39 28498.34 96303 M 26424 61315 26544.4 61194.6 M 27753 59281 43736 59281 M 26544.4 60489.6 27753 59281 M 26544.4 60489.6 26544.4 61194.6 M 44820.05 60365.05 44820.05 61334.61 M 43736 59281 44820.05 60365.05 M 118434.81 60528.8 118434.81 61101.36 118668.05 61334.61 M 116994 59088 118434.81 60528.8 M 101526 59088 116994 59088 M 100272 60342 101526 59088 M 100272 60342 100272 61315 M 26657.24 134608.76 27941 133325 43607.81 133325 M 26424 135417.01 26657.24 135183.76 M 26657.24 134608.76 26657.24 135183.76 M 43607.81 133325 44820.05 134537.23 44820.05 135436.61 M 88501.95 98468 88563.95 98530 M 107593.01 103349 107593.01 104165.99 M 130425.95 98468 130552.95 98595 130552.95 101509 M 130723.97 101509 130723.97 101730.03 M 130508.07 101730.03 130723.97 101730.03 M 129134.99 103319 130419.6 102034.4 M 130419.6 101818.5 130419.6 102034.4 M 130419.6 101818.5 130508.07 101730.03 M 120965 103319 129134.99 103319 M 125487.95 98530 125487.95 101509 M 125425.95 98468 125487.95 98530 M 120893 101509 125487.95 101509 M 118780 101134 120965 103319 M 88501.95 27345 88563.95 27407 M 88501.95 24366 88501.95 27345 M 88388.05 43702 89653.05 42437 97577.5 42437 M 108188.51 41938.5 108223.01 41904 M 109391.31 42747.7 124829.36 42747.7 M 125439.05 43702 125439.05 46743 M 125258.26 43176.6 125258.26 43521.21 125439.05 43702 M 124829.36 42747.7 125258.26 43176.6 M 109023.01 41904 109023.01 42379.4 109391.31 42747.7 M 109950.01 41777 110528 41199.01 M 110528 39329 110528 41199.01 M 109950.01 41777 128714 41777 130439.06 43502.05 130439.06 46743 M 109023 30680 109204.29 30498.71 M 109204.29 30490.92 109204.29 30498.71 M 109204.29 30490.92 109447.51 30247.7 M 125425.95 24366 125425.95 27506.05 M 130425.95 24366 130490.01 24430.05 130490.01 29983 M 129369 31104 130490.01 29983 M 109822.99 31104 129369 31104 M 106718 32290 107403.8 31604.2 M 107403.8 31123.2 107403.8 31604.2 M 106718 32290 106718 33679 M 107403.8 31123.2 107423 31104 M 109822.99 31579.4 110528 32284.41 110528 33679 M 109822.99 31104 109822.99 31579.4 M 108223 31104 108223 31579.4 M 107988 31814.39 108223 31579.4 M 107988 31814.39 107988 33679 M 109023 31579.4 109258 31814.4 109258 33679 M 93628.95 28076.95 94886 29334 105469.3 29334 106383 30247.7 107606 30247.7 M 93628.95 27407 93628.95 28076.95 M 107180.04 30861.04 107423 31104 M 91861.21 30861.04 107180.04 30861.04 M 89070.25 28070.08 91861.21 30861.04 M 89070.25 27437.9 89070.25 28070.08 M 89039.35 27407 89070.25 27437.9 M 88563.95 27407 89039.35 27407 M 108223 30628.6 108223 31104 M 108179.38 30628.6 108223 30628.6 M 107811.07 30260.3 108179.38 30628.6 M 107618.6 30260.3 107811.07 30260.3 M 107606 30247.7 107618.6 30260.3 M 93501.95 24366 93501.95 27436.78 M 117154 25803 118718 24239 M 101801.55 25803 117154 25803 M 100272.95 24274.39 101801.55 25803 M 44870 9739 46688 11557 M 98490.34 11557 99298.85 10748.49 M 46688 11557 98490.34 11557 M 99298.85 10748.49 99298.85 10748.49 100272.95 9774.39 M 26424.95 24274.39 27993.55 25843 M 43320 25843 44870 24293 M 27993.55 25843 43320 25843 M 44870 24239 44870 24293 M 34917 31110 34923 31104 M 34917 31110 34917 31766 M 34218 32465 34917 31766 M 34218 32465 34218 33679 M 35467 33658 35488 33679 M 37322.99 31104 37322.99 31503.99 38028 32209 38028 33679 M 36758 33679 36791 33646 M 36791 32316 36791 33646 M 36546 32071 36791 32316 M 56523 24420.94 56577.95 24366 M 36891.31 42747.7 50664.7 42747.7 51591.05 43674.05 M 36523.01 41904 36523.01 42379.4 36891.31 42747.7 M 51591.05 43674.05 51591.05 46743 M 56591.05 46743 56747 46587.05 M 56747 42172 56747 46587.05 M 56479 41904 56747 42172 M 37323 41904 56479 41904 M 14513 46588.95 14667.05 46743 M 14513 42783 15389 41907 21529.18 41907 23463.18 43841 M 34121.68 42176.1 34650.91 42176.1 34923.01 41904 M 22498 43702 23778 44982 M 19605.05 43702 22498 43702 M 19667.05 43764 19667.05 46743 M 19605.05 43702 19667.05 43764 M 35342.11 42760.3 35723.01 42379.4 M 35723.01 41904 35723.01 42379.4 M 108350 103315.5 108384.5 103350 M 109949.99 103134.1 109949.99 103350 M 110215.79 103084.2 110573.76 103084.2 M 110200.39 103099.6 110215.79 103084.2 M 109949.99 103134.1 109984.49 103099.6 110200.39 103099.6 M 109184.5 102723.18 109407.68 102500 110331.77 102500 M 109150 103350 109184.5 103315.5 M 109184.5 102723.18 109184.5 103315.5 M 109268.5 105764.5 109428 105924 M 109193 105016.31 109268.5 105091.81 109268.5 105764.5 M 109193 103350 109193 105016.31 M 108400.96 104458.04 108400.96 105027.21 M 108317.5 105110.66 108400.96 105027.21 M 108393.01 104450.09 108400.96 104458.04 M 108158 105924 108317.5 105764.5 M 108317.5 105110.66 108317.5 105764.5 M 108393.01 103350 108393.01 104450.09 M 106888 104871 107593.01 104165.99 M 106888 104871 106888 105924 M 107550.01 113333.01 107550.01 114150 M 106845 112628 107550.01 113333.01 M 106845 111575 106845 112628 M 108357.96 112471.79 108357.96 113040.96 M 108350.01 113048.91 108357.96 113040.96 M 108338 112451.84 108357.96 112471.79 M 108274.5 112388.34 108338 112451.84 M 108274.5 111734.5 108274.5 112388.34 M 108115 111575 108274.5 111734.5 M 110655 111575 110655 112571 M 109950 113700.79 109950 114150 M 109969.2 113256.8 109969.2 113681.59 M 109969.2 113256.8 110655 112571 M 109950 113700.79 109969.2 113681.59 M 71842.32 114997 72100.01 114739.31 M 72100 103315.5 72134.5 103350 M 73699.99 103134.1 73699.99 103350 M 73965.79 103084.2 74323.76 103084.2 M 73950.39 103099.6 73965.79 103084.2 M 74323.76 103084.2 75701 101706.95 M 73699.99 103134.1 73734.49 103099.6 73950.39 103099.6 M 74081.77 102500 74614 101967.77 M 72934.49 102723.18 73157.68 102500 74081.77 102500 M 72899.99 103350 72934.49 103315.5 M 72934.49 102723.18 72934.49 103315.5 M 73018.5 105764.5 73178 105924 M 72943 105016.31 73018.5 105091.81 73018.5 105764.5 M 72943 103350 72943 105016.31 M 72150.96 104458.04 72150.96 105027.21 M 72067.5 105110.66 72150.96 105027.21 M 72143.01 104450.09 72150.96 104458.04 M 71908 105924 72067.5 105764.5 M 72067.5 105110.66 72067.5 105764.5 M 72143.01 103350 72143.01 104450.09 M 70638 104871 71343.01 104165.99 M 70638 104871 70638 105924 M 71343.01 103349 71343.01 104165.99 M 71300.01 113333.01 71300.01 114150 M 70595 112628 71300.01 113333.01 M 70595 111575 70595 112628 M 72107.96 112471.79 72107.96 113040.96 M 72100.01 113048.91 72107.96 113040.96 M 72024.5 112388.34 72107.96 112471.79 M 72024.5 111734.5 72024.5 112388.34 M 71865 111575 72024.5 111734.5 M 72975.5 111734.5 73135 111575 M 72900 112482.69 72975.5 112407.19 M 72975.5 111734.5 72975.5 112407.19 M 74405 111575 74405 112571 M 73719.2 113256.8 73719.2 113681.59 M 73719.2 113256.8 74405 112571 M 73700 113700.79 73719.2 113681.59 M 14653.95 98468 14715.95 98530 14715.95 101509 M 14710.05 101509 14710.05 102324.05 M 19653.95 98468 19780.95 98595 19780.95 101509 M 48678 102835 55789.96 102835 56590.56 102034.4 M 46977 101134 48678 102835 M 56590.56 101623.39 56704.95 101509 M 56590.56 101623.39 56590.56 102034.4 M 56577.95 98468 56704.95 98595 56704.95 101509 M 51577.95 101447 51639.95 101509 M 51577.95 98468 51577.95 101447 M 49974 101509 51639.95 101509 M 48902 100437 49974 101509 M 36684.5 102723.18 36684.5 103315.5 M 36684.5 102723.18 36907.68 102500 M 36650 103350 36684.5 103315.5 M 36693.01 103350 36693.01 105016.31 M 15735 103349 35093.01 103349 M 14710.05 102324.05 15735 103349 M 19780.95 101509 19780.95 102052.4 M 20230.54 102502 35592.31 102502 M 35850 102759.69 35850 103315.5 M 35893.01 103350 35893.01 104450.09 M 19780.95 102052.4 20230.54 102502 M 35592.31 102502 35850 102759.69 M 35850 103315.5 35884.5 103350 M 36693.01 105016.31 36768.5 105091.81 M 36768.5 105764.5 36928 105924 M 36768.5 105091.81 36768.5 105764.5 M 35817.5 105110.66 35900.96 105027.21 M 35900.96 104458.04 35900.96 105027.21 M 35893.01 104450.09 35900.96 104458.04 M 35093.01 103349 35093.01 104165.99 M 35817.5 105110.66 35817.5 105764.5 M 35658 105924 35817.5 105764.5 M 34388 104871 34388 105924 M 34388 104871 35093.01 104165.99 M 93401.95 117948 93401.95 120862 M 93788.45 117381.11 94011.64 117157.92 M 93401.95 117948 93788.45 117561.5 M 94011.64 117157.92 94035.25 117157.92 M 93788.45 117381.11 93788.45 117561.5 M 125325.95 117821 125325.95 120862 M 35850.01 113048.91 35850.01 114739.31 M 19667.05 116538.95 21209 114997 M 35592.32 114997 35850.01 114739.31 M 21209 114997 35592.32 114997 M 36650.01 114736.02 36914.99 115001 M 19667.05 117804 19667.05 120845 M 19667.05 116538.95 19667.05 117804 M 34345 112628 35050.01 113333.01 M 34345 111575 34345 112628 M 35615 111575 35774.5 111734.5 35774.5 112388.34 35838 112451.84 M 35050.01 113333.01 35050.01 114150 M 35850.01 113048.91 35857.96 113040.96 M 35857.96 112471.79 35857.96 113040.96 M 35838 112451.84 35857.96 112471.79 M 36725.5 111734.5 36725.5 112407.19 M 36725.5 111734.5 36885 111575 M 36650.01 112482.69 36725.5 112407.19 M 37469.2 113256.8 37469.2 113681.59 M 37469.2 113256.8 38155 112571 M 38155 111575 38155 112571 M 37450 113700.79 37450 114150 M 37450 113700.79 37469.2 113681.59 M 37450 114150 54290 114150 M 56591.05 116451.05 56591.05 120845 M 54290 114150 56591.05 116451.05 M 18194.05 114150 35050.01 114150 M 14540.05 117804 18194.05 114150 M 14540.05 117804 14667.05 117931 14667.05 120845" fill="none" stroke-width="381"/><path d="M 86159.9 121450.9 87111 122402 M 94473 122402 101025 115850 M 87111 122402 94473 122402 M 114945 103425 115834 104314 M 86159.9 117363.9 86159.9 121450.9 M 101025 115850 107550.01 115850 M 84646 115850 86159.9 117363.9 M 73700 115850 84646 115850 M 72900 115850 73700 115850 M 81243 48638.7 94020.55 48638.7 M 75236.7 48638.7 81243 48638.7 M 102744 41829 104112 41829 M 100201 39286 102744 41829 M 90595.7 39286 100201 39286 M 81243 48638.7 90595.7 39286 M 104128 39329 104128 41813 M 104112 41829 104128 41813 M 31612 39345 31628 39329 M 31612 39345 31612 41829 M 35323.01 43604 35723.01 43604 M 30503.01 48424 35323.01 43604 M 28212 41829 31612 41829 M 26300 39917 28212 41829 M 14958 39917 26300 39917 M 11288 43587 14958 39917 M 11288 46790 12922 48424 M 11288 43587 11288 46790 M 12922 48424 30503.01 48424 M 96135 97446 96135 100280 97505 101650 M 95073 96384 96135 97446 M 73917.76 101348.51 73917.76 101392.23 M 73792.49 101517.5 73917.76 101392.23 M 82487 96384 95073 96384 M 79218 99653 82487 96384 M 50688 122915 58136 122915 M 49163 121390 50688 122915 M 58136 122915 59484 121567 M 62459.3 48638.7 67878 43220 M 67878 39329 67878 43220 M 62459.3 48638.7 69374.08 48638.7 M 51200.37 48638.7 62459.3 48638.7 M 123033 46220 123033 48203 M 109823 43604 120417 43604 123033 46220 M 79949.3 29361.7 86908 22403 M 73572.99 29347 73587.69 29361.7 79949.3 29361.7 M 56993 21789 64608 29404 71173 29404 M 23685 29137 47903 29137 M 71230 29347 73572.99 29347 M 6829 27630 6829 61669 10900 65740 M 10900 71300.01 10900 72100.01 M 10900 65740 10900 71300.01 M 6829 27630 11693 22766 M 47903 29137 48846 28194 M 22186 27638 23685 29137 M 22186 24125 22186 27638 M 20827 22766 22186 24125 M 11693 22766 20827 22766 M 10900 73700 10900 76940 M 6678 81162 10900 76940 M 6678 81162 6678 122241 M 10900 72900 10900 73700 M 8379 123942 20429 123942 M 6678 122241 8379 123942 M 18260.78 86667.27 20119 88525.5 M 18260.78 83528.77 18260.78 86667.27 M 19117.25 82672.3 21729.7 82672.3 M 23325 77011 23325 81077 M 21729.7 82672.3 23325 81077 M 18260.78 83528.77 19117.25 82672.3 M 20119 94948 21671 96500 M 20119 88525.5 20119 94948 M 75613.27 99653 79218 99653 M 73917.76 101348.51 75613.27 99653 M 25100 71300 25145 71345 M 24433 77011 25145 76299 M 25145 71345 25145 76299 M 109822.99 29404 120483 29404 M 123562.5 22987.5 123562.5 26324.5 M 123562.5 22987.5 124622 21928 M 120483 29404 123562.5 26324.5 M 124622 21928 132250 21928 133574.01 23252 M 131243 48679 133574.01 46348 M 133574.01 23252 133574.01 46348 M 123033 48203 123509 48679 131243 48679 M 48846 23605 48846 28194 M 48846 23605 50662 21789 56993 21789 M 71173 29404 71230 29347 M 86908 22403 95178 22403 95791 23016 95791 25225 97852 27286 105305 27286 107423 29404 M 109023 29404 109822.99 29404 M 108223 29404 109023 29404 M 107423 29404 108223 29404 M 23325 77011 24433 77011 M 20825 76995 20841 77011 23325 77011 M 21671 96500 21671 98952 24369 101650 35050 101650 M 115834 104314 131970 104314 M 133710.01 98164 133710.01 102574 M 131970 104314 133710.01 102574 M 111844.99 99755 121738 99755 M 109949.99 101650 111844.99 99755 M 121738 99755 124961 96532 M 97505 101650 107550 101650 M 36650 101650 37443 101650 M 39431.3 99661.7 47977.05 99661.7 M 37443 101650 39431.3 99661.7 M 35850 101650 36650 101650 M 40901 103565 59135.98 103565 62876.98 99824 M 59697.98 96645 62876.98 99824 M 40745 103441 40761 103425 M 40745 103441 40745 105925 M 62876.98 99824 69474 99824 M 40761 103425 40901 103565 M 79218 99653 79218 101218 M 77011 103425 79218 101218 M 76995 103441 77011 103425 M 76995 103441 76995 105925 M 113245 103441 113261 103425 M 113245 103441 113245 105925 M 113261 103425 114945 103425 M 132078 96532 133710.01 98164 M 124961 96532 132078 96532 M 50993.75 96645 59697.98 96645 M 35050 101650 35850 101650 M 47977.05 99661.7 50993.75 96645 M 69474 99824 71300 101650 M 72100 101650 72899.99 101650 M 71300 101650 72100 101650 M 72899.99 101650 73699.99 101650 M 109150 101650 109949.99 101650 M 108350 101650 109150 101650 M 107550 101650 108350 101650 M 74336 47738 75236.7 48638.7 M 74336 43975.98 74336 47738 M 72773 43604 73964.03 43604 74336 43975.98 M 71973.01 43604 72773 43604 M 71173.01 43604 71973.01 43604 M 71154 43604 71173.01 43604 M 70416 44342 71154 43604 M 69374.08 48638.7 70416 47596.78 M 70416 44342 70416 47596.78 M 49030.3 46468.63 51200.37 48638.7 M 94020.55 48638.7 97648.25 45011 M 108223.01 43604 109023.01 43604 M 107423.01 43604 108223.01 43604 M 107159 43604 107423.01 43604 M 109023.01 43604 109823 43604 M 97648.25 45011 105752 45011 107159 43604 M 47932 43604 49030.3 44702.3 49030.3 46468.63 M 37323 43604 47932 43604 M 35723.01 43604 36523.01 43604 37323 43604 M 10900 72100.01 10900 72900 M 20429 123942 21485 122886 M 21485 118810 21485 122886 M 21485 118810 24445 115850 35050.01 115850 M 37450 115850 45382 115850 M 36650.01 115850 37450 115850 M 35850.01 115850 36650.01 115850 M 45382 115850 49163 119631 M 35050.01 115850 35850.01 115850 M 49163 119631 49163 121390 M 59484 119133 62767 115850 M 59484 119133 59484 121567 M 62767 115850 71300.01 115850 M 108350.01 115850 109150.01 115850 M 107550.01 115850 108350.01 115850 M 72100.01 115850 72900 115850 M 71300.01 115850 72100.01 115850 M 109150.01 115850 109950 115850" fill="none" stroke-width="635"/><path d="M 84255 135429 84255 137841 M 83346 138750 84255 137841 M 81293 138750 83346 138750 M 44169.05 138505 46636.1 138505 M 47380.05 135436.61 47380.05 137761.05 M 46636.1 138505 47380.05 137761.05 M 23864 137509.05 24773.95 138419.01 M 23864 135417.01 23864 137509.05 M 24773.95 138419.01 27051 138419.01 M 79254 130217 79573 130217 80507 131151 M 61377.6 135345 62787.6 133935 M 56591.05 135345 61377.6 135345 M 62787.6 133935 63313 133935 M 118678 6771 120498 6771 M 121278 7551 121278 9739 M 120498 6771 121278 7551 M 100290 6695 100328 6657 M 97712.95 7438.95 97712.95 9774.39 M 97712.95 7438.95 98456.9 6695 100290 6695 M 44906 6824 46686.05 6824 M 47430 7567.95 47430 9739 M 46686.05 6824 47430 7567.95 M 25075 6595 26569 6595 M 23864.95 7805.05 25075 6595 M 23864.95 7805.05 23864.95 9774.39 M 140075 91164 140075 94000 M 140075 91164 141136 90103 M 140818.95 78182 141306 78182 M 140075 77438.05 140818.95 78182 M 140075 76000 140075 77438.05 M 140075 53433.05 140818.95 54177 141228 54177 M 140075 51000 140075 53433.05 M 84100 54243 85315.05 54243 M 82673 55670 84100 54243 M 59791.05 54243 61123 54243 62750 55870 M 121228.05 61334.61 121228.05 63011.95 M 119837 64403 121228.05 63011.95 M 118017.05 64403 119837 64403 M 97712 61315 97712 63154 98875 64317 100899 64317 M 25051 64317 25051 64317 27051 64317 M 23864 63130 25051 64317 M 23864 61315 23864 63130 M 47380.05 61334.61 47380.05 62940.95 M 44169.05 64403 45918 64403 47380.05 62940.95 M 90995 98474.95 90995 100412 M 90995 98474.95 91001.95 98468 M 90995 100412 90995 100696 M 90182 101509 90995 100696 M 89913.95 101509 90182 101509 M 23864.95 83876.39 23928.09 83813.25 M 23928.09 83070.91 26546 80453 M 23928.09 83070.91 23928.09 83813.25 M 46686.05 80798 47430 81541.95 M 44928 80798 46686.05 80798 M 44851 80721 44928 80798 M 47430 81541.95 47430 83841 M 97712.95 82274.05 99179 80808 100923.95 80808 M 97712.95 82274.05 97712.95 83876.39 M 118679 80911 120534.05 80911 M 121278 81654.95 121278 83841 M 120534.05 80911 121278 81654.95 M 120659 121385 120674.4 121369.6 M 127939.05 118892 127939.05 120845 M 127939.05 118892 129027.05 117804 M 135159 121385 137731.99 118812 M 137731.99 118725 137731.99 118812" fill="none" stroke-width="1270"/><path d="M 42060.85 139580.22 44544.63 142064 M 42060.85 135635.8 42260.05 135436.61 M 44544.63 142064 81126.5 142064 M 42060.85 135635.8 42060.85 139580.22 M 31075 142064 44544.63 142064 M 116158 9739 116167 9730 M 116167 6712 116167 9730 M 102832.95 9774.39 102923.95 9683.39 M 102923.95 6706 102923.95 9683.39 M 42319 6712 42319 9730 M 42310 9739 42319 9730 M 28984.95 9774.39 29075.95 9683.39 M 29075.95 6706 29075.95 9683.39 M 115908.85 66476.2 117263 67830.35 117263 68048 M 115908.85 61533.81 116108.05 61334.61 M 115908.85 61533.81 115908.85 66476.2 M 135203.2 116220.8 139374.8 116220.8 M 104150 68048 117263 68048 M 136312.26 63194.75 136312.26 102583.25 M 102832 61315 103007.2 61490.2 M 117019 142064 129091 142064 M 42310 78505 42310 83841 M 44827.58 3020 106486 3020 M 116158 78454 116158 83841 M 103007.2 61490.2 103007.2 65190.24 M 102872.2 65325.24 102872.2 66770.2 M 103208 78497 103208 83501.34 M 102872.2 65325.24 103007.2 65190.24 M 31746 3020 44827.58 3020 M 42060.85 61533.81 42060.85 65823.85 M 28984 61315 29351 61682 29351 64617 32782 68048 44285 68048 M 42060.85 61533.81 42260.05 61334.61 M 42060.85 65823.85 44285 68048 M 29075.95 80808 29075.95 83785.39 M 28984.95 83876.39 29075.95 83785.39 M 136491.85 102762.85 139894 106165 M 131789 76407 136058.24 80676.25 M 131459 68048 136312.26 63194.75 M 136312.26 51835.73 136312.26 63194.75 M 136302.99 10218 136302.99 51826.47 136312.26 51835.73 M 129269 3184 136302.99 10218 M 139894 106165 139894 116740 M 117263 68048 131459 68048 M 118205 76407 131789 76407 M 141970.99 118817 141970.99 129184.01 M 129091 142064 141970.99 129184.01 M 139374.8 116220.8 141970.99 118817 M 135159 116265 135203.2 116220.8 M 29384 135817 29384 140373 M 79135 135429 79135 140072.49 M 81126.5 142064 117019 142064 M 79135 140072.49 81126.5 142064 M 28984 135417.01 29384 135817 M 29384 140373 31075 142064 M 42310 78505 44408 76407 105134 76407 M 102832.95 83876.39 103208 83501.34 M 103208 78497 105134 76571 M 105134 76407 105134 76571 M 105134 76407 118205 76407 M 116158 78454 118205 76407 M 102872.2 66770.2 104150 68048 M 44285 68048 104150 68048 M 32156 76407 44408 76407 M 29075.95 79487.05 29075.95 80808 M 29075.95 79487.05 32156 76407 M 117822.42 3184 129269 3184 M 117658.42 3020 117658.42 4037.16 M 116193.8 5501.78 117658.42 4037.16 M 116193.8 5501.78 116193.8 6059.8 M 116167 6086.6 116193.8 6059.8 M 116167 6086.6 116167 6712 M 106486 3020 106486 3143.95 M 102923.95 6706 106486 3143.95 M 106486 3020 117658.42 3020 M 42345.8 5501.78 44827.58 3020 M 42345.8 5501.78 42345.8 6059.8 M 42319 6086.6 42345.8 6059.8 M 42319 6086.6 42319 6712 M 29075.95 5690.05 29075.95 6706 M 29075.95 5690.05 31746 3020" fill="none" stroke-width="2540"/><use xlink:href="#BCZSOGtu8PcW_pad-29" x="116108.05" y="46834.61"/><use xlink:href="#BCZSOGtu8PcW_pad-29" x="121228.05" y="61334.61"/><use xlink:href="#BCZSOGtu8PcW_pad-29" x="118668.05" y="61334.61"/><use xlink:href="#BCZSOGtu8PcW_pad-29" x="116108.05" y="61334.61"/><use xlink:href="#BCZSOGtu8PcW_pad-29" x="121228.05" y="46834.61"/><use xlink:href="#BCZSOGtu8PcW_pad-29" x="118668.05" y="46834.61"/><use xlink:href="#BCZSOGtu8PcW_pad-29" x="28984.95" y="98376.39"/><use xlink:href="#BCZSOGtu8PcW_pad-29" x="23864.95" y="83876.39"/><use xlink:href="#BCZSOGtu8PcW_pad-29" x="26424.95" y="83876.39"/><use xlink:href="#BCZSOGtu8PcW_pad-29" x="28984.95" y="83876.39"/><use xlink:href="#BCZSOGtu8PcW_pad-29" x="23864.95" y="98376.39"/><use xlink:href="#BCZSOGtu8PcW_pad-29" x="26424.95" y="98376.39"/><use xlink:href="#BCZSOGtu8PcW_pad-29" x="42310" y="83841"/><use xlink:href="#BCZSOGtu8PcW_pad-29" x="47430" y="98341"/><use xlink:href="#BCZSOGtu8PcW_pad-29" x="44870" y="98341"/><use xlink:href="#BCZSOGtu8PcW_pad-29" x="42310" y="98341"/><use xlink:href="#BCZSOGtu8PcW_pad-29" x="47430" y="83841"/><use xlink:href="#BCZSOGtu8PcW_pad-29" x="44870" y="83841"/><use xlink:href="#BCZSOGtu8PcW_pad-29" x="28984" y="135417.01"/><use xlink:href="#BCZSOGtu8PcW_pad-29" x="23864" y="120917"/><use xlink:href="#BCZSOGtu8PcW_pad-29" x="26424" y="120917"/><use xlink:href="#BCZSOGtu8PcW_pad-29" x="28984" y="120917"/><use xlink:href="#BCZSOGtu8PcW_pad-29" x="23864" y="135417.01"/><use xlink:href="#BCZSOGtu8PcW_pad-29" x="26424" y="135417.01"/><use xlink:href="#BCZSOGtu8PcW_pad-29" x="42260.05" y="120936.61"/><use xlink:href="#BCZSOGtu8PcW_pad-29" x="47380.05" y="135436.61"/><use xlink:href="#BCZSOGtu8PcW_pad-29" x="44820.05" y="135436.61"/><use xlink:href="#BCZSOGtu8PcW_pad-29" x="42260.05" y="135436.61"/><use xlink:href="#BCZSOGtu8PcW_pad-29" x="47380.05" y="120936.61"/><use xlink:href="#BCZSOGtu8PcW_pad-29" x="44820.05" y="120936.61"/><use xlink:href="#BCZSOGtu8PcW_pad-29" x="100272.95" y="98376.39"/><use xlink:href="#BCZSOGtu8PcW_pad-29" x="97712.95" y="98376.39"/><use xlink:href="#BCZSOGtu8PcW_pad-29" x="102832.95" y="83876.39"/><use xlink:href="#BCZSOGtu8PcW_pad-29" x="100272.95" y="83876.39"/><use xlink:href="#BCZSOGtu8PcW_pad-29" x="97712.95" y="83876.39"/><use xlink:href="#BCZSOGtu8PcW_pad-29" x="102832.95" y="98376.39"/><use xlink:href="#BCZSOGtu8PcW_pad-29" x="81695" y="120929"/><use xlink:href="#BCZSOGtu8PcW_pad-29" x="84255" y="120929"/><use xlink:href="#BCZSOGtu8PcW_pad-29" x="79135" y="135429"/><use xlink:href="#BCZSOGtu8PcW_pad-29" x="81695" y="135429"/><use xlink:href="#BCZSOGtu8PcW_pad-29" x="84255" y="135429"/><use xlink:href="#BCZSOGtu8PcW_pad-29" x="79135" y="120929"/><use xlink:href="#BCZSOGtu8PcW_pad-29" x="118718" y="83841"/><use xlink:href="#BCZSOGtu8PcW_pad-29" x="121278" y="83841"/><use xlink:href="#BCZSOGtu8PcW_pad-29" x="116158" y="98341"/><use xlink:href="#BCZSOGtu8PcW_pad-29" x="118718" y="98341"/><use xlink:href="#BCZSOGtu8PcW_pad-29" x="121278" y="98341"/><use xlink:href="#BCZSOGtu8PcW_pad-29" x="116158" y="83841"/><use xlink:href="#BCZSOGtu8PcW_pad-29" x="135159" y="118825"/><use xlink:href="#BCZSOGtu8PcW_pad-29" x="135159" y="121385"/><use xlink:href="#BCZSOGtu8PcW_pad-29" x="120659" y="116265"/><use xlink:href="#BCZSOGtu8PcW_pad-29" x="120659" y="118825"/><use xlink:href="#BCZSOGtu8PcW_pad-29" x="120659" y="121385"/><use xlink:href="#BCZSOGtu8PcW_pad-29" x="135159" y="116265"/><use xlink:href="#BCZSOGtu8PcW_pad-29" x="28984.95" y="24274.39"/><use xlink:href="#BCZSOGtu8PcW_pad-29" x="23864.95" y="9774.39"/><use xlink:href="#BCZSOGtu8PcW_pad-29" x="26424.95" y="9774.39"/><use xlink:href="#BCZSOGtu8PcW_pad-29" x="28984.95" y="9774.39"/><use xlink:href="#BCZSOGtu8PcW_pad-29" x="23864.95" y="24274.39"/><use xlink:href="#BCZSOGtu8PcW_pad-29" x="26424.95" y="24274.39"/><use xlink:href="#BCZSOGtu8PcW_pad-29" x="42310" y="9739"/><use xlink:href="#BCZSOGtu8PcW_pad-29" x="47430" y="24239"/><use xlink:href="#BCZSOGtu8PcW_pad-29" x="44870" y="24239"/><use xlink:href="#BCZSOGtu8PcW_pad-29" x="42310" y="24239"/><use xlink:href="#BCZSOGtu8PcW_pad-29" x="47430" y="9739"/><use xlink:href="#BCZSOGtu8PcW_pad-29" x="44870" y="9739"/><use xlink:href="#BCZSOGtu8PcW_pad-29" x="102832.95" y="24274.39"/><use xlink:href="#BCZSOGtu8PcW_pad-29" x="97712.95" y="9774.39"/><use xlink:href="#BCZSOGtu8PcW_pad-29" x="100272.95" y="9774.39"/><use xlink:href="#BCZSOGtu8PcW_pad-29" x="102832.95" y="9774.39"/><use xlink:href="#BCZSOGtu8PcW_pad-29" x="97712.95" y="24274.39"/><use xlink:href="#BCZSOGtu8PcW_pad-29" x="100272.95" y="24274.39"/><use xlink:href="#BCZSOGtu8PcW_pad-29" x="116158" y="9739"/><use xlink:href="#BCZSOGtu8PcW_pad-29" x="121278" y="24239"/><use xlink:href="#BCZSOGtu8PcW_pad-29" x="118718" y="24239"/><use xlink:href="#BCZSOGtu8PcW_pad-29" x="116158" y="24239"/><use xlink:href="#BCZSOGtu8PcW_pad-29" x="121278" y="9739"/><use xlink:href="#BCZSOGtu8PcW_pad-29" x="118718" y="9739"/><use xlink:href="#BCZSOGtu8PcW_pad-29" x="28984" y="61315"/><use xlink:href="#BCZSOGtu8PcW_pad-29" x="23864" y="46815"/><use xlink:href="#BCZSOGtu8PcW_pad-29" x="26424" y="46815"/><use xlink:href="#BCZSOGtu8PcW_pad-29" x="28984" y="46815"/><use xlink:href="#BCZSOGtu8PcW_pad-29" x="23864" y="61315"/><use xlink:href="#BCZSOGtu8PcW_pad-29" x="26424" y="61315"/><use xlink:href="#BCZSOGtu8PcW_pad-29" x="42260.05" y="46834.61"/><use xlink:href="#BCZSOGtu8PcW_pad-29" x="47380.05" y="61334.61"/><use xlink:href="#BCZSOGtu8PcW_pad-29" x="44820.05" y="61334.61"/><use xlink:href="#BCZSOGtu8PcW_pad-29" x="42260.05" y="61334.61"/><use xlink:href="#BCZSOGtu8PcW_pad-29" x="47380.05" y="46834.61"/><use xlink:href="#BCZSOGtu8PcW_pad-29" x="44820.05" y="46834.61"/><use xlink:href="#BCZSOGtu8PcW_pad-29" x="102832" y="61315"/><use xlink:href="#BCZSOGtu8PcW_pad-29" x="97712" y="46815"/><use xlink:href="#BCZSOGtu8PcW_pad-29" x="100272" y="46815"/><use xlink:href="#BCZSOGtu8PcW_pad-29" x="102832" y="46815"/><use xlink:href="#BCZSOGtu8PcW_pad-29" x="97712" y="61315"/><use xlink:href="#BCZSOGtu8PcW_pad-29" x="100272" y="61315"/><use xlink:href="#BCZSOGtu8PcW_pad-30" x="101779" y="139524"/><use xlink:href="#BCZSOGtu8PcW_pad-30" x="101779" y="136983.99"/><use xlink:href="#BCZSOGtu8PcW_pad-30" x="101779" y="134444"/><use xlink:href="#BCZSOGtu8PcW_pad-30" x="101779" y="131904.01"/><use xlink:href="#BCZSOGtu8PcW_pad-30" x="101779" y="129364"/><use xlink:href="#BCZSOGtu8PcW_pad-30" x="101779" y="126824"/><use xlink:href="#BCZSOGtu8PcW_pad-30" x="101779" y="124284"/><use xlink:href="#BCZSOGtu8PcW_pad-30" x="101779" y="121744"/><use xlink:href="#BCZSOGtu8PcW_pad-30" x="104319" y="121744"/><use xlink:href="#BCZSOGtu8PcW_pad-30" x="106859" y="121744"/><use xlink:href="#BCZSOGtu8PcW_pad-30" x="109399" y="121744"/><use xlink:href="#BCZSOGtu8PcW_pad-30" x="111939" y="121744"/><use xlink:href="#BCZSOGtu8PcW_pad-30" x="114479" y="121744"/><use xlink:href="#BCZSOGtu8PcW_pad-30" x="117019" y="121744"/><use xlink:href="#BCZSOGtu8PcW_pad-30" x="117019" y="124284"/><use xlink:href="#BCZSOGtu8PcW_pad-30" x="117019" y="126824"/><use xlink:href="#BCZSOGtu8PcW_pad-30" x="117019" y="129364"/><use xlink:href="#BCZSOGtu8PcW_pad-30" x="117019" y="131904.01"/><use xlink:href="#BCZSOGtu8PcW_pad-30" x="117019" y="134444"/><use xlink:href="#BCZSOGtu8PcW_pad-30" x="117019" y="136983.99"/><use xlink:href="#BCZSOGtu8PcW_pad-30" x="117019" y="139524"/><use xlink:href="#BCZSOGtu8PcW_pad-30" x="117019" y="142064"/><use xlink:href="#BCZSOGtu8PcW_pad-31" x="122239.05" y="54243"/><use xlink:href="#BCZSOGtu8PcW_pad-31" x="133639.05" y="54243"/><use xlink:href="#BCZSOGtu8PcW_pad-31" x="22853.94" y="90968"/><use xlink:href="#BCZSOGtu8PcW_pad-31" x="11453.95" y="90968"/><use xlink:href="#BCZSOGtu8PcW_pad-31" x="59777.94" y="90968"/><use xlink:href="#BCZSOGtu8PcW_pad-31" x="48377.95" y="90968"/><use xlink:href="#BCZSOGtu8PcW_pad-31" x="11467.05" y="128345"/><use xlink:href="#BCZSOGtu8PcW_pad-31" x="22867.05" y="128345"/><use xlink:href="#BCZSOGtu8PcW_pad-31" x="48391.05" y="128345"/><use xlink:href="#BCZSOGtu8PcW_pad-31" x="59791.05" y="128345"/><use xlink:href="#BCZSOGtu8PcW_pad-31" x="85301.95" y="90968"/><use xlink:href="#BCZSOGtu8PcW_pad-31" x="96701.95" y="90968"/><use xlink:href="#BCZSOGtu8PcW_pad-31" x="96715.05" y="128345"/><use xlink:href="#BCZSOGtu8PcW_pad-31" x="85315.05" y="128345"/><use xlink:href="#BCZSOGtu8PcW_pad-31" x="122225.95" y="90968"/><use xlink:href="#BCZSOGtu8PcW_pad-31" x="133625.95" y="90968"/><use xlink:href="#BCZSOGtu8PcW_pad-31" x="133639.05" y="128345"/><use xlink:href="#BCZSOGtu8PcW_pad-31" x="122239.05" y="128345"/><use xlink:href="#BCZSOGtu8PcW_pad-31" x="22853.94" y="16866"/><use xlink:href="#BCZSOGtu8PcW_pad-31" x="11453.95" y="16866"/><use xlink:href="#BCZSOGtu8PcW_pad-31" x="59777.94" y="16866"/><use xlink:href="#BCZSOGtu8PcW_pad-31" x="48377.95" y="16866"/><use xlink:href="#BCZSOGtu8PcW_pad-31" x="96701.95" y="16866"/><use xlink:href="#BCZSOGtu8PcW_pad-31" x="85301.95" y="16866"/><use xlink:href="#BCZSOGtu8PcW_pad-31" x="133625.95" y="16866"/><use xlink:href="#BCZSOGtu8PcW_pad-31" x="122225.95" y="16866"/><use xlink:href="#BCZSOGtu8PcW_pad-31" x="11467.05" y="54243"/><use xlink:href="#BCZSOGtu8PcW_pad-31" x="22867.05" y="54243"/><use xlink:href="#BCZSOGtu8PcW_pad-31" x="48391.05" y="54243"/><use xlink:href="#BCZSOGtu8PcW_pad-31" x="59791.05" y="54243"/><use xlink:href="#BCZSOGtu8PcW_pad-31" x="85315.05" y="54243"/><use xlink:href="#BCZSOGtu8PcW_pad-31" x="96715.05" y="54243"/><use xlink:href="#BCZSOGtu8PcW_pad-32" x="125439.05" y="46743"/><use xlink:href="#BCZSOGtu8PcW_pad-32" x="19653.95" y="98468"/><use xlink:href="#BCZSOGtu8PcW_pad-32" x="56577.95" y="98468"/><use xlink:href="#BCZSOGtu8PcW_pad-32" x="14667.05" y="120845"/><use xlink:href="#BCZSOGtu8PcW_pad-32" x="51591.05" y="120845"/><use xlink:href="#BCZSOGtu8PcW_pad-32" x="93501.95" y="98468"/><use xlink:href="#BCZSOGtu8PcW_pad-32" x="88515.05" y="120845"/><use xlink:href="#BCZSOGtu8PcW_pad-32" x="130425.95" y="98468"/><use xlink:href="#BCZSOGtu8PcW_pad-32" x="125439.05" y="120845"/><use xlink:href="#BCZSOGtu8PcW_pad-32" x="19653.95" y="24366"/><use xlink:href="#BCZSOGtu8PcW_pad-32" x="56577.95" y="24366"/><use xlink:href="#BCZSOGtu8PcW_pad-32" x="93501.95" y="24366"/><use xlink:href="#BCZSOGtu8PcW_pad-32" x="130425.95" y="24366"/><use xlink:href="#BCZSOGtu8PcW_pad-32" x="14667.05" y="46743"/><use xlink:href="#BCZSOGtu8PcW_pad-32" x="51591.05" y="46743"/><use xlink:href="#BCZSOGtu8PcW_pad-32" x="88515.05" y="46743"/><use xlink:href="#BCZSOGtu8PcW_pad-33" x="127939.05" y="46743"/><use xlink:href="#BCZSOGtu8PcW_pad-33" x="130439.06" y="46743"/><use xlink:href="#BCZSOGtu8PcW_pad-33" x="125439.05" y="61243"/><use xlink:href="#BCZSOGtu8PcW_pad-33" x="130439.06" y="61243"/><use xlink:href="#BCZSOGtu8PcW_pad-33" x="2425" y="49750"/><use xlink:href="#BCZSOGtu8PcW_pad-33" x="17153.95" y="98468"/><use xlink:href="#BCZSOGtu8PcW_pad-33" x="14653.95" y="98468"/><use xlink:href="#BCZSOGtu8PcW_pad-33" x="19653.95" y="83968"/><use xlink:href="#BCZSOGtu8PcW_pad-33" x="14653.95" y="83968"/><use xlink:href="#BCZSOGtu8PcW_pad-33" x="54077.95" y="98468"/><use xlink:href="#BCZSOGtu8PcW_pad-33" x="51577.95" y="98468"/><use xlink:href="#BCZSOGtu8PcW_pad-33" x="56577.95" y="83968"/><use xlink:href="#BCZSOGtu8PcW_pad-33" x="51577.95" y="83968"/><use xlink:href="#BCZSOGtu8PcW_pad-33" x="17167.05" y="120845"/><use xlink:href="#BCZSOGtu8PcW_pad-33" x="19667.05" y="120845"/><use xlink:href="#BCZSOGtu8PcW_pad-33" x="14667.05" y="135345"/><use xlink:href="#BCZSOGtu8PcW_pad-33" x="19667.05" y="135345"/><use xlink:href="#BCZSOGtu8PcW_pad-33" x="54091.05" y="120845"/><use xlink:href="#BCZSOGtu8PcW_pad-33" x="56591.05" y="120845"/><use xlink:href="#BCZSOGtu8PcW_pad-33" x="51591.05" y="135345"/><use xlink:href="#BCZSOGtu8PcW_pad-33" x="56591.05" y="135345"/><use xlink:href="#BCZSOGtu8PcW_pad-33" x="88501.95" y="83968"/><use xlink:href="#BCZSOGtu8PcW_pad-33" x="93501.95" y="83968"/><use xlink:href="#BCZSOGtu8PcW_pad-33" x="88501.95" y="98468"/><use xlink:href="#BCZSOGtu8PcW_pad-33" x="91001.95" y="98468"/><use xlink:href="#BCZSOGtu8PcW_pad-33" x="93515.05" y="135345"/><use xlink:href="#BCZSOGtu8PcW_pad-33" x="88515.05" y="135345"/><use xlink:href="#BCZSOGtu8PcW_pad-33" x="93515.05" y="120845"/><use xlink:href="#BCZSOGtu8PcW_pad-33" x="91015.05" y="120845"/><use xlink:href="#BCZSOGtu8PcW_pad-33" x="125425.95" y="83968"/><use xlink:href="#BCZSOGtu8PcW_pad-33" x="130425.95" y="83968"/><use xlink:href="#BCZSOGtu8PcW_pad-33" x="125425.95" y="98468"/><use xlink:href="#BCZSOGtu8PcW_pad-33" x="127925.95" y="98468"/><use xlink:href="#BCZSOGtu8PcW_pad-33" x="130439.06" y="135345"/><use xlink:href="#BCZSOGtu8PcW_pad-33" x="125439.05" y="135345"/><use xlink:href="#BCZSOGtu8PcW_pad-33" x="130439.06" y="120845"/><use xlink:href="#BCZSOGtu8PcW_pad-33" x="127939.05" y="120845"/><use xlink:href="#BCZSOGtu8PcW_pad-33" x="17153.95" y="24366"/><use xlink:href="#BCZSOGtu8PcW_pad-33" x="14653.95" y="24366"/><use xlink:href="#BCZSOGtu8PcW_pad-33" x="19653.95" y="9866"/><use xlink:href="#BCZSOGtu8PcW_pad-33" x="14653.95" y="9866"/><use xlink:href="#BCZSOGtu8PcW_pad-33" x="54077.95" y="24366"/><use xlink:href="#BCZSOGtu8PcW_pad-33" x="51577.95" y="24366"/><use xlink:href="#BCZSOGtu8PcW_pad-33" x="56577.95" y="9866"/><use xlink:href="#BCZSOGtu8PcW_pad-33" x="51577.95" y="9866"/><use xlink:href="#BCZSOGtu8PcW_pad-33" x="91001.95" y="24366"/><use xlink:href="#BCZSOGtu8PcW_pad-33" x="88501.95" y="24366"/><use xlink:href="#BCZSOGtu8PcW_pad-33" x="93501.95" y="9866"/><use xlink:href="#BCZSOGtu8PcW_pad-33" x="88501.95" y="9866"/><use xlink:href="#BCZSOGtu8PcW_pad-33" x="127925.95" y="24366"/><use xlink:href="#BCZSOGtu8PcW_pad-33" x="125425.95" y="24366"/><use xlink:href="#BCZSOGtu8PcW_pad-33" x="130425.95" y="9866"/><use xlink:href="#BCZSOGtu8PcW_pad-33" x="125425.95" y="9866"/><use xlink:href="#BCZSOGtu8PcW_pad-33" x="17167.05" y="46743"/><use xlink:href="#BCZSOGtu8PcW_pad-33" x="19667.05" y="46743"/><use xlink:href="#BCZSOGtu8PcW_pad-33" x="14667.05" y="61243"/><use xlink:href="#BCZSOGtu8PcW_pad-33" x="19667.05" y="61243"/><use xlink:href="#BCZSOGtu8PcW_pad-33" x="54091.05" y="46743"/><use xlink:href="#BCZSOGtu8PcW_pad-33" x="56591.05" y="46743"/><use xlink:href="#BCZSOGtu8PcW_pad-33" x="51591.05" y="61243"/><use xlink:href="#BCZSOGtu8PcW_pad-33" x="56591.05" y="61243"/><use xlink:href="#BCZSOGtu8PcW_pad-33" x="91015.05" y="46743"/><use xlink:href="#BCZSOGtu8PcW_pad-33" x="93515.05" y="46743"/><use xlink:href="#BCZSOGtu8PcW_pad-33" x="88515.05" y="61243"/><use xlink:href="#BCZSOGtu8PcW_pad-33" x="93515.05" y="61243"/><use xlink:href="#BCZSOGtu8PcW_pad-33" x="2425" y="99750"/><use xlink:href="#BCZSOGtu8PcW_pad-33" x="142575" y="45250"/><use xlink:href="#BCZSOGtu8PcW_pad-33" x="2425" y="74750"/><use xlink:href="#BCZSOGtu8PcW_pad-33" x="142575" y="70250"/><use xlink:href="#BCZSOGtu8PcW_pad-33" x="142575" y="95250"/><use xlink:href="#BCZSOGtu8PcW_pad-34" x="2425" y="45250"/><use xlink:href="#BCZSOGtu8PcW_pad-34" x="2425" y="95250"/><use xlink:href="#BCZSOGtu8PcW_pad-34" x="142575" y="49750"/><use xlink:href="#BCZSOGtu8PcW_pad-34" x="2425" y="70250"/><use xlink:href="#BCZSOGtu8PcW_pad-34" x="142575" y="74750"/><use xlink:href="#BCZSOGtu8PcW_pad-34" x="142575" y="99750"/><use xlink:href="#BCZSOGtu8PcW_pad-35" x="4925" y="44000"/><use xlink:href="#BCZSOGtu8PcW_pad-35" x="4925" y="51000"/><use xlink:href="#BCZSOGtu8PcW_pad-35" x="4925" y="94000"/><use xlink:href="#BCZSOGtu8PcW_pad-35" x="4925" y="101000"/><use xlink:href="#BCZSOGtu8PcW_pad-35" x="140075" y="51000"/><use xlink:href="#BCZSOGtu8PcW_pad-35" x="140075" y="44000"/><use xlink:href="#BCZSOGtu8PcW_pad-35" x="4925" y="69000"/><use xlink:href="#BCZSOGtu8PcW_pad-35" x="4925" y="76000"/><use xlink:href="#BCZSOGtu8PcW_pad-35" x="140075" y="76000"/><use xlink:href="#BCZSOGtu8PcW_pad-35" x="140075" y="69000"/><use xlink:href="#BCZSOGtu8PcW_pad-35" x="140075" y="101000"/><use xlink:href="#BCZSOGtu8PcW_pad-35" x="140075" y="94000"/><use xlink:href="#BCZSOGtu8PcW_pad-36" x="124607" y="142095.99"/><use xlink:href="#BCZSOGtu8PcW_pad-37" x="124607" y="138595.99"/><use xlink:href="#BCZSOGtu8PcW_pad-38" x="76944" y="114534.12"/><use xlink:href="#BCZSOGtu8PcW_pad-38" x="75136" y="117017"/><use xlink:href="#BCZSOGtu8PcW_pad-38" x="76989" y="117144"/><use xlink:href="#BCZSOGtu8PcW_pad-38" x="75175.82" y="115001"/><use xlink:href="#BCZSOGtu8PcW_pad-38" x="79254" y="130217"/><use xlink:href="#BCZSOGtu8PcW_pad-38" x="90995" y="100412"/><use xlink:href="#BCZSOGtu8PcW_pad-38" x="68436" y="118378"/><use xlink:href="#BCZSOGtu8PcW_pad-38" x="67108" y="118340"/><use xlink:href="#BCZSOGtu8PcW_pad-38" x="67092" y="114974"/><use xlink:href="#BCZSOGtu8PcW_pad-38" x="68357" y="114974"/><use xlink:href="#BCZSOGtu8PcW_pad-38" x="40611" y="32222"/><use xlink:href="#BCZSOGtu8PcW_pad-38" x="32962" y="40586"/><use xlink:href="#BCZSOGtu8PcW_pad-38" x="25423" y="53363"/><use xlink:href="#BCZSOGtu8PcW_pad-38" x="13915" y="67998"/><use xlink:href="#BCZSOGtu8PcW_pad-38" x="22296" y="75670"/><use xlink:href="#BCZSOGtu8PcW_pad-38" x="17222" y="101572"/><use xlink:href="#BCZSOGtu8PcW_pad-38" x="26145" y="92794"/><use xlink:href="#BCZSOGtu8PcW_pad-38" x="39411" y="104386"/><use xlink:href="#BCZSOGtu8PcW_pad-38" x="30870" y="111577"/><use xlink:href="#BCZSOGtu8PcW_pad-38" x="67137" y="111571"/><use xlink:href="#BCZSOGtu8PcW_pad-38" x="75661" y="104402"/><use xlink:href="#BCZSOGtu8PcW_pad-38" x="103222" y="111572"/><use xlink:href="#BCZSOGtu8PcW_pad-38" x="111911" y="104668"/><use xlink:href="#BCZSOGtu8PcW_pad-38" x="127874" y="101503"/><use xlink:href="#BCZSOGtu8PcW_pad-38" x="69212" y="40798"/><use xlink:href="#BCZSOGtu8PcW_pad-38" x="77961" y="33700"/><use xlink:href="#BCZSOGtu8PcW_pad-38" x="127633" y="43689"/><use xlink:href="#BCZSOGtu8PcW_pad-38" x="114127" y="33732"/><use xlink:href="#BCZSOGtu8PcW_pad-38" x="111830" y="40830"/><use xlink:href="#BCZSOGtu8PcW_pad-38" x="105471" y="40734"/><use xlink:href="#BCZSOGtu8PcW_pad-38" x="9281" y="74133"/><use xlink:href="#BCZSOGtu8PcW_pad-38" x="13664" y="72103"/><use xlink:href="#BCZSOGtu8PcW_pad-38" x="13676" y="72909"/><use xlink:href="#BCZSOGtu8PcW_pad-38" x="13294.56" y="74139.65"/><use xlink:href="#BCZSOGtu8PcW_pad-38" x="9601" y="72113"/><use xlink:href="#BCZSOGtu8PcW_pad-38" x="9281" y="72926"/><use xlink:href="#BCZSOGtu8PcW_pad-38" x="76343" y="30511"/><use xlink:href="#BCZSOGtu8PcW_pad-38" x="74992" y="30287"/><use xlink:href="#BCZSOGtu8PcW_pad-38" x="75017" y="28541"/><use xlink:href="#BCZSOGtu8PcW_pad-38" x="76338" y="28526.3"/><use xlink:href="#BCZSOGtu8PcW_pad-38" x="66365" y="30362"/><use xlink:href="#BCZSOGtu8PcW_pad-38" x="66414" y="28541"/><use xlink:href="#BCZSOGtu8PcW_pad-38" x="67942.7" y="28583.3"/><use xlink:href="#BCZSOGtu8PcW_pad-38" x="67985" y="30387"/><use xlink:href="#BCZSOGtu8PcW_pad-38" x="74738.46" y="101688.46"/><use xlink:href="#BCZSOGtu8PcW_pad-38" x="74609" y="99374"/><use xlink:href="#BCZSOGtu8PcW_pad-38" x="75701" y="101351"/><use xlink:href="#BCZSOGtu8PcW_pad-38" x="75742.5" y="98531.5"/><use xlink:href="#BCZSOGtu8PcW_pad-38" x="69174" y="98464"/><use xlink:href="#BCZSOGtu8PcW_pad-38" x="69200" y="100961"/><use xlink:href="#BCZSOGtu8PcW_pad-38" x="67770" y="100831"/><use xlink:href="#BCZSOGtu8PcW_pad-38" x="67770" y="98464"/><use xlink:href="#BCZSOGtu8PcW_pad-38" x="24266" y="74589"/><use xlink:href="#BCZSOGtu8PcW_pad-38" x="26311" y="74577"/><use xlink:href="#BCZSOGtu8PcW_pad-39" x="76386" y="47652"/><use xlink:href="#BCZSOGtu8PcW_pad-39" x="77546" y="47652"/><use xlink:href="#BCZSOGtu8PcW_pad-39" x="76301" y="50688"/><use xlink:href="#BCZSOGtu8PcW_pad-39" x="67504" y="50836"/><use xlink:href="#BCZSOGtu8PcW_pad-39" x="77516" y="50699"/><use xlink:href="#BCZSOGtu8PcW_pad-39" x="68938" y="50899"/><use xlink:href="#BCZSOGtu8PcW_pad-39" x="93521" y="86957"/><use xlink:href="#BCZSOGtu8PcW_pad-39" x="56612" y="86895"/><use xlink:href="#BCZSOGtu8PcW_pad-39" x="69003" y="47637"/><use xlink:href="#BCZSOGtu8PcW_pad-39" x="67663" y="47668"/><use xlink:href="#BCZSOGtu8PcW_pad-39" x="56613" y="12931"/><use xlink:href="#BCZSOGtu8PcW_pad-39" x="93486" y="12829"/><use xlink:href="#BCZSOGtu8PcW_pad-39" x="141438" y="72908"/><use xlink:href="#BCZSOGtu8PcW_pad-39" x="134169.01" y="72990"/><use xlink:href="#BCZSOGtu8PcW_pad-39" x="134169.01" y="74288"/><use xlink:href="#BCZSOGtu8PcW_pad-39" x="139621" y="72966"/><use xlink:href="#BCZSOGtu8PcW_pad-39" x="134216" y="71715"/><use xlink:href="#BCZSOGtu8PcW_pad-39" x="139598.01" y="71597"/><use xlink:href="#BCZSOGtu8PcW_pad-39" x="134200" y="12307"/><use xlink:href="#BCZSOGtu8PcW_pad-39" x="134024" y="48409"/><use xlink:href="#BCZSOGtu8PcW_pad-39" x="138733" y="48300"/><use xlink:href="#BCZSOGtu8PcW_pad-39" x="138541" y="12215"/><use xlink:href="#BCZSOGtu8PcW_pad-39" x="142134" y="107580"/><use xlink:href="#BCZSOGtu8PcW_pad-39" x="142194" y="110667"/><use xlink:href="#BCZSOGtu8PcW_pad-39" x="137225.01" y="110662"/><use xlink:href="#BCZSOGtu8PcW_pad-39" x="137218.99" y="107585"/></g></svg>