<svg version="1.1" xmlns="http://www.w3.org/2000/svg" xmlns:xlink="http://www.w3.org/1999/xlink" stroke-linecap="round" stroke-linejoin="round" stroke-width="0" fill-rule="evenodd" width="141.7mm" height="137.19101mm" viewBox="-2025.0 2527.5599999999977 149050.0 146788.15"><defs><rect x="-500" y="-450" width="1000" height="900" id="X4yc7cjVzOqM_pad-10"/><rect x="-400" y="-875" width="800" height="1750" id="X4yc7cjVzOqM_pad-17"/><rect x="-350" y="-875" width="700" height="1750" id="X4yc7cjVzOqM_pad-18"/><rect x="-450" y="-500" width="900" height="1000" id="X4yc7cjVzOqM_pad-20"/><rect x="-875" y="-400" width="1750" height="800" id="X4yc7cjVzOqM_pad-22"/><rect x="-875" y="-350" width="1750" height="700" id="X4yc7cjVzOqM_pad-23"/><g id="X4yc7cjVzOqM_pad-31"><rect x="-1200" y="-1300" width="2400" height="2600"/><rect x="0" y="-2500" width="0" height="5000"/><circle cx="0" cy="-1300" r="1200"/><circle cx="0" cy="-1300" r="1200"/><circle cx="0" cy="1300" r="1200"/><circle cx="0" cy="1300" r="1200"/></g><rect x="-775" y="-775" width="1550" height="1550" id="X4yc7cjVzOqM_pad-32"/><circle cx="0" cy="0" r="775" id="X4yc7cjVzOqM_pad-33"/><rect x="-775" y="-775" width="1550" height="1550" id="X4yc7cjVzOqM_pad-34"/><circle cx="0" cy="0" r="1150" id="X4yc7cjVzOqM_pad-35"/><rect x="-550" y="-500" width="1100" height="1000" id="X4yc7cjVzOqM_pad-47"/><g id="X4yc7cjVzOqM_pad-48"><polygon points="575.5,-325 575.5,325 -575.5,325 -575.5,-325"/><polygon points="675,-225.5 675,225.5 -675,225.5 -675,-225.5"/><circle cx="575.5" cy="225.5" r="99.5"/><circle cx="575.5" cy="-225.5" r="99.5"/><circle cx="-575.5" cy="-225.5" r="99.5"/><circle cx="-575.5" cy="225.5" r="99.5"/></g><rect x="-650" y="-550" width="1300" height="1100" id="X4yc7cjVzOqM_pad-49"/><rect x="-275" y="-500" width="550" height="1000" id="X4yc7cjVzOqM_pad-50"/><rect x="-550" y="-650" width="1100" height="1300" id="X4yc7cjVzOqM_pad-51"/><rect x="-900" y="-1300" width="1800" height="2600" id="X4yc7cjVzOqM_pad-52"/><rect x="-500" y="-550" width="1000" height="1100" id="X4yc7cjVzOqM_pad-53"/><rect x="-500" y="-275" width="1000" height="550" id="X4yc7cjVzOqM_pad-54"/><circle cx="0" cy="0" r="850" id="X4yc7cjVzOqM_pad-55"/><circle cx="0" cy="0" r="804" id="X4yc7cjVzOqM_pad-56"/><rect x="-650" y="-650" width="1300" height="1300" id="X4yc7cjVzOqM_pad-57"/><circle cx="0" cy="0" r="650" id="X4yc7cjVzOqM_pad-58"/></defs><g transform="translate(0,149303.01) scale(1,-1)" fill="currentColor" stroke="currentColor"><use xlink:href="#X4yc7cjVzOqM_pad-10" x="135524.99" y="109563"/><use xlink:href="#X4yc7cjVzOqM_pad-10" x="137225.01" y="109563"/><use xlink:href="#X4yc7cjVzOqM_pad-10" x="135522" y="106522"/><use xlink:href="#X4yc7cjVzOqM_pad-10" x="137222" y="106522"/><use xlink:href="#X4yc7cjVzOqM_pad-10" x="126442" y="106987"/><use xlink:href="#X4yc7cjVzOqM_pad-10" x="124742" y="106987"/><use xlink:href="#X4yc7cjVzOqM_pad-17" x="31628" y="33679"/><use xlink:href="#X4yc7cjVzOqM_pad-17" x="40618" y="33679"/><use xlink:href="#X4yc7cjVzOqM_pad-17" x="40618" y="39329"/><use xlink:href="#X4yc7cjVzOqM_pad-17" x="31628" y="39329"/><use xlink:href="#X4yc7cjVzOqM_pad-17" x="76995" y="105925"/><use xlink:href="#X4yc7cjVzOqM_pad-17" x="68005" y="105925"/><use xlink:href="#X4yc7cjVzOqM_pad-17" x="68005" y="111575"/><use xlink:href="#X4yc7cjVzOqM_pad-17" x="76995" y="111575"/><use xlink:href="#X4yc7cjVzOqM_pad-17" x="113245" y="105925"/><use xlink:href="#X4yc7cjVzOqM_pad-17" x="104255" y="105925"/><use xlink:href="#X4yc7cjVzOqM_pad-17" x="104255" y="111575"/><use xlink:href="#X4yc7cjVzOqM_pad-17" x="113245" y="111575"/><use xlink:href="#X4yc7cjVzOqM_pad-17" x="40745" y="105925"/><use xlink:href="#X4yc7cjVzOqM_pad-17" x="31755" y="105925"/><use xlink:href="#X4yc7cjVzOqM_pad-17" x="31755" y="111575"/><use xlink:href="#X4yc7cjVzOqM_pad-17" x="40745" y="111575"/><use xlink:href="#X4yc7cjVzOqM_pad-17" x="67878" y="33679"/><use xlink:href="#X4yc7cjVzOqM_pad-17" x="76868" y="33679"/><use xlink:href="#X4yc7cjVzOqM_pad-17" x="76868" y="39329"/><use xlink:href="#X4yc7cjVzOqM_pad-17" x="67878" y="39329"/><use xlink:href="#X4yc7cjVzOqM_pad-17" x="104128" y="33679"/><use xlink:href="#X4yc7cjVzOqM_pad-17" x="113118" y="33679"/><use xlink:href="#X4yc7cjVzOqM_pad-17" x="113118" y="39329"/><use xlink:href="#X4yc7cjVzOqM_pad-17" x="104128" y="39329"/><use xlink:href="#X4yc7cjVzOqM_pad-18" x="32948" y="33679"/><use xlink:href="#X4yc7cjVzOqM_pad-18" x="34218" y="33679"/><use xlink:href="#X4yc7cjVzOqM_pad-18" x="35488" y="33679"/><use xlink:href="#X4yc7cjVzOqM_pad-18" x="36758" y="33679"/><use xlink:href="#X4yc7cjVzOqM_pad-18" x="38028" y="33679"/><use xlink:href="#X4yc7cjVzOqM_pad-18" x="39298" y="33679"/><use xlink:href="#X4yc7cjVzOqM_pad-18" x="39298" y="39329"/><use xlink:href="#X4yc7cjVzOqM_pad-18" x="38028" y="39329"/><use xlink:href="#X4yc7cjVzOqM_pad-18" x="36758" y="39329"/><use xlink:href="#X4yc7cjVzOqM_pad-18" x="35488" y="39329"/><use xlink:href="#X4yc7cjVzOqM_pad-18" x="34218" y="39329"/><use xlink:href="#X4yc7cjVzOqM_pad-18" x="32948" y="39329"/><use xlink:href="#X4yc7cjVzOqM_pad-18" x="75675" y="105925"/><use xlink:href="#X4yc7cjVzOqM_pad-18" x="74405" y="105925"/><use xlink:href="#X4yc7cjVzOqM_pad-18" x="73135" y="105925"/><use xlink:href="#X4yc7cjVzOqM_pad-18" x="71865" y="105925"/><use xlink:href="#X4yc7cjVzOqM_pad-18" x="70595" y="105925"/><use xlink:href="#X4yc7cjVzOqM_pad-18" x="69325" y="105925"/><use xlink:href="#X4yc7cjVzOqM_pad-18" x="69325" y="111575"/><use xlink:href="#X4yc7cjVzOqM_pad-18" x="70595" y="111575"/><use xlink:href="#X4yc7cjVzOqM_pad-18" x="71865" y="111575"/><use xlink:href="#X4yc7cjVzOqM_pad-18" x="73135" y="111575"/><use xlink:href="#X4yc7cjVzOqM_pad-18" x="74405" y="111575"/><use xlink:href="#X4yc7cjVzOqM_pad-18" x="75675" y="111575"/><use xlink:href="#X4yc7cjVzOqM_pad-18" x="111925" y="105925"/><use xlink:href="#X4yc7cjVzOqM_pad-18" x="110655" y="105925"/><use xlink:href="#X4yc7cjVzOqM_pad-18" x="109385" y="105925"/><use xlink:href="#X4yc7cjVzOqM_pad-18" x="108115" y="105925"/><use xlink:href="#X4yc7cjVzOqM_pad-18" x="106845" y="105925"/><use xlink:href="#X4yc7cjVzOqM_pad-18" x="105575" y="105925"/><use xlink:href="#X4yc7cjVzOqM_pad-18" x="105575" y="111575"/><use xlink:href="#X4yc7cjVzOqM_pad-18" x="106845" y="111575"/><use xlink:href="#X4yc7cjVzOqM_pad-18" x="108115" y="111575"/><use xlink:href="#X4yc7cjVzOqM_pad-18" x="109385" y="111575"/><use xlink:href="#X4yc7cjVzOqM_pad-18" x="110655" y="111575"/><use xlink:href="#X4yc7cjVzOqM_pad-18" x="111925" y="111575"/><use xlink:href="#X4yc7cjVzOqM_pad-18" x="39425" y="105925"/><use xlink:href="#X4yc7cjVzOqM_pad-18" x="38155" y="105925"/><use xlink:href="#X4yc7cjVzOqM_pad-18" x="36885" y="105925"/><use xlink:href="#X4yc7cjVzOqM_pad-18" x="35615" y="105925"/><use xlink:href="#X4yc7cjVzOqM_pad-18" x="34345" y="105925"/><use xlink:href="#X4yc7cjVzOqM_pad-18" x="33075" y="105925"/><use xlink:href="#X4yc7cjVzOqM_pad-18" x="33075" y="111575"/><use xlink:href="#X4yc7cjVzOqM_pad-18" x="34345" y="111575"/><use xlink:href="#X4yc7cjVzOqM_pad-18" x="35615" y="111575"/><use xlink:href="#X4yc7cjVzOqM_pad-18" x="36885" y="111575"/><use xlink:href="#X4yc7cjVzOqM_pad-18" x="38155" y="111575"/><use xlink:href="#X4yc7cjVzOqM_pad-18" x="39425" y="111575"/><use xlink:href="#X4yc7cjVzOqM_pad-18" x="69198" y="33679"/><use xlink:href="#X4yc7cjVzOqM_pad-18" x="70468" y="33679"/><use xlink:href="#X4yc7cjVzOqM_pad-18" x="71738" y="33679"/><use xlink:href="#X4yc7cjVzOqM_pad-18" x="73008" y="33679"/><use xlink:href="#X4yc7cjVzOqM_pad-18" x="74278" y="33679"/><use xlink:href="#X4yc7cjVzOqM_pad-18" x="75548" y="33679"/><use xlink:href="#X4yc7cjVzOqM_pad-18" x="75548" y="39329"/><use xlink:href="#X4yc7cjVzOqM_pad-18" x="74278" y="39329"/><use xlink:href="#X4yc7cjVzOqM_pad-18" x="73008" y="39329"/><use xlink:href="#X4yc7cjVzOqM_pad-18" x="71738" y="39329"/><use xlink:href="#X4yc7cjVzOqM_pad-18" x="70468" y="39329"/><use xlink:href="#X4yc7cjVzOqM_pad-18" x="69198" y="39329"/><use xlink:href="#X4yc7cjVzOqM_pad-18" x="105448" y="33679"/><use xlink:href="#X4yc7cjVzOqM_pad-18" x="106718" y="33679"/><use xlink:href="#X4yc7cjVzOqM_pad-18" x="107988" y="33679"/><use xlink:href="#X4yc7cjVzOqM_pad-18" x="109258" y="33679"/><use xlink:href="#X4yc7cjVzOqM_pad-18" x="110528" y="33679"/><use xlink:href="#X4yc7cjVzOqM_pad-18" x="111798" y="33679"/><use xlink:href="#X4yc7cjVzOqM_pad-18" x="111798" y="39329"/><use xlink:href="#X4yc7cjVzOqM_pad-18" x="110528" y="39329"/><use xlink:href="#X4yc7cjVzOqM_pad-18" x="109258" y="39329"/><use xlink:href="#X4yc7cjVzOqM_pad-18" x="107988" y="39329"/><use xlink:href="#X4yc7cjVzOqM_pad-18" x="106718" y="39329"/><use xlink:href="#X4yc7cjVzOqM_pad-18" x="105448" y="39329"/><use xlink:href="#X4yc7cjVzOqM_pad-20" x="132362" y="115366"/><use xlink:href="#X4yc7cjVzOqM_pad-20" x="132362" y="117066"/><use xlink:href="#X4yc7cjVzOqM_pad-20" x="113113" y="115826"/><use xlink:href="#X4yc7cjVzOqM_pad-20" x="113113" y="114126"/><use xlink:href="#X4yc7cjVzOqM_pad-20" x="111878" y="115824"/><use xlink:href="#X4yc7cjVzOqM_pad-20" x="111878" y="114124"/><use xlink:href="#X4yc7cjVzOqM_pad-22" x="20825" y="76995"/><use xlink:href="#X4yc7cjVzOqM_pad-22" x="20825" y="68005"/><use xlink:href="#X4yc7cjVzOqM_pad-22" x="15175" y="68005"/><use xlink:href="#X4yc7cjVzOqM_pad-22" x="15175" y="76995"/><use xlink:href="#X4yc7cjVzOqM_pad-23" x="20825" y="75675"/><use xlink:href="#X4yc7cjVzOqM_pad-23" x="20825" y="74405"/><use xlink:href="#X4yc7cjVzOqM_pad-23" x="20825" y="73135"/><use xlink:href="#X4yc7cjVzOqM_pad-23" x="20825" y="71865"/><use xlink:href="#X4yc7cjVzOqM_pad-23" x="20825" y="70595"/><use xlink:href="#X4yc7cjVzOqM_pad-23" x="20825" y="69325"/><use xlink:href="#X4yc7cjVzOqM_pad-23" x="15175" y="69325"/><use xlink:href="#X4yc7cjVzOqM_pad-23" x="15175" y="70595"/><use xlink:href="#X4yc7cjVzOqM_pad-23" x="15175" y="71865"/><use xlink:href="#X4yc7cjVzOqM_pad-23" x="15175" y="73135"/><use xlink:href="#X4yc7cjVzOqM_pad-23" x="15175" y="74405"/><use xlink:href="#X4yc7cjVzOqM_pad-23" x="15175" y="75675"/><use xlink:href="#X4yc7cjVzOqM_pad-31" x="122239.05" y="54243"/><use xlink:href="#X4yc7cjVzOqM_pad-31" x="133639.05" y="54243"/><use xlink:href="#X4yc7cjVzOqM_pad-31" x="22853.94" y="90968"/><use xlink:href="#X4yc7cjVzOqM_pad-31" x="11453.95" y="90968"/><use xlink:href="#X4yc7cjVzOqM_pad-31" x="59777.94" y="90968"/><use xlink:href="#X4yc7cjVzOqM_pad-31" x="48377.95" y="90968"/><use xlink:href="#X4yc7cjVzOqM_pad-31" x="11467.05" y="128345"/><use xlink:href="#X4yc7cjVzOqM_pad-31" x="22867.05" y="128345"/><use xlink:href="#X4yc7cjVzOqM_pad-31" x="48391.05" y="128345"/><use xlink:href="#X4yc7cjVzOqM_pad-31" x="59791.05" y="128345"/><use xlink:href="#X4yc7cjVzOqM_pad-31" x="85301.95" y="90968"/><use xlink:href="#X4yc7cjVzOqM_pad-31" x="96701.95" y="90968"/><use xlink:href="#X4yc7cjVzOqM_pad-31" x="96715.05" y="128345"/><use xlink:href="#X4yc7cjVzOqM_pad-31" x="85315.05" y="128345"/><use xlink:href="#X4yc7cjVzOqM_pad-31" x="122225.95" y="90968"/><use xlink:href="#X4yc7cjVzOqM_pad-31" x="133625.95" y="90968"/><use xlink:href="#X4yc7cjVzOqM_pad-31" x="133639.05" y="128345"/><use xlink:href="#X4yc7cjVzOqM_pad-31" x="122239.05" y="128345"/><use xlink:href="#X4yc7cjVzOqM_pad-31" x="22853.94" y="16866"/><use xlink:href="#X4yc7cjVzOqM_pad-31" x="11453.95" y="16866"/><use xlink:href="#X4yc7cjVzOqM_pad-31" x="59777.94" y="16866"/><use xlink:href="#X4yc7cjVzOqM_pad-31" x="48377.95" y="16866"/><use xlink:href="#X4yc7cjVzOqM_pad-31" x="96701.95" y="16866"/><use xlink:href="#X4yc7cjVzOqM_pad-31" x="85301.95" y="16866"/><use xlink:href="#X4yc7cjVzOqM_pad-31" x="133625.95" y="16866"/><use xlink:href="#X4yc7cjVzOqM_pad-31" x="122225.95" y="16866"/><use xlink:href="#X4yc7cjVzOqM_pad-31" x="11467.05" y="54243"/><use xlink:href="#X4yc7cjVzOqM_pad-31" x="22867.05" y="54243"/><use xlink:href="#X4yc7cjVzOqM_pad-31" x="48391.05" y="54243"/><use xlink:href="#X4yc7cjVzOqM_pad-31" x="59791.05" y="54243"/><use xlink:href="#X4yc7cjVzOqM_pad-31" x="85315.05" y="54243"/><use xlink:href="#X4yc7cjVzOqM_pad-31" x="96715.05" y="54243"/><use xlink:href="#X4yc7cjVzOqM_pad-32" x="125439.05" y="46743"/><use xlink:href="#X4yc7cjVzOqM_pad-32" x="19653.95" y="98468"/><use xlink:href="#X4yc7cjVzOqM_pad-32" x="56577.95" y="98468"/><use xlink:href="#X4yc7cjVzOqM_pad-32" x="14667.05" y="120845"/><use xlink:href="#X4yc7cjVzOqM_pad-32" x="51591.05" y="120845"/><use xlink:href="#X4yc7cjVzOqM_pad-32" x="93501.95" y="98468"/><use xlink:href="#X4yc7cjVzOqM_pad-32" x="88515.05" y="120845"/><use xlink:href="#X4yc7cjVzOqM_pad-32" x="130425.95" y="98468"/><use xlink:href="#X4yc7cjVzOqM_pad-32" x="125439.05" y="120845"/><use xlink:href="#X4yc7cjVzOqM_pad-32" x="19653.95" y="24366"/><use xlink:href="#X4yc7cjVzOqM_pad-32" x="56577.95" y="24366"/><use xlink:href="#X4yc7cjVzOqM_pad-32" x="93501.95" y="24366"/><use xlink:href="#X4yc7cjVzOqM_pad-32" x="130425.95" y="24366"/><use xlink:href="#X4yc7cjVzOqM_pad-32" x="14667.05" y="46743"/><use xlink:href="#X4yc7cjVzOqM_pad-32" x="51591.05" y="46743"/><use xlink:href="#X4yc7cjVzOqM_pad-32" x="88515.05" y="46743"/><use xlink:href="#X4yc7cjVzOqM_pad-33" x="127939.05" y="46743"/><use xlink:href="#X4yc7cjVzOqM_pad-33" x="130439.06" y="46743"/><use xlink:href="#X4yc7cjVzOqM_pad-33" x="125439.05" y="61243"/><use xlink:href="#X4yc7cjVzOqM_pad-33" x="130439.06" y="61243"/><use xlink:href="#X4yc7cjVzOqM_pad-33" x="2425" y="49750"/><use xlink:href="#X4yc7cjVzOqM_pad-33" x="17153.95" y="98468"/><use xlink:href="#X4yc7cjVzOqM_pad-33" x="14653.95" y="98468"/><use xlink:href="#X4yc7cjVzOqM_pad-33" x="19653.95" y="83968"/><use xlink:href="#X4yc7cjVzOqM_pad-33" x="14653.95" y="83968"/><use xlink:href="#X4yc7cjVzOqM_pad-33" x="54077.95" y="98468"/><use xlink:href="#X4yc7cjVzOqM_pad-33" x="51577.95" y="98468"/><use xlink:href="#X4yc7cjVzOqM_pad-33" x="56577.95" y="83968"/><use xlink:href="#X4yc7cjVzOqM_pad-33" x="51577.95" y="83968"/><use xlink:href="#X4yc7cjVzOqM_pad-33" x="17167.05" y="120845"/><use xlink:href="#X4yc7cjVzOqM_pad-33" x="19667.05" y="120845"/><use xlink:href="#X4yc7cjVzOqM_pad-33" x="14667.05" y="135345"/><use xlink:href="#X4yc7cjVzOqM_pad-33" x="19667.05" y="135345"/><use xlink:href="#X4yc7cjVzOqM_pad-33" x="54091.05" y="120845"/><use xlink:href="#X4yc7cjVzOqM_pad-33" x="56591.05" y="120845"/><use xlink:href="#X4yc7cjVzOqM_pad-33" x="51591.05" y="135345"/><use xlink:href="#X4yc7cjVzOqM_pad-33" x="56591.05" y="135345"/><use xlink:href="#X4yc7cjVzOqM_pad-33" x="88501.95" y="83968"/><use xlink:href="#X4yc7cjVzOqM_pad-33" x="93501.95" y="83968"/><use xlink:href="#X4yc7cjVzOqM_pad-33" x="88501.95" y="98468"/><use xlink:href="#X4yc7cjVzOqM_pad-33" x="91001.95" y="98468"/><use xlink:href="#X4yc7cjVzOqM_pad-33" x="93515.05" y="135345"/><use xlink:href="#X4yc7cjVzOqM_pad-33" x="88515.05" y="135345"/><use xlink:href="#X4yc7cjVzOqM_pad-33" x="93515.05" y="120845"/><use xlink:href="#X4yc7cjVzOqM_pad-33" x="91015.05" y="120845"/><use xlink:href="#X4yc7cjVzOqM_pad-33" x="125425.95" y="83968"/><use xlink:href="#X4yc7cjVzOqM_pad-33" x="130425.95" y="83968"/><use xlink:href="#X4yc7cjVzOqM_pad-33" x="125425.95" y="98468"/><use xlink:href="#X4yc7cjVzOqM_pad-33" x="127925.95" y="98468"/><use xlink:href="#X4yc7cjVzOqM_pad-33" x="130439.06" y="135345"/><use xlink:href="#X4yc7cjVzOqM_pad-33" x="125439.05" y="135345"/><use xlink:href="#X4yc7cjVzOqM_pad-33" x="130439.06" y="120845"/><use xlink:href="#X4yc7cjVzOqM_pad-33" x="127939.05" y="120845"/><use xlink:href="#X4yc7cjVzOqM_pad-33" x="17153.95" y="24366"/><use xlink:href="#X4yc7cjVzOqM_pad-33" x="14653.95" y="24366"/><use xlink:href="#X4yc7cjVzOqM_pad-33" x="19653.95" y="9866"/><use xlink:href="#X4yc7cjVzOqM_pad-33" x="14653.95" y="9866"/><use xlink:href="#X4yc7cjVzOqM_pad-33" x="54077.95" y="24366"/><use xlink:href="#X4yc7cjVzOqM_pad-33" x="51577.95" y="24366"/><use xlink:href="#X4yc7cjVzOqM_pad-33" x="56577.95" y="9866"/><use xlink:href="#X4yc7cjVzOqM_pad-33" x="51577.95" y="9866"/><use xlink:href="#X4yc7cjVzOqM_pad-33" x="91001.95" y="24366"/><use xlink:href="#X4yc7cjVzOqM_pad-33" x="88501.95" y="24366"/><use xlink:href="#X4yc7cjVzOqM_pad-33" x="93501.95" y="9866"/><use xlink:href="#X4yc7cjVzOqM_pad-33" x="88501.95" y="9866"/><use xlink:href="#X4yc7cjVzOqM_pad-33" x="127925.95" y="24366"/><use xlink:href="#X4yc7cjVzOqM_pad-33" x="125425.95" y="24366"/><use xlink:href="#X4yc7cjVzOqM_pad-33" x="130425.95" y="9866"/><use xlink:href="#X4yc7cjVzOqM_pad-33" x="125425.95" y="9866"/><use xlink:href="#X4yc7cjVzOqM_pad-33" x="17167.05" y="46743"/><use xlink:href="#X4yc7cjVzOqM_pad-33" x="19667.05" y="46743"/><use xlink:href="#X4yc7cjVzOqM_pad-33" x="14667.05" y="61243"/><use xlink:href="#X4yc7cjVzOqM_pad-33" x="19667.05" y="61243"/><use xlink:href="#X4yc7cjVzOqM_pad-33" x="54091.05" y="46743"/><use xlink:href="#X4yc7cjVzOqM_pad-33" x="56591.05" y="46743"/><use xlink:href="#X4yc7cjVzOqM_pad-33" x="51591.05" y="61243"/><use xlink:href="#X4yc7cjVzOqM_pad-33" x="56591.05" y="61243"/><use xlink:href="#X4yc7cjVzOqM_pad-33" x="91015.05" y="46743"/><use xlink:href="#X4yc7cjVzOqM_pad-33" x="93515.05" y="46743"/><use xlink:href="#X4yc7cjVzOqM_pad-33" x="88515.05" y="61243"/><use xlink:href="#X4yc7cjVzOqM_pad-33" x="93515.05" y="61243"/><use xlink:href="#X4yc7cjVzOqM_pad-33" x="2425" y="99750"/><use xlink:href="#X4yc7cjVzOqM_pad-33" x="142575" y="45250"/><use xlink:href="#X4yc7cjVzOqM_pad-33" x="2425" y="74750"/><use xlink:href="#X4yc7cjVzOqM_pad-33" x="142575" y="70250"/><use xlink:href="#X4yc7cjVzOqM_pad-33" x="142575" y="95250"/><use xlink:href="#X4yc7cjVzOqM_pad-34" x="2425" y="45250"/><use xlink:href="#X4yc7cjVzOqM_pad-34" x="2425" y="95250"/><use xlink:href="#X4yc7cjVzOqM_pad-34" x="142575" y="49750"/><use xlink:href="#X4yc7cjVzOqM_pad-34" x="2425" y="70250"/><use xlink:href="#X4yc7cjVzOqM_pad-34" x="142575" y="74750"/><use xlink:href="#X4yc7cjVzOqM_pad-34" x="142575" y="99750"/><use xlink:href="#X4yc7cjVzOqM_pad-35" x="4925" y="44000"/><use xlink:href="#X4yc7cjVzOqM_pad-35" x="4925" y="51000"/><use xlink:href="#X4yc7cjVzOqM_pad-35" x="4925" y="94000"/><use xlink:href="#X4yc7cjVzOqM_pad-35" x="4925" y="101000"/><use xlink:href="#X4yc7cjVzOqM_pad-35" x="140075" y="51000"/><use xlink:href="#X4yc7cjVzOqM_pad-35" x="140075" y="44000"/><use xlink:href="#X4yc7cjVzOqM_pad-35" x="4925" y="69000"/><use xlink:href="#X4yc7cjVzOqM_pad-35" x="4925" y="76000"/><use xlink:href="#X4yc7cjVzOqM_pad-35" x="140075" y="76000"/><use xlink:href="#X4yc7cjVzOqM_pad-35" x="140075" y="69000"/><use xlink:href="#X4yc7cjVzOqM_pad-35" x="140075" y="101000"/><use xlink:href="#X4yc7cjVzOqM_pad-35" x="140075" y="94000"/><use xlink:href="#X4yc7cjVzOqM_pad-47" x="119738" y="20722"/><use xlink:href="#X4yc7cjVzOqM_pad-47" x="119738" y="19372"/><use xlink:href="#X4yc7cjVzOqM_pad-47" x="135384.99" y="111925"/><use xlink:href="#X4yc7cjVzOqM_pad-47" x="135384.99" y="113275"/><use xlink:href="#X4yc7cjVzOqM_pad-47" x="26138" y="94045"/><use xlink:href="#X4yc7cjVzOqM_pad-47" x="26138" y="95395"/><use xlink:href="#X4yc7cjVzOqM_pad-47" x="62963" y="88764"/><use xlink:href="#X4yc7cjVzOqM_pad-47" x="62963" y="87414"/><use xlink:href="#X4yc7cjVzOqM_pad-47" x="30411" y="129940"/><use xlink:href="#X4yc7cjVzOqM_pad-47" x="30411" y="131289.99"/><use xlink:href="#X4yc7cjVzOqM_pad-47" x="63313" y="133935"/><use xlink:href="#X4yc7cjVzOqM_pad-47" x="63313" y="132585.01"/><use xlink:href="#X4yc7cjVzOqM_pad-47" x="23325" y="75661"/><use xlink:href="#X4yc7cjVzOqM_pad-47" x="23325" y="77011"/><use xlink:href="#X4yc7cjVzOqM_pad-47" x="81943" y="92724"/><use xlink:href="#X4yc7cjVzOqM_pad-47" x="81943" y="94074"/><use xlink:href="#X4yc7cjVzOqM_pad-47" x="80507" y="131151"/><use xlink:href="#X4yc7cjVzOqM_pad-47" x="80507" y="132501.01"/><use xlink:href="#X4yc7cjVzOqM_pad-47" x="118885" y="94106"/><use xlink:href="#X4yc7cjVzOqM_pad-47" x="118885" y="95456"/><use xlink:href="#X4yc7cjVzOqM_pad-47" x="80515" y="125680"/><use xlink:href="#X4yc7cjVzOqM_pad-47" x="80515" y="124330"/><use xlink:href="#X4yc7cjVzOqM_pad-47" x="25499" y="20186"/><use xlink:href="#X4yc7cjVzOqM_pad-47" x="25499" y="18836"/><use xlink:href="#X4yc7cjVzOqM_pad-47" x="62454" y="21497"/><use xlink:href="#X4yc7cjVzOqM_pad-47" x="62454" y="20147"/><use xlink:href="#X4yc7cjVzOqM_pad-47" x="82670" y="21750"/><use xlink:href="#X4yc7cjVzOqM_pad-47" x="82670" y="20400"/><use xlink:href="#X4yc7cjVzOqM_pad-47" x="25457" y="50858"/><use xlink:href="#X4yc7cjVzOqM_pad-47" x="25457" y="52208"/><use xlink:href="#X4yc7cjVzOqM_pad-47" x="62750" y="57220"/><use xlink:href="#X4yc7cjVzOqM_pad-47" x="62750" y="55870"/><use xlink:href="#X4yc7cjVzOqM_pad-47" x="82673" y="57020"/><use xlink:href="#X4yc7cjVzOqM_pad-47" x="82673" y="55670"/><use xlink:href="#X4yc7cjVzOqM_pad-47" x="119391" y="50706"/><use xlink:href="#X4yc7cjVzOqM_pad-47" x="119391" y="52056"/><use xlink:href="#X4yc7cjVzOqM_pad-47" x="8557" y="70700"/><use xlink:href="#X4yc7cjVzOqM_pad-47" x="8557" y="69350"/><use xlink:href="#X4yc7cjVzOqM_pad-48" x="133526.99" y="105738"/><use xlink:href="#X4yc7cjVzOqM_pad-48" x="133526.99" y="107008"/><use xlink:href="#X4yc7cjVzOqM_pad-48" x="133526.99" y="108278"/><use xlink:href="#X4yc7cjVzOqM_pad-48" x="133526.99" y="109548"/><use xlink:href="#X4yc7cjVzOqM_pad-48" x="133526.99" y="110818"/><use xlink:href="#X4yc7cjVzOqM_pad-48" x="133526.99" y="112088"/><use xlink:href="#X4yc7cjVzOqM_pad-48" x="133526.99" y="113358"/><use xlink:href="#X4yc7cjVzOqM_pad-48" x="128276.99" y="105738"/><use xlink:href="#X4yc7cjVzOqM_pad-48" x="128276.99" y="107008"/><use xlink:href="#X4yc7cjVzOqM_pad-48" x="128276.99" y="108278"/><use xlink:href="#X4yc7cjVzOqM_pad-48" x="128276.99" y="109548"/><use xlink:href="#X4yc7cjVzOqM_pad-48" x="128276.99" y="110818"/><use xlink:href="#X4yc7cjVzOqM_pad-48" x="128276.99" y="112088"/><use xlink:href="#X4yc7cjVzOqM_pad-48" x="128276.99" y="113358"/><use xlink:href="#X4yc7cjVzOqM_pad-49" x="137854" y="118194"/><use xlink:href="#X4yc7cjVzOqM_pad-49" x="137854" y="116194"/><use xlink:href="#X4yc7cjVzOqM_pad-50" x="36523.01" y="43604"/><use xlink:href="#X4yc7cjVzOqM_pad-50" x="37323" y="43604"/><use xlink:href="#X4yc7cjVzOqM_pad-50" x="34923.01" y="43604"/><use xlink:href="#X4yc7cjVzOqM_pad-50" x="35723.01" y="43604"/><use xlink:href="#X4yc7cjVzOqM_pad-50" x="35723.01" y="41904"/><use xlink:href="#X4yc7cjVzOqM_pad-50" x="34923.01" y="41904"/><use xlink:href="#X4yc7cjVzOqM_pad-50" x="37323" y="41904"/><use xlink:href="#X4yc7cjVzOqM_pad-50" x="36523.01" y="41904"/><use xlink:href="#X4yc7cjVzOqM_pad-50" x="72900" y="114150"/><use xlink:href="#X4yc7cjVzOqM_pad-50" x="73700" y="114150"/><use xlink:href="#X4yc7cjVzOqM_pad-50" x="71300.01" y="114150"/><use xlink:href="#X4yc7cjVzOqM_pad-50" x="72100.01" y="114150"/><use xlink:href="#X4yc7cjVzOqM_pad-50" x="72100.01" y="115850"/><use xlink:href="#X4yc7cjVzOqM_pad-50" x="71300.01" y="115850"/><use xlink:href="#X4yc7cjVzOqM_pad-50" x="73700" y="115850"/><use xlink:href="#X4yc7cjVzOqM_pad-50" x="72900" y="115850"/><use xlink:href="#X4yc7cjVzOqM_pad-50" x="109150.01" y="114150"/><use xlink:href="#X4yc7cjVzOqM_pad-50" x="109950" y="114150"/><use xlink:href="#X4yc7cjVzOqM_pad-50" x="107550.01" y="114150"/><use xlink:href="#X4yc7cjVzOqM_pad-50" x="108350.01" y="114150"/><use xlink:href="#X4yc7cjVzOqM_pad-50" x="108350.01" y="115850"/><use xlink:href="#X4yc7cjVzOqM_pad-50" x="107550.01" y="115850"/><use xlink:href="#X4yc7cjVzOqM_pad-50" x="109950" y="115850"/><use xlink:href="#X4yc7cjVzOqM_pad-50" x="109150.01" y="115850"/><use xlink:href="#X4yc7cjVzOqM_pad-50" x="36650.01" y="114150"/><use xlink:href="#X4yc7cjVzOqM_pad-50" x="37450" y="114150"/><use xlink:href="#X4yc7cjVzOqM_pad-50" x="35050.01" y="114150"/><use xlink:href="#X4yc7cjVzOqM_pad-50" x="35850.01" y="114150"/><use xlink:href="#X4yc7cjVzOqM_pad-50" x="35850.01" y="115850"/><use xlink:href="#X4yc7cjVzOqM_pad-50" x="35050.01" y="115850"/><use xlink:href="#X4yc7cjVzOqM_pad-50" x="37450" y="115850"/><use xlink:href="#X4yc7cjVzOqM_pad-50" x="36650.01" y="115850"/><use xlink:href="#X4yc7cjVzOqM_pad-50" x="72100" y="103350"/><use xlink:href="#X4yc7cjVzOqM_pad-50" x="71300" y="103350"/><use xlink:href="#X4yc7cjVzOqM_pad-50" x="73699.99" y="103350"/><use xlink:href="#X4yc7cjVzOqM_pad-50" x="72899.99" y="103350"/><use xlink:href="#X4yc7cjVzOqM_pad-50" x="72899.99" y="101650"/><use xlink:href="#X4yc7cjVzOqM_pad-50" x="73699.99" y="101650"/><use xlink:href="#X4yc7cjVzOqM_pad-50" x="71300" y="101650"/><use xlink:href="#X4yc7cjVzOqM_pad-50" x="72100" y="101650"/><use xlink:href="#X4yc7cjVzOqM_pad-50" x="108350" y="103350"/><use xlink:href="#X4yc7cjVzOqM_pad-50" x="107550" y="103350"/><use xlink:href="#X4yc7cjVzOqM_pad-50" x="109949.99" y="103350"/><use xlink:href="#X4yc7cjVzOqM_pad-50" x="109150" y="103350"/><use xlink:href="#X4yc7cjVzOqM_pad-50" x="109150" y="101650"/><use xlink:href="#X4yc7cjVzOqM_pad-50" x="109949.99" y="101650"/><use xlink:href="#X4yc7cjVzOqM_pad-50" x="107550" y="101650"/><use xlink:href="#X4yc7cjVzOqM_pad-50" x="108350" y="101650"/><use xlink:href="#X4yc7cjVzOqM_pad-50" x="35850" y="103350"/><use xlink:href="#X4yc7cjVzOqM_pad-50" x="35050" y="103350"/><use xlink:href="#X4yc7cjVzOqM_pad-50" x="37449.99" y="103350"/><use xlink:href="#X4yc7cjVzOqM_pad-50" x="36650" y="103350"/><use xlink:href="#X4yc7cjVzOqM_pad-50" x="36650" y="101650"/><use xlink:href="#X4yc7cjVzOqM_pad-50" x="37449.99" y="101650"/><use xlink:href="#X4yc7cjVzOqM_pad-50" x="35050" y="101650"/><use xlink:href="#X4yc7cjVzOqM_pad-50" x="35850" y="101650"/><use xlink:href="#X4yc7cjVzOqM_pad-50" x="71973" y="29404"/><use xlink:href="#X4yc7cjVzOqM_pad-50" x="71173" y="29404"/><use xlink:href="#X4yc7cjVzOqM_pad-50" x="73572.99" y="29404"/><use xlink:href="#X4yc7cjVzOqM_pad-50" x="72772.99" y="29404"/><use xlink:href="#X4yc7cjVzOqM_pad-50" x="72772.99" y="31104"/><use xlink:href="#X4yc7cjVzOqM_pad-50" x="73572.99" y="31104"/><use xlink:href="#X4yc7cjVzOqM_pad-50" x="71173" y="31104"/><use xlink:href="#X4yc7cjVzOqM_pad-50" x="71973" y="31104"/><use xlink:href="#X4yc7cjVzOqM_pad-50" x="108223" y="29404"/><use xlink:href="#X4yc7cjVzOqM_pad-50" x="107423" y="29404"/><use xlink:href="#X4yc7cjVzOqM_pad-50" x="109822.99" y="29404"/><use xlink:href="#X4yc7cjVzOqM_pad-50" x="109023" y="29404"/><use xlink:href="#X4yc7cjVzOqM_pad-50" x="109023" y="31104"/><use xlink:href="#X4yc7cjVzOqM_pad-50" x="109822.99" y="31104"/><use xlink:href="#X4yc7cjVzOqM_pad-50" x="107423" y="31104"/><use xlink:href="#X4yc7cjVzOqM_pad-50" x="108223" y="31104"/><use xlink:href="#X4yc7cjVzOqM_pad-50" x="35723" y="29404"/><use xlink:href="#X4yc7cjVzOqM_pad-50" x="34923" y="29404"/><use xlink:href="#X4yc7cjVzOqM_pad-50" x="37322.99" y="29404"/><use xlink:href="#X4yc7cjVzOqM_pad-50" x="36523" y="29404"/><use xlink:href="#X4yc7cjVzOqM_pad-50" x="36523" y="31104"/><use xlink:href="#X4yc7cjVzOqM_pad-50" x="37322.99" y="31104"/><use xlink:href="#X4yc7cjVzOqM_pad-50" x="34923" y="31104"/><use xlink:href="#X4yc7cjVzOqM_pad-50" x="35723" y="31104"/><use xlink:href="#X4yc7cjVzOqM_pad-50" x="72773" y="43604"/><use xlink:href="#X4yc7cjVzOqM_pad-50" x="73573" y="43604"/><use xlink:href="#X4yc7cjVzOqM_pad-50" x="71173.01" y="43604"/><use xlink:href="#X4yc7cjVzOqM_pad-50" x="71973.01" y="43604"/><use xlink:href="#X4yc7cjVzOqM_pad-50" x="71973.01" y="41904"/><use xlink:href="#X4yc7cjVzOqM_pad-50" x="71173.01" y="41904"/><use xlink:href="#X4yc7cjVzOqM_pad-50" x="73573" y="41904"/><use xlink:href="#X4yc7cjVzOqM_pad-50" x="72773" y="41904"/><use xlink:href="#X4yc7cjVzOqM_pad-50" x="109023.01" y="43604"/><use xlink:href="#X4yc7cjVzOqM_pad-50" x="109823" y="43604"/><use xlink:href="#X4yc7cjVzOqM_pad-50" x="107423.01" y="43604"/><use xlink:href="#X4yc7cjVzOqM_pad-50" x="108223.01" y="43604"/><use xlink:href="#X4yc7cjVzOqM_pad-50" x="108223.01" y="41904"/><use xlink:href="#X4yc7cjVzOqM_pad-50" x="107423.01" y="41904"/><use xlink:href="#X4yc7cjVzOqM_pad-50" x="109823" y="41904"/><use xlink:href="#X4yc7cjVzOqM_pad-50" x="109023.01" y="41904"/><use xlink:href="#X4yc7cjVzOqM_pad-51" x="116017.05" y="64403"/><use xlink:href="#X4yc7cjVzOqM_pad-51" x="118017.05" y="64403"/><use xlink:href="#X4yc7cjVzOqM_pad-51" x="27075.95" y="80808"/><use xlink:href="#X4yc7cjVzOqM_pad-51" x="29075.95" y="80808"/><use xlink:href="#X4yc7cjVzOqM_pad-51" x="44319" y="80814"/><use xlink:href="#X4yc7cjVzOqM_pad-51" x="42319" y="80814"/><use xlink:href="#X4yc7cjVzOqM_pad-51" x="27051" y="138419.01"/><use xlink:href="#X4yc7cjVzOqM_pad-51" x="29051" y="138419.01"/><use xlink:href="#X4yc7cjVzOqM_pad-51" x="44169.05" y="138505"/><use xlink:href="#X4yc7cjVzOqM_pad-51" x="42169.05" y="138505"/><use xlink:href="#X4yc7cjVzOqM_pad-51" x="100923.95" y="80808"/><use xlink:href="#X4yc7cjVzOqM_pad-51" x="102923.95" y="80808"/><use xlink:href="#X4yc7cjVzOqM_pad-51" x="81293" y="138750"/><use xlink:href="#X4yc7cjVzOqM_pad-51" x="79293" y="138750"/><use xlink:href="#X4yc7cjVzOqM_pad-51" x="118167" y="80814"/><use xlink:href="#X4yc7cjVzOqM_pad-51" x="116167" y="80814"/><use xlink:href="#X4yc7cjVzOqM_pad-51" x="29075.95" y="6706"/><use xlink:href="#X4yc7cjVzOqM_pad-51" x="27075.95" y="6706"/><use xlink:href="#X4yc7cjVzOqM_pad-51" x="42319" y="6712"/><use xlink:href="#X4yc7cjVzOqM_pad-51" x="44319" y="6712"/><use xlink:href="#X4yc7cjVzOqM_pad-51" x="102923.95" y="6706"/><use xlink:href="#X4yc7cjVzOqM_pad-51" x="100923.95" y="6706"/><use xlink:href="#X4yc7cjVzOqM_pad-51" x="116167" y="6712"/><use xlink:href="#X4yc7cjVzOqM_pad-51" x="118167" y="6712"/><use xlink:href="#X4yc7cjVzOqM_pad-51" x="29051" y="64317"/><use xlink:href="#X4yc7cjVzOqM_pad-51" x="27051" y="64317"/><use xlink:href="#X4yc7cjVzOqM_pad-51" x="42169.05" y="64403"/><use xlink:href="#X4yc7cjVzOqM_pad-51" x="44169.05" y="64403"/><use xlink:href="#X4yc7cjVzOqM_pad-51" x="102899" y="64317"/><use xlink:href="#X4yc7cjVzOqM_pad-51" x="100899" y="64317"/><use xlink:href="#X4yc7cjVzOqM_pad-52" x="120615" y="141947.01"/><use xlink:href="#X4yc7cjVzOqM_pad-52" x="120615" y="137947.01"/><use xlink:href="#X4yc7cjVzOqM_pad-53" x="2443" y="54826"/><use xlink:href="#X4yc7cjVzOqM_pad-53" x="3793" y="54826"/><use xlink:href="#X4yc7cjVzOqM_pad-53" x="19965" y="101498"/><use xlink:href="#X4yc7cjVzOqM_pad-53" x="18615" y="101498"/><use xlink:href="#X4yc7cjVzOqM_pad-53" x="56675" y="101533"/><use xlink:href="#X4yc7cjVzOqM_pad-53" x="55325" y="101533"/><use xlink:href="#X4yc7cjVzOqM_pad-53" x="14712" y="117831"/><use xlink:href="#X4yc7cjVzOqM_pad-53" x="16062" y="117831"/><use xlink:href="#X4yc7cjVzOqM_pad-53" x="51577" y="117831"/><use xlink:href="#X4yc7cjVzOqM_pad-53" x="52927" y="117831"/><use xlink:href="#X4yc7cjVzOqM_pad-53" x="16065.95" y="101509"/><use xlink:href="#X4yc7cjVzOqM_pad-53" x="14715.95" y="101509"/><use xlink:href="#X4yc7cjVzOqM_pad-53" x="52989.95" y="101509"/><use xlink:href="#X4yc7cjVzOqM_pad-53" x="51639.95" y="101509"/><use xlink:href="#X4yc7cjVzOqM_pad-53" x="18255.05" y="117804"/><use xlink:href="#X4yc7cjVzOqM_pad-53" x="19605.05" y="117804"/><use xlink:href="#X4yc7cjVzOqM_pad-53" x="55179.05" y="117804"/><use xlink:href="#X4yc7cjVzOqM_pad-53" x="56529.05" y="117804"/><use xlink:href="#X4yc7cjVzOqM_pad-53" x="92280" y="101586"/><use xlink:href="#X4yc7cjVzOqM_pad-53" x="93630" y="101586"/><use xlink:href="#X4yc7cjVzOqM_pad-53" x="89738.05" y="117804"/><use xlink:href="#X4yc7cjVzOqM_pad-53" x="88388.05" y="117804"/><use xlink:href="#X4yc7cjVzOqM_pad-53" x="129218" y="101498"/><use xlink:href="#X4yc7cjVzOqM_pad-53" x="130567.99" y="101498"/><use xlink:href="#X4yc7cjVzOqM_pad-53" x="126667" y="117809"/><use xlink:href="#X4yc7cjVzOqM_pad-53" x="125317" y="117809"/><use xlink:href="#X4yc7cjVzOqM_pad-53" x="89913.95" y="101509"/><use xlink:href="#X4yc7cjVzOqM_pad-53" x="88563.95" y="101509"/><use xlink:href="#X4yc7cjVzOqM_pad-53" x="92103.05" y="117804"/><use xlink:href="#X4yc7cjVzOqM_pad-53" x="93453.05" y="117804"/><use xlink:href="#X4yc7cjVzOqM_pad-53" x="126837.95" y="101509"/><use xlink:href="#X4yc7cjVzOqM_pad-53" x="125487.95" y="101509"/><use xlink:href="#X4yc7cjVzOqM_pad-53" x="129027.05" y="117804"/><use xlink:href="#X4yc7cjVzOqM_pad-53" x="130377.04" y="117804"/><use xlink:href="#X4yc7cjVzOqM_pad-53" x="75661" y="103425"/><use xlink:href="#X4yc7cjVzOqM_pad-53" x="77011" y="103425"/><use xlink:href="#X4yc7cjVzOqM_pad-53" x="111911" y="103425"/><use xlink:href="#X4yc7cjVzOqM_pad-53" x="113261" y="103425"/><use xlink:href="#X4yc7cjVzOqM_pad-53" x="39411" y="103425"/><use xlink:href="#X4yc7cjVzOqM_pad-53" x="40761" y="103425"/><use xlink:href="#X4yc7cjVzOqM_pad-53" x="19754" y="27447"/><use xlink:href="#X4yc7cjVzOqM_pad-53" x="18404" y="27447"/><use xlink:href="#X4yc7cjVzOqM_pad-53" x="56647" y="27456"/><use xlink:href="#X4yc7cjVzOqM_pad-53" x="55297" y="27456"/><use xlink:href="#X4yc7cjVzOqM_pad-53" x="93537" y="27439"/><use xlink:href="#X4yc7cjVzOqM_pad-53" x="92187" y="27439"/><use xlink:href="#X4yc7cjVzOqM_pad-53" x="130517" y="27421"/><use xlink:href="#X4yc7cjVzOqM_pad-53" x="129167.01" y="27421"/><use xlink:href="#X4yc7cjVzOqM_pad-53" x="14467" y="43704"/><use xlink:href="#X4yc7cjVzOqM_pad-53" x="15817" y="43704"/><use xlink:href="#X4yc7cjVzOqM_pad-53" x="51474" y="43744"/><use xlink:href="#X4yc7cjVzOqM_pad-53" x="52824" y="43744"/><use xlink:href="#X4yc7cjVzOqM_pad-53" x="88574" y="43706"/><use xlink:href="#X4yc7cjVzOqM_pad-53" x="89924" y="43706"/><use xlink:href="#X4yc7cjVzOqM_pad-53" x="125368" y="43744"/><use xlink:href="#X4yc7cjVzOqM_pad-53" x="126718" y="43744"/><use xlink:href="#X4yc7cjVzOqM_pad-53" x="14715.95" y="27407"/><use xlink:href="#X4yc7cjVzOqM_pad-53" x="16065.95" y="27407"/><use xlink:href="#X4yc7cjVzOqM_pad-53" x="51639.95" y="27407"/><use xlink:href="#X4yc7cjVzOqM_pad-53" x="52989.95" y="27407"/><use xlink:href="#X4yc7cjVzOqM_pad-53" x="88563.95" y="27407"/><use xlink:href="#X4yc7cjVzOqM_pad-53" x="89913.95" y="27407"/><use xlink:href="#X4yc7cjVzOqM_pad-53" x="125487.95" y="27407"/><use xlink:href="#X4yc7cjVzOqM_pad-53" x="126837.95" y="27407"/><use xlink:href="#X4yc7cjVzOqM_pad-53" x="19605.05" y="43702"/><use xlink:href="#X4yc7cjVzOqM_pad-53" x="18255.05" y="43702"/><use xlink:href="#X4yc7cjVzOqM_pad-53" x="56529.05" y="43702"/><use xlink:href="#X4yc7cjVzOqM_pad-53" x="55179.05" y="43702"/><use xlink:href="#X4yc7cjVzOqM_pad-53" x="93453.05" y="43702"/><use xlink:href="#X4yc7cjVzOqM_pad-53" x="92103.05" y="43702"/><use xlink:href="#X4yc7cjVzOqM_pad-53" x="130377.04" y="43702"/><use xlink:href="#X4yc7cjVzOqM_pad-53" x="129027.05" y="43702"/><use xlink:href="#X4yc7cjVzOqM_pad-53" x="67862" y="41829"/><use xlink:href="#X4yc7cjVzOqM_pad-53" x="69212" y="41829"/><use xlink:href="#X4yc7cjVzOqM_pad-53" x="104112" y="41829"/><use xlink:href="#X4yc7cjVzOqM_pad-53" x="105462" y="41829"/><use xlink:href="#X4yc7cjVzOqM_pad-53" x="31612" y="41829"/><use xlink:href="#X4yc7cjVzOqM_pad-53" x="32962" y="41829"/><use xlink:href="#X4yc7cjVzOqM_pad-53" x="2392" y="90589"/><use xlink:href="#X4yc7cjVzOqM_pad-53" x="3742" y="90589"/><use xlink:href="#X4yc7cjVzOqM_pad-53" x="142578" y="54177"/><use xlink:href="#X4yc7cjVzOqM_pad-53" x="141228" y="54177"/><use xlink:href="#X4yc7cjVzOqM_pad-53" x="142656.01" y="78182"/><use xlink:href="#X4yc7cjVzOqM_pad-53" x="141306" y="78182"/><use xlink:href="#X4yc7cjVzOqM_pad-53" x="142485.99" y="90103"/><use xlink:href="#X4yc7cjVzOqM_pad-53" x="141136" y="90103"/><use xlink:href="#X4yc7cjVzOqM_pad-54" x="12600" y="72900"/><use xlink:href="#X4yc7cjVzOqM_pad-54" x="12600" y="73700"/><use xlink:href="#X4yc7cjVzOqM_pad-54" x="12600" y="71300.01"/><use xlink:href="#X4yc7cjVzOqM_pad-54" x="12600" y="72100.01"/><use xlink:href="#X4yc7cjVzOqM_pad-54" x="10900" y="72100.01"/><use xlink:href="#X4yc7cjVzOqM_pad-54" x="10900" y="71300.01"/><use xlink:href="#X4yc7cjVzOqM_pad-54" x="10900" y="73700"/><use xlink:href="#X4yc7cjVzOqM_pad-54" x="10900" y="72900"/><use xlink:href="#X4yc7cjVzOqM_pad-54" x="23400" y="72100"/><use xlink:href="#X4yc7cjVzOqM_pad-54" x="23400" y="71300"/><use xlink:href="#X4yc7cjVzOqM_pad-54" x="23400" y="73699.99"/><use xlink:href="#X4yc7cjVzOqM_pad-54" x="23400" y="72899.99"/><use xlink:href="#X4yc7cjVzOqM_pad-54" x="25100" y="72899.99"/><use xlink:href="#X4yc7cjVzOqM_pad-54" x="25100" y="73699.99"/><use xlink:href="#X4yc7cjVzOqM_pad-54" x="25100" y="71300"/><use xlink:href="#X4yc7cjVzOqM_pad-54" x="25100" y="72100"/><use xlink:href="#X4yc7cjVzOqM_pad-55" x="116108.05" y="46834.61"/><use xlink:href="#X4yc7cjVzOqM_pad-55" x="121228.05" y="61334.61"/><use xlink:href="#X4yc7cjVzOqM_pad-55" x="118668.05" y="61334.61"/><use xlink:href="#X4yc7cjVzOqM_pad-55" x="116108.05" y="61334.61"/><use xlink:href="#X4yc7cjVzOqM_pad-55" x="121228.05" y="46834.61"/><use xlink:href="#X4yc7cjVzOqM_pad-55" x="118668.05" y="46834.61"/><use xlink:href="#X4yc7cjVzOqM_pad-55" x="28984.95" y="98376.39"/><use xlink:href="#X4yc7cjVzOqM_pad-55" x="23864.95" y="83876.39"/><use xlink:href="#X4yc7cjVzOqM_pad-55" x="26424.95" y="83876.39"/><use xlink:href="#X4yc7cjVzOqM_pad-55" x="28984.95" y="83876.39"/><use xlink:href="#X4yc7cjVzOqM_pad-55" x="23864.95" y="98376.39"/><use xlink:href="#X4yc7cjVzOqM_pad-55" x="26424.95" y="98376.39"/><use xlink:href="#X4yc7cjVzOqM_pad-55" x="42310" y="83841"/><use xlink:href="#X4yc7cjVzOqM_pad-55" x="47430" y="98341"/><use xlink:href="#X4yc7cjVzOqM_pad-55" x="44870" y="98341"/><use xlink:href="#X4yc7cjVzOqM_pad-55" x="42310" y="98341"/><use xlink:href="#X4yc7cjVzOqM_pad-55" x="47430" y="83841"/><use xlink:href="#X4yc7cjVzOqM_pad-55" x="44870" y="83841"/><use xlink:href="#X4yc7cjVzOqM_pad-55" x="28984" y="135417.01"/><use xlink:href="#X4yc7cjVzOqM_pad-55" x="23864" y="120917"/><use xlink:href="#X4yc7cjVzOqM_pad-55" x="26424" y="120917"/><use xlink:href="#X4yc7cjVzOqM_pad-55" x="28984" y="120917"/><use xlink:href="#X4yc7cjVzOqM_pad-55" x="23864" y="135417.01"/><use xlink:href="#X4yc7cjVzOqM_pad-55" x="26424" y="135417.01"/><use xlink:href="#X4yc7cjVzOqM_pad-55" x="42260.05" y="120936.61"/><use xlink:href="#X4yc7cjVzOqM_pad-55" x="47380.05" y="135436.61"/><use xlink:href="#X4yc7cjVzOqM_pad-55" x="44820.05" y="135436.61"/><use xlink:href="#X4yc7cjVzOqM_pad-55" x="42260.05" y="135436.61"/><use xlink:href="#X4yc7cjVzOqM_pad-55" x="47380.05" y="120936.61"/><use xlink:href="#X4yc7cjVzOqM_pad-55" x="44820.05" y="120936.61"/><use xlink:href="#X4yc7cjVzOqM_pad-55" x="100272.95" y="98376.39"/><use xlink:href="#X4yc7cjVzOqM_pad-55" x="97712.95" y="98376.39"/><use xlink:href="#X4yc7cjVzOqM_pad-55" x="102832.95" y="83876.39"/><use xlink:href="#X4yc7cjVzOqM_pad-55" x="100272.95" y="83876.39"/><use xlink:href="#X4yc7cjVzOqM_pad-55" x="97712.95" y="83876.39"/><use xlink:href="#X4yc7cjVzOqM_pad-55" x="102832.95" y="98376.39"/><use xlink:href="#X4yc7cjVzOqM_pad-55" x="81695" y="120929"/><use xlink:href="#X4yc7cjVzOqM_pad-55" x="84255" y="120929"/><use xlink:href="#X4yc7cjVzOqM_pad-55" x="79135" y="135429"/><use xlink:href="#X4yc7cjVzOqM_pad-55" x="81695" y="135429"/><use xlink:href="#X4yc7cjVzOqM_pad-55" x="84255" y="135429"/><use xlink:href="#X4yc7cjVzOqM_pad-55" x="79135" y="120929"/><use xlink:href="#X4yc7cjVzOqM_pad-55" x="118718" y="83841"/><use xlink:href="#X4yc7cjVzOqM_pad-55" x="121278" y="83841"/><use xlink:href="#X4yc7cjVzOqM_pad-55" x="116158" y="98341"/><use xlink:href="#X4yc7cjVzOqM_pad-55" x="118718" y="98341"/><use xlink:href="#X4yc7cjVzOqM_pad-55" x="121278" y="98341"/><use xlink:href="#X4yc7cjVzOqM_pad-55" x="116158" y="83841"/><use xlink:href="#X4yc7cjVzOqM_pad-55" x="135159" y="118825"/><use xlink:href="#X4yc7cjVzOqM_pad-55" x="135159" y="121385"/><use xlink:href="#X4yc7cjVzOqM_pad-55" x="120659" y="116265"/><use xlink:href="#X4yc7cjVzOqM_pad-55" x="120659" y="118825"/><use xlink:href="#X4yc7cjVzOqM_pad-55" x="120659" y="121385"/><use xlink:href="#X4yc7cjVzOqM_pad-55" x="135159" y="116265"/><use xlink:href="#X4yc7cjVzOqM_pad-55" x="28984.95" y="24274.39"/><use xlink:href="#X4yc7cjVzOqM_pad-55" x="23864.95" y="9774.39"/><use xlink:href="#X4yc7cjVzOqM_pad-55" x="26424.95" y="9774.39"/><use xlink:href="#X4yc7cjVzOqM_pad-55" x="28984.95" y="9774.39"/><use xlink:href="#X4yc7cjVzOqM_pad-55" x="23864.95" y="24274.39"/><use xlink:href="#X4yc7cjVzOqM_pad-55" x="26424.95" y="24274.39"/><use xlink:href="#X4yc7cjVzOqM_pad-55" x="42310" y="9739"/><use xlink:href="#X4yc7cjVzOqM_pad-55" x="47430" y="24239"/><use xlink:href="#X4yc7cjVzOqM_pad-55" x="44870" y="24239"/><use xlink:href="#X4yc7cjVzOqM_pad-55" x="42310" y="24239"/><use xlink:href="#X4yc7cjVzOqM_pad-55" x="47430" y="9739"/><use xlink:href="#X4yc7cjVzOqM_pad-55" x="44870" y="9739"/><use xlink:href="#X4yc7cjVzOqM_pad-55" x="102832.95" y="24274.39"/><use xlink:href="#X4yc7cjVzOqM_pad-55" x="97712.95" y="9774.39"/><use xlink:href="#X4yc7cjVzOqM_pad-55" x="100272.95" y="9774.39"/><use xlink:href="#X4yc7cjVzOqM_pad-55" x="102832.95" y="9774.39"/><use xlink:href="#X4yc7cjVzOqM_pad-55" x="97712.95" y="24274.39"/><use xlink:href="#X4yc7cjVzOqM_pad-55" x="100272.95" y="24274.39"/><use xlink:href="#X4yc7cjVzOqM_pad-55" x="116158" y="9739"/><use xlink:href="#X4yc7cjVzOqM_pad-55" x="121278" y="24239"/><use xlink:href="#X4yc7cjVzOqM_pad-55" x="118718" y="24239"/><use xlink:href="#X4yc7cjVzOqM_pad-55" x="116158" y="24239"/><use xlink:href="#X4yc7cjVzOqM_pad-55" x="121278" y="9739"/><use xlink:href="#X4yc7cjVzOqM_pad-55" x="118718" y="9739"/><use xlink:href="#X4yc7cjVzOqM_pad-55" x="28984" y="61315"/><use xlink:href="#X4yc7cjVzOqM_pad-55" x="23864" y="46815"/><use xlink:href="#X4yc7cjVzOqM_pad-55" x="26424" y="46815"/><use xlink:href="#X4yc7cjVzOqM_pad-55" x="28984" y="46815"/><use xlink:href="#X4yc7cjVzOqM_pad-55" x="23864" y="61315"/><use xlink:href="#X4yc7cjVzOqM_pad-55" x="26424" y="61315"/><use xlink:href="#X4yc7cjVzOqM_pad-55" x="42260.05" y="46834.61"/><use xlink:href="#X4yc7cjVzOqM_pad-55" x="47380.05" y="61334.61"/><use xlink:href="#X4yc7cjVzOqM_pad-55" x="44820.05" y="61334.61"/><use xlink:href="#X4yc7cjVzOqM_pad-55" x="42260.05" y="61334.61"/><use xlink:href="#X4yc7cjVzOqM_pad-55" x="47380.05" y="46834.61"/><use xlink:href="#X4yc7cjVzOqM_pad-55" x="44820.05" y="46834.61"/><use xlink:href="#X4yc7cjVzOqM_pad-55" x="102832" y="61315"/><use xlink:href="#X4yc7cjVzOqM_pad-55" x="97712" y="46815"/><use xlink:href="#X4yc7cjVzOqM_pad-55" x="100272" y="46815"/><use xlink:href="#X4yc7cjVzOqM_pad-55" x="102832" y="46815"/><use xlink:href="#X4yc7cjVzOqM_pad-55" x="97712" y="61315"/><use xlink:href="#X4yc7cjVzOqM_pad-55" x="100272" y="61315"/><use xlink:href="#X4yc7cjVzOqM_pad-56" x="101779" y="139524"/><use xlink:href="#X4yc7cjVzOqM_pad-56" x="101779" y="136983.99"/><use xlink:href="#X4yc7cjVzOqM_pad-56" x="101779" y="134444"/><use xlink:href="#X4yc7cjVzOqM_pad-56" x="101779" y="131904.01"/><use xlink:href="#X4yc7cjVzOqM_pad-56" x="101779" y="129364"/><use xlink:href="#X4yc7cjVzOqM_pad-56" x="101779" y="126824"/><use xlink:href="#X4yc7cjVzOqM_pad-56" x="101779" y="124284"/><use xlink:href="#X4yc7cjVzOqM_pad-56" x="101779" y="121744"/><use xlink:href="#X4yc7cjVzOqM_pad-56" x="104319" y="121744"/><use xlink:href="#X4yc7cjVzOqM_pad-56" x="106859" y="121744"/><use xlink:href="#X4yc7cjVzOqM_pad-56" x="109399" y="121744"/><use xlink:href="#X4yc7cjVzOqM_pad-56" x="111939" y="121744"/><use xlink:href="#X4yc7cjVzOqM_pad-56" x="114479" y="121744"/><use xlink:href="#X4yc7cjVzOqM_pad-56" x="117019" y="121744"/><use xlink:href="#X4yc7cjVzOqM_pad-56" x="117019" y="124284"/><use xlink:href="#X4yc7cjVzOqM_pad-56" x="117019" y="126824"/><use xlink:href="#X4yc7cjVzOqM_pad-56" x="117019" y="129364"/><use xlink:href="#X4yc7cjVzOqM_pad-56" x="117019" y="131904.01"/><use xlink:href="#X4yc7cjVzOqM_pad-56" x="117019" y="134444"/><use xlink:href="#X4yc7cjVzOqM_pad-56" x="117019" y="136983.99"/><use xlink:href="#X4yc7cjVzOqM_pad-56" x="117019" y="139524"/><use xlink:href="#X4yc7cjVzOqM_pad-56" x="117019" y="142064"/><use xlink:href="#X4yc7cjVzOqM_pad-57" x="124607" y="142095.99"/><use xlink:href="#X4yc7cjVzOqM_pad-58" x="124607" y="138595.99"/></g></svg>