%TF.GenerationSoftware,Altium Limited,Altium Designer,22.1.2 (22)*%
G04 Layer_Physical_Order=1*
G04 Layer_Color=255*
%FSLAX45Y45*%
%MOMM*%
%TF.SameCoordinates,073EAA7F-B3E9-4302-98AB-51A492F3094A*%
%TF.FilePolarity,Positive*%
%TF.FileFunction,Copper,L1,Top,Signal*%
%TF.Part,Single*%
G01*
G75*
%TA.AperFunction,SMDPad,CuDef*%
%ADD10R,1.00000X0.90000*%
G04:AMPARAMS|DCode=11|XSize=0.55mm|YSize=1.25mm|CornerRadius=0.0495mm|HoleSize=0mm|Usage=FLASHONLY|Rotation=90.000|XOffset=0mm|YOffset=0mm|HoleType=Round|Shape=RoundedRectangle|*
%AMROUNDEDRECTD11*
21,1,0.55000,1.15100,0,0,90.0*
21,1,0.45100,1.25000,0,0,90.0*
1,1,0.09900,0.57550,0.22550*
1,1,0.09900,0.57550,-0.22550*
1,1,0.09900,-0.57550,-0.22550*
1,1,0.09900,-0.57550,0.22550*
%
%ADD11ROUNDEDRECTD11*%
%ADD12R,0.90000X0.80000*%
%ADD13R,0.80000X0.90000*%
%ADD14R,1.20000X1.00000*%
%ADD15R,0.45000X0.90000*%
%ADD16R,1.00000X1.20000*%
%ADD17R,0.80000X1.75000*%
%ADD18R,0.70000X1.75000*%
%ADD19R,1.70000X2.50000*%
%ADD20R,0.90000X1.00000*%
%ADD21R,0.90000X0.45000*%
%ADD22R,1.75000X0.80000*%
%ADD23R,1.75000X0.70000*%
%TA.AperFunction,Conductor*%
%ADD24C,0.30480*%
%ADD25C,0.38100*%
%ADD26C,0.63500*%
%ADD27C,1.27000*%
%ADD28C,2.54000*%
%TA.AperFunction,ComponentPad*%
%ADD29C,1.60000*%
%ADD30C,1.50800*%
G04:AMPARAMS|DCode=31|XSize=2.4mm|YSize=5mm|CornerRadius=1.2mm|HoleSize=0mm|Usage=FLASHONLY|Rotation=0.000|XOffset=0mm|YOffset=0mm|HoleType=Round|Shape=RoundedRectangle|*
%AMROUNDEDRECTD31*
21,1,2.40000,2.60000,0,0,0.0*
21,1,0.00000,5.00000,0,0,0.0*
1,1,2.40000,0.00000,-1.30000*
1,1,2.40000,0.00000,-1.30000*
1,1,2.40000,0.00000,1.30000*
1,1,2.40000,0.00000,1.30000*
%
%ADD31ROUNDEDRECTD31*%
%ADD32R,1.55000X1.55000*%
%ADD33C,1.55000*%
%ADD34R,1.55000X1.55000*%
%ADD35C,2.30000*%
%ADD36R,1.20000X1.20000*%
%ADD37C,1.20000*%
%TA.AperFunction,ViaPad*%
%ADD38C,0.60000*%
%ADD39C,0.90000*%
D10*
X11973800Y2072200D02*
D03*
Y1937200D02*
D03*
X13538499Y11192500D02*
D03*
Y11327500D02*
D03*
X2613800Y9404500D02*
D03*
Y9539500D02*
D03*
X6296300Y8876400D02*
D03*
Y8741400D02*
D03*
X3041100Y12994000D02*
D03*
Y13128999D02*
D03*
X6331300Y13393500D02*
D03*
Y13258501D02*
D03*
X2332500Y7566100D02*
D03*
Y7701100D02*
D03*
X8194300Y9272400D02*
D03*
Y9407400D02*
D03*
X8050700Y13115100D02*
D03*
Y13250101D02*
D03*
X11888500Y9410600D02*
D03*
Y9545600D02*
D03*
X8051500Y12568000D02*
D03*
Y12433000D02*
D03*
X2549900Y2018600D02*
D03*
Y1883600D02*
D03*
X6245400Y2149700D02*
D03*
Y2014700D02*
D03*
X8267000Y2175000D02*
D03*
Y2040000D02*
D03*
X2545700Y5085800D02*
D03*
Y5220800D02*
D03*
X6275000Y5722000D02*
D03*
Y5587000D02*
D03*
X8267300Y5702000D02*
D03*
Y5567000D02*
D03*
X11939100Y5070600D02*
D03*
Y5205600D02*
D03*
X855700Y7070000D02*
D03*
Y6935000D02*
D03*
D11*
X13352699Y10573800D02*
D03*
Y10700800D02*
D03*
Y10827800D02*
D03*
Y10954800D02*
D03*
Y11081800D02*
D03*
Y11208800D02*
D03*
Y11335800D02*
D03*
X12827699Y10573800D02*
D03*
Y10700800D02*
D03*
Y10827800D02*
D03*
Y10954800D02*
D03*
Y11081800D02*
D03*
Y11208800D02*
D03*
Y11335800D02*
D03*
D12*
X13552499Y10956300D02*
D03*
X13722501D02*
D03*
X13552200Y10652200D02*
D03*
X13722200D02*
D03*
X12644200Y10698700D02*
D03*
X12474200D02*
D03*
D13*
X13236200Y11536600D02*
D03*
Y11706600D02*
D03*
X11311300Y11582600D02*
D03*
Y11412600D02*
D03*
X11187800Y11582400D02*
D03*
Y11412400D02*
D03*
D14*
X13785400Y11819400D02*
D03*
Y11619400D02*
D03*
D15*
X3652301Y4360400D02*
D03*
X3732300D02*
D03*
X3492301D02*
D03*
X3572301D02*
D03*
Y4190400D02*
D03*
X3492301D02*
D03*
X3732300D02*
D03*
X3652301D02*
D03*
X7290000Y11415000D02*
D03*
X7370000D02*
D03*
X7130001D02*
D03*
X7210001D02*
D03*
Y11585000D02*
D03*
X7130001D02*
D03*
X7370000D02*
D03*
X7290000D02*
D03*
X10915001Y11415000D02*
D03*
X10995000D02*
D03*
X10755001D02*
D03*
X10835001D02*
D03*
Y11585000D02*
D03*
X10755001D02*
D03*
X10995000D02*
D03*
X10915001D02*
D03*
X3665001Y11415000D02*
D03*
X3745000D02*
D03*
X3505001D02*
D03*
X3585001D02*
D03*
Y11585000D02*
D03*
X3505001D02*
D03*
X3745000D02*
D03*
X3665001D02*
D03*
X7210000Y10335000D02*
D03*
X7130000D02*
D03*
X7369999D02*
D03*
X7289999D02*
D03*
Y10165000D02*
D03*
X7369999D02*
D03*
X7130000D02*
D03*
X7210000D02*
D03*
X10835000Y10335000D02*
D03*
X10755000D02*
D03*
X10994999D02*
D03*
X10915000D02*
D03*
Y10165000D02*
D03*
X10994999D02*
D03*
X10755000D02*
D03*
X10835000D02*
D03*
X3585000Y10335000D02*
D03*
X3505000D02*
D03*
X3744999D02*
D03*
X3665000D02*
D03*
Y10165000D02*
D03*
X3744999D02*
D03*
X3505000D02*
D03*
X3585000D02*
D03*
X7197300Y2940400D02*
D03*
X7117300D02*
D03*
X7357299D02*
D03*
X7277299D02*
D03*
Y3110400D02*
D03*
X7357299D02*
D03*
X7117300D02*
D03*
X7197300D02*
D03*
X10822300Y2940400D02*
D03*
X10742300D02*
D03*
X10982299D02*
D03*
X10902300D02*
D03*
Y3110400D02*
D03*
X10982299D02*
D03*
X10742300D02*
D03*
X10822300D02*
D03*
X3572300Y2940400D02*
D03*
X3492300D02*
D03*
X3732299D02*
D03*
X3652300D02*
D03*
Y3110400D02*
D03*
X3732299D02*
D03*
X3492300D02*
D03*
X3572300D02*
D03*
X7277300Y4360400D02*
D03*
X7357300D02*
D03*
X7117301D02*
D03*
X7197301D02*
D03*
Y4190400D02*
D03*
X7117301D02*
D03*
X7357300D02*
D03*
X7277300D02*
D03*
X10902301Y4360400D02*
D03*
X10982300D02*
D03*
X10742301D02*
D03*
X10822301D02*
D03*
Y4190400D02*
D03*
X10742301D02*
D03*
X10982300D02*
D03*
X10902301D02*
D03*
D16*
X11601705Y6440300D02*
D03*
X11801705D02*
D03*
X2707595Y8080800D02*
D03*
X2907595D02*
D03*
X4431900Y8081400D02*
D03*
X4231900D02*
D03*
X2705100Y13841901D02*
D03*
X2905100D02*
D03*
X4416905Y13850500D02*
D03*
X4216905D02*
D03*
X10092395Y8080800D02*
D03*
X10292395D02*
D03*
X8129300Y13875000D02*
D03*
X7929300D02*
D03*
X11816700Y8081400D02*
D03*
X11616700D02*
D03*
X2907595Y670600D02*
D03*
X2707595D02*
D03*
X4231900Y671200D02*
D03*
X4431900D02*
D03*
X10292395Y670600D02*
D03*
X10092395D02*
D03*
X11616700Y671200D02*
D03*
X11816700D02*
D03*
X2905100Y6431700D02*
D03*
X2705100D02*
D03*
X4216905Y6440300D02*
D03*
X4416905D02*
D03*
X10289900Y6431700D02*
D03*
X10089900D02*
D03*
D17*
X3162800Y3367900D02*
D03*
X4061800D02*
D03*
Y3932900D02*
D03*
X3162800D02*
D03*
X7699500Y10592500D02*
D03*
X6800500D02*
D03*
Y11157500D02*
D03*
X7699500D02*
D03*
X11324500Y10592500D02*
D03*
X10425500D02*
D03*
Y11157500D02*
D03*
X11324500D02*
D03*
X4074500Y10592500D02*
D03*
X3175500D02*
D03*
Y11157500D02*
D03*
X4074500D02*
D03*
X6787800Y3367900D02*
D03*
X7686800D02*
D03*
Y3932900D02*
D03*
X6787800D02*
D03*
X10412800Y3367900D02*
D03*
X11311800D02*
D03*
Y3932900D02*
D03*
X10412800D02*
D03*
D18*
X3294800Y3367900D02*
D03*
X3421800D02*
D03*
X3548800D02*
D03*
X3675800D02*
D03*
X3802800D02*
D03*
X3929800D02*
D03*
Y3932900D02*
D03*
X3802800D02*
D03*
X3675800D02*
D03*
X3548800D02*
D03*
X3421800D02*
D03*
X3294800D02*
D03*
X7567500Y10592500D02*
D03*
X7440500D02*
D03*
X7313500D02*
D03*
X7186500D02*
D03*
X7059500D02*
D03*
X6932500D02*
D03*
Y11157500D02*
D03*
X7059500D02*
D03*
X7186500D02*
D03*
X7313500D02*
D03*
X7440500D02*
D03*
X7567500D02*
D03*
X11192500Y10592500D02*
D03*
X11065500D02*
D03*
X10938500D02*
D03*
X10811500D02*
D03*
X10684500D02*
D03*
X10557500D02*
D03*
Y11157500D02*
D03*
X10684500D02*
D03*
X10811500D02*
D03*
X10938500D02*
D03*
X11065500D02*
D03*
X11192500D02*
D03*
X3942500Y10592500D02*
D03*
X3815500D02*
D03*
X3688500D02*
D03*
X3561500D02*
D03*
X3434500D02*
D03*
X3307500D02*
D03*
Y11157500D02*
D03*
X3434500D02*
D03*
X3561500D02*
D03*
X3688500D02*
D03*
X3815500D02*
D03*
X3942500D02*
D03*
X6919800Y3367900D02*
D03*
X7046800D02*
D03*
X7173800D02*
D03*
X7300800D02*
D03*
X7427800D02*
D03*
X7554800D02*
D03*
Y3932900D02*
D03*
X7427800D02*
D03*
X7300800D02*
D03*
X7173800D02*
D03*
X7046800D02*
D03*
X6919800D02*
D03*
X10544800Y3367900D02*
D03*
X10671800D02*
D03*
X10798800D02*
D03*
X10925800D02*
D03*
X11052800D02*
D03*
X11179800D02*
D03*
Y3932900D02*
D03*
X11052800D02*
D03*
X10925800D02*
D03*
X10798800D02*
D03*
X10671800D02*
D03*
X10544800D02*
D03*
D19*
X12061500Y14194701D02*
D03*
Y13794701D02*
D03*
D20*
X244300Y5482600D02*
D03*
X379300D02*
D03*
X1996500Y10149800D02*
D03*
X1861500D02*
D03*
X5667500Y10153300D02*
D03*
X5532500D02*
D03*
X1471200Y11783100D02*
D03*
X1606200D02*
D03*
X5157700D02*
D03*
X5292700D02*
D03*
X1606595Y10150900D02*
D03*
X1471595D02*
D03*
X5298995D02*
D03*
X5163995D02*
D03*
X1825505Y11780400D02*
D03*
X1960505D02*
D03*
X5517905D02*
D03*
X5652905D02*
D03*
X9228000Y10158600D02*
D03*
X9363000D02*
D03*
X8973805Y11780400D02*
D03*
X8838805D02*
D03*
X12921800Y10149800D02*
D03*
X13056799D02*
D03*
X12666700Y11780900D02*
D03*
X12531700D02*
D03*
X8991395Y10150900D02*
D03*
X8856395D02*
D03*
X9210305Y11780400D02*
D03*
X9345305D02*
D03*
X12683795Y10150900D02*
D03*
X12548795D02*
D03*
X12902705Y11780400D02*
D03*
X13037704D02*
D03*
X7566100Y10342500D02*
D03*
X7701100D02*
D03*
X11191100D02*
D03*
X11326100D02*
D03*
X3941100D02*
D03*
X4076100D02*
D03*
X1975400Y2744700D02*
D03*
X1840400D02*
D03*
X5664700Y2745600D02*
D03*
X5529700D02*
D03*
X9353700Y2743900D02*
D03*
X9218700D02*
D03*
X13051700Y2742100D02*
D03*
X12916701D02*
D03*
X1446700Y4370400D02*
D03*
X1581700D02*
D03*
X5147400Y4374400D02*
D03*
X5282400D02*
D03*
X8857400Y4370600D02*
D03*
X8992400D02*
D03*
X12536800Y4374400D02*
D03*
X12671800D02*
D03*
X1471595Y2740700D02*
D03*
X1606595D02*
D03*
X5163995D02*
D03*
X5298995D02*
D03*
X8856395D02*
D03*
X8991395D02*
D03*
X12548795D02*
D03*
X12683795D02*
D03*
X1960505Y4370200D02*
D03*
X1825505D02*
D03*
X5652905D02*
D03*
X5517905D02*
D03*
X9345305D02*
D03*
X9210305D02*
D03*
X13037704D02*
D03*
X12902705D02*
D03*
X6786200Y4182900D02*
D03*
X6921200D02*
D03*
X10411200D02*
D03*
X10546200D02*
D03*
X3161200D02*
D03*
X3296200D02*
D03*
X239200Y9058900D02*
D03*
X374200D02*
D03*
X14257800Y5417700D02*
D03*
X14122800D02*
D03*
X14265601Y7818200D02*
D03*
X14130600D02*
D03*
X14248599Y9010300D02*
D03*
X14113600D02*
D03*
D21*
X1260000Y7290000D02*
D03*
Y7370000D02*
D03*
Y7130001D02*
D03*
Y7210001D02*
D03*
X1090000D02*
D03*
Y7130001D02*
D03*
Y7370000D02*
D03*
Y7290000D02*
D03*
X2340000Y7210000D02*
D03*
Y7130000D02*
D03*
Y7369999D02*
D03*
Y7289999D02*
D03*
X2510000D02*
D03*
Y7369999D02*
D03*
Y7130000D02*
D03*
Y7210000D02*
D03*
D22*
X2082500Y7699500D02*
D03*
Y6800500D02*
D03*
X1517500D02*
D03*
Y7699500D02*
D03*
D23*
X2082500Y7567500D02*
D03*
Y7440500D02*
D03*
Y7313500D02*
D03*
Y7186500D02*
D03*
Y7059500D02*
D03*
Y6932500D02*
D03*
X1517500D02*
D03*
Y7059500D02*
D03*
Y7186500D02*
D03*
Y7313500D02*
D03*
Y7440500D02*
D03*
Y7567500D02*
D03*
D24*
X11100308Y12011500D02*
X11577749Y11534059D01*
Y11348651D02*
Y11534059D01*
X10964500Y12011500D02*
X11100308D01*
X11577749Y11348651D02*
X12098600Y10827800D01*
X12827699D01*
X11203200Y11997300D02*
X12309640Y10890860D01*
X12936740D01*
X11464400Y11826800D02*
X12272460Y11018740D01*
X13141681D01*
X11464400Y11826800D02*
Y11992000D01*
X11768400Y11610000D02*
X12169600Y11208800D01*
X12827699D01*
X11768400Y11610000D02*
Y12034600D01*
X11773700Y12039900D01*
X13141681Y11018740D02*
X13204741Y11081800D01*
X13352699D01*
X13126801Y10700800D02*
X13352699D01*
X12936740Y10890860D02*
X13126801Y10700800D01*
X13550999Y10954800D02*
X13552499Y10956300D01*
X13352699Y10954800D02*
X13550999D01*
X13352699Y10573800D02*
X13473801D01*
X13552200Y10652200D01*
X12644200Y10698700D02*
X12646300Y10700800D01*
X12827699D01*
X13282001Y11884300D02*
X13514101D01*
X13236200Y11706600D02*
Y11838500D01*
X13282001Y11884300D01*
X13514101D02*
X13515900Y11882500D01*
X12827699Y11081800D02*
X12829800Y11083900D01*
X13135001D01*
X13236200Y11185100D01*
Y11536600D01*
X7357299Y3110400D02*
Y3189899D01*
X7427800Y3260400D01*
Y3367900D01*
X7276700Y3110999D02*
X7277299Y3110400D01*
X7276700Y3110999D02*
Y3206000D01*
X7300800Y3230100D01*
Y3367900D01*
X2082500Y7059500D02*
X2224900D01*
X2225100Y7059300D01*
X2269301D01*
X2340000Y7130000D01*
X2103460Y7207460D02*
X2365040D01*
X2082500Y7186500D02*
X2103460Y7207460D01*
X2210400Y7313500D02*
X2233901Y7289999D01*
X2082500Y7313500D02*
X2210400D01*
X2233901Y7289999D02*
X2340000D01*
X2335399Y7374600D02*
X2340000Y7369999D01*
X2259000Y7374600D02*
X2335399D01*
X2193100Y7440500D02*
X2259000Y7374600D01*
X2082500Y7440500D02*
X2193100D01*
X4061100Y3222200D02*
X4061800Y3222900D01*
Y3367900D01*
X3296200Y4058600D02*
Y4182900D01*
X3294800Y3932900D02*
Y4057200D01*
X3296200Y4058600D01*
X2542300Y5336300D02*
X2545700Y5332900D01*
Y5220800D02*
Y5332900D01*
X1391500Y6799800D02*
X1516800D01*
X1517500Y6800500D01*
X2082750Y7567250D02*
X2229350D01*
X2332050Y7566550D02*
X2332500Y7566100D01*
X2082500Y7567500D02*
X2082750Y7567250D01*
X2230050Y7566550D02*
X2332050D01*
X2229350Y7567250D02*
X2230050Y7566550D01*
X1660435Y10157200D02*
X1722200D01*
X1654135Y10150900D02*
X1660435Y10157200D01*
X1606595Y10150900D02*
X1654135D01*
X2613800Y9280100D02*
X2614500Y9279400D01*
X2613800Y9280100D02*
Y9404500D01*
X3941100Y10438600D02*
Y10591100D01*
Y10342500D02*
Y10438600D01*
Y10591100D02*
X3942500Y10592500D01*
X3087000Y11157700D02*
X3087200Y11157500D01*
X3175500D01*
X6713700Y11157100D02*
X6714100Y11157500D01*
X6800500D01*
X7566100Y10440200D02*
Y10591100D01*
Y10342500D02*
Y10440200D01*
Y10591100D02*
X7567500Y10592500D01*
X10322200Y11157200D02*
X10322500Y11157500D01*
X10425500D01*
X11191100Y10466800D02*
Y10591100D01*
Y10342500D02*
Y10466800D01*
Y10591100D02*
X11192500Y10592500D01*
X12786800Y10150900D02*
X12787400Y10150300D01*
X12683795Y10150900D02*
X12786800D01*
X6921200Y4079800D02*
Y4182900D01*
Y3934300D02*
Y4079800D01*
X6919800Y3932900D02*
X6921200Y3934300D01*
X7794000Y3367900D02*
X7796100Y3370000D01*
X7686800Y3367900D02*
X7794000D01*
X12763300Y4368900D02*
X12764600Y4370200D01*
X12902705D01*
X11407400Y3367900D02*
X11412700Y3373200D01*
X11311800Y3367900D02*
X11407400D01*
X11179800Y4079800D02*
X11183000Y4083000D01*
X11179800Y3932900D02*
Y4079800D01*
X10546200Y4074300D02*
X10547100Y4073400D01*
X10546200Y4074300D02*
Y4182900D01*
X10544800Y4071100D02*
X10547100Y4073400D01*
X10544800Y3932900D02*
Y4071100D01*
X928100Y7413300D02*
Y7415700D01*
X242500Y8101300D02*
X928100Y7415700D01*
X242500Y8101300D02*
Y9525000D01*
X1260000Y7210001D02*
X1493999D01*
X1260000Y7290000D02*
X1494000D01*
X1297261Y7377260D02*
X1360500Y7440500D01*
X244300Y5985700D02*
X960100Y6701500D01*
Y7211300D01*
X244300Y5482600D02*
Y5985700D01*
Y5374900D02*
Y5482600D01*
X115400Y5246000D02*
X244300Y5374900D01*
X115400Y4652100D02*
Y5246000D01*
Y4652100D02*
X242500Y4525000D01*
X855700Y7070000D02*
Y7220200D01*
X928100Y7292600D01*
X242500Y7025000D02*
X287500Y7070000D01*
X855700D01*
X1260000Y7370000D02*
X1267260Y7377260D01*
X1360500Y7440500D02*
X1517500D01*
X1267260Y7377260D02*
X1297261D01*
X1339200Y7130001D02*
X1389940Y7079260D01*
X1260000Y7130001D02*
X1339200D01*
X1389940Y7079260D02*
X1497740D01*
X1517500Y7059500D01*
X1493999Y7210001D02*
X1517500Y7186500D01*
X1494000Y7290000D02*
X1517500Y7313500D01*
X7498060Y3029840D02*
X7499200Y3028700D01*
X7310320Y3029840D02*
X7498060D01*
X7501700Y2749400D02*
X8076300Y2174800D01*
X7501700Y2749400D02*
Y2854100D01*
X7633800Y2852630D02*
X7634300Y2852130D01*
Y2818390D02*
Y2852130D01*
X2426600Y7327000D02*
Y7458900D01*
X2431188Y7463488D01*
X2389599Y7289999D02*
X2426600Y7327000D01*
X2340000Y7289999D02*
X2389599D01*
X2751000Y7337800D02*
X13120100D01*
X2631100Y7457700D02*
X2751000Y7337800D01*
X12118555Y4935210D02*
X13308090D01*
X11866805Y4683461D02*
X12118555Y4935210D01*
X13308090D02*
X13402400Y4840900D01*
X7634300Y2818390D02*
X8197130Y2255560D01*
X8580349D01*
X8076300Y2174800D02*
X8589268D01*
X8641878Y2122190D02*
X8959910D01*
X8589268Y2174800D02*
X8641878Y2122190D01*
X8580349Y2255560D02*
X8662919Y2172990D01*
X9139610D01*
X8959910Y2122190D02*
X9348600Y1733500D01*
X9139610Y2172990D02*
X9248400Y2064200D01*
X12933600D01*
X9348600Y1282900D02*
Y1733500D01*
X2562248Y7062690D02*
X2751158Y7251600D01*
X2583290Y7011890D02*
X2742900Y7171500D01*
X2340000Y7043100D02*
X2371210Y7011890D01*
X2420560Y7081155D02*
X2439026Y7062690D01*
X2371210Y7011890D02*
X2583290D01*
X2439026Y7062690D02*
X2562248D01*
X7357299Y3110400D02*
X7575000D01*
X7634300Y3051100D01*
X12933600Y2064200D02*
X13042595Y1955205D01*
Y986600D02*
Y1955205D01*
X12211700Y1185500D02*
X12309000Y1088200D01*
Y920500D02*
Y1088200D01*
X11952900Y1185500D02*
X12211700D01*
X11871800Y1104400D02*
X11952900Y1185500D01*
X12309000Y920500D02*
X12463100Y766400D01*
X13074100D01*
X13420000Y1112300D01*
Y1230700D01*
X7277299Y3062860D02*
Y3110400D01*
Y3062860D02*
X7310320Y3029840D01*
X13171899Y7251600D02*
X13219299Y7299000D01*
X2751158Y7251600D02*
X13171899D01*
X13120100Y7337800D02*
X13211099Y7428800D01*
X13416901D01*
X2365040Y7207460D02*
X2384440Y7188060D01*
X2399730D01*
X2420560Y7167229D01*
Y7081155D02*
Y7167229D01*
X13219299Y7299000D02*
X13416901D01*
X2340000Y7043100D02*
Y7130000D01*
X2742900Y7171500D02*
X13421600D01*
X14257500Y7810100D02*
X14265601Y7818200D01*
X14257500Y7475000D02*
Y7810100D01*
X14143800Y7290800D02*
X14329201D01*
X14416245Y7377845D01*
Y7910155D01*
X14248599Y8077800D02*
Y9010300D01*
Y8077800D02*
X14416245Y7910155D01*
X13962100Y7296600D02*
X14140500Y7475000D01*
X14257500D01*
X13959801Y7159700D02*
X14372800D01*
X14417599Y7114900D01*
Y6864700D02*
Y7114900D01*
X14257800Y6704900D02*
X14417599Y6864700D01*
X14257800Y5417700D02*
Y6704900D01*
X14257500Y5417400D02*
X14257800Y5417700D01*
X14257500Y4975000D02*
Y5417400D01*
X14248599Y9010300D02*
X14377499Y9139200D01*
Y9855000D01*
X14257500Y9975000D02*
X14377499Y9855000D01*
X11871800Y973900D02*
Y1104400D01*
X13805499Y4897800D02*
Y10196600D01*
Y4897800D02*
X13873300Y4830000D01*
X13856940Y4990260D02*
X13988400Y4858800D01*
Y4663300D02*
Y4858800D01*
X13856940Y4990260D02*
Y10162364D01*
Y1224340D02*
Y4531840D01*
X13988400Y4663300D01*
X13805499Y10196600D02*
X14213400Y10604500D01*
X13854100Y1221500D02*
X13856940Y1224340D01*
X14328300Y10633724D02*
Y10842300D01*
X13856940Y10162364D02*
X14328300Y10633724D01*
X14213400Y10604500D02*
Y10758000D01*
X14219400Y10951200D02*
X14328300Y10842300D01*
X14219400Y10951200D02*
Y11066700D01*
X13722501Y11066200D02*
X13722501Y11066200D01*
Y10956300D02*
Y11066200D01*
X13721899Y10652500D02*
Y10758500D01*
Y10652500D02*
X13722200Y10652200D01*
D25*
X11124078Y11910500D02*
X11415954Y11618624D01*
X10780400Y11910500D02*
X11124078D01*
X10693300Y11997600D02*
X10780400Y11910500D01*
X11415954Y10847454D02*
Y11618624D01*
X11377200Y10808700D02*
X11415954Y10847454D01*
X10595522Y10808700D02*
X11377200D01*
X11187800Y11582400D02*
Y11636600D01*
X10353000Y11717200D02*
X11107200D01*
X11187800Y11636600D01*
X11290350Y11603550D02*
X11311300Y11582600D01*
X11290350Y11603550D02*
Y11620528D01*
X11103878Y11807000D02*
X11290350Y11620528D01*
X10598100Y11807000D02*
X11103878D01*
X10404800Y12000300D02*
X10598100Y11807000D01*
X10151600Y11918600D02*
X10353000Y11717200D01*
X10404800Y12000300D02*
Y12026797D01*
X10151600Y11918600D02*
Y12003100D01*
X10483130Y10696308D02*
X10595522Y10808700D01*
X10483130Y10650130D02*
Y10696308D01*
X10425500Y10592500D02*
X10483130Y10650130D01*
X8536082Y10886100D02*
X11206500D01*
X11339400Y11019000D01*
X8264681Y11157500D02*
X8536082Y10886100D01*
X6822818Y10762100D02*
X10056800D01*
X10557500Y10462800D02*
Y10592500D01*
X10511400Y10416700D02*
X10557500Y10462800D01*
X10402200Y10416700D02*
X10511400D01*
X10056800Y10762100D02*
X10402200Y10416700D01*
X11311300Y11412600D02*
X11324500Y11399400D01*
Y11157500D02*
Y11399400D01*
X11187800Y11162200D02*
X11192500Y11157500D01*
X11187800Y11162200D02*
Y11412400D01*
X7948000Y12410500D02*
X8051500D01*
Y12433000D02*
X8062750Y12421750D01*
X8067750D01*
X8082450Y12404619D02*
X8104769Y12382300D01*
X9604907D01*
X8067750Y12421750D02*
X8082450Y12407050D01*
Y12404619D02*
Y12407050D01*
X8169500Y12092900D02*
X8390230Y12313630D01*
X11791670D01*
X11905300Y12200000D01*
Y12043100D02*
Y12200000D01*
Y12043100D02*
X12065900Y11882500D01*
X7698900Y12161400D02*
X7948000Y12410500D01*
X10915001Y11248269D02*
Y11470731D01*
X11033808Y11499370D02*
X11036678Y11496500D01*
X10915001Y11470731D02*
X10943640Y11499370D01*
X11033808D01*
X12373500Y11496500D02*
X12532595Y11655595D01*
X13032594Y11794800D02*
Y12086200D01*
X12532595Y11655595D02*
Y11782100D01*
X13032594Y11794800D02*
X13045296Y11782100D01*
X12761800Y11416700D02*
X13037704Y11692605D01*
Y11780400D01*
X12260800Y13534500D02*
X12543905D01*
X11903500Y13177200D02*
X12260800Y13534500D01*
X7652712Y11453412D02*
X7694400D01*
X7507900Y12287063D02*
X7513600Y12281363D01*
Y11701700D02*
Y12281363D01*
X7507900Y12287063D02*
Y12860800D01*
X7897200Y13250101D01*
X7698900Y11714400D02*
Y12161400D01*
X7424050Y11896650D02*
Y13108949D01*
X7251300Y11723900D02*
X7424050Y11896650D01*
Y13108949D02*
X7658000Y13342900D01*
X7290000Y11248269D02*
Y11462540D01*
X7614300Y11415000D02*
X7652712Y11453412D01*
X7327560Y11500100D02*
X7517582D01*
X7370000Y11415000D02*
X7614300D01*
X7290000Y11462540D02*
X7327560Y11500100D01*
X8050700Y13250101D02*
X8650600D01*
X7897200D02*
X8050700D01*
X5429205Y13264400D02*
X6626483D01*
X6627683Y13263200D02*
X6710300D01*
X6626483Y13264400D02*
X6627683Y13263200D01*
X3041100Y13126500D02*
X6218400D01*
X2606700D02*
X3041100D01*
X1707005Y13294200D02*
X2439000D01*
X2606700Y13126500D01*
X8650600Y13250101D02*
X8838005Y13437505D01*
X8013350Y13386749D02*
X8169500Y13542900D01*
X7948782Y13342900D02*
X7992632Y13386749D01*
X8013350D01*
X7658000Y13342900D02*
X7948782D01*
X5159105Y13534500D02*
X5429205Y13264400D01*
X6843600Y11837800D02*
Y13129900D01*
X6710300Y13263200D02*
X6843600Y13129900D01*
X6710800Y11834000D02*
Y12634100D01*
X6218400Y13126500D02*
X6710800Y12634100D01*
X1466705Y13534500D02*
X1707005Y13294200D01*
X8992800Y3705700D02*
X11174700D01*
X7622700Y4117200D02*
X8581300D01*
X8992800Y3705700D01*
X3229100Y4498200D02*
X3451270Y4276030D01*
X3534211D01*
X2377800Y4498200D02*
X3229100D01*
X7197300Y3110400D02*
X7203200Y3116300D01*
Y3215600D01*
X7173800Y3245000D02*
X7203200Y3215600D01*
X7173800Y3245000D02*
Y3367900D01*
X7117300Y3110400D02*
Y3181700D01*
X7046800Y3252200D02*
X7117300Y3181700D01*
X7046800Y3252200D02*
Y3367900D01*
X8838805Y4661600D02*
X8851505Y4674300D01*
X8838805Y4370200D02*
Y4661600D01*
X10798170Y10250630D02*
X10835000Y10287460D01*
Y10331550D01*
X10104127Y10253770D02*
X10107267Y10250630D01*
X9362895Y10203440D02*
X9413225Y10253770D01*
X9362895Y10150900D02*
Y10203440D01*
X10107267Y10250630D02*
X10798170D01*
X9413225Y10253770D02*
X10104127D01*
X9350195Y10138200D02*
X9362895Y10150900D01*
X9350195Y9846800D02*
Y10138200D01*
X7892203Y9535197D02*
X12839893D01*
X7574250Y9853150D02*
X7892203Y9535197D01*
X8939600Y10331900D02*
X10754499D01*
X8856395Y9853000D02*
Y10248695D01*
X8939600Y10331900D01*
X9186300Y9407400D02*
X9352100Y9241600D01*
X7822500Y9407400D02*
X9186300D01*
X5661200Y8689500D02*
X5703900Y8732200D01*
X6547500D02*
X6920500Y9105200D01*
X5703900Y8732200D02*
X6547500D01*
X7460900Y9769000D02*
X7822500Y9407400D01*
X11871800Y8384100D02*
Y8572200D01*
X11936600Y8637000D01*
X12224900D01*
X12345100Y8516800D01*
Y8249000D02*
Y8516800D01*
X12564800Y8029300D02*
X13093149D01*
X12345100Y8249000D02*
X12564800Y8029300D01*
X13093149D02*
X13203226Y8139375D01*
Y9385124D01*
X13442120Y9624020D01*
Y10286859D01*
X13226459Y10502520D02*
X13442120Y10286859D01*
X12670380Y10502520D02*
X13226459D01*
X12474200Y10698700D02*
X12670380Y10502520D01*
X5930200Y12448300D02*
X6654600Y11723900D01*
X7251300D01*
X4836644Y12448300D02*
X5930200D01*
X6791600Y11415000D02*
X7130001D01*
X6709200Y11497400D02*
X6791600Y11415000D01*
X7210001D02*
Y11473931D01*
Y11304891D02*
Y11415000D01*
X6838000Y11499700D02*
X7184232D01*
X6835700Y11497400D02*
X6838000Y11499700D01*
X7601480Y11356580D02*
X8266920D01*
X7567500Y11322600D02*
X7601480Y11356580D01*
X8266920D02*
X8661000Y10962500D01*
X7567500Y11157500D02*
Y11322600D01*
Y10997118D02*
Y11157500D01*
X7370000Y11370079D02*
Y11415000D01*
X10925800Y3932900D02*
X10927700Y3934800D01*
Y4071800D01*
X10902301Y4097200D02*
X10927700Y4071800D01*
X10902301Y4097200D02*
Y4190400D01*
X10798800Y3932900D02*
Y4068100D01*
X10822301Y4091601D01*
Y4190400D01*
X10667500Y3937200D02*
Y4068059D01*
Y3937200D02*
X10671800Y3932900D01*
X10667500Y4068059D02*
X10742301Y4142860D01*
Y4190400D01*
X6766300Y4505605D02*
Y4766800D01*
Y4505605D02*
X7081505Y4190400D01*
X7046800Y4050000D02*
X7117301Y4120501D01*
X7046800Y3932900D02*
Y4050000D01*
X7117301Y4120501D02*
Y4190400D01*
X7195500Y4188600D02*
X7197301Y4190400D01*
X7195500Y4079800D02*
Y4188600D01*
X7173800Y4058100D02*
X7195500Y4079800D01*
X7173800Y3932900D02*
Y4058100D01*
X7300800Y3932900D02*
X7301500Y3933600D01*
Y4118661D01*
X7277300Y4142860D02*
X7301500Y4118661D01*
X7277300Y4142860D02*
Y4190400D01*
X7357300Y4157300D02*
Y4190400D01*
Y4157300D02*
X7427800Y4086800D01*
Y3932900D02*
Y4086800D01*
X4482005Y12093661D02*
X4836644Y12448300D01*
X6636500Y3036200D02*
X6638290D01*
X6712490Y3110400D02*
X7117300D01*
X6638290Y3036200D02*
X6712490Y3110400D01*
X6641400Y2650300D02*
Y2854100D01*
X6284500Y2293400D02*
X6641400Y2650300D01*
X6413500Y2156000D02*
X6794270Y2536770D01*
Y2858330D01*
X5864200Y2156000D02*
X6413500D01*
X7065822Y3038700D02*
X7078492Y3026030D01*
X6798500Y3038700D02*
X7065822D01*
X7078492Y3026030D02*
X7156107D01*
X6919800Y3259700D02*
Y3489700D01*
X6860800Y3200700D02*
X6919800Y3259700D01*
X6308100Y3200700D02*
X6860800D01*
X5961400Y3547400D02*
X6308100Y3200700D01*
X8707630Y3641700D02*
X8981430Y3367900D01*
X6787800Y3538300D02*
X6891200Y3641700D01*
X8707630D01*
X6098200Y4080600D02*
X6429600Y3749200D01*
X7625000D02*
X7686800Y3811000D01*
X6429600Y3749200D02*
X7625000D01*
X6919800Y3489700D02*
X6962100Y3532000D01*
X3294800Y3277860D02*
Y3367900D01*
Y3469200D01*
X6962100Y3532000D02*
X8180400D01*
X6787800Y3367900D02*
Y3538300D01*
X10544800Y3309000D02*
Y3367900D01*
X10438700Y3202900D02*
X10544800Y3309000D01*
X8180400Y3532000D02*
X8509500Y3202900D01*
X10438700D01*
X8981430Y3367900D02*
X10412800D01*
X11174700Y3705700D02*
X11311800Y3842800D01*
Y3932900D01*
X7554800Y4049300D02*
X7622700Y4117200D01*
X7554800Y3932900D02*
Y4049300D01*
X7686800Y3811000D02*
Y3932900D01*
X4027200Y4080600D02*
X6098200D01*
X3986318Y4089918D02*
X4017881D01*
X4027200Y4080600D01*
X3929800Y4033400D02*
X3986318Y4089918D01*
X3929800Y3932900D02*
Y4033400D01*
X6456600Y3367900D02*
X6787800D01*
X6218680Y3605820D02*
X6237584Y3586915D01*
X6237585D01*
X6456600Y3367900D01*
X3348802Y3605820D02*
X6218680D01*
X3220430Y3477448D02*
X3348802Y3605820D01*
X3220430Y3425530D02*
Y3477448D01*
X3162800Y3367900D02*
X3220430Y3425530D01*
X3230488Y3241030D02*
X3257970D01*
X3208558Y3219100D02*
X3230488Y3241030D01*
X1391000Y3219100D02*
X3208558D01*
X3257970Y3241030D02*
X3294800Y3277860D01*
X773000Y3837100D02*
X1391000Y3219100D01*
X3294800Y3469200D02*
X3373000Y3547400D01*
X5961400D01*
X4061800Y3874900D02*
Y3932900D01*
X3888700Y3701800D02*
X4061800Y3874900D01*
X1545500Y3701800D02*
X3888700D01*
X987335Y4259965D02*
X1545500Y3701800D01*
X987335Y4259965D02*
Y5810209D01*
X1492526Y6315400D01*
X2131400D01*
X2363000Y6547000D02*
Y6836800D01*
X2131400Y6315400D02*
X2363000Y6547000D01*
X2082500Y6932500D02*
X2267300D01*
X2363000Y6836800D01*
X863200Y4107300D02*
X1602600Y3367900D01*
X863200Y5800400D02*
X1803000Y6740200D01*
X863200Y4107300D02*
Y5800400D01*
X773000Y3837100D02*
Y5858300D01*
X1706400Y6791700D01*
X1803000Y6740200D02*
Y7460178D01*
X1706400Y6791700D02*
Y7429778D01*
X1570130Y7514870D02*
X1621307D01*
X1706400Y7429778D01*
X1517500Y7567500D02*
X1570130Y7514870D01*
X1602600Y3367900D02*
X3162800D01*
X1621307Y7641870D02*
X1803000Y7460178D01*
X1575130Y7641870D02*
X1621307D01*
X959900Y8471800D02*
X1861420Y7570280D01*
Y6890180D02*
X1951100Y6800500D01*
X1861420Y6890180D02*
Y7570280D01*
X1517500Y7699500D02*
X1575130Y7641870D01*
X3771107Y3026030D02*
X3775377Y3030300D01*
X3654600Y3053768D02*
X3682338Y3026030D01*
X3654600Y3053768D02*
Y3207100D01*
X3682338Y3026030D02*
X3771107D01*
X4959600Y3030300D02*
X5157795Y2832105D01*
X3775377Y3030300D02*
X4959600D01*
X5157795Y2740700D02*
Y2832105D01*
Y2436600D02*
Y2740700D01*
X2137000Y3023400D02*
X3452122D01*
X1607000Y3110400D02*
X3492300D01*
X1465395Y2436600D02*
Y2968795D01*
X3453492Y3024770D02*
X3546531D01*
X3572300Y3050539D01*
X3452122Y3023400D02*
X3453492Y3024770D01*
X3572300Y3050539D02*
Y3187600D01*
X1465395Y2968795D02*
X1607000Y3110400D01*
X1965395Y2851795D02*
X2137000Y3023400D01*
X3546700Y3213200D02*
Y3365800D01*
Y3213200D02*
X3572300Y3187600D01*
X1965395Y2740700D02*
Y2851795D01*
Y2436600D02*
Y2740700D01*
X5652300Y2442094D02*
Y2954600D01*
X3732299Y3110400D02*
X5496500D01*
X5652300Y2954600D01*
X879600Y8193000D02*
X1373100Y7699500D01*
X879600Y10443700D02*
X1284600Y10848700D01*
X879600Y8193000D02*
Y10443700D01*
X959900Y8471800D02*
Y10138000D01*
X1219700Y10397800D01*
X1951100Y6800500D02*
X2082500D01*
X780300Y8189100D02*
X1401900Y7567500D01*
X780300Y8189100D02*
Y10615700D01*
X1120300Y10955700D01*
X1219700Y10397800D02*
X3214400D01*
X3307500Y10490900D01*
Y10592500D01*
X3871600Y10848700D02*
X4074500Y11051600D01*
X1284600Y10848700D02*
X3871600D01*
X1373100Y7699500D02*
X1517500D01*
X1401900Y7567500D02*
X1516600D01*
X5946030Y10719370D02*
X6282900Y10382500D01*
X3254870Y10719370D02*
X5946030D01*
X3175500Y10640000D02*
X3254870Y10719370D01*
X3175500Y10592500D02*
Y10640000D01*
X4074500Y11051600D02*
Y11157500D01*
X1120300Y10955700D02*
X3841100D01*
X3942500Y11057100D01*
Y11157500D01*
X4074500D02*
X4356500Y10875500D01*
X7585900D01*
X7699500Y10989100D01*
Y11157500D01*
X3942500D02*
Y11299975D01*
X3964819Y11322293D01*
X4617007D01*
X4964500Y10974800D01*
X7545182D02*
X7567500Y10997118D01*
X4964500Y10974800D02*
X7545182D01*
X6282900Y10382500D02*
X6867500D01*
X6932500Y10447500D01*
Y10592500D01*
X6800500D02*
Y10739782D01*
X6822818Y10762100D01*
X8661000Y10962500D02*
X11158400D01*
X11192500Y10996600D01*
X11324500Y11157500D02*
X11339400Y11142600D01*
Y11019000D02*
Y11142600D01*
X7699500Y11157500D02*
X8264681D01*
X11192500Y10996600D02*
Y11157500D01*
X1965395Y8396800D02*
X2091900Y8523305D01*
Y9437600D02*
X2193700Y9539400D01*
X2613800D02*
X6511100D01*
X2193700D02*
X2613800D01*
X2091900Y8523305D02*
Y9437600D01*
X7461400Y10187218D02*
Y10196777D01*
Y10187218D02*
X7473846Y10174772D01*
Y10168846D02*
Y10174772D01*
X7460900Y9769000D02*
Y9937400D01*
X7570100Y10135100D02*
Y10170695D01*
X6917400Y9846400D02*
X6920500Y9843300D01*
Y9105200D02*
Y9843300D01*
X6920000Y10096100D02*
X6920500Y10096600D01*
Y10141100D01*
X6777000Y10155900D02*
X6956100Y10335000D01*
X6777000Y10083100D02*
Y10155900D01*
X6773900Y9802200D02*
Y9843300D01*
X6777000Y9846400D01*
X10944751Y3024770D02*
X12268430D01*
X12542595Y2750605D01*
X10902300Y3110400D02*
Y3157940D01*
Y3068000D02*
Y3110400D01*
X2639080Y2107780D02*
X5728759D01*
X5914379Y2293400D02*
X6284500D01*
X5728759Y2107780D02*
X5914379Y2293400D01*
X2549900Y2018600D02*
X2639080Y2107780D01*
X2117300Y2018600D02*
X2549900D01*
X5661300Y1953100D02*
X5864200Y2156000D01*
X5661300Y1293100D02*
Y1953100D01*
X11228197Y10054980D02*
X11993380D01*
X11033177Y10250000D02*
X11228197Y10054980D01*
X11057376Y10308420D02*
X11252396Y10113400D01*
X11878000D01*
X3690768Y10250000D02*
X3783177D01*
X3749300Y10379821D02*
X3751220Y10381741D01*
X3771579Y10308420D02*
X3807376D01*
X3748449Y10309960D02*
X3770039D01*
X3751220Y10424220D02*
X3819800Y10492800D01*
X3744999Y10313410D02*
X3748449Y10309960D01*
X3751220Y10381741D02*
Y10424220D01*
X3989477Y10043700D02*
X4890200D01*
X3807376Y10308420D02*
X4002396Y10113400D01*
X3770039Y10309960D02*
X3771579Y10308420D01*
X3819800Y10492800D02*
Y10592400D01*
X3744999Y10313410D02*
Y10335000D01*
X3783177Y10250000D02*
X3989477Y10043700D01*
X3749300Y10334900D02*
Y10379821D01*
X4002396Y10113400D02*
X4697700D01*
X11065500Y10588100D02*
X11069800Y10592400D01*
X10999300Y10335000D02*
X11065500Y10401200D01*
Y10588100D01*
X11993380Y10054980D02*
X12089300Y10150900D01*
X7029600Y10250200D02*
X7184231D01*
X7210000Y10275969D01*
Y10331550D01*
X7440500Y10588100D02*
X7444800Y10592400D01*
X7374300Y10335000D02*
X7440500Y10401200D01*
Y10588100D01*
X12839893Y9535197D02*
X13042595Y9332495D01*
X7639700Y4375300D02*
Y4764100D01*
X7638600Y4765200D02*
X7639700Y4764100D01*
X6900300Y4454223D02*
X7078493Y4276030D01*
X6900300Y4454223D02*
Y4763700D01*
X4759945Y4961400D02*
X9747300D01*
X10027200Y4681500D01*
X4482005Y4683461D02*
X4759945Y4961400D01*
X10678300Y4297089D02*
Y4297421D01*
X9371255Y4387610D02*
X10588111D01*
X10678300Y4297421D01*
X9369605Y4389261D02*
X9371255Y4387610D01*
X9369605Y4389261D02*
Y4394500D01*
X9843241Y4329190D02*
X10563913D01*
X9351505Y4394500D02*
Y4674300D01*
X10619880Y4272891D02*
Y4273223D01*
X10563913Y4329190D02*
X10619880Y4273223D01*
X10678300Y4297089D02*
X10700618Y4274770D01*
X10790281D01*
X10812600Y4238669D02*
Y4252452D01*
X10790281Y4274770D02*
X10812600Y4252452D01*
Y4238669D02*
X10818851Y4232418D01*
Y4193850D02*
Y4232418D01*
X10742301Y4190400D02*
Y4212900D01*
X10676420Y4216350D02*
X10738851D01*
X10619880Y4272891D02*
X10676420Y4216350D01*
X9757750Y4243700D02*
X9843241Y4329190D01*
X10738851Y4216350D02*
X10742301Y4212900D01*
X9345305Y4370200D02*
X9369605Y4394500D01*
X7754600Y4407582D02*
Y4765200D01*
X6606800Y5722000D02*
X6893800Y5435000D01*
Y5089900D02*
Y5435000D01*
X4326050Y5085800D02*
X4328250Y5083600D01*
X6750400D01*
X7751600Y5069900D02*
X7751950Y5070250D01*
X11937050D01*
X11939100Y5072300D02*
X12520900D01*
X7630100Y5068800D02*
Y5386800D01*
X11937050Y5070250D02*
X11939100Y5072300D01*
X7630100Y5386800D02*
X7945300Y5702000D01*
X2346318Y4384100D02*
X3245678D01*
X1451300Y4278300D02*
Y4658895D01*
X3245678Y4384100D02*
X3412168Y4217610D01*
X4881783Y11500100D02*
X5095775Y11714092D01*
X3665001Y11248269D02*
Y11473602D01*
X5098136Y11714092D02*
X5120455Y11736411D01*
X5095775Y11714092D02*
X5098136D01*
X5120455Y11754450D02*
X5159105Y11793100D01*
X5120455Y11736411D02*
Y11754450D01*
X3691499Y11500100D02*
X4881783D01*
X5159105Y11793100D02*
Y12084500D01*
X8840195Y11646805D02*
X9070300Y11416700D01*
X9620717Y11498600D02*
X10715423D01*
X9070300Y11416700D02*
X10754300D01*
X10835001Y11304891D02*
Y11472832D01*
X10715423Y11498600D02*
X10716193Y11499370D01*
X10808462D02*
X10835001Y11472832D01*
X8840195Y11646805D02*
Y12086200D01*
X10716193Y11499370D02*
X10808462D01*
X9403525Y11715792D02*
X9620717Y11498600D01*
X10922550Y11173450D02*
X10938500Y11157500D01*
X10922550Y11173450D02*
Y11240719D01*
X10915001Y11248269D02*
X10922550Y11240719D01*
X10223700Y9640500D02*
X11678200D01*
X10027295Y9836905D02*
X10223700Y9640500D01*
X11678200D02*
X11871800Y9834100D01*
X6511100Y9539400D02*
X6773900Y9802200D01*
X6956100Y10335000D02*
X7130000D01*
X6920500Y10141100D02*
X7029600Y10250200D01*
X9352100Y8695700D02*
Y9241600D01*
X13042595Y8396800D02*
Y9332495D01*
X6275000Y5722000D02*
X6606800D01*
X5559705Y5723700D02*
X6275000D01*
X5159105Y6124300D02*
X5559705Y5723700D01*
X8718000Y6124300D02*
X8851505D01*
X8267300Y5702000D02*
X8291440Y5726140D01*
X8319840D02*
X8718000Y6124300D01*
X8291440Y5726140D02*
X8319840D01*
X7945300Y5702000D02*
X8267300D01*
X12520900Y5072300D02*
X12621400Y5172800D01*
Y6046805D01*
X12543905Y6124300D02*
X12621400Y6046805D01*
X7561714Y4214696D02*
X7754600Y4407582D01*
X7381596Y4214696D02*
X7561714D01*
X7357300Y4190400D02*
X7381596Y4214696D01*
X7540430Y4276030D02*
X7639700Y4375300D01*
X7315390Y4276030D02*
X7540430D01*
X7277300Y4237940D02*
X7315390Y4276030D01*
X7277300Y4190400D02*
Y4237940D01*
X7081505Y4190400D02*
X7117301D01*
X7197301D02*
Y4253712D01*
X7174982Y4276030D02*
X7197301Y4253712D01*
X7078493Y4276030D02*
X7174982D01*
X2545700Y5085800D02*
X4326050D01*
X2022000Y5097200D02*
X2545700D01*
X1466705Y5652495D02*
X2022000Y5097200D01*
X1466705Y5652495D02*
Y6124300D01*
X1965395Y986600D02*
Y1866695D01*
X2117300Y2018600D01*
X7197300Y3075000D02*
Y3110400D01*
X7179170Y3056870D02*
X7197300Y3075000D01*
X7179170Y3049092D02*
Y3056870D01*
X7156107Y3026030D02*
X7179170Y3049092D01*
X4487000Y8384100D02*
X4674400Y8571500D01*
X9843434D01*
X10027295Y8387639D01*
Y9836905D02*
Y9837639D01*
X4283200Y9630300D02*
X4487000Y9834100D01*
X2849834Y9630300D02*
X4283200D01*
X2642495Y9837639D02*
X2849834Y9630300D01*
X2642400Y6131500D02*
X2654440Y6119460D01*
X2775300Y5928100D02*
X4373600D01*
X2654440Y6048960D02*
X2775300Y5928100D01*
X2654440Y6048960D02*
Y6119460D01*
X4482005Y6036505D02*
Y6133461D01*
X4373600Y5928100D02*
X4482005Y6036505D01*
X11843481Y6052880D02*
Y6110136D01*
X11866805Y6133461D01*
X11699400Y5908800D02*
X11843481Y6052880D01*
X10152600Y5908800D02*
X11699400D01*
X10027200Y6034200D02*
X10152600Y5908800D01*
X10027200Y6034200D02*
Y6131500D01*
X2665724Y13460876D02*
X2794100Y13332500D01*
X4360781D01*
X2642400Y13541701D02*
X2665724Y13518376D01*
Y13460876D02*
Y13518376D01*
X4360781Y13332500D02*
X4482005Y13453723D01*
Y13543661D01*
X8850195Y9846800D02*
X8856395Y9853000D01*
X10759301Y10334900D02*
Y10416599D01*
X13042595Y9846800D02*
X13055295Y9859500D01*
Y10150900D01*
X13072397D02*
Y10173003D01*
X13050807D02*
X13072397D01*
X12913499Y10331900D02*
X13041960Y10203440D01*
Y10181850D02*
Y10203440D01*
Y10181850D02*
X13050807Y10173003D01*
X12096500Y10331900D02*
X12913499D01*
X12548795Y9853000D02*
Y10150900D01*
X12542595Y9846800D02*
X12548795Y9853000D01*
X12089300Y10150900D02*
X12548795D01*
X11878000Y10113400D02*
X12096500Y10331900D01*
X8850195Y2734500D02*
X8856395Y2740700D01*
X8850195Y2436600D02*
Y2734500D01*
X8838805Y4370200D02*
X8965305Y4243700D01*
X9757750D01*
X10818851Y4193850D02*
X10822301Y4190400D01*
X10939131Y4274770D02*
X12482936D01*
X12543905Y4370200D02*
Y4674300D01*
X12525826Y4317660D02*
Y4352121D01*
X12543905Y4370200D01*
X12482936Y4274770D02*
X12525826Y4317660D01*
X10902301Y4190400D02*
Y4237940D01*
X10939131Y4274770D01*
X10995001Y4177700D02*
X11052800Y4119901D01*
Y3932900D02*
Y4119901D01*
X10995001Y4177700D02*
X12871400D01*
X13043906Y4350205D01*
Y4674300D01*
X10902300Y3068000D02*
X10920429Y3049871D01*
Y3049092D02*
Y3049871D01*
Y3049092D02*
X10944751Y3024770D01*
X12542595Y2436600D02*
Y2750605D01*
X13042595Y2436600D02*
X13049001Y2443005D01*
Y2998300D01*
X12936900Y3110400D02*
X13049001Y2998300D01*
X10982299Y3110400D02*
X12936900D01*
X10671800Y3229000D02*
X10740380Y3160420D01*
Y3112320D02*
Y3160420D01*
X10671800Y3229000D02*
Y3367900D01*
X10740380Y3112320D02*
X10742300Y3110400D01*
X10982299Y3157940D02*
X11052800Y3228441D01*
Y3367900D01*
X10982299Y3110400D02*
Y3157940D01*
X10822300Y3110400D02*
Y3157940D01*
X10798800Y3181439D02*
X10822300Y3157940D01*
X10798800Y3181439D02*
Y3367900D01*
X10902300Y3157940D02*
X10925800Y3181440D01*
Y3367900D01*
X9362895Y2807695D02*
X9488600Y2933400D01*
X10546930D01*
X10638300Y3024770D01*
X10760600D01*
X9362895Y2740700D02*
Y2807695D01*
X10718004Y3086104D02*
X10742300Y3110400D01*
X9186121Y3086104D02*
X10718004D01*
X8907025Y2807008D02*
X9186121Y3086104D01*
X8907025Y2743790D02*
Y2807008D01*
X8903935Y2740700D02*
X8907025Y2743790D01*
X8856395Y2740700D02*
X8903935D01*
X10822300Y3062860D02*
Y3110400D01*
X10817938Y3062860D02*
X10822300D01*
X10781107Y3026030D02*
X10817938Y3062860D01*
X10761860Y3026030D02*
X10781107D01*
X10760600Y3024770D02*
X10761860Y3026030D01*
X9350195Y2436600D02*
Y2743678D01*
X11715400Y2580300D02*
X11871800Y2423900D01*
X10180155Y2580300D02*
X11715400D01*
X10027295Y2427439D02*
X10180155Y2580300D01*
X4487000Y973900D02*
X4668800Y1155700D01*
X9849034D02*
X9929885Y1074849D01*
X4668800Y1155700D02*
X9849034D01*
X9929885Y1074849D02*
Y1074849D01*
Y1074849D02*
X10027295Y977439D01*
X2642495Y2427439D02*
X2799355Y2584300D01*
X4332000D02*
X4487000Y2429300D01*
X2799355Y2584300D02*
X4332000D01*
X4487000Y2423900D02*
Y2429300D01*
X3491700Y3111000D02*
X3492300Y3110400D01*
X3491700Y3111000D02*
Y3176600D01*
X3421800Y3246500D02*
X3491700Y3176600D01*
X3421800Y3246500D02*
Y3367900D01*
X3546700Y3365800D02*
X3548800Y3367900D01*
X3732299Y3110400D02*
Y3150399D01*
X3802800Y3220900D01*
Y3367900D01*
X3675800D02*
X3679100Y3364600D01*
Y3231600D02*
Y3364600D01*
X3654600Y3207100D02*
X3679100Y3231600D01*
X5652300Y2442094D02*
X5657795Y2436600D01*
X3689131Y4274770D02*
X5066470D01*
X5159105Y4367405D01*
X3652301Y4190400D02*
Y4237940D01*
X3689131Y4274770D01*
X5159105Y4367405D02*
Y4674300D01*
X5659105D02*
X5674700Y4658705D01*
Y4217200D02*
Y4658705D01*
X5647900Y4190400D02*
X5674700Y4217200D01*
X3732300Y4190400D02*
X5647900D01*
X1451300Y4658895D02*
X1466705Y4674300D01*
X1451300Y4278300D02*
X1538900Y4190700D01*
X2152918D01*
X2346318Y4384100D01*
X3412168Y4217610D02*
X3465091D01*
X3492301Y4190400D01*
X2249800Y4370200D02*
X2377800Y4498200D01*
X1960505Y4370200D02*
X2249800D01*
X1966705Y4376400D02*
Y4674300D01*
X1960505Y4370200D02*
X1966705Y4376400D01*
X3534211Y4276030D02*
X3572301Y4237940D01*
Y4190400D02*
Y4237940D01*
X10835000Y10331550D02*
X10838450Y10335000D01*
X10994999Y10313410D02*
Y10335000D01*
X11021579Y10308420D02*
X11057376D01*
X11020039Y10309960D02*
X11021579Y10308420D01*
X10994999Y10313410D02*
X10998449Y10309960D01*
X11020039D01*
X10918450Y10272318D02*
X10940768Y10250000D01*
X11033177D01*
X10915000Y10335000D02*
X10918450Y10331550D01*
Y10272318D02*
Y10331550D01*
X10926850Y10576450D02*
X10942800Y10592400D01*
X10919300Y10501631D02*
X10926850Y10509181D01*
Y10576450D01*
X10919300Y10335000D02*
Y10501631D01*
X10840096Y10445804D02*
Y10502721D01*
X10831750Y10511066D02*
X10840096Y10502721D01*
X10839301Y10445009D02*
X10840096Y10445804D01*
X10815800Y10592400D02*
X10831750Y10576450D01*
Y10511066D02*
Y10576450D01*
X10839301Y10335000D02*
Y10445009D01*
X10688800Y10487100D02*
X10759301Y10416599D01*
X10688800Y10487100D02*
Y10592400D01*
X10755001Y11333301D02*
Y11415000D01*
X10684500Y11262800D02*
X10755001Y11333301D01*
X10684500Y11157500D02*
Y11262800D01*
X10835796Y11247179D02*
Y11304096D01*
X10835001Y11304891D02*
X10835796Y11304096D01*
X10833800Y11245184D02*
X10835796Y11247179D01*
X10827450Y11238834D02*
X10833800Y11245184D01*
X10827450Y11173450D02*
Y11238834D01*
X10811500Y11157500D02*
X10827450Y11173450D01*
X11065500Y11157500D02*
Y11257100D01*
X10995000Y11370079D02*
Y11415000D01*
X10996920Y11325680D02*
Y11368159D01*
Y11325680D02*
X11065500Y11257100D01*
X10995000Y11370079D02*
X10996920Y11368159D01*
X7184232Y11499700D02*
X7210001Y11473931D01*
X7210000Y10331550D02*
X7213450Y10335000D01*
X7369999Y10313410D02*
Y10335000D01*
X7396579Y10308420D02*
X7432376D01*
X7395039Y10309960D02*
X7396579Y10308420D01*
X7432376D02*
X7570100Y10170695D01*
X7369999Y10313410D02*
X7373449Y10309960D01*
X7395039D01*
X7408177Y10250000D02*
X7461400Y10196777D01*
X7293449Y10272318D02*
X7315768Y10250000D01*
X7408177D01*
X7289999Y10335000D02*
X7293449Y10331550D01*
Y10272318D02*
Y10331550D01*
X7301850Y10576450D02*
X7317800Y10592400D01*
X7294300Y10501631D02*
X7301850Y10509181D01*
Y10576450D01*
X7294300Y10335000D02*
Y10501631D01*
X7215096Y10445804D02*
Y10502721D01*
X7206750Y10511066D02*
X7215096Y10502721D01*
X7214301Y10445009D02*
X7215096Y10445804D01*
X7190800Y10592400D02*
X7206750Y10576450D01*
Y10511066D02*
Y10576450D01*
X7214301Y10335000D02*
Y10445009D01*
X7063800Y10487100D02*
X7134301Y10416599D01*
X7063800Y10487100D02*
Y10592400D01*
X7134301Y10334900D02*
Y10416599D01*
X7130001Y11333301D02*
Y11415000D01*
X7059500Y11262800D02*
X7130001Y11333301D01*
X7059500Y11157500D02*
Y11262800D01*
X7210796Y11247179D02*
Y11304096D01*
X7210001Y11304891D02*
X7210796Y11304096D01*
X7202450Y11238834D02*
X7210796Y11247179D01*
X7202450Y11173450D02*
Y11238834D01*
X7186500Y11157500D02*
X7202450Y11173450D01*
X7297550D02*
X7313500Y11157500D01*
X7290000Y11248269D02*
X7297550Y11240719D01*
Y11173450D02*
Y11240719D01*
X7440500Y11157500D02*
Y11257100D01*
X7371920Y11325680D02*
Y11368159D01*
Y11325680D02*
X7440500Y11257100D01*
X7370000Y11370079D02*
X7371920Y11368159D01*
X1465395Y9846800D02*
X1471595Y9853000D01*
Y10150900D01*
X1471005D02*
Y10232405D01*
X1965395Y9846800D02*
X1978095Y9859500D01*
Y10150900D01*
X4867800Y10283500D02*
X5578996D01*
X5659056Y10203440D01*
X4697700Y10113400D02*
X4867800Y10283500D01*
X5659056Y10162339D02*
X5670495Y10150900D01*
X5659056Y10162339D02*
Y10203440D01*
X5657795Y9846800D02*
X5670495Y9859500D01*
Y10150900D01*
X5157795Y10144700D02*
X5163995Y10150900D01*
X5157795Y9846800D02*
Y10144700D01*
X4997400Y10150900D02*
X5163995D01*
X4890200Y10043700D02*
X4997400Y10150900D01*
X3668450Y10272318D02*
Y10331550D01*
Y10272318D02*
X3690768Y10250000D01*
X3665000Y10335000D02*
X3668450Y10331550D01*
X3669301Y10335000D02*
Y10501631D01*
X1573500Y10334900D02*
X3509301D01*
X1471005Y10232405D02*
X1573500Y10334900D01*
X1978095Y10150900D02*
Y10205240D01*
X2023054Y10250200D02*
X3559231D01*
X3585000Y10275969D02*
Y10331550D01*
X3589301Y10335000D02*
Y10445009D01*
X1978095Y10205240D02*
X2023054Y10250200D01*
X3559231D02*
X3585000Y10275969D01*
Y10331550D02*
X3588450Y10335000D01*
X3669301Y10501631D02*
X3676850Y10509181D01*
Y10576450D02*
X3692800Y10592400D01*
X3676850Y10509181D02*
Y10576450D01*
X3581750Y10511066D02*
X3590096Y10502721D01*
Y10445804D02*
Y10502721D01*
X3589301Y10445009D02*
X3590096Y10445804D01*
X3509301Y10334900D02*
Y10416599D01*
X3581750Y10511066D02*
Y10576450D01*
X3565800Y10592400D02*
X3581750Y10576450D01*
X3438800Y10487100D02*
Y10592400D01*
Y10487100D02*
X3509301Y10416599D01*
X9340195Y11794800D02*
Y12086200D01*
X9378845Y11738111D02*
X9401164Y11715792D01*
X9340195Y11794800D02*
X9378845Y11756150D01*
X9401164Y11715792D02*
X9403525D01*
X9378845Y11738111D02*
Y11756150D01*
X12532595Y11782100D02*
Y12086200D01*
X3585001Y11304891D02*
Y11473931D01*
X1966705Y11653895D02*
X2120900Y11499700D01*
X3559232D02*
X3585001Y11473931D01*
X2120900Y11499700D02*
X3559232D01*
X3665001Y11473602D02*
X3691499Y11500100D01*
X1966705Y11780400D02*
Y12084500D01*
Y11653895D02*
Y11780400D01*
X3434500Y11262800D02*
X3505001Y11333301D01*
X3434500Y11157500D02*
Y11262800D01*
X3561500Y11157500D02*
X3577450Y11173450D01*
Y11238834D01*
X3583800Y11245184D01*
X3505001Y11333301D02*
Y11415000D01*
X3585001Y11304891D02*
X3585796Y11304096D01*
Y11247179D02*
Y11304096D01*
X3583800Y11245184D02*
X3585796Y11247179D01*
X3672550Y11173450D02*
Y11240719D01*
Y11173450D02*
X3688500Y11157500D01*
X3665001Y11248269D02*
X3672550Y11240719D01*
X3746920Y11325680D02*
Y11368159D01*
Y11325680D02*
X3815500Y11257100D01*
Y11157500D02*
Y11257100D01*
X3745000Y11370079D02*
Y11415000D01*
Y11370079D02*
X3746920Y11368159D01*
X3745000Y11415000D02*
X5429000D01*
X5659105Y11645105D02*
Y12084500D01*
X5429000Y11415000D02*
X5659105Y11645105D01*
X1819405Y11415000D02*
X3505001D01*
X1454005Y11780400D02*
X1819405Y11415000D01*
X1454005Y11780400D02*
X1466705Y11793100D01*
Y12084500D01*
D26*
X8615990Y12145090D02*
X8711100Y12240200D01*
X9447300D02*
X10102500Y11585000D01*
X8711100Y12240200D02*
X9447300D01*
X11494500Y10342500D02*
X11583400Y10431400D01*
X8615990Y11736390D02*
Y12145090D01*
X10102500Y11585000D02*
X10755001D01*
X8464600D02*
X8615990Y11736390D01*
X7370000Y11585000D02*
X8464600D01*
X7290000D02*
X7370000D01*
X8124300Y4863870D02*
X9402055D01*
X7523670D02*
X8124300D01*
X10274400Y4182900D02*
X10411200D01*
X10020100Y3928600D02*
X10274400Y4182900D01*
X9059570Y3928600D02*
X10020100D01*
X8124300Y4863870D02*
X9059570Y3928600D01*
X10412800Y3932900D02*
Y4181300D01*
X10411200Y4182900D02*
X10412800Y4181300D01*
X3161200Y3934500D02*
X3162800Y3932900D01*
X3161200Y3934500D02*
Y4182900D01*
X3532301Y4360400D02*
X3572301D01*
X3050301Y4842400D02*
X3532301Y4360400D01*
X2821200Y4182900D02*
X3161200D01*
X2630000Y3991700D02*
X2821200Y4182900D01*
X1495800Y3991700D02*
X2630000D01*
X1128800Y4358700D02*
X1495800Y3991700D01*
X1128800Y4679000D02*
X1292200Y4842400D01*
X1128800Y4358700D02*
Y4679000D01*
X1292200Y4842400D02*
X3050301D01*
X9613500Y9744600D02*
Y10028000D01*
X9750500Y10165000D01*
X9507300Y9638400D02*
X9613500Y9744600D01*
X7391776Y10134851D02*
Y10139223D01*
X7379249Y10151750D02*
X7391776Y10139223D01*
X8248700Y9638400D02*
X9507300D01*
X7921800Y9965300D02*
X8248700Y9638400D01*
X5068800Y12291500D02*
X5813600D01*
X4916300Y12139000D02*
X5068800Y12291500D01*
X5813600D02*
X5948400Y12156700D01*
X6245930Y4863870D02*
X6787800Y4322000D01*
Y3932900D02*
Y4322000D01*
X6245930Y4863870D02*
X6937408D01*
X5120037D02*
X6245930D01*
X12303300Y4622000D02*
Y4820300D01*
X10982300Y4360400D02*
X12041700D01*
X12303300Y4622000D01*
X7994930Y2936170D02*
X8690800Y2240300D01*
X7357299Y2934700D02*
X7358769Y2936170D01*
X7994930D01*
X5699300Y2178900D02*
X6460800Y2940400D01*
X7117300D01*
X2368500Y2913700D02*
X4790300D01*
X7123000Y2934700D02*
X7357299D01*
X682900Y2763000D02*
Y6166900D01*
X1090000Y6574000D01*
Y7130001D02*
Y7210001D01*
Y6574000D02*
Y7130001D01*
X682900Y2763000D02*
X1169300Y2276600D01*
X4790300Y2913700D02*
X4884600Y2819400D01*
X2218600Y2763800D02*
X2368500Y2913700D01*
X2218600Y2412500D02*
Y2763800D01*
X2082700Y2276600D02*
X2218600Y2412500D01*
X1169300Y2276600D02*
X2082700D01*
X1090000Y7370000D02*
Y7694000D01*
X667800Y8116200D02*
X1090000Y7694000D01*
X667800Y8116200D02*
Y12224100D01*
X1090000Y7290000D02*
Y7370000D01*
X837900Y12394200D02*
X2042900D01*
X667800Y12224100D02*
X837900Y12394200D01*
X1826078Y8666727D02*
X2011900Y8852550D01*
X1826078Y8352877D02*
Y8666727D01*
X1911725Y8267230D02*
X2172970D01*
X2332500Y7701100D02*
Y8107700D01*
X2172970Y8267230D02*
X2332500Y8107700D01*
X1826078Y8352877D02*
X1911725Y8267230D01*
X2011900Y9494800D02*
X2167100Y9650000D01*
X2011900Y8852550D02*
Y9494800D01*
X7561327Y9965300D02*
X7921800D01*
X7391776Y10134851D02*
X7561327Y9965300D01*
X2510000Y7130000D02*
X2514500Y7134500D01*
X2443300Y7701100D02*
X2514500Y7629900D01*
Y7134500D02*
Y7629900D01*
X10982299Y2940400D02*
X12048300D01*
X12356250Y2298750D02*
Y2632450D01*
Y2298750D02*
X12462200Y2192800D01*
X12048300Y2940400D02*
X12356250Y2632450D01*
X12462200Y2192800D02*
X13225000D01*
X13357401Y2325200D01*
X13124300Y4867900D02*
X13357401Y4634800D01*
Y2325200D02*
Y4634800D01*
X12303300Y4820300D02*
X12350900Y4867900D01*
X13124300D01*
X4884600Y2360500D02*
Y2819400D01*
Y2360500D02*
X5066200Y2178900D01*
X5699300D01*
X7117300Y2940400D02*
X7123000Y2934700D01*
X8690800Y2240300D02*
X9517800D01*
X9579100Y2301600D01*
Y2522500D01*
X9785200Y2728600D01*
X10530500D01*
X10742300Y2940400D01*
X10902300D02*
X10982299D01*
X10822300D02*
X10902300D01*
X10742300D02*
X10822300D01*
X2332500Y7701100D02*
X2443300D01*
X2082500Y7699500D02*
X2084100Y7701100D01*
X2332500D01*
X2167100Y9650000D02*
Y9895200D01*
X2436900Y10165000D01*
X3505000D01*
X11583400Y10431400D02*
X13197000D01*
X13371001Y9816400D02*
Y10257400D01*
X13197000Y10431400D02*
X13371001Y10257400D01*
X11184499Y9975500D02*
X12173800D01*
X10994999Y10165000D02*
X11184499Y9975500D01*
X12173800D02*
X12496100Y9653200D01*
X9750500Y10165000D02*
X10755000D01*
X3665000D02*
X3744300D01*
X3943130Y9966170D02*
X4797705D01*
X3744300Y10165000D02*
X3943130Y9966170D01*
X3585000Y10165000D02*
X3665000D01*
X4090100Y10356500D02*
X5913598D01*
X6287698Y9982400D01*
X5969798Y9664500D02*
X6287698Y9982400D01*
X4074500Y10344100D02*
X4076100Y10342500D01*
X4074500Y10344100D02*
Y10592500D01*
X6287698Y9982400D02*
X6947400D01*
X4076100Y10342500D02*
X4090100Y10356500D01*
X7921800Y9965300D02*
Y10121800D01*
X7701100Y10342500D02*
X7921800Y10121800D01*
X7699500Y10344100D02*
X7701100Y10342500D01*
X7699500Y10344100D02*
Y10592500D01*
X11324500Y10344100D02*
X11326100Y10342500D01*
X11324500Y10344100D02*
Y10592500D01*
X11326100Y10342500D02*
X11494500D01*
X13207800Y9653200D02*
X13371001Y9816400D01*
X12496100Y9653200D02*
X13207800D01*
X5099375Y9664500D02*
X5969798D01*
X3505000Y10165000D02*
X3585000D01*
X4797705Y9966170D02*
X5099375Y9664500D01*
X6947400Y9982400D02*
X7130000Y10165000D01*
X7210000D02*
X7289999D01*
X7130000D02*
X7210000D01*
X7289999D02*
X7369999D01*
X10915000D02*
X10994999D01*
X10835000D02*
X10915000D01*
X10755000D02*
X10835000D01*
X7433600Y4773800D02*
X7523670Y4863870D01*
X7433600Y4397598D02*
Y4773800D01*
X7277300Y4360400D02*
X7396403D01*
X7433600Y4397598D01*
X7197301Y4360400D02*
X7277300D01*
X7117301D02*
X7197301D01*
X7115400D02*
X7117301D01*
X7041600Y4434200D02*
X7115400Y4360400D01*
X6937408Y4863870D02*
X7041600Y4759678D01*
Y4434200D02*
Y4759678D01*
X4903030Y4646863D02*
X5120037Y4863870D01*
X9402055D02*
X9764825Y4501100D01*
X10822301Y4360400D02*
X10902301D01*
X10742301D02*
X10822301D01*
X10715900D02*
X10742301D01*
X10902301D02*
X10982300D01*
X9764825Y4501100D02*
X10575200D01*
X10715900Y4360400D01*
X4793200D02*
X4903030Y4470230D01*
Y4646863D01*
X3732300Y4360400D02*
X4793200D01*
X3572301D02*
X3652301D01*
X3732300D01*
X1090000Y7210001D02*
Y7290000D01*
X2042900Y12394200D02*
X2148500Y12288600D01*
Y11881000D02*
Y12288600D01*
Y11881000D02*
X2444500Y11585000D01*
X3505001D01*
X3745000D02*
X4538200D01*
X3665001D02*
X3745000D01*
X3585001D02*
X3665001D01*
X4538200D02*
X4916300Y11963100D01*
X3505001Y11585000D02*
X3585001D01*
X4916300Y11963100D02*
Y12139000D01*
X5948400Y11913300D02*
X6276700Y11585000D01*
X5948400Y11913300D02*
Y12156700D01*
X6276700Y11585000D02*
X7130001D01*
X10835001D02*
X10915001D01*
X10755001D02*
X10835001D01*
X7210001D02*
X7290000D01*
X7130001D02*
X7210001D01*
X10915001D02*
X10995000D01*
D27*
X8425500Y13542900D02*
Y13784100D01*
X8334600Y13875000D02*
X8425500Y13784100D01*
X8129300Y13875000D02*
X8334600D01*
X4416905Y13850500D02*
X4663610D01*
X4738005Y13543661D02*
Y13776105D01*
X4663610Y13850500D02*
X4738005Y13776105D01*
X2386400Y13750905D02*
X2477395Y13841901D01*
X2386400Y13541701D02*
Y13750905D01*
X2477395Y13841901D02*
X2705100D01*
X7925400Y13021700D02*
X7957300D01*
X8050700Y13115100D01*
X6137760Y13534500D02*
X6278760Y13393500D01*
X5659105Y13534500D02*
X6137760D01*
X6278760Y13393500D02*
X6331300D01*
X11867800Y677100D02*
X12049800D01*
X12127800Y755100D02*
Y973900D01*
X12049800Y677100D02*
X12127800Y755100D01*
X10029000Y669500D02*
X10032800Y665700D01*
X9771295Y743895D02*
Y977439D01*
Y743895D02*
X9845690Y669500D01*
X10029000D01*
X4490600Y682400D02*
X4668605D01*
X4743000Y756795D02*
Y973900D01*
X4668605Y682400D02*
X4743000Y756795D01*
X2507500Y659500D02*
X2656900D01*
X2386495Y780505D02*
X2507500Y659500D01*
X2386495Y780505D02*
Y977439D01*
X14007500Y9116400D02*
Y9400000D01*
Y9116400D02*
X14113600Y9010300D01*
X14081895Y7818200D02*
X14130600D01*
X14007500Y7743805D02*
X14081895Y7818200D01*
X14007500Y7600000D02*
Y7743805D01*
Y5343305D02*
X14081895Y5417700D01*
X14122800D01*
X14007500Y5100000D02*
Y5343305D01*
X8410000Y5424300D02*
X8531505D01*
X8267300Y5567000D02*
X8410000Y5424300D01*
X5979105D02*
X6112300D01*
X6275000Y5587000D01*
X12122805Y6133461D02*
Y6301195D01*
X11983700Y6440300D02*
X12122805Y6301195D01*
X11801705Y6440300D02*
X11983700D01*
X9771200Y6131500D02*
Y6315400D01*
X9887500Y6431700D01*
X10089900D01*
X2505100Y6431700D02*
X2505100Y6431700D01*
X2705100D01*
X2386400Y6313000D02*
X2505100Y6431700D01*
X2386400Y6131500D02*
Y6313000D01*
X4738005Y6133461D02*
Y6294095D01*
X4416905Y6440300D02*
X4591800D01*
X4738005Y6294095D01*
X9099500Y9847495D02*
Y10041200D01*
Y9847495D02*
X9100195Y9846800D01*
X9099500Y10041200D02*
Y10069600D01*
X9018200Y10150900D02*
X9099500Y10069600D01*
X8991395Y10150900D02*
X9018200D01*
X2386495Y8387639D02*
X2392809Y8381325D01*
Y8307091D02*
X2654600Y8045300D01*
X2392809Y8307091D02*
Y8381325D01*
X4668605Y8079800D02*
X4743000Y8154195D01*
X4492800Y8079800D02*
X4668605D01*
X4485100Y8072100D02*
X4492800Y8079800D01*
X4743000Y8154195D02*
Y8384100D01*
X9771295Y8227405D02*
X9917900Y8080800D01*
X10092395D01*
X9771295Y8227405D02*
Y8387639D01*
X11867900Y8091100D02*
X12053405D01*
X12127800Y8165495D02*
Y8384100D01*
X12053405Y8091100D02*
X12127800Y8165495D01*
X12065900Y12138500D02*
X12067440Y12136960D01*
X12793905Y11889200D02*
Y12084500D01*
Y11889200D02*
X12902705Y11780400D01*
X13515900Y12138500D02*
X13773199Y11881200D01*
Y11872500D02*
Y11881200D01*
D28*
X4206085Y13958022D02*
X4454463Y14206400D01*
X4206085Y13563580D02*
X4226005Y13543661D01*
X4454463Y14206400D02*
X8112650D01*
X4206085Y13563580D02*
Y13958022D01*
X3107500Y14206400D02*
X4454463D01*
X11615800Y973900D02*
X11616700Y973000D01*
Y671200D02*
Y973000D01*
X10283295Y977439D02*
X10292395Y968339D01*
Y670600D02*
Y968339D01*
X4231900Y671200D02*
Y973000D01*
X4231000Y973900D02*
X4231900Y973000D01*
X2898495Y977439D02*
X2907595Y968339D01*
Y670600D02*
Y968339D01*
X11590885Y6647620D02*
X11726300Y6783035D01*
Y6804800D01*
X11590885Y6153381D02*
X11610805Y6133461D01*
X11590885Y6153381D02*
Y6647620D01*
X13520320Y11622080D02*
X13937480D01*
X10415000Y6804800D02*
X11726300D01*
X13631226Y6319475D02*
Y10258325D01*
X10283200Y6131500D02*
X10300720Y6149020D01*
X11701900Y14206400D02*
X12909100D01*
X4231000Y7850500D02*
Y8384100D01*
X4482758Y302000D02*
X10648600D01*
X11615800Y7845400D02*
Y8384100D01*
X10300720Y6149020D02*
Y6519024D01*
X10287220Y6532524D02*
Y6677020D01*
X10320800Y7849700D02*
Y8350134D01*
X10287220Y6532524D02*
X10300720Y6519024D01*
X3174600Y302000D02*
X4482758D01*
X4206085Y6153381D02*
Y6582385D01*
X2898400Y6131500D02*
X2935100Y6168200D01*
Y6461700D01*
X3278200Y6804800D01*
X4428500D01*
X4206085Y6153381D02*
X4226005Y6133461D01*
X4206085Y6582385D02*
X4428500Y6804800D01*
X2907595Y8080800D02*
Y8378539D01*
X2898495Y8387639D02*
X2907595Y8378539D01*
X13649185Y10276285D02*
X13989400Y10616500D01*
X13178900Y7640700D02*
X13605824Y8067625D01*
X13145900Y6804800D02*
X13631226Y6319475D01*
Y5183573D02*
Y6319475D01*
X13630299Y1021800D02*
Y5182647D01*
X13631226Y5183573D01*
X12926900Y318400D02*
X13630299Y1021800D01*
X13989400Y10616500D02*
Y11674000D01*
X11726300Y6804800D02*
X13145900D01*
X11820500Y7640700D02*
X13178900D01*
X14197099Y11881700D02*
Y12918401D01*
X12909100Y14206400D02*
X14197099Y12918401D01*
X13937480Y11622080D02*
X14197099Y11881700D01*
X13515900Y11626500D02*
X13520320Y11622080D01*
X2938400Y13581700D02*
Y14037300D01*
X7913500Y13542900D02*
Y14007249D01*
X8112650Y14206400D02*
X11701900D01*
X7913500Y14007249D02*
X8112650Y14206400D01*
X2898400Y13541701D02*
X2938400Y13581700D01*
Y14037300D02*
X3107500Y14206400D01*
X4231000Y7850500D02*
X4440800Y7640700D01*
X10513400D01*
X10283295Y8387639D02*
X10320800Y8350134D01*
Y7849700D02*
X10513400Y7657100D01*
Y7640700D02*
Y7657100D01*
Y7640700D02*
X11820500D01*
X11615800Y7845400D02*
X11820500Y7640700D01*
X10287220Y6677020D02*
X10415000Y6804800D01*
X4428500D02*
X10415000D01*
X3215600Y7640700D02*
X4440800D01*
X2907595Y7948705D02*
Y8080800D01*
Y7948705D02*
X3215600Y7640700D01*
X11782242Y318400D02*
X12926900D01*
X11765842Y302000D02*
Y403716D01*
X11619380Y550178D02*
X11765842Y403716D01*
X11619380Y550178D02*
Y605980D01*
X11616700Y608660D02*
X11619380Y605980D01*
X11616700Y608660D02*
Y671200D01*
X10648600Y302000D02*
Y314395D01*
X10292395Y670600D02*
X10648600Y314395D01*
Y302000D02*
X11765842D01*
X4234580Y550178D02*
X4482758Y302000D01*
X4234580Y550178D02*
Y605980D01*
X4231900Y608660D02*
X4234580Y605980D01*
X4231900Y608660D02*
Y671200D01*
X2907595Y569005D02*
Y670600D01*
Y569005D02*
X3174600Y302000D01*
D29*
X11610805Y4683461D02*
D03*
X12122805Y6133461D02*
D03*
X11866805D02*
D03*
X11610805D02*
D03*
X12122805Y4683461D02*
D03*
X11866805D02*
D03*
X2898495Y9837639D02*
D03*
X2386495Y8387639D02*
D03*
X2642495D02*
D03*
X2898495D02*
D03*
X2386495Y9837639D02*
D03*
X2642495D02*
D03*
X4231000Y8384100D02*
D03*
X4743000Y9834100D02*
D03*
X4487000D02*
D03*
X4231000D02*
D03*
X4743000Y8384100D02*
D03*
X4487000D02*
D03*
X2898400Y13541701D02*
D03*
X2386400Y12091700D02*
D03*
X2642400D02*
D03*
X2898400D02*
D03*
X2386400Y13541701D02*
D03*
X2642400D02*
D03*
X4226005Y12093661D02*
D03*
X4738005Y13543661D02*
D03*
X4482005D02*
D03*
X4226005D02*
D03*
X4738005Y12093661D02*
D03*
X4482005D02*
D03*
X10027295Y9837639D02*
D03*
X9771295D02*
D03*
X10283295Y8387639D02*
D03*
X10027295D02*
D03*
X9771295D02*
D03*
X10283295Y9837639D02*
D03*
X8169500Y12092900D02*
D03*
X8425500D02*
D03*
X7913500Y13542900D02*
D03*
X8169500D02*
D03*
X8425500D02*
D03*
X7913500Y12092900D02*
D03*
X11871800Y8384100D02*
D03*
X12127800D02*
D03*
X11615800Y9834100D02*
D03*
X11871800D02*
D03*
X12127800D02*
D03*
X11615800Y8384100D02*
D03*
X13515900Y11882500D02*
D03*
Y12138500D02*
D03*
X12065900Y11626500D02*
D03*
Y11882500D02*
D03*
Y12138500D02*
D03*
X13515900Y11626500D02*
D03*
X2898495Y2427439D02*
D03*
X2386495Y977439D02*
D03*
X2642495D02*
D03*
X2898495D02*
D03*
X2386495Y2427439D02*
D03*
X2642495D02*
D03*
X4231000Y973900D02*
D03*
X4743000Y2423900D02*
D03*
X4487000D02*
D03*
X4231000D02*
D03*
X4743000Y973900D02*
D03*
X4487000D02*
D03*
X10283295Y2427439D02*
D03*
X9771295Y977439D02*
D03*
X10027295D02*
D03*
X10283295D02*
D03*
X9771295Y2427439D02*
D03*
X10027295D02*
D03*
X11615800Y973900D02*
D03*
X12127800Y2423900D02*
D03*
X11871800D02*
D03*
X11615800D02*
D03*
X12127800Y973900D02*
D03*
X11871800D02*
D03*
X2898400Y6131500D02*
D03*
X2386400Y4681500D02*
D03*
X2642400D02*
D03*
X2898400D02*
D03*
X2386400Y6131500D02*
D03*
X2642400D02*
D03*
X4226005Y4683461D02*
D03*
X4738005Y6133461D02*
D03*
X4482005D02*
D03*
X4226005D02*
D03*
X4738005Y4683461D02*
D03*
X4482005D02*
D03*
X10283200Y6131500D02*
D03*
X9771200Y4681500D02*
D03*
X10027200D02*
D03*
X10283200D02*
D03*
X9771200Y6131500D02*
D03*
X10027200D02*
D03*
D30*
X10177900Y13952400D02*
D03*
Y13698399D02*
D03*
Y13444400D02*
D03*
Y13190401D02*
D03*
Y12936400D02*
D03*
Y12682400D02*
D03*
Y12428400D02*
D03*
Y12174400D02*
D03*
X10431900D02*
D03*
X10685900D02*
D03*
X10939900D02*
D03*
X11193900D02*
D03*
X11447900D02*
D03*
X11701900D02*
D03*
Y12428400D02*
D03*
Y12682400D02*
D03*
Y12936400D02*
D03*
Y13190401D02*
D03*
Y13444400D02*
D03*
Y13698399D02*
D03*
Y13952400D02*
D03*
Y14206400D02*
D03*
D31*
X12223905Y5424300D02*
D03*
X13363905D02*
D03*
X2285394Y9096800D02*
D03*
X1145395D02*
D03*
X5977794D02*
D03*
X4837795D02*
D03*
X1146705Y12834500D02*
D03*
X2286705D02*
D03*
X4839105D02*
D03*
X5979105D02*
D03*
X8530195Y9096800D02*
D03*
X9670195D02*
D03*
X9671505Y12834500D02*
D03*
X8531505D02*
D03*
X12222595Y9096800D02*
D03*
X13362595D02*
D03*
X13363905Y12834500D02*
D03*
X12223905D02*
D03*
X2285394Y1686600D02*
D03*
X1145395D02*
D03*
X5977794D02*
D03*
X4837795D02*
D03*
X9670195D02*
D03*
X8530195D02*
D03*
X13362595D02*
D03*
X12222595D02*
D03*
X1146705Y5424300D02*
D03*
X2286705D02*
D03*
X4839105D02*
D03*
X5979105D02*
D03*
X8531505D02*
D03*
X9671505D02*
D03*
D32*
X12543905Y4674300D02*
D03*
X1965395Y9846800D02*
D03*
X5657795D02*
D03*
X1466705Y12084500D02*
D03*
X5159105D02*
D03*
X9350195Y9846800D02*
D03*
X8851505Y12084500D02*
D03*
X13042595Y9846800D02*
D03*
X12543905Y12084500D02*
D03*
X1965395Y2436600D02*
D03*
X5657795D02*
D03*
X9350195D02*
D03*
X13042595D02*
D03*
X1466705Y4674300D02*
D03*
X5159105D02*
D03*
X8851505D02*
D03*
D33*
X12793905D02*
D03*
X13043906D02*
D03*
X12543905Y6124300D02*
D03*
X13043906D02*
D03*
X242500Y4975000D02*
D03*
X1715395Y9846800D02*
D03*
X1465395D02*
D03*
X1965395Y8396800D02*
D03*
X1465395D02*
D03*
X5407795Y9846800D02*
D03*
X5157795D02*
D03*
X5657795Y8396800D02*
D03*
X5157795D02*
D03*
X1716705Y12084500D02*
D03*
X1966705D02*
D03*
X1466705Y13534500D02*
D03*
X1966705D02*
D03*
X5409105Y12084500D02*
D03*
X5659105D02*
D03*
X5159105Y13534500D02*
D03*
X5659105D02*
D03*
X8850195Y8396800D02*
D03*
X9350195D02*
D03*
X8850195Y9846800D02*
D03*
X9100195D02*
D03*
X9351505Y13534500D02*
D03*
X8851505D02*
D03*
X9351505Y12084500D02*
D03*
X9101505D02*
D03*
X12542595Y8396800D02*
D03*
X13042595D02*
D03*
X12542595Y9846800D02*
D03*
X12792595D02*
D03*
X13043906Y13534500D02*
D03*
X12543905D02*
D03*
X13043906Y12084500D02*
D03*
X12793905D02*
D03*
X1715395Y2436600D02*
D03*
X1465395D02*
D03*
X1965395Y986600D02*
D03*
X1465395D02*
D03*
X5407795Y2436600D02*
D03*
X5157795D02*
D03*
X5657795Y986600D02*
D03*
X5157795D02*
D03*
X9100195Y2436600D02*
D03*
X8850195D02*
D03*
X9350195Y986600D02*
D03*
X8850195D02*
D03*
X12792595Y2436600D02*
D03*
X12542595D02*
D03*
X13042595Y986600D02*
D03*
X12542595D02*
D03*
X1716705Y4674300D02*
D03*
X1966705D02*
D03*
X1466705Y6124300D02*
D03*
X1966705D02*
D03*
X5409105Y4674300D02*
D03*
X5659105D02*
D03*
X5159105Y6124300D02*
D03*
X5659105D02*
D03*
X9101505Y4674300D02*
D03*
X9351505D02*
D03*
X8851505Y6124300D02*
D03*
X9351505D02*
D03*
X242500Y9975000D02*
D03*
X14257500Y4525000D02*
D03*
X242500Y7475000D02*
D03*
X14257500Y7025000D02*
D03*
Y9525000D02*
D03*
D34*
X242500Y4525000D02*
D03*
Y9525000D02*
D03*
X14257500Y4975000D02*
D03*
X242500Y7025000D02*
D03*
X14257500Y7475000D02*
D03*
Y9975000D02*
D03*
D35*
X492500Y4400000D02*
D03*
Y5100000D02*
D03*
Y9400000D02*
D03*
Y10100000D02*
D03*
X14007500Y5100000D02*
D03*
Y4400000D02*
D03*
X492500Y6900000D02*
D03*
Y7600000D02*
D03*
X14007500D02*
D03*
Y6900000D02*
D03*
Y10100000D02*
D03*
Y9400000D02*
D03*
D36*
X12460700Y14209599D02*
D03*
D37*
Y13859599D02*
D03*
D38*
X7694400Y11453412D02*
D03*
X7513600Y11701700D02*
D03*
X7698900Y11714400D02*
D03*
X7517582Y11500100D02*
D03*
X7925400Y13021700D02*
D03*
X9099500Y10041200D02*
D03*
X6843600Y11837800D02*
D03*
X6710800Y11834000D02*
D03*
X6709200Y11497400D02*
D03*
X6835700D02*
D03*
X4061100Y3222200D02*
D03*
X3296200Y4058600D02*
D03*
X2542300Y5336300D02*
D03*
X1391500Y6799800D02*
D03*
X2229600Y7567000D02*
D03*
X1722200Y10157200D02*
D03*
X2614500Y9279400D02*
D03*
X3941100Y10438600D02*
D03*
X3087000Y11157700D02*
D03*
X6713700Y11157100D02*
D03*
X7566100Y10440200D02*
D03*
X10322200Y11157200D02*
D03*
X11191100Y10466800D02*
D03*
X12787400Y10150300D02*
D03*
X6921200Y4079800D02*
D03*
X7796100Y3370000D02*
D03*
X12763300Y4368900D02*
D03*
X11412700Y3373200D02*
D03*
X11183000Y4083000D02*
D03*
X10547100Y4073400D02*
D03*
X928100Y7413300D02*
D03*
X1366400Y7210300D02*
D03*
X1367600Y7290900D02*
D03*
X1329456Y7413965D02*
D03*
X960100Y7211300D02*
D03*
X928100Y7292600D02*
D03*
X7634300Y3051100D02*
D03*
X7499200Y3028700D02*
D03*
X7501700Y2854100D02*
D03*
X7633800Y2852630D02*
D03*
X6636500Y3036200D02*
D03*
X6641400Y2854100D02*
D03*
X6794270Y2858330D02*
D03*
X6798500Y3038700D02*
D03*
X7473846Y10168846D02*
D03*
X7460900Y9937400D02*
D03*
X7570100Y10135100D02*
D03*
X7574250Y9853150D02*
D03*
X6917400Y9846400D02*
D03*
X6920000Y10096100D02*
D03*
X6777000Y10083100D02*
D03*
Y9846400D02*
D03*
X2426600Y7458900D02*
D03*
X2631100Y7457700D02*
D03*
D39*
X7638600Y4765200D02*
D03*
X7754600D02*
D03*
X7630100Y5068800D02*
D03*
X6750400Y5083600D02*
D03*
X7751600Y5069900D02*
D03*
X6893800Y5089900D02*
D03*
X9352100Y8695700D02*
D03*
X5661200Y8689500D02*
D03*
X6900300Y4763700D02*
D03*
X6766300Y4766800D02*
D03*
X5661300Y1293100D02*
D03*
X9348600Y1282900D02*
D03*
X14143800Y7290800D02*
D03*
X13416901Y7299000D02*
D03*
Y7428800D02*
D03*
X13962100Y7296600D02*
D03*
X13421600Y7171500D02*
D03*
X13959801Y7159700D02*
D03*
X13420000Y1230700D02*
D03*
X13402400Y4840900D02*
D03*
X13873300Y4830000D02*
D03*
X13854100Y1221500D02*
D03*
X14213400Y10758000D02*
D03*
X14219400Y11066700D02*
D03*
X13722501Y11066200D02*
D03*
X13721899Y10758500D02*
D03*
%TF.MD5,069b42b2ea9c3dcef106ec079989a320*%
M02*
