<svg version="1.1" xmlns="http://www.w3.org/2000/svg" xmlns:xlink="http://www.w3.org/1999/xlink" stroke-linecap="round" stroke-linejoin="round" stroke-width="0" fill-rule="evenodd" width="141.7mm" height="133.979mm" viewBox="-2025.0 4981.549999999988 149050.0 146788.15"><defs><g id="xLzoRPka4ixI_pad-31"><rect x="-1200" y="-1300" width="2400" height="2600"/><rect x="0" y="-2500" width="0" height="5000"/><circle cx="0" cy="-1300" r="1200"/><circle cx="0" cy="-1300" r="1200"/><circle cx="0" cy="1300" r="1200"/><circle cx="0" cy="1300" r="1200"/></g><rect x="-775" y="-775" width="1550" height="1550" id="xLzoRPka4ixI_pad-32"/><circle cx="0" cy="0" r="775" id="xLzoRPka4ixI_pad-33"/><rect x="-775" y="-775" width="1550" height="1550" id="xLzoRPka4ixI_pad-34"/><circle cx="0" cy="0" r="1150" id="xLzoRPka4ixI_pad-35"/><circle cx="0" cy="0" r="850" id="xLzoRPka4ixI_pad-55"/><circle cx="0" cy="0" r="804" id="xLzoRPka4ixI_pad-56"/><rect x="-650" y="-650" width="1300" height="1300" id="xLzoRPka4ixI_pad-57"/><circle cx="0" cy="0" r="650" id="xLzoRPka4ixI_pad-58"/></defs><g transform="translate(0,151757) scale(1,-1)" fill="currentColor" stroke="currentColor"><use xlink:href="#xLzoRPka4ixI_pad-31" x="122239.05" y="54243"/><use xlink:href="#xLzoRPka4ixI_pad-31" x="133639.05" y="54243"/><use xlink:href="#xLzoRPka4ixI_pad-31" x="22853.94" y="90968"/><use xlink:href="#xLzoRPka4ixI_pad-31" x="11453.95" y="90968"/><use xlink:href="#xLzoRPka4ixI_pad-31" x="59777.94" y="90968"/><use xlink:href="#xLzoRPka4ixI_pad-31" x="48377.95" y="90968"/><use xlink:href="#xLzoRPka4ixI_pad-31" x="11467.05" y="128345"/><use xlink:href="#xLzoRPka4ixI_pad-31" x="22867.05" y="128345"/><use xlink:href="#xLzoRPka4ixI_pad-31" x="48391.05" y="128345"/><use xlink:href="#xLzoRPka4ixI_pad-31" x="59791.05" y="128345"/><use xlink:href="#xLzoRPka4ixI_pad-31" x="85301.95" y="90968"/><use xlink:href="#xLzoRPka4ixI_pad-31" x="96701.95" y="90968"/><use xlink:href="#xLzoRPka4ixI_pad-31" x="96715.05" y="128345"/><use xlink:href="#xLzoRPka4ixI_pad-31" x="85315.05" y="128345"/><use xlink:href="#xLzoRPka4ixI_pad-31" x="122225.95" y="90968"/><use xlink:href="#xLzoRPka4ixI_pad-31" x="133625.95" y="90968"/><use xlink:href="#xLzoRPka4ixI_pad-31" x="133639.05" y="128345"/><use xlink:href="#xLzoRPka4ixI_pad-31" x="122239.05" y="128345"/><use xlink:href="#xLzoRPka4ixI_pad-31" x="22853.94" y="16866"/><use xlink:href="#xLzoRPka4ixI_pad-31" x="11453.95" y="16866"/><use xlink:href="#xLzoRPka4ixI_pad-31" x="59777.94" y="16866"/><use xlink:href="#xLzoRPka4ixI_pad-31" x="48377.95" y="16866"/><use xlink:href="#xLzoRPka4ixI_pad-31" x="96701.95" y="16866"/><use xlink:href="#xLzoRPka4ixI_pad-31" x="85301.95" y="16866"/><use xlink:href="#xLzoRPka4ixI_pad-31" x="133625.95" y="16866"/><use xlink:href="#xLzoRPka4ixI_pad-31" x="122225.95" y="16866"/><use xlink:href="#xLzoRPka4ixI_pad-31" x="11467.05" y="54243"/><use xlink:href="#xLzoRPka4ixI_pad-31" x="22867.05" y="54243"/><use xlink:href="#xLzoRPka4ixI_pad-31" x="48391.05" y="54243"/><use xlink:href="#xLzoRPka4ixI_pad-31" x="59791.05" y="54243"/><use xlink:href="#xLzoRPka4ixI_pad-31" x="85315.05" y="54243"/><use xlink:href="#xLzoRPka4ixI_pad-31" x="96715.05" y="54243"/><use xlink:href="#xLzoRPka4ixI_pad-32" x="125439.05" y="46743"/><use xlink:href="#xLzoRPka4ixI_pad-32" x="19653.95" y="98468"/><use xlink:href="#xLzoRPka4ixI_pad-32" x="56577.95" y="98468"/><use xlink:href="#xLzoRPka4ixI_pad-32" x="14667.05" y="120845"/><use xlink:href="#xLzoRPka4ixI_pad-32" x="51591.05" y="120845"/><use xlink:href="#xLzoRPka4ixI_pad-32" x="93501.95" y="98468"/><use xlink:href="#xLzoRPka4ixI_pad-32" x="88515.05" y="120845"/><use xlink:href="#xLzoRPka4ixI_pad-32" x="130425.95" y="98468"/><use xlink:href="#xLzoRPka4ixI_pad-32" x="125439.05" y="120845"/><use xlink:href="#xLzoRPka4ixI_pad-32" x="19653.95" y="24366"/><use xlink:href="#xLzoRPka4ixI_pad-32" x="56577.95" y="24366"/><use xlink:href="#xLzoRPka4ixI_pad-32" x="93501.95" y="24366"/><use xlink:href="#xLzoRPka4ixI_pad-32" x="130425.95" y="24366"/><use xlink:href="#xLzoRPka4ixI_pad-32" x="14667.05" y="46743"/><use xlink:href="#xLzoRPka4ixI_pad-32" x="51591.05" y="46743"/><use xlink:href="#xLzoRPka4ixI_pad-32" x="88515.05" y="46743"/><use xlink:href="#xLzoRPka4ixI_pad-33" x="127939.05" y="46743"/><use xlink:href="#xLzoRPka4ixI_pad-33" x="130439.06" y="46743"/><use xlink:href="#xLzoRPka4ixI_pad-33" x="125439.05" y="61243"/><use xlink:href="#xLzoRPka4ixI_pad-33" x="130439.06" y="61243"/><use xlink:href="#xLzoRPka4ixI_pad-33" x="2425" y="49750"/><use xlink:href="#xLzoRPka4ixI_pad-33" x="17153.95" y="98468"/><use xlink:href="#xLzoRPka4ixI_pad-33" x="14653.95" y="98468"/><use xlink:href="#xLzoRPka4ixI_pad-33" x="19653.95" y="83968"/><use xlink:href="#xLzoRPka4ixI_pad-33" x="14653.95" y="83968"/><use xlink:href="#xLzoRPka4ixI_pad-33" x="54077.95" y="98468"/><use xlink:href="#xLzoRPka4ixI_pad-33" x="51577.95" y="98468"/><use xlink:href="#xLzoRPka4ixI_pad-33" x="56577.95" y="83968"/><use xlink:href="#xLzoRPka4ixI_pad-33" x="51577.95" y="83968"/><use xlink:href="#xLzoRPka4ixI_pad-33" x="17167.05" y="120845"/><use xlink:href="#xLzoRPka4ixI_pad-33" x="19667.05" y="120845"/><use xlink:href="#xLzoRPka4ixI_pad-33" x="14667.05" y="135345"/><use xlink:href="#xLzoRPka4ixI_pad-33" x="19667.05" y="135345"/><use xlink:href="#xLzoRPka4ixI_pad-33" x="54091.05" y="120845"/><use xlink:href="#xLzoRPka4ixI_pad-33" x="56591.05" y="120845"/><use xlink:href="#xLzoRPka4ixI_pad-33" x="51591.05" y="135345"/><use xlink:href="#xLzoRPka4ixI_pad-33" x="56591.05" y="135345"/><use xlink:href="#xLzoRPka4ixI_pad-33" x="88501.95" y="83968"/><use xlink:href="#xLzoRPka4ixI_pad-33" x="93501.95" y="83968"/><use xlink:href="#xLzoRPka4ixI_pad-33" x="88501.95" y="98468"/><use xlink:href="#xLzoRPka4ixI_pad-33" x="91001.95" y="98468"/><use xlink:href="#xLzoRPka4ixI_pad-33" x="93515.05" y="135345"/><use xlink:href="#xLzoRPka4ixI_pad-33" x="88515.05" y="135345"/><use xlink:href="#xLzoRPka4ixI_pad-33" x="93515.05" y="120845"/><use xlink:href="#xLzoRPka4ixI_pad-33" x="91015.05" y="120845"/><use xlink:href="#xLzoRPka4ixI_pad-33" x="125425.95" y="83968"/><use xlink:href="#xLzoRPka4ixI_pad-33" x="130425.95" y="83968"/><use xlink:href="#xLzoRPka4ixI_pad-33" x="125425.95" y="98468"/><use xlink:href="#xLzoRPka4ixI_pad-33" x="127925.95" y="98468"/><use xlink:href="#xLzoRPka4ixI_pad-33" x="130439.06" y="135345"/><use xlink:href="#xLzoRPka4ixI_pad-33" x="125439.05" y="135345"/><use xlink:href="#xLzoRPka4ixI_pad-33" x="130439.06" y="120845"/><use xlink:href="#xLzoRPka4ixI_pad-33" x="127939.05" y="120845"/><use xlink:href="#xLzoRPka4ixI_pad-33" x="17153.95" y="24366"/><use xlink:href="#xLzoRPka4ixI_pad-33" x="14653.95" y="24366"/><use xlink:href="#xLzoRPka4ixI_pad-33" x="19653.95" y="9866"/><use xlink:href="#xLzoRPka4ixI_pad-33" x="14653.95" y="9866"/><use xlink:href="#xLzoRPka4ixI_pad-33" x="54077.95" y="24366"/><use xlink:href="#xLzoRPka4ixI_pad-33" x="51577.95" y="24366"/><use xlink:href="#xLzoRPka4ixI_pad-33" x="56577.95" y="9866"/><use xlink:href="#xLzoRPka4ixI_pad-33" x="51577.95" y="9866"/><use xlink:href="#xLzoRPka4ixI_pad-33" x="91001.95" y="24366"/><use xlink:href="#xLzoRPka4ixI_pad-33" x="88501.95" y="24366"/><use xlink:href="#xLzoRPka4ixI_pad-33" x="93501.95" y="9866"/><use xlink:href="#xLzoRPka4ixI_pad-33" x="88501.95" y="9866"/><use xlink:href="#xLzoRPka4ixI_pad-33" x="127925.95" y="24366"/><use xlink:href="#xLzoRPka4ixI_pad-33" x="125425.95" y="24366"/><use xlink:href="#xLzoRPka4ixI_pad-33" x="130425.95" y="9866"/><use xlink:href="#xLzoRPka4ixI_pad-33" x="125425.95" y="9866"/><use xlink:href="#xLzoRPka4ixI_pad-33" x="17167.05" y="46743"/><use xlink:href="#xLzoRPka4ixI_pad-33" x="19667.05" y="46743"/><use xlink:href="#xLzoRPka4ixI_pad-33" x="14667.05" y="61243"/><use xlink:href="#xLzoRPka4ixI_pad-33" x="19667.05" y="61243"/><use xlink:href="#xLzoRPka4ixI_pad-33" x="54091.05" y="46743"/><use xlink:href="#xLzoRPka4ixI_pad-33" x="56591.05" y="46743"/><use xlink:href="#xLzoRPka4ixI_pad-33" x="51591.05" y="61243"/><use xlink:href="#xLzoRPka4ixI_pad-33" x="56591.05" y="61243"/><use xlink:href="#xLzoRPka4ixI_pad-33" x="91015.05" y="46743"/><use xlink:href="#xLzoRPka4ixI_pad-33" x="93515.05" y="46743"/><use xlink:href="#xLzoRPka4ixI_pad-33" x="88515.05" y="61243"/><use xlink:href="#xLzoRPka4ixI_pad-33" x="93515.05" y="61243"/><use xlink:href="#xLzoRPka4ixI_pad-33" x="2425" y="99750"/><use xlink:href="#xLzoRPka4ixI_pad-33" x="142575" y="45250"/><use xlink:href="#xLzoRPka4ixI_pad-33" x="2425" y="74750"/><use xlink:href="#xLzoRPka4ixI_pad-33" x="142575" y="70250"/><use xlink:href="#xLzoRPka4ixI_pad-33" x="142575" y="95250"/><use xlink:href="#xLzoRPka4ixI_pad-34" x="2425" y="45250"/><use xlink:href="#xLzoRPka4ixI_pad-34" x="2425" y="95250"/><use xlink:href="#xLzoRPka4ixI_pad-34" x="142575" y="49750"/><use xlink:href="#xLzoRPka4ixI_pad-34" x="2425" y="70250"/><use xlink:href="#xLzoRPka4ixI_pad-34" x="142575" y="74750"/><use xlink:href="#xLzoRPka4ixI_pad-34" x="142575" y="99750"/><use xlink:href="#xLzoRPka4ixI_pad-35" x="4925" y="44000"/><use xlink:href="#xLzoRPka4ixI_pad-35" x="4925" y="51000"/><use xlink:href="#xLzoRPka4ixI_pad-35" x="4925" y="94000"/><use xlink:href="#xLzoRPka4ixI_pad-35" x="4925" y="101000"/><use xlink:href="#xLzoRPka4ixI_pad-35" x="140075" y="51000"/><use xlink:href="#xLzoRPka4ixI_pad-35" x="140075" y="44000"/><use xlink:href="#xLzoRPka4ixI_pad-35" x="4925" y="69000"/><use xlink:href="#xLzoRPka4ixI_pad-35" x="4925" y="76000"/><use xlink:href="#xLzoRPka4ixI_pad-35" x="140075" y="76000"/><use xlink:href="#xLzoRPka4ixI_pad-35" x="140075" y="69000"/><use xlink:href="#xLzoRPka4ixI_pad-35" x="140075" y="101000"/><use xlink:href="#xLzoRPka4ixI_pad-35" x="140075" y="94000"/><use xlink:href="#xLzoRPka4ixI_pad-55" x="116108.05" y="46834.61"/><use xlink:href="#xLzoRPka4ixI_pad-55" x="121228.05" y="61334.61"/><use xlink:href="#xLzoRPka4ixI_pad-55" x="118668.05" y="61334.61"/><use xlink:href="#xLzoRPka4ixI_pad-55" x="116108.05" y="61334.61"/><use xlink:href="#xLzoRPka4ixI_pad-55" x="121228.05" y="46834.61"/><use xlink:href="#xLzoRPka4ixI_pad-55" x="118668.05" y="46834.61"/><use xlink:href="#xLzoRPka4ixI_pad-55" x="28984.95" y="98376.39"/><use xlink:href="#xLzoRPka4ixI_pad-55" x="23864.95" y="83876.39"/><use xlink:href="#xLzoRPka4ixI_pad-55" x="26424.95" y="83876.39"/><use xlink:href="#xLzoRPka4ixI_pad-55" x="28984.95" y="83876.39"/><use xlink:href="#xLzoRPka4ixI_pad-55" x="23864.95" y="98376.39"/><use xlink:href="#xLzoRPka4ixI_pad-55" x="26424.95" y="98376.39"/><use xlink:href="#xLzoRPka4ixI_pad-55" x="42310" y="83841"/><use xlink:href="#xLzoRPka4ixI_pad-55" x="47430" y="98341"/><use xlink:href="#xLzoRPka4ixI_pad-55" x="44870" y="98341"/><use xlink:href="#xLzoRPka4ixI_pad-55" x="42310" y="98341"/><use xlink:href="#xLzoRPka4ixI_pad-55" x="47430" y="83841"/><use xlink:href="#xLzoRPka4ixI_pad-55" x="44870" y="83841"/><use xlink:href="#xLzoRPka4ixI_pad-55" x="28984" y="135417.01"/><use xlink:href="#xLzoRPka4ixI_pad-55" x="23864" y="120917"/><use xlink:href="#xLzoRPka4ixI_pad-55" x="26424" y="120917"/><use xlink:href="#xLzoRPka4ixI_pad-55" x="28984" y="120917"/><use xlink:href="#xLzoRPka4ixI_pad-55" x="23864" y="135417.01"/><use xlink:href="#xLzoRPka4ixI_pad-55" x="26424" y="135417.01"/><use xlink:href="#xLzoRPka4ixI_pad-55" x="42260.05" y="120936.61"/><use xlink:href="#xLzoRPka4ixI_pad-55" x="47380.05" y="135436.61"/><use xlink:href="#xLzoRPka4ixI_pad-55" x="44820.05" y="135436.61"/><use xlink:href="#xLzoRPka4ixI_pad-55" x="42260.05" y="135436.61"/><use xlink:href="#xLzoRPka4ixI_pad-55" x="47380.05" y="120936.61"/><use xlink:href="#xLzoRPka4ixI_pad-55" x="44820.05" y="120936.61"/><use xlink:href="#xLzoRPka4ixI_pad-55" x="100272.95" y="98376.39"/><use xlink:href="#xLzoRPka4ixI_pad-55" x="97712.95" y="98376.39"/><use xlink:href="#xLzoRPka4ixI_pad-55" x="102832.95" y="83876.39"/><use xlink:href="#xLzoRPka4ixI_pad-55" x="100272.95" y="83876.39"/><use xlink:href="#xLzoRPka4ixI_pad-55" x="97712.95" y="83876.39"/><use xlink:href="#xLzoRPka4ixI_pad-55" x="102832.95" y="98376.39"/><use xlink:href="#xLzoRPka4ixI_pad-55" x="81695" y="120929"/><use xlink:href="#xLzoRPka4ixI_pad-55" x="84255" y="120929"/><use xlink:href="#xLzoRPka4ixI_pad-55" x="79135" y="135429"/><use xlink:href="#xLzoRPka4ixI_pad-55" x="81695" y="135429"/><use xlink:href="#xLzoRPka4ixI_pad-55" x="84255" y="135429"/><use xlink:href="#xLzoRPka4ixI_pad-55" x="79135" y="120929"/><use xlink:href="#xLzoRPka4ixI_pad-55" x="118718" y="83841"/><use xlink:href="#xLzoRPka4ixI_pad-55" x="121278" y="83841"/><use xlink:href="#xLzoRPka4ixI_pad-55" x="116158" y="98341"/><use xlink:href="#xLzoRPka4ixI_pad-55" x="118718" y="98341"/><use xlink:href="#xLzoRPka4ixI_pad-55" x="121278" y="98341"/><use xlink:href="#xLzoRPka4ixI_pad-55" x="116158" y="83841"/><use xlink:href="#xLzoRPka4ixI_pad-55" x="135159" y="118825"/><use xlink:href="#xLzoRPka4ixI_pad-55" x="135159" y="121385"/><use xlink:href="#xLzoRPka4ixI_pad-55" x="120659" y="116265"/><use xlink:href="#xLzoRPka4ixI_pad-55" x="120659" y="118825"/><use xlink:href="#xLzoRPka4ixI_pad-55" x="120659" y="121385"/><use xlink:href="#xLzoRPka4ixI_pad-55" x="135159" y="116265"/><use xlink:href="#xLzoRPka4ixI_pad-55" x="28984.95" y="24274.39"/><use xlink:href="#xLzoRPka4ixI_pad-55" x="23864.95" y="9774.39"/><use xlink:href="#xLzoRPka4ixI_pad-55" x="26424.95" y="9774.39"/><use xlink:href="#xLzoRPka4ixI_pad-55" x="28984.95" y="9774.39"/><use xlink:href="#xLzoRPka4ixI_pad-55" x="23864.95" y="24274.39"/><use xlink:href="#xLzoRPka4ixI_pad-55" x="26424.95" y="24274.39"/><use xlink:href="#xLzoRPka4ixI_pad-55" x="42310" y="9739"/><use xlink:href="#xLzoRPka4ixI_pad-55" x="47430" y="24239"/><use xlink:href="#xLzoRPka4ixI_pad-55" x="44870" y="24239"/><use xlink:href="#xLzoRPka4ixI_pad-55" x="42310" y="24239"/><use xlink:href="#xLzoRPka4ixI_pad-55" x="47430" y="9739"/><use xlink:href="#xLzoRPka4ixI_pad-55" x="44870" y="9739"/><use xlink:href="#xLzoRPka4ixI_pad-55" x="102832.95" y="24274.39"/><use xlink:href="#xLzoRPka4ixI_pad-55" x="97712.95" y="9774.39"/><use xlink:href="#xLzoRPka4ixI_pad-55" x="100272.95" y="9774.39"/><use xlink:href="#xLzoRPka4ixI_pad-55" x="102832.95" y="9774.39"/><use xlink:href="#xLzoRPka4ixI_pad-55" x="97712.95" y="24274.39"/><use xlink:href="#xLzoRPka4ixI_pad-55" x="100272.95" y="24274.39"/><use xlink:href="#xLzoRPka4ixI_pad-55" x="116158" y="9739"/><use xlink:href="#xLzoRPka4ixI_pad-55" x="121278" y="24239"/><use xlink:href="#xLzoRPka4ixI_pad-55" x="118718" y="24239"/><use xlink:href="#xLzoRPka4ixI_pad-55" x="116158" y="24239"/><use xlink:href="#xLzoRPka4ixI_pad-55" x="121278" y="9739"/><use xlink:href="#xLzoRPka4ixI_pad-55" x="118718" y="9739"/><use xlink:href="#xLzoRPka4ixI_pad-55" x="28984" y="61315"/><use xlink:href="#xLzoRPka4ixI_pad-55" x="23864" y="46815"/><use xlink:href="#xLzoRPka4ixI_pad-55" x="26424" y="46815"/><use xlink:href="#xLzoRPka4ixI_pad-55" x="28984" y="46815"/><use xlink:href="#xLzoRPka4ixI_pad-55" x="23864" y="61315"/><use xlink:href="#xLzoRPka4ixI_pad-55" x="26424" y="61315"/><use xlink:href="#xLzoRPka4ixI_pad-55" x="42260.05" y="46834.61"/><use xlink:href="#xLzoRPka4ixI_pad-55" x="47380.05" y="61334.61"/><use xlink:href="#xLzoRPka4ixI_pad-55" x="44820.05" y="61334.61"/><use xlink:href="#xLzoRPka4ixI_pad-55" x="42260.05" y="61334.61"/><use xlink:href="#xLzoRPka4ixI_pad-55" x="47380.05" y="46834.61"/><use xlink:href="#xLzoRPka4ixI_pad-55" x="44820.05" y="46834.61"/><use xlink:href="#xLzoRPka4ixI_pad-55" x="102832" y="61315"/><use xlink:href="#xLzoRPka4ixI_pad-55" x="97712" y="46815"/><use xlink:href="#xLzoRPka4ixI_pad-55" x="100272" y="46815"/><use xlink:href="#xLzoRPka4ixI_pad-55" x="102832" y="46815"/><use xlink:href="#xLzoRPka4ixI_pad-55" x="97712" y="61315"/><use xlink:href="#xLzoRPka4ixI_pad-55" x="100272" y="61315"/><use xlink:href="#xLzoRPka4ixI_pad-56" x="101779" y="139524"/><use xlink:href="#xLzoRPka4ixI_pad-56" x="101779" y="136983.99"/><use xlink:href="#xLzoRPka4ixI_pad-56" x="101779" y="134444"/><use xlink:href="#xLzoRPka4ixI_pad-56" x="101779" y="131904.01"/><use xlink:href="#xLzoRPka4ixI_pad-56" x="101779" y="129364"/><use xlink:href="#xLzoRPka4ixI_pad-56" x="101779" y="126824"/><use xlink:href="#xLzoRPka4ixI_pad-56" x="101779" y="124284"/><use xlink:href="#xLzoRPka4ixI_pad-56" x="101779" y="121744"/><use xlink:href="#xLzoRPka4ixI_pad-56" x="104319" y="121744"/><use xlink:href="#xLzoRPka4ixI_pad-56" x="106859" y="121744"/><use xlink:href="#xLzoRPka4ixI_pad-56" x="109399" y="121744"/><use xlink:href="#xLzoRPka4ixI_pad-56" x="111939" y="121744"/><use xlink:href="#xLzoRPka4ixI_pad-56" x="114479" y="121744"/><use xlink:href="#xLzoRPka4ixI_pad-56" x="117019" y="121744"/><use xlink:href="#xLzoRPka4ixI_pad-56" x="117019" y="124284"/><use xlink:href="#xLzoRPka4ixI_pad-56" x="117019" y="126824"/><use xlink:href="#xLzoRPka4ixI_pad-56" x="117019" y="129364"/><use xlink:href="#xLzoRPka4ixI_pad-56" x="117019" y="131904.01"/><use xlink:href="#xLzoRPka4ixI_pad-56" x="117019" y="134444"/><use xlink:href="#xLzoRPka4ixI_pad-56" x="117019" y="136983.99"/><use xlink:href="#xLzoRPka4ixI_pad-56" x="117019" y="139524"/><use xlink:href="#xLzoRPka4ixI_pad-56" x="117019" y="142064"/><use xlink:href="#xLzoRPka4ixI_pad-57" x="124607" y="142095.99"/><use xlink:href="#xLzoRPka4ixI_pad-58" x="124607" y="138595.99"/></g></svg>