<svg version="1.1" xmlns="http://www.w3.org/2000/svg" xmlns:xlink="http://www.w3.org/1999/xlink" stroke-linecap="round" stroke-linejoin="round" stroke-width="0" fill-rule="evenodd" clip-rule="evenodd" id="oxrXXV8orE-B_bottom" viewBox="1861.5 9125.5 141277 133502" width="141.277mm" height="133.502mm"><defs><style>.oxrXXV8orE-B_fr4 {color: #666666;}
.oxrXXV8orE-B_cu {color: #cccccc;}
.oxrXXV8orE-B_cf {color: #cc9933;}
.oxrXXV8orE-B_sm {color: #004200; opacity: 0.7490196078431373;}
.oxrXXV8orE-B_ss {color: #ffffff;}
.oxrXXV8orE-B_sp {color: #999999;}
.oxrXXV8orE-B_out {color: #000000;}</style><g id="oxrXXV8orE-B_bottom_drill1"><path d="M 115558.05 46834.61 116658.05 46834.61 M 116108.05 46284.61 116108.05 47384.6 M 120678.05 61334.61 121778.05 61334.61 M 121228.05 60784.61 121228.05 61884.61 M 118118.05 61334.61 119218.05 61334.61 M 118668.05 60784.61 118668.05 61884.61 M 115558.05 61334.61 116658.05 61334.61 M 116108.05 60784.61 116108.05 61884.61 M 120678.05 46834.61 121778.05 46834.61 M 121228.05 46284.61 121228.05 47384.6 M 118118.05 46834.61 119218.05 46834.61 M 118668.05 46284.61 118668.05 47384.6 M 101279 139524 102279 139524 M 101779 139024 101779 140024 M 101279 136983.99 102279 136983.99 M 101779 136483.99 101779 137483.99 M 101279 134444 102279 134444 M 101779 133944 101779 134944 M 101279 131904.01 102279 131904.01 M 101779 131404.01 101779 132404.01 M 101279 129364 102279 129364 M 101779 128864 101779 129864 M 101279 126824 102279 126824 M 101779 126324 101779 127324 M 101279 124284 102279 124284 M 101779 123784 101779 124784 M 101279 121744 102279 121744 M 101779 121244 101779 122244 M 103819 121744 104819 121744 M 104319 121244 104319 122244 M 106359 121744 107359 121744 M 106859 121244 106859 122244 M 108899 121744 109899 121744 M 109399 121244 109399 122244 M 111439 121744 112439 121744 M 111939 121244 111939 122244 M 113979 121744 114979 121744 M 114479 121244 114479 122244 M 116519 121744 117519 121744 M 117019 121244 117019 122244 M 116519 124284 117519 124284 M 117019 123784 117019 124784 M 116519 126824 117519 126824 M 117019 126324 117019 127324 M 116519 129364 117519 129364 M 117019 128864 117019 129864 M 116519 131904.01 117519 131904.01 M 117019 131404.01 117019 132404.01 M 116519 134444 117519 134444 M 117019 133944 117019 134944 M 116519 136983.99 117519 136983.99 M 117019 136483.99 117019 137483.99 M 116519 139524 117519 139524 M 117019 139024 117019 140024 M 116519 142064 117519 142064 M 117019 141564 117019 142564 M 120039.05 54243 124439.05 54243 M 122239.05 52043 122239.05 56443 M 131439.06 54243 135839.05 54243 M 133639.05 52043 133639.05 56443 M 124939.05 46743 125939.05 46743 M 125439.05 46243 125439.05 47243 M 127439.05 46743 128439.06 46743 M 127939.05 46243 127939.05 47243 M 129939.06 46743 130939.06 46743 M 130439.06 46243 130439.06 47243 M 124939.05 61243 125939.05 61243 M 125439.05 60743 125439.05 61743 M 129939.06 61243 130939.06 61243 M 130439.06 60743 130439.06 61743 M 1925 45250 2925 45250 M 2425 44750 2425 45750 M 1925 49750 2925 49750 M 2425 49250 2425 50250 M 4175 44000 5675 44000 M 4925 43250 4925 44750 M 4175 51000 5675 51000 M 4925 50250 4925 51750 M 124182 142095.99 125032 142095.99 M 124607 141671.01 124607 142521 M 124182 138595.99 125032 138595.99 M 124607 138171.01 124607 139021 M 20653.95 90968 25053.94 90968 M 22853.94 88768 22853.94 93168 M 9253.95 90968 13653.95 90968 M 11453.95 88768 11453.95 93168 M 19153.95 98468 20153.94 98468 M 19653.95 97968 19653.95 98968 M 16653.95 98468 17653.94 98468 M 17153.95 97968 17153.95 98968 M 14153.95 98468 15153.94 98468 M 14653.95 97968 14653.95 98968 M 19153.95 83968 20153.94 83968 M 19653.95 83468 19653.95 84468 M 14153.95 83968 15153.94 83968 M 14653.95 83468 14653.95 84468 M 57577.95 90968 61977.94 90968 M 59777.94 88768 59777.94 93168 M 46177.95 90968 50577.95 90968 M 48377.95 88768 48377.95 93168 M 56077.95 98468 57077.95 98468 M 56577.95 97968 56577.95 98968 M 53577.95 98468 54577.95 98468 M 54077.95 97968 54077.95 98968 M 51077.95 98468 52077.95 98468 M 51577.95 97968 51577.95 98968 M 56077.95 83968 57077.95 83968 M 56577.95 83468 56577.95 84468 M 51077.95 83968 52077.95 83968 M 51577.95 83468 51577.95 84468 M 9267.05 128345 13667.05 128345 M 11467.05 126145 11467.05 130545 M 20667.05 128345 25067.05 128345 M 22867.05 126145 22867.05 130545 M 14167.05 120845 15167.05 120845 M 14667.05 120345 14667.05 121345 M 16667.05 120845 17667.05 120845 M 17167.05 120345 17167.05 121345 M 19167.05 120845 20167.05 120845 M 19667.05 120345 19667.05 121345 M 14167.05 135345 15167.05 135345 M 14667.05 134845 14667.05 135845 M 19167.05 135345 20167.05 135345 M 19667.05 134845 19667.05 135845 M 46191.05 128345 50591.05 128345 M 48391.05 126145 48391.05 130545 M 57591.05 128345 61991.05 128345 M 59791.05 126145 59791.05 130545 M 51091.05 120845 52091.05 120845 M 51591.05 120345 51591.05 121345 M 53591.05 120845 54591.05 120845 M 54091.05 120345 54091.05 121345 M 56091.05 120845 57091.05 120845 M 56591.05 120345 56591.05 121345 M 51091.05 135345 52091.05 135345 M 51591.05 134845 51591.05 135845 M 56091.05 135345 57091.05 135345 M 56591.05 134845 56591.05 135845 M 28434.95 98376.39 29534.94 98376.39 M 28984.95 97826.4 28984.95 98926.39 M 23314.95 83876.39 24414.94 83876.39 M 23864.95 83326.39 23864.95 84426.39 M 25874.95 83876.39 26974.94 83876.39 M 26424.95 83326.39 26424.95 84426.39 M 28434.95 83876.39 29534.94 83876.39 M 28984.95 83326.39 28984.95 84426.39 M 23314.95 98376.39 24414.94 98376.39 M 23864.95 97826.4 23864.95 98926.39 M 25874.95 98376.39 26974.94 98376.39 M 26424.95 97826.4 26424.95 98926.39 M 41760 83841 42860 83841 M 42310 83291 42310 84391 M 46880 98341 47980 98341 M 47430 97791 47430 98891 M 44320 98341 45420 98341 M 44870 97791 44870 98891 M 41760 98341 42860 98341 M 42310 97791 42310 98891 M 46880 83841 47980 83841 M 47430 83291 47430 84391 M 44320 83841 45420 83841 M 44870 83291 44870 84391 M 28434 135417.01 29534 135417.01 M 28984 134867 28984 135967 M 23314 120917 24414 120917 M 23864 120367 23864 121467 M 25874 120917 26974 120917 M 26424 120367 26424 121467 M 28434 120917 29534 120917 M 28984 120367 28984 121467 M 23314 135417.01 24414 135417.01 M 23864 134867 23864 135967 M 25874 135417.01 26974 135417.01 M 26424 134867 26424 135967 M 41710.05 120936.61 42810.05 120936.61 M 42260.05 120386.61 42260.05 121486.6 M 46830.05 135436.61 47930.05 135436.61 M 47380.05 134886.61 47380.05 135986.6 M 44270.05 135436.61 45370.05 135436.61 M 44820.05 134886.61 44820.05 135986.6 M 41710.05 135436.61 42810.05 135436.61 M 42260.05 134886.61 42260.05 135986.6 M 46830.05 120936.61 47930.05 120936.61 M 47380.05 120386.61 47380.05 121486.6 M 44270.05 120936.61 45370.05 120936.61 M 44820.05 120386.61 44820.05 121486.6 M 88001.95 83968 89001.95 83968 M 88501.95 83468 88501.95 84468 M 93001.95 83968 94001.95 83968 M 93501.95 83468 93501.95 84468 M 88001.95 98468 89001.95 98468 M 88501.95 97968 88501.95 98968 M 90501.95 98468 91501.95 98468 M 91001.95 97968 91001.95 98968 M 93001.95 98468 94001.95 98468 M 93501.95 97968 93501.95 98968 M 83101.95 90968 87501.95 90968 M 85301.95 88768 85301.95 93168 M 94501.95 90968 98901.94 90968 M 96701.95 88768 96701.95 93168 M 93015.05 135345 94015.05 135345 M 93515.05 134845 93515.05 135845 M 88015.05 135345 89015.05 135345 M 88515.05 134845 88515.05 135845 M 93015.05 120845 94015.05 120845 M 93515.05 120345 93515.05 121345 M 90515.05 120845 91515.05 120845 M 91015.05 120345 91015.05 121345 M 88015.05 120845 89015.05 120845 M 88515.05 120345 88515.05 121345 M 94515.05 128345 98915.05 128345 M 96715.05 126145 96715.05 130545 M 83115.05 128345 87515.05 128345 M 85315.05 126145 85315.05 130545 M 124925.95 83968 125925.95 83968 M 125425.95 83468 125425.95 84468 M 129925.95 83968 130925.95 83968 M 130425.95 83468 130425.95 84468 M 124925.95 98468 125925.95 98468 M 125425.95 97968 125425.95 98968 M 127425.95 98468 128425.95 98468 M 127925.95 97968 127925.95 98968 M 129925.95 98468 130925.95 98468 M 130425.95 97968 130425.95 98968 M 120025.95 90968 124425.95 90968 M 122225.95 88768 122225.95 93168 M 131425.95 90968 135825.94 90968 M 133625.95 88768 133625.95 93168 M 129939.06 135345 130939.06 135345 M 130439.06 134845 130439.06 135845 M 124939.05 135345 125939.05 135345 M 125439.05 134845 125439.05 135845 M 129939.06 120845 130939.06 120845 M 130439.06 120345 130439.06 121345 M 127439.05 120845 128439.06 120845 M 127939.05 120345 127939.05 121345 M 124939.05 120845 125939.05 120845 M 125439.05 120345 125439.05 121345 M 131439.06 128345 135839.05 128345 M 133639.05 126145 133639.05 130545 M 120039.05 128345 124439.05 128345 M 122239.05 126145 122239.05 130545 M 99722.95 98376.39 100822.95 98376.39 M 100272.95 97826.4 100272.95 98926.39 M 97162.95 98376.39 98262.95 98376.39 M 97712.95 97826.4 97712.95 98926.39 M 102282.95 83876.39 103382.95 83876.39 M 102832.95 83326.39 102832.95 84426.39 M 99722.95 83876.39 100822.95 83876.39 M 100272.95 83326.39 100272.95 84426.39 M 97162.95 83876.39 98262.95 83876.39 M 97712.95 83326.39 97712.95 84426.39 M 102282.95 98376.39 103382.95 98376.39 M 102832.95 97826.4 102832.95 98926.39 M 81145 120929 82245 120929 M 81695 120379 81695 121479 M 83705 120929 84805 120929 M 84255 120379 84255 121479 M 78585 135429 79685 135429 M 79135 134879 79135 135979 M 81145 135429 82245 135429 M 81695 134879 81695 135979 M 83705 135429 84805 135429 M 84255 134879 84255 135979 M 78585 120929 79685 120929 M 79135 120379 79135 121479 M 118168 83841 119268 83841 M 118718 83291 118718 84391 M 120728 83841 121828 83841 M 121278 83291 121278 84391 M 115608 98341 116708 98341 M 116158 97791 116158 98891 M 118168 98341 119268 98341 M 118718 97791 118718 98891 M 120728 98341 121828 98341 M 121278 97791 121278 98891 M 115608 83841 116708 83841 M 116158 83291 116158 84391 M 134608.99 118825 135709 118825 M 135159 118275 135159 119375 M 134608.99 121385 135709 121385 M 135159 120835 135159 121935 M 120109 116265 121209 116265 M 120659 115715 120659 116815 M 120109 118825 121209 118825 M 120659 118275 120659 119375 M 120109 121385 121209 121385 M 120659 120835 120659 121935 M 134608.99 116265 135709 116265 M 135159 115715 135159 116815 M 20653.95 16866 25053.94 16866 M 22853.94 14666 22853.94 19066 M 9253.95 16866 13653.95 16866 M 11453.95 14666 11453.95 19066 M 19153.95 24366 20153.94 24366 M 19653.95 23866 19653.95 24866 M 16653.95 24366 17653.94 24366 M 17153.95 23866 17153.95 24866 M 14153.95 24366 15153.94 24366 M 14653.95 23866 14653.95 24866 M 19153.95 9866 20153.94 9866 M 19653.95 9366 19653.95 10366 M 14153.95 9866 15153.94 9866 M 14653.95 9366 14653.95 10366 M 57577.95 16866 61977.94 16866 M 59777.94 14666 59777.94 19066 M 46177.95 16866 50577.95 16866 M 48377.95 14666 48377.95 19066 M 56077.95 24366 57077.95 24366 M 56577.95 23866 56577.95 24866 M 53577.95 24366 54577.95 24366 M 54077.95 23866 54077.95 24866 M 51077.95 24366 52077.95 24366 M 51577.95 23866 51577.95 24866 M 56077.95 9866 57077.95 9866 M 56577.95 9366 56577.95 10366 M 51077.95 9866 52077.95 9866 M 51577.95 9366 51577.95 10366 M 94501.95 16866 98901.94 16866 M 96701.95 14666 96701.95 19066 M 83101.95 16866 87501.95 16866 M 85301.95 14666 85301.95 19066 M 93001.95 24366 94001.95 24366 M 93501.95 23866 93501.95 24866 M 90501.95 24366 91501.95 24366 M 91001.95 23866 91001.95 24866 M 88001.95 24366 89001.95 24366 M 88501.95 23866 88501.95 24866 M 93001.95 9866 94001.95 9866 M 93501.95 9366 93501.95 10366 M 88001.95 9866 89001.95 9866 M 88501.95 9366 88501.95 10366 M 131425.95 16866 135825.94 16866 M 133625.95 14666 133625.95 19066 M 120025.95 16866 124425.95 16866 M 122225.95 14666 122225.95 19066 M 129925.95 24366 130925.95 24366 M 130425.95 23866 130425.95 24866 M 127425.95 24366 128425.95 24366 M 127925.95 23866 127925.95 24866 M 124925.95 24366 125925.95 24366 M 125425.95 23866 125425.95 24866 M 129925.95 9866 130925.95 9866 M 130425.95 9366 130425.95 10366 M 124925.95 9866 125925.95 9866 M 125425.95 9366 125425.95 10366 M 9267.05 54243 13667.05 54243 M 11467.05 52043 11467.05 56443 M 20667.05 54243 25067.05 54243 M 22867.05 52043 22867.05 56443 M 14167.05 46743 15167.05 46743 M 14667.05 46243 14667.05 47243 M 16667.05 46743 17667.05 46743 M 17167.05 46243 17167.05 47243 M 19167.05 46743 20167.05 46743 M 19667.05 46243 19667.05 47243 M 14167.05 61243 15167.05 61243 M 14667.05 60743 14667.05 61743 M 19167.05 61243 20167.05 61243 M 19667.05 60743 19667.05 61743 M 46191.05 54243 50591.05 54243 M 48391.05 52043 48391.05 56443 M 57591.05 54243 61991.05 54243 M 59791.05 52043 59791.05 56443 M 51091.05 46743 52091.05 46743 M 51591.05 46243 51591.05 47243 M 53591.05 46743 54591.05 46743 M 54091.05 46243 54091.05 47243 M 56091.05 46743 57091.05 46743 M 56591.05 46243 56591.05 47243 M 51091.05 61243 52091.05 61243 M 51591.05 60743 51591.05 61743 M 56091.05 61243 57091.05 61243 M 56591.05 60743 56591.05 61743 M 83115.05 54243 87515.05 54243 M 85315.05 52043 85315.05 56443 M 94515.05 54243 98915.05 54243 M 96715.05 52043 96715.05 56443 M 88015.05 46743 89015.05 46743 M 88515.05 46243 88515.05 47243 M 90515.05 46743 91515.05 46743 M 91015.05 46243 91015.05 47243 M 93015.05 46743 94015.05 46743 M 93515.05 46243 93515.05 47243 M 88015.05 61243 89015.05 61243 M 88515.05 60743 88515.05 61743 M 93015.05 61243 94015.05 61243 M 93515.05 60743 93515.05 61743 M 28434.95 24274.39 29534.94 24274.39 M 28984.95 23724.4 28984.95 24824.39 M 23314.95 9774.39 24414.94 9774.39 M 23864.95 9224.39 23864.95 10324.39 M 25874.95 9774.39 26974.94 9774.39 M 26424.95 9224.39 26424.95 10324.39 M 28434.95 9774.39 29534.94 9774.39 M 28984.95 9224.39 28984.95 10324.39 M 23314.95 24274.39 24414.94 24274.39 M 23864.95 23724.4 23864.95 24824.39 M 25874.95 24274.39 26974.94 24274.39 M 26424.95 23724.4 26424.95 24824.39 M 41760 9739 42860 9739 M 42310 9189 42310 10289 M 46880 24239 47980 24239 M 47430 23689 47430 24789 M 44320 24239 45420 24239 M 44870 23689 44870 24789 M 41760 24239 42860 24239 M 42310 23689 42310 24789 M 46880 9739 47980 9739 M 47430 9189 47430 10289 M 44320 9739 45420 9739 M 44870 9189 44870 10289 M 102282.95 24274.39 103382.95 24274.39 M 102832.95 23724.4 102832.95 24824.39 M 97162.95 9774.39 98262.95 9774.39 M 97712.95 9224.39 97712.95 10324.39 M 99722.95 9774.39 100822.95 9774.39 M 100272.95 9224.39 100272.95 10324.39 M 102282.95 9774.39 103382.95 9774.39 M 102832.95 9224.39 102832.95 10324.39 M 97162.95 24274.39 98262.95 24274.39 M 97712.95 23724.4 97712.95 24824.39 M 99722.95 24274.39 100822.95 24274.39 M 100272.95 23724.4 100272.95 24824.39 M 115608 9739 116708 9739 M 116158 9189 116158 10289 M 120728 24239 121828 24239 M 121278 23689 121278 24789 M 118168 24239 119268 24239 M 118718 23689 118718 24789 M 115608 24239 116708 24239 M 116158 23689 116158 24789 M 120728 9739 121828 9739 M 121278 9189 121278 10289 M 118168 9739 119268 9739 M 118718 9189 118718 10289 M 28434 61315 29534 61315 M 28984 60765 28984 61865 M 23314 46815 24414 46815 M 23864 46265 23864 47365 M 25874 46815 26974 46815 M 26424 46265 26424 47365 M 28434 46815 29534 46815 M 28984 46265 28984 47365 M 23314 61315 24414 61315 M 23864 60765 23864 61865 M 25874 61315 26974 61315 M 26424 60765 26424 61865 M 41710.05 46834.61 42810.05 46834.61 M 42260.05 46284.61 42260.05 47384.6 M 46830.05 61334.61 47930.05 61334.61 M 47380.05 60784.61 47380.05 61884.61 M 44270.05 61334.61 45370.05 61334.61 M 44820.05 60784.61 44820.05 61884.61 M 41710.05 61334.61 42810.05 61334.61 M 42260.05 60784.61 42260.05 61884.61 M 46830.05 46834.61 47930.05 46834.61 M 47380.05 46284.61 47380.05 47384.6 M 44270.05 46834.61 45370.05 46834.61 M 44820.05 46284.61 44820.05 47384.6 M 102282 61315 103382 61315 M 102832 60765 102832 61865 M 97162 46815 98262 46815 M 97712 46265 97712 47365 M 99722 46815 100822 46815 M 100272 46265 100272 47365 M 102282 46815 103382 46815 M 102832 46265 102832 47365 M 97162 61315 98262 61315 M 97712 60765 97712 61865 M 99722 61315 100822 61315 M 100272 60765 100272 61865 M 1925 95250 2925 95250 M 2425 94750 2425 95750 M 1925 99750 2925 99750 M 2425 99250 2425 100250 M 4175 94000 5675 94000 M 4925 93250 4925 94750 M 4175 101000 5675 101000 M 4925 100250 4925 101750 M 142075 49750 143075 49750 M 142575 49250 142575 50250 M 142075 45250 143075 45250 M 142575 44750 142575 45750 M 139325 51000 140825 51000 M 140075 50250 140075 51750 M 139325 44000 140825 44000 M 140075 43250 140075 44750 M 1925 70250 2925 70250 M 2425 69750 2425 70750 M 1925 74750 2925 74750 M 2425 74250 2425 75250 M 4175 69000 5675 69000 M 4925 68250 4925 69750 M 4175 76000 5675 76000 M 4925 75250 4925 76750 M 142075 74750 143075 74750 M 142575 74250 142575 75250 M 142075 70250 143075 70250 M 142575 69750 142575 70750 M 139325 76000 140825 76000 M 140075 75250 140075 76750 M 139325 69000 140825 69000 M 140075 68250 140075 69750 M 142075 99750 143075 99750 M 142575 99250 142575 100250 M 142075 95250 143075 95250 M 142575 94750 142575 95750 M 139325 101000 140825 101000 M 140075 100250 140075 101750 M 139325 94000 140825 94000 M 140075 93250 140075 94750 M 76794 114534.12 77094 114534.12 M 76944 114384.12 76944 114684.12 M 74986 117017 75286 117017 M 75136 116867 75136 117167 M 76839 117144 77139 117144 M 76989 116994 76989 117294 M 75025.82 115001 75325.82 115001 M 75175.82 114851 75175.82 115151 M 79104 130217 79404 130217 M 79254 130067 79254 130367 M 90845 100412 91145 100412 M 90995 100262 90995 100562 M 68286 118378 68586 118378 M 68436 118228 68436 118528 M 66958 118340 67258 118340 M 67108 118190 67108 118490 M 66942 114974 67242 114974 M 67092 114824 67092 115124 M 68207 114974 68507 114974 M 68357 114824 68357 115124 M 40461 32222 40761 32222 M 40611 32072 40611 32372 M 32812 40586 33112 40586 M 32962 40436 32962 40736 M 25273 53363 25573 53363 M 25423 53213 25423 53513 M 13765 67998 14065 67998 M 13915 67848 13915 68148 M 22146 75670 22446 75670 M 22296 75520 22296 75820 M 17072 101572 17372 101572 M 17222 101422 17222 101722 M 25995 92794 26295 92794 M 26145 92644 26145 92944 M 39261 104386 39561 104386 M 39411 104236 39411 104536 M 30720 111577 31020 111577 M 30870 111427 30870 111727 M 66987 111571 67287 111571 M 67137 111421 67137 111721 M 75511 104402 75811 104402 M 75661 104252 75661 104552 M 103072 111572 103372 111572 M 103222 111422 103222 111722 M 111761 104668 112061 104668 M 111911 104518 111911 104818 M 127724 101503 128024 101503 M 127874 101353 127874 101653 M 69062 40798 69362 40798 M 69212 40648 69212 40948 M 77811 33700 78111 33700 M 77961 33550 77961 33850 M 127483 43689 127783 43689 M 127633 43539 127633 43839 M 113977 33732 114277 33732 M 114127 33582 114127 33882 M 111680 40830 111980 40830 M 111830 40680 111830 40980 M 105321 40734 105621 40734 M 105471 40584 105471 40884 M 9131 74133 9431 74133 M 9281 73983 9281 74283 M 13514 72103 13814 72103 M 13664 71953 13664 72253 M 13526 72909 13826 72909 M 13676 72759 13676 73059 M 13144.56 74139.65 13444.56 74139.65 M 13294.56 73989.65 13294.56 74289.65 M 9451 72113 9751 72113 M 9601 71963 9601 72263 M 9131 72926 9431 72926 M 9281 72776 9281 73076 M 76193 30511 76493 30511 M 76343 30361 76343 30661 M 74842 30287 75142 30287 M 74992 30137 74992 30437 M 74867 28541 75167 28541 M 75017 28391 75017 28691 M 76188 28526.3 76488 28526.3 M 76338 28376.3 76338 28676.3 M 66215 30362 66515 30362 M 66365 30212 66365 30512 M 66264 28541 66564 28541 M 66414 28391 66414 28691 M 67792.7 28583.3 68092.7 28583.3 M 67942.7 28433.3 67942.7 28733.3 M 67835 30387 68135 30387 M 67985 30237 67985 30537 M 74588.46 101688.46 74888.46 101688.46 M 74738.46 101538.46 74738.46 101838.46 M 74459 99374 74759 99374 M 74609 99224 74609 99524 M 75551 101351 75851 101351 M 75701 101201 75701 101501 M 75592.5 98531.5 75892.5 98531.5 M 75742.5 98381.5 75742.5 98681.5 M 69024 98464 69324 98464 M 69174 98314 69174 98614 M 69050 100961 69350 100961 M 69200 100811 69200 101111 M 67620 100831 67920 100831 M 67770 100681 67770 100981 M 67620 98464 67920 98464 M 67770 98314 67770 98614 M 24116 74589 24416 74589 M 24266 74439 24266 74739 M 26161 74577 26461 74577 M 26311 74427 26311 74727 M 76136 47652 76636 47652 M 76386 47402 76386 47902 M 77296 47652 77796 47652 M 77546 47402 77546 47902 M 76051 50688 76551 50688 M 76301 50438 76301 50938 M 67254 50836 67754 50836 M 67504 50586 67504 51086 M 77266 50699 77766 50699 M 77516 50449 77516 50949 M 68688 50899 69188 50899 M 68938 50649 68938 51149 M 93271 86957 93771 86957 M 93521 86707 93521 87207 M 56362 86895 56862 86895 M 56612 86645 56612 87145 M 68753 47637 69253 47637 M 69003 47387 69003 47887 M 67413 47668 67913 47668 M 67663 47418 67663 47918 M 56363 12931 56863 12931 M 56613 12681 56613 13181 M 93236 12829 93736 12829 M 93486 12579 93486 13079 M 141188 72908 141688 72908 M 141438 72658 141438 73158 M 133919.01 72990 134419.01 72990 M 134169.01 72740 134169.01 73240 M 133919.01 74288 134419.01 74288 M 134169.01 74038 134169.01 74538 M 139371 72966 139871 72966 M 139621 72716 139621 73216 M 133966 71715 134466 71715 M 134216 71465 134216 71965 M 139348.01 71597 139848.01 71597 M 139598.01 71347 139598.01 71847 M 133950 12307 134450 12307 M 134200 12057 134200 12557 M 133774 48409 134274 48409 M 134024 48159 134024 48659 M 138483 48300 138983 48300 M 138733 48050 138733 48550 M 138291 12215 138791 12215 M 138541 11965 138541 12465 M 141884 107580 142384 107580 M 142134 107330 142134 107830 M 141944 110667 142444 110667 M 142194 110417 142194 110917 M 136975.01 110662 137475.01 110662 M 137225.01 110412 137225.01 110912 M 136968.99 107585 137468.99 107585 M 137218.99 107335 137218.99 107835" fill="none" stroke-width="127"/></g><mask id="oxrXXV8orE-B_bottom_mech-mask"><g fill="#000" stroke="#000"><rect x="1861.5" y="9125.5" width="141277" height="133502" fill="#fff"/><use xlink:href="#oxrXXV8orE-B_bottom_drill1"/></g></mask></defs><g transform="translate(0,151753) scale(1,-1)"><g mask="url(#oxrXXV8orE-B_bottom_mech-mask)" transform="translate(145000,0) scale(-1,1)"><rect x="1861.5" y="9125.5" width="141277" height="133502" fill="currentColor" class="oxrXXV8orE-B_fr4"/></g></g></svg>