%TF.GenerationSoftware,Altium Limited,Altium Designer,22.1.2 (22)*%
G04 Layer_Color=8388736*
%FSLAX45Y45*%
%MOMM*%
%TF.SameCoordinates,073EAA7F-B3E9-4302-98AB-51A492F3094A*%
%TF.FilePolarity,Negative*%
%TF.FileFunction,Soldermask,Top*%
%TF.Part,Single*%
G01*
G75*
%TA.AperFunction,SMDPad,CuDef*%
%ADD10R,1.00000X0.90000*%
%ADD17R,0.80000X1.75000*%
%ADD18R,0.70000X1.75000*%
%ADD20R,0.90000X1.00000*%
%ADD22R,1.75000X0.80000*%
%ADD23R,1.75000X0.70000*%
%TA.AperFunction,ComponentPad*%
G04:AMPARAMS|DCode=31|XSize=2.4mm|YSize=5mm|CornerRadius=1.2mm|HoleSize=0mm|Usage=FLASHONLY|Rotation=0.000|XOffset=0mm|YOffset=0mm|HoleType=Round|Shape=RoundedRectangle|*
%AMROUNDEDRECTD31*
21,1,2.40000,2.60000,0,0,0.0*
21,1,0.00000,5.00000,0,0,0.0*
1,1,2.40000,0.00000,-1.30000*
1,1,2.40000,0.00000,-1.30000*
1,1,2.40000,0.00000,1.30000*
1,1,2.40000,0.00000,1.30000*
%
%ADD31ROUNDEDRECTD31*%
%ADD32R,1.55000X1.55000*%
%ADD33C,1.55000*%
%ADD34R,1.55000X1.55000*%
%ADD35C,2.30000*%
%TA.AperFunction,SMDPad,CuDef*%
%ADD47R,1.10000X1.00000*%
G04:AMPARAMS|DCode=48|XSize=0.65mm|YSize=1.35mm|CornerRadius=0.0995mm|HoleSize=0mm|Usage=FLASHONLY|Rotation=90.000|XOffset=0mm|YOffset=0mm|HoleType=Round|Shape=RoundedRectangle|*
%AMROUNDEDRECTD48*
21,1,0.65000,1.15100,0,0,90.0*
21,1,0.45100,1.35000,0,0,90.0*
1,1,0.19900,0.57550,0.22550*
1,1,0.19900,0.57550,-0.22550*
1,1,0.19900,-0.57550,-0.22550*
1,1,0.19900,-0.57550,0.22550*
%
%ADD48ROUNDEDRECTD48*%
%ADD49R,1.30000X1.10000*%
%ADD50R,0.55000X1.00000*%
%ADD51R,1.10000X1.30000*%
%ADD52R,1.80000X2.60000*%
%ADD53R,1.00000X1.10000*%
%ADD54R,1.00000X0.55000*%
%TA.AperFunction,ComponentPad*%
%ADD55C,1.70000*%
%ADD56C,1.60800*%
%ADD57R,1.30000X1.30000*%
%ADD58C,1.30000*%
D10*
X13552499Y10956300D02*
D03*
X13722501D02*
D03*
X13552200Y10652200D02*
D03*
X13722200D02*
D03*
X12644200Y10698700D02*
D03*
X12474200D02*
D03*
D17*
X3162800Y3367900D02*
D03*
X4061800D02*
D03*
Y3932900D02*
D03*
X3162800D02*
D03*
X7699500Y10592500D02*
D03*
X6800500D02*
D03*
Y11157500D02*
D03*
X7699500D02*
D03*
X11324500Y10592500D02*
D03*
X10425500D02*
D03*
Y11157500D02*
D03*
X11324500D02*
D03*
X4074500Y10592500D02*
D03*
X3175500D02*
D03*
Y11157500D02*
D03*
X4074500D02*
D03*
X6787800Y3367900D02*
D03*
X7686800D02*
D03*
Y3932900D02*
D03*
X6787800D02*
D03*
X10412800Y3367900D02*
D03*
X11311800D02*
D03*
Y3932900D02*
D03*
X10412800D02*
D03*
D18*
X3294800Y3367900D02*
D03*
X3421800D02*
D03*
X3548800D02*
D03*
X3675800D02*
D03*
X3802800D02*
D03*
X3929800D02*
D03*
Y3932900D02*
D03*
X3802800D02*
D03*
X3675800D02*
D03*
X3548800D02*
D03*
X3421800D02*
D03*
X3294800D02*
D03*
X7567500Y10592500D02*
D03*
X7440500D02*
D03*
X7313500D02*
D03*
X7186500D02*
D03*
X7059500D02*
D03*
X6932500D02*
D03*
Y11157500D02*
D03*
X7059500D02*
D03*
X7186500D02*
D03*
X7313500D02*
D03*
X7440500D02*
D03*
X7567500D02*
D03*
X11192500Y10592500D02*
D03*
X11065500D02*
D03*
X10938500D02*
D03*
X10811500D02*
D03*
X10684500D02*
D03*
X10557500D02*
D03*
Y11157500D02*
D03*
X10684500D02*
D03*
X10811500D02*
D03*
X10938500D02*
D03*
X11065500D02*
D03*
X11192500D02*
D03*
X3942500Y10592500D02*
D03*
X3815500D02*
D03*
X3688500D02*
D03*
X3561500D02*
D03*
X3434500D02*
D03*
X3307500D02*
D03*
Y11157500D02*
D03*
X3434500D02*
D03*
X3561500D02*
D03*
X3688500D02*
D03*
X3815500D02*
D03*
X3942500D02*
D03*
X6919800Y3367900D02*
D03*
X7046800D02*
D03*
X7173800D02*
D03*
X7300800D02*
D03*
X7427800D02*
D03*
X7554800D02*
D03*
Y3932900D02*
D03*
X7427800D02*
D03*
X7300800D02*
D03*
X7173800D02*
D03*
X7046800D02*
D03*
X6919800D02*
D03*
X10544800Y3367900D02*
D03*
X10671800D02*
D03*
X10798800D02*
D03*
X10925800D02*
D03*
X11052800D02*
D03*
X11179800D02*
D03*
Y3932900D02*
D03*
X11052800D02*
D03*
X10925800D02*
D03*
X10798800D02*
D03*
X10671800D02*
D03*
X10544800D02*
D03*
D20*
X13236200Y11536600D02*
D03*
Y11706600D02*
D03*
X11311300Y11582600D02*
D03*
Y11412600D02*
D03*
X11187800Y11582400D02*
D03*
Y11412400D02*
D03*
D22*
X2082500Y7699500D02*
D03*
Y6800500D02*
D03*
X1517500D02*
D03*
Y7699500D02*
D03*
D23*
X2082500Y7567500D02*
D03*
Y7440500D02*
D03*
Y7313500D02*
D03*
Y7186500D02*
D03*
Y7059500D02*
D03*
Y6932500D02*
D03*
X1517500D02*
D03*
Y7059500D02*
D03*
Y7186500D02*
D03*
Y7313500D02*
D03*
Y7440500D02*
D03*
Y7567500D02*
D03*
D31*
X12223905Y5424300D02*
D03*
X13363905D02*
D03*
X2285394Y9096800D02*
D03*
X1145395D02*
D03*
X5977794D02*
D03*
X4837795D02*
D03*
X1146705Y12834500D02*
D03*
X2286705D02*
D03*
X4839105D02*
D03*
X5979105D02*
D03*
X8530195Y9096800D02*
D03*
X9670195D02*
D03*
X9671505Y12834500D02*
D03*
X8531505D02*
D03*
X12222595Y9096800D02*
D03*
X13362595D02*
D03*
X13363905Y12834500D02*
D03*
X12223905D02*
D03*
X2285394Y1686600D02*
D03*
X1145395D02*
D03*
X5977794D02*
D03*
X4837795D02*
D03*
X9670195D02*
D03*
X8530195D02*
D03*
X13362595D02*
D03*
X12222595D02*
D03*
X1146705Y5424300D02*
D03*
X2286705D02*
D03*
X4839105D02*
D03*
X5979105D02*
D03*
X8531505D02*
D03*
X9671505D02*
D03*
D32*
X12543905Y4674300D02*
D03*
X1965395Y9846800D02*
D03*
X5657795D02*
D03*
X1466705Y12084500D02*
D03*
X5159105D02*
D03*
X9350195Y9846800D02*
D03*
X8851505Y12084500D02*
D03*
X13042595Y9846800D02*
D03*
X12543905Y12084500D02*
D03*
X1965395Y2436600D02*
D03*
X5657795D02*
D03*
X9350195D02*
D03*
X13042595D02*
D03*
X1466705Y4674300D02*
D03*
X5159105D02*
D03*
X8851505D02*
D03*
D33*
X12793905D02*
D03*
X13043906D02*
D03*
X12543905Y6124300D02*
D03*
X13043906D02*
D03*
X242500Y4975000D02*
D03*
X1715395Y9846800D02*
D03*
X1465395D02*
D03*
X1965395Y8396800D02*
D03*
X1465395D02*
D03*
X5407795Y9846800D02*
D03*
X5157795D02*
D03*
X5657795Y8396800D02*
D03*
X5157795D02*
D03*
X1716705Y12084500D02*
D03*
X1966705D02*
D03*
X1466705Y13534500D02*
D03*
X1966705D02*
D03*
X5409105Y12084500D02*
D03*
X5659105D02*
D03*
X5159105Y13534500D02*
D03*
X5659105D02*
D03*
X8850195Y8396800D02*
D03*
X9350195D02*
D03*
X8850195Y9846800D02*
D03*
X9100195D02*
D03*
X9351505Y13534500D02*
D03*
X8851505D02*
D03*
X9351505Y12084500D02*
D03*
X9101505D02*
D03*
X12542595Y8396800D02*
D03*
X13042595D02*
D03*
X12542595Y9846800D02*
D03*
X12792595D02*
D03*
X13043906Y13534500D02*
D03*
X12543905D02*
D03*
X13043906Y12084500D02*
D03*
X12793905D02*
D03*
X1715395Y2436600D02*
D03*
X1465395D02*
D03*
X1965395Y986600D02*
D03*
X1465395D02*
D03*
X5407795Y2436600D02*
D03*
X5157795D02*
D03*
X5657795Y986600D02*
D03*
X5157795D02*
D03*
X9100195Y2436600D02*
D03*
X8850195D02*
D03*
X9350195Y986600D02*
D03*
X8850195D02*
D03*
X12792595Y2436600D02*
D03*
X12542595D02*
D03*
X13042595Y986600D02*
D03*
X12542595D02*
D03*
X1716705Y4674300D02*
D03*
X1966705D02*
D03*
X1466705Y6124300D02*
D03*
X1966705D02*
D03*
X5409105Y4674300D02*
D03*
X5659105D02*
D03*
X5159105Y6124300D02*
D03*
X5659105D02*
D03*
X9101505Y4674300D02*
D03*
X9351505D02*
D03*
X8851505Y6124300D02*
D03*
X9351505D02*
D03*
X242500Y9975000D02*
D03*
X14257500Y4525000D02*
D03*
X242500Y7475000D02*
D03*
X14257500Y7025000D02*
D03*
Y9525000D02*
D03*
D34*
X242500Y4525000D02*
D03*
Y9525000D02*
D03*
X14257500Y4975000D02*
D03*
X242500Y7025000D02*
D03*
X14257500Y7475000D02*
D03*
Y9975000D02*
D03*
D35*
X492500Y4400000D02*
D03*
Y5100000D02*
D03*
Y9400000D02*
D03*
Y10100000D02*
D03*
X14007500Y5100000D02*
D03*
Y4400000D02*
D03*
X492500Y6900000D02*
D03*
Y7600000D02*
D03*
X14007500D02*
D03*
Y6900000D02*
D03*
Y10100000D02*
D03*
Y9400000D02*
D03*
D47*
X11973800Y2072200D02*
D03*
Y1937200D02*
D03*
X13538499Y11192500D02*
D03*
Y11327500D02*
D03*
X2613800Y9404500D02*
D03*
Y9539500D02*
D03*
X6296300Y8876400D02*
D03*
Y8741400D02*
D03*
X3041100Y12994000D02*
D03*
Y13128999D02*
D03*
X6331300Y13393500D02*
D03*
Y13258501D02*
D03*
X2332500Y7566100D02*
D03*
Y7701100D02*
D03*
X8194300Y9272400D02*
D03*
Y9407400D02*
D03*
X8050700Y13115100D02*
D03*
Y13250101D02*
D03*
X11888500Y9410600D02*
D03*
Y9545600D02*
D03*
X8051500Y12568000D02*
D03*
Y12433000D02*
D03*
X2549900Y2018600D02*
D03*
Y1883600D02*
D03*
X6245400Y2149700D02*
D03*
Y2014700D02*
D03*
X8267000Y2175000D02*
D03*
Y2040000D02*
D03*
X2545700Y5085800D02*
D03*
Y5220800D02*
D03*
X6275000Y5722000D02*
D03*
Y5587000D02*
D03*
X8267300Y5702000D02*
D03*
Y5567000D02*
D03*
X11939100Y5070600D02*
D03*
Y5205600D02*
D03*
X855700Y7070000D02*
D03*
Y6935000D02*
D03*
D48*
X13352699Y10573800D02*
D03*
Y10700800D02*
D03*
Y10827800D02*
D03*
Y10954800D02*
D03*
Y11081800D02*
D03*
Y11208800D02*
D03*
Y11335800D02*
D03*
X12827699Y10573800D02*
D03*
Y10700800D02*
D03*
Y10827800D02*
D03*
Y10954800D02*
D03*
Y11081800D02*
D03*
Y11208800D02*
D03*
Y11335800D02*
D03*
D49*
X13785400Y11819400D02*
D03*
Y11619400D02*
D03*
D50*
X3652301Y4360400D02*
D03*
X3732300D02*
D03*
X3492301D02*
D03*
X3572301D02*
D03*
Y4190400D02*
D03*
X3492301D02*
D03*
X3732300D02*
D03*
X3652301D02*
D03*
X7290000Y11415000D02*
D03*
X7370000D02*
D03*
X7130001D02*
D03*
X7210001D02*
D03*
Y11585000D02*
D03*
X7130001D02*
D03*
X7370000D02*
D03*
X7290000D02*
D03*
X10915001Y11415000D02*
D03*
X10995000D02*
D03*
X10755001D02*
D03*
X10835001D02*
D03*
Y11585000D02*
D03*
X10755001D02*
D03*
X10995000D02*
D03*
X10915001D02*
D03*
X3665001Y11415000D02*
D03*
X3745000D02*
D03*
X3505001D02*
D03*
X3585001D02*
D03*
Y11585000D02*
D03*
X3505001D02*
D03*
X3745000D02*
D03*
X3665001D02*
D03*
X7210000Y10335000D02*
D03*
X7130000D02*
D03*
X7369999D02*
D03*
X7289999D02*
D03*
Y10165000D02*
D03*
X7369999D02*
D03*
X7130000D02*
D03*
X7210000D02*
D03*
X10835000Y10335000D02*
D03*
X10755000D02*
D03*
X10994999D02*
D03*
X10915000D02*
D03*
Y10165000D02*
D03*
X10994999D02*
D03*
X10755000D02*
D03*
X10835000D02*
D03*
X3585000Y10335000D02*
D03*
X3505000D02*
D03*
X3744999D02*
D03*
X3665000D02*
D03*
Y10165000D02*
D03*
X3744999D02*
D03*
X3505000D02*
D03*
X3585000D02*
D03*
X7197300Y2940400D02*
D03*
X7117300D02*
D03*
X7357299D02*
D03*
X7277299D02*
D03*
Y3110400D02*
D03*
X7357299D02*
D03*
X7117300D02*
D03*
X7197300D02*
D03*
X10822300Y2940400D02*
D03*
X10742300D02*
D03*
X10982299D02*
D03*
X10902300D02*
D03*
Y3110400D02*
D03*
X10982299D02*
D03*
X10742300D02*
D03*
X10822300D02*
D03*
X3572300Y2940400D02*
D03*
X3492300D02*
D03*
X3732299D02*
D03*
X3652300D02*
D03*
Y3110400D02*
D03*
X3732299D02*
D03*
X3492300D02*
D03*
X3572300D02*
D03*
X7277300Y4360400D02*
D03*
X7357300D02*
D03*
X7117301D02*
D03*
X7197301D02*
D03*
Y4190400D02*
D03*
X7117301D02*
D03*
X7357300D02*
D03*
X7277300D02*
D03*
X10902301Y4360400D02*
D03*
X10982300D02*
D03*
X10742301D02*
D03*
X10822301D02*
D03*
Y4190400D02*
D03*
X10742301D02*
D03*
X10982300D02*
D03*
X10902301D02*
D03*
D51*
X11601705Y6440300D02*
D03*
X11801705D02*
D03*
X2707595Y8080800D02*
D03*
X2907595D02*
D03*
X4431900Y8081400D02*
D03*
X4231900D02*
D03*
X2705100Y13841901D02*
D03*
X2905100D02*
D03*
X4416905Y13850500D02*
D03*
X4216905D02*
D03*
X10092395Y8080800D02*
D03*
X10292395D02*
D03*
X8129300Y13875000D02*
D03*
X7929300D02*
D03*
X11816700Y8081400D02*
D03*
X11616700D02*
D03*
X2907595Y670600D02*
D03*
X2707595D02*
D03*
X4231900Y671200D02*
D03*
X4431900D02*
D03*
X10292395Y670600D02*
D03*
X10092395D02*
D03*
X11616700Y671200D02*
D03*
X11816700D02*
D03*
X2905100Y6431700D02*
D03*
X2705100D02*
D03*
X4216905Y6440300D02*
D03*
X4416905D02*
D03*
X10289900Y6431700D02*
D03*
X10089900D02*
D03*
D52*
X12061500Y14194701D02*
D03*
Y13794701D02*
D03*
D53*
X244300Y5482600D02*
D03*
X379300D02*
D03*
X1996500Y10149800D02*
D03*
X1861500D02*
D03*
X5667500Y10153300D02*
D03*
X5532500D02*
D03*
X1471200Y11783100D02*
D03*
X1606200D02*
D03*
X5157700D02*
D03*
X5292700D02*
D03*
X1606595Y10150900D02*
D03*
X1471595D02*
D03*
X5298995D02*
D03*
X5163995D02*
D03*
X1825505Y11780400D02*
D03*
X1960505D02*
D03*
X5517905D02*
D03*
X5652905D02*
D03*
X9228000Y10158600D02*
D03*
X9363000D02*
D03*
X8973805Y11780400D02*
D03*
X8838805D02*
D03*
X12921800Y10149800D02*
D03*
X13056799D02*
D03*
X12666700Y11780900D02*
D03*
X12531700D02*
D03*
X8991395Y10150900D02*
D03*
X8856395D02*
D03*
X9210305Y11780400D02*
D03*
X9345305D02*
D03*
X12683795Y10150900D02*
D03*
X12548795D02*
D03*
X12902705Y11780400D02*
D03*
X13037704D02*
D03*
X7566100Y10342500D02*
D03*
X7701100D02*
D03*
X11191100D02*
D03*
X11326100D02*
D03*
X3941100D02*
D03*
X4076100D02*
D03*
X1975400Y2744700D02*
D03*
X1840400D02*
D03*
X5664700Y2745600D02*
D03*
X5529700D02*
D03*
X9353700Y2743900D02*
D03*
X9218700D02*
D03*
X13051700Y2742100D02*
D03*
X12916701D02*
D03*
X1446700Y4370400D02*
D03*
X1581700D02*
D03*
X5147400Y4374400D02*
D03*
X5282400D02*
D03*
X8857400Y4370600D02*
D03*
X8992400D02*
D03*
X12536800Y4374400D02*
D03*
X12671800D02*
D03*
X1471595Y2740700D02*
D03*
X1606595D02*
D03*
X5163995D02*
D03*
X5298995D02*
D03*
X8856395D02*
D03*
X8991395D02*
D03*
X12548795D02*
D03*
X12683795D02*
D03*
X1960505Y4370200D02*
D03*
X1825505D02*
D03*
X5652905D02*
D03*
X5517905D02*
D03*
X9345305D02*
D03*
X9210305D02*
D03*
X13037704D02*
D03*
X12902705D02*
D03*
X6786200Y4182900D02*
D03*
X6921200D02*
D03*
X10411200D02*
D03*
X10546200D02*
D03*
X3161200D02*
D03*
X3296200D02*
D03*
X239200Y9058900D02*
D03*
X374200D02*
D03*
X14257800Y5417700D02*
D03*
X14122800D02*
D03*
X14265601Y7818200D02*
D03*
X14130600D02*
D03*
X14248599Y9010300D02*
D03*
X14113600D02*
D03*
D54*
X1260000Y7290000D02*
D03*
Y7370000D02*
D03*
Y7130001D02*
D03*
Y7210001D02*
D03*
X1090000D02*
D03*
Y7130001D02*
D03*
Y7370000D02*
D03*
Y7290000D02*
D03*
X2340000Y7210000D02*
D03*
Y7130000D02*
D03*
Y7369999D02*
D03*
Y7289999D02*
D03*
X2510000D02*
D03*
Y7369999D02*
D03*
Y7130000D02*
D03*
Y7210000D02*
D03*
D55*
X11610805Y4683461D02*
D03*
X12122805Y6133461D02*
D03*
X11866805D02*
D03*
X11610805D02*
D03*
X12122805Y4683461D02*
D03*
X11866805D02*
D03*
X2898495Y9837639D02*
D03*
X2386495Y8387639D02*
D03*
X2642495D02*
D03*
X2898495D02*
D03*
X2386495Y9837639D02*
D03*
X2642495D02*
D03*
X4231000Y8384100D02*
D03*
X4743000Y9834100D02*
D03*
X4487000D02*
D03*
X4231000D02*
D03*
X4743000Y8384100D02*
D03*
X4487000D02*
D03*
X2898400Y13541701D02*
D03*
X2386400Y12091700D02*
D03*
X2642400D02*
D03*
X2898400D02*
D03*
X2386400Y13541701D02*
D03*
X2642400D02*
D03*
X4226005Y12093661D02*
D03*
X4738005Y13543661D02*
D03*
X4482005D02*
D03*
X4226005D02*
D03*
X4738005Y12093661D02*
D03*
X4482005D02*
D03*
X10027295Y9837639D02*
D03*
X9771295D02*
D03*
X10283295Y8387639D02*
D03*
X10027295D02*
D03*
X9771295D02*
D03*
X10283295Y9837639D02*
D03*
X8169500Y12092900D02*
D03*
X8425500D02*
D03*
X7913500Y13542900D02*
D03*
X8169500D02*
D03*
X8425500D02*
D03*
X7913500Y12092900D02*
D03*
X11871800Y8384100D02*
D03*
X12127800D02*
D03*
X11615800Y9834100D02*
D03*
X11871800D02*
D03*
X12127800D02*
D03*
X11615800Y8384100D02*
D03*
X13515900Y11882500D02*
D03*
Y12138500D02*
D03*
X12065900Y11626500D02*
D03*
Y11882500D02*
D03*
Y12138500D02*
D03*
X13515900Y11626500D02*
D03*
X2898495Y2427439D02*
D03*
X2386495Y977439D02*
D03*
X2642495D02*
D03*
X2898495D02*
D03*
X2386495Y2427439D02*
D03*
X2642495D02*
D03*
X4231000Y973900D02*
D03*
X4743000Y2423900D02*
D03*
X4487000D02*
D03*
X4231000D02*
D03*
X4743000Y973900D02*
D03*
X4487000D02*
D03*
X10283295Y2427439D02*
D03*
X9771295Y977439D02*
D03*
X10027295D02*
D03*
X10283295D02*
D03*
X9771295Y2427439D02*
D03*
X10027295D02*
D03*
X11615800Y973900D02*
D03*
X12127800Y2423900D02*
D03*
X11871800D02*
D03*
X11615800D02*
D03*
X12127800Y973900D02*
D03*
X11871800D02*
D03*
X2898400Y6131500D02*
D03*
X2386400Y4681500D02*
D03*
X2642400D02*
D03*
X2898400D02*
D03*
X2386400Y6131500D02*
D03*
X2642400D02*
D03*
X4226005Y4683461D02*
D03*
X4738005Y6133461D02*
D03*
X4482005D02*
D03*
X4226005D02*
D03*
X4738005Y4683461D02*
D03*
X4482005D02*
D03*
X10283200Y6131500D02*
D03*
X9771200Y4681500D02*
D03*
X10027200D02*
D03*
X10283200D02*
D03*
X9771200Y6131500D02*
D03*
X10027200D02*
D03*
D56*
X10177900Y13952400D02*
D03*
Y13698399D02*
D03*
Y13444400D02*
D03*
Y13190401D02*
D03*
Y12936400D02*
D03*
Y12682400D02*
D03*
Y12428400D02*
D03*
Y12174400D02*
D03*
X10431900D02*
D03*
X10685900D02*
D03*
X10939900D02*
D03*
X11193900D02*
D03*
X11447900D02*
D03*
X11701900D02*
D03*
Y12428400D02*
D03*
Y12682400D02*
D03*
Y12936400D02*
D03*
Y13190401D02*
D03*
Y13444400D02*
D03*
Y13698399D02*
D03*
Y13952400D02*
D03*
Y14206400D02*
D03*
D57*
X12460700Y14209599D02*
D03*
D58*
Y13859599D02*
D03*
%TF.MD5,89b1ce3cfa4d89c56376abfbf0b2b3c5*%
M02*
