<svg version="1.1" xmlns="http://www.w3.org/2000/svg" xmlns:xlink="http://www.w3.org/1999/xlink" stroke-linecap="round" stroke-linejoin="round" stroke-width="0" fill-rule="evenodd" width="141.33532mm" height="133.5mm" viewBox="-2025.0 5059.549999999988 149050.0 146788.15"><g transform="translate(0,151835) scale(1,-1)" fill="currentColor" stroke="currentColor"><path d="M 115600.05 46326.61 115600.05 47342.61 116616.05 47342.61 116616.05 46326.61 115600.05 46326.61 M 120720.05 60826.61 120720.05 61842.61 121736.05 61842.61 121736.05 60826.61 120720.05 60826.61 M 118160.05 60826.61 118160.05 61842.61 119176.05 61842.61 119176.05 60826.61 118160.05 60826.61 M 115600.05 60826.61 115600.05 61842.61 116616.05 61842.61 116616.05 60826.61 115600.05 60826.61 M 120720.05 46326.61 120720.05 47342.61 121736.05 47342.61 121736.05 46326.61 120720.05 46326.61 M 118160.05 46326.61 118160.05 47342.61 119176.05 47342.61 119176.05 46326.61 118160.05 46326.61 M 122239.05 53735 121731.05 54751 122747.05 54751 122239.05 53735 M 133639.05 53735 133131.04 54751 134147.05 54751 133639.05 53735 M 4925 43492 5179 43746 5433 43746 5179 44000 5433 44254 5179 44254 4925 44508 4671 44254 4417 44254 4671 44000 4417 43746 4671 43746 4925 43492 M 4925 50492 5179 50746 5433 50746 5179 51000 5433 51254 5179 51254 4925 51508 4671 51254 4417 51254 4671 51000 4417 50746 4671 50746 4925 50492 M 124099 141588 124353 142095.99 124099 142604 124607 142350.01 125115 142604 124861 142095.99 125115 141588 124607 141842 124099 141588 M 124099 138088 124353 138595.99 124099 139104 124607 138850.01 125115 139104 124861 138595.99 125115 138088 124607 138342 124099 138088 M 22853.94 90460 22345.94 91476 23361.94 91476 22853.94 90460 M 11453.95 90460 10945.95 91476 11961.95 91476 11453.95 90460 M 59777.94 90460 59269.94 91476 60285.94 91476 59777.94 90460 M 48377.95 90460 47869.95 91476 48885.95 91476 48377.95 90460 M 11467.05 127837 10959.05 128853 11975.05 128853 11467.05 127837 M 22867.05 127837 22359.05 128853 23375.05 128853 22867.05 127837 M 48391.05 127837 47883.05 128853 48899.05 128853 48391.05 127837 M 59791.05 127837 59283.05 128853 60299.05 128853 59791.05 127837 M 28476.95 97868.39 28476.95 98884.39 29492.95 98884.39 29492.95 97868.39 28476.95 97868.39 M 23356.95 83368.39 23356.95 84384.39 24372.95 84384.39 24372.95 83368.39 23356.95 83368.39 M 25916.95 83368.39 25916.95 84384.39 26932.95 84384.39 26932.95 83368.39 25916.95 83368.39 M 28476.95 83368.39 28476.95 84384.39 29492.95 84384.39 29492.95 83368.39 28476.95 83368.39 M 23356.95 97868.39 23356.95 98884.39 24372.95 98884.39 24372.95 97868.39 23356.95 97868.39 M 25916.95 97868.39 25916.95 98884.39 26932.95 98884.39 26932.95 97868.39 25916.95 97868.39 M 41802 83333 41802 84349 42818 84349 42818 83333 41802 83333 M 46922 97833 46922 98849 47938 98849 47938 97833 46922 97833 M 44362 97833 44362 98849 45378 98849 45378 97833 44362 97833 M 41802 97833 41802 98849 42818 98849 42818 97833 41802 97833 M 46922 83333 46922 84349 47938 84349 47938 83333 46922 83333 M 44362 83333 44362 84349 45378 84349 45378 83333 44362 83333 M 28476 134909 28476 135925 29492 135925 29492 134909 28476 134909 M 23356 120409 23356 121425 24372 121425 24372 120409 23356 120409 M 25916 120409 25916 121425 26932 121425 26932 120409 25916 120409 M 28476 120409 28476 121425 29492 121425 29492 120409 28476 120409 M 23356 134909 23356 135925 24372 135925 24372 134909 23356 134909 M 25916 134909 25916 135925 26932 135925 26932 134909 25916 134909 M 41752.05 120428.61 41752.05 121444.61 42768.05 121444.61 42768.05 120428.61 41752.05 120428.61 M 46872.05 134928.6 46872.05 135944.61 47888.05 135944.61 47888.05 134928.6 46872.05 134928.6 M 44312.05 134928.6 44312.05 135944.61 45328.05 135944.61 45328.05 134928.6 44312.05 134928.6 M 41752.05 134928.6 41752.05 135944.61 42768.05 135944.61 42768.05 134928.6 41752.05 134928.6 M 46872.05 120428.61 46872.05 121444.61 47888.05 121444.61 47888.05 120428.61 46872.05 120428.61 M 44312.05 120428.61 44312.05 121444.61 45328.05 121444.61 45328.05 120428.61 44312.05 120428.61 M 85301.95 90460 84793.95 91476 85809.95 91476 85301.95 90460 M 96701.95 90460 96193.95 91476 97209.95 91476 96701.95 90460 M 96715.05 127837 96207.05 128853 97223.05 128853 96715.05 127837 M 85315.05 127837 84807.05 128853 85823.05 128853 85315.05 127837 M 122225.95 90460 121717.95 91476 122733.95 91476 122225.95 90460 M 133625.95 90460 133117.95 91476 134133.96 91476 133625.95 90460 M 133639.05 127837 133131.04 128853 134147.05 128853 133639.05 127837 M 122239.05 127837 121731.05 128853 122747.05 128853 122239.05 127837 M 99764.95 97868.39 99764.95 98884.39 100780.95 98884.39 100780.95 97868.39 99764.95 97868.39 M 97204.95 97868.39 97204.95 98884.39 98220.95 98884.39 98220.95 97868.39 97204.95 97868.39 M 102324.95 83368.39 102324.95 84384.39 103340.95 84384.39 103340.95 83368.39 102324.95 83368.39 M 99764.95 83368.39 99764.95 84384.39 100780.95 84384.39 100780.95 83368.39 99764.95 83368.39 M 97204.95 83368.39 97204.95 84384.39 98220.95 84384.39 98220.95 83368.39 97204.95 83368.39 M 102324.95 97868.39 102324.95 98884.39 103340.95 98884.39 103340.95 97868.39 102324.95 97868.39 M 81187 120421 81187 121437 82203 121437 82203 120421 81187 120421 M 83747 120421 83747 121437 84763 121437 84763 120421 83747 120421 M 78627 134921.01 78627 135937 79643 135937 79643 134921.01 78627 134921.01 M 81187 134921.01 81187 135937 82203 135937 82203 134921.01 81187 134921.01 M 83747 134921.01 83747 135937 84763 135937 84763 134921.01 83747 134921.01 M 78627 120421 78627 121437 79643 121437 79643 120421 78627 120421 M 118210 83333 118210 84349 119226 84349 119226 83333 118210 83333 M 120770 83333 120770 84349 121786 84349 121786 83333 120770 83333 M 115650 97833 115650 98849 116666 98849 116666 97833 115650 97833 M 118210 97833 118210 98849 119226 98849 119226 97833 118210 97833 M 120770 97833 120770 98849 121786 98849 121786 97833 120770 97833 M 115650 83333 115650 84349 116666 84349 116666 83333 115650 83333 M 134651 118317 134651 119333 135667.01 119333 135667.01 118317 134651 118317 M 134651 120877 134651 121893 135667.01 121893 135667.01 120877 134651 120877 M 120151 115757 120151 116773 121167 116773 121167 115757 120151 115757 M 120151 118317 120151 119333 121167 119333 121167 118317 120151 118317 M 120151 120877 120151 121893 121167 121893 121167 120877 120151 120877 M 134651 115757 134651 116773 135667.01 116773 135667.01 115757 134651 115757 M 22853.94 16358 22345.94 17374 23361.94 17374 22853.94 16358 M 11453.95 16358 10945.95 17374 11961.95 17374 11453.95 16358 M 59777.94 16358 59269.94 17374 60285.94 17374 59777.94 16358 M 48377.95 16358 47869.95 17374 48885.95 17374 48377.95 16358 M 96701.95 16358 96193.95 17374 97209.95 17374 96701.95 16358 M 85301.95 16358 84793.95 17374 85809.95 17374 85301.95 16358 M 133625.95 16358 133117.95 17374 134133.96 17374 133625.95 16358 M 122225.95 16358 121717.95 17374 122733.95 17374 122225.95 16358 M 11467.05 53735 10959.05 54751 11975.05 54751 11467.05 53735 M 22867.05 53735 22359.05 54751 23375.05 54751 22867.05 53735 M 48391.05 53735 47883.05 54751 48899.05 54751 48391.05 53735 M 59791.05 53735 59283.05 54751 60299.05 54751 59791.05 53735 M 85315.05 53735 84807.05 54751 85823.05 54751 85315.05 53735 M 96715.05 53735 96207.05 54751 97223.05 54751 96715.05 53735 M 28476.95 23766.39 28476.95 24782.39 29492.95 24782.39 29492.95 23766.39 28476.95 23766.39 M 23356.95 9266.39 23356.95 10282.39 24372.95 10282.39 24372.95 9266.39 23356.95 9266.39 M 25916.95 9266.39 25916.95 10282.39 26932.95 10282.39 26932.95 9266.39 25916.95 9266.39 M 28476.95 9266.39 28476.95 10282.39 29492.95 10282.39 29492.95 9266.39 28476.95 9266.39 M 23356.95 23766.39 23356.95 24782.39 24372.95 24782.39 24372.95 23766.39 23356.95 23766.39 M 25916.95 23766.39 25916.95 24782.39 26932.95 24782.39 26932.95 23766.39 25916.95 23766.39 M 41802 9231 41802 10247 42818 10247 42818 9231 41802 9231 M 46922 23731 46922 24747 47938 24747 47938 23731 46922 23731 M 44362 23731 44362 24747 45378 24747 45378 23731 44362 23731 M 41802 23731 41802 24747 42818 24747 42818 23731 41802 23731 M 46922 9231 46922 10247 47938 10247 47938 9231 46922 9231 M 44362 9231 44362 10247 45378 10247 45378 9231 44362 9231 M 102324.95 23766.39 102324.95 24782.39 103340.95 24782.39 103340.95 23766.39 102324.95 23766.39 M 97204.95 9266.39 97204.95 10282.39 98220.95 10282.39 98220.95 9266.39 97204.95 9266.39 M 99764.95 9266.39 99764.95 10282.39 100780.95 10282.39 100780.95 9266.39 99764.95 9266.39 M 102324.95 9266.39 102324.95 10282.39 103340.95 10282.39 103340.95 9266.39 102324.95 9266.39 M 97204.95 23766.39 97204.95 24782.39 98220.95 24782.39 98220.95 23766.39 97204.95 23766.39 M 99764.95 23766.39 99764.95 24782.39 100780.95 24782.39 100780.95 23766.39 99764.95 23766.39 M 115650 9231 115650 10247 116666 10247 116666 9231 115650 9231 M 120770 23731 120770 24747 121786 24747 121786 23731 120770 23731 M 118210 23731 118210 24747 119226 24747 119226 23731 118210 23731 M 115650 23731 115650 24747 116666 24747 116666 23731 115650 23731 M 120770 9231 120770 10247 121786 10247 121786 9231 120770 9231 M 118210 9231 118210 10247 119226 10247 119226 9231 118210 9231 M 28476 60807 28476 61823 29492 61823 29492 60807 28476 60807 M 23356 46307 23356 47323 24372 47323 24372 46307 23356 46307 M 25916 46307 25916 47323 26932 47323 26932 46307 25916 46307 M 28476 46307 28476 47323 29492 47323 29492 46307 28476 46307 M 23356 60807 23356 61823 24372 61823 24372 60807 23356 60807 M 25916 60807 25916 61823 26932 61823 26932 60807 25916 60807 M 41752.05 46326.61 41752.05 47342.61 42768.05 47342.61 42768.05 46326.61 41752.05 46326.61 M 46872.05 60826.61 46872.05 61842.61 47888.05 61842.61 47888.05 60826.61 46872.05 60826.61 M 44312.05 60826.61 44312.05 61842.61 45328.05 61842.61 45328.05 60826.61 44312.05 60826.61 M 41752.05 60826.61 41752.05 61842.61 42768.05 61842.61 42768.05 60826.61 41752.05 60826.61 M 46872.05 46326.61 46872.05 47342.61 47888.05 47342.61 47888.05 46326.61 46872.05 46326.61 M 44312.05 46326.61 44312.05 47342.61 45328.05 47342.61 45328.05 46326.61 44312.05 46326.61 M 102324 60807 102324 61823 103340 61823 103340 60807 102324 60807 M 97204 46307 97204 47323 98220 47323 98220 46307 97204 46307 M 99764 46307 99764 47323 100780 47323 100780 46307 99764 46307 M 102324 46307 102324 47323 103340 47323 103340 46307 102324 46307 M 97204 60807 97204 61823 98220 61823 98220 60807 97204 60807 M 99764 60807 99764 61823 100780 61823 100780 60807 99764 60807 M 4925 93492 5179 93746 5433 93746 5179 94000 5433 94254 5179 94254 4925 94508 4671 94254 4417 94254 4671 94000 4417 93746 4671 93746 4925 93492 M 4925 100492 5179 100746 5433 100746 5179 101000 5433 101254 5179 101254 4925 101508 4671 101254 4417 101254 4671 101000 4417 100746 4671 100746 4925 100492 M 140075 50492 140328.99 50746 140582.99 50746 140328.99 51000 140582.99 51254 140328.99 51254 140075 51508 139821 51254 139567 51254 139821 51000 139567 50746 139821 50746 140075 50492 M 140075 43492 140328.99 43746 140582.99 43746 140328.99 44000 140582.99 44254 140328.99 44254 140075 44508 139821 44254 139567 44254 139821 44000 139567 43746 139821 43746 140075 43492 M 4925 68492 5179 68746 5433 68746 5179 69000 5433 69254 5179 69254 4925 69508 4671 69254 4417 69254 4671 69000 4417 68746 4671 68746 4925 68492 M 4925 75492 5179 75746 5433 75746 5179 76000 5433 76254 5179 76254 4925 76508 4671 76254 4417 76254 4671 76000 4417 75746 4671 75746 4925 75492 M 140075 75492 140328.99 75746 140582.99 75746 140328.99 76000 140582.99 76254 140328.99 76254 140075 76508 139821 76254 139567 76254 139821 76000 139567 75746 139821 75746 140075 75492 M 140075 68492 140328.99 68746 140582.99 68746 140328.99 69000 140582.99 69254 140328.99 69254 140075 69508 139821 69254 139567 69254 139821 69000 139567 68746 139821 68746 140075 68492 M 140075 100492 140328.99 100746 140582.99 100746 140328.99 101000 140582.99 101254 140328.99 101254 140075 101508 139821 101254 139567 101254 139821 101000 139567 100746 139821 100746 140075 100492 M 140075 93492 140328.99 93746 140582.99 93746 140328.99 94000 140582.99 94254 140328.99 94254 140075 94508 139821 94254 139567 94254 139821 94000 139567 93746 139821 93746 140075 93492 M 76690 114280.12 76690 114026.12 77198 114026.12 77198 114280.12 77452 114280.12 77452 114788.12 77198 114788.12 77198 115042.12 76690 115042.12 76690 114788.12 76436 114788.12 76436 114280.12 76690 114280.12 M 74882 116763 74882 116509 75390 116509 75390 116763 75644 116763 75644 117271 75390 117271 75390 117525 74882 117525 74882 117271 74628 117271 74628 116763 74882 116763 M 76735 116890 76735 116636 77243 116636 77243 116890 77497 116890 77497 117398 77243 117398 77243 117652 76735 117652 76735 117398 76481 117398 76481 116890 76735 116890 M 74921.82 114747 74921.82 114493 75429.82 114493 75429.82 114747 75683.82 114747 75683.82 115255 75429.82 115255 75429.82 115509 74921.82 115509 74921.82 115255 74667.82 115255 74667.82 114747 74921.82 114747 M 79000 129963 79000 129709 79508 129709 79508 129963 79762 129963 79762 130470.99 79508 130470.99 79508 130725.01 79000 130725.01 79000 130470.99 78746 130470.99 78746 129963 79000 129963 M 90741 100158 90741 99904 91249 99904 91249 100158 91503 100158 91503 100666 91249 100666 91249 100920 90741 100920 90741 100666 90487 100666 90487 100158 90741 100158 M 68182 118124 68182 117870 68690 117870 68690 118124 68944 118124 68944 118632 68690 118632 68690 118886 68182 118886 68182 118632 67928 118632 67928 118124 68182 118124 M 66854 118086 66854 117832 67362 117832 67362 118086 67616 118086 67616 118594 67362 118594 67362 118848 66854 118848 66854 118594 66600 118594 66600 118086 66854 118086 M 66838 114720 66838 114466 67346 114466 67346 114720 67600 114720 67600 115228 67346 115228 67346 115482 66838 115482 66838 115228 66584 115228 66584 114720 66838 114720 M 68103 114720 68103 114466 68611 114466 68611 114720 68865 114720 68865 115228 68611 115228 68611 115482 68103 115482 68103 115228 67849 115228 67849 114720 68103 114720 M 40357 31968 40357 31714 40865 31714 40865 31968 41119 31968 41119 32476 40865 32476 40865 32730 40357 32730 40357 32476 40103 32476 40103 31968 40357 31968 M 32708 40332 32708 40078 33216 40078 33216 40332 33470 40332 33470 40840 33216 40840 33216 41094 32708 41094 32708 40840 32454 40840 32454 40332 32708 40332 M 25169 53109 25169 52855 25677 52855 25677 53109 25931 53109 25931 53617 25677 53617 25677 53871 25169 53871 25169 53617 24915 53617 24915 53109 25169 53109 M 13661 67744 13661 67490 14169 67490 14169 67744 14423 67744 14423 68252 14169 68252 14169 68506 13661 68506 13661 68252 13407 68252 13407 67744 13661 67744 M 22042 75416 22042 75162 22550 75162 22550 75416 22804 75416 22804 75924 22550 75924 22550 76178 22042 76178 22042 75924 21788 75924 21788 75416 22042 75416 M 16968 101318 16968 101064 17476 101064 17476 101318 17730 101318 17730 101826 17476 101826 17476 102080 16968 102080 16968 101826 16714 101826 16714 101318 16968 101318 M 25891 92540 25891 92286 26399 92286 26399 92540 26653 92540 26653 93048 26399 93048 26399 93302 25891 93302 25891 93048 25637 93048 25637 92540 25891 92540 M 39157 104132 39157 103878 39665 103878 39665 104132 39919 104132 39919 104640 39665 104640 39665 104894 39157 104894 39157 104640 38903 104640 38903 104132 39157 104132 M 30616 111323 30616 111069 31124 111069 31124 111323 31378 111323 31378 111831 31124 111831 31124 112085 30616 112085 30616 111831 30362 111831 30362 111323 30616 111323 M 66883 111317 66883 111063 67391 111063 67391 111317 67645 111317 67645 111825 67391 111825 67391 112079 66883 112079 66883 111825 66629 111825 66629 111317 66883 111317 M 75407 104148 75407 103894 75915 103894 75915 104148 76169 104148 76169 104656 75915 104656 75915 104910 75407 104910 75407 104656 75153 104656 75153 104148 75407 104148 M 102968 111318 102968 111064 103476 111064 103476 111318 103730 111318 103730 111826 103476 111826 103476 112080 102968 112080 102968 111826 102714 111826 102714 111318 102968 111318 M 111657 104414 111657 104160 112165 104160 112165 104414 112419 104414 112419 104922 112165 104922 112165 105176 111657 105176 111657 104922 111403 104922 111403 104414 111657 104414 M 127620 101249 127620 100995 128128.01 100995 128128.01 101249 128382 101249 128382 101757 128128.01 101757 128128.01 102011 127620 102011 127620 101757 127366 101757 127366 101249 127620 101249 M 68958 40544 68958 40290 69466 40290 69466 40544 69720 40544 69720 41052 69466 41052 69466 41306 68958 41306 68958 41052 68704 41052 68704 40544 68958 40544 M 77707 33446 77707 33192 78215 33192 78215 33446 78469 33446 78469 33954 78215 33954 78215 34208 77707 34208 77707 33954 77453 33954 77453 33446 77707 33446 M 127379 43435 127379 43181 127887 43181 127887 43435 128141.01 43435 128141.01 43943 127887 43943 127887 44197 127379 44197 127379 43943 127125 43943 127125 43435 127379 43435 M 113873 33478 113873 33224 114381 33224 114381 33478 114635 33478 114635 33986 114381 33986 114381 34240 113873 34240 113873 33986 113619 33986 113619 33478 113873 33478 M 111576 40576 111576 40322 112084 40322 112084 40576 112338 40576 112338 41084 112084 41084 112084 41338 111576 41338 111576 41084 111322 41084 111322 40576 111576 40576 M 105217 40480 105217 40226 105725 40226 105725 40480 105979 40480 105979 40988 105725 40988 105725 41242 105217 41242 105217 40988 104963 40988 104963 40480 105217 40480 M 9027 73879 9027 73625 9535 73625 9535 73879 9789 73879 9789 74387 9535 74387 9535 74641 9027 74641 9027 74387 8773 74387 8773 73879 9027 73879 M 13410 71849 13410 71595 13918 71595 13918 71849 14172 71849 14172 72357 13918 72357 13918 72611 13410 72611 13410 72357 13156 72357 13156 71849 13410 71849 M 13422 72655 13422 72401 13930 72401 13930 72655 14184 72655 14184 73163 13930 73163 13930 73417 13422 73417 13422 73163 13168 73163 13168 72655 13422 72655 M 13040.56 73885.65 13040.56 73631.65 13548.56 73631.65 13548.56 73885.65 13802.56 73885.65 13802.56 74393.65 13548.56 74393.65 13548.56 74647.65 13040.56 74647.65 13040.56 74393.65 12786.56 74393.65 12786.56 73885.65 13040.56 73885.65 M 9347 71859 9347 71605 9855 71605 9855 71859 10109 71859 10109 72367 9855 72367 9855 72621 9347 72621 9347 72367 9093 72367 9093 71859 9347 71859 M 9027 72672 9027 72418 9535 72418 9535 72672 9789 72672 9789 73180 9535 73180 9535 73434 9027 73434 9027 73180 8773 73180 8773 72672 9027 72672 M 76089 30257 76089 30003 76597 30003 76597 30257 76851 30257 76851 30765 76597 30765 76597 31019 76089 31019 76089 30765 75835 30765 75835 30257 76089 30257 M 74738 30033 74738 29779 75246 29779 75246 30033 75500 30033 75500 30541 75246 30541 75246 30795 74738 30795 74738 30541 74484 30541 74484 30033 74738 30033 M 74763 28287 74763 28033 75271 28033 75271 28287 75525 28287 75525 28795 75271 28795 75271 29049 74763 29049 74763 28795 74509 28795 74509 28287 74763 28287 M 76084 28272.3 76084 28018.3 76592 28018.3 76592 28272.3 76846 28272.3 76846 28780.3 76592 28780.3 76592 29034.3 76084 29034.3 76084 28780.3 75830 28780.3 75830 28272.3 76084 28272.3 M 66111 30108 66111 29854 66619 29854 66619 30108 66873 30108 66873 30616 66619 30616 66619 30870 66111 30870 66111 30616 65857 30616 65857 30108 66111 30108 M 66160 28287 66160 28033 66668 28033 66668 28287 66922 28287 66922 28795 66668 28795 66668 29049 66160 29049 66160 28795 65906 28795 65906 28287 66160 28287 M 67688.7 28329.3 67688.7 28075.3 68196.7 28075.3 68196.7 28329.3 68450.7 28329.3 68450.7 28837.3 68196.7 28837.3 68196.7 29091.3 67688.7 29091.3 67688.7 28837.3 67434.7 28837.3 67434.7 28329.3 67688.7 28329.3 M 67731 30133 67731 29879 68239 29879 68239 30133 68493 30133 68493 30641 68239 30641 68239 30895 67731 30895 67731 30641 67477 30641 67477 30133 67731 30133 M 74484.46 101434.46 74484.46 101180.46 74992.46 101180.46 74992.46 101434.46 75246.46 101434.46 75246.46 101942.46 74992.46 101942.46 74992.46 102196.46 74484.46 102196.46 74484.46 101942.46 74230.46 101942.46 74230.46 101434.46 74484.46 101434.46 M 74355 99120 74355 98866 74863 98866 74863 99120 75117 99120 75117 99628 74863 99628 74863 99882 74355 99882 74355 99628 74101 99628 74101 99120 74355 99120 M 75447 101097 75447 100843 75955 100843 75955 101097 76209 101097 76209 101605 75955 101605 75955 101859 75447 101859 75447 101605 75193 101605 75193 101097 75447 101097 M 75488.5 98277.5 75488.5 98023.5 75996.5 98023.5 75996.5 98277.5 76250.5 98277.5 76250.5 98785.5 75996.5 98785.5 75996.5 99039.5 75488.5 99039.5 75488.5 98785.5 75234.5 98785.5 75234.5 98277.5 75488.5 98277.5 M 68920 98210 68920 97956 69428 97956 69428 98210 69682 98210 69682 98718 69428 98718 69428 98972 68920 98972 68920 98718 68666 98718 68666 98210 68920 98210 M 68946 100707 68946 100453 69454 100453 69454 100707 69708 100707 69708 101215 69454 101215 69454 101469 68946 101469 68946 101215 68692 101215 68692 100707 68946 100707 M 67516 100577 67516 100323 68024 100323 68024 100577 68278 100577 68278 101085 68024 101085 68024 101339 67516 101339 67516 101085 67262 101085 67262 100577 67516 100577 M 67516 98210 67516 97956 68024 97956 68024 98210 68278 98210 68278 98718 68024 98718 68024 98972 67516 98972 67516 98718 67262 98718 67262 98210 67516 98210 M 24012 74335 24012 74081 24520 74081 24520 74335 24774 74335 24774 74843 24520 74843 24520 75097 24012 75097 24012 74843 23758 74843 23758 74335 24012 74335 M 26057 74323 26057 74069 26565 74069 26565 74323 26819 74323 26819 74831 26565 74831 26565 75085 26057 75085 26057 74831 25803 74831 25803 74323 26057 74323 M 75878 47144 76132 47144 76386 47398 76640 47144 76894 47144 76894 47398 76640 47652 76894 47906 76894 48160 76640 48160 76386 47906 76132 48160 75878 48160 75878 47906 76132 47652 75878 47398 75878 47144 M 77038 47144 77292 47144 77546 47398 77800 47144 78054 47144 78054 47398 77800 47652 78054 47906 78054 48160 77800 48160 77546 47906 77292 48160 77038 48160 77038 47906 77292 47652 77038 47398 77038 47144 M 75793 50180 76047 50180 76301 50434 76555 50180 76809 50180 76809 50434 76555 50688 76809 50942 76809 51196 76555 51196 76301 50942 76047 51196 75793 51196 75793 50942 76047 50688 75793 50434 75793 50180 M 66996 50328 67250 50328 67504 50582 67758 50328 68012 50328 68012 50582 67758 50836 68012 51090 68012 51344 67758 51344 67504 51090 67250 51344 66996 51344 66996 51090 67250 50836 66996 50582 66996 50328 M 77008 50191 77262 50191 77516 50445 77770 50191 78024 50191 78024 50445 77770 50699 78024 50953 78024 51207 77770 51207 77516 50953 77262 51207 77008 51207 77008 50953 77262 50699 77008 50445 77008 50191 M 68430 50391 68684 50391 68938 50645 69192 50391 69446 50391 69446 50645 69192 50899 69446 51153 69446 51407 69192 51407 68938 51153 68684 51407 68430 51407 68430 51153 68684 50899 68430 50645 68430 50391 M 93013 86449 93267 86449 93521 86703 93775 86449 94029 86449 94029 86703 93775 86957 94029 87211 94029 87465 93775 87465 93521 87211 93267 87465 93013 87465 93013 87211 93267 86957 93013 86703 93013 86449 M 56104 86387 56358 86387 56612 86641 56866 86387 57120 86387 57120 86641 56866 86895 57120 87149 57120 87403 56866 87403 56612 87149 56358 87403 56104 87403 56104 87149 56358 86895 56104 86641 56104 86387 M 68495 47129 68749 47129 69003 47383 69257 47129 69511 47129 69511 47383 69257 47637 69511 47891 69511 48145 69257 48145 69003 47891 68749 48145 68495 48145 68495 47891 68749 47637 68495 47383 68495 47129 M 67155 47160 67409 47160 67663 47414 67917 47160 68171 47160 68171 47414 67917 47668 68171 47922 68171 48176 67917 48176 67663 47922 67409 48176 67155 48176 67155 47922 67409 47668 67155 47414 67155 47160 M 56105 12423 56359 12423 56613 12677 56867 12423 57121 12423 57121 12677 56867 12931 57121 13185 57121 13439 56867 13439 56613 13185 56359 13439 56105 13439 56105 13185 56359 12931 56105 12677 56105 12423 M 92978 12321 93232 12321 93486 12575 93740 12321 93994 12321 93994 12575 93740 12829 93994 13083 93994 13337 93740 13337 93486 13083 93232 13337 92978 13337 92978 13083 93232 12829 92978 12575 92978 12321 M 140929.99 72400 141184.01 72400 141438 72654 141692 72400 141946 72400 141946 72654 141692 72908 141946 73162 141946 73416 141692 73416 141438 73162 141184.01 73416 140929.99 73416 140929.99 73162 141184.01 72908 140929.99 72654 140929.99 72400 M 133661 72482 133914.99 72482 134169.01 72736 134423 72482 134677 72482 134677 72736 134423 72990 134677 73244 134677 73498 134423 73498 134169.01 73244 133914.99 73498 133661 73498 133661 73244 133914.99 72990 133661 72736 133661 72482 M 133661 73780 133914.99 73780 134169.01 74034 134423 73780 134677 73780 134677 74034 134423 74288 134677 74542 134677 74796 134423 74796 134169.01 74542 133914.99 74796 133661 74796 133661 74542 133914.99 74288 133661 74034 133661 73780 M 139113.01 72458 139367 72458 139621 72712 139875 72458 140129 72458 140129 72712 139875 72966 140129 73220 140129 73474 139875 73474 139621 73220 139367 73474 139113.01 73474 139113.01 73220 139367 72966 139113.01 72712 139113.01 72458 M 133707.99 71207 133962.01 71207 134216 71461 134470 71207 134724 71207 134724 71461 134470 71715 134724 71969 134724 72223 134470 72223 134216 71969 133962.01 72223 133707.99 72223 133707.99 71969 133962.01 71715 133707.99 71461 133707.99 71207 M 139090 71089 139343.99 71089 139598.01 71343 139852.01 71089 140106 71089 140106 71343 139852.01 71597 140106 71851 140106 72105 139852.01 72105 139598.01 71851 139343.99 72105 139090 72105 139090 71851 139343.99 71597 139090 71343 139090 71089 M 133692 11799 133946 11799 134200 12053 134453.99 11799 134707.99 11799 134707.99 12053 134453.99 12307 134707.99 12561 134707.99 12815 134453.99 12815 134200 12561 133946 12815 133692 12815 133692 12561 133946 12307 133692 12053 133692 11799 M 133516.01 47901 133770 47901 134024 48155 134278 47901 134532 47901 134532 48155 134278 48409 134532 48663 134532 48917 134278 48917 134024 48663 133770 48917 133516.01 48917 133516.01 48663 133770 48409 133516.01 48155 133516.01 47901 M 138225.01 47792 138479 47792 138733 48046 138987 47792 139241 47792 139241 48046 138987 48300 139241 48554 139241 48808 138987 48808 138733 48554 138479 48808 138225.01 48808 138225.01 48554 138479 48300 138225.01 48046 138225.01 47792 M 138033 11707 138287 11707 138541 11961 138795 11707 139049 11707 139049 11961 138795 12215 139049 12469 139049 12723 138795 12723 138541 12469 138287 12723 138033 12723 138033 12469 138287 12215 138033 11961 138033 11707 M 141626.01 107072 141880 107072 142134 107326 142388 107072 142642 107072 142642 107326 142388 107580 142642 107834 142642 108088 142388 108088 142134 107834 141880 108088 141626.01 108088 141626.01 107834 141880 107580 141626.01 107326 141626.01 107072 M 141686 110159 141940 110159 142194 110413 142448 110159 142702 110159 142702 110413 142448 110667 142702 110921 142702 111175 142448 111175 142194 110921 141940 111175 141686 111175 141686 110921 141940 110667 141686 110413 141686 110159 M 136717 110154 136970.99 110154 137225.01 110408 137479 110154 137733 110154 137733 110408 137479 110662 137733 110916 137733 111170 137479 111170 137225.01 110916 136970.99 111170 136717 111170 136717 110916 136970.99 110662 136717 110408 136717 110154 M 136711 107077 136965 107077 137218.99 107331 137473.01 107077 137727.01 107077 137727.01 107331 137473.01 107585 137727.01 107839 137727.01 108093 137473.01 108093 137218.99 107839 136965 108093 136711 108093 136711 107839 136965 107585 136711 107331 136711 107077" fill="none" stroke-width="127"/><path d="M 102287 139524 A 508 508 0 0 1 101271 139524 508 508 0 0 1 102287 139524 M 102287 136983.99 A 508 508 0 0 1 101271 136983.99 508 508 0 0 1 102287 136983.99 M 102287 134444 A 508 508 0 0 1 101271 134444 508 508 0 0 1 102287 134444 M 102287 131904.01 A 508 508 0 0 1 101271 131904.01 508 508 0 0 1 102287 131904.01 M 102287 129364 A 508 508 0 0 1 101271 129364 508 508 0 0 1 102287 129364 M 102287 126824 A 508 508 0 0 1 101271 126824 508 508 0 0 1 102287 126824 M 102287 124284 A 508 508 0 0 1 101271 124284 508 508 0 0 1 102287 124284 M 102287 121744 A 508 508 0 0 1 101271 121744 508 508 0 0 1 102287 121744 M 104827 121744 A 508 508 0 0 1 103811 121744 508 508 0 0 1 104827 121744 M 107367 121744 A 508 508 0 0 1 106351 121744 508 508 0 0 1 107367 121744 M 109907 121744 A 508 508 0 0 1 108891 121744 508 508 0 0 1 109907 121744 M 112447 121744 A 508 508 0 0 1 111431 121744 508 508 0 0 1 112447 121744 M 114987 121744 A 508 508 0 0 1 113971 121744 508 508 0 0 1 114987 121744 M 117527 121744 A 508 508 0 0 1 116511 121744 508 508 0 0 1 117527 121744 M 117527 124284 A 508 508 0 0 1 116511 124284 508 508 0 0 1 117527 124284 M 117527 126824 A 508 508 0 0 1 116511 126824 508 508 0 0 1 117527 126824 M 117527 129364 A 508 508 0 0 1 116511 129364 508 508 0 0 1 117527 129364 M 117527 131904.01 A 508 508 0 0 1 116511 131904.01 508 508 0 0 1 117527 131904.01 M 117527 134444 A 508 508 0 0 1 116511 134444 508 508 0 0 1 117527 134444 M 117527 136983.99 A 508 508 0 0 1 116511 136983.99 508 508 0 0 1 117527 136983.99 M 117527 139524 A 508 508 0 0 1 116511 139524 508 508 0 0 1 117527 139524 M 117527 142064 A 508 508 0 0 1 116511 142064 508 508 0 0 1 117527 142064 M 125947.05 46743 A 508 508 0 0 1 124931.05 46743 508 508 0 0 1 125947.05 46743 M 128447.05 46743 A 508 508 0 0 1 127431.05 46743 508 508 0 0 1 128447.05 46743 M 130947.05 46743 A 508 508 0 0 1 129931.05 46743 508 508 0 0 1 130947.05 46743 M 125947.05 61243 A 508 508 0 0 1 124931.05 61243 508 508 0 0 1 125947.05 61243 M 130947.05 61243 A 508 508 0 0 1 129931.05 61243 508 508 0 0 1 130947.05 61243 M 2933 45250 A 508 508 0 0 1 1917 45250 508 508 0 0 1 2933 45250 M 2933 49750 A 508 508 0 0 1 1917 49750 508 508 0 0 1 2933 49750 M 20161.95 98468 A 508 508 0 0 1 19145.95 98468 508 508 0 0 1 20161.95 98468 M 17661.95 98468 A 508 508 0 0 1 16645.95 98468 508 508 0 0 1 17661.95 98468 M 15161.95 98468 A 508 508 0 0 1 14145.95 98468 508 508 0 0 1 15161.95 98468 M 20161.95 83968 A 508 508 0 0 1 19145.95 83968 508 508 0 0 1 20161.95 83968 M 15161.95 83968 A 508 508 0 0 1 14145.95 83968 508 508 0 0 1 15161.95 83968 M 57085.95 98468 A 508 508 0 0 1 56069.95 98468 508 508 0 0 1 57085.95 98468 M 54585.95 98468 A 508 508 0 0 1 53569.95 98468 508 508 0 0 1 54585.95 98468 M 52085.95 98468 A 508 508 0 0 1 51069.95 98468 508 508 0 0 1 52085.95 98468 M 57085.95 83968 A 508 508 0 0 1 56069.95 83968 508 508 0 0 1 57085.95 83968 M 52085.95 83968 A 508 508 0 0 1 51069.95 83968 508 508 0 0 1 52085.95 83968 M 15175.05 120845 A 508 508 0 0 1 14159.05 120845 508 508 0 0 1 15175.05 120845 M 17675.05 120845 A 508 508 0 0 1 16659.05 120845 508 508 0 0 1 17675.05 120845 M 20175.05 120845 A 508 508 0 0 1 19159.05 120845 508 508 0 0 1 20175.05 120845 M 15175.05 135345 A 508 508 0 0 1 14159.05 135345 508 508 0 0 1 15175.05 135345 M 20175.05 135345 A 508 508 0 0 1 19159.05 135345 508 508 0 0 1 20175.05 135345 M 52099.05 120845 A 508 508 0 0 1 51083.05 120845 508 508 0 0 1 52099.05 120845 M 54599.05 120845 A 508 508 0 0 1 53583.05 120845 508 508 0 0 1 54599.05 120845 M 57099.05 120845 A 508 508 0 0 1 56083.05 120845 508 508 0 0 1 57099.05 120845 M 52099.05 135345 A 508 508 0 0 1 51083.05 135345 508 508 0 0 1 52099.05 135345 M 57099.05 135345 A 508 508 0 0 1 56083.05 135345 508 508 0 0 1 57099.05 135345 M 89009.95 83968 A 508 508 0 0 1 87993.95 83968 508 508 0 0 1 89009.95 83968 M 94009.95 83968 A 508 508 0 0 1 92993.95 83968 508 508 0 0 1 94009.95 83968 M 89009.95 98468 A 508 508 0 0 1 87993.95 98468 508 508 0 0 1 89009.95 98468 M 91509.95 98468 A 508 508 0 0 1 90493.95 98468 508 508 0 0 1 91509.95 98468 M 94009.95 98468 A 508 508 0 0 1 92993.95 98468 508 508 0 0 1 94009.95 98468 M 94023.05 135345 A 508 508 0 0 1 93007.05 135345 508 508 0 0 1 94023.05 135345 M 89023.05 135345 A 508 508 0 0 1 88007.05 135345 508 508 0 0 1 89023.05 135345 M 94023.05 120845 A 508 508 0 0 1 93007.05 120845 508 508 0 0 1 94023.05 120845 M 91523.05 120845 A 508 508 0 0 1 90507.05 120845 508 508 0 0 1 91523.05 120845 M 89023.05 120845 A 508 508 0 0 1 88007.05 120845 508 508 0 0 1 89023.05 120845 M 125933.95 83968 A 508 508 0 0 1 124917.95 83968 508 508 0 0 1 125933.95 83968 M 130933.94 83968 A 508 508 0 0 1 129917.94 83968 508 508 0 0 1 130933.94 83968 M 125933.95 98468 A 508 508 0 0 1 124917.95 98468 508 508 0 0 1 125933.95 98468 M 128433.94 98468 A 508 508 0 0 1 127417.94 98468 508 508 0 0 1 128433.94 98468 M 130933.94 98468 A 508 508 0 0 1 129917.94 98468 508 508 0 0 1 130933.94 98468 M 130947.05 135345 A 508 508 0 0 1 129931.05 135345 508 508 0 0 1 130947.05 135345 M 125947.05 135345 A 508 508 0 0 1 124931.05 135345 508 508 0 0 1 125947.05 135345 M 130947.05 120845 A 508 508 0 0 1 129931.05 120845 508 508 0 0 1 130947.05 120845 M 128447.05 120845 A 508 508 0 0 1 127431.05 120845 508 508 0 0 1 128447.05 120845 M 125947.05 120845 A 508 508 0 0 1 124931.05 120845 508 508 0 0 1 125947.05 120845 M 20161.95 24366 A 508 508 0 0 1 19145.95 24366 508 508 0 0 1 20161.95 24366 M 17661.95 24366 A 508 508 0 0 1 16645.95 24366 508 508 0 0 1 17661.95 24366 M 15161.95 24366 A 508 508 0 0 1 14145.95 24366 508 508 0 0 1 15161.95 24366 M 20161.95 9866 A 508 508 0 0 1 19145.95 9866 508 508 0 0 1 20161.95 9866 M 15161.95 9866 A 508 508 0 0 1 14145.95 9866 508 508 0 0 1 15161.95 9866 M 57085.95 24366 A 508 508 0 0 1 56069.95 24366 508 508 0 0 1 57085.95 24366 M 54585.95 24366 A 508 508 0 0 1 53569.95 24366 508 508 0 0 1 54585.95 24366 M 52085.95 24366 A 508 508 0 0 1 51069.95 24366 508 508 0 0 1 52085.95 24366 M 57085.95 9866 A 508 508 0 0 1 56069.95 9866 508 508 0 0 1 57085.95 9866 M 52085.95 9866 A 508 508 0 0 1 51069.95 9866 508 508 0 0 1 52085.95 9866 M 94009.95 24366 A 508 508 0 0 1 92993.95 24366 508 508 0 0 1 94009.95 24366 M 91509.95 24366 A 508 508 0 0 1 90493.95 24366 508 508 0 0 1 91509.95 24366 M 89009.95 24366 A 508 508 0 0 1 87993.95 24366 508 508 0 0 1 89009.95 24366 M 94009.95 9866 A 508 508 0 0 1 92993.95 9866 508 508 0 0 1 94009.95 9866 M 89009.95 9866 A 508 508 0 0 1 87993.95 9866 508 508 0 0 1 89009.95 9866 M 130933.94 24366 A 508 508 0 0 1 129917.94 24366 508 508 0 0 1 130933.94 24366 M 128433.94 24366 A 508 508 0 0 1 127417.94 24366 508 508 0 0 1 128433.94 24366 M 125933.95 24366 A 508 508 0 0 1 124917.95 24366 508 508 0 0 1 125933.95 24366 M 130933.94 9866 A 508 508 0 0 1 129917.94 9866 508 508 0 0 1 130933.94 9866 M 125933.95 9866 A 508 508 0 0 1 124917.95 9866 508 508 0 0 1 125933.95 9866 M 15175.05 46743 A 508 508 0 0 1 14159.05 46743 508 508 0 0 1 15175.05 46743 M 17675.05 46743 A 508 508 0 0 1 16659.05 46743 508 508 0 0 1 17675.05 46743 M 20175.05 46743 A 508 508 0 0 1 19159.05 46743 508 508 0 0 1 20175.05 46743 M 15175.05 61243 A 508 508 0 0 1 14159.05 61243 508 508 0 0 1 15175.05 61243 M 20175.05 61243 A 508 508 0 0 1 19159.05 61243 508 508 0 0 1 20175.05 61243 M 52099.05 46743 A 508 508 0 0 1 51083.05 46743 508 508 0 0 1 52099.05 46743 M 54599.05 46743 A 508 508 0 0 1 53583.05 46743 508 508 0 0 1 54599.05 46743 M 57099.05 46743 A 508 508 0 0 1 56083.05 46743 508 508 0 0 1 57099.05 46743 M 52099.05 61243 A 508 508 0 0 1 51083.05 61243 508 508 0 0 1 52099.05 61243 M 57099.05 61243 A 508 508 0 0 1 56083.05 61243 508 508 0 0 1 57099.05 61243 M 89023.05 46743 A 508 508 0 0 1 88007.05 46743 508 508 0 0 1 89023.05 46743 M 91523.05 46743 A 508 508 0 0 1 90507.05 46743 508 508 0 0 1 91523.05 46743 M 94023.05 46743 A 508 508 0 0 1 93007.05 46743 508 508 0 0 1 94023.05 46743 M 89023.05 61243 A 508 508 0 0 1 88007.05 61243 508 508 0 0 1 89023.05 61243 M 94023.05 61243 A 508 508 0 0 1 93007.05 61243 508 508 0 0 1 94023.05 61243 M 2933 95250 A 508 508 0 0 1 1917 95250 508 508 0 0 1 2933 95250 M 2933 99750 A 508 508 0 0 1 1917 99750 508 508 0 0 1 2933 99750 M 143082.99 49750 A 508 508 0 0 1 142066.99 49750 508 508 0 0 1 143082.99 49750 M 143082.99 45250 A 508 508 0 0 1 142066.99 45250 508 508 0 0 1 143082.99 45250 M 2933 70250 A 508 508 0 0 1 1917 70250 508 508 0 0 1 2933 70250 M 2933 74750 A 508 508 0 0 1 1917 74750 508 508 0 0 1 2933 74750 M 143082.99 74750 A 508 508 0 0 1 142066.99 74750 508 508 0 0 1 143082.99 74750 M 143082.99 70250 A 508 508 0 0 1 142066.99 70250 508 508 0 0 1 143082.99 70250 M 143082.99 99750 A 508 508 0 0 1 142066.99 99750 508 508 0 0 1 143082.99 99750 M 143082.99 95250 A 508 508 0 0 1 142066.99 95250 508 508 0 0 1 143082.99 95250" fill="none" stroke-width="169.33"/></g></svg>