<svg version="1.1" xmlns="http://www.w3.org/2000/svg" xmlns:xlink="http://www.w3.org/1999/xlink" stroke-linecap="round" stroke-linejoin="round" stroke-width="0" fill-rule="evenodd" width="141.16401000000002mm" height="137.09101mm" viewBox="1942 6106 141164.01 137091.01"><defs><rect x="-500" y="-450" width="1000" height="900" id="UE3cXkRW36IQ_pad-10"/><g id="UE3cXkRW36IQ_pad-11"><polygon points="575.5,-275 575.5,275 -575.5,275 -575.5,-275"/><polygon points="625,-225.5 625,225.5 -625,225.5 -625,-225.5"/><circle cx="575.5" cy="225.5" r="49.5"/><circle cx="575.5" cy="-225.5" r="49.5"/><circle cx="-575.5" cy="-225.5" r="49.5"/><circle cx="-575.5" cy="225.5" r="49.5"/></g><rect x="-450" y="-400" width="900" height="800" id="UE3cXkRW36IQ_pad-12"/><rect x="-400" y="-450" width="800" height="900" id="UE3cXkRW36IQ_pad-13"/><rect x="-600" y="-500" width="1200" height="1000" id="UE3cXkRW36IQ_pad-14"/><rect x="-225" y="-450" width="450" height="900" id="UE3cXkRW36IQ_pad-15"/><rect x="-500" y="-600" width="1000" height="1200" id="UE3cXkRW36IQ_pad-16"/><rect x="-850" y="-1250" width="1700" height="2500" id="UE3cXkRW36IQ_pad-19"/><rect x="-450" y="-500" width="900" height="1000" id="UE3cXkRW36IQ_pad-20"/><rect x="-450" y="-225" width="900" height="450" id="UE3cXkRW36IQ_pad-21"/><rect x="-350" y="-825" width="700" height="1650" id="UE3cXkRW36IQ_pad-59"/><rect x="-300" y="-825" width="600" height="1650" id="UE3cXkRW36IQ_pad-60"/><rect x="-825" y="-350" width="1650" height="700" id="UE3cXkRW36IQ_pad-61"/><rect x="-825" y="-300" width="1650" height="600" id="UE3cXkRW36IQ_pad-62"/></defs><g transform="translate(0,149303.01) scale(1,-1)" fill="currentColor" stroke="currentColor"><use xlink:href="#UE3cXkRW36IQ_pad-10" x="119738" y="20722"/><use xlink:href="#UE3cXkRW36IQ_pad-10" x="119738" y="19372"/><use xlink:href="#UE3cXkRW36IQ_pad-10" x="135384.99" y="111925"/><use xlink:href="#UE3cXkRW36IQ_pad-10" x="135384.99" y="113275"/><use xlink:href="#UE3cXkRW36IQ_pad-10" x="26138" y="94045"/><use xlink:href="#UE3cXkRW36IQ_pad-10" x="26138" y="95395"/><use xlink:href="#UE3cXkRW36IQ_pad-10" x="62963" y="88764"/><use xlink:href="#UE3cXkRW36IQ_pad-10" x="62963" y="87414"/><use xlink:href="#UE3cXkRW36IQ_pad-10" x="30411" y="129940"/><use xlink:href="#UE3cXkRW36IQ_pad-10" x="30411" y="131289.99"/><use xlink:href="#UE3cXkRW36IQ_pad-10" x="63313" y="133935"/><use xlink:href="#UE3cXkRW36IQ_pad-10" x="63313" y="132585.01"/><use xlink:href="#UE3cXkRW36IQ_pad-10" x="23325" y="75661"/><use xlink:href="#UE3cXkRW36IQ_pad-10" x="23325" y="77011"/><use xlink:href="#UE3cXkRW36IQ_pad-10" x="81943" y="92724"/><use xlink:href="#UE3cXkRW36IQ_pad-10" x="81943" y="94074"/><use xlink:href="#UE3cXkRW36IQ_pad-10" x="80507" y="131151"/><use xlink:href="#UE3cXkRW36IQ_pad-10" x="80507" y="132501.01"/><use xlink:href="#UE3cXkRW36IQ_pad-10" x="118885" y="94106"/><use xlink:href="#UE3cXkRW36IQ_pad-10" x="118885" y="95456"/><use xlink:href="#UE3cXkRW36IQ_pad-10" x="80515" y="125680"/><use xlink:href="#UE3cXkRW36IQ_pad-10" x="80515" y="124330"/><use xlink:href="#UE3cXkRW36IQ_pad-10" x="25499" y="20186"/><use xlink:href="#UE3cXkRW36IQ_pad-10" x="25499" y="18836"/><use xlink:href="#UE3cXkRW36IQ_pad-10" x="62454" y="21497"/><use xlink:href="#UE3cXkRW36IQ_pad-10" x="62454" y="20147"/><use xlink:href="#UE3cXkRW36IQ_pad-10" x="82670" y="21750"/><use xlink:href="#UE3cXkRW36IQ_pad-10" x="82670" y="20400"/><use xlink:href="#UE3cXkRW36IQ_pad-10" x="25457" y="50858"/><use xlink:href="#UE3cXkRW36IQ_pad-10" x="25457" y="52208"/><use xlink:href="#UE3cXkRW36IQ_pad-10" x="62750" y="57220"/><use xlink:href="#UE3cXkRW36IQ_pad-10" x="62750" y="55870"/><use xlink:href="#UE3cXkRW36IQ_pad-10" x="82673" y="57020"/><use xlink:href="#UE3cXkRW36IQ_pad-10" x="82673" y="55670"/><use xlink:href="#UE3cXkRW36IQ_pad-10" x="119391" y="50706"/><use xlink:href="#UE3cXkRW36IQ_pad-10" x="119391" y="52056"/><use xlink:href="#UE3cXkRW36IQ_pad-10" x="8557" y="70700"/><use xlink:href="#UE3cXkRW36IQ_pad-10" x="8557" y="69350"/><use xlink:href="#UE3cXkRW36IQ_pad-11" x="133526.99" y="105738"/><use xlink:href="#UE3cXkRW36IQ_pad-11" x="133526.99" y="107008"/><use xlink:href="#UE3cXkRW36IQ_pad-11" x="133526.99" y="108278"/><use xlink:href="#UE3cXkRW36IQ_pad-11" x="133526.99" y="109548"/><use xlink:href="#UE3cXkRW36IQ_pad-11" x="133526.99" y="110818"/><use xlink:href="#UE3cXkRW36IQ_pad-11" x="133526.99" y="112088"/><use xlink:href="#UE3cXkRW36IQ_pad-11" x="133526.99" y="113358"/><use xlink:href="#UE3cXkRW36IQ_pad-11" x="128276.99" y="105738"/><use xlink:href="#UE3cXkRW36IQ_pad-11" x="128276.99" y="107008"/><use xlink:href="#UE3cXkRW36IQ_pad-11" x="128276.99" y="108278"/><use xlink:href="#UE3cXkRW36IQ_pad-11" x="128276.99" y="109548"/><use xlink:href="#UE3cXkRW36IQ_pad-11" x="128276.99" y="110818"/><use xlink:href="#UE3cXkRW36IQ_pad-11" x="128276.99" y="112088"/><use xlink:href="#UE3cXkRW36IQ_pad-11" x="128276.99" y="113358"/><use xlink:href="#UE3cXkRW36IQ_pad-12" x="135524.99" y="109563"/><use xlink:href="#UE3cXkRW36IQ_pad-12" x="137225.01" y="109563"/><use xlink:href="#UE3cXkRW36IQ_pad-12" x="135522" y="106522"/><use xlink:href="#UE3cXkRW36IQ_pad-12" x="137222" y="106522"/><use xlink:href="#UE3cXkRW36IQ_pad-12" x="126442" y="106987"/><use xlink:href="#UE3cXkRW36IQ_pad-12" x="124742" y="106987"/><use xlink:href="#UE3cXkRW36IQ_pad-13" x="132362" y="115366"/><use xlink:href="#UE3cXkRW36IQ_pad-13" x="132362" y="117066"/><use xlink:href="#UE3cXkRW36IQ_pad-13" x="113113" y="115826"/><use xlink:href="#UE3cXkRW36IQ_pad-13" x="113113" y="114126"/><use xlink:href="#UE3cXkRW36IQ_pad-13" x="111878" y="115824"/><use xlink:href="#UE3cXkRW36IQ_pad-13" x="111878" y="114124"/><use xlink:href="#UE3cXkRW36IQ_pad-14" x="137854" y="118194"/><use xlink:href="#UE3cXkRW36IQ_pad-14" x="137854" y="116194"/><use xlink:href="#UE3cXkRW36IQ_pad-15" x="36523.01" y="43604"/><use xlink:href="#UE3cXkRW36IQ_pad-15" x="37323" y="43604"/><use xlink:href="#UE3cXkRW36IQ_pad-15" x="34923.01" y="43604"/><use xlink:href="#UE3cXkRW36IQ_pad-15" x="35723.01" y="43604"/><use xlink:href="#UE3cXkRW36IQ_pad-15" x="35723.01" y="41904"/><use xlink:href="#UE3cXkRW36IQ_pad-15" x="34923.01" y="41904"/><use xlink:href="#UE3cXkRW36IQ_pad-15" x="37323" y="41904"/><use xlink:href="#UE3cXkRW36IQ_pad-15" x="36523.01" y="41904"/><use xlink:href="#UE3cXkRW36IQ_pad-15" x="72900" y="114150"/><use xlink:href="#UE3cXkRW36IQ_pad-15" x="73700" y="114150"/><use xlink:href="#UE3cXkRW36IQ_pad-15" x="71300.01" y="114150"/><use xlink:href="#UE3cXkRW36IQ_pad-15" x="72100.01" y="114150"/><use xlink:href="#UE3cXkRW36IQ_pad-15" x="72100.01" y="115850"/><use xlink:href="#UE3cXkRW36IQ_pad-15" x="71300.01" y="115850"/><use xlink:href="#UE3cXkRW36IQ_pad-15" x="73700" y="115850"/><use xlink:href="#UE3cXkRW36IQ_pad-15" x="72900" y="115850"/><use xlink:href="#UE3cXkRW36IQ_pad-15" x="109150.01" y="114150"/><use xlink:href="#UE3cXkRW36IQ_pad-15" x="109950" y="114150"/><use xlink:href="#UE3cXkRW36IQ_pad-15" x="107550.01" y="114150"/><use xlink:href="#UE3cXkRW36IQ_pad-15" x="108350.01" y="114150"/><use xlink:href="#UE3cXkRW36IQ_pad-15" x="108350.01" y="115850"/><use xlink:href="#UE3cXkRW36IQ_pad-15" x="107550.01" y="115850"/><use xlink:href="#UE3cXkRW36IQ_pad-15" x="109950" y="115850"/><use xlink:href="#UE3cXkRW36IQ_pad-15" x="109150.01" y="115850"/><use xlink:href="#UE3cXkRW36IQ_pad-15" x="36650.01" y="114150"/><use xlink:href="#UE3cXkRW36IQ_pad-15" x="37450" y="114150"/><use xlink:href="#UE3cXkRW36IQ_pad-15" x="35050.01" y="114150"/><use xlink:href="#UE3cXkRW36IQ_pad-15" x="35850.01" y="114150"/><use xlink:href="#UE3cXkRW36IQ_pad-15" x="35850.01" y="115850"/><use xlink:href="#UE3cXkRW36IQ_pad-15" x="35050.01" y="115850"/><use xlink:href="#UE3cXkRW36IQ_pad-15" x="37450" y="115850"/><use xlink:href="#UE3cXkRW36IQ_pad-15" x="36650.01" y="115850"/><use xlink:href="#UE3cXkRW36IQ_pad-15" x="72100" y="103350"/><use xlink:href="#UE3cXkRW36IQ_pad-15" x="71300" y="103350"/><use xlink:href="#UE3cXkRW36IQ_pad-15" x="73699.99" y="103350"/><use xlink:href="#UE3cXkRW36IQ_pad-15" x="72899.99" y="103350"/><use xlink:href="#UE3cXkRW36IQ_pad-15" x="72899.99" y="101650"/><use xlink:href="#UE3cXkRW36IQ_pad-15" x="73699.99" y="101650"/><use xlink:href="#UE3cXkRW36IQ_pad-15" x="71300" y="101650"/><use xlink:href="#UE3cXkRW36IQ_pad-15" x="72100" y="101650"/><use xlink:href="#UE3cXkRW36IQ_pad-15" x="108350" y="103350"/><use xlink:href="#UE3cXkRW36IQ_pad-15" x="107550" y="103350"/><use xlink:href="#UE3cXkRW36IQ_pad-15" x="109949.99" y="103350"/><use xlink:href="#UE3cXkRW36IQ_pad-15" x="109150" y="103350"/><use xlink:href="#UE3cXkRW36IQ_pad-15" x="109150" y="101650"/><use xlink:href="#UE3cXkRW36IQ_pad-15" x="109949.99" y="101650"/><use xlink:href="#UE3cXkRW36IQ_pad-15" x="107550" y="101650"/><use xlink:href="#UE3cXkRW36IQ_pad-15" x="108350" y="101650"/><use xlink:href="#UE3cXkRW36IQ_pad-15" x="35850" y="103350"/><use xlink:href="#UE3cXkRW36IQ_pad-15" x="35050" y="103350"/><use xlink:href="#UE3cXkRW36IQ_pad-15" x="37449.99" y="103350"/><use xlink:href="#UE3cXkRW36IQ_pad-15" x="36650" y="103350"/><use xlink:href="#UE3cXkRW36IQ_pad-15" x="36650" y="101650"/><use xlink:href="#UE3cXkRW36IQ_pad-15" x="37449.99" y="101650"/><use xlink:href="#UE3cXkRW36IQ_pad-15" x="35050" y="101650"/><use xlink:href="#UE3cXkRW36IQ_pad-15" x="35850" y="101650"/><use xlink:href="#UE3cXkRW36IQ_pad-15" x="71973" y="29404"/><use xlink:href="#UE3cXkRW36IQ_pad-15" x="71173" y="29404"/><use xlink:href="#UE3cXkRW36IQ_pad-15" x="73572.99" y="29404"/><use xlink:href="#UE3cXkRW36IQ_pad-15" x="72772.99" y="29404"/><use xlink:href="#UE3cXkRW36IQ_pad-15" x="72772.99" y="31104"/><use xlink:href="#UE3cXkRW36IQ_pad-15" x="73572.99" y="31104"/><use xlink:href="#UE3cXkRW36IQ_pad-15" x="71173" y="31104"/><use xlink:href="#UE3cXkRW36IQ_pad-15" x="71973" y="31104"/><use xlink:href="#UE3cXkRW36IQ_pad-15" x="108223" y="29404"/><use xlink:href="#UE3cXkRW36IQ_pad-15" x="107423" y="29404"/><use xlink:href="#UE3cXkRW36IQ_pad-15" x="109822.99" y="29404"/><use xlink:href="#UE3cXkRW36IQ_pad-15" x="109023" y="29404"/><use xlink:href="#UE3cXkRW36IQ_pad-15" x="109023" y="31104"/><use xlink:href="#UE3cXkRW36IQ_pad-15" x="109822.99" y="31104"/><use xlink:href="#UE3cXkRW36IQ_pad-15" x="107423" y="31104"/><use xlink:href="#UE3cXkRW36IQ_pad-15" x="108223" y="31104"/><use xlink:href="#UE3cXkRW36IQ_pad-15" x="35723" y="29404"/><use xlink:href="#UE3cXkRW36IQ_pad-15" x="34923" y="29404"/><use xlink:href="#UE3cXkRW36IQ_pad-15" x="37322.99" y="29404"/><use xlink:href="#UE3cXkRW36IQ_pad-15" x="36523" y="29404"/><use xlink:href="#UE3cXkRW36IQ_pad-15" x="36523" y="31104"/><use xlink:href="#UE3cXkRW36IQ_pad-15" x="37322.99" y="31104"/><use xlink:href="#UE3cXkRW36IQ_pad-15" x="34923" y="31104"/><use xlink:href="#UE3cXkRW36IQ_pad-15" x="35723" y="31104"/><use xlink:href="#UE3cXkRW36IQ_pad-15" x="72773" y="43604"/><use xlink:href="#UE3cXkRW36IQ_pad-15" x="73573" y="43604"/><use xlink:href="#UE3cXkRW36IQ_pad-15" x="71173.01" y="43604"/><use xlink:href="#UE3cXkRW36IQ_pad-15" x="71973.01" y="43604"/><use xlink:href="#UE3cXkRW36IQ_pad-15" x="71973.01" y="41904"/><use xlink:href="#UE3cXkRW36IQ_pad-15" x="71173.01" y="41904"/><use xlink:href="#UE3cXkRW36IQ_pad-15" x="73573" y="41904"/><use xlink:href="#UE3cXkRW36IQ_pad-15" x="72773" y="41904"/><use xlink:href="#UE3cXkRW36IQ_pad-15" x="109023.01" y="43604"/><use xlink:href="#UE3cXkRW36IQ_pad-15" x="109823" y="43604"/><use xlink:href="#UE3cXkRW36IQ_pad-15" x="107423.01" y="43604"/><use xlink:href="#UE3cXkRW36IQ_pad-15" x="108223.01" y="43604"/><use xlink:href="#UE3cXkRW36IQ_pad-15" x="108223.01" y="41904"/><use xlink:href="#UE3cXkRW36IQ_pad-15" x="107423.01" y="41904"/><use xlink:href="#UE3cXkRW36IQ_pad-15" x="109823" y="41904"/><use xlink:href="#UE3cXkRW36IQ_pad-15" x="109023.01" y="41904"/><use xlink:href="#UE3cXkRW36IQ_pad-16" x="116017.05" y="64403"/><use xlink:href="#UE3cXkRW36IQ_pad-16" x="118017.05" y="64403"/><use xlink:href="#UE3cXkRW36IQ_pad-16" x="27075.95" y="80808"/><use xlink:href="#UE3cXkRW36IQ_pad-16" x="29075.95" y="80808"/><use xlink:href="#UE3cXkRW36IQ_pad-16" x="44319" y="80814"/><use xlink:href="#UE3cXkRW36IQ_pad-16" x="42319" y="80814"/><use xlink:href="#UE3cXkRW36IQ_pad-16" x="27051" y="138419.01"/><use xlink:href="#UE3cXkRW36IQ_pad-16" x="29051" y="138419.01"/><use xlink:href="#UE3cXkRW36IQ_pad-16" x="44169.05" y="138505"/><use xlink:href="#UE3cXkRW36IQ_pad-16" x="42169.05" y="138505"/><use xlink:href="#UE3cXkRW36IQ_pad-16" x="100923.95" y="80808"/><use xlink:href="#UE3cXkRW36IQ_pad-16" x="102923.95" y="80808"/><use xlink:href="#UE3cXkRW36IQ_pad-16" x="81293" y="138750"/><use xlink:href="#UE3cXkRW36IQ_pad-16" x="79293" y="138750"/><use xlink:href="#UE3cXkRW36IQ_pad-16" x="118167" y="80814"/><use xlink:href="#UE3cXkRW36IQ_pad-16" x="116167" y="80814"/><use xlink:href="#UE3cXkRW36IQ_pad-16" x="29075.95" y="6706"/><use xlink:href="#UE3cXkRW36IQ_pad-16" x="27075.95" y="6706"/><use xlink:href="#UE3cXkRW36IQ_pad-16" x="42319" y="6712"/><use xlink:href="#UE3cXkRW36IQ_pad-16" x="44319" y="6712"/><use xlink:href="#UE3cXkRW36IQ_pad-16" x="102923.95" y="6706"/><use xlink:href="#UE3cXkRW36IQ_pad-16" x="100923.95" y="6706"/><use xlink:href="#UE3cXkRW36IQ_pad-16" x="116167" y="6712"/><use xlink:href="#UE3cXkRW36IQ_pad-16" x="118167" y="6712"/><use xlink:href="#UE3cXkRW36IQ_pad-16" x="29051" y="64317"/><use xlink:href="#UE3cXkRW36IQ_pad-16" x="27051" y="64317"/><use xlink:href="#UE3cXkRW36IQ_pad-16" x="42169.05" y="64403"/><use xlink:href="#UE3cXkRW36IQ_pad-16" x="44169.05" y="64403"/><use xlink:href="#UE3cXkRW36IQ_pad-16" x="102899" y="64317"/><use xlink:href="#UE3cXkRW36IQ_pad-16" x="100899" y="64317"/><use xlink:href="#UE3cXkRW36IQ_pad-19" x="120615" y="141947.01"/><use xlink:href="#UE3cXkRW36IQ_pad-19" x="120615" y="137947.01"/><use xlink:href="#UE3cXkRW36IQ_pad-20" x="2443" y="54826"/><use xlink:href="#UE3cXkRW36IQ_pad-20" x="3793" y="54826"/><use xlink:href="#UE3cXkRW36IQ_pad-20" x="19965" y="101498"/><use xlink:href="#UE3cXkRW36IQ_pad-20" x="18615" y="101498"/><use xlink:href="#UE3cXkRW36IQ_pad-20" x="56675" y="101533"/><use xlink:href="#UE3cXkRW36IQ_pad-20" x="55325" y="101533"/><use xlink:href="#UE3cXkRW36IQ_pad-20" x="14712" y="117831"/><use xlink:href="#UE3cXkRW36IQ_pad-20" x="16062" y="117831"/><use xlink:href="#UE3cXkRW36IQ_pad-20" x="51577" y="117831"/><use xlink:href="#UE3cXkRW36IQ_pad-20" x="52927" y="117831"/><use xlink:href="#UE3cXkRW36IQ_pad-20" x="16065.95" y="101509"/><use xlink:href="#UE3cXkRW36IQ_pad-20" x="14715.95" y="101509"/><use xlink:href="#UE3cXkRW36IQ_pad-20" x="52989.95" y="101509"/><use xlink:href="#UE3cXkRW36IQ_pad-20" x="51639.95" y="101509"/><use xlink:href="#UE3cXkRW36IQ_pad-20" x="18255.05" y="117804"/><use xlink:href="#UE3cXkRW36IQ_pad-20" x="19605.05" y="117804"/><use xlink:href="#UE3cXkRW36IQ_pad-20" x="55179.05" y="117804"/><use xlink:href="#UE3cXkRW36IQ_pad-20" x="56529.05" y="117804"/><use xlink:href="#UE3cXkRW36IQ_pad-20" x="92280" y="101586"/><use xlink:href="#UE3cXkRW36IQ_pad-20" x="93630" y="101586"/><use xlink:href="#UE3cXkRW36IQ_pad-20" x="89738.05" y="117804"/><use xlink:href="#UE3cXkRW36IQ_pad-20" x="88388.05" y="117804"/><use xlink:href="#UE3cXkRW36IQ_pad-20" x="129218" y="101498"/><use xlink:href="#UE3cXkRW36IQ_pad-20" x="130567.99" y="101498"/><use xlink:href="#UE3cXkRW36IQ_pad-20" x="126667" y="117809"/><use xlink:href="#UE3cXkRW36IQ_pad-20" x="125317" y="117809"/><use xlink:href="#UE3cXkRW36IQ_pad-20" x="89913.95" y="101509"/><use xlink:href="#UE3cXkRW36IQ_pad-20" x="88563.95" y="101509"/><use xlink:href="#UE3cXkRW36IQ_pad-20" x="92103.05" y="117804"/><use xlink:href="#UE3cXkRW36IQ_pad-20" x="93453.05" y="117804"/><use xlink:href="#UE3cXkRW36IQ_pad-20" x="126837.95" y="101509"/><use xlink:href="#UE3cXkRW36IQ_pad-20" x="125487.95" y="101509"/><use xlink:href="#UE3cXkRW36IQ_pad-20" x="129027.05" y="117804"/><use xlink:href="#UE3cXkRW36IQ_pad-20" x="130377.04" y="117804"/><use xlink:href="#UE3cXkRW36IQ_pad-20" x="75661" y="103425"/><use xlink:href="#UE3cXkRW36IQ_pad-20" x="77011" y="103425"/><use xlink:href="#UE3cXkRW36IQ_pad-20" x="111911" y="103425"/><use xlink:href="#UE3cXkRW36IQ_pad-20" x="113261" y="103425"/><use xlink:href="#UE3cXkRW36IQ_pad-20" x="39411" y="103425"/><use xlink:href="#UE3cXkRW36IQ_pad-20" x="40761" y="103425"/><use xlink:href="#UE3cXkRW36IQ_pad-20" x="19754" y="27447"/><use xlink:href="#UE3cXkRW36IQ_pad-20" x="18404" y="27447"/><use xlink:href="#UE3cXkRW36IQ_pad-20" x="56647" y="27456"/><use xlink:href="#UE3cXkRW36IQ_pad-20" x="55297" y="27456"/><use xlink:href="#UE3cXkRW36IQ_pad-20" x="93537" y="27439"/><use xlink:href="#UE3cXkRW36IQ_pad-20" x="92187" y="27439"/><use xlink:href="#UE3cXkRW36IQ_pad-20" x="130517" y="27421"/><use xlink:href="#UE3cXkRW36IQ_pad-20" x="129167.01" y="27421"/><use xlink:href="#UE3cXkRW36IQ_pad-20" x="14467" y="43704"/><use xlink:href="#UE3cXkRW36IQ_pad-20" x="15817" y="43704"/><use xlink:href="#UE3cXkRW36IQ_pad-20" x="51474" y="43744"/><use xlink:href="#UE3cXkRW36IQ_pad-20" x="52824" y="43744"/><use xlink:href="#UE3cXkRW36IQ_pad-20" x="88574" y="43706"/><use xlink:href="#UE3cXkRW36IQ_pad-20" x="89924" y="43706"/><use xlink:href="#UE3cXkRW36IQ_pad-20" x="125368" y="43744"/><use xlink:href="#UE3cXkRW36IQ_pad-20" x="126718" y="43744"/><use xlink:href="#UE3cXkRW36IQ_pad-20" x="14715.95" y="27407"/><use xlink:href="#UE3cXkRW36IQ_pad-20" x="16065.95" y="27407"/><use xlink:href="#UE3cXkRW36IQ_pad-20" x="51639.95" y="27407"/><use xlink:href="#UE3cXkRW36IQ_pad-20" x="52989.95" y="27407"/><use xlink:href="#UE3cXkRW36IQ_pad-20" x="88563.95" y="27407"/><use xlink:href="#UE3cXkRW36IQ_pad-20" x="89913.95" y="27407"/><use xlink:href="#UE3cXkRW36IQ_pad-20" x="125487.95" y="27407"/><use xlink:href="#UE3cXkRW36IQ_pad-20" x="126837.95" y="27407"/><use xlink:href="#UE3cXkRW36IQ_pad-20" x="19605.05" y="43702"/><use xlink:href="#UE3cXkRW36IQ_pad-20" x="18255.05" y="43702"/><use xlink:href="#UE3cXkRW36IQ_pad-20" x="56529.05" y="43702"/><use xlink:href="#UE3cXkRW36IQ_pad-20" x="55179.05" y="43702"/><use xlink:href="#UE3cXkRW36IQ_pad-20" x="93453.05" y="43702"/><use xlink:href="#UE3cXkRW36IQ_pad-20" x="92103.05" y="43702"/><use xlink:href="#UE3cXkRW36IQ_pad-20" x="130377.04" y="43702"/><use xlink:href="#UE3cXkRW36IQ_pad-20" x="129027.05" y="43702"/><use xlink:href="#UE3cXkRW36IQ_pad-20" x="67862" y="41829"/><use xlink:href="#UE3cXkRW36IQ_pad-20" x="69212" y="41829"/><use xlink:href="#UE3cXkRW36IQ_pad-20" x="104112" y="41829"/><use xlink:href="#UE3cXkRW36IQ_pad-20" x="105462" y="41829"/><use xlink:href="#UE3cXkRW36IQ_pad-20" x="31612" y="41829"/><use xlink:href="#UE3cXkRW36IQ_pad-20" x="32962" y="41829"/><use xlink:href="#UE3cXkRW36IQ_pad-20" x="2392" y="90589"/><use xlink:href="#UE3cXkRW36IQ_pad-20" x="3742" y="90589"/><use xlink:href="#UE3cXkRW36IQ_pad-20" x="142578" y="54177"/><use xlink:href="#UE3cXkRW36IQ_pad-20" x="141228" y="54177"/><use xlink:href="#UE3cXkRW36IQ_pad-20" x="142656.01" y="78182"/><use xlink:href="#UE3cXkRW36IQ_pad-20" x="141306" y="78182"/><use xlink:href="#UE3cXkRW36IQ_pad-20" x="142485.99" y="90103"/><use xlink:href="#UE3cXkRW36IQ_pad-20" x="141136" y="90103"/><use xlink:href="#UE3cXkRW36IQ_pad-21" x="12600" y="72900"/><use xlink:href="#UE3cXkRW36IQ_pad-21" x="12600" y="73700"/><use xlink:href="#UE3cXkRW36IQ_pad-21" x="12600" y="71300.01"/><use xlink:href="#UE3cXkRW36IQ_pad-21" x="12600" y="72100.01"/><use xlink:href="#UE3cXkRW36IQ_pad-21" x="10900" y="72100.01"/><use xlink:href="#UE3cXkRW36IQ_pad-21" x="10900" y="71300.01"/><use xlink:href="#UE3cXkRW36IQ_pad-21" x="10900" y="73700"/><use xlink:href="#UE3cXkRW36IQ_pad-21" x="10900" y="72900"/><use xlink:href="#UE3cXkRW36IQ_pad-21" x="23400" y="72100"/><use xlink:href="#UE3cXkRW36IQ_pad-21" x="23400" y="71300"/><use xlink:href="#UE3cXkRW36IQ_pad-21" x="23400" y="73699.99"/><use xlink:href="#UE3cXkRW36IQ_pad-21" x="23400" y="72899.99"/><use xlink:href="#UE3cXkRW36IQ_pad-21" x="25100" y="72899.99"/><use xlink:href="#UE3cXkRW36IQ_pad-21" x="25100" y="73699.99"/><use xlink:href="#UE3cXkRW36IQ_pad-21" x="25100" y="71300"/><use xlink:href="#UE3cXkRW36IQ_pad-21" x="25100" y="72100"/><use xlink:href="#UE3cXkRW36IQ_pad-59" x="40618" y="33679.01"/><use xlink:href="#UE3cXkRW36IQ_pad-59" x="31628" y="33679.01"/><use xlink:href="#UE3cXkRW36IQ_pad-59" x="40618" y="39329.01"/><use xlink:href="#UE3cXkRW36IQ_pad-59" x="31628" y="39329.01"/><use xlink:href="#UE3cXkRW36IQ_pad-59" x="76994.97" y="105925"/><use xlink:href="#UE3cXkRW36IQ_pad-59" x="68004.97" y="105925"/><use xlink:href="#UE3cXkRW36IQ_pad-59" x="76994.97" y="111575"/><use xlink:href="#UE3cXkRW36IQ_pad-59" x="68004.97" y="111575"/><use xlink:href="#UE3cXkRW36IQ_pad-59" x="113244.7" y="105924.96"/><use xlink:href="#UE3cXkRW36IQ_pad-59" x="104254.7" y="105924.96"/><use xlink:href="#UE3cXkRW36IQ_pad-59" x="113244.7" y="111574.96"/><use xlink:href="#UE3cXkRW36IQ_pad-59" x="104254.7" y="111574.96"/><use xlink:href="#UE3cXkRW36IQ_pad-59" x="40744.33" y="105924.84"/><use xlink:href="#UE3cXkRW36IQ_pad-59" x="31754.33" y="105924.84"/><use xlink:href="#UE3cXkRW36IQ_pad-59" x="40744.33" y="111574.84"/><use xlink:href="#UE3cXkRW36IQ_pad-59" x="31754.33" y="111574.84"/><use xlink:href="#UE3cXkRW36IQ_pad-59" x="76868.23" y="33678.95"/><use xlink:href="#UE3cXkRW36IQ_pad-59" x="67878.23" y="33678.95"/><use xlink:href="#UE3cXkRW36IQ_pad-59" x="76868.23" y="39328.95"/><use xlink:href="#UE3cXkRW36IQ_pad-59" x="67878.23" y="39328.95"/><use xlink:href="#UE3cXkRW36IQ_pad-59" x="113118.28" y="33679.06"/><use xlink:href="#UE3cXkRW36IQ_pad-59" x="104128.28" y="33679.06"/><use xlink:href="#UE3cXkRW36IQ_pad-59" x="113118.28" y="39329.06"/><use xlink:href="#UE3cXkRW36IQ_pad-59" x="104128.28" y="39329.06"/><use xlink:href="#UE3cXkRW36IQ_pad-60" x="39297.91" y="33679.48"/><use xlink:href="#UE3cXkRW36IQ_pad-60" x="38027.91" y="33679.48"/><use xlink:href="#UE3cXkRW36IQ_pad-60" x="36757.91" y="33679.48"/><use xlink:href="#UE3cXkRW36IQ_pad-60" x="35487.91" y="33679.48"/><use xlink:href="#UE3cXkRW36IQ_pad-60" x="34217.91" y="33679.48"/><use xlink:href="#UE3cXkRW36IQ_pad-60" x="32947.91" y="33679.48"/><use xlink:href="#UE3cXkRW36IQ_pad-60" x="39297.91" y="39329.48"/><use xlink:href="#UE3cXkRW36IQ_pad-60" x="38027.91" y="39329.48"/><use xlink:href="#UE3cXkRW36IQ_pad-60" x="36757.91" y="39329.48"/><use xlink:href="#UE3cXkRW36IQ_pad-60" x="35487.91" y="39329.48"/><use xlink:href="#UE3cXkRW36IQ_pad-60" x="34217.91" y="39329.48"/><use xlink:href="#UE3cXkRW36IQ_pad-60" x="32947.91" y="39329.48"/><use xlink:href="#UE3cXkRW36IQ_pad-60" x="75675.05" y="105924.67"/><use xlink:href="#UE3cXkRW36IQ_pad-60" x="74405.05" y="105924.67"/><use xlink:href="#UE3cXkRW36IQ_pad-60" x="73135.05" y="105924.67"/><use xlink:href="#UE3cXkRW36IQ_pad-60" x="71865.05" y="105924.67"/><use xlink:href="#UE3cXkRW36IQ_pad-60" x="70595.05" y="105924.67"/><use xlink:href="#UE3cXkRW36IQ_pad-60" x="69325.05" y="105924.67"/><use xlink:href="#UE3cXkRW36IQ_pad-60" x="75675.05" y="111574.67"/><use xlink:href="#UE3cXkRW36IQ_pad-60" x="74405.05" y="111574.67"/><use xlink:href="#UE3cXkRW36IQ_pad-60" x="73135.05" y="111574.67"/><use xlink:href="#UE3cXkRW36IQ_pad-60" x="71865.05" y="111574.67"/><use xlink:href="#UE3cXkRW36IQ_pad-60" x="70595.05" y="111574.67"/><use xlink:href="#UE3cXkRW36IQ_pad-60" x="69325.05" y="111574.67"/><use xlink:href="#UE3cXkRW36IQ_pad-60" x="111924.99" y="105924.86"/><use xlink:href="#UE3cXkRW36IQ_pad-60" x="110654.99" y="105924.86"/><use xlink:href="#UE3cXkRW36IQ_pad-60" x="109384.99" y="105924.86"/><use xlink:href="#UE3cXkRW36IQ_pad-60" x="108114.99" y="105924.86"/><use xlink:href="#UE3cXkRW36IQ_pad-60" x="106844.99" y="105924.86"/><use xlink:href="#UE3cXkRW36IQ_pad-60" x="105574.99" y="105924.86"/><use xlink:href="#UE3cXkRW36IQ_pad-60" x="111924.99" y="111574.86"/><use xlink:href="#UE3cXkRW36IQ_pad-60" x="110654.99" y="111574.86"/><use xlink:href="#UE3cXkRW36IQ_pad-60" x="109384.99" y="111574.86"/><use xlink:href="#UE3cXkRW36IQ_pad-60" x="108114.99" y="111574.86"/><use xlink:href="#UE3cXkRW36IQ_pad-60" x="106844.99" y="111574.86"/><use xlink:href="#UE3cXkRW36IQ_pad-60" x="105574.99" y="111574.86"/><use xlink:href="#UE3cXkRW36IQ_pad-60" x="39425" y="105925.02"/><use xlink:href="#UE3cXkRW36IQ_pad-60" x="38155" y="105925.02"/><use xlink:href="#UE3cXkRW36IQ_pad-60" x="36885" y="105925.02"/><use xlink:href="#UE3cXkRW36IQ_pad-60" x="35615" y="105925.02"/><use xlink:href="#UE3cXkRW36IQ_pad-60" x="34345" y="105925.02"/><use xlink:href="#UE3cXkRW36IQ_pad-60" x="33075" y="105925.02"/><use xlink:href="#UE3cXkRW36IQ_pad-60" x="39425" y="111575.02"/><use xlink:href="#UE3cXkRW36IQ_pad-60" x="38155" y="111575.02"/><use xlink:href="#UE3cXkRW36IQ_pad-60" x="36885" y="111575.02"/><use xlink:href="#UE3cXkRW36IQ_pad-60" x="35615" y="111575.02"/><use xlink:href="#UE3cXkRW36IQ_pad-60" x="34345" y="111575.02"/><use xlink:href="#UE3cXkRW36IQ_pad-60" x="33075" y="111575.02"/><use xlink:href="#UE3cXkRW36IQ_pad-60" x="75547.96" y="33679"/><use xlink:href="#UE3cXkRW36IQ_pad-60" x="74277.96" y="33679"/><use xlink:href="#UE3cXkRW36IQ_pad-60" x="73007.96" y="33679"/><use xlink:href="#UE3cXkRW36IQ_pad-60" x="71737.96" y="33679"/><use xlink:href="#UE3cXkRW36IQ_pad-60" x="70467.96" y="33679"/><use xlink:href="#UE3cXkRW36IQ_pad-60" x="69197.96" y="33679"/><use xlink:href="#UE3cXkRW36IQ_pad-60" x="75547.96" y="39329"/><use xlink:href="#UE3cXkRW36IQ_pad-60" x="74277.96" y="39329"/><use xlink:href="#UE3cXkRW36IQ_pad-60" x="73007.96" y="39329"/><use xlink:href="#UE3cXkRW36IQ_pad-60" x="71737.96" y="39329"/><use xlink:href="#UE3cXkRW36IQ_pad-60" x="70467.96" y="39329"/><use xlink:href="#UE3cXkRW36IQ_pad-60" x="69197.96" y="39329"/><use xlink:href="#UE3cXkRW36IQ_pad-60" x="111798.03" y="33679"/><use xlink:href="#UE3cXkRW36IQ_pad-60" x="110528.03" y="33679"/><use xlink:href="#UE3cXkRW36IQ_pad-60" x="109258.03" y="33679"/><use xlink:href="#UE3cXkRW36IQ_pad-60" x="107988.03" y="33679"/><use xlink:href="#UE3cXkRW36IQ_pad-60" x="106718.03" y="33679"/><use xlink:href="#UE3cXkRW36IQ_pad-60" x="105448.03" y="33679"/><use xlink:href="#UE3cXkRW36IQ_pad-60" x="111798.03" y="39329"/><use xlink:href="#UE3cXkRW36IQ_pad-60" x="110528.03" y="39329"/><use xlink:href="#UE3cXkRW36IQ_pad-60" x="109258.03" y="39329"/><use xlink:href="#UE3cXkRW36IQ_pad-60" x="107988.03" y="39329"/><use xlink:href="#UE3cXkRW36IQ_pad-60" x="106718.03" y="39329"/><use xlink:href="#UE3cXkRW36IQ_pad-60" x="105448.03" y="39329"/><use xlink:href="#UE3cXkRW36IQ_pad-61" x="20824.85" y="76995.24"/><use xlink:href="#UE3cXkRW36IQ_pad-61" x="20824.88" y="68005.3"/><use xlink:href="#UE3cXkRW36IQ_pad-61" x="15175.19" y="76994.8"/><use xlink:href="#UE3cXkRW36IQ_pad-61" x="15175.19" y="68004.8"/><use xlink:href="#UE3cXkRW36IQ_pad-62" x="20825.84" y="75675.18"/><use xlink:href="#UE3cXkRW36IQ_pad-62" x="20825.84" y="74405.18"/><use xlink:href="#UE3cXkRW36IQ_pad-62" x="20825.83" y="73135.18"/><use xlink:href="#UE3cXkRW36IQ_pad-62" x="20825.83" y="71865.19"/><use xlink:href="#UE3cXkRW36IQ_pad-62" x="20825.8" y="70595.21"/><use xlink:href="#UE3cXkRW36IQ_pad-62" x="20825.8" y="69325.22"/><use xlink:href="#UE3cXkRW36IQ_pad-62" x="15175.88" y="75675.14"/><use xlink:href="#UE3cXkRW36IQ_pad-62" x="15175.88" y="74405.14"/><use xlink:href="#UE3cXkRW36IQ_pad-62" x="15174.53" y="73135.07"/><use xlink:href="#UE3cXkRW36IQ_pad-62" x="15174.52" y="71865.08"/><use xlink:href="#UE3cXkRW36IQ_pad-62" x="15174.52" y="70595.08"/><use xlink:href="#UE3cXkRW36IQ_pad-62" x="15175.84" y="69325.18"/></g></svg>