%TF.GenerationSoftware,Altium Limited,Altium Designer,22.1.2 (22)*%
G04 Layer_Color=65535*
%FSLAX45Y45*%
%MOMM*%
%TF.SameCoordinates,073EAA7F-B3E9-4302-98AB-51A492F3094A*%
%TF.FilePolarity,Positive*%
%TF.FileFunction,Legend,Top*%
%TF.Part,Single*%
G01*
G75*
%TA.AperFunction,NonConductor*%
%ADD40C,0.60000*%
%ADD41C,0.25000*%
%ADD42C,0.50000*%
%ADD43C,0.15000*%
%ADD44C,0.20000*%
%ADD45C,0.25400*%
D40*
X13060201Y11294800D02*
G03*
X13060201Y11294800I-30000J0D01*
G01*
D41*
X12840199Y11418300D02*
G03*
X12840199Y11418300I-12500J0D01*
G01*
X3180300Y3222900D02*
G03*
X3180300Y3222900I-12500J0D01*
G01*
X12556405Y4541800D02*
G03*
X12556405Y4541800I-12500J0D01*
G01*
X1977895Y9979300D02*
G03*
X1977895Y9979300I-12500J0D01*
G01*
X5670295D02*
G03*
X5670295Y9979300I-12500J0D01*
G01*
X1479205Y11952000D02*
G03*
X1479205Y11952000I-12500J0D01*
G01*
X5171605D02*
G03*
X5171605Y11952000I-12500J0D01*
G01*
X1385000Y7694500D02*
G03*
X1385000Y7694500I-12500J0D01*
G01*
X9362695Y9979300D02*
G03*
X9362695Y9979300I-12500J0D01*
G01*
X8864005Y11952000D02*
G03*
X8864005Y11952000I-12500J0D01*
G01*
X13055095Y9979300D02*
G03*
X13055095Y9979300I-12500J0D01*
G01*
X12556405Y11952000D02*
G03*
X12556405Y11952000I-12500J0D01*
G01*
X7707000Y11302500D02*
G03*
X7707000Y11302500I-12500J0D01*
G01*
X11332000D02*
G03*
X11332000Y11302500I-12500J0D01*
G01*
X4082000D02*
G03*
X4082000Y11302500I-12500J0D01*
G01*
X1977895Y2569100D02*
G03*
X1977895Y2569100I-12500J0D01*
G01*
X5670295D02*
G03*
X5670295Y2569100I-12500J0D01*
G01*
X9362695D02*
G03*
X9362695Y2569100I-12500J0D01*
G01*
X13055095D02*
G03*
X13055095Y2569100I-12500J0D01*
G01*
X1479205Y4541800D02*
G03*
X1479205Y4541800I-12500J0D01*
G01*
X5171605D02*
G03*
X5171605Y4541800I-12500J0D01*
G01*
X8864005D02*
G03*
X8864005Y4541800I-12500J0D01*
G01*
X6805300Y3222900D02*
G03*
X6805300Y3222900I-12500J0D01*
G01*
X10430300D02*
G03*
X10430300Y3222900I-12500J0D01*
G01*
D42*
X3212300Y3567900D02*
G03*
X3212300Y3567900I-25000J0D01*
G01*
X1742500Y7675000D02*
G03*
X1742500Y7675000I-25000J0D01*
G01*
X7700000Y10957500D02*
G03*
X7700000Y10957500I-25000J0D01*
G01*
X11325000D02*
G03*
X11325000Y10957500I-25000J0D01*
G01*
X4075000D02*
G03*
X4075000Y10957500I-25000J0D01*
G01*
X6837300Y3567900D02*
G03*
X6837300Y3567900I-25000J0D01*
G01*
X10462300D02*
G03*
X10462300Y3567900I-25000J0D01*
G01*
D43*
X11903800Y2004700D02*
X12043800D01*
X11903800Y1864700D02*
X11933800D01*
X11903800D02*
Y2144700D01*
X11933800D01*
X12013800D02*
X12043800D01*
Y1864700D02*
Y2144700D01*
X12013800Y1864700D02*
X12043800D01*
X13487500Y10997100D02*
Y11016300D01*
X13787500D01*
Y10997100D02*
Y11016300D01*
Y10896300D02*
Y10915500D01*
X13487500Y10896300D02*
Y10915500D01*
Y10896300D02*
X13787500D01*
X13637500D02*
Y11016300D01*
X13487199Y10693000D02*
Y10712200D01*
X13787199D01*
Y10693000D02*
Y10712200D01*
Y10592200D02*
Y10611400D01*
X13487199Y10592200D02*
Y10611400D01*
Y10592200D02*
X13787199D01*
X13637199D02*
Y10712200D01*
X13578500Y11120000D02*
X13608501D01*
Y11400000D01*
X13578500D02*
X13608501D01*
X13468500D02*
X13498500D01*
X13468500Y11120000D02*
Y11400000D01*
Y11120000D02*
X13498500D01*
X13468500Y11260000D02*
X13608501D01*
X13176199Y11471600D02*
X13195399D01*
X13176199D02*
Y11771600D01*
X13195399D01*
X13277000D02*
X13296201D01*
X13277000Y11471600D02*
X13296201D01*
Y11771600D01*
X13176199Y11621600D02*
X13296201D01*
X12709200Y10638700D02*
Y10657900D01*
X12409200Y10638700D02*
X12709200D01*
X12409200D02*
Y10657900D01*
Y10739500D02*
Y10758700D01*
X12709200Y10739500D02*
Y10758700D01*
X12409200D02*
X12709200D01*
X12559200Y10638700D02*
Y10758700D01*
X311800Y5412600D02*
Y5552600D01*
X451800Y5412600D02*
Y5442600D01*
X171800Y5412600D02*
X451800D01*
X171800D02*
Y5442600D01*
Y5522600D02*
Y5552600D01*
X451800D01*
Y5522600D02*
Y5552600D01*
X1929000Y10079800D02*
Y10219800D01*
X1789000Y10189800D02*
Y10219800D01*
X2069000D01*
Y10189800D02*
Y10219800D01*
Y10079800D02*
Y10109800D01*
X1789000Y10079800D02*
X2069000D01*
X1789000D02*
Y10109800D01*
X5600000Y10083300D02*
Y10223300D01*
X5460000Y10193300D02*
Y10223300D01*
X5740000D01*
Y10193300D02*
Y10223300D01*
Y10083300D02*
Y10113300D01*
X5460000Y10083300D02*
X5740000D01*
X5460000D02*
Y10113300D01*
X1538700Y11713100D02*
Y11853100D01*
X1678700Y11713100D02*
Y11743100D01*
X1398700Y11713100D02*
X1678700D01*
X1398700D02*
Y11743100D01*
Y11823100D02*
Y11853100D01*
X1678700D01*
Y11823100D02*
Y11853100D01*
X5225200Y11713100D02*
Y11853100D01*
X5365200Y11713100D02*
Y11743100D01*
X5085200Y11713100D02*
X5365200D01*
X5085200D02*
Y11743100D01*
Y11823100D02*
Y11853100D01*
X5365200D01*
Y11823100D02*
Y11853100D01*
X2653800Y9332000D02*
X2683800D01*
Y9612000D01*
X2653800D02*
X2683800D01*
X2543800D02*
X2573800D01*
X2543800Y9332000D02*
Y9612000D01*
Y9332000D02*
X2573800D01*
X2543800Y9472000D02*
X2683800D01*
X6226300Y8948900D02*
X6256300D01*
X6226300Y8668900D02*
Y8948900D01*
Y8668900D02*
X6256300D01*
X6336300D02*
X6366300D01*
Y8948900D01*
X6336300D02*
X6366300D01*
X6226300Y8808900D02*
X6366300D01*
X3081100Y12921500D02*
X3111100D01*
Y13201500D01*
X3081100D02*
X3111100D01*
X2971100D02*
X3001100D01*
X2971100Y12921500D02*
Y13201500D01*
Y12921500D02*
X3001100D01*
X2971100Y13061501D02*
X3111100D01*
X6261300Y13466000D02*
X6291300D01*
X6261300Y13186000D02*
Y13466000D01*
Y13186000D02*
X6291300D01*
X6371300D02*
X6401300D01*
Y13466000D01*
X6371300D02*
X6401300D01*
X6261300Y13325999D02*
X6401300D01*
X1679095Y10190900D02*
Y10220900D01*
X1399095D02*
X1679095D01*
X1399095Y10190900D02*
Y10220900D01*
Y10080900D02*
Y10110900D01*
Y10080900D02*
X1679095D01*
Y10110900D01*
X1539095Y10080900D02*
Y10220900D01*
X5371495Y10190900D02*
Y10220900D01*
X5091495D02*
X5371495D01*
X5091495Y10190900D02*
Y10220900D01*
Y10080900D02*
Y10110900D01*
Y10080900D02*
X5371495D01*
Y10110900D01*
X5231495Y10080900D02*
Y10220900D01*
X1753005Y11710400D02*
Y11740400D01*
Y11710400D02*
X2033005D01*
Y11740400D01*
Y11820400D02*
Y11850400D01*
X1753005D02*
X2033005D01*
X1753005Y11820400D02*
Y11850400D01*
X1893005Y11710400D02*
Y11850400D01*
X5445405Y11710400D02*
Y11740400D01*
Y11710400D02*
X5725405D01*
Y11740400D01*
Y11820400D02*
Y11850400D01*
X5445405D02*
X5725405D01*
X5445405Y11820400D02*
Y11850400D01*
X5585405Y11710400D02*
Y11850400D01*
X2372500Y7493600D02*
X2402500D01*
Y7773600D01*
X2372500D02*
X2402500D01*
X2262500D02*
X2292500D01*
X2262500Y7493600D02*
Y7773600D01*
Y7493600D02*
X2292500D01*
X2262500Y7633600D02*
X2402500D01*
X11352100Y11647600D02*
X11371300D01*
Y11347600D02*
Y11647600D01*
X11352100Y11347600D02*
X11371300D01*
X11251300D02*
X11270500D01*
X11251300Y11647600D02*
X11270500D01*
X11251300Y11347600D02*
Y11647600D01*
Y11497600D02*
X11371300D01*
X11228600Y11647400D02*
X11247800D01*
Y11347400D02*
Y11647400D01*
X11228600Y11347400D02*
X11247800D01*
X11127800D02*
X11147000D01*
X11127800Y11647400D02*
X11147000D01*
X11127800Y11347400D02*
Y11647400D01*
Y11497400D02*
X11247800D01*
X9155500Y10088600D02*
Y10118600D01*
Y10088600D02*
X9435500D01*
Y10118600D01*
Y10198600D02*
Y10228600D01*
X9155500D02*
X9435500D01*
X9155500Y10198600D02*
Y10228600D01*
X9295500Y10088600D02*
Y10228600D01*
X9046305Y11820400D02*
Y11850400D01*
X8766305D02*
X9046305D01*
X8766305Y11820400D02*
Y11850400D01*
Y11710400D02*
Y11740400D01*
Y11710400D02*
X9046305D01*
Y11740400D01*
X8906305Y11710400D02*
Y11850400D01*
X12849300Y10079800D02*
Y10109800D01*
Y10079800D02*
X13129300D01*
Y10109800D01*
Y10189800D02*
Y10219800D01*
X12849300D02*
X13129300D01*
X12849300Y10189800D02*
Y10219800D01*
X12989301Y10079800D02*
Y10219800D01*
X12739200Y11820900D02*
Y11850900D01*
X12459200D02*
X12739200D01*
X12459200Y11820900D02*
Y11850900D01*
Y11710900D02*
Y11740900D01*
Y11710900D02*
X12739200D01*
Y11740900D01*
X12599200Y11710900D02*
Y11850900D01*
X8234300Y9199900D02*
X8264300D01*
Y9479900D01*
X8234300D02*
X8264300D01*
X8124300D02*
X8154300D01*
X8124300Y9199900D02*
Y9479900D01*
Y9199900D02*
X8154300D01*
X8124300Y9339900D02*
X8264300D01*
X8090700Y13042599D02*
X8120700D01*
Y13322600D01*
X8090700D02*
X8120700D01*
X7980700D02*
X8010700D01*
X7980700Y13042599D02*
Y13322600D01*
Y13042599D02*
X8010700D01*
X7980700Y13182600D02*
X8120700D01*
X11928500Y9338100D02*
X11958500D01*
Y9618100D01*
X11928500D02*
X11958500D01*
X11818500D02*
X11848500D01*
X11818500Y9338100D02*
Y9618100D01*
Y9338100D02*
X11848500D01*
X11818500Y9478100D02*
X11958500D01*
X7981500Y12640500D02*
X8011500D01*
X7981500Y12360500D02*
Y12640500D01*
Y12360500D02*
X8011500D01*
X8091500D02*
X8121500D01*
Y12640500D01*
X8091500D02*
X8121500D01*
X7981500Y12500500D02*
X8121500D01*
X9063895Y10190900D02*
Y10220900D01*
X8783895D02*
X9063895D01*
X8783895Y10190900D02*
Y10220900D01*
Y10080900D02*
Y10110900D01*
Y10080900D02*
X9063895D01*
Y10110900D01*
X8923895Y10080900D02*
Y10220900D01*
X9137805Y11710400D02*
Y11740400D01*
Y11710400D02*
X9417805D01*
Y11740400D01*
Y11820400D02*
Y11850400D01*
X9137805D02*
X9417805D01*
X9137805Y11820400D02*
Y11850400D01*
X9277805Y11710400D02*
Y11850400D01*
X12756295Y10190900D02*
Y10220900D01*
X12476295D02*
X12756295D01*
X12476295Y10190900D02*
Y10220900D01*
Y10080900D02*
Y10110900D01*
Y10080900D02*
X12756295D01*
Y10110900D01*
X12616295Y10080900D02*
Y10220900D01*
X12830205Y11710400D02*
Y11740400D01*
Y11710400D02*
X13110205D01*
Y11740400D01*
Y11820400D02*
Y11850400D01*
X12830205D02*
X13110205D01*
X12830205Y11820400D02*
Y11850400D01*
X12970206Y11710400D02*
Y11850400D01*
X7493600Y10272500D02*
Y10302500D01*
Y10272500D02*
X7773600D01*
Y10302500D01*
Y10382500D02*
Y10412500D01*
X7493600D02*
X7773600D01*
X7493600Y10382500D02*
Y10412500D01*
X7633600Y10272500D02*
Y10412500D01*
X11118600Y10272500D02*
Y10302500D01*
Y10272500D02*
X11398600D01*
Y10302500D01*
Y10382500D02*
Y10412500D01*
X11118600D02*
X11398600D01*
X11118600Y10382500D02*
Y10412500D01*
X11258600Y10272500D02*
Y10412500D01*
X3868600Y10272500D02*
Y10302500D01*
Y10272500D02*
X4148600D01*
Y10302500D01*
Y10382500D02*
Y10412500D01*
X3868600D02*
X4148600D01*
X3868600Y10382500D02*
Y10412500D01*
X4008600Y10272500D02*
Y10412500D01*
X1907900Y2674700D02*
Y2814700D01*
X1767900Y2784700D02*
Y2814700D01*
X2047900D01*
Y2784700D02*
Y2814700D01*
Y2674700D02*
Y2704700D01*
X1767900Y2674700D02*
X2047900D01*
X1767900D02*
Y2704700D01*
X5597200Y2675600D02*
Y2815600D01*
X5457200Y2785600D02*
Y2815600D01*
X5737200D01*
Y2785600D02*
Y2815600D01*
Y2675600D02*
Y2705600D01*
X5457200Y2675600D02*
X5737200D01*
X5457200D02*
Y2705600D01*
X9286200Y2673900D02*
Y2813900D01*
X9146200Y2783900D02*
Y2813900D01*
X9426200D01*
Y2783900D02*
Y2813900D01*
Y2673900D02*
Y2703900D01*
X9146200Y2673900D02*
X9426200D01*
X9146200D02*
Y2703900D01*
X12984200Y2672100D02*
Y2812100D01*
X12844200Y2782100D02*
Y2812100D01*
X13124200D01*
Y2782100D02*
Y2812100D01*
Y2672100D02*
Y2702100D01*
X12844200Y2672100D02*
X13124200D01*
X12844200D02*
Y2702100D01*
X1514200Y4300400D02*
Y4440400D01*
X1654200Y4300400D02*
Y4330400D01*
X1374200Y4300400D02*
X1654200D01*
X1374200D02*
Y4330400D01*
Y4410400D02*
Y4440400D01*
X1654200D01*
Y4410400D02*
Y4440400D01*
X5214900Y4304400D02*
Y4444400D01*
X5354900Y4304400D02*
Y4334400D01*
X5074900Y4304400D02*
X5354900D01*
X5074900D02*
Y4334400D01*
Y4414400D02*
Y4444400D01*
X5354900D01*
Y4414400D02*
Y4444400D01*
X8924900Y4300600D02*
Y4440600D01*
X9064900Y4300600D02*
Y4330600D01*
X8784900Y4300600D02*
X9064900D01*
X8784900D02*
Y4330600D01*
Y4410600D02*
Y4440600D01*
X9064900D01*
Y4410600D02*
Y4440600D01*
X12604300Y4304400D02*
Y4444400D01*
X12744300Y4304400D02*
Y4334400D01*
X12464300Y4304400D02*
X12744300D01*
X12464300D02*
Y4334400D01*
Y4414400D02*
Y4444400D01*
X12744300D01*
Y4414400D02*
Y4444400D01*
X2479900Y1951100D02*
X2619900D01*
X2479900Y1811100D02*
X2509900D01*
X2479900D02*
Y2091100D01*
X2509900D01*
X2589900D02*
X2619900D01*
Y1811100D02*
Y2091100D01*
X2589900Y1811100D02*
X2619900D01*
X6175400Y2082200D02*
X6315400D01*
X6175400Y1942200D02*
X6205400D01*
X6175400D02*
Y2222200D01*
X6205400D01*
X6285400D02*
X6315400D01*
Y1942200D02*
Y2222200D01*
X6285400Y1942200D02*
X6315400D01*
X8197000Y2107500D02*
X8337000D01*
X8197000Y1967500D02*
X8227000D01*
X8197000D02*
Y2247500D01*
X8227000D01*
X8307000D02*
X8337000D01*
Y1967500D02*
Y2247500D01*
X8307000Y1967500D02*
X8337000D01*
X2475700Y5153300D02*
X2615700D01*
X2585700Y5293300D02*
X2615700D01*
Y5013300D02*
Y5293300D01*
X2585700Y5013300D02*
X2615700D01*
X2475700D02*
X2505700D01*
X2475700D02*
Y5293300D01*
X2505700D01*
X6205000Y5654500D02*
X6345000D01*
X6205000Y5514500D02*
X6235000D01*
X6205000D02*
Y5794500D01*
X6235000D01*
X6315000D02*
X6345000D01*
Y5514500D02*
Y5794500D01*
X6315000Y5514500D02*
X6345000D01*
X8197300Y5634500D02*
X8337300D01*
X8197300Y5494500D02*
X8227300D01*
X8197300D02*
Y5774500D01*
X8227300D01*
X8307300D02*
X8337300D01*
Y5494500D02*
Y5774500D01*
X8307300Y5494500D02*
X8337300D01*
X11869100Y5138100D02*
X12009100D01*
X11979100Y5278100D02*
X12009100D01*
Y4998100D02*
Y5278100D01*
X11979100Y4998100D02*
X12009100D01*
X11869100D02*
X11899100D01*
X11869100D02*
Y5278100D01*
X11899100D01*
X1539095Y2670700D02*
Y2810700D01*
X1679095Y2670700D02*
Y2700700D01*
X1399095Y2670700D02*
X1679095D01*
X1399095D02*
Y2700700D01*
Y2780700D02*
Y2810700D01*
X1679095D01*
Y2780700D02*
Y2810700D01*
X5231495Y2670700D02*
Y2810700D01*
X5371495Y2670700D02*
Y2700700D01*
X5091495Y2670700D02*
X5371495D01*
X5091495D02*
Y2700700D01*
Y2780700D02*
Y2810700D01*
X5371495D01*
Y2780700D02*
Y2810700D01*
X8923895Y2670700D02*
Y2810700D01*
X9063895Y2670700D02*
Y2700700D01*
X8783895Y2670700D02*
X9063895D01*
X8783895D02*
Y2700700D01*
Y2780700D02*
Y2810700D01*
X9063895D01*
Y2780700D02*
Y2810700D01*
X12616295Y2670700D02*
Y2810700D01*
X12756295Y2670700D02*
Y2700700D01*
X12476295Y2670700D02*
X12756295D01*
X12476295D02*
Y2700700D01*
Y2780700D02*
Y2810700D01*
X12756295D01*
Y2780700D02*
Y2810700D01*
X1893005Y4300200D02*
Y4440200D01*
X1753005Y4410200D02*
Y4440200D01*
X2033005D01*
Y4410200D02*
Y4440200D01*
Y4300200D02*
Y4330200D01*
X1753005Y4300200D02*
X2033005D01*
X1753005D02*
Y4330200D01*
X5585405Y4300200D02*
Y4440200D01*
X5445405Y4410200D02*
Y4440200D01*
X5725405D01*
Y4410200D02*
Y4440200D01*
Y4300200D02*
Y4330200D01*
X5445405Y4300200D02*
X5725405D01*
X5445405D02*
Y4330200D01*
X9277805Y4300200D02*
Y4440200D01*
X9137805Y4410200D02*
Y4440200D01*
X9417805D01*
Y4410200D02*
Y4440200D01*
Y4300200D02*
Y4330200D01*
X9137805Y4300200D02*
X9417805D01*
X9137805D02*
Y4330200D01*
X12970206Y4300200D02*
Y4440200D01*
X12830205Y4410200D02*
Y4440200D01*
X13110205D01*
Y4410200D02*
Y4440200D01*
Y4300200D02*
Y4330200D01*
X12830205Y4300200D02*
X13110205D01*
X12830205D02*
Y4330200D01*
X6853700Y4112900D02*
Y4252900D01*
X6993700Y4112900D02*
Y4142900D01*
X6713700Y4112900D02*
X6993700D01*
X6713700D02*
Y4142900D01*
Y4222900D02*
Y4252900D01*
X6993700D01*
Y4222900D02*
Y4252900D01*
X10478700Y4112900D02*
Y4252900D01*
X10618700Y4112900D02*
Y4142900D01*
X10338700Y4112900D02*
X10618700D01*
X10338700D02*
Y4142900D01*
Y4222900D02*
Y4252900D01*
X10618700D01*
Y4222900D02*
Y4252900D01*
X3228700Y4112900D02*
Y4252900D01*
X3368700Y4112900D02*
Y4142900D01*
X3088700Y4112900D02*
X3368700D01*
X3088700D02*
Y4142900D01*
Y4222900D02*
Y4252900D01*
X3368700D01*
Y4222900D02*
Y4252900D01*
X306700Y8988900D02*
Y9128900D01*
X446700Y8988900D02*
Y9018900D01*
X166700Y8988900D02*
X446700D01*
X166700D02*
Y9018900D01*
Y9098900D02*
Y9128900D01*
X446700D01*
Y9098900D02*
Y9128900D01*
X14190300Y5347700D02*
Y5487700D01*
X14050301Y5457700D02*
Y5487700D01*
X14330299D01*
Y5457700D02*
Y5487700D01*
Y5347700D02*
Y5377700D01*
X14050301Y5347700D02*
X14330299D01*
X14050301D02*
Y5377700D01*
X785700Y7002500D02*
X925700D01*
X785700Y6862500D02*
X815700D01*
X785700D02*
Y7142500D01*
X815700D01*
X895700D02*
X925700D01*
Y6862500D02*
Y7142500D01*
X895700Y6862500D02*
X925700D01*
X14198100Y7748200D02*
Y7888200D01*
X14058099Y7858200D02*
Y7888200D01*
X14338100D01*
Y7858200D02*
Y7888200D01*
Y7748200D02*
Y7778200D01*
X14058099Y7748200D02*
X14338100D01*
X14058099D02*
Y7778200D01*
X14181100Y8940300D02*
Y9080300D01*
X14041100Y9050300D02*
Y9080300D01*
X14321100D01*
Y9050300D02*
Y9080300D01*
Y8940300D02*
Y8970300D01*
X14041100Y8940300D02*
X14321100D01*
X14041100D02*
Y8970300D01*
D44*
X12930200Y10517300D02*
X13250200D01*
X12930200Y11392300D02*
X13250200D01*
Y10517300D02*
Y11392300D01*
X12930200Y10517300D02*
Y11392300D01*
X13702901Y11899400D02*
X13752901D01*
X13702901Y11539400D02*
Y11899400D01*
Y11539400D02*
X13752901D01*
X13817900Y11899400D02*
X13867900D01*
Y11539400D02*
Y11899400D01*
X13817900Y11539400D02*
X13867900D01*
X13702901Y11719400D02*
X13867900D01*
X3439800Y4115400D02*
Y4435400D01*
Y4115400D02*
X3784800D01*
Y4435400D01*
X3439800D02*
X3784800D01*
X11701705Y6357800D02*
Y6522800D01*
X11521705Y6357800D02*
Y6407800D01*
Y6357800D02*
X11881705D01*
Y6407800D01*
X11521705Y6472800D02*
Y6522800D01*
X11881705D01*
Y6472800D02*
Y6522800D01*
X3112300Y3492900D02*
Y3807900D01*
X4112300D01*
Y3492900D02*
Y3807900D01*
X3112300Y3492900D02*
X4112300D01*
X12148905Y6119300D02*
X12428905D01*
X12658905D02*
X12928905D01*
X13158905D02*
X13438905D01*
Y4729300D02*
Y5136800D01*
Y5711800D02*
Y6119300D01*
X12148905Y4729300D02*
X12428905D01*
X13158905D02*
X13438905D01*
X12148905D02*
Y5136800D01*
Y5711800D02*
Y6119300D01*
X12061500Y13944701D02*
Y13964700D01*
Y14034700D02*
Y14044701D01*
X12021500Y13964700D02*
X12111500D01*
X12061500Y14034700D02*
X12111500Y13964700D01*
X12021500D02*
X12061500Y14034700D01*
X12011500D02*
X12111500D01*
X12086900Y14369701D02*
X12226600D01*
Y13626401D02*
Y14369701D01*
X12086900Y14350301D02*
Y14369701D01*
Y14350301D02*
X12226600D01*
X11896400D02*
X12036100D01*
Y14369701D01*
X12179000Y13626401D02*
X12226600D01*
X11896400Y14369701D02*
X12036100D01*
X11896400Y13626401D02*
X11944000D01*
X11896400D02*
Y14369701D01*
X2080395Y8401800D02*
X2360395D01*
X1580395D02*
X1850395D01*
X1070395D02*
X1350395D01*
X1070395Y9384300D02*
Y9791800D01*
Y8401800D02*
Y8809300D01*
X2080395Y9791800D02*
X2360395D01*
X1070395D02*
X1350395D01*
X2360395Y9384300D02*
Y9791800D01*
Y8401800D02*
Y8809300D01*
X5772795Y8401800D02*
X6052795D01*
X5272795D02*
X5542795D01*
X4762795D02*
X5042795D01*
X4762795Y9384300D02*
Y9791800D01*
Y8401800D02*
Y8809300D01*
X5772795Y9791800D02*
X6052795D01*
X4762795D02*
X5042795D01*
X6052795Y9384300D02*
Y9791800D01*
Y8401800D02*
Y8809300D01*
X1071705Y13529500D02*
X1351705D01*
X1581705D02*
X1851705D01*
X2081705D02*
X2361705D01*
Y12139500D02*
Y12547000D01*
Y13122000D02*
Y13529500D01*
X1071705Y12139500D02*
X1351705D01*
X2081705D02*
X2361705D01*
X1071705D02*
Y12547000D01*
Y13122000D02*
Y13529500D01*
X4764105D02*
X5044105D01*
X5274105D02*
X5544105D01*
X5774105D02*
X6054105D01*
Y12139500D02*
Y12547000D01*
Y13122000D02*
Y13529500D01*
X4764105Y12139500D02*
X5044105D01*
X5774105D02*
X6054105D01*
X4764105D02*
Y12547000D01*
Y13122000D02*
Y13529500D01*
X2627595Y7998300D02*
Y8048300D01*
Y7998300D02*
X2987594D01*
Y8048300D01*
X2627595Y8113300D02*
Y8163300D01*
X2987594D01*
Y8113300D02*
Y8163300D01*
X2807595Y7998300D02*
Y8163300D01*
X4511900Y8113900D02*
Y8163900D01*
X4151900D02*
X4511900D01*
X4151900Y8113900D02*
Y8163900D01*
X4511900Y7998900D02*
Y8048900D01*
X4151900Y7998900D02*
X4511900D01*
X4151900D02*
Y8048900D01*
X4331900Y7998900D02*
Y8163900D01*
X2625100Y13759399D02*
Y13809399D01*
Y13759399D02*
X2985100D01*
Y13809399D01*
X2625100Y13874400D02*
Y13924400D01*
X2985100D01*
Y13874400D02*
Y13924400D01*
X2805100Y13759399D02*
Y13924400D01*
X4496905Y13883000D02*
Y13933000D01*
X4136905D02*
X4496905D01*
X4136905Y13883000D02*
Y13933000D01*
X4496905Y13767999D02*
Y13817999D01*
X4136905Y13767999D02*
X4496905D01*
X4136905D02*
Y13817999D01*
X4316905Y13767999D02*
Y13933000D01*
X1015000Y7077500D02*
Y7422500D01*
X1335000D01*
Y7077500D02*
Y7422500D01*
X1015000Y7077500D02*
X1335000D01*
X2585000D02*
Y7422500D01*
X2265000Y7077500D02*
X2585000D01*
X2265000D02*
Y7422500D01*
X2585000D01*
X1642500Y6750000D02*
Y7750000D01*
Y6750000D02*
X1957500D01*
Y7750000D01*
X1642500D02*
X1957500D01*
X10012395Y7998300D02*
Y8048300D01*
Y7998300D02*
X10372395D01*
Y8048300D01*
X10012395Y8113300D02*
Y8163300D01*
X10372395D01*
Y8113300D02*
Y8163300D01*
X10192395Y7998300D02*
Y8163300D01*
X8209300Y13907500D02*
Y13957500D01*
X7849300D02*
X8209300D01*
X7849300Y13907500D02*
Y13957500D01*
X8209300Y13792500D02*
Y13842500D01*
X7849300Y13792500D02*
X8209300D01*
X7849300D02*
Y13842500D01*
X8029300Y13792500D02*
Y13957500D01*
X11896700Y8113900D02*
Y8163900D01*
X11536700D02*
X11896700D01*
X11536700Y8113900D02*
Y8163900D01*
X11896700Y7998900D02*
Y8048900D01*
X11536700Y7998900D02*
X11896700D01*
X11536700D02*
Y8048900D01*
X11716700Y7998900D02*
Y8163900D01*
X9745195Y8401800D02*
Y8809300D01*
Y9384300D02*
Y9791800D01*
X8455195D02*
X8735195D01*
X9465195D02*
X9745195D01*
X8455195Y8401800D02*
Y8809300D01*
Y9384300D02*
Y9791800D01*
Y8401800D02*
X8735195D01*
X8965195D02*
X9235195D01*
X9465195D02*
X9745195D01*
X8456505Y13122000D02*
Y13529500D01*
Y12139500D02*
Y12547000D01*
X9466505Y12139500D02*
X9746505D01*
X8456505D02*
X8736505D01*
X9746505Y13122000D02*
Y13529500D01*
Y12139500D02*
Y12547000D01*
X9466505Y13529500D02*
X9746505D01*
X8966505D02*
X9236505D01*
X8456505D02*
X8736505D01*
X13437595Y8401800D02*
Y8809300D01*
Y9384300D02*
Y9791800D01*
X12147595D02*
X12427595D01*
X13157594D02*
X13437595D01*
X12147595Y8401800D02*
Y8809300D01*
Y9384300D02*
Y9791800D01*
Y8401800D02*
X12427595D01*
X12657595D02*
X12927596D01*
X13157594D02*
X13437595D01*
X12148905Y13122000D02*
Y13529500D01*
Y12139500D02*
Y12547000D01*
X13158905Y12139500D02*
X13438905D01*
X12148905D02*
X12428905D01*
X13438905Y13122000D02*
Y13529500D01*
Y12139500D02*
Y12547000D01*
X13158905Y13529500D02*
X13438905D01*
X12658905D02*
X12928905D01*
X12148905D02*
X12428905D01*
X7077500Y11660000D02*
X7422500D01*
Y11340000D02*
Y11660000D01*
X7077500Y11340000D02*
X7422500D01*
X7077500D02*
Y11660000D01*
X10702500D02*
X11047500D01*
Y11340000D02*
Y11660000D01*
X10702500Y11340000D02*
X11047500D01*
X10702500D02*
Y11660000D01*
X3452500D02*
X3797500D01*
Y11340000D02*
Y11660000D01*
X3452500Y11340000D02*
X3797500D01*
X3452500D02*
Y11660000D01*
X7077500Y10090000D02*
X7422500D01*
X7077500D02*
Y10410000D01*
X7422500D01*
Y10090000D02*
Y10410000D01*
X10702500Y10090000D02*
X11047500D01*
X10702500D02*
Y10410000D01*
X11047500D01*
Y10090000D02*
Y10410000D01*
X3452500Y10090000D02*
X3797500D01*
X3452500D02*
Y10410000D01*
X3797500D01*
Y10090000D02*
Y10410000D01*
X6750000Y11032500D02*
X7750000D01*
X6750000Y10717500D02*
Y11032500D01*
Y10717500D02*
X7750000D01*
Y11032500D01*
X10375000D02*
X11375000D01*
X10375000Y10717500D02*
Y11032500D01*
Y10717500D02*
X11375000D01*
Y11032500D01*
X3125000D02*
X4125000D01*
X3125000Y10717500D02*
Y11032500D01*
Y10717500D02*
X4125000D01*
Y11032500D01*
X2807595Y588100D02*
Y753100D01*
X2987594Y703100D02*
Y753100D01*
X2627595D02*
X2987594D01*
X2627595Y703100D02*
Y753100D01*
X2987594Y588100D02*
Y638100D01*
X2627595Y588100D02*
X2987594D01*
X2627595D02*
Y638100D01*
X4331900Y588700D02*
Y753700D01*
X4151900Y588700D02*
Y638700D01*
Y588700D02*
X4511900D01*
Y638700D01*
X4151900Y703700D02*
Y753700D01*
X4511900D01*
Y703700D02*
Y753700D01*
X10192395Y588100D02*
Y753100D01*
X10372395Y703100D02*
Y753100D01*
X10012395D02*
X10372395D01*
X10012395Y703100D02*
Y753100D01*
X10372395Y588100D02*
Y638100D01*
X10012395Y588100D02*
X10372395D01*
X10012395D02*
Y638100D01*
X11716700Y588700D02*
Y753700D01*
X11536700Y588700D02*
Y638700D01*
Y588700D02*
X11896700D01*
Y638700D01*
X11536700Y703700D02*
Y753700D01*
X11896700D01*
Y703700D02*
Y753700D01*
X2805100Y6349200D02*
Y6514200D01*
X2985100Y6464200D02*
Y6514200D01*
X2625100D02*
X2985100D01*
X2625100Y6464200D02*
Y6514200D01*
X2985100Y6349200D02*
Y6399200D01*
X2625100Y6349200D02*
X2985100D01*
X2625100D02*
Y6399200D01*
X4316905Y6357800D02*
Y6522800D01*
X4136905Y6357800D02*
Y6407800D01*
Y6357800D02*
X4496905D01*
Y6407800D01*
X4136905Y6472800D02*
Y6522800D01*
X4496905D01*
Y6472800D02*
Y6522800D01*
X10189900Y6349200D02*
Y6514200D01*
X10369900Y6464200D02*
Y6514200D01*
X10009900D02*
X10369900D01*
X10009900Y6464200D02*
Y6514200D01*
X10369900Y6349200D02*
Y6399200D01*
X10009900Y6349200D02*
X10369900D01*
X10009900D02*
Y6399200D01*
X2080395Y991600D02*
X2360395D01*
X1580395D02*
X1850395D01*
X1070395D02*
X1350395D01*
X1070395Y1974100D02*
Y2381600D01*
Y991600D02*
Y1399100D01*
X2080395Y2381600D02*
X2360395D01*
X1070395D02*
X1350395D01*
X2360395Y1974100D02*
Y2381600D01*
Y991600D02*
Y1399100D01*
X5772795Y991600D02*
X6052795D01*
X5272795D02*
X5542795D01*
X4762795D02*
X5042795D01*
X4762795Y1974100D02*
Y2381600D01*
Y991600D02*
Y1399100D01*
X5772795Y2381600D02*
X6052795D01*
X4762795D02*
X5042795D01*
X6052795Y1974100D02*
Y2381600D01*
Y991600D02*
Y1399100D01*
X9465195Y991600D02*
X9745195D01*
X8965195D02*
X9235195D01*
X8455195D02*
X8735195D01*
X8455195Y1974100D02*
Y2381600D01*
Y991600D02*
Y1399100D01*
X9465195Y2381600D02*
X9745195D01*
X8455195D02*
X8735195D01*
X9745195Y1974100D02*
Y2381600D01*
Y991600D02*
Y1399100D01*
X13157594Y991600D02*
X13437595D01*
X12657595D02*
X12927596D01*
X12147595D02*
X12427595D01*
X12147595Y1974100D02*
Y2381600D01*
Y991600D02*
Y1399100D01*
X13157594Y2381600D02*
X13437595D01*
X12147595D02*
X12427595D01*
X13437595Y1974100D02*
Y2381600D01*
Y991600D02*
Y1399100D01*
X1071705Y6119300D02*
X1351705D01*
X1581705D02*
X1851705D01*
X2081705D02*
X2361705D01*
Y4729300D02*
Y5136800D01*
Y5711800D02*
Y6119300D01*
X1071705Y4729300D02*
X1351705D01*
X2081705D02*
X2361705D01*
X1071705D02*
Y5136800D01*
Y5711800D02*
Y6119300D01*
X4764105D02*
X5044105D01*
X5274105D02*
X5544105D01*
X5774105D02*
X6054105D01*
Y4729300D02*
Y5136800D01*
Y5711800D02*
Y6119300D01*
X4764105Y4729300D02*
X5044105D01*
X5774105D02*
X6054105D01*
X4764105D02*
Y5136800D01*
Y5711800D02*
Y6119300D01*
X8456505D02*
X8736505D01*
X8966505D02*
X9236505D01*
X9466505D02*
X9746505D01*
Y4729300D02*
Y5136800D01*
Y5711800D02*
Y6119300D01*
X8456505Y4729300D02*
X8736505D01*
X9466505D02*
X9746505D01*
X8456505D02*
Y5136800D01*
Y5711800D02*
Y6119300D01*
X7409800Y2865400D02*
Y3185400D01*
X7064800D02*
X7409800D01*
X7064800Y2865400D02*
Y3185400D01*
Y2865400D02*
X7409800D01*
X11034800D02*
Y3185400D01*
X10689800D02*
X11034800D01*
X10689800Y2865400D02*
Y3185400D01*
Y2865400D02*
X11034800D01*
X3784800D02*
Y3185400D01*
X3439800D02*
X3784800D01*
X3439800Y2865400D02*
Y3185400D01*
Y2865400D02*
X3784800D01*
X7064800Y4115400D02*
Y4435400D01*
Y4115400D02*
X7409800D01*
Y4435400D01*
X7064800D02*
X7409800D01*
X10689800Y4115400D02*
Y4435400D01*
Y4115400D02*
X11034800D01*
Y4435400D01*
X10689800D02*
X11034800D01*
X6737300Y3492900D02*
Y3807900D01*
X7737300D01*
Y3492900D02*
Y3807900D01*
X6737300Y3492900D02*
X7737300D01*
X10362300D02*
Y3807900D01*
X11362300D01*
Y3492900D02*
Y3807900D01*
X10362300Y3492900D02*
X11362300D01*
D45*
X384206Y5265450D02*
X396902Y5252755D01*
X422294D01*
X434990Y5265450D01*
Y5316234D01*
X422294Y5328930D01*
X396902D01*
X384206Y5316234D01*
X358815Y5328930D02*
X333423D01*
X346119D01*
Y5252755D01*
X358815Y5265450D01*
X295335D02*
X282639Y5252755D01*
X257247D01*
X244552Y5265450D01*
Y5278146D01*
X257247Y5290842D01*
X269943D01*
X257247D01*
X244552Y5303538D01*
Y5316234D01*
X257247Y5328930D01*
X282639D01*
X295335Y5316234D01*
X14108693Y9227449D02*
X14095998Y9240145D01*
X14070605D01*
X14057910Y9227449D01*
Y9176666D01*
X14070605Y9163970D01*
X14095998D01*
X14108693Y9176666D01*
X14134085Y9163970D02*
X14159477D01*
X14146780D01*
Y9240145D01*
X14134085Y9227449D01*
X14248347Y9163970D02*
X14197565D01*
X14248347Y9214753D01*
Y9227449D01*
X14235654Y9240145D01*
X14210262D01*
X14197565Y9227449D01*
X14125693Y8035349D02*
X14112997Y8048045D01*
X14087605D01*
X14074910Y8035349D01*
Y7984566D01*
X14087605Y7971870D01*
X14112997D01*
X14125693Y7984566D01*
X14151085Y7971870D02*
X14176477D01*
X14163782D01*
Y8048045D01*
X14151085Y8035349D01*
X14214565Y7971870D02*
X14239957D01*
X14227261D01*
Y8048045D01*
X14214565Y8035349D01*
X638551Y6930094D02*
X625855Y6917398D01*
Y6892006D01*
X638551Y6879310D01*
X689334D01*
X702030Y6892006D01*
Y6917398D01*
X689334Y6930094D01*
X702030Y6955485D02*
Y6980877D01*
Y6968181D01*
X625855D01*
X638551Y6955485D01*
Y7018965D02*
X625855Y7031661D01*
Y7057053D01*
X638551Y7069748D01*
X689334D01*
X702030Y7057053D01*
Y7031661D01*
X689334Y7018965D01*
X638551D01*
X14117894Y5634850D02*
X14105199Y5647545D01*
X14079807D01*
X14067110Y5634850D01*
Y5584066D01*
X14079807Y5571370D01*
X14105199D01*
X14117894Y5584066D01*
X14143285D02*
X14155981Y5571370D01*
X14181374D01*
X14194069Y5584066D01*
Y5634850D01*
X14181374Y5647545D01*
X14155981D01*
X14143285Y5634850D01*
Y5622154D01*
X14155981Y5609458D01*
X14194069D01*
X379106Y8841751D02*
X391802Y8829055D01*
X417194D01*
X429890Y8841751D01*
Y8892534D01*
X417194Y8905230D01*
X391802D01*
X379106Y8892534D01*
X353715Y8841751D02*
X341019Y8829055D01*
X315627D01*
X302931Y8841751D01*
Y8854447D01*
X315627Y8867142D01*
X302931Y8879838D01*
Y8892534D01*
X315627Y8905230D01*
X341019D01*
X353715Y8892534D01*
Y8879838D01*
X341019Y8867142D01*
X353715Y8854447D01*
Y8841751D01*
X341019Y8867142D02*
X315627D01*
X2854131Y3273194D02*
X2841435Y3260498D01*
Y3235106D01*
X2854131Y3222410D01*
X2866827D01*
X2879522Y3235106D01*
Y3260498D01*
X2892218Y3273194D01*
X2904914D01*
X2917610Y3260498D01*
Y3235106D01*
X2904914Y3222410D01*
X2917610Y3298585D02*
X2841435D01*
Y3336673D01*
X2854131Y3349369D01*
X2879522D01*
X2892218Y3336673D01*
Y3298585D01*
Y3323977D02*
X2917610Y3349369D01*
X2930306Y3374761D02*
Y3425544D01*
X2854131Y3501720D02*
X2841435Y3489024D01*
Y3463632D01*
X2854131Y3450936D01*
X2866827D01*
X2879522Y3463632D01*
Y3489024D01*
X2892218Y3501720D01*
X2904914D01*
X2917610Y3489024D01*
Y3463632D01*
X2904914Y3450936D01*
X2841435Y3527112D02*
X2917610Y3577895D01*
X2841435D02*
X2917610Y3527112D01*
X2930306Y3603287D02*
Y3654070D01*
X2841435Y3679462D02*
X2917610D01*
Y3717550D01*
X2904914Y3730246D01*
X2892218D01*
X2879522Y3717550D01*
Y3679462D01*
Y3717550D01*
X2866827Y3730246D01*
X2854131D01*
X2841435Y3717550D01*
Y3679462D01*
Y3793725D02*
Y3768334D01*
X2854131Y3755638D01*
X2904914D01*
X2917610Y3768334D01*
Y3793725D01*
X2904914Y3806421D01*
X2854131D01*
X2841435Y3793725D01*
Y3831813D02*
Y3882597D01*
Y3857205D01*
X2917610D01*
X10104131Y3273194D02*
X10091435Y3260498D01*
Y3235106D01*
X10104131Y3222410D01*
X10116827D01*
X10129522Y3235106D01*
Y3260498D01*
X10142218Y3273194D01*
X10154914D01*
X10167610Y3260498D01*
Y3235106D01*
X10154914Y3222410D01*
X10167610Y3298585D02*
X10091435D01*
Y3336673D01*
X10104131Y3349369D01*
X10129522D01*
X10142218Y3336673D01*
Y3298585D01*
Y3323977D02*
X10167610Y3349369D01*
X10180306Y3374761D02*
Y3425544D01*
X10091435Y3450936D02*
X10167610D01*
Y3489024D01*
X10154914Y3501720D01*
X10104131D01*
X10091435Y3489024D01*
Y3450936D01*
Y3527112D02*
X10167610Y3577895D01*
X10091435D02*
X10167610Y3527112D01*
X10180306Y3603287D02*
Y3654070D01*
X10091435Y3679462D02*
X10167610D01*
Y3717550D01*
X10154914Y3730246D01*
X10142218D01*
X10129522Y3717550D01*
Y3679462D01*
Y3717550D01*
X10116827Y3730246D01*
X10104131D01*
X10091435Y3717550D01*
Y3679462D01*
Y3793725D02*
Y3768334D01*
X10104131Y3755638D01*
X10154914D01*
X10167610Y3768334D01*
Y3793725D01*
X10154914Y3806421D01*
X10104131D01*
X10091435Y3793725D01*
Y3831813D02*
Y3882597D01*
Y3857205D01*
X10167610D01*
X6479131Y3197018D02*
X6466435Y3184323D01*
Y3158931D01*
X6479131Y3146235D01*
X6491827D01*
X6504522Y3158931D01*
Y3184323D01*
X6517218Y3197018D01*
X6529914D01*
X6542610Y3184323D01*
Y3158931D01*
X6529914Y3146235D01*
X6542610Y3222410D02*
X6466435D01*
Y3260498D01*
X6479131Y3273194D01*
X6504522D01*
X6517218Y3260498D01*
Y3222410D01*
Y3247802D02*
X6542610Y3273194D01*
X6555306Y3298586D02*
Y3349369D01*
X6466435Y3374761D02*
X6542610D01*
Y3412849D01*
X6529914Y3425545D01*
X6517218D01*
X6504522Y3412849D01*
Y3374761D01*
Y3412849D01*
X6491827Y3425545D01*
X6479131D01*
X6466435Y3412849D01*
Y3374761D01*
Y3450936D02*
Y3501720D01*
Y3476328D01*
X6542610D01*
Y3527112D02*
X6466435D01*
X6542610Y3577895D01*
X6466435D01*
X6555306Y3603287D02*
Y3654071D01*
X6466435Y3679463D02*
X6542610D01*
Y3717550D01*
X6529914Y3730246D01*
X6517218D01*
X6504522Y3717550D01*
Y3679463D01*
Y3717550D01*
X6491827Y3730246D01*
X6479131D01*
X6466435Y3717550D01*
Y3679463D01*
Y3793726D02*
Y3768334D01*
X6479131Y3755638D01*
X6529914D01*
X6542610Y3768334D01*
Y3793726D01*
X6529914Y3806421D01*
X6479131D01*
X6466435Y3793726D01*
Y3831813D02*
Y3882597D01*
Y3857205D01*
X6542610D01*
X3456090Y4533210D02*
Y4609385D01*
X3494178D01*
X3506874Y4596690D01*
Y4571298D01*
X3494178Y4558602D01*
X3456090D01*
X3481482D02*
X3506874Y4533210D01*
X3532265Y4596690D02*
X3544961Y4609385D01*
X3570353D01*
X3583049Y4596690D01*
Y4583994D01*
X3570353Y4571298D01*
X3583049Y4558602D01*
Y4545906D01*
X3570353Y4533210D01*
X3544961D01*
X3532265Y4545906D01*
Y4558602D01*
X3544961Y4571298D01*
X3532265Y4583994D01*
Y4596690D01*
X3544961Y4571298D02*
X3570353D01*
X3608441Y4520514D02*
X3659224D01*
X3735400Y4596690D02*
X3722704Y4609385D01*
X3697312D01*
X3684616Y4596690D01*
Y4583994D01*
X3697312Y4571298D01*
X3722704D01*
X3735400Y4558602D01*
Y4545906D01*
X3722704Y4533210D01*
X3697312D01*
X3684616Y4545906D01*
X3760792Y4609385D02*
X3811575Y4533210D01*
Y4609385D02*
X3760792Y4533210D01*
X3836967Y4520514D02*
X3887750D01*
X3913142Y4609385D02*
Y4533210D01*
X3951230D01*
X3963926Y4545906D01*
Y4558602D01*
X3951230Y4571298D01*
X3913142D01*
X3951230D01*
X3963926Y4583994D01*
Y4596690D01*
X3951230Y4609385D01*
X3913142D01*
X4027405D02*
X4002014D01*
X3989318Y4596690D01*
Y4545906D01*
X4002014Y4533210D01*
X4027405D01*
X4040101Y4545906D01*
Y4596690D01*
X4027405Y4609385D01*
X4065493D02*
X4116277D01*
X4090885D01*
Y4533210D01*
X10706090D02*
Y4609385D01*
X10744178D01*
X10756874Y4596690D01*
Y4571298D01*
X10744178Y4558602D01*
X10706090D01*
X10731482D02*
X10756874Y4533210D01*
X10782265Y4596690D02*
X10794961Y4609385D01*
X10820353D01*
X10833049Y4596690D01*
Y4583994D01*
X10820353Y4571298D01*
X10833049Y4558602D01*
Y4545906D01*
X10820353Y4533210D01*
X10794961D01*
X10782265Y4545906D01*
Y4558602D01*
X10794961Y4571298D01*
X10782265Y4583994D01*
Y4596690D01*
X10794961Y4571298D02*
X10820353D01*
X10858441Y4520514D02*
X10909224D01*
X10934616Y4609385D02*
Y4533210D01*
X10972704D01*
X10985400Y4545906D01*
Y4596690D01*
X10972704Y4609385D01*
X10934616D01*
X11010792D02*
X11061575Y4533210D01*
Y4609385D02*
X11010792Y4533210D01*
X11086967Y4520514D02*
X11137750D01*
X11163142Y4609385D02*
Y4533210D01*
X11201230D01*
X11213926Y4545906D01*
Y4558602D01*
X11201230Y4571298D01*
X11163142D01*
X11201230D01*
X11213926Y4583994D01*
Y4596690D01*
X11201230Y4609385D01*
X11163142D01*
X11277405D02*
X11252014D01*
X11239318Y4596690D01*
Y4545906D01*
X11252014Y4533210D01*
X11277405D01*
X11290101Y4545906D01*
Y4596690D01*
X11277405Y4609385D01*
X11315493D02*
X11366276D01*
X11340885D01*
Y4533210D01*
X7004915D02*
Y4609385D01*
X7043002D01*
X7055698Y4596690D01*
Y4571298D01*
X7043002Y4558602D01*
X7004915D01*
X7030306D02*
X7055698Y4533210D01*
X7081090Y4596690D02*
X7093786Y4609385D01*
X7119178D01*
X7131873Y4596690D01*
Y4583994D01*
X7119178Y4571298D01*
X7131873Y4558602D01*
Y4545906D01*
X7119178Y4533210D01*
X7093786D01*
X7081090Y4545906D01*
Y4558602D01*
X7093786Y4571298D01*
X7081090Y4583994D01*
Y4596690D01*
X7093786Y4571298D02*
X7119178D01*
X7157265Y4520514D02*
X7208049D01*
X7233441Y4609385D02*
Y4533210D01*
X7271529D01*
X7284224Y4545906D01*
Y4558602D01*
X7271529Y4571298D01*
X7233441D01*
X7271529D01*
X7284224Y4583994D01*
Y4596690D01*
X7271529Y4609385D01*
X7233441D01*
X7309616D02*
X7360400D01*
X7335008D01*
Y4533210D01*
X7385791D02*
Y4609385D01*
X7436575Y4533210D01*
Y4609385D01*
X7461967Y4520514D02*
X7512750D01*
X7538142Y4609385D02*
Y4533210D01*
X7576230D01*
X7588926Y4545906D01*
Y4558602D01*
X7576230Y4571298D01*
X7538142D01*
X7576230D01*
X7588926Y4583994D01*
Y4596690D01*
X7576230Y4609385D01*
X7538142D01*
X7652405D02*
X7627013D01*
X7614318Y4596690D01*
Y4545906D01*
X7627013Y4533210D01*
X7652405D01*
X7665101Y4545906D01*
Y4596690D01*
X7652405Y4609385D01*
X7690493D02*
X7741276D01*
X7715885D01*
Y4533210D01*
X3768510Y2767590D02*
Y2691415D01*
X3730422D01*
X3717727Y2704111D01*
Y2729502D01*
X3730422Y2742198D01*
X3768510D01*
X3743118D02*
X3717727Y2767590D01*
X3692335Y2691415D02*
X3641551D01*
Y2704111D01*
X3692335Y2754894D01*
Y2767590D01*
X3616159Y2780286D02*
X3565376D01*
X3489201Y2704111D02*
X3501896Y2691415D01*
X3527288D01*
X3539984Y2704111D01*
Y2716807D01*
X3527288Y2729502D01*
X3501896D01*
X3489201Y2742198D01*
Y2754894D01*
X3501896Y2767590D01*
X3527288D01*
X3539984Y2754894D01*
X3463809Y2691415D02*
X3413025Y2767590D01*
Y2691415D02*
X3463809Y2767590D01*
X3387633Y2780286D02*
X3336850D01*
X3311458Y2691415D02*
Y2767590D01*
X3273370D01*
X3260674Y2754894D01*
Y2742198D01*
X3273370Y2729502D01*
X3311458D01*
X3273370D01*
X3260674Y2716807D01*
Y2704111D01*
X3273370Y2691415D01*
X3311458D01*
X3197195D02*
X3222587D01*
X3235283Y2704111D01*
Y2754894D01*
X3222587Y2767590D01*
X3197195D01*
X3184499Y2754894D01*
Y2704111D01*
X3197195Y2691415D01*
X3159107D02*
X3108324D01*
X3133715D01*
Y2767590D01*
X11018510D02*
Y2691415D01*
X10980422D01*
X10967727Y2704111D01*
Y2729502D01*
X10980422Y2742198D01*
X11018510D01*
X10993118D02*
X10967727Y2767590D01*
X10942335Y2691415D02*
X10891551D01*
Y2704111D01*
X10942335Y2754894D01*
Y2767590D01*
X10866159Y2780286D02*
X10815376D01*
X10789984Y2691415D02*
Y2767590D01*
X10751896D01*
X10739201Y2754894D01*
Y2704111D01*
X10751896Y2691415D01*
X10789984D01*
X10713809D02*
X10663025Y2767590D01*
Y2691415D02*
X10713809Y2767590D01*
X10637633Y2780286D02*
X10586850D01*
X10561458Y2691415D02*
Y2767590D01*
X10523370D01*
X10510674Y2754894D01*
Y2742198D01*
X10523370Y2729502D01*
X10561458D01*
X10523370D01*
X10510674Y2716807D01*
Y2704111D01*
X10523370Y2691415D01*
X10561458D01*
X10447195D02*
X10472587D01*
X10485283Y2704111D01*
Y2754894D01*
X10472587Y2767590D01*
X10447195D01*
X10434499Y2754894D01*
Y2704111D01*
X10447195Y2691415D01*
X10409107D02*
X10358324D01*
X10383715D01*
Y2767590D01*
X7393509D02*
Y2691415D01*
X7355422D01*
X7342726Y2704111D01*
Y2729502D01*
X7355422Y2742198D01*
X7393509D01*
X7368118D02*
X7342726Y2767590D01*
X7317334Y2691415D02*
X7266551D01*
Y2704111D01*
X7317334Y2754894D01*
Y2767590D01*
X7241159Y2780286D02*
X7190375D01*
X7164983Y2691415D02*
Y2767590D01*
X7126896D01*
X7114200Y2754894D01*
Y2742198D01*
X7126896Y2729502D01*
X7164983D01*
X7126896D01*
X7114200Y2716807D01*
Y2704111D01*
X7126896Y2691415D01*
X7164983D01*
X7088808D02*
X7038025D01*
X7063416D01*
Y2767590D01*
X7012633D02*
Y2691415D01*
X6961849Y2767590D01*
Y2691415D01*
X6936457Y2780286D02*
X6885674D01*
X6860282Y2691415D02*
Y2767590D01*
X6822194D01*
X6809498Y2754894D01*
Y2742198D01*
X6822194Y2729502D01*
X6860282D01*
X6822194D01*
X6809498Y2716807D01*
Y2704111D01*
X6822194Y2691415D01*
X6860282D01*
X6746019D02*
X6771411D01*
X6784107Y2704111D01*
Y2754894D01*
X6771411Y2767590D01*
X6746019D01*
X6733323Y2754894D01*
Y2704111D01*
X6746019Y2691415D01*
X6707931D02*
X6657148D01*
X6682539D01*
Y2767590D01*
X11283900Y4064807D02*
X11360075D01*
Y4115591D01*
X11283900Y4191766D02*
Y4140983D01*
X11360075D01*
Y4191766D01*
X11321988Y4140983D02*
Y4166374D01*
X11283900Y4217158D02*
X11360075D01*
Y4255246D01*
X11347379Y4267941D01*
X11296596D01*
X11283900Y4255246D01*
Y4217158D01*
X11372771Y4293333D02*
Y4344117D01*
X11283900Y4369509D02*
X11360075D01*
X11334683D01*
X11283900Y4420292D01*
X11321988Y4382205D01*
X11360075Y4420292D01*
X11296596Y4445684D02*
X11283900Y4458380D01*
Y4483772D01*
X11296596Y4496468D01*
X11347379D01*
X11360075Y4483772D01*
Y4458380D01*
X11347379Y4445684D01*
X11296596D01*
Y4521859D02*
X11283900Y4534555D01*
Y4559947D01*
X11296596Y4572643D01*
X11309292D01*
X11321988Y4559947D01*
X11334683Y4572643D01*
X11347379D01*
X11360075Y4559947D01*
Y4534555D01*
X11347379Y4521859D01*
X11334683D01*
X11321988Y4534555D01*
X11309292Y4521859D01*
X11296596D01*
X11321988Y4534555D02*
Y4559947D01*
X10610105Y6762849D02*
X10533930D01*
Y6712066D01*
X10610105Y6635890D02*
Y6686674D01*
X10533930D01*
Y6635890D01*
X10572017Y6686674D02*
Y6661282D01*
X10610105Y6610499D02*
X10533930D01*
Y6572411D01*
X10546626Y6559715D01*
X10597409D01*
X10610105Y6572411D01*
Y6610499D01*
X10521234Y6534323D02*
Y6483540D01*
X10610105Y6458148D02*
X10533930D01*
X10559322D01*
X10610105Y6407364D01*
X10572017Y6445452D01*
X10533930Y6407364D01*
X10597409Y6381973D02*
X10610105Y6369277D01*
Y6343885D01*
X10597409Y6331189D01*
X10546626D01*
X10533930Y6343885D01*
Y6369277D01*
X10546626Y6381973D01*
X10597409D01*
X10610105Y6305797D02*
Y6255014D01*
X10597409D01*
X10546626Y6305797D01*
X10533930D01*
X3899100Y4064807D02*
X3975275D01*
Y4115591D01*
X3899100Y4191766D02*
Y4140983D01*
X3975275D01*
Y4191766D01*
X3937187Y4140983D02*
Y4166374D01*
X3899100Y4217158D02*
X3975275D01*
Y4255246D01*
X3962579Y4267941D01*
X3911796D01*
X3899100Y4255246D01*
Y4217158D01*
X3987971Y4293333D02*
Y4344117D01*
X3899100Y4369509D02*
X3975275D01*
X3949883D01*
X3899100Y4420292D01*
X3937187Y4382205D01*
X3975275Y4420292D01*
X3911796Y4445684D02*
X3899100Y4458380D01*
Y4483772D01*
X3911796Y4496468D01*
X3962579D01*
X3975275Y4483772D01*
Y4458380D01*
X3962579Y4445684D01*
X3911796D01*
X3899100Y4572643D02*
X3911796Y4547251D01*
X3937187Y4521859D01*
X3962579D01*
X3975275Y4534555D01*
Y4559947D01*
X3962579Y4572643D01*
X3949883D01*
X3937187Y4559947D01*
Y4521859D01*
X3225305Y6762849D02*
X3149130D01*
Y6712066D01*
X3225305Y6635890D02*
Y6686674D01*
X3149130D01*
Y6635890D01*
X3187217Y6686674D02*
Y6661282D01*
X3225305Y6610499D02*
X3149130D01*
Y6572411D01*
X3161826Y6559715D01*
X3212609D01*
X3225305Y6572411D01*
Y6610499D01*
X3136434Y6534323D02*
Y6483540D01*
X3225305Y6458148D02*
X3149130D01*
X3174521D01*
X3225305Y6407364D01*
X3187217Y6445452D01*
X3149130Y6407364D01*
X3212609Y6381973D02*
X3225305Y6369277D01*
Y6343885D01*
X3212609Y6331189D01*
X3161826D01*
X3149130Y6343885D01*
Y6369277D01*
X3161826Y6381973D01*
X3212609D01*
X3225305Y6255014D02*
Y6305797D01*
X3187217D01*
X3199913Y6280405D01*
Y6267709D01*
X3187217Y6255014D01*
X3161826D01*
X3149130Y6267709D01*
Y6293101D01*
X3161826Y6305797D01*
X11288895Y317159D02*
X11365070D01*
Y367943D01*
X11288895Y444118D02*
Y393334D01*
X11365070D01*
Y444118D01*
X11326982Y393334D02*
Y418726D01*
X11288895Y469510D02*
X11365070D01*
Y507598D01*
X11352374Y520293D01*
X11301591D01*
X11288895Y507598D01*
Y469510D01*
X11377766Y545685D02*
Y596469D01*
X11288895Y621861D02*
X11365070D01*
X11339678D01*
X11288895Y672644D01*
X11326982Y634557D01*
X11365070Y672644D01*
X11301591Y698036D02*
X11288895Y710732D01*
Y736124D01*
X11301591Y748819D01*
X11352374D01*
X11365070Y736124D01*
Y710732D01*
X11352374Y698036D01*
X11301591D01*
X11365070Y812299D02*
X11288895D01*
X11326982Y774211D01*
Y824995D01*
X10610200Y3084180D02*
X10534024D01*
Y3033397D01*
X10610200Y2957221D02*
Y3008005D01*
X10534024D01*
Y2957221D01*
X10572112Y3008005D02*
Y2982613D01*
X10610200Y2931830D02*
X10534024D01*
Y2893742D01*
X10546720Y2881046D01*
X10597504D01*
X10610200Y2893742D01*
Y2931830D01*
X10521328Y2855654D02*
Y2804871D01*
X10610200Y2779479D02*
X10534024D01*
X10559416D01*
X10610200Y2728695D01*
X10572112Y2766783D01*
X10534024Y2728695D01*
X10597504Y2703303D02*
X10610200Y2690608D01*
Y2665216D01*
X10597504Y2652520D01*
X10546720D01*
X10534024Y2665216D01*
Y2690608D01*
X10546720Y2703303D01*
X10597504D01*
Y2627128D02*
X10610200Y2614432D01*
Y2589040D01*
X10597504Y2576345D01*
X10584808D01*
X10572112Y2589040D01*
Y2601736D01*
Y2589040D01*
X10559416Y2576345D01*
X10546720D01*
X10534024Y2589040D01*
Y2614432D01*
X10546720Y2627128D01*
X3904095Y317159D02*
X3980270D01*
Y367943D01*
X3904095Y444118D02*
Y393334D01*
X3980270D01*
Y444118D01*
X3942182Y393334D02*
Y418726D01*
X3904095Y469510D02*
X3980270D01*
Y507598D01*
X3967574Y520293D01*
X3916791D01*
X3904095Y507598D01*
Y469510D01*
X3992966Y545685D02*
Y596469D01*
X3904095Y621861D02*
X3980270D01*
X3954878D01*
X3904095Y672644D01*
X3942182Y634557D01*
X3980270Y672644D01*
X3916791Y698036D02*
X3904095Y710732D01*
Y736124D01*
X3916791Y748819D01*
X3967574D01*
X3980270Y736124D01*
Y710732D01*
X3967574Y698036D01*
X3916791D01*
X3980270Y824995D02*
Y774211D01*
X3929487Y824995D01*
X3916791D01*
X3904095Y812299D01*
Y786907D01*
X3916791Y774211D01*
X3225399Y3058788D02*
X3149224D01*
Y3008005D01*
X3225399Y2931830D02*
Y2982613D01*
X3149224D01*
Y2931830D01*
X3187312Y2982613D02*
Y2957221D01*
X3225399Y2906438D02*
X3149224D01*
Y2868350D01*
X3161920Y2855654D01*
X3212704D01*
X3225399Y2868350D01*
Y2906438D01*
X3136528Y2830262D02*
Y2779479D01*
X3225399Y2754087D02*
X3149224D01*
X3174616D01*
X3225399Y2703303D01*
X3187312Y2741391D01*
X3149224Y2703303D01*
X3212704Y2677912D02*
X3225399Y2665216D01*
Y2639824D01*
X3212704Y2627128D01*
X3161920D01*
X3149224Y2639824D01*
Y2665216D01*
X3161920Y2677912D01*
X3212704D01*
X3149224Y2601736D02*
Y2576344D01*
Y2589040D01*
X3225399D01*
X3212704Y2601736D01*
X13628362Y6155021D02*
Y6205805D01*
X13552187D01*
Y6155021D01*
X13590274Y6205805D02*
Y6180413D01*
X13552187Y6129630D02*
X13628362D01*
X13552187Y6078846D01*
X13628362D01*
X13615665Y6002671D02*
X13628362Y6015366D01*
Y6040758D01*
X13615665Y6053454D01*
X13564882D01*
X13552187Y6040758D01*
Y6015366D01*
X13564882Y6002671D01*
X13539490Y5977279D02*
Y5926495D01*
X13628362Y5901104D02*
X13552187D01*
X13577579D01*
X13628362Y5850320D01*
X13590274Y5888408D01*
X13552187Y5850320D01*
X13615665Y5824928D02*
X13628362Y5812232D01*
Y5786840D01*
X13615665Y5774145D01*
X13564882D01*
X13552187Y5786840D01*
Y5812232D01*
X13564882Y5824928D01*
X13615665D01*
Y5748753D02*
X13628362Y5736057D01*
Y5710665D01*
X13615665Y5697969D01*
X13602969D01*
X13590274Y5710665D01*
X13577579Y5697969D01*
X13564882D01*
X13552187Y5710665D01*
Y5736057D01*
X13564882Y5748753D01*
X13577579D01*
X13590274Y5736057D01*
X13602969Y5748753D01*
X13615665D01*
X13590274Y5736057D02*
Y5710665D01*
X9935961Y6155021D02*
Y6205805D01*
X9859786D01*
Y6155021D01*
X9897874Y6205805D02*
Y6180413D01*
X9859786Y6129630D02*
X9935961D01*
X9859786Y6078846D01*
X9935961D01*
X9923265Y6002671D02*
X9935961Y6015366D01*
Y6040758D01*
X9923265Y6053454D01*
X9872482D01*
X9859786Y6040758D01*
Y6015366D01*
X9872482Y6002671D01*
X9847090Y5977279D02*
Y5926495D01*
X9935961Y5901104D02*
X9859786D01*
X9885178D01*
X9935961Y5850320D01*
X9897874Y5888408D01*
X9859786Y5850320D01*
X9923265Y5824928D02*
X9935961Y5812232D01*
Y5786840D01*
X9923265Y5774145D01*
X9872482D01*
X9859786Y5786840D01*
Y5812232D01*
X9872482Y5824928D01*
X9923265D01*
X9935961Y5748753D02*
Y5697969D01*
X9923265D01*
X9872482Y5748753D01*
X9859786D01*
X6243561Y6155021D02*
Y6205805D01*
X6167386D01*
Y6155021D01*
X6205473Y6205805D02*
Y6180413D01*
X6167386Y6129630D02*
X6243561D01*
X6167386Y6078846D01*
X6243561D01*
X6230865Y6002671D02*
X6243561Y6015366D01*
Y6040758D01*
X6230865Y6053454D01*
X6180082D01*
X6167386Y6040758D01*
Y6015366D01*
X6180082Y6002671D01*
X6154690Y5977279D02*
Y5926495D01*
X6243561Y5901104D02*
X6167386D01*
X6192778D01*
X6243561Y5850320D01*
X6205473Y5888408D01*
X6167386Y5850320D01*
X6230865Y5824928D02*
X6243561Y5812232D01*
Y5786840D01*
X6230865Y5774145D01*
X6180082D01*
X6167386Y5786840D01*
Y5812232D01*
X6180082Y5824928D01*
X6230865D01*
X6243561Y5697969D02*
X6230865Y5723361D01*
X6205473Y5748753D01*
X6180082D01*
X6167386Y5736057D01*
Y5710665D01*
X6180082Y5697969D01*
X6192778D01*
X6205473Y5710665D01*
Y5748753D01*
X2551161Y6155021D02*
Y6205805D01*
X2474986D01*
Y6155021D01*
X2513073Y6205805D02*
Y6180413D01*
X2474986Y6129630D02*
X2551161D01*
X2474986Y6078846D01*
X2551161D01*
X2538465Y6002671D02*
X2551161Y6015366D01*
Y6040758D01*
X2538465Y6053454D01*
X2487682D01*
X2474986Y6040758D01*
Y6015366D01*
X2487682Y6002671D01*
X2462290Y5977279D02*
Y5926495D01*
X2551161Y5901104D02*
X2474986D01*
X2500378D01*
X2551161Y5850320D01*
X2513073Y5888408D01*
X2474986Y5850320D01*
X2538465Y5824928D02*
X2551161Y5812232D01*
Y5786840D01*
X2538465Y5774145D01*
X2487682D01*
X2474986Y5786840D01*
Y5812232D01*
X2487682Y5824928D01*
X2538465D01*
X2551161Y5697969D02*
Y5748753D01*
X2513073D01*
X2525769Y5723361D01*
Y5710665D01*
X2513073Y5697969D01*
X2487682D01*
X2474986Y5710665D01*
Y5736057D01*
X2487682Y5748753D01*
X11958139Y993966D02*
Y943183D01*
X12034314D01*
Y993966D01*
X11996226Y943183D02*
Y968574D01*
X12034314Y1019358D02*
X11958139D01*
X12034314Y1070141D01*
X11958139D01*
X11970835Y1146317D02*
X11958139Y1133621D01*
Y1108229D01*
X11970835Y1095533D01*
X12021618D01*
X12034314Y1108229D01*
Y1133621D01*
X12021618Y1146317D01*
X12047010Y1171709D02*
Y1222492D01*
X11958139Y1247884D02*
X12034314D01*
X12008922D01*
X11958139Y1298667D01*
X11996226Y1260580D01*
X12034314Y1298667D01*
X11970835Y1324059D02*
X11958139Y1336755D01*
Y1362147D01*
X11970835Y1374843D01*
X12021618D01*
X12034314Y1362147D01*
Y1336755D01*
X12021618Y1324059D01*
X11970835D01*
X12034314Y1438322D02*
X11958139D01*
X11996226Y1400235D01*
Y1451018D01*
X8265739Y993966D02*
Y943183D01*
X8341914D01*
Y993966D01*
X8303826Y943183D02*
Y968574D01*
X8341914Y1019358D02*
X8265739D01*
X8341914Y1070141D01*
X8265739D01*
X8278435Y1146317D02*
X8265739Y1133621D01*
Y1108229D01*
X8278435Y1095533D01*
X8329218D01*
X8341914Y1108229D01*
Y1133621D01*
X8329218Y1146317D01*
X8354610Y1171709D02*
Y1222492D01*
X8265739Y1247884D02*
X8341914D01*
X8316522D01*
X8265739Y1298667D01*
X8303826Y1260580D01*
X8341914Y1298667D01*
X8278435Y1324059D02*
X8265739Y1336755D01*
Y1362147D01*
X8278435Y1374843D01*
X8329218D01*
X8341914Y1362147D01*
Y1336755D01*
X8329218Y1324059D01*
X8278435D01*
Y1400235D02*
X8265739Y1412931D01*
Y1438322D01*
X8278435Y1451018D01*
X8291130D01*
X8303826Y1438322D01*
Y1425627D01*
Y1438322D01*
X8316522Y1451018D01*
X8329218D01*
X8341914Y1438322D01*
Y1412931D01*
X8329218Y1400235D01*
X4573339Y993966D02*
Y943183D01*
X4649514D01*
Y993966D01*
X4611426Y943183D02*
Y968574D01*
X4649514Y1019358D02*
X4573339D01*
X4649514Y1070141D01*
X4573339D01*
X4586035Y1146317D02*
X4573339Y1133621D01*
Y1108229D01*
X4586035Y1095533D01*
X4636818D01*
X4649514Y1108229D01*
Y1133621D01*
X4636818Y1146317D01*
X4662210Y1171709D02*
Y1222492D01*
X4573339Y1247884D02*
X4649514D01*
X4624122D01*
X4573339Y1298667D01*
X4611426Y1260580D01*
X4649514Y1298667D01*
X4586035Y1324059D02*
X4573339Y1336755D01*
Y1362147D01*
X4586035Y1374843D01*
X4636818D01*
X4649514Y1362147D01*
Y1336755D01*
X4636818Y1324059D01*
X4586035D01*
X4649514Y1451018D02*
Y1400235D01*
X4598730Y1451018D01*
X4586035D01*
X4573339Y1438322D01*
Y1412931D01*
X4586035Y1400235D01*
X880939Y993966D02*
Y943183D01*
X957114D01*
Y993966D01*
X919026Y943183D02*
Y968574D01*
X957114Y1019358D02*
X880939D01*
X957114Y1070141D01*
X880939D01*
X893634Y1146317D02*
X880939Y1133621D01*
Y1108229D01*
X893634Y1095533D01*
X944418D01*
X957114Y1108229D01*
Y1133621D01*
X944418Y1146317D01*
X969810Y1171709D02*
Y1222492D01*
X880939Y1247884D02*
X957114D01*
X931722D01*
X880939Y1298667D01*
X919026Y1260580D01*
X957114Y1298667D01*
X893634Y1324059D02*
X880939Y1336755D01*
Y1362147D01*
X893634Y1374843D01*
X944418D01*
X957114Y1362147D01*
Y1336755D01*
X944418Y1324059D01*
X893634D01*
X957114Y1400235D02*
Y1425627D01*
Y1412931D01*
X880939D01*
X893634Y1400235D01*
X2927731Y4181614D02*
X2915035Y4168918D01*
Y4143526D01*
X2927731Y4130830D01*
X2978514D01*
X2991210Y4143526D01*
Y4168918D01*
X2978514Y4181614D01*
X2915035Y4207006D02*
Y4257789D01*
X2927731D01*
X2978514Y4207006D01*
X2991210D01*
X3003906Y4283181D02*
Y4333964D01*
X2927731Y4410140D02*
X2915035Y4397444D01*
Y4372052D01*
X2927731Y4359356D01*
X2940427D01*
X2953122Y4372052D01*
Y4397444D01*
X2965818Y4410140D01*
X2978514D01*
X2991210Y4397444D01*
Y4372052D01*
X2978514Y4359356D01*
X2915035Y4435532D02*
X2991210Y4486315D01*
X2915035D02*
X2991210Y4435532D01*
X3003906Y4511707D02*
Y4562490D01*
X2915035Y4587882D02*
X2991210D01*
Y4625970D01*
X2978514Y4638666D01*
X2965818D01*
X2953122Y4625970D01*
Y4587882D01*
Y4625970D01*
X2940427Y4638666D01*
X2927731D01*
X2915035Y4625970D01*
Y4587882D01*
Y4702146D02*
Y4676754D01*
X2927731Y4664058D01*
X2978514D01*
X2991210Y4676754D01*
Y4702146D01*
X2978514Y4714841D01*
X2927731D01*
X2915035Y4702146D01*
Y4740233D02*
Y4791017D01*
Y4765625D01*
X2991210D01*
X10177731Y4181614D02*
X10165035Y4168918D01*
Y4143526D01*
X10177731Y4130830D01*
X10228514D01*
X10241210Y4143526D01*
Y4168918D01*
X10228514Y4181614D01*
X10165035Y4207006D02*
Y4257789D01*
X10177731D01*
X10228514Y4207006D01*
X10241210D01*
X10253906Y4283181D02*
Y4333964D01*
X10165035Y4359356D02*
X10241210D01*
Y4397444D01*
X10228514Y4410140D01*
X10177731D01*
X10165035Y4397444D01*
Y4359356D01*
Y4435532D02*
X10241210Y4486315D01*
X10165035D02*
X10241210Y4435532D01*
X10253906Y4511707D02*
Y4562490D01*
X10165035Y4587882D02*
X10241210D01*
Y4625970D01*
X10228514Y4638666D01*
X10215818D01*
X10203122Y4625970D01*
Y4587882D01*
Y4625970D01*
X10190427Y4638666D01*
X10177731D01*
X10165035Y4625970D01*
Y4587882D01*
Y4702146D02*
Y4676754D01*
X10177731Y4664058D01*
X10228514D01*
X10241210Y4676754D01*
Y4702146D01*
X10228514Y4714841D01*
X10177731D01*
X10165035Y4702146D01*
Y4740233D02*
Y4791017D01*
Y4765625D01*
X10241210D01*
X6552731Y4105439D02*
X6540035Y4092743D01*
Y4067351D01*
X6552731Y4054655D01*
X6603514D01*
X6616210Y4067351D01*
Y4092743D01*
X6603514Y4105439D01*
X6540035Y4130830D02*
Y4181614D01*
X6552731D01*
X6603514Y4130830D01*
X6616210D01*
X6628906Y4207006D02*
Y4257789D01*
X6540035Y4283181D02*
X6616210D01*
Y4321269D01*
X6603514Y4333965D01*
X6590818D01*
X6578122Y4321269D01*
Y4283181D01*
Y4321269D01*
X6565427Y4333965D01*
X6552731D01*
X6540035Y4321269D01*
Y4283181D01*
Y4359357D02*
Y4410140D01*
Y4384748D01*
X6616210D01*
Y4435532D02*
X6540035D01*
X6616210Y4486315D01*
X6540035D01*
X6628906Y4511707D02*
Y4562491D01*
X6540035Y4587883D02*
X6616210D01*
Y4625970D01*
X6603514Y4638666D01*
X6590818D01*
X6578122Y4625970D01*
Y4587883D01*
Y4625970D01*
X6565427Y4638666D01*
X6552731D01*
X6540035Y4625970D01*
Y4587883D01*
Y4702146D02*
Y4676754D01*
X6552731Y4664058D01*
X6603514D01*
X6616210Y4676754D01*
Y4702146D01*
X6603514Y4714841D01*
X6552731D01*
X6540035Y4702146D01*
Y4740233D02*
Y4791017D01*
Y4765625D01*
X6616210D01*
X11360095Y6404730D02*
X11347399Y6392034D01*
Y6366642D01*
X11360095Y6353946D01*
X11410879D01*
X11423575Y6366642D01*
Y6392034D01*
X11410879Y6404730D01*
X11423575Y6468210D02*
X11347399D01*
X11385487Y6430122D01*
Y6480905D01*
X11436270Y6506297D02*
Y6557081D01*
X11347399Y6582472D02*
X11423575D01*
X11398183D01*
X11347399Y6633256D01*
X11385487Y6595168D01*
X11423575Y6633256D01*
X11360095Y6658648D02*
X11347399Y6671344D01*
Y6696736D01*
X11360095Y6709431D01*
X11410879D01*
X11423575Y6696736D01*
Y6671344D01*
X11410879Y6658648D01*
X11360095D01*
Y6734823D02*
X11347399Y6747519D01*
Y6772911D01*
X11360095Y6785607D01*
X11372791D01*
X11385487Y6772911D01*
X11398183Y6785607D01*
X11410879D01*
X11423575Y6772911D01*
Y6747519D01*
X11410879Y6734823D01*
X11398183D01*
X11385487Y6747519D01*
X11372791Y6734823D01*
X11360095D01*
X11385487Y6747519D02*
Y6772911D01*
X10531510Y6479966D02*
X10544205Y6492662D01*
Y6518054D01*
X10531510Y6530750D01*
X10480726D01*
X10468030Y6518054D01*
Y6492662D01*
X10480726Y6479966D01*
X10468030Y6416487D02*
X10544205D01*
X10506118Y6454574D01*
Y6403791D01*
X10455334Y6378399D02*
Y6327615D01*
X10544205Y6302224D02*
X10468030D01*
X10493422D01*
X10544205Y6251440D01*
X10506118Y6289528D01*
X10468030Y6251440D01*
X10531510Y6226048D02*
X10544205Y6213352D01*
Y6187960D01*
X10531510Y6175265D01*
X10480726D01*
X10468030Y6187960D01*
Y6213352D01*
X10480726Y6226048D01*
X10531510D01*
X10544205Y6149873D02*
Y6099089D01*
X10531510D01*
X10480726Y6149873D01*
X10468030D01*
X3975295Y6404730D02*
X3962599Y6392034D01*
Y6366642D01*
X3975295Y6353946D01*
X4026079D01*
X4038774Y6366642D01*
Y6392034D01*
X4026079Y6404730D01*
X4038774Y6468210D02*
X3962599D01*
X4000687Y6430122D01*
Y6480905D01*
X4051470Y6506297D02*
Y6557081D01*
X3962599Y6582472D02*
X4038774D01*
X4013383D01*
X3962599Y6633256D01*
X4000687Y6595168D01*
X4038774Y6633256D01*
X3975295Y6658648D02*
X3962599Y6671344D01*
Y6696736D01*
X3975295Y6709431D01*
X4026079D01*
X4038774Y6696736D01*
Y6671344D01*
X4026079Y6658648D01*
X3975295D01*
X3962599Y6785607D02*
X3975295Y6760215D01*
X4000687Y6734823D01*
X4026079D01*
X4038774Y6747519D01*
Y6772911D01*
X4026079Y6785607D01*
X4013383D01*
X4000687Y6772911D01*
Y6734823D01*
X3146709Y6479966D02*
X3159405Y6492662D01*
Y6518054D01*
X3146709Y6530749D01*
X3095926D01*
X3083230Y6518054D01*
Y6492662D01*
X3095926Y6479966D01*
X3083230Y6416486D02*
X3159405D01*
X3121318Y6454574D01*
Y6403791D01*
X3070534Y6378399D02*
Y6327615D01*
X3159405Y6302223D02*
X3083230D01*
X3108622D01*
X3159405Y6251440D01*
X3121318Y6289527D01*
X3083230Y6251440D01*
X3146709Y6226048D02*
X3159405Y6213352D01*
Y6187960D01*
X3146709Y6175265D01*
X3095926D01*
X3083230Y6187960D01*
Y6213352D01*
X3095926Y6226048D01*
X3146709D01*
X3159405Y6099089D02*
Y6149873D01*
X3121318D01*
X3134013Y6124481D01*
Y6111785D01*
X3121318Y6099089D01*
X3095926D01*
X3083230Y6111785D01*
Y6137177D01*
X3095926Y6149873D01*
X11375090Y597542D02*
X11362394Y584846D01*
Y559455D01*
X11375090Y546759D01*
X11425874D01*
X11438570Y559455D01*
Y584846D01*
X11425874Y597542D01*
X11438570Y661022D02*
X11362394D01*
X11400482Y622934D01*
Y673717D01*
X11451266Y699109D02*
Y749893D01*
X11362394Y775285D02*
X11438570D01*
X11413178D01*
X11362394Y826068D01*
X11400482Y787981D01*
X11438570Y826068D01*
X11375090Y851460D02*
X11362394Y864156D01*
Y889548D01*
X11375090Y902244D01*
X11425874D01*
X11438570Y889548D01*
Y864156D01*
X11425874Y851460D01*
X11375090D01*
X11438570Y965723D02*
X11362394D01*
X11400482Y927635D01*
Y978419D01*
X10534004Y744258D02*
X10546700Y756954D01*
Y782345D01*
X10534004Y795041D01*
X10483221D01*
X10470525Y782345D01*
Y756954D01*
X10483221Y744258D01*
X10470525Y680778D02*
X10546700D01*
X10508613Y718866D01*
Y668082D01*
X10457829Y642691D02*
Y591907D01*
X10546700Y566515D02*
X10470525D01*
X10495917D01*
X10546700Y515732D01*
X10508613Y553819D01*
X10470525Y515732D01*
X10534004Y490340D02*
X10546700Y477644D01*
Y452252D01*
X10534004Y439556D01*
X10483221D01*
X10470525Y452252D01*
Y477644D01*
X10483221Y490340D01*
X10534004D01*
Y414165D02*
X10546700Y401469D01*
Y376077D01*
X10534004Y363381D01*
X10521308D01*
X10508613Y376077D01*
Y388773D01*
Y376077D01*
X10495917Y363381D01*
X10483221D01*
X10470525Y376077D01*
Y401469D01*
X10483221Y414165D01*
X3990290Y597542D02*
X3977594Y584846D01*
Y559455D01*
X3990290Y546759D01*
X4041074D01*
X4053770Y559455D01*
Y584846D01*
X4041074Y597542D01*
X4053770Y661022D02*
X3977594D01*
X4015682Y622934D01*
Y673717D01*
X4066466Y699109D02*
Y749893D01*
X3977594Y775285D02*
X4053770D01*
X4028378D01*
X3977594Y826068D01*
X4015682Y787981D01*
X4053770Y826068D01*
X3990290Y851460D02*
X3977594Y864156D01*
Y889548D01*
X3990290Y902244D01*
X4041074D01*
X4053770Y889548D01*
Y864156D01*
X4041074Y851460D01*
X3990290D01*
X4053770Y978419D02*
Y927635D01*
X4002986Y978419D01*
X3990290D01*
X3977594Y965723D01*
Y940331D01*
X3990290Y927635D01*
X3149204Y718866D02*
X3161900Y731562D01*
Y756954D01*
X3149204Y769650D01*
X3098421D01*
X3085725Y756954D01*
Y731562D01*
X3098421Y718866D01*
X3085725Y655387D02*
X3161900D01*
X3123813Y693474D01*
Y642691D01*
X3073029Y617299D02*
Y566516D01*
X3161900Y541124D02*
X3085725D01*
X3111117D01*
X3161900Y490340D01*
X3123813Y528428D01*
X3085725Y490340D01*
X3149204Y464948D02*
X3161900Y452252D01*
Y426860D01*
X3149204Y414165D01*
X3098421D01*
X3085725Y426860D01*
Y452252D01*
X3098421Y464948D01*
X3149204D01*
X3085725Y388773D02*
Y363381D01*
Y376077D01*
X3161900D01*
X3149204Y388773D01*
X13271175Y4454009D02*
X13283870Y4466705D01*
Y4492097D01*
X13271175Y4504793D01*
X13220390D01*
X13207693Y4492097D01*
Y4466705D01*
X13220390Y4454009D01*
X13271175Y4428618D02*
X13283870Y4415922D01*
Y4390530D01*
X13271175Y4377834D01*
X13258478D01*
X13245782Y4390530D01*
Y4403226D01*
Y4390530D01*
X13233086Y4377834D01*
X13220390D01*
X13207693Y4390530D01*
Y4415922D01*
X13220390Y4428618D01*
X13195000Y4352442D02*
Y4301659D01*
X13283870Y4276267D02*
X13207693D01*
X13233086D01*
X13283870Y4225483D01*
X13245782Y4263571D01*
X13207693Y4225483D01*
X13271175Y4200091D02*
X13283870Y4187395D01*
Y4162004D01*
X13271175Y4149308D01*
X13220390D01*
X13207693Y4162004D01*
Y4187395D01*
X13220390Y4200091D01*
X13271175D01*
Y4123916D02*
X13283870Y4111220D01*
Y4085828D01*
X13271175Y4073133D01*
X13258478D01*
X13245782Y4085828D01*
X13233086Y4073133D01*
X13220390D01*
X13207693Y4085828D01*
Y4111220D01*
X13220390Y4123916D01*
X13233086D01*
X13245782Y4111220D01*
X13258478Y4123916D01*
X13271175D01*
X13245782Y4111220D02*
Y4085828D01*
X9578774Y4454010D02*
X9591470Y4466705D01*
Y4492097D01*
X9578774Y4504793D01*
X9527991D01*
X9515295Y4492097D01*
Y4466705D01*
X9527991Y4454010D01*
X9578774Y4428618D02*
X9591470Y4415922D01*
Y4390530D01*
X9578774Y4377834D01*
X9566078D01*
X9553382Y4390530D01*
Y4403226D01*
Y4390530D01*
X9540687Y4377834D01*
X9527991D01*
X9515295Y4390530D01*
Y4415922D01*
X9527991Y4428618D01*
X9502599Y4352442D02*
Y4301659D01*
X9591470Y4276267D02*
X9515295D01*
X9540687D01*
X9591470Y4225484D01*
X9553382Y4263571D01*
X9515295Y4225484D01*
X9578774Y4200092D02*
X9591470Y4187396D01*
Y4162004D01*
X9578774Y4149308D01*
X9527991D01*
X9515295Y4162004D01*
Y4187396D01*
X9527991Y4200092D01*
X9578774D01*
X9591470Y4123916D02*
Y4073133D01*
X9578774D01*
X9527991Y4123916D01*
X9515295D01*
X5886374Y4454009D02*
X5899070Y4466705D01*
Y4492097D01*
X5886374Y4504793D01*
X5835590D01*
X5822894Y4492097D01*
Y4466705D01*
X5835590Y4454009D01*
X5886374Y4428618D02*
X5899070Y4415922D01*
Y4390530D01*
X5886374Y4377834D01*
X5873678D01*
X5860982Y4390530D01*
Y4403226D01*
Y4390530D01*
X5848286Y4377834D01*
X5835590D01*
X5822894Y4390530D01*
Y4415922D01*
X5835590Y4428618D01*
X5810198Y4352442D02*
Y4301659D01*
X5899070Y4276267D02*
X5822894D01*
X5848286D01*
X5899070Y4225483D01*
X5860982Y4263571D01*
X5822894Y4225483D01*
X5886374Y4200091D02*
X5899070Y4187395D01*
Y4162004D01*
X5886374Y4149308D01*
X5835590D01*
X5822894Y4162004D01*
Y4187395D01*
X5835590Y4200091D01*
X5886374D01*
X5899070Y4073133D02*
X5886374Y4098524D01*
X5860982Y4123916D01*
X5835590D01*
X5822894Y4111220D01*
Y4085828D01*
X5835590Y4073133D01*
X5848286D01*
X5860982Y4085828D01*
Y4123916D01*
X2193974Y4454009D02*
X2206670Y4466705D01*
Y4492097D01*
X2193974Y4504793D01*
X2143190D01*
X2130494Y4492097D01*
Y4466705D01*
X2143190Y4454009D01*
X2193974Y4428618D02*
X2206670Y4415922D01*
Y4390530D01*
X2193974Y4377834D01*
X2181278D01*
X2168582Y4390530D01*
Y4403226D01*
Y4390530D01*
X2155886Y4377834D01*
X2143190D01*
X2130494Y4390530D01*
Y4415922D01*
X2143190Y4428618D01*
X2117798Y4352442D02*
Y4301659D01*
X2206670Y4276267D02*
X2130494D01*
X2155886D01*
X2206670Y4225483D01*
X2168582Y4263571D01*
X2130494Y4225483D01*
X2193974Y4200091D02*
X2206670Y4187395D01*
Y4162004D01*
X2193974Y4149308D01*
X2143190D01*
X2130494Y4162004D01*
Y4187395D01*
X2143190Y4200091D01*
X2193974D01*
X2206670Y4073133D02*
Y4123916D01*
X2168582D01*
X2181278Y4098524D01*
Y4085828D01*
X2168582Y4073133D01*
X2143190D01*
X2130494Y4085828D01*
Y4111220D01*
X2143190Y4123916D01*
X12315325Y2694978D02*
X12302629Y2682282D01*
Y2656891D01*
X12315325Y2644195D01*
X12366109D01*
X12378805Y2656891D01*
Y2682282D01*
X12366109Y2694978D01*
X12315325Y2720370D02*
X12302629Y2733066D01*
Y2758458D01*
X12315325Y2771153D01*
X12328021D01*
X12340717Y2758458D01*
Y2745762D01*
Y2758458D01*
X12353413Y2771153D01*
X12366109D01*
X12378805Y2758458D01*
Y2733066D01*
X12366109Y2720370D01*
X12391501Y2796545D02*
Y2847329D01*
X12302629Y2872721D02*
X12378805D01*
X12353413D01*
X12302629Y2923504D01*
X12340717Y2885417D01*
X12378805Y2923504D01*
X12315325Y2948896D02*
X12302629Y2961592D01*
Y2986984D01*
X12315325Y2999680D01*
X12366109D01*
X12378805Y2986984D01*
Y2961592D01*
X12366109Y2948896D01*
X12315325D01*
X12378805Y3063159D02*
X12302629D01*
X12340717Y3025071D01*
Y3075855D01*
X8622926Y2694978D02*
X8610230Y2682282D01*
Y2656890D01*
X8622926Y2644194D01*
X8673709D01*
X8686405Y2656890D01*
Y2682282D01*
X8673709Y2694978D01*
X8622926Y2720370D02*
X8610230Y2733066D01*
Y2758458D01*
X8622926Y2771153D01*
X8635622D01*
X8648317Y2758458D01*
Y2745762D01*
Y2758458D01*
X8661013Y2771153D01*
X8673709D01*
X8686405Y2758458D01*
Y2733066D01*
X8673709Y2720370D01*
X8699101Y2796545D02*
Y2847329D01*
X8610230Y2872720D02*
X8686405D01*
X8661013D01*
X8610230Y2923504D01*
X8648317Y2885416D01*
X8686405Y2923504D01*
X8622926Y2948896D02*
X8610230Y2961592D01*
Y2986984D01*
X8622926Y2999679D01*
X8673709D01*
X8686405Y2986984D01*
Y2961592D01*
X8673709Y2948896D01*
X8622926D01*
Y3025071D02*
X8610230Y3037767D01*
Y3063159D01*
X8622926Y3075855D01*
X8635622D01*
X8648317Y3063159D01*
Y3050463D01*
Y3063159D01*
X8661013Y3075855D01*
X8673709D01*
X8686405Y3063159D01*
Y3037767D01*
X8673709Y3025071D01*
X4930526Y2694978D02*
X4917830Y2682282D01*
Y2656890D01*
X4930526Y2644194D01*
X4981309D01*
X4994005Y2656890D01*
Y2682282D01*
X4981309Y2694978D01*
X4930526Y2720370D02*
X4917830Y2733066D01*
Y2758458D01*
X4930526Y2771153D01*
X4943222D01*
X4955917Y2758458D01*
Y2745762D01*
Y2758458D01*
X4968613Y2771153D01*
X4981309D01*
X4994005Y2758458D01*
Y2733066D01*
X4981309Y2720370D01*
X5006701Y2796545D02*
Y2847329D01*
X4917830Y2872720D02*
X4994005D01*
X4968613D01*
X4917830Y2923504D01*
X4955917Y2885416D01*
X4994005Y2923504D01*
X4930526Y2948896D02*
X4917830Y2961592D01*
Y2986984D01*
X4930526Y2999679D01*
X4981309D01*
X4994005Y2986984D01*
Y2961592D01*
X4981309Y2948896D01*
X4930526D01*
X4994005Y3075855D02*
Y3025071D01*
X4943222Y3075855D01*
X4930526D01*
X4917830Y3063159D01*
Y3037767D01*
X4930526Y3025071D01*
X1238126Y2694978D02*
X1225430Y2682282D01*
Y2656890D01*
X1238126Y2644194D01*
X1288909D01*
X1301605Y2656890D01*
Y2682282D01*
X1288909Y2694978D01*
X1238126Y2720370D02*
X1225430Y2733066D01*
Y2758458D01*
X1238126Y2771153D01*
X1250821D01*
X1263517Y2758458D01*
Y2745762D01*
Y2758458D01*
X1276213Y2771153D01*
X1288909D01*
X1301605Y2758458D01*
Y2733066D01*
X1288909Y2720370D01*
X1314301Y2796545D02*
Y2847329D01*
X1225430Y2872720D02*
X1301605D01*
X1276213D01*
X1225430Y2923504D01*
X1263517Y2885416D01*
X1301605Y2923504D01*
X1238126Y2948896D02*
X1225430Y2961592D01*
Y2986984D01*
X1238126Y2999679D01*
X1288909D01*
X1301605Y2986984D01*
Y2961592D01*
X1288909Y2948896D01*
X1238126D01*
X1301605Y3025071D02*
Y3050463D01*
Y3037767D01*
X1225430D01*
X1238126Y3025071D01*
X11959430Y4837130D02*
X11972126Y4824434D01*
X11997518D01*
X12010213Y4837130D01*
Y4887914D01*
X11997518Y4900610D01*
X11972126D01*
X11959430Y4887914D01*
X11883255Y4900610D02*
X11934038D01*
X11883255Y4849826D01*
Y4837130D01*
X11895950Y4824434D01*
X11921342D01*
X11934038Y4837130D01*
X11857863Y4913306D02*
X11807079D01*
X11781687Y4824434D02*
Y4900610D01*
Y4875218D01*
X11730904Y4824434D01*
X11768991Y4862522D01*
X11730904Y4900610D01*
X11705512Y4837130D02*
X11692816Y4824434D01*
X11667424D01*
X11654729Y4837130D01*
Y4887914D01*
X11667424Y4900610D01*
X11692816D01*
X11705512Y4887914D01*
Y4837130D01*
X11629337D02*
X11616641Y4824434D01*
X11591249D01*
X11578553Y4837130D01*
Y4849826D01*
X11591249Y4862522D01*
X11578553Y4875218D01*
Y4887914D01*
X11591249Y4900610D01*
X11616641D01*
X11629337Y4887914D01*
Y4875218D01*
X11616641Y4862522D01*
X11629337Y4849826D01*
Y4837130D01*
X11616641Y4862522D02*
X11591249D01*
X8246970Y5935470D02*
X8234274Y5948166D01*
X8208882D01*
X8196186Y5935470D01*
Y5884686D01*
X8208882Y5871990D01*
X8234274D01*
X8246970Y5884686D01*
X8323145Y5871990D02*
X8272361D01*
X8323145Y5922774D01*
Y5935470D01*
X8310449Y5948166D01*
X8285057D01*
X8272361Y5935470D01*
X8348537Y5859294D02*
X8399320D01*
X8424712Y5948166D02*
Y5871990D01*
Y5897382D01*
X8475496Y5948166D01*
X8437408Y5910078D01*
X8475496Y5871990D01*
X8500887Y5935470D02*
X8513583Y5948166D01*
X8538975D01*
X8551671Y5935470D01*
Y5884686D01*
X8538975Y5871990D01*
X8513583D01*
X8500887Y5884686D01*
Y5935470D01*
X8577063Y5948166D02*
X8627846D01*
Y5935470D01*
X8577063Y5884686D01*
Y5871990D01*
X6254669Y5955470D02*
X6241974Y5968166D01*
X6216582D01*
X6203886Y5955470D01*
Y5904686D01*
X6216582Y5891990D01*
X6241974D01*
X6254669Y5904686D01*
X6330845Y5891990D02*
X6280061D01*
X6330845Y5942774D01*
Y5955470D01*
X6318149Y5968166D01*
X6292757D01*
X6280061Y5955470D01*
X6356237Y5879294D02*
X6407020D01*
X6432412Y5968166D02*
Y5891990D01*
Y5917382D01*
X6483196Y5968166D01*
X6445108Y5930078D01*
X6483196Y5891990D01*
X6508587Y5955470D02*
X6521283Y5968166D01*
X6546675D01*
X6559371Y5955470D01*
Y5904686D01*
X6546675Y5891990D01*
X6521283D01*
X6508587Y5904686D01*
Y5955470D01*
X6635546Y5968166D02*
X6610155Y5955470D01*
X6584763Y5930078D01*
Y5904686D01*
X6597459Y5891990D01*
X6622851D01*
X6635546Y5904686D01*
Y5917382D01*
X6622851Y5930078D01*
X6584763D01*
X2566030Y4852330D02*
X2578726Y4839634D01*
X2604117D01*
X2616813Y4852330D01*
Y4903114D01*
X2604117Y4915810D01*
X2578726D01*
X2566030Y4903114D01*
X2489855Y4915810D02*
X2540638D01*
X2489855Y4865026D01*
Y4852330D01*
X2502550Y4839634D01*
X2527942D01*
X2540638Y4852330D01*
X2464463Y4928506D02*
X2413679D01*
X2388287Y4839634D02*
Y4915810D01*
Y4890418D01*
X2337504Y4839634D01*
X2375591Y4877722D01*
X2337504Y4915810D01*
X2312112Y4852330D02*
X2299416Y4839634D01*
X2274024D01*
X2261328Y4852330D01*
Y4903114D01*
X2274024Y4915810D01*
X2299416D01*
X2312112Y4903114D01*
Y4852330D01*
X2185153Y4839634D02*
X2235937D01*
Y4877722D01*
X2210545Y4865026D01*
X2197849D01*
X2185153Y4877722D01*
Y4903114D01*
X2197849Y4915810D01*
X2223241D01*
X2235937Y4903114D01*
X11915382Y2305670D02*
X11902687Y2318365D01*
X11877295D01*
X11864599Y2305670D01*
Y2254886D01*
X11877295Y2242190D01*
X11902687D01*
X11915382Y2254886D01*
X11991558Y2242190D02*
X11940774D01*
X11991558Y2292974D01*
Y2305670D01*
X11978862Y2318365D01*
X11953470D01*
X11940774Y2305670D01*
X12016950Y2229494D02*
X12067733D01*
X12093125Y2318365D02*
Y2242190D01*
Y2267582D01*
X12143908Y2318365D01*
X12105821Y2280278D01*
X12143908Y2242190D01*
X12169300Y2305670D02*
X12181996Y2318365D01*
X12207388D01*
X12220084Y2305670D01*
Y2254886D01*
X12207388Y2242190D01*
X12181996D01*
X12169300Y2254886D01*
Y2305670D01*
X12283563Y2242190D02*
Y2318365D01*
X12245476Y2280278D01*
X12296259D01*
X8208582Y2408470D02*
X8195886Y2421166D01*
X8170494D01*
X8157798Y2408470D01*
Y2357686D01*
X8170494Y2344990D01*
X8195886D01*
X8208582Y2357686D01*
X8284757Y2344990D02*
X8233974D01*
X8284757Y2395774D01*
Y2408470D01*
X8272061Y2421166D01*
X8246670D01*
X8233974Y2408470D01*
X8310149Y2332295D02*
X8360932D01*
X8386324Y2421166D02*
Y2344990D01*
Y2370382D01*
X8437108Y2421166D01*
X8399020Y2383078D01*
X8437108Y2344990D01*
X8462500Y2408470D02*
X8475196Y2421166D01*
X8500588D01*
X8513283Y2408470D01*
Y2357686D01*
X8500588Y2344990D01*
X8475196D01*
X8462500Y2357686D01*
Y2408470D01*
X8538675D02*
X8551371Y2421166D01*
X8576763D01*
X8589459Y2408470D01*
Y2395774D01*
X8576763Y2383078D01*
X8564067D01*
X8576763D01*
X8589459Y2370382D01*
Y2357686D01*
X8576763Y2344990D01*
X8551371D01*
X8538675Y2357686D01*
X6186982Y2383170D02*
X6174286Y2395866D01*
X6148894D01*
X6136198Y2383170D01*
Y2332386D01*
X6148894Y2319691D01*
X6174286D01*
X6186982Y2332386D01*
X6263157Y2319691D02*
X6212374D01*
X6263157Y2370474D01*
Y2383170D01*
X6250461Y2395866D01*
X6225070D01*
X6212374Y2383170D01*
X6288549Y2306995D02*
X6339333D01*
X6364724Y2395866D02*
Y2319691D01*
Y2345082D01*
X6415508Y2395866D01*
X6377420Y2357778D01*
X6415508Y2319691D01*
X6440900Y2383170D02*
X6453596Y2395866D01*
X6478988D01*
X6491683Y2383170D01*
Y2332386D01*
X6478988Y2319691D01*
X6453596D01*
X6440900Y2332386D01*
Y2383170D01*
X6567859Y2319691D02*
X6517075D01*
X6567859Y2370474D01*
Y2383170D01*
X6555163Y2395866D01*
X6529771D01*
X6517075Y2383170D01*
X2516874Y2252070D02*
X2504178Y2264766D01*
X2478786D01*
X2466090Y2252070D01*
Y2201286D01*
X2478786Y2188590D01*
X2504178D01*
X2516874Y2201286D01*
X2593049Y2188590D02*
X2542265D01*
X2593049Y2239374D01*
Y2252070D01*
X2580353Y2264766D01*
X2554961D01*
X2542265Y2252070D01*
X2618441Y2175894D02*
X2669224D01*
X2694616Y2264766D02*
Y2188590D01*
Y2213982D01*
X2745400Y2264766D01*
X2707312Y2226678D01*
X2745400Y2188590D01*
X2770792Y2252070D02*
X2783487Y2264766D01*
X2808879D01*
X2821575Y2252070D01*
Y2201286D01*
X2808879Y2188590D01*
X2783487D01*
X2770792Y2201286D01*
Y2252070D01*
X2846967Y2188590D02*
X2872359D01*
X2859663D01*
Y2264766D01*
X2846967Y2252070D01*
X13099011Y4345280D02*
X13111707Y4332584D01*
X13137099D01*
X13149794Y4345280D01*
Y4396064D01*
X13137099Y4408760D01*
X13111707D01*
X13099011Y4396064D01*
X13073619Y4408760D02*
X13048227D01*
X13060922D01*
Y4332584D01*
X13073619Y4345280D01*
X13010139Y4421456D02*
X12959357D01*
X12933965Y4332584D02*
Y4408760D01*
Y4383368D01*
X12883182Y4332584D01*
X12921268Y4370672D01*
X12883182Y4408760D01*
X12857790Y4345280D02*
X12845093Y4332584D01*
X12819701D01*
X12807005Y4345280D01*
Y4396064D01*
X12819701Y4408760D01*
X12845093D01*
X12857790Y4396064D01*
Y4345280D01*
X12781614D02*
X12768918Y4332584D01*
X12743526D01*
X12730830Y4345280D01*
Y4357976D01*
X12743526Y4370672D01*
X12730830Y4383368D01*
Y4396064D01*
X12743526Y4408760D01*
X12768918D01*
X12781614Y4396064D01*
Y4383368D01*
X12768918Y4370672D01*
X12781614Y4357976D01*
Y4345280D01*
X12768918Y4370672D02*
X12743526D01*
X9419611Y4341481D02*
X9432307Y4328785D01*
X9457699D01*
X9470395Y4341481D01*
Y4392264D01*
X9457699Y4404960D01*
X9432307D01*
X9419611Y4392264D01*
X9394219Y4404960D02*
X9368827D01*
X9381523D01*
Y4328785D01*
X9394219Y4341481D01*
X9330740Y4417656D02*
X9279956D01*
X9254564Y4328785D02*
Y4404960D01*
Y4379568D01*
X9203781Y4328785D01*
X9241868Y4366872D01*
X9203781Y4404960D01*
X9178389Y4341481D02*
X9165693Y4328785D01*
X9140301D01*
X9127606Y4341481D01*
Y4392264D01*
X9140301Y4404960D01*
X9165693D01*
X9178389Y4392264D01*
Y4341481D01*
X9102214Y4328785D02*
X9051430D01*
Y4341481D01*
X9102214Y4392264D01*
Y4404960D01*
X5709611Y4345280D02*
X5722307Y4332584D01*
X5747698D01*
X5760394Y4345280D01*
Y4396064D01*
X5747698Y4408760D01*
X5722307D01*
X5709611Y4396064D01*
X5684219Y4408760D02*
X5658827D01*
X5671523D01*
Y4332584D01*
X5684219Y4345280D01*
X5620740Y4421456D02*
X5569956D01*
X5544564Y4332584D02*
Y4408760D01*
Y4383368D01*
X5493781Y4332584D01*
X5531868Y4370672D01*
X5493781Y4408760D01*
X5468389Y4345280D02*
X5455693Y4332584D01*
X5430301D01*
X5417605Y4345280D01*
Y4396064D01*
X5430301Y4408760D01*
X5455693D01*
X5468389Y4396064D01*
Y4345280D01*
X5341430Y4332584D02*
X5366822Y4345280D01*
X5392213Y4370672D01*
Y4396064D01*
X5379518Y4408760D01*
X5354126D01*
X5341430Y4396064D01*
Y4383368D01*
X5354126Y4370672D01*
X5392213D01*
X2008910Y4341280D02*
X2021606Y4328584D01*
X2046998D01*
X2059694Y4341280D01*
Y4392064D01*
X2046998Y4404760D01*
X2021606D01*
X2008910Y4392064D01*
X1983519Y4404760D02*
X1958127D01*
X1970823D01*
Y4328584D01*
X1983519Y4341280D01*
X1920039Y4417456D02*
X1869256D01*
X1843864Y4328584D02*
Y4404760D01*
Y4379368D01*
X1793080Y4328584D01*
X1831168Y4366672D01*
X1793080Y4404760D01*
X1767688Y4341280D02*
X1754992Y4328584D01*
X1729601D01*
X1716905Y4341280D01*
Y4392064D01*
X1729601Y4404760D01*
X1754992D01*
X1767688Y4392064D01*
Y4341280D01*
X1640730Y4328584D02*
X1691513D01*
Y4366672D01*
X1666121Y4353976D01*
X1653425D01*
X1640730Y4366672D01*
Y4392064D01*
X1653425Y4404760D01*
X1678817D01*
X1691513Y4392064D01*
X12451402Y2771220D02*
X12438706Y2783915D01*
X12413314D01*
X12400618Y2771220D01*
Y2720436D01*
X12413314Y2707740D01*
X12438706D01*
X12451402Y2720436D01*
X12476793Y2707740D02*
X12502185D01*
X12489489D01*
Y2783915D01*
X12476793Y2771220D01*
X12540273Y2695044D02*
X12591056D01*
X12616448Y2783915D02*
Y2707740D01*
Y2733132D01*
X12667232Y2783915D01*
X12629144Y2745828D01*
X12667232Y2707740D01*
X12692624Y2771220D02*
X12705320Y2783915D01*
X12730711D01*
X12743407Y2771220D01*
Y2720436D01*
X12730711Y2707740D01*
X12705320D01*
X12692624Y2720436D01*
Y2771220D01*
X12806886Y2707740D02*
Y2783915D01*
X12768799Y2745828D01*
X12819582D01*
X8753401Y2773020D02*
X8740706Y2785716D01*
X8715314D01*
X8702618Y2773020D01*
Y2722236D01*
X8715314Y2709540D01*
X8740706D01*
X8753401Y2722236D01*
X8778793Y2709540D02*
X8804185D01*
X8791489D01*
Y2785716D01*
X8778793Y2773020D01*
X8842273Y2696844D02*
X8893056D01*
X8918448Y2785716D02*
Y2709540D01*
Y2734932D01*
X8969231Y2785716D01*
X8931144Y2747628D01*
X8969231Y2709540D01*
X8994623Y2773020D02*
X9007319Y2785716D01*
X9032711D01*
X9045407Y2773020D01*
Y2722236D01*
X9032711Y2709540D01*
X9007319D01*
X8994623Y2722236D01*
Y2773020D01*
X9070799D02*
X9083495Y2785716D01*
X9108887D01*
X9121582Y2773020D01*
Y2760324D01*
X9108887Y2747628D01*
X9096191D01*
X9108887D01*
X9121582Y2734932D01*
Y2722236D01*
X9108887Y2709540D01*
X9083495D01*
X9070799Y2722236D01*
X5064401Y2774720D02*
X5051706Y2787416D01*
X5026314D01*
X5013618Y2774720D01*
Y2723936D01*
X5026314Y2711240D01*
X5051706D01*
X5064401Y2723936D01*
X5089793Y2711240D02*
X5115185D01*
X5102489D01*
Y2787416D01*
X5089793Y2774720D01*
X5153273Y2698544D02*
X5204056D01*
X5229448Y2787416D02*
Y2711240D01*
Y2736632D01*
X5280232Y2787416D01*
X5242144Y2749328D01*
X5280232Y2711240D01*
X5305623Y2774720D02*
X5318319Y2787416D01*
X5343711D01*
X5356407Y2774720D01*
Y2723936D01*
X5343711Y2711240D01*
X5318319D01*
X5305623Y2723936D01*
Y2774720D01*
X5432582Y2711240D02*
X5381799D01*
X5432582Y2762024D01*
Y2774720D01*
X5419887Y2787416D01*
X5394495D01*
X5381799Y2774720D01*
X1400493Y2773820D02*
X1387797Y2786516D01*
X1362405D01*
X1349710Y2773820D01*
Y2723036D01*
X1362405Y2710340D01*
X1387797D01*
X1400493Y2723036D01*
X1425885Y2710340D02*
X1451277D01*
X1438581D01*
Y2786516D01*
X1425885Y2773820D01*
X1489364Y2697644D02*
X1540148D01*
X1565540Y2786516D02*
Y2710340D01*
Y2735732D01*
X1616323Y2786516D01*
X1578236Y2748428D01*
X1616323Y2710340D01*
X1641715Y2773820D02*
X1654411Y2786516D01*
X1679803D01*
X1692499Y2773820D01*
Y2723036D01*
X1679803Y2710340D01*
X1654411D01*
X1641715Y2723036D01*
Y2773820D01*
X1717890Y2710340D02*
X1743282D01*
X1730586D01*
Y2786516D01*
X1717890Y2773820D01*
X4383170Y11252207D02*
X4395865Y11264902D01*
Y11290294D01*
X4383170Y11302990D01*
X4370474D01*
X4357778Y11290294D01*
Y11264902D01*
X4345082Y11252207D01*
X4332386D01*
X4319690Y11264902D01*
Y11290294D01*
X4332386Y11302990D01*
X4319690Y11226815D02*
X4395865D01*
Y11188727D01*
X4383170Y11176031D01*
X4357778D01*
X4345082Y11188727D01*
Y11226815D01*
Y11201423D02*
X4319690Y11176031D01*
X4306994Y11150639D02*
Y11099856D01*
X4383170Y11023681D02*
X4395865Y11036376D01*
Y11061768D01*
X4383170Y11074464D01*
X4370474D01*
X4357778Y11061768D01*
Y11036376D01*
X4345082Y11023681D01*
X4332386D01*
X4319690Y11036376D01*
Y11061768D01*
X4332386Y11074464D01*
X4395865Y10998289D02*
X4319690Y10947505D01*
X4395865D02*
X4319690Y10998289D01*
X4306994Y10922113D02*
Y10871330D01*
X4395865Y10845938D02*
Y10795154D01*
Y10820546D01*
X4319690D01*
X4395865Y10731675D02*
Y10757067D01*
X4383170Y10769763D01*
X4332386D01*
X4319690Y10757067D01*
Y10731675D01*
X4332386Y10718979D01*
X4383170D01*
X4395865Y10731675D01*
X4319690Y10693587D02*
X4395865D01*
Y10655499D01*
X4383170Y10642804D01*
X4357778D01*
X4345082Y10655499D01*
Y10693587D01*
X11633170Y11252207D02*
X11645865Y11264902D01*
Y11290294D01*
X11633170Y11302990D01*
X11620474D01*
X11607778Y11290294D01*
Y11264902D01*
X11595082Y11252207D01*
X11582386D01*
X11569690Y11264902D01*
Y11290294D01*
X11582386Y11302990D01*
X11569690Y11226815D02*
X11645865D01*
Y11188727D01*
X11633170Y11176031D01*
X11607778D01*
X11595082Y11188727D01*
Y11226815D01*
Y11201423D02*
X11569690Y11176031D01*
X11556994Y11150639D02*
Y11099856D01*
X11645865Y11074464D02*
X11569690D01*
Y11036376D01*
X11582386Y11023681D01*
X11633170D01*
X11645865Y11036376D01*
Y11074464D01*
Y10998289D02*
X11569690Y10947505D01*
X11645865D02*
X11569690Y10998289D01*
X11556994Y10922113D02*
Y10871330D01*
X11645865Y10845938D02*
Y10795154D01*
Y10820546D01*
X11569690D01*
X11645865Y10731675D02*
Y10757067D01*
X11633170Y10769763D01*
X11582386D01*
X11569690Y10757067D01*
Y10731675D01*
X11582386Y10718979D01*
X11633170D01*
X11645865Y10731675D01*
X11569690Y10693587D02*
X11645865D01*
Y10655499D01*
X11633170Y10642804D01*
X11607778D01*
X11595082Y10655499D01*
Y10693587D01*
X8008169Y11328382D02*
X8020865Y11341078D01*
Y11366470D01*
X8008169Y11379165D01*
X7995473D01*
X7982778Y11366470D01*
Y11341078D01*
X7970082Y11328382D01*
X7957386D01*
X7944690Y11341078D01*
Y11366470D01*
X7957386Y11379165D01*
X7944690Y11302990D02*
X8020865D01*
Y11264902D01*
X8008169Y11252207D01*
X7982778D01*
X7970082Y11264902D01*
Y11302990D01*
Y11277598D02*
X7944690Y11252207D01*
X7931994Y11226815D02*
Y11176031D01*
X8020865Y11150639D02*
X7944690D01*
Y11112552D01*
X7957386Y11099856D01*
X7970082D01*
X7982778Y11112552D01*
Y11150639D01*
Y11112552D01*
X7995473Y11099856D01*
X8008169D01*
X8020865Y11112552D01*
Y11150639D01*
Y11074464D02*
Y11023681D01*
Y11049072D01*
X7944690D01*
Y10998289D02*
X8020865D01*
X7944690Y10947505D01*
X8020865D01*
X7931994Y10922113D02*
Y10871330D01*
X8020865Y10845938D02*
Y10795154D01*
Y10820546D01*
X7944690D01*
X8020865Y10731675D02*
Y10757067D01*
X8008169Y10769763D01*
X7957386D01*
X7944690Y10757067D01*
Y10731675D01*
X7957386Y10718979D01*
X8008169D01*
X8020865Y10731675D01*
X7944690Y10693587D02*
X8020865D01*
Y10655499D01*
X8008169Y10642804D01*
X7982778D01*
X7970082Y10655499D01*
Y10693587D01*
X3781210Y9992190D02*
Y9916015D01*
X3743122D01*
X3730427Y9928711D01*
Y9954102D01*
X3743122Y9966798D01*
X3781210D01*
X3755818D02*
X3730427Y9992190D01*
X3705035Y9928711D02*
X3692339Y9916015D01*
X3666947D01*
X3654251Y9928711D01*
Y9941407D01*
X3666947Y9954102D01*
X3654251Y9966798D01*
Y9979494D01*
X3666947Y9992190D01*
X3692339D01*
X3705035Y9979494D01*
Y9966798D01*
X3692339Y9954102D01*
X3705035Y9941407D01*
Y9928711D01*
X3692339Y9954102D02*
X3666947D01*
X3628859Y10004886D02*
X3578076D01*
X3501901Y9928711D02*
X3514596Y9916015D01*
X3539988D01*
X3552684Y9928711D01*
Y9941407D01*
X3539988Y9954102D01*
X3514596D01*
X3501901Y9966798D01*
Y9979494D01*
X3514596Y9992190D01*
X3539988D01*
X3552684Y9979494D01*
X3476509Y9916015D02*
X3425725Y9992190D01*
Y9916015D02*
X3476509Y9992190D01*
X3400333Y10004886D02*
X3349550D01*
X3324158Y9916015D02*
X3273374D01*
X3298766D01*
Y9992190D01*
X3209895Y9916015D02*
X3235287D01*
X3247983Y9928711D01*
Y9979494D01*
X3235287Y9992190D01*
X3209895D01*
X3197199Y9979494D01*
Y9928711D01*
X3209895Y9916015D01*
X3171807Y9992190D02*
Y9916015D01*
X3133719D01*
X3121024Y9928711D01*
Y9954102D01*
X3133719Y9966798D01*
X3171807D01*
X11031210Y9992190D02*
Y9916015D01*
X10993122D01*
X10980427Y9928711D01*
Y9954102D01*
X10993122Y9966798D01*
X11031210D01*
X11005818D02*
X10980427Y9992190D01*
X10955035Y9928711D02*
X10942339Y9916015D01*
X10916947D01*
X10904251Y9928711D01*
Y9941407D01*
X10916947Y9954102D01*
X10904251Y9966798D01*
Y9979494D01*
X10916947Y9992190D01*
X10942339D01*
X10955035Y9979494D01*
Y9966798D01*
X10942339Y9954102D01*
X10955035Y9941407D01*
Y9928711D01*
X10942339Y9954102D02*
X10916947D01*
X10878859Y10004886D02*
X10828076D01*
X10802684Y9916015D02*
Y9992190D01*
X10764596D01*
X10751901Y9979494D01*
Y9928711D01*
X10764596Y9916015D01*
X10802684D01*
X10726509D02*
X10675725Y9992190D01*
Y9916015D02*
X10726509Y9992190D01*
X10650333Y10004886D02*
X10599550D01*
X10574158Y9916015D02*
X10523374D01*
X10548766D01*
Y9992190D01*
X10459895Y9916015D02*
X10485287D01*
X10497983Y9928711D01*
Y9979494D01*
X10485287Y9992190D01*
X10459895D01*
X10447199Y9979494D01*
Y9928711D01*
X10459895Y9916015D01*
X10421807Y9992190D02*
Y9916015D01*
X10383719D01*
X10371024Y9928711D01*
Y9954102D01*
X10383719Y9966798D01*
X10421807D01*
X7482385Y9992190D02*
Y9916015D01*
X7444298D01*
X7431602Y9928711D01*
Y9954102D01*
X7444298Y9966798D01*
X7482385D01*
X7456993D02*
X7431602Y9992190D01*
X7406210Y9928711D02*
X7393514Y9916015D01*
X7368122D01*
X7355426Y9928711D01*
Y9941407D01*
X7368122Y9954102D01*
X7355426Y9966798D01*
Y9979494D01*
X7368122Y9992190D01*
X7393514D01*
X7406210Y9979494D01*
Y9966798D01*
X7393514Y9954102D01*
X7406210Y9941407D01*
Y9928711D01*
X7393514Y9954102D02*
X7368122D01*
X7330035Y10004886D02*
X7279251D01*
X7253859Y9916015D02*
Y9992190D01*
X7215771D01*
X7203076Y9979494D01*
Y9966798D01*
X7215771Y9954102D01*
X7253859D01*
X7215771D01*
X7203076Y9941407D01*
Y9928711D01*
X7215771Y9916015D01*
X7253859D01*
X7177684D02*
X7126900D01*
X7152292D01*
Y9992190D01*
X7101509D02*
Y9916015D01*
X7050725Y9992190D01*
Y9916015D01*
X7025333Y10004886D02*
X6974550D01*
X6949158Y9916015D02*
X6898374D01*
X6923766D01*
Y9992190D01*
X6834895Y9916015D02*
X6860287D01*
X6872982Y9928711D01*
Y9979494D01*
X6860287Y9992190D01*
X6834895D01*
X6822199Y9979494D01*
Y9928711D01*
X6834895Y9916015D01*
X6796807Y9992190D02*
Y9916015D01*
X6758719D01*
X6746024Y9928711D01*
Y9954102D01*
X6758719Y9966798D01*
X6796807D01*
X3468790Y11757810D02*
Y11833985D01*
X3506878D01*
X3519574Y11821290D01*
Y11795898D01*
X3506878Y11783202D01*
X3468790D01*
X3494182D02*
X3519574Y11757810D01*
X3544965Y11833985D02*
X3595749D01*
Y11821290D01*
X3544965Y11770506D01*
Y11757810D01*
X3621141Y11745114D02*
X3671924D01*
X3748100Y11821290D02*
X3735404Y11833985D01*
X3710012D01*
X3697316Y11821290D01*
Y11808594D01*
X3710012Y11795898D01*
X3735404D01*
X3748100Y11783202D01*
Y11770506D01*
X3735404Y11757810D01*
X3710012D01*
X3697316Y11770506D01*
X3773492Y11833985D02*
X3824275Y11757810D01*
Y11833985D02*
X3773492Y11757810D01*
X3849667Y11745114D02*
X3900450D01*
X3925842Y11833985D02*
X3976626D01*
X3951234D01*
Y11757810D01*
X4040105Y11833985D02*
X4014714D01*
X4002018Y11821290D01*
Y11770506D01*
X4014714Y11757810D01*
X4040105D01*
X4052801Y11770506D01*
Y11821290D01*
X4040105Y11833985D01*
X4078193Y11757810D02*
Y11833985D01*
X4116281D01*
X4128977Y11821290D01*
Y11795898D01*
X4116281Y11783202D01*
X4078193D01*
X10718790Y11757810D02*
Y11833985D01*
X10756878D01*
X10769574Y11821290D01*
Y11795898D01*
X10756878Y11783202D01*
X10718790D01*
X10744182D02*
X10769574Y11757810D01*
X10794965Y11833985D02*
X10845749D01*
Y11821290D01*
X10794965Y11770506D01*
Y11757810D01*
X10871141Y11745114D02*
X10921924D01*
X10947316Y11833985D02*
Y11757810D01*
X10985404D01*
X10998100Y11770506D01*
Y11821290D01*
X10985404Y11833985D01*
X10947316D01*
X11023492D02*
X11074275Y11757810D01*
Y11833985D02*
X11023492Y11757810D01*
X11099667Y11745114D02*
X11150450D01*
X11175842Y11833985D02*
X11226626D01*
X11201234D01*
Y11757810D01*
X11290105Y11833985D02*
X11264714D01*
X11252018Y11821290D01*
Y11770506D01*
X11264714Y11757810D01*
X11290105D01*
X11302801Y11770506D01*
Y11821290D01*
X11290105Y11833985D01*
X11328193Y11757810D02*
Y11833985D01*
X11366281D01*
X11378976Y11821290D01*
Y11795898D01*
X11366281Y11783202D01*
X11328193D01*
X7093790Y11757810D02*
Y11833985D01*
X7131878D01*
X7144573Y11821290D01*
Y11795898D01*
X7131878Y11783202D01*
X7093790D01*
X7119182D02*
X7144573Y11757810D01*
X7169965Y11833985D02*
X7220749D01*
Y11821290D01*
X7169965Y11770506D01*
Y11757810D01*
X7246141Y11745114D02*
X7296924D01*
X7322316Y11833985D02*
Y11757810D01*
X7360404D01*
X7373100Y11770506D01*
Y11783202D01*
X7360404Y11795898D01*
X7322316D01*
X7360404D01*
X7373100Y11808594D01*
Y11821290D01*
X7360404Y11833985D01*
X7322316D01*
X7398491D02*
X7449275D01*
X7423883D01*
Y11757810D01*
X7474667D02*
Y11833985D01*
X7525450Y11757810D01*
Y11833985D01*
X7550842Y11745114D02*
X7601626D01*
X7627018Y11833985D02*
X7677801D01*
X7652409D01*
Y11757810D01*
X7741281Y11833985D02*
X7715889D01*
X7703193Y11821290D01*
Y11770506D01*
X7715889Y11757810D01*
X7741281D01*
X7753976Y11770506D01*
Y11821290D01*
X7741281Y11833985D01*
X7779368Y11757810D02*
Y11833985D01*
X7817456D01*
X7830152Y11821290D01*
Y11795898D01*
X7817456Y11783202D01*
X7779368D01*
X4309569Y10343787D02*
X4322265Y10356482D01*
Y10381874D01*
X4309569Y10394570D01*
X4258786D01*
X4246090Y10381874D01*
Y10356482D01*
X4258786Y10343787D01*
X4322265Y10318395D02*
Y10267611D01*
X4309569D01*
X4258786Y10318395D01*
X4246090D01*
X4233394Y10242219D02*
Y10191436D01*
X4309569Y10115260D02*
X4322265Y10127956D01*
Y10153348D01*
X4309569Y10166044D01*
X4296874D01*
X4284178Y10153348D01*
Y10127956D01*
X4271482Y10115260D01*
X4258786D01*
X4246090Y10127956D01*
Y10153348D01*
X4258786Y10166044D01*
X4322265Y10089869D02*
X4246090Y10039085D01*
X4322265D02*
X4246090Y10089869D01*
X4233394Y10013693D02*
Y9962910D01*
X4322265Y9937518D02*
Y9886734D01*
Y9912126D01*
X4246090D01*
X4322265Y9823255D02*
Y9848647D01*
X4309569Y9861342D01*
X4258786D01*
X4246090Y9848647D01*
Y9823255D01*
X4258786Y9810559D01*
X4309569D01*
X4322265Y9823255D01*
X4246090Y9785167D02*
X4322265D01*
Y9747079D01*
X4309569Y9734384D01*
X4284178D01*
X4271482Y9747079D01*
Y9785167D01*
X11559569Y10343787D02*
X11572265Y10356482D01*
Y10381874D01*
X11559569Y10394570D01*
X11508786D01*
X11496090Y10381874D01*
Y10356482D01*
X11508786Y10343787D01*
X11572265Y10318395D02*
Y10267611D01*
X11559569D01*
X11508786Y10318395D01*
X11496090D01*
X11483394Y10242219D02*
Y10191436D01*
X11572265Y10166044D02*
X11496090D01*
Y10127956D01*
X11508786Y10115260D01*
X11559569D01*
X11572265Y10127956D01*
Y10166044D01*
Y10089869D02*
X11496090Y10039085D01*
X11572265D02*
X11496090Y10089869D01*
X11483394Y10013693D02*
Y9962910D01*
X11572265Y9937518D02*
Y9886734D01*
Y9912126D01*
X11496090D01*
X11572265Y9823255D02*
Y9848647D01*
X11559569Y9861342D01*
X11508786D01*
X11496090Y9848647D01*
Y9823255D01*
X11508786Y9810559D01*
X11559569D01*
X11572265Y9823255D01*
X11496090Y9785167D02*
X11572265D01*
Y9747079D01*
X11559569Y9734384D01*
X11534178D01*
X11521482Y9747079D01*
Y9785167D01*
X7934569Y10419962D02*
X7947265Y10432658D01*
Y10458049D01*
X7934569Y10470745D01*
X7883786D01*
X7871090Y10458049D01*
Y10432658D01*
X7883786Y10419962D01*
X7947265Y10394570D02*
Y10343787D01*
X7934569D01*
X7883786Y10394570D01*
X7871090D01*
X7858394Y10318395D02*
Y10267611D01*
X7947265Y10242219D02*
X7871090D01*
Y10204131D01*
X7883786Y10191436D01*
X7896482D01*
X7909178Y10204131D01*
Y10242219D01*
Y10204131D01*
X7921873Y10191436D01*
X7934569D01*
X7947265Y10204131D01*
Y10242219D01*
Y10166044D02*
Y10115260D01*
Y10140652D01*
X7871090D01*
Y10089869D02*
X7947265D01*
X7871090Y10039085D01*
X7947265D01*
X7858394Y10013693D02*
Y9962910D01*
X7947265Y9937518D02*
Y9886734D01*
Y9912126D01*
X7871090D01*
X7947265Y9823255D02*
Y9848647D01*
X7934569Y9861342D01*
X7883786D01*
X7871090Y9848647D01*
Y9823255D01*
X7883786Y9810559D01*
X7934569D01*
X7947265Y9823255D01*
X7871090Y9785167D02*
X7947265D01*
Y9747079D01*
X7934569Y9734384D01*
X7909178D01*
X7896482Y9747079D01*
Y9785167D01*
X14134554Y11299595D02*
Y11375770D01*
X14083771D01*
X14007594Y11299595D02*
X14058379D01*
Y11375770D01*
X14007594D01*
X14058379Y11337682D02*
X14032986D01*
X13982204Y11299595D02*
Y11375770D01*
X13944115D01*
X13931419Y11363074D01*
Y11312291D01*
X13944115Y11299595D01*
X13982204D01*
X13906027Y11388466D02*
X13855244D01*
X13829852Y11299595D02*
Y11375770D01*
Y11350378D01*
X13779068Y11299595D01*
X13817155Y11337682D01*
X13779068Y11375770D01*
X13753677D02*
X13728285D01*
X13740981D01*
Y11299595D01*
X13753677Y11312291D01*
X13639413Y11299595D02*
X13664806Y11312291D01*
X13690198Y11337682D01*
Y11363074D01*
X13677501Y11375770D01*
X13652109D01*
X13639413Y11363074D01*
Y11350378D01*
X13652109Y11337682D01*
X13690198D01*
X11288895Y7727359D02*
X11365070D01*
Y7778143D01*
X11288895Y7854318D02*
Y7803535D01*
X11365070D01*
Y7854318D01*
X11326982Y7803535D02*
Y7828926D01*
X11288895Y7879710D02*
X11365070D01*
Y7917798D01*
X11352374Y7930493D01*
X11301591D01*
X11288895Y7917798D01*
Y7879710D01*
X11377766Y7955885D02*
Y8006669D01*
X11288895Y8032061D02*
X11365070D01*
X11339678D01*
X11288895Y8082844D01*
X11326982Y8044757D01*
X11365070Y8082844D01*
Y8108236D02*
Y8133628D01*
Y8120932D01*
X11288895D01*
X11301591Y8108236D01*
X11365070Y8222499D02*
Y8171715D01*
X11314287Y8222499D01*
X11301591D01*
X11288895Y8209803D01*
Y8184411D01*
X11301591Y8171715D01*
X7586595Y11474247D02*
X7662770D01*
Y11525030D01*
X7586595Y11601205D02*
Y11550422D01*
X7662770D01*
Y11601205D01*
X7624682Y11550422D02*
Y11575814D01*
X7586595Y11626597D02*
X7662770D01*
Y11664685D01*
X7650074Y11677381D01*
X7599291D01*
X7586595Y11664685D01*
Y11626597D01*
X7675466Y11702773D02*
Y11753556D01*
X7586595Y11778948D02*
X7662770D01*
X7637378D01*
X7586595Y11829731D01*
X7624682Y11791644D01*
X7662770Y11829731D01*
Y11855123D02*
Y11880515D01*
Y11867819D01*
X7586595D01*
X7599291Y11855123D01*
X7586595Y11969386D02*
Y11918603D01*
X7624682D01*
X7611987Y11943995D01*
Y11956691D01*
X7624682Y11969386D01*
X7650074D01*
X7662770Y11956691D01*
Y11931299D01*
X7650074Y11918603D01*
X10610200Y10456293D02*
X10534024D01*
Y10405509D01*
X10610200Y10329334D02*
Y10380117D01*
X10534024D01*
Y10329334D01*
X10572112Y10380117D02*
Y10354725D01*
X10610200Y10303942D02*
X10534024D01*
Y10265854D01*
X10546720Y10253158D01*
X10597504D01*
X10610200Y10265854D01*
Y10303942D01*
X10521328Y10227766D02*
Y10176983D01*
X10610200Y10151591D02*
X10534024D01*
X10559416D01*
X10610200Y10100808D01*
X10572112Y10138895D01*
X10534024Y10100808D01*
Y10075416D02*
Y10050024D01*
Y10062720D01*
X10610200D01*
X10597504Y10075416D01*
X10534024Y10011936D02*
Y9986544D01*
Y9999240D01*
X10610200D01*
X10597504Y10011936D01*
X13628362Y13552525D02*
Y13603310D01*
X13552187D01*
Y13552525D01*
X13590274Y13603310D02*
Y13577917D01*
X13552187Y13527135D02*
X13628362D01*
X13552187Y13476350D01*
X13628362D01*
X13615665Y13400175D02*
X13628362Y13412871D01*
Y13438261D01*
X13615665Y13450958D01*
X13564882D01*
X13552187Y13438261D01*
Y13412871D01*
X13564882Y13400175D01*
X13539490Y13374783D02*
Y13324001D01*
X13628362Y13298608D02*
X13552187D01*
X13577579D01*
X13628362Y13247824D01*
X13590274Y13285912D01*
X13552187Y13247824D01*
Y13222432D02*
Y13197040D01*
Y13209737D01*
X13628362D01*
X13615665Y13222432D01*
X13628362Y13108170D02*
X13615665Y13133562D01*
X13590274Y13158952D01*
X13564882D01*
X13552187Y13146257D01*
Y13120865D01*
X13564882Y13108170D01*
X13577579D01*
X13590274Y13120865D01*
Y13158952D01*
X11958139Y8404166D02*
Y8353383D01*
X12034314D01*
Y8404166D01*
X11996226Y8353383D02*
Y8378774D01*
X12034314Y8429558D02*
X11958139D01*
X12034314Y8480341D01*
X11958139D01*
X11970835Y8556517D02*
X11958139Y8543821D01*
Y8518429D01*
X11970835Y8505733D01*
X12021618D01*
X12034314Y8518429D01*
Y8543821D01*
X12021618Y8556517D01*
X12047010Y8581909D02*
Y8632692D01*
X11958139Y8658084D02*
X12034314D01*
X12008922D01*
X11958139Y8708868D01*
X11996226Y8670780D01*
X12034314Y8708868D01*
Y8734259D02*
Y8759651D01*
Y8746955D01*
X11958139D01*
X11970835Y8734259D01*
X12034314Y8848522D02*
Y8797739D01*
X11983531Y8848522D01*
X11970835D01*
X11958139Y8835827D01*
Y8810435D01*
X11970835Y8797739D01*
X9935961Y13552525D02*
Y13603310D01*
X9859786D01*
Y13552525D01*
X9897874Y13603310D02*
Y13577917D01*
X9859786Y13527135D02*
X9935961D01*
X9859786Y13476350D01*
X9935961D01*
X9923265Y13400175D02*
X9935961Y13412871D01*
Y13438261D01*
X9923265Y13450958D01*
X9872482D01*
X9859786Y13438261D01*
Y13412871D01*
X9872482Y13400175D01*
X9847090Y13374783D02*
Y13324001D01*
X9935961Y13298608D02*
X9859786D01*
X9885178D01*
X9935961Y13247824D01*
X9897874Y13285912D01*
X9859786Y13247824D01*
Y13222432D02*
Y13197040D01*
Y13209737D01*
X9935961D01*
X9923265Y13222432D01*
X9935961Y13108170D02*
Y13158952D01*
X9897874D01*
X9910569Y13133562D01*
Y13120865D01*
X9897874Y13108170D01*
X9872482D01*
X9859786Y13120865D01*
Y13146257D01*
X9872482Y13158952D01*
X8265738Y8404166D02*
Y8353383D01*
X8341914D01*
Y8404166D01*
X8303826Y8353383D02*
Y8378775D01*
X8341914Y8429558D02*
X8265738D01*
X8341914Y8480342D01*
X8265738D01*
X8278434Y8556517D02*
X8265738Y8543821D01*
Y8518429D01*
X8278434Y8505734D01*
X8329218D01*
X8341914Y8518429D01*
Y8543821D01*
X8329218Y8556517D01*
X8354610Y8581909D02*
Y8632692D01*
X8265738Y8658084D02*
X8341914D01*
X8316522D01*
X8265738Y8708868D01*
X8303826Y8670780D01*
X8341914Y8708868D01*
Y8734260D02*
Y8759652D01*
Y8746956D01*
X8265738D01*
X8278434Y8734260D01*
X8341914Y8797739D02*
Y8823131D01*
Y8810435D01*
X8265738D01*
X8278434Y8797739D01*
X13820970Y11377790D02*
X13833665Y11365094D01*
X13859058D01*
X13871754Y11377790D01*
Y11428574D01*
X13859058Y11441270D01*
X13833665D01*
X13820970Y11428574D01*
X13757491Y11441270D02*
Y11365094D01*
X13795578Y11403182D01*
X13744795D01*
X13719403Y11453966D02*
X13668620D01*
X13643228Y11365094D02*
Y11441270D01*
Y11415878D01*
X13592444Y11365094D01*
X13630531Y11403182D01*
X13592444Y11441270D01*
X13567052D02*
X13541660D01*
X13554356D01*
Y11365094D01*
X13567052Y11377790D01*
X13452789Y11365094D02*
X13478181Y11377790D01*
X13503574Y11403182D01*
Y11428574D01*
X13490877Y11441270D01*
X13465485D01*
X13452789Y11428574D01*
Y11415878D01*
X13465485Y11403182D01*
X13503574D01*
X11375090Y8007742D02*
X11362394Y7995046D01*
Y7969655D01*
X11375090Y7956959D01*
X11425874D01*
X11438570Y7969655D01*
Y7995046D01*
X11425874Y8007742D01*
X11438570Y8071222D02*
X11362394D01*
X11400482Y8033134D01*
Y8083918D01*
X11451266Y8109309D02*
Y8160093D01*
X11362394Y8185485D02*
X11438570D01*
X11413178D01*
X11362394Y8236268D01*
X11400482Y8198181D01*
X11438570Y8236268D01*
Y8261660D02*
Y8287052D01*
Y8274356D01*
X11362394D01*
X11375090Y8261660D01*
X11438570Y8375923D02*
Y8325140D01*
X11387786Y8375923D01*
X11375090D01*
X11362394Y8363227D01*
Y8337835D01*
X11375090Y8325140D01*
X7687690Y13839430D02*
X7674994Y13826733D01*
Y13801341D01*
X7687690Y13788646D01*
X7738474D01*
X7751170Y13801341D01*
Y13826733D01*
X7738474Y13839430D01*
X7751170Y13902908D02*
X7674994D01*
X7713082Y13864821D01*
Y13915605D01*
X7763866Y13940997D02*
Y13991780D01*
X7674994Y14017172D02*
X7751170D01*
X7725778D01*
X7674994Y14067957D01*
X7713082Y14029868D01*
X7751170Y14067957D01*
Y14093347D02*
Y14118739D01*
Y14106042D01*
X7674994D01*
X7687690Y14093347D01*
X7674994Y14207610D02*
Y14156827D01*
X7713082D01*
X7700386Y14182219D01*
Y14194914D01*
X7713082Y14207610D01*
X7738474D01*
X7751170Y14194914D01*
Y14169524D01*
X7738474Y14156827D01*
X10534004Y8116370D02*
X10546700Y8129066D01*
Y8154458D01*
X10534004Y8167154D01*
X10483221D01*
X10470525Y8154458D01*
Y8129066D01*
X10483221Y8116370D01*
X10470525Y8052891D02*
X10546700D01*
X10508613Y8090978D01*
Y8040195D01*
X10457829Y8014803D02*
Y7964020D01*
X10546700Y7938628D02*
X10470525D01*
X10495917D01*
X10546700Y7887844D01*
X10508613Y7925932D01*
X10470525Y7887844D01*
Y7862452D02*
Y7837061D01*
Y7849756D01*
X10546700D01*
X10534004Y7862452D01*
X10470525Y7798973D02*
Y7773581D01*
Y7786277D01*
X10546700D01*
X10534004Y7798973D01*
X13271175Y11851514D02*
X13283870Y11864209D01*
Y11889601D01*
X13271175Y11902297D01*
X13220390D01*
X13207695Y11889601D01*
Y11864209D01*
X13220390Y11851514D01*
X13271175Y11826122D02*
X13283870Y11813426D01*
Y11788034D01*
X13271175Y11775338D01*
X13258478D01*
X13245782Y11788034D01*
Y11800730D01*
Y11788034D01*
X13233087Y11775338D01*
X13220390D01*
X13207695Y11788034D01*
Y11813426D01*
X13220390Y11826122D01*
X13195000Y11749947D02*
Y11699163D01*
X13283870Y11673771D02*
X13207695D01*
X13233087D01*
X13283870Y11622988D01*
X13245782Y11661075D01*
X13207695Y11622988D01*
Y11597596D02*
Y11572204D01*
Y11584900D01*
X13283870D01*
X13271175Y11597596D01*
X13283870Y11483333D02*
X13271175Y11508725D01*
X13245782Y11534116D01*
X13220390D01*
X13207695Y11521420D01*
Y11496029D01*
X13220390Y11483333D01*
X13233087D01*
X13245782Y11496029D01*
Y11534116D01*
X12315326Y10105178D02*
X12302630Y10092482D01*
Y10067090D01*
X12315326Y10054394D01*
X12366109D01*
X12378805Y10067090D01*
Y10092482D01*
X12366109Y10105178D01*
X12315326Y10130570D02*
X12302630Y10143266D01*
Y10168658D01*
X12315326Y10181353D01*
X12328022D01*
X12340717Y10168658D01*
Y10155962D01*
Y10168658D01*
X12353413Y10181353D01*
X12366109D01*
X12378805Y10168658D01*
Y10143266D01*
X12366109Y10130570D01*
X12391501Y10206745D02*
Y10257529D01*
X12302630Y10282921D02*
X12378805D01*
X12353413D01*
X12302630Y10333704D01*
X12340717Y10295616D01*
X12378805Y10333704D01*
Y10359096D02*
Y10384488D01*
Y10371792D01*
X12302630D01*
X12315326Y10359096D01*
X12378805Y10473359D02*
Y10422575D01*
X12328022Y10473359D01*
X12315326D01*
X12302630Y10460663D01*
Y10435271D01*
X12315326Y10422575D01*
X9578774Y11851514D02*
X9591470Y11864209D01*
Y11889601D01*
X9578774Y11902297D01*
X9527991D01*
X9515295Y11889601D01*
Y11864209D01*
X9527991Y11851514D01*
X9578774Y11826122D02*
X9591470Y11813426D01*
Y11788034D01*
X9578774Y11775338D01*
X9566078D01*
X9553382Y11788034D01*
Y11800730D01*
Y11788034D01*
X9540687Y11775338D01*
X9527991D01*
X9515295Y11788034D01*
Y11813426D01*
X9527991Y11826122D01*
X9502599Y11749947D02*
Y11699163D01*
X9591470Y11673771D02*
X9515295D01*
X9540687D01*
X9591470Y11622988D01*
X9553382Y11661075D01*
X9515295Y11622988D01*
Y11597596D02*
Y11572204D01*
Y11584900D01*
X9591470D01*
X9578774Y11597596D01*
X9591470Y11483333D02*
Y11534116D01*
X9553382D01*
X9566078Y11508725D01*
Y11496029D01*
X9553382Y11483333D01*
X9527991D01*
X9515295Y11496029D01*
Y11521420D01*
X9527991Y11534116D01*
X8622926Y10105178D02*
X8610230Y10092482D01*
Y10067090D01*
X8622926Y10054394D01*
X8673709D01*
X8686405Y10067090D01*
Y10092482D01*
X8673709Y10105178D01*
X8622926Y10130570D02*
X8610230Y10143266D01*
Y10168658D01*
X8622926Y10181353D01*
X8635622D01*
X8648317Y10168658D01*
Y10155962D01*
Y10168658D01*
X8661013Y10181353D01*
X8673709D01*
X8686405Y10168658D01*
Y10143266D01*
X8673709Y10130570D01*
X8699101Y10206745D02*
Y10257529D01*
X8610230Y10282921D02*
X8686405D01*
X8661013D01*
X8610230Y10333704D01*
X8648317Y10295616D01*
X8686405Y10333704D01*
Y10359096D02*
Y10384488D01*
Y10371792D01*
X8610230D01*
X8622926Y10359096D01*
X8686405Y10422575D02*
Y10447967D01*
Y10435271D01*
X8610230D01*
X8622926Y10422575D01*
X8071830Y12199530D02*
X8084526Y12186834D01*
X8109917D01*
X8122613Y12199530D01*
Y12250314D01*
X8109917Y12263010D01*
X8084526D01*
X8071830Y12250314D01*
X7995655Y12263010D02*
X8046438D01*
X7995655Y12212226D01*
Y12199530D01*
X8008350Y12186834D01*
X8033742D01*
X8046438Y12199530D01*
X7970263Y12275706D02*
X7919479D01*
X7894087Y12186834D02*
Y12263010D01*
Y12237618D01*
X7843304Y12186834D01*
X7881391Y12224922D01*
X7843304Y12263010D01*
X7817912D02*
X7792520D01*
X7805216D01*
Y12186834D01*
X7817912Y12199530D01*
X7703649Y12186834D02*
X7729041Y12199530D01*
X7754433Y12224922D01*
Y12250314D01*
X7741737Y12263010D01*
X7716345D01*
X7703649Y12250314D01*
Y12237618D01*
X7716345Y12224922D01*
X7754433D01*
X11842778Y9779070D02*
X11830082Y9791766D01*
X11804690D01*
X11791994Y9779070D01*
Y9728286D01*
X11804690Y9715590D01*
X11830082D01*
X11842778Y9728286D01*
X11918953Y9715590D02*
X11868170D01*
X11918953Y9766374D01*
Y9779070D01*
X11906257Y9791766D01*
X11880865D01*
X11868170Y9779070D01*
X11944345Y9702894D02*
X11995128D01*
X12020520Y9791766D02*
Y9715590D01*
Y9740982D01*
X12071304Y9791766D01*
X12033216Y9753678D01*
X12071304Y9715590D01*
X12096696D02*
X12122088D01*
X12109392D01*
Y9791766D01*
X12096696Y9779070D01*
X12210959Y9715590D02*
X12160175D01*
X12210959Y9766374D01*
Y9779070D01*
X12198263Y9791766D01*
X12172871D01*
X12160175Y9779070D01*
X8030370Y13483569D02*
X8017674Y13496266D01*
X7992282D01*
X7979586Y13483569D01*
Y13432787D01*
X7992282Y13420090D01*
X8017674D01*
X8030370Y13432787D01*
X8106545Y13420090D02*
X8055761D01*
X8106545Y13470874D01*
Y13483569D01*
X8093849Y13496266D01*
X8068457D01*
X8055761Y13483569D01*
X8131937Y13407394D02*
X8182720D01*
X8208112Y13496266D02*
Y13420090D01*
Y13445482D01*
X8258896Y13496266D01*
X8220808Y13458179D01*
X8258896Y13420090D01*
X8284287D02*
X8309679D01*
X8296983D01*
Y13496266D01*
X8284287Y13483569D01*
X8398550Y13496266D02*
X8347767D01*
Y13458179D01*
X8373159Y13470874D01*
X8385855D01*
X8398550Y13458179D01*
Y13432787D01*
X8385855Y13420090D01*
X8360463D01*
X8347767Y13432787D01*
X8173970Y9640870D02*
X8161274Y9653566D01*
X8135882D01*
X8123186Y9640870D01*
Y9590086D01*
X8135882Y9577390D01*
X8161274D01*
X8173970Y9590086D01*
X8250145Y9577390D02*
X8199362D01*
X8250145Y9628174D01*
Y9640870D01*
X8237449Y9653566D01*
X8212057D01*
X8199362Y9640870D01*
X8275537Y9564694D02*
X8326320D01*
X8351712Y9653566D02*
Y9577390D01*
Y9602782D01*
X8402496Y9653566D01*
X8364408Y9615478D01*
X8402496Y9577390D01*
X8427888D02*
X8453280D01*
X8440584D01*
Y9653566D01*
X8427888Y9640870D01*
X8491367Y9577390D02*
X8516759D01*
X8504063D01*
Y9653566D01*
X8491367Y9640870D01*
X13093912Y11751780D02*
X13106607Y11739084D01*
X13131999D01*
X13144695Y11751780D01*
Y11802564D01*
X13131999Y11815260D01*
X13106607D01*
X13093912Y11802564D01*
X13068520Y11815260D02*
X13043127D01*
X13055823D01*
Y11739084D01*
X13068520Y11751780D01*
X13005040Y11827956D02*
X12954256D01*
X12928864Y11739084D02*
Y11815260D01*
Y11789868D01*
X12878081Y11739084D01*
X12916168Y11777172D01*
X12878081Y11815260D01*
X12852689D02*
X12827296D01*
X12839993D01*
Y11739084D01*
X12852689Y11751780D01*
X12738426Y11739084D02*
X12763818Y11751780D01*
X12789210Y11777172D01*
Y11802564D01*
X12776514Y11815260D01*
X12751122D01*
X12738426Y11802564D01*
Y11789868D01*
X12751122Y11777172D01*
X12789210D01*
X12469197Y10178919D02*
X12456502Y10191615D01*
X12431110D01*
X12418414Y10178919D01*
Y10128136D01*
X12431110Y10115440D01*
X12456502D01*
X12469197Y10128136D01*
X12494589Y10115440D02*
X12519981D01*
X12507285D01*
Y10191615D01*
X12494589Y10178919D01*
X12558069Y10102744D02*
X12608852D01*
X12634244Y10191615D02*
Y10115440D01*
Y10140832D01*
X12685027Y10191615D01*
X12646940Y10153528D01*
X12685027Y10115440D01*
X12710419D02*
X12735811D01*
X12723115D01*
Y10191615D01*
X12710419Y10178919D01*
X12824683Y10115440D02*
X12773899D01*
X12824683Y10166224D01*
Y10178919D01*
X12811987Y10191615D01*
X12786595D01*
X12773899Y10178919D01*
X9401015Y11751281D02*
X9413711Y11738585D01*
X9439103D01*
X9451799Y11751281D01*
Y11802064D01*
X9439103Y11814760D01*
X9413711D01*
X9401015Y11802064D01*
X9375624Y11814760D02*
X9350232D01*
X9362928D01*
Y11738585D01*
X9375624Y11751281D01*
X9312144Y11827456D02*
X9261361D01*
X9235969Y11738585D02*
Y11814760D01*
Y11789368D01*
X9185185Y11738585D01*
X9223273Y11776672D01*
X9185185Y11814760D01*
X9159793D02*
X9134402D01*
X9147098D01*
Y11738585D01*
X9159793Y11751281D01*
X9045531Y11738585D02*
X9096314D01*
Y11776672D01*
X9070922Y11763976D01*
X9058226D01*
X9045531Y11776672D01*
Y11802064D01*
X9058226Y11814760D01*
X9083618D01*
X9096314Y11802064D01*
X8800789Y10187720D02*
X8788093Y10200415D01*
X8762702D01*
X8750006Y10187720D01*
Y10136936D01*
X8762702Y10124240D01*
X8788093D01*
X8800789Y10136936D01*
X8826181Y10124240D02*
X8851573D01*
X8838877D01*
Y10200415D01*
X8826181Y10187720D01*
X8889660Y10111544D02*
X8940444D01*
X8965836Y10200415D02*
Y10124240D01*
Y10149632D01*
X9016619Y10200415D01*
X8978532Y10162328D01*
X9016619Y10124240D01*
X9042011D02*
X9067403D01*
X9054707D01*
Y10200415D01*
X9042011Y10187720D01*
X9105491Y10124240D02*
X9130882D01*
X9118186D01*
Y10200415D01*
X9105491Y10187720D01*
X12779050Y11596125D02*
Y11532646D01*
X12791746Y11519950D01*
X12817139D01*
X12829834Y11532646D01*
Y11596125D01*
X12906009Y11519950D02*
X12855225D01*
X12906009Y11570733D01*
Y11583429D01*
X12893314Y11596125D01*
X12867921D01*
X12855225Y11583429D01*
X1270443Y8008169D02*
X1257747Y8020865D01*
X1232355D01*
X1219659Y8008169D01*
Y7995473D01*
X1232355Y7982778D01*
X1257747D01*
X1270443Y7970082D01*
Y7957386D01*
X1257747Y7944690D01*
X1232355D01*
X1219659Y7957386D01*
X1295835Y7944690D02*
Y8020865D01*
X1333922D01*
X1346618Y8008169D01*
Y7982778D01*
X1333922Y7970082D01*
X1295835D01*
X1321226D02*
X1346618Y7944690D01*
X1372010Y7931994D02*
X1422793D01*
X1448185Y8020865D02*
Y7944690D01*
X1486273D01*
X1498969Y7957386D01*
Y7970082D01*
X1486273Y7982778D01*
X1448185D01*
X1486273D01*
X1498969Y7995473D01*
Y8008169D01*
X1486273Y8020865D01*
X1448185D01*
X1524361D02*
X1575144D01*
X1549753D01*
Y7944690D01*
X1600536D02*
Y8020865D01*
X1651320Y7944690D01*
Y8020865D01*
X1676711Y7931994D02*
X1727495D01*
X1803670Y8020865D02*
X1752887D01*
Y7982778D01*
X1778279D01*
X1752887D01*
Y7944690D01*
X1829062Y8020865D02*
Y7957386D01*
X1841758Y7944690D01*
X1867150D01*
X1879846Y7957386D01*
Y8020865D01*
X1905237Y7944690D02*
Y8020865D01*
X1956021Y7944690D01*
Y8020865D01*
X2032196Y8008169D02*
X2019501Y8020865D01*
X1994109D01*
X1981413Y8008169D01*
Y7957386D01*
X1994109Y7944690D01*
X2019501D01*
X2032196Y7957386D01*
X13535890Y11104890D02*
Y11181065D01*
X13573978D01*
X13586673Y11168369D01*
Y11142978D01*
X13573978Y11130282D01*
X13535890D01*
X13561281D02*
X13586673Y11104890D01*
X13662848Y11181065D02*
X13637457Y11168369D01*
X13612065Y11142978D01*
Y11117586D01*
X13624760Y11104890D01*
X13650153D01*
X13662848Y11117586D01*
Y11130282D01*
X13650153Y11142978D01*
X13612065D01*
X13522894Y10800790D02*
Y10876965D01*
X13560982D01*
X13573677Y10864269D01*
Y10838878D01*
X13560982Y10826182D01*
X13522894D01*
X13548286D02*
X13573677Y10800790D01*
X13649854Y10876965D02*
X13599069D01*
Y10838878D01*
X13624461Y10851573D01*
X13637157D01*
X13649854Y10838878D01*
Y10813486D01*
X13637157Y10800790D01*
X13611765D01*
X13599069Y10813486D01*
X12660810Y10550110D02*
Y10473935D01*
X12622723D01*
X12610027Y10486631D01*
Y10512022D01*
X12622723Y10524718D01*
X12660810D01*
X12635418D02*
X12610027Y10550110D01*
X12546547D02*
Y10473935D01*
X12584635Y10512022D01*
X12533851D01*
X11336390Y11630750D02*
X11412565D01*
Y11592662D01*
X11399869Y11579966D01*
X11374478D01*
X11361782Y11592662D01*
Y11630750D01*
Y11605358D02*
X11336390Y11579966D01*
X11399869Y11554574D02*
X11412565Y11541878D01*
Y11516486D01*
X11399869Y11503791D01*
X11387173D01*
X11374478Y11516486D01*
Y11529182D01*
Y11516486D01*
X11361782Y11503791D01*
X11349086D01*
X11336390Y11516486D01*
Y11541878D01*
X11349086Y11554574D01*
X11459890Y11630950D02*
X11536065D01*
Y11592862D01*
X11523369Y11580166D01*
X11497978D01*
X11485282Y11592862D01*
Y11630950D01*
Y11605558D02*
X11459890Y11580166D01*
Y11503991D02*
Y11554774D01*
X11510673Y11503991D01*
X11523369D01*
X11536065Y11516687D01*
Y11542079D01*
X11523369Y11554774D01*
X13087610Y11500946D02*
X13011435D01*
Y11539034D01*
X13024130Y11551729D01*
X13049522D01*
X13062218Y11539034D01*
Y11500946D01*
Y11526338D02*
X13087610Y11551729D01*
Y11577121D02*
Y11602513D01*
Y11589817D01*
X13011435D01*
X13024130Y11577121D01*
X2682810Y7558561D02*
X2758985D01*
Y7520473D01*
X2746289Y7507777D01*
X2720898D01*
X2708202Y7520473D01*
Y7558561D01*
Y7533169D02*
X2682810Y7507777D01*
X2746289Y7482385D02*
X2758985Y7469689D01*
Y7444298D01*
X2746289Y7431602D01*
X2733593D01*
X2720898Y7444298D01*
X2708202Y7431602D01*
X2695506D01*
X2682810Y7444298D01*
Y7469689D01*
X2695506Y7482385D01*
X2708202D01*
X2720898Y7469689D01*
X2733593Y7482385D01*
X2746289D01*
X2720898Y7469689D02*
Y7444298D01*
X2670114Y7406210D02*
Y7355426D01*
X2758985Y7330035D02*
X2682810D01*
Y7291947D01*
X2695506Y7279251D01*
X2708202D01*
X2720898Y7291947D01*
Y7330035D01*
Y7291947D01*
X2733593Y7279251D01*
X2746289D01*
X2758985Y7291947D01*
Y7330035D01*
Y7253859D02*
Y7203076D01*
Y7228467D01*
X2682810D01*
Y7177684D02*
X2758985D01*
X2682810Y7126900D01*
X2758985D01*
X2670114Y7101509D02*
Y7050725D01*
X2758985Y6974550D02*
Y7025333D01*
X2720898D01*
Y6999941D01*
Y7025333D01*
X2682810D01*
X2758985Y6949158D02*
X2695506D01*
X2682810Y6936462D01*
Y6911070D01*
X2695506Y6898374D01*
X2758985D01*
X2682810Y6872982D02*
X2758985D01*
X2682810Y6822199D01*
X2758985D01*
X2746289Y6746024D02*
X2758985Y6758719D01*
Y6784111D01*
X2746289Y6796807D01*
X2695506D01*
X2682810Y6784111D01*
Y6758719D01*
X2695506Y6746024D01*
X917190Y7093790D02*
X841015D01*
Y7131878D01*
X853711Y7144573D01*
X879102D01*
X891798Y7131878D01*
Y7093790D01*
Y7119182D02*
X917190Y7144573D01*
X841015Y7169965D02*
Y7220749D01*
X853711D01*
X904494Y7169965D01*
X917190D01*
X929886Y7246141D02*
Y7296924D01*
X841015Y7322316D02*
X917190D01*
Y7360404D01*
X904494Y7373100D01*
X891798D01*
X879102Y7360404D01*
Y7322316D01*
Y7360404D01*
X866406Y7373100D01*
X853711D01*
X841015Y7360404D01*
Y7322316D01*
Y7398491D02*
Y7449275D01*
Y7423883D01*
X917190D01*
Y7474667D02*
X841015D01*
X917190Y7525450D01*
X841015D01*
X929886Y7550842D02*
Y7601626D01*
X841015Y7677801D02*
Y7627018D01*
X879102D01*
Y7652409D01*
Y7627018D01*
X917190D01*
X841015Y7703193D02*
X904494D01*
X917190Y7715889D01*
Y7741281D01*
X904494Y7753976D01*
X841015D01*
X917190Y7779368D02*
X841015D01*
X917190Y7830152D01*
X841015D01*
X853711Y7906327D02*
X841015Y7893631D01*
Y7868240D01*
X853711Y7855544D01*
X904494D01*
X917190Y7868240D01*
Y7893631D01*
X904494Y7906327D01*
X11910370Y14531885D02*
Y14455710D01*
X11948458D01*
X11961153Y14468407D01*
Y14519189D01*
X11948458Y14531885D01*
X11910370D01*
X11986545Y14455710D02*
X12011937D01*
X11999241D01*
Y14531885D01*
X11986545Y14519189D01*
X13321352Y11187593D02*
X13308655Y11174898D01*
Y11149506D01*
X13321352Y11136810D01*
X13372134D01*
X13384830Y11149506D01*
Y11174898D01*
X13372134Y11187593D01*
X13308655Y11263769D02*
Y11212985D01*
X13346742D01*
X13334045Y11238377D01*
Y11251073D01*
X13346742Y11263769D01*
X13372134D01*
X13384830Y11251073D01*
Y11225681D01*
X13372134Y11212985D01*
X2178863Y7934569D02*
X2166167Y7947265D01*
X2140775D01*
X2128079Y7934569D01*
Y7883786D01*
X2140775Y7871090D01*
X2166167D01*
X2178863Y7883786D01*
X2204255Y7947265D02*
X2255038D01*
Y7934569D01*
X2204255Y7883786D01*
Y7871090D01*
X2280430Y7858394D02*
X2331214D01*
X2356605Y7947265D02*
Y7871090D01*
X2394693D01*
X2407389Y7883786D01*
Y7896482D01*
X2394693Y7909178D01*
X2356605D01*
X2394693D01*
X2407389Y7921873D01*
Y7934569D01*
X2394693Y7947265D01*
X2356605D01*
X2432781D02*
X2483564D01*
X2458173D01*
Y7871090D01*
X2508956D02*
Y7947265D01*
X2559740Y7871090D01*
Y7947265D01*
X2585131Y7858394D02*
X2635915D01*
X2712090Y7947265D02*
X2661307D01*
Y7909178D01*
X2686699D01*
X2661307D01*
Y7871090D01*
X2737482Y7947265D02*
Y7883786D01*
X2750178Y7871090D01*
X2775570D01*
X2788266Y7883786D01*
Y7947265D01*
X2813658Y7871090D02*
Y7947265D01*
X2864441Y7871090D01*
Y7947265D01*
X2940616Y7934569D02*
X2927921Y7947265D01*
X2902529D01*
X2889833Y7934569D01*
Y7883786D01*
X2902529Y7871090D01*
X2927921D01*
X2940616Y7883786D01*
X3975295Y13814931D02*
X3962599Y13802234D01*
Y13776842D01*
X3975295Y13764146D01*
X4026079D01*
X4038774Y13776842D01*
Y13802234D01*
X4026079Y13814931D01*
X4038774Y13878410D02*
X3962599D01*
X4000687Y13840321D01*
Y13891106D01*
X4051470Y13916496D02*
Y13967281D01*
X3962599Y13992673D02*
X4038774D01*
X4013383D01*
X3962599Y14043456D01*
X4000687Y14005368D01*
X4038774Y14043456D01*
Y14068848D02*
Y14094240D01*
Y14081544D01*
X3962599D01*
X3975295Y14068848D01*
X4038774Y14170415D02*
X3962599D01*
X4000687Y14132327D01*
Y14183112D01*
X3146709Y13877470D02*
X3159405Y13890166D01*
Y13915558D01*
X3146709Y13928255D01*
X3095926D01*
X3083230Y13915558D01*
Y13890166D01*
X3095926Y13877470D01*
X3083230Y13813991D02*
X3159405D01*
X3121318Y13852078D01*
Y13801295D01*
X3070534Y13775903D02*
Y13725121D01*
X3159405Y13699728D02*
X3083230D01*
X3108622D01*
X3159405Y13648944D01*
X3121318Y13687032D01*
X3083230Y13648944D01*
Y13623552D02*
Y13598161D01*
Y13610857D01*
X3159405D01*
X3146709Y13623552D01*
Y13560072D02*
X3159405Y13547377D01*
Y13521985D01*
X3146709Y13509290D01*
X3134014D01*
X3121318Y13521985D01*
Y13534682D01*
Y13521985D01*
X3108622Y13509290D01*
X3095926D01*
X3083230Y13521985D01*
Y13547377D01*
X3095926Y13560072D01*
X3990290Y8007742D02*
X3977594Y7995047D01*
Y7969655D01*
X3990290Y7956959D01*
X4041073D01*
X4053769Y7969655D01*
Y7995047D01*
X4041073Y8007742D01*
X4053769Y8071222D02*
X3977594D01*
X4015682Y8033134D01*
Y8083918D01*
X4066465Y8109310D02*
Y8160093D01*
X3977594Y8185485D02*
X4053769D01*
X4028378D01*
X3977594Y8236269D01*
X4015682Y8198181D01*
X4053769Y8236269D01*
Y8261660D02*
Y8287052D01*
Y8274356D01*
X3977594D01*
X3990290Y8261660D01*
Y8325140D02*
X3977594Y8337836D01*
Y8363228D01*
X3990290Y8375923D01*
X4041073D01*
X4053769Y8363228D01*
Y8337836D01*
X4041073Y8325140D01*
X3990290D01*
X3149204Y8154458D02*
X3161900Y8167153D01*
Y8192545D01*
X3149204Y8205241D01*
X3098421D01*
X3085725Y8192545D01*
Y8167153D01*
X3098421Y8154458D01*
X3085725Y8090978D02*
X3161900D01*
X3123812Y8129066D01*
Y8078282D01*
X3073029Y8052890D02*
Y8002107D01*
X3161900Y7976715D02*
X3085725D01*
X3111116D01*
X3161900Y7925932D01*
X3123812Y7964019D01*
X3085725Y7925932D01*
X3149204Y7900540D02*
X3161900Y7887844D01*
Y7862452D01*
X3149204Y7849756D01*
X3098421D01*
X3085725Y7862452D01*
Y7887844D01*
X3098421Y7900540D01*
X3149204D01*
X3098421Y7824364D02*
X3085725Y7811668D01*
Y7786277D01*
X3098421Y7773581D01*
X3149204D01*
X3161900Y7786277D01*
Y7811668D01*
X3149204Y7824364D01*
X3136508D01*
X3123812Y7811668D01*
Y7773581D01*
X5886374Y11851514D02*
X5899070Y11864209D01*
Y11889601D01*
X5886374Y11902297D01*
X5835590D01*
X5822894Y11889601D01*
Y11864209D01*
X5835590Y11851514D01*
X5886374Y11826122D02*
X5899070Y11813426D01*
Y11788034D01*
X5886374Y11775338D01*
X5873678D01*
X5860982Y11788034D01*
Y11800730D01*
Y11788034D01*
X5848286Y11775338D01*
X5835590D01*
X5822894Y11788034D01*
Y11813426D01*
X5835590Y11826122D01*
X5810198Y11749946D02*
Y11699163D01*
X5899070Y11673771D02*
X5822894D01*
X5848286D01*
X5899070Y11622987D01*
X5860982Y11661075D01*
X5822894Y11622987D01*
Y11597596D02*
Y11572204D01*
Y11584900D01*
X5899070D01*
X5886374Y11597596D01*
X5822894Y11496028D02*
X5899070D01*
X5860982Y11534116D01*
Y11483333D01*
X2193974Y11851514D02*
X2206670Y11864209D01*
Y11889601D01*
X2193974Y11902297D01*
X2143190D01*
X2130494Y11889601D01*
Y11864209D01*
X2143190Y11851514D01*
X2193974Y11826122D02*
X2206670Y11813426D01*
Y11788034D01*
X2193974Y11775338D01*
X2181278D01*
X2168582Y11788034D01*
Y11800730D01*
Y11788034D01*
X2155886Y11775338D01*
X2143190D01*
X2130494Y11788034D01*
Y11813426D01*
X2143190Y11826122D01*
X2117798Y11749946D02*
Y11699163D01*
X2206670Y11673771D02*
X2130494D01*
X2155886D01*
X2206670Y11622987D01*
X2168582Y11661075D01*
X2130494Y11622987D01*
Y11597596D02*
Y11572204D01*
Y11584900D01*
X2206670D01*
X2193974Y11597596D01*
Y11534116D02*
X2206670Y11521420D01*
Y11496028D01*
X2193974Y11483333D01*
X2181278D01*
X2168582Y11496028D01*
Y11508724D01*
Y11496028D01*
X2155886Y11483333D01*
X2143190D01*
X2130494Y11496028D01*
Y11521420D01*
X2143190Y11534116D01*
X4930526Y10105178D02*
X4917830Y10092482D01*
Y10067090D01*
X4930526Y10054394D01*
X4981309D01*
X4994005Y10067090D01*
Y10092482D01*
X4981309Y10105178D01*
X4930526Y10130570D02*
X4917830Y10143266D01*
Y10168658D01*
X4930526Y10181353D01*
X4943222D01*
X4955917Y10168658D01*
Y10155962D01*
Y10168658D01*
X4968613Y10181353D01*
X4981309D01*
X4994005Y10168658D01*
Y10143266D01*
X4981309Y10130570D01*
X5006701Y10206745D02*
Y10257529D01*
X4917830Y10282921D02*
X4994005D01*
X4968613D01*
X4917830Y10333704D01*
X4955917Y10295616D01*
X4994005Y10333704D01*
Y10359096D02*
Y10384488D01*
Y10371792D01*
X4917830D01*
X4930526Y10359096D01*
Y10422575D02*
X4917830Y10435271D01*
Y10460663D01*
X4930526Y10473359D01*
X4981309D01*
X4994005Y10460663D01*
Y10435271D01*
X4981309Y10422575D01*
X4930526D01*
X1238125Y10105178D02*
X1225429Y10092482D01*
Y10067091D01*
X1238125Y10054395D01*
X1288909D01*
X1301605Y10067091D01*
Y10092482D01*
X1288909Y10105178D01*
X1238125Y10130570D02*
X1225429Y10143266D01*
Y10168658D01*
X1238125Y10181354D01*
X1250821D01*
X1263517Y10168658D01*
Y10155962D01*
Y10168658D01*
X1276213Y10181354D01*
X1288909D01*
X1301605Y10168658D01*
Y10143266D01*
X1288909Y10130570D01*
X1314301Y10206745D02*
Y10257529D01*
X1225429Y10282921D02*
X1301605D01*
X1276213D01*
X1225429Y10333704D01*
X1263517Y10295617D01*
X1301605Y10333704D01*
X1238125Y10359096D02*
X1225429Y10371792D01*
Y10397184D01*
X1238125Y10409880D01*
X1288909D01*
X1301605Y10397184D01*
Y10371792D01*
X1288909Y10359096D01*
X1238125D01*
X1288909Y10435271D02*
X1301605Y10447967D01*
Y10473359D01*
X1288909Y10486055D01*
X1238125D01*
X1225429Y10473359D01*
Y10447967D01*
X1238125Y10435271D01*
X1250821D01*
X1263517Y10447967D01*
Y10486055D01*
X6351630Y13025031D02*
X6364326Y13012334D01*
X6389718D01*
X6402414Y13025031D01*
Y13075813D01*
X6389718Y13088510D01*
X6364326D01*
X6351630Y13075813D01*
X6275455Y13088510D02*
X6326239D01*
X6275455Y13037726D01*
Y13025031D01*
X6288151Y13012334D01*
X6313543D01*
X6326239Y13025031D01*
X6250063Y13101205D02*
X6199280D01*
X6173888Y13012334D02*
Y13088510D01*
Y13063118D01*
X6123104Y13012334D01*
X6161192Y13050423D01*
X6123104Y13088510D01*
X6097712D02*
X6072321D01*
X6085017D01*
Y13012334D01*
X6097712Y13025031D01*
X5996145Y13088510D02*
Y13012334D01*
X6034233Y13050423D01*
X5983450D01*
X3020770Y13362469D02*
X3008074Y13375166D01*
X2982682D01*
X2969986Y13362469D01*
Y13311687D01*
X2982682Y13298990D01*
X3008074D01*
X3020770Y13311687D01*
X3096945Y13298990D02*
X3046162D01*
X3096945Y13349774D01*
Y13362469D01*
X3084249Y13375166D01*
X3058857D01*
X3046162Y13362469D01*
X3122337Y13286295D02*
X3173120D01*
X3198512Y13375166D02*
Y13298990D01*
Y13324382D01*
X3249296Y13375166D01*
X3211208Y13337077D01*
X3249296Y13298990D01*
X3274688D02*
X3300080D01*
X3287384D01*
Y13375166D01*
X3274688Y13362469D01*
X3338167D02*
X3350863Y13375166D01*
X3376255D01*
X3388951Y13362469D01*
Y13349774D01*
X3376255Y13337077D01*
X3363559D01*
X3376255D01*
X3388951Y13324382D01*
Y13311687D01*
X3376255Y13298990D01*
X3350863D01*
X3338167Y13311687D01*
X6342021Y8507931D02*
X6354717Y8495235D01*
X6380109D01*
X6392805Y8507931D01*
Y8558714D01*
X6380109Y8571410D01*
X6354717D01*
X6342021Y8558714D01*
X6265846Y8571410D02*
X6316629D01*
X6265846Y8520627D01*
Y8507931D01*
X6278542Y8495235D01*
X6303934D01*
X6316629Y8507931D01*
X6240454Y8584106D02*
X6189671D01*
X6164279Y8495235D02*
Y8571410D01*
Y8546018D01*
X6113495Y8495235D01*
X6151583Y8533322D01*
X6113495Y8571410D01*
X6088103D02*
X6062712D01*
X6075407D01*
Y8495235D01*
X6088103Y8507931D01*
X6024624D02*
X6011928Y8495235D01*
X5986536D01*
X5973840Y8507931D01*
Y8558714D01*
X5986536Y8571410D01*
X6011928D01*
X6024624Y8558714D01*
Y8507931D01*
X2555382Y9772970D02*
X2542687Y9785665D01*
X2517295D01*
X2504599Y9772970D01*
Y9722186D01*
X2517295Y9709490D01*
X2542687D01*
X2555382Y9722186D01*
X2631558Y9709490D02*
X2580774D01*
X2631558Y9760274D01*
Y9772970D01*
X2618862Y9785665D01*
X2593470D01*
X2580774Y9772970D01*
X2656949Y9696794D02*
X2707733D01*
X2733125Y9785665D02*
Y9709490D01*
Y9734882D01*
X2783908Y9785665D01*
X2745821Y9747578D01*
X2783908Y9709490D01*
X2809300Y9772970D02*
X2821996Y9785665D01*
X2847388D01*
X2860084Y9772970D01*
Y9722186D01*
X2847388Y9709490D01*
X2821996D01*
X2809300Y9722186D01*
Y9772970D01*
X2885476Y9722186D02*
X2898171Y9709490D01*
X2923563D01*
X2936259Y9722186D01*
Y9772970D01*
X2923563Y9785665D01*
X2898171D01*
X2885476Y9772970D01*
Y9760274D01*
X2898171Y9747578D01*
X2936259D01*
X3899100Y11475007D02*
X3975275D01*
Y11525791D01*
X3899100Y11601966D02*
Y11551183D01*
X3975275D01*
Y11601966D01*
X3937187Y11551183D02*
Y11576575D01*
X3899100Y11627358D02*
X3975275D01*
Y11665446D01*
X3962579Y11678141D01*
X3911796D01*
X3899100Y11665446D01*
Y11627358D01*
X3987971Y11703533D02*
Y11754317D01*
X3899100Y11779709D02*
X3975275D01*
X3949883D01*
X3899100Y11830492D01*
X3937187Y11792405D01*
X3975275Y11830492D01*
Y11855884D02*
Y11881276D01*
Y11868580D01*
X3899100D01*
X3911796Y11855884D01*
X3975275Y11957451D02*
X3899100D01*
X3937187Y11919364D01*
Y11970147D01*
X3225305Y14160353D02*
X3149130D01*
Y14109570D01*
X3225305Y14033395D02*
Y14084178D01*
X3149130D01*
Y14033395D01*
X3187217Y14084178D02*
Y14058786D01*
X3225305Y14008003D02*
X3149130D01*
Y13969914D01*
X3161826Y13957219D01*
X3212609D01*
X3225305Y13969914D01*
Y14008003D01*
X3136434Y13931827D02*
Y13881044D01*
X3225305Y13855652D02*
X3149130D01*
X3174521D01*
X3225305Y13804869D01*
X3187217Y13842957D01*
X3149130Y13804869D01*
Y13779477D02*
Y13754085D01*
Y13766782D01*
X3225305D01*
X3212609Y13779477D01*
Y13715997D02*
X3225305Y13703300D01*
Y13677908D01*
X3212609Y13665215D01*
X3199913D01*
X3187217Y13677908D01*
Y13690605D01*
Y13677908D01*
X3174521Y13665215D01*
X3161826D01*
X3149130Y13677908D01*
Y13703300D01*
X3161826Y13715997D01*
X3904095Y7727359D02*
X3980270D01*
Y7778143D01*
X3904095Y7854318D02*
Y7803535D01*
X3980270D01*
Y7854318D01*
X3942182Y7803535D02*
Y7828926D01*
X3904095Y7879710D02*
X3980270D01*
Y7917798D01*
X3967574Y7930493D01*
X3916791D01*
X3904095Y7917798D01*
Y7879710D01*
X3992966Y7955885D02*
Y8006669D01*
X3904095Y8032061D02*
X3980270D01*
X3954878D01*
X3904095Y8082844D01*
X3942182Y8044757D01*
X3980270Y8082844D01*
Y8108236D02*
Y8133628D01*
Y8120932D01*
X3904095D01*
X3916791Y8108236D01*
Y8171715D02*
X3904095Y8184411D01*
Y8209803D01*
X3916791Y8222499D01*
X3967574D01*
X3980270Y8209803D01*
Y8184411D01*
X3967574Y8171715D01*
X3916791D01*
X3225400Y10494380D02*
X3149224D01*
Y10443597D01*
X3225400Y10367421D02*
Y10418205D01*
X3149224D01*
Y10367421D01*
X3187312Y10418205D02*
Y10392813D01*
X3225400Y10342030D02*
X3149224D01*
Y10303942D01*
X3161920Y10291246D01*
X3212704D01*
X3225400Y10303942D01*
Y10342030D01*
X3136528Y10265854D02*
Y10215071D01*
X3225400Y10189679D02*
X3149224D01*
X3174616D01*
X3225400Y10138895D01*
X3187312Y10176983D01*
X3149224Y10138895D01*
X3212704Y10113504D02*
X3225400Y10100808D01*
Y10075416D01*
X3212704Y10062720D01*
X3161920D01*
X3149224Y10075416D01*
Y10100808D01*
X3161920Y10113504D01*
X3212704D01*
X3161920Y10037328D02*
X3149224Y10024632D01*
Y9999240D01*
X3161920Y9986545D01*
X3212704D01*
X3225400Y9999240D01*
Y10024632D01*
X3212704Y10037328D01*
X3200008D01*
X3187312Y10024632D01*
Y9986545D01*
X6243561Y13552525D02*
Y13603310D01*
X6167386D01*
Y13552525D01*
X6205473Y13603310D02*
Y13577917D01*
X6167386Y13527135D02*
X6243561D01*
X6167386Y13476350D01*
X6243561D01*
X6230865Y13400175D02*
X6243561Y13412871D01*
Y13438261D01*
X6230865Y13450958D01*
X6180082D01*
X6167386Y13438261D01*
Y13412871D01*
X6180082Y13400175D01*
X6154690Y13374783D02*
Y13324001D01*
X6243561Y13298608D02*
X6167386D01*
X6192778D01*
X6243561Y13247824D01*
X6205473Y13285912D01*
X6167386Y13247824D01*
Y13222432D02*
Y13197040D01*
Y13209737D01*
X6243561D01*
X6230865Y13222432D01*
X6167386Y13120865D02*
X6243561D01*
X6205473Y13158952D01*
Y13108170D01*
X2551161Y13552525D02*
Y13603310D01*
X2474986D01*
Y13552525D01*
X2513073Y13603310D02*
Y13577917D01*
X2474986Y13527135D02*
X2551161D01*
X2474986Y13476350D01*
X2551161D01*
X2538465Y13400175D02*
X2551161Y13412871D01*
Y13438261D01*
X2538465Y13450958D01*
X2487682D01*
X2474986Y13438261D01*
Y13412871D01*
X2487682Y13400175D01*
X2462290Y13374783D02*
Y13324001D01*
X2551161Y13298608D02*
X2474986D01*
X2500378D01*
X2551161Y13247824D01*
X2513073Y13285912D01*
X2474986Y13247824D01*
Y13222432D02*
Y13197040D01*
Y13209737D01*
X2551161D01*
X2538465Y13222432D01*
Y13158952D02*
X2551161Y13146257D01*
Y13120865D01*
X2538465Y13108170D01*
X2525769D01*
X2513073Y13120865D01*
Y13133562D01*
Y13120865D01*
X2500378Y13108170D01*
X2487682D01*
X2474986Y13120865D01*
Y13146257D01*
X2487682Y13158952D01*
X4573339Y8404166D02*
Y8353383D01*
X4649514D01*
Y8404166D01*
X4611426Y8353383D02*
Y8378774D01*
X4649514Y8429558D02*
X4573339D01*
X4649514Y8480341D01*
X4573339D01*
X4586035Y8556517D02*
X4573339Y8543821D01*
Y8518429D01*
X4586035Y8505733D01*
X4636818D01*
X4649514Y8518429D01*
Y8543821D01*
X4636818Y8556517D01*
X4662210Y8581909D02*
Y8632692D01*
X4573339Y8658084D02*
X4649514D01*
X4624122D01*
X4573339Y8708868D01*
X4611426Y8670780D01*
X4649514Y8708868D01*
Y8734259D02*
Y8759651D01*
Y8746955D01*
X4573339D01*
X4586035Y8734259D01*
Y8797739D02*
X4573339Y8810435D01*
Y8835827D01*
X4586035Y8848522D01*
X4636818D01*
X4649514Y8835827D01*
Y8810435D01*
X4636818Y8797739D01*
X4586035D01*
X880939Y8404166D02*
Y8353383D01*
X957114D01*
Y8404166D01*
X919026Y8353383D02*
Y8378774D01*
X957114Y8429558D02*
X880939D01*
X957114Y8480341D01*
X880939D01*
X893634Y8556517D02*
X880939Y8543821D01*
Y8518429D01*
X893634Y8505733D01*
X944418D01*
X957114Y8518429D01*
Y8543821D01*
X944418Y8556517D01*
X969810Y8581909D02*
Y8632692D01*
X880939Y8658084D02*
X957114D01*
X931722D01*
X880939Y8708868D01*
X919026Y8670780D01*
X957114Y8708868D01*
X893634Y8734259D02*
X880939Y8746955D01*
Y8772347D01*
X893634Y8785043D01*
X944418D01*
X957114Y8772347D01*
Y8746955D01*
X944418Y8734259D01*
X893634D01*
X944418Y8810435D02*
X957114Y8823131D01*
Y8848523D01*
X944418Y8861218D01*
X893634D01*
X880939Y8848523D01*
Y8823131D01*
X893634Y8810435D01*
X906330D01*
X919026Y8823131D01*
Y8861218D01*
X5719911Y11753980D02*
X5732607Y11741284D01*
X5757999D01*
X5770695Y11753980D01*
Y11804764D01*
X5757999Y11817460D01*
X5732607D01*
X5719911Y11804764D01*
X5694519Y11817460D02*
X5669127D01*
X5681823D01*
Y11741284D01*
X5694519Y11753980D01*
X5631040Y11830156D02*
X5580256D01*
X5554864Y11741284D02*
Y11817460D01*
Y11792068D01*
X5504081Y11741284D01*
X5542168Y11779372D01*
X5504081Y11817460D01*
X5478689D02*
X5453297D01*
X5465993D01*
Y11741284D01*
X5478689Y11753980D01*
X5377122Y11817460D02*
Y11741284D01*
X5415210Y11779372D01*
X5364426D01*
X2033411Y11753980D02*
X2046107Y11741284D01*
X2071499D01*
X2084194Y11753980D01*
Y11804764D01*
X2071499Y11817460D01*
X2046107D01*
X2033411Y11804764D01*
X2008019Y11817460D02*
X1982627D01*
X1995323D01*
Y11741284D01*
X2008019Y11753980D01*
X1944540Y11830156D02*
X1893756D01*
X1868364Y11741284D02*
Y11817460D01*
Y11792068D01*
X1817581Y11741284D01*
X1855668Y11779372D01*
X1817581Y11817460D01*
X1792189D02*
X1766797D01*
X1779493D01*
Y11741284D01*
X1792189Y11753980D01*
X1728710D02*
X1716014Y11741284D01*
X1690622D01*
X1677926Y11753980D01*
Y11766676D01*
X1690622Y11779372D01*
X1703318D01*
X1690622D01*
X1677926Y11792068D01*
Y11804764D01*
X1690622Y11817460D01*
X1716014D01*
X1728710Y11804764D01*
X5079897Y10182420D02*
X5067202Y10195116D01*
X5041810D01*
X5029114Y10182420D01*
Y10131636D01*
X5041810Y10118940D01*
X5067202D01*
X5079897Y10131636D01*
X5105289Y10118940D02*
X5130681D01*
X5117985D01*
Y10195116D01*
X5105289Y10182420D01*
X5168769Y10106244D02*
X5219552D01*
X5244944Y10195116D02*
Y10118940D01*
Y10144332D01*
X5295728Y10195116D01*
X5257640Y10157028D01*
X5295728Y10118940D01*
X5321119D02*
X5346511D01*
X5333815D01*
Y10195116D01*
X5321119Y10182420D01*
X5384599D02*
X5397295Y10195116D01*
X5422687D01*
X5435382Y10182420D01*
Y10131636D01*
X5422687Y10118940D01*
X5397295D01*
X5384599Y10131636D01*
Y10182420D01*
X1396201Y10178919D02*
X1383506Y10191615D01*
X1358114D01*
X1345418Y10178919D01*
Y10128136D01*
X1358114Y10115440D01*
X1383506D01*
X1396201Y10128136D01*
X1421593Y10115440D02*
X1446985D01*
X1434289D01*
Y10191615D01*
X1421593Y10178919D01*
X1485073Y10102744D02*
X1535856D01*
X1561248Y10191615D02*
Y10115440D01*
Y10140832D01*
X1612032Y10191615D01*
X1573944Y10153528D01*
X1612032Y10115440D01*
X1637423Y10178919D02*
X1650119Y10191615D01*
X1675511D01*
X1688207Y10178919D01*
Y10128136D01*
X1675511Y10115440D01*
X1650119D01*
X1637423Y10128136D01*
Y10178919D01*
X1713599Y10128136D02*
X1726295Y10115440D01*
X1751687D01*
X1764382Y10128136D01*
Y10178919D01*
X1751687Y10191615D01*
X1726295D01*
X1713599Y10178919D01*
Y10166224D01*
X1726295Y10153528D01*
X1764382D01*
%TF.MD5,0bdbb5d009cdf319b1ac388b28c05554*%
M02*
