G04*
G04 #@! TF.GenerationSoftware,Altium Limited,Altium Designer,22.1.2 (22)*
G04*
G04 Layer_Color=32896*
%FSLAX44Y44*%
%MOMM*%
G71*
G04*
G04 #@! TF.SameCoordinates,F829EE80-CB85-4AFF-B22B-D38DDCB41736*
G04*
G04*
G04 #@! TF.FilePolarity,Positive*
G04*
G01*
G75*
%ADD11C,0.2500*%
%ADD14C,0.2000*%
%ADD15C,0.2540*%
%ADD62C,0.1270*%
D11*
X25500Y427500D02*
G03*
X25500Y427500I-1250J0D01*
G01*
Y927500D02*
G03*
X25500Y927500I-1250J0D01*
G01*
X1427000Y522500D02*
G03*
X1427000Y522500I-1250J0D01*
G01*
X25500Y677500D02*
G03*
X25500Y677500I-1250J0D01*
G01*
X1427000Y772500D02*
G03*
X1427000Y772500I-1250J0D01*
G01*
Y1022500D02*
G03*
X1427000Y1022500I-1250J0D01*
G01*
D14*
X997490Y1420640D02*
G03*
X997490Y1420640I-1000J0D01*
G01*
X1247070Y1450960D02*
G03*
X1247070Y1450960I-1000J0D01*
G01*
X2750Y436500D02*
Y457500D01*
Y492500D02*
Y513500D01*
Y436500D02*
X32750D01*
X2750Y513500D02*
X32750D01*
X-19250Y457500D02*
Y492500D01*
X2750D01*
X-19250Y457500D02*
X2750D01*
X69250Y436500D02*
Y513500D01*
X2750Y936500D02*
Y957500D01*
Y992500D02*
Y1013500D01*
Y936500D02*
X32750D01*
X2750Y1013500D02*
X32750D01*
X-19250Y957500D02*
Y992500D01*
X2750D01*
X-19250Y957500D02*
X2750D01*
X69250Y936500D02*
Y1013500D01*
X1447250Y492500D02*
Y513500D01*
Y436500D02*
Y457500D01*
X1417250Y513500D02*
X1447250D01*
X1417250Y436500D02*
X1447250D01*
X1469250Y457500D02*
Y492500D01*
X1447250Y457500D02*
X1469250D01*
X1447250Y492500D02*
X1469250D01*
X1380750Y436500D02*
Y513500D01*
X2750Y686500D02*
Y707500D01*
Y742500D02*
Y763500D01*
Y686500D02*
X32750D01*
X2750Y763500D02*
X32750D01*
X-19250Y707500D02*
Y742500D01*
X2750D01*
X-19250Y707500D02*
X2750D01*
X69250Y686500D02*
Y763500D01*
X1447250Y742500D02*
Y763500D01*
Y686500D02*
Y707500D01*
X1417250Y763500D02*
X1447250D01*
X1417250Y686500D02*
X1447250D01*
X1469250Y707500D02*
Y742500D01*
X1447250Y707500D02*
X1469250D01*
X1447250Y742500D02*
X1469250D01*
X1380750Y686500D02*
Y763500D01*
X1447250Y992500D02*
Y1013500D01*
Y936500D02*
Y957500D01*
X1417250Y1013500D02*
X1447250D01*
X1417250Y936500D02*
X1447250D01*
X1469250Y957500D02*
Y992500D01*
X1447250Y957500D02*
X1469250D01*
X1447250Y992500D02*
X1469250D01*
X1380750Y936500D02*
Y1013500D01*
D15*
X1183017Y1466485D02*
Y1460137D01*
X1181748Y1458867D01*
X1179209D01*
X1177939Y1460137D01*
Y1466485D01*
X1175400Y1458867D02*
X1172861D01*
X1174130D01*
Y1466485D01*
X1175400Y1465215D01*
X85323Y432707D02*
X86593Y431438D01*
Y428899D01*
X85323Y427629D01*
X84053D01*
X82784Y428899D01*
Y431438D01*
X81514Y432707D01*
X80245D01*
X78975Y431438D01*
Y428899D01*
X80245Y427629D01*
X86593Y435247D02*
X78975D01*
X81514Y437786D01*
X78975Y440325D01*
X86593D01*
Y447942D02*
X85323Y445403D01*
X82784Y442864D01*
X80245D01*
X78975Y444134D01*
Y446673D01*
X80245Y447942D01*
X81514D01*
X82784Y446673D01*
Y442864D01*
X1189303Y1445245D02*
X1188034Y1446514D01*
Y1449053D01*
X1189303Y1450323D01*
X1194381D01*
X1195651Y1449053D01*
Y1446514D01*
X1194381Y1445245D01*
X1188034Y1437627D02*
X1189303Y1440166D01*
X1191842Y1442706D01*
X1194381D01*
X1195651Y1441436D01*
Y1438897D01*
X1194381Y1437627D01*
X1193112D01*
X1191842Y1438897D01*
Y1442706D01*
X85323Y932707D02*
X86593Y931438D01*
Y928899D01*
X85323Y927629D01*
X84053D01*
X82784Y928899D01*
Y931438D01*
X81514Y932707D01*
X80245D01*
X78975Y931438D01*
Y928899D01*
X80245Y927629D01*
X86593Y935247D02*
X78975D01*
X81514Y937786D01*
X78975Y940325D01*
X86593D01*
X78975Y942864D02*
Y945403D01*
Y944134D01*
X86593D01*
X85323Y942864D01*
X1364677Y517293D02*
X1363407Y518562D01*
Y521101D01*
X1364677Y522371D01*
X1365947D01*
X1367216Y521101D01*
Y518562D01*
X1368486Y517293D01*
X1369755D01*
X1371025Y518562D01*
Y521101D01*
X1369755Y522371D01*
X1363407Y514753D02*
X1371025D01*
X1368486Y512214D01*
X1371025Y509675D01*
X1363407D01*
X1371025Y502058D02*
Y507136D01*
X1365947Y502058D01*
X1364677D01*
X1363407Y503327D01*
Y505866D01*
X1364677Y507136D01*
X85323Y682707D02*
X86592Y681438D01*
Y678899D01*
X85323Y677629D01*
X84053D01*
X82784Y678899D01*
Y681438D01*
X81514Y682707D01*
X80244D01*
X78975Y681438D01*
Y678899D01*
X80244Y677629D01*
X86592Y685247D02*
X78975D01*
X81514Y687786D01*
X78975Y690325D01*
X86592D01*
X85323Y692864D02*
X86592Y694134D01*
Y696673D01*
X85323Y697942D01*
X84053D01*
X82784Y696673D01*
Y695403D01*
Y696673D01*
X81514Y697942D01*
X80244D01*
X78975Y696673D01*
Y694134D01*
X80244Y692864D01*
X1364677Y767293D02*
X1363407Y768562D01*
Y771101D01*
X1364677Y772371D01*
X1365947D01*
X1367216Y771101D01*
Y768562D01*
X1368486Y767293D01*
X1369755D01*
X1371025Y768562D01*
Y771101D01*
X1369755Y772371D01*
X1363407Y764753D02*
X1371025D01*
X1368486Y762214D01*
X1371025Y759675D01*
X1363407D01*
X1371025Y753327D02*
X1363407D01*
X1367216Y757136D01*
Y752058D01*
X1364677Y1017293D02*
X1363407Y1018562D01*
Y1021101D01*
X1364677Y1022371D01*
X1365947D01*
X1367216Y1021101D01*
Y1018562D01*
X1368486Y1017293D01*
X1369755D01*
X1371025Y1018562D01*
Y1021101D01*
X1369755Y1022371D01*
X1363407Y1014753D02*
X1371025D01*
X1368486Y1012214D01*
X1371025Y1009675D01*
X1363407D01*
Y1002058D02*
Y1007136D01*
X1367216D01*
X1365947Y1004597D01*
Y1003327D01*
X1367216Y1002058D01*
X1369755D01*
X1371025Y1003327D01*
Y1005866D01*
X1369755Y1007136D01*
D62*
X1173990Y1201540D02*
G03*
X1183990Y1211540I0J10000D01*
G01*
Y1426540D02*
G03*
X1173990Y1436540I-10000J0D01*
G01*
X1013990D02*
G03*
X1003990Y1426540I0J-10000D01*
G01*
Y1211540D02*
G03*
X1013990Y1201540I10000J0D01*
G01*
X1286070Y1403460D02*
G03*
X1286070Y1403460I-40000J0D01*
G01*
X1183990Y1211540D02*
Y1426540D01*
X1013990Y1436540D02*
X1173990D01*
X1003990Y1211540D02*
Y1426540D01*
X1013990Y1201540D02*
X1173990D01*
M02*
