<svg version="1.1" xmlns="http://www.w3.org/2000/svg" xmlns:xlink="http://www.w3.org/1999/xlink" stroke-linecap="round" stroke-linejoin="round" stroke-width="0" fill-rule="evenodd" clip-rule="evenodd" id="OUWer-cHRrIp_bottom" viewBox="-2025 42500 149050 104275.45000000001" width="149.05mm" height="104.27545mm"><defs><style>.OUWer-cHRrIp_fr4 {color: #666666;}
.OUWer-cHRrIp_cu {color: #cccccc;}
.OUWer-cHRrIp_cf {color: #cc9933;}
.OUWer-cHRrIp_sm {color: #004200; opacity: 0.7490196078431373;}
.OUWer-cHRrIp_ss {color: #ffffff;}
.OUWer-cHRrIp_sp {color: #999999;}
.OUWer-cHRrIp_out {color: #000000;}</style><g id="OUWer-cHRrIp_bottom_drill1"><path d="M 2550 42750 A 125 125 0 0 1 2300 42750 125 125 0 0 1 2550 42750 M 2550 92750 A 125 125 0 0 1 2300 92750 125 125 0 0 1 2550 92750 M 142700 52250 A 125 125 0 0 1 142450 52250 125 125 0 0 1 142700 52250 M 2550 67750 A 125 125 0 0 1 2300 67750 125 125 0 0 1 2550 67750 M 142700 77250 A 125 125 0 0 1 142450 77250 125 125 0 0 1 142700 77250 M 142700 102250 A 125 125 0 0 1 142450 102250 125 125 0 0 1 142700 102250" fill="none" stroke-width="250"/><path d="M 99749 142064 A 100 100 0 0 1 99549 142064 100 100 0 0 1 99749 142064 M 124707 145095.99 A 100 100 0 0 1 124507 145095.99 100 100 0 0 1 124707 145095.99 M 6925 43650 6925 51350 M -1925 45750 275 45750 M -1925 49250 275 49250 M -1925 45750 -1925 49250 M 275 51350 3275 51350 M 275 43650 3275 43650 M 275 49250 275 51350 M 275 43650 275 45750 M 6925 93650 6925 101350 M -1925 95750 275 95750 M -1925 99250 275 99250 M -1925 95750 -1925 99250 M 275 101350 3275 101350 M 275 93650 3275 93650 M 275 99250 275 101350 M 275 93650 275 95750 M 138075 43650 138075 51350 M 144725.01 49250 146925 49250 M 144725.01 45750 146925 45750 146925 49250 M 141725.01 43650 144725.01 43650 M 141725.01 51350 144725.01 51350 M 144725.01 43650 144725.01 45750 M 144725.01 49250 144725.01 51350 M 6925 68650 6925 76350 M -1925 70750 275 70750 M -1925 74250 275 74250 M -1925 70750 -1925 74250 M 275 76350 3275 76350 M 275 68650 3275 68650 M 275 74250 275 76350 M 275 68650 275 70750 M 138075 68650 138075 76350 M 144725.01 74250 146925 74250 M 144725.01 70750 146925 70750 146925 74250 M 141725.01 68650 144725.01 68650 M 141725.01 76350 144725.01 76350 M 144725.01 68650 144725.01 70750 M 144725.01 74250 144725.01 76350 M 138075 93650 138075 101350 M 144725.01 99250 146925 99250 M 144725.01 95750 146925 95750 146925 99250 M 141725.01 93650 144725.01 93650 M 141725.01 101350 144725.01 101350 M 144725.01 93650 144725.01 95750 M 144725.01 99250 144725.01 101350" fill="none" stroke-width="200"/><path d="M 8532.29 43270.73 8659.25 43143.77 8659.25 42889.86 8532.29 42762.9 8405.33 42762.9 8278.38 42889.86 8278.38 43143.77 8151.42 43270.73 8024.46 43270.73 7897.5 43143.77 7897.5 42889.86 8024.46 42762.9 M 8659.25 43524.65 7897.5 43524.65 8151.42 43778.57 7897.5 44032.48 8659.25 44032.48 M 8659.25 44794.24 8532.29 44540.32 8278.38 44286.4 8024.46 44286.4 7897.5 44413.36 7897.5 44667.28 8024.46 44794.24 8151.42 44794.24 8278.38 44667.28 8278.38 44286.4 M 136467.71 101729.27 136340.74 101856.22 136340.74 102110.14 136467.71 102237.1 136594.67 102237.1 136721.62 102110.14 136721.62 101856.22 136848.59 101729.27 136975.54 101729.27 137102.49 101856.22 137102.49 102110.14 136975.54 102237.1 M 136340.74 101475.35 137102.49 101475.35 136848.59 101221.43 137102.49 100967.51 136340.74 100967.51 M 136340.74 100205.76 136340.74 100713.59 136721.62 100713.59 136594.67 100459.67 136594.67 100332.72 136721.62 100205.76 136975.54 100205.76 137102.49 100332.72 137102.49 100586.63 136975.54 100713.59 M 136467.71 76729.26 136340.74 76856.22 136340.74 77110.14 136467.71 77237.1 136594.67 77237.1 136721.62 77110.14 136721.62 76856.22 136848.59 76729.26 136975.54 76729.26 137102.49 76856.22 137102.49 77110.14 136975.54 77237.1 M 136340.74 76475.35 137102.49 76475.35 136848.59 76221.43 137102.49 75967.51 136340.74 75967.51 M 137102.49 75332.71 136340.74 75332.71 136721.62 75713.59 136721.62 75205.76 M 8532.28 68270.73 8659.24 68143.78 8659.24 67889.86 8532.28 67762.9 8405.32 67762.9 8278.36 67889.86 8278.36 68143.78 8151.4 68270.73 8024.44 68270.73 7897.48 68143.78 7897.48 67889.86 8024.44 67762.9 M 8659.24 68524.65 7897.48 68524.65 8151.4 68778.57 7897.48 69032.49 8659.24 69032.49 M 8532.28 69286.41 8659.24 69413.37 8659.24 69667.29 8532.28 69794.24 8405.32 69794.24 8278.36 69667.29 8278.36 69540.33 8278.36 69667.29 8151.4 69794.24 8024.44 69794.24 7897.48 69667.29 7897.48 69413.37 8024.44 69286.41 M 136467.71 51729.26 136340.74 51856.22 136340.74 52110.14 136467.71 52237.1 136594.67 52237.1 136721.62 52110.14 136721.62 51856.22 136848.59 51729.26 136975.54 51729.26 137102.49 51856.22 137102.49 52110.14 136975.54 52237.1 M 136340.74 51475.35 137102.49 51475.35 136848.59 51221.43 137102.49 50967.51 136340.74 50967.51 M 137102.49 50205.76 137102.49 50713.59 136594.67 50205.76 136467.71 50205.76 136340.74 50332.71 136340.74 50586.63 136467.71 50713.59 M 8532.29 93270.73 8659.25 93143.78 8659.25 92889.86 8532.29 92762.9 8405.33 92762.9 8278.38 92889.86 8278.38 93143.78 8151.42 93270.73 8024.46 93270.73 7897.5 93143.78 7897.5 92889.86 8024.46 92762.9 M 8659.25 93524.65 7897.5 93524.65 8151.42 93778.57 7897.5 94032.49 8659.25 94032.49 M 7897.5 94286.41 7897.5 94540.32 7897.5 94413.36 8659.25 94413.36 8532.29 94286.41 M 118301.74 146648.45 118301.74 146013.66 118174.78 145886.7 117920.86 145886.7 117793.9 146013.66 117793.9 146648.45 M 117539.99 145886.7 117286.07 145886.7 117413.03 145886.7 117413.03 146648.45 117539.99 146521.5 M 118930.31 144524.48 118803.35 144651.41 118803.35 144905.33 118930.31 145032.3 119438.14 145032.3 119565.1 144905.33 119565.1 144651.41 119438.14 144524.48 M 118803.35 143762.71 118930.31 144016.63 119184.22 144270.55 119438.14 144270.55 119565.1 144143.59 119565.1 143889.66 119438.14 143762.71 119311.18 143762.71 119184.22 143889.66 119184.22 144270.55" fill="none" stroke-width="254"/><path d="M 100399 121154 A 1000 1000 0 0 1 101399 120154 M 101399 143654.01 A 1000 1000 0 0 1 100399 142654.01 M 118399 142654.01 A 1000 1000 0 0 1 117399 143654.01 M 117399 120154 A 1000 1000 0 0 1 118399 121154 M 128606.99 140345.99 A 4000 4000 0 0 1 120606.99 140345.99 4000 4000 0 0 1 128606.99 140345.99 M 101399 120154 117399 120154 M 100399 121154 100399 142654.01 M 101399 143654.01 117399 143654.01 M 118399 121154 118399 142654.01" fill="none" stroke-width="127"/></g><mask id="OUWer-cHRrIp_bottom_mech-mask"><g fill="#000" stroke="#000"><rect x="-2025" y="42500" width="149050" height="104275.45" fill="#fff"/><use xlink:href="#OUWer-cHRrIp_bottom_drill1"/></g></mask></defs><g transform="translate(0,189275.45) scale(1,-1)"><g mask="url(#OUWer-cHRrIp_bottom_mech-mask)" transform="translate(145000,0) scale(-1,1)"><rect x="-2025" y="42500" width="149050" height="104275.45" fill="currentColor" class="OUWer-cHRrIp_fr4"/></g></g></svg>