%TF.GenerationSoftware,Altium Limited,Altium Designer,22.1.2 (22)*%
G04 Layer_Color=128*
%FSLAX45Y45*%
%MOMM*%
%TF.SameCoordinates,073EAA7F-B3E9-4302-98AB-51A492F3094A*%
%TF.FilePolarity,Positive*%
%TF.FileFunction,Drillmap*%
%TF.Part,Single*%
G01*
G75*
%TA.AperFunction,NonConductor*%
%ADD46C,0.12700*%
D46*
X11555805Y4683461D02*
X11665805D01*
X11610805Y4628461D02*
Y4738460D01*
X12067805Y6133461D02*
X12177805D01*
X12122805Y6078461D02*
Y6188461D01*
X11811805Y6133461D02*
X11921805D01*
X11866805Y6078461D02*
Y6188461D01*
X11555805Y6133461D02*
X11665805D01*
X11610805Y6078461D02*
Y6188461D01*
X12067805Y4683461D02*
X12177805D01*
X12122805Y4628461D02*
Y4738460D01*
X11811805Y4683461D02*
X11921805D01*
X11866805Y4628461D02*
Y4738460D01*
X10127900Y13952400D02*
X10227900D01*
X10177900Y13902400D02*
Y14002400D01*
X10127900Y13698399D02*
X10227900D01*
X10177900Y13648399D02*
Y13748399D01*
X10127900Y13444400D02*
X10227900D01*
X10177900Y13394400D02*
Y13494400D01*
X10127900Y13190401D02*
X10227900D01*
X10177900Y13140401D02*
Y13240401D01*
X10127900Y12936400D02*
X10227900D01*
X10177900Y12886400D02*
Y12986400D01*
X10127900Y12682400D02*
X10227900D01*
X10177900Y12632400D02*
Y12732400D01*
X10127900Y12428400D02*
X10227900D01*
X10177900Y12378400D02*
Y12478400D01*
X10127900Y12174400D02*
X10227900D01*
X10177900Y12124400D02*
Y12224400D01*
X10381900Y12174400D02*
X10481900D01*
X10431900Y12124400D02*
Y12224400D01*
X10635900Y12174400D02*
X10735900D01*
X10685900Y12124400D02*
Y12224400D01*
X10889900Y12174400D02*
X10989900D01*
X10939900Y12124400D02*
Y12224400D01*
X11143900Y12174400D02*
X11243900D01*
X11193900Y12124400D02*
Y12224400D01*
X11397900Y12174400D02*
X11497900D01*
X11447900Y12124400D02*
Y12224400D01*
X11651900Y12174400D02*
X11751900D01*
X11701900Y12124400D02*
Y12224400D01*
X11651900Y12428400D02*
X11751900D01*
X11701900Y12378400D02*
Y12478400D01*
X11651900Y12682400D02*
X11751900D01*
X11701900Y12632400D02*
Y12732400D01*
X11651900Y12936400D02*
X11751900D01*
X11701900Y12886400D02*
Y12986400D01*
X11651900Y13190401D02*
X11751900D01*
X11701900Y13140401D02*
Y13240401D01*
X11651900Y13444400D02*
X11751900D01*
X11701900Y13394400D02*
Y13494400D01*
X11651900Y13698399D02*
X11751900D01*
X11701900Y13648399D02*
Y13748399D01*
X11651900Y13952400D02*
X11751900D01*
X11701900Y13902400D02*
Y14002400D01*
X11651900Y14206400D02*
X11751900D01*
X11701900Y14156400D02*
Y14256400D01*
X12003905Y5424300D02*
X12443905D01*
X12223905Y5204300D02*
Y5644300D01*
X13143906Y5424300D02*
X13583905D01*
X13363905Y5204300D02*
Y5644300D01*
X12493905Y4674300D02*
X12593905D01*
X12543905Y4624300D02*
Y4724300D01*
X12743905Y4674300D02*
X12843906D01*
X12793905Y4624300D02*
Y4724300D01*
X12993906Y4674300D02*
X13093906D01*
X13043906Y4624300D02*
Y4724300D01*
X12493905Y6124300D02*
X12593905D01*
X12543905Y6074300D02*
Y6174300D01*
X12993906Y6124300D02*
X13093906D01*
X13043906Y6074300D02*
Y6174300D01*
X192500Y4525000D02*
X292500D01*
X242500Y4475000D02*
Y4575000D01*
X192500Y4975000D02*
X292500D01*
X242500Y4925000D02*
Y5025000D01*
X417500Y4400000D02*
X567500D01*
X492500Y4325000D02*
Y4475000D01*
X417500Y5100000D02*
X567500D01*
X492500Y5025000D02*
Y5175000D01*
X12418200Y14209599D02*
X12503200D01*
X12460700Y14167101D02*
Y14252100D01*
X12418200Y13859599D02*
X12503200D01*
X12460700Y13817101D02*
Y13902100D01*
X2065395Y9096800D02*
X2505394D01*
X2285394Y8876800D02*
Y9316800D01*
X925395Y9096800D02*
X1365395D01*
X1145395Y8876800D02*
Y9316800D01*
X1915395Y9846800D02*
X2015394D01*
X1965395Y9796800D02*
Y9896800D01*
X1665395Y9846800D02*
X1765394D01*
X1715395Y9796800D02*
Y9896800D01*
X1415395Y9846800D02*
X1515394D01*
X1465395Y9796800D02*
Y9896800D01*
X1915395Y8396800D02*
X2015394D01*
X1965395Y8346800D02*
Y8446800D01*
X1415395Y8396800D02*
X1515394D01*
X1465395Y8346800D02*
Y8446800D01*
X5757795Y9096800D02*
X6197794D01*
X5977794Y8876800D02*
Y9316800D01*
X4617795Y9096800D02*
X5057795D01*
X4837795Y8876800D02*
Y9316800D01*
X5607795Y9846800D02*
X5707795D01*
X5657795Y9796800D02*
Y9896800D01*
X5357795Y9846800D02*
X5457795D01*
X5407795Y9796800D02*
Y9896800D01*
X5107795Y9846800D02*
X5207795D01*
X5157795Y9796800D02*
Y9896800D01*
X5607795Y8396800D02*
X5707795D01*
X5657795Y8346800D02*
Y8446800D01*
X5107795Y8396800D02*
X5207795D01*
X5157795Y8346800D02*
Y8446800D01*
X926705Y12834500D02*
X1366705D01*
X1146705Y12614500D02*
Y13054500D01*
X2066705Y12834500D02*
X2506705D01*
X2286705Y12614500D02*
Y13054500D01*
X1416705Y12084500D02*
X1516705D01*
X1466705Y12034500D02*
Y12134500D01*
X1666705Y12084500D02*
X1766705D01*
X1716705Y12034500D02*
Y12134500D01*
X1916705Y12084500D02*
X2016705D01*
X1966705Y12034500D02*
Y12134500D01*
X1416705Y13534500D02*
X1516705D01*
X1466705Y13484500D02*
Y13584500D01*
X1916705Y13534500D02*
X2016705D01*
X1966705Y13484500D02*
Y13584500D01*
X4619105Y12834500D02*
X5059105D01*
X4839105Y12614500D02*
Y13054500D01*
X5759105Y12834500D02*
X6199105D01*
X5979105Y12614500D02*
Y13054500D01*
X5109105Y12084500D02*
X5209105D01*
X5159105Y12034500D02*
Y12134500D01*
X5359105Y12084500D02*
X5459105D01*
X5409105Y12034500D02*
Y12134500D01*
X5609105Y12084500D02*
X5709105D01*
X5659105Y12034500D02*
Y12134500D01*
X5109105Y13534500D02*
X5209105D01*
X5159105Y13484500D02*
Y13584500D01*
X5609105Y13534500D02*
X5709105D01*
X5659105Y13484500D02*
Y13584500D01*
X2843495Y9837639D02*
X2953494D01*
X2898495Y9782640D02*
Y9892639D01*
X2331495Y8387639D02*
X2441494D01*
X2386495Y8332639D02*
Y8442639D01*
X2587495Y8387639D02*
X2697494D01*
X2642495Y8332639D02*
Y8442639D01*
X2843495Y8387639D02*
X2953494D01*
X2898495Y8332639D02*
Y8442639D01*
X2331495Y9837639D02*
X2441494D01*
X2386495Y9782640D02*
Y9892639D01*
X2587495Y9837639D02*
X2697494D01*
X2642495Y9782640D02*
Y9892639D01*
X4176000Y8384100D02*
X4286000D01*
X4231000Y8329100D02*
Y8439100D01*
X4688000Y9834100D02*
X4798000D01*
X4743000Y9779100D02*
Y9889100D01*
X4432000Y9834100D02*
X4542000D01*
X4487000Y9779100D02*
Y9889100D01*
X4176000Y9834100D02*
X4286000D01*
X4231000Y9779100D02*
Y9889100D01*
X4688000Y8384100D02*
X4798000D01*
X4743000Y8329100D02*
Y8439100D01*
X4432000Y8384100D02*
X4542000D01*
X4487000Y8329100D02*
Y8439100D01*
X2843400Y13541701D02*
X2953400D01*
X2898400Y13486700D02*
Y13596700D01*
X2331400Y12091700D02*
X2441400D01*
X2386400Y12036700D02*
Y12146700D01*
X2587400Y12091700D02*
X2697400D01*
X2642400Y12036700D02*
Y12146700D01*
X2843400Y12091700D02*
X2953400D01*
X2898400Y12036700D02*
Y12146700D01*
X2331400Y13541701D02*
X2441400D01*
X2386400Y13486700D02*
Y13596700D01*
X2587400Y13541701D02*
X2697400D01*
X2642400Y13486700D02*
Y13596700D01*
X4171005Y12093661D02*
X4281005D01*
X4226005Y12038661D02*
Y12148660D01*
X4683005Y13543661D02*
X4793005D01*
X4738005Y13488661D02*
Y13598660D01*
X4427005Y13543661D02*
X4537005D01*
X4482005Y13488661D02*
Y13598660D01*
X4171005Y13543661D02*
X4281005D01*
X4226005Y13488661D02*
Y13598660D01*
X4683005Y12093661D02*
X4793005D01*
X4738005Y12038661D02*
Y12148660D01*
X4427005Y12093661D02*
X4537005D01*
X4482005Y12038661D02*
Y12148660D01*
X8800195Y8396800D02*
X8900195D01*
X8850195Y8346800D02*
Y8446800D01*
X9300195Y8396800D02*
X9400195D01*
X9350195Y8346800D02*
Y8446800D01*
X8800195Y9846800D02*
X8900195D01*
X8850195Y9796800D02*
Y9896800D01*
X9050195Y9846800D02*
X9150195D01*
X9100195Y9796800D02*
Y9896800D01*
X9300195Y9846800D02*
X9400195D01*
X9350195Y9796800D02*
Y9896800D01*
X8310195Y9096800D02*
X8750195D01*
X8530195Y8876800D02*
Y9316800D01*
X9450195Y9096800D02*
X9890194D01*
X9670195Y8876800D02*
Y9316800D01*
X9301505Y13534500D02*
X9401505D01*
X9351505Y13484500D02*
Y13584500D01*
X8801505Y13534500D02*
X8901505D01*
X8851505Y13484500D02*
Y13584500D01*
X9301505Y12084500D02*
X9401505D01*
X9351505Y12034500D02*
Y12134500D01*
X9051505Y12084500D02*
X9151505D01*
X9101505Y12034500D02*
Y12134500D01*
X8801505Y12084500D02*
X8901505D01*
X8851505Y12034500D02*
Y12134500D01*
X9451505Y12834500D02*
X9891505D01*
X9671505Y12614500D02*
Y13054500D01*
X8311505Y12834500D02*
X8751505D01*
X8531505Y12614500D02*
Y13054500D01*
X12492595Y8396800D02*
X12592595D01*
X12542595Y8346800D02*
Y8446800D01*
X12992595Y8396800D02*
X13092595D01*
X13042595Y8346800D02*
Y8446800D01*
X12492595Y9846800D02*
X12592595D01*
X12542595Y9796800D02*
Y9896800D01*
X12742595Y9846800D02*
X12842595D01*
X12792595Y9796800D02*
Y9896800D01*
X12992595Y9846800D02*
X13092595D01*
X13042595Y9796800D02*
Y9896800D01*
X12002595Y9096800D02*
X12442595D01*
X12222595Y8876800D02*
Y9316800D01*
X13142595Y9096800D02*
X13582594D01*
X13362595Y8876800D02*
Y9316800D01*
X12993906Y13534500D02*
X13093906D01*
X13043906Y13484500D02*
Y13584500D01*
X12493905Y13534500D02*
X12593905D01*
X12543905Y13484500D02*
Y13584500D01*
X12993906Y12084500D02*
X13093906D01*
X13043906Y12034500D02*
Y12134500D01*
X12743905Y12084500D02*
X12843906D01*
X12793905Y12034500D02*
Y12134500D01*
X12493905Y12084500D02*
X12593905D01*
X12543905Y12034500D02*
Y12134500D01*
X13143906Y12834500D02*
X13583905D01*
X13363905Y12614500D02*
Y13054500D01*
X12003905Y12834500D02*
X12443905D01*
X12223905Y12614500D02*
Y13054500D01*
X9972295Y9837639D02*
X10082295D01*
X10027295Y9782640D02*
Y9892639D01*
X9716295Y9837639D02*
X9826295D01*
X9771295Y9782640D02*
Y9892639D01*
X10228295Y8387639D02*
X10338295D01*
X10283295Y8332639D02*
Y8442639D01*
X9972295Y8387639D02*
X10082295D01*
X10027295Y8332639D02*
Y8442639D01*
X9716295Y8387639D02*
X9826295D01*
X9771295Y8332639D02*
Y8442639D01*
X10228295Y9837639D02*
X10338295D01*
X10283295Y9782640D02*
Y9892639D01*
X8114500Y12092900D02*
X8224500D01*
X8169500Y12037900D02*
Y12147900D01*
X8370500Y12092900D02*
X8480500D01*
X8425500Y12037900D02*
Y12147900D01*
X7858500Y13542900D02*
X7968500D01*
X7913500Y13487900D02*
Y13597900D01*
X8114500Y13542900D02*
X8224500D01*
X8169500Y13487900D02*
Y13597900D01*
X8370500Y13542900D02*
X8480500D01*
X8425500Y13487900D02*
Y13597900D01*
X7858500Y12092900D02*
X7968500D01*
X7913500Y12037900D02*
Y12147900D01*
X11816800Y8384100D02*
X11926800D01*
X11871800Y8329100D02*
Y8439100D01*
X12072800Y8384100D02*
X12182800D01*
X12127800Y8329100D02*
Y8439100D01*
X11560800Y9834100D02*
X11670800D01*
X11615800Y9779100D02*
Y9889100D01*
X11816800Y9834100D02*
X11926800D01*
X11871800Y9779100D02*
Y9889100D01*
X12072800Y9834100D02*
X12182800D01*
X12127800Y9779100D02*
Y9889100D01*
X11560800Y8384100D02*
X11670800D01*
X11615800Y8329100D02*
Y8439100D01*
X13460899Y11882500D02*
X13570900D01*
X13515900Y11827500D02*
Y11937500D01*
X13460899Y12138500D02*
X13570900D01*
X13515900Y12083500D02*
Y12193500D01*
X12010900Y11626500D02*
X12120900D01*
X12065900Y11571500D02*
Y11681500D01*
X12010900Y11882500D02*
X12120900D01*
X12065900Y11827500D02*
Y11937500D01*
X12010900Y12138500D02*
X12120900D01*
X12065900Y12083500D02*
Y12193500D01*
X13460899Y11626500D02*
X13570900D01*
X13515900Y11571500D02*
Y11681500D01*
X2065395Y1686600D02*
X2505394D01*
X2285394Y1466600D02*
Y1906600D01*
X925395Y1686600D02*
X1365395D01*
X1145395Y1466600D02*
Y1906600D01*
X1915395Y2436600D02*
X2015394D01*
X1965395Y2386600D02*
Y2486600D01*
X1665395Y2436600D02*
X1765394D01*
X1715395Y2386600D02*
Y2486600D01*
X1415395Y2436600D02*
X1515394D01*
X1465395Y2386600D02*
Y2486600D01*
X1915395Y986600D02*
X2015394D01*
X1965395Y936600D02*
Y1036600D01*
X1415395Y986600D02*
X1515394D01*
X1465395Y936600D02*
Y1036600D01*
X5757795Y1686600D02*
X6197794D01*
X5977794Y1466600D02*
Y1906600D01*
X4617795Y1686600D02*
X5057795D01*
X4837795Y1466600D02*
Y1906600D01*
X5607795Y2436600D02*
X5707795D01*
X5657795Y2386600D02*
Y2486600D01*
X5357795Y2436600D02*
X5457795D01*
X5407795Y2386600D02*
Y2486600D01*
X5107795Y2436600D02*
X5207795D01*
X5157795Y2386600D02*
Y2486600D01*
X5607795Y986600D02*
X5707795D01*
X5657795Y936600D02*
Y1036600D01*
X5107795Y986600D02*
X5207795D01*
X5157795Y936600D02*
Y1036600D01*
X9450195Y1686600D02*
X9890194D01*
X9670195Y1466600D02*
Y1906600D01*
X8310195Y1686600D02*
X8750195D01*
X8530195Y1466600D02*
Y1906600D01*
X9300195Y2436600D02*
X9400195D01*
X9350195Y2386600D02*
Y2486600D01*
X9050195Y2436600D02*
X9150195D01*
X9100195Y2386600D02*
Y2486600D01*
X8800195Y2436600D02*
X8900195D01*
X8850195Y2386600D02*
Y2486600D01*
X9300195Y986600D02*
X9400195D01*
X9350195Y936600D02*
Y1036600D01*
X8800195Y986600D02*
X8900195D01*
X8850195Y936600D02*
Y1036600D01*
X13142595Y1686600D02*
X13582594D01*
X13362595Y1466600D02*
Y1906600D01*
X12002595Y1686600D02*
X12442595D01*
X12222595Y1466600D02*
Y1906600D01*
X12992595Y2436600D02*
X13092595D01*
X13042595Y2386600D02*
Y2486600D01*
X12742595Y2436600D02*
X12842595D01*
X12792595Y2386600D02*
Y2486600D01*
X12492595Y2436600D02*
X12592595D01*
X12542595Y2386600D02*
Y2486600D01*
X12992595Y986600D02*
X13092595D01*
X13042595Y936600D02*
Y1036600D01*
X12492595Y986600D02*
X12592595D01*
X12542595Y936600D02*
Y1036600D01*
X926705Y5424300D02*
X1366705D01*
X1146705Y5204300D02*
Y5644300D01*
X2066705Y5424300D02*
X2506705D01*
X2286705Y5204300D02*
Y5644300D01*
X1416705Y4674300D02*
X1516705D01*
X1466705Y4624300D02*
Y4724300D01*
X1666705Y4674300D02*
X1766705D01*
X1716705Y4624300D02*
Y4724300D01*
X1916705Y4674300D02*
X2016705D01*
X1966705Y4624300D02*
Y4724300D01*
X1416705Y6124300D02*
X1516705D01*
X1466705Y6074300D02*
Y6174300D01*
X1916705Y6124300D02*
X2016705D01*
X1966705Y6074300D02*
Y6174300D01*
X4619105Y5424300D02*
X5059105D01*
X4839105Y5204300D02*
Y5644300D01*
X5759105Y5424300D02*
X6199105D01*
X5979105Y5204300D02*
Y5644300D01*
X5109105Y4674300D02*
X5209105D01*
X5159105Y4624300D02*
Y4724300D01*
X5359105Y4674300D02*
X5459105D01*
X5409105Y4624300D02*
Y4724300D01*
X5609105Y4674300D02*
X5709105D01*
X5659105Y4624300D02*
Y4724300D01*
X5109105Y6124300D02*
X5209105D01*
X5159105Y6074300D02*
Y6174300D01*
X5609105Y6124300D02*
X5709105D01*
X5659105Y6074300D02*
Y6174300D01*
X8311505Y5424300D02*
X8751505D01*
X8531505Y5204300D02*
Y5644300D01*
X9451505Y5424300D02*
X9891505D01*
X9671505Y5204300D02*
Y5644300D01*
X8801505Y4674300D02*
X8901505D01*
X8851505Y4624300D02*
Y4724300D01*
X9051505Y4674300D02*
X9151505D01*
X9101505Y4624300D02*
Y4724300D01*
X9301505Y4674300D02*
X9401505D01*
X9351505Y4624300D02*
Y4724300D01*
X8801505Y6124300D02*
X8901505D01*
X8851505Y6074300D02*
Y6174300D01*
X9301505Y6124300D02*
X9401505D01*
X9351505Y6074300D02*
Y6174300D01*
X2843495Y2427439D02*
X2953494D01*
X2898495Y2372440D02*
Y2482439D01*
X2331495Y977439D02*
X2441494D01*
X2386495Y922439D02*
Y1032439D01*
X2587495Y977439D02*
X2697494D01*
X2642495Y922439D02*
Y1032439D01*
X2843495Y977439D02*
X2953494D01*
X2898495Y922439D02*
Y1032439D01*
X2331495Y2427439D02*
X2441494D01*
X2386495Y2372440D02*
Y2482439D01*
X2587495Y2427439D02*
X2697494D01*
X2642495Y2372440D02*
Y2482439D01*
X4176000Y973900D02*
X4286000D01*
X4231000Y918900D02*
Y1028900D01*
X4688000Y2423900D02*
X4798000D01*
X4743000Y2368900D02*
Y2478900D01*
X4432000Y2423900D02*
X4542000D01*
X4487000Y2368900D02*
Y2478900D01*
X4176000Y2423900D02*
X4286000D01*
X4231000Y2368900D02*
Y2478900D01*
X4688000Y973900D02*
X4798000D01*
X4743000Y918900D02*
Y1028900D01*
X4432000Y973900D02*
X4542000D01*
X4487000Y918900D02*
Y1028900D01*
X10228295Y2427439D02*
X10338295D01*
X10283295Y2372440D02*
Y2482439D01*
X9716295Y977439D02*
X9826295D01*
X9771295Y922439D02*
Y1032439D01*
X9972295Y977439D02*
X10082295D01*
X10027295Y922439D02*
Y1032439D01*
X10228295Y977439D02*
X10338295D01*
X10283295Y922439D02*
Y1032439D01*
X9716295Y2427439D02*
X9826295D01*
X9771295Y2372440D02*
Y2482439D01*
X9972295Y2427439D02*
X10082295D01*
X10027295Y2372440D02*
Y2482439D01*
X11560800Y973900D02*
X11670800D01*
X11615800Y918900D02*
Y1028900D01*
X12072800Y2423900D02*
X12182800D01*
X12127800Y2368900D02*
Y2478900D01*
X11816800Y2423900D02*
X11926800D01*
X11871800Y2368900D02*
Y2478900D01*
X11560800Y2423900D02*
X11670800D01*
X11615800Y2368900D02*
Y2478900D01*
X12072800Y973900D02*
X12182800D01*
X12127800Y918900D02*
Y1028900D01*
X11816800Y973900D02*
X11926800D01*
X11871800Y918900D02*
Y1028900D01*
X2843400Y6131500D02*
X2953400D01*
X2898400Y6076500D02*
Y6186500D01*
X2331400Y4681500D02*
X2441400D01*
X2386400Y4626500D02*
Y4736500D01*
X2587400Y4681500D02*
X2697400D01*
X2642400Y4626500D02*
Y4736500D01*
X2843400Y4681500D02*
X2953400D01*
X2898400Y4626500D02*
Y4736500D01*
X2331400Y6131500D02*
X2441400D01*
X2386400Y6076500D02*
Y6186500D01*
X2587400Y6131500D02*
X2697400D01*
X2642400Y6076500D02*
Y6186500D01*
X4171005Y4683461D02*
X4281005D01*
X4226005Y4628461D02*
Y4738460D01*
X4683005Y6133461D02*
X4793005D01*
X4738005Y6078461D02*
Y6188461D01*
X4427005Y6133461D02*
X4537005D01*
X4482005Y6078461D02*
Y6188461D01*
X4171005Y6133461D02*
X4281005D01*
X4226005Y6078461D02*
Y6188461D01*
X4683005Y4683461D02*
X4793005D01*
X4738005Y4628461D02*
Y4738460D01*
X4427005Y4683461D02*
X4537005D01*
X4482005Y4628461D02*
Y4738460D01*
X10228200Y6131500D02*
X10338200D01*
X10283200Y6076500D02*
Y6186500D01*
X9716200Y4681500D02*
X9826200D01*
X9771200Y4626500D02*
Y4736500D01*
X9972200Y4681500D02*
X10082200D01*
X10027200Y4626500D02*
Y4736500D01*
X10228200Y4681500D02*
X10338200D01*
X10283200Y4626500D02*
Y4736500D01*
X9716200Y6131500D02*
X9826200D01*
X9771200Y6076500D02*
Y6186500D01*
X9972200Y6131500D02*
X10082200D01*
X10027200Y6076500D02*
Y6186500D01*
X192500Y9525000D02*
X292500D01*
X242500Y9475000D02*
Y9575000D01*
X192500Y9975000D02*
X292500D01*
X242500Y9925000D02*
Y10025000D01*
X417500Y9400000D02*
X567500D01*
X492500Y9325000D02*
Y9475000D01*
X417500Y10100000D02*
X567500D01*
X492500Y10025000D02*
Y10175000D01*
X14207500Y4975000D02*
X14307500D01*
X14257500Y4925000D02*
Y5025000D01*
X14207500Y4525000D02*
X14307500D01*
X14257500Y4475000D02*
Y4575000D01*
X13932500Y5100000D02*
X14082500D01*
X14007500Y5025000D02*
Y5175000D01*
X13932500Y4400000D02*
X14082500D01*
X14007500Y4325000D02*
Y4475000D01*
X192500Y7025000D02*
X292500D01*
X242500Y6975000D02*
Y7075000D01*
X192500Y7475000D02*
X292500D01*
X242500Y7425000D02*
Y7525000D01*
X417500Y6900000D02*
X567500D01*
X492500Y6825000D02*
Y6975000D01*
X417500Y7600000D02*
X567500D01*
X492500Y7525000D02*
Y7675000D01*
X14207500Y7475000D02*
X14307500D01*
X14257500Y7425000D02*
Y7525000D01*
X14207500Y7025000D02*
X14307500D01*
X14257500Y6975000D02*
Y7075000D01*
X13932500Y7600000D02*
X14082500D01*
X14007500Y7525000D02*
Y7675000D01*
X13932500Y6900000D02*
X14082500D01*
X14007500Y6825000D02*
Y6975000D01*
X14207500Y9975000D02*
X14307500D01*
X14257500Y9925000D02*
Y10025000D01*
X14207500Y9525000D02*
X14307500D01*
X14257500Y9475000D02*
Y9575000D01*
X13932500Y10100000D02*
X14082500D01*
X14007500Y10025000D02*
Y10175000D01*
X13932500Y9400000D02*
X14082500D01*
X14007500Y9325000D02*
Y9475000D01*
X7679400Y11453412D02*
X7709400D01*
X7694400Y11438412D02*
Y11468412D01*
X7498600Y11701700D02*
X7528600D01*
X7513600Y11686700D02*
Y11716700D01*
X7683900Y11714400D02*
X7713900D01*
X7698900Y11699400D02*
Y11729400D01*
X7502582Y11500100D02*
X7532582D01*
X7517582Y11485100D02*
Y11515100D01*
X7910400Y13021700D02*
X7940400D01*
X7925400Y13006700D02*
Y13036700D01*
X9084500Y10041200D02*
X9114500D01*
X9099500Y10026200D02*
Y10056200D01*
X6828600Y11837800D02*
X6858600D01*
X6843600Y11822800D02*
Y11852800D01*
X6695800Y11834000D02*
X6725800D01*
X6710800Y11819000D02*
Y11849000D01*
X6694200Y11497400D02*
X6724200D01*
X6709200Y11482400D02*
Y11512400D01*
X6820700Y11497400D02*
X6850700D01*
X6835700Y11482400D02*
Y11512400D01*
X4046100Y3222200D02*
X4076100D01*
X4061100Y3207200D02*
Y3237200D01*
X3281200Y4058600D02*
X3311200D01*
X3296200Y4043600D02*
Y4073600D01*
X2527300Y5336300D02*
X2557300D01*
X2542300Y5321300D02*
Y5351300D01*
X1376500Y6799800D02*
X1406500D01*
X1391500Y6784800D02*
Y6814800D01*
X2214600Y7567000D02*
X2244600D01*
X2229600Y7552000D02*
Y7582000D01*
X1707200Y10157200D02*
X1737200D01*
X1722200Y10142200D02*
Y10172200D01*
X2599500Y9279400D02*
X2629500D01*
X2614500Y9264400D02*
Y9294400D01*
X3926100Y10438600D02*
X3956100D01*
X3941100Y10423600D02*
Y10453600D01*
X3072000Y11157700D02*
X3102000D01*
X3087000Y11142700D02*
Y11172700D01*
X6698700Y11157100D02*
X6728700D01*
X6713700Y11142100D02*
Y11172100D01*
X7551100Y10440200D02*
X7581100D01*
X7566100Y10425200D02*
Y10455200D01*
X10307200Y11157200D02*
X10337200D01*
X10322200Y11142200D02*
Y11172200D01*
X11176100Y10466800D02*
X11206100D01*
X11191100Y10451800D02*
Y10481800D01*
X12772400Y10150300D02*
X12802400D01*
X12787400Y10135300D02*
Y10165300D01*
X6906200Y4079800D02*
X6936200D01*
X6921200Y4064800D02*
Y4094800D01*
X7781100Y3370000D02*
X7811100D01*
X7796100Y3355000D02*
Y3385000D01*
X12748300Y4368900D02*
X12778300D01*
X12763300Y4353900D02*
Y4383900D01*
X11397700Y3373200D02*
X11427700D01*
X11412700Y3358200D02*
Y3388200D01*
X11168000Y4083000D02*
X11198000D01*
X11183000Y4068000D02*
Y4098000D01*
X10532100Y4073400D02*
X10562100D01*
X10547100Y4058400D02*
Y4088400D01*
X913100Y7413300D02*
X943100D01*
X928100Y7398300D02*
Y7428300D01*
X1351400Y7210300D02*
X1381400D01*
X1366400Y7195300D02*
Y7225300D01*
X1352600Y7290900D02*
X1382600D01*
X1367600Y7275900D02*
Y7305900D01*
X1314456Y7413965D02*
X1344456D01*
X1329456Y7398965D02*
Y7428965D01*
X945100Y7211300D02*
X975100D01*
X960100Y7196300D02*
Y7226300D01*
X913100Y7292600D02*
X943100D01*
X928100Y7277600D02*
Y7307600D01*
X7619300Y3051100D02*
X7649300D01*
X7634300Y3036100D02*
Y3066100D01*
X7484200Y3028700D02*
X7514200D01*
X7499200Y3013700D02*
Y3043700D01*
X7486700Y2854100D02*
X7516700D01*
X7501700Y2839100D02*
Y2869100D01*
X7618800Y2852630D02*
X7648800D01*
X7633800Y2837630D02*
Y2867630D01*
X6621500Y3036200D02*
X6651500D01*
X6636500Y3021200D02*
Y3051200D01*
X6626400Y2854100D02*
X6656400D01*
X6641400Y2839100D02*
Y2869100D01*
X6779270Y2858330D02*
X6809270D01*
X6794270Y2843330D02*
Y2873330D01*
X6783500Y3038700D02*
X6813500D01*
X6798500Y3023700D02*
Y3053700D01*
X7458846Y10168846D02*
X7488846D01*
X7473846Y10153846D02*
Y10183846D01*
X7445900Y9937400D02*
X7475900D01*
X7460900Y9922400D02*
Y9952400D01*
X7555100Y10135100D02*
X7585100D01*
X7570100Y10120100D02*
Y10150100D01*
X7559250Y9853150D02*
X7589250D01*
X7574250Y9838150D02*
Y9868150D01*
X6902400Y9846400D02*
X6932400D01*
X6917400Y9831400D02*
Y9861400D01*
X6905000Y10096100D02*
X6935000D01*
X6920000Y10081100D02*
Y10111100D01*
X6762000Y10083100D02*
X6792000D01*
X6777000Y10068100D02*
Y10098100D01*
X6762000Y9846400D02*
X6792000D01*
X6777000Y9831400D02*
Y9861400D01*
X2411600Y7458900D02*
X2441600D01*
X2426600Y7443900D02*
Y7473900D01*
X2616100Y7457700D02*
X2646100D01*
X2631100Y7442700D02*
Y7472700D01*
X7613600Y4765200D02*
X7663600D01*
X7638600Y4740200D02*
Y4790200D01*
X7729600Y4765200D02*
X7779600D01*
X7754600Y4740200D02*
Y4790200D01*
X7605100Y5068800D02*
X7655100D01*
X7630100Y5043800D02*
Y5093800D01*
X6725400Y5083600D02*
X6775400D01*
X6750400Y5058600D02*
Y5108600D01*
X7726600Y5069900D02*
X7776600D01*
X7751600Y5044900D02*
Y5094900D01*
X6868800Y5089900D02*
X6918800D01*
X6893800Y5064900D02*
Y5114900D01*
X9327100Y8695700D02*
X9377100D01*
X9352100Y8670700D02*
Y8720700D01*
X5636200Y8689500D02*
X5686200D01*
X5661200Y8664500D02*
Y8714500D01*
X6875300Y4763700D02*
X6925300D01*
X6900300Y4738700D02*
Y4788700D01*
X6741300Y4766800D02*
X6791300D01*
X6766300Y4741800D02*
Y4791800D01*
X5636300Y1293100D02*
X5686300D01*
X5661300Y1268100D02*
Y1318100D01*
X9323600Y1282900D02*
X9373600D01*
X9348600Y1257900D02*
Y1307900D01*
X14118800Y7290800D02*
X14168800D01*
X14143800Y7265800D02*
Y7315800D01*
X13391901Y7299000D02*
X13441901D01*
X13416901Y7274000D02*
Y7324000D01*
X13391901Y7428800D02*
X13441901D01*
X13416901Y7403800D02*
Y7453800D01*
X13937100Y7296600D02*
X13987100D01*
X13962100Y7271600D02*
Y7321600D01*
X13396600Y7171500D02*
X13446600D01*
X13421600Y7146500D02*
Y7196500D01*
X13934801Y7159700D02*
X13984801D01*
X13959801Y7134700D02*
Y7184700D01*
X13395000Y1230700D02*
X13445000D01*
X13420000Y1205700D02*
Y1255700D01*
X13377400Y4840900D02*
X13427400D01*
X13402400Y4815900D02*
Y4865900D01*
X13848300Y4830000D02*
X13898300D01*
X13873300Y4805000D02*
Y4855000D01*
X13829100Y1221500D02*
X13879100D01*
X13854100Y1196500D02*
Y1246500D01*
X14188400Y10758000D02*
X14238400D01*
X14213400Y10733000D02*
Y10783000D01*
X14194400Y11066700D02*
X14244400D01*
X14219400Y11041700D02*
Y11091700D01*
X13697501Y11066200D02*
X13747501D01*
X13722501Y11041200D02*
Y11091200D01*
X13696899Y10758500D02*
X13746899D01*
X13721899Y10733500D02*
Y10783500D01*
%TF.MD5,ccd1e7f189b843142852c16d6b354e57*%
M02*
