<svg version="1.1" xmlns="http://www.w3.org/2000/svg" xmlns:xlink="http://www.w3.org/1999/xlink" stroke-linecap="round" stroke-linejoin="round" stroke-width="0" fill-rule="evenodd" clip-rule="evenodd" id="r3Y2-af-_p8K_bottom" viewBox="23314 9189 112395 126797.60999999999" width="112.395mm" height="126.79760999999999mm"><defs><style>.r3Y2-af-_p8K_fr4 {color: #666666;}
.r3Y2-af-_p8K_cu {color: #cccccc;}
.r3Y2-af-_p8K_cf {color: #cc9933;}
.r3Y2-af-_p8K_sm {color: #004200; opacity: 0.7490196078431373;}
.r3Y2-af-_p8K_ss {color: #ffffff;}
.r3Y2-af-_p8K_sp {color: #999999;}
.r3Y2-af-_p8K_out {color: #000000;}</style><circle cx="0" cy="0" r="550" id="qsmP3O5AH75O_pad-64"/><circle cx="0" cy="0" r="550" id="qsmP3O5AH75O_pad-65"/><g id="r3Y2-af-_p8K_bottom_drill1"><use xlink:href="#qsmP3O5AH75O_pad-64" x="116108.05" y="46834.61"/><use xlink:href="#qsmP3O5AH75O_pad-64" x="121228.05" y="61334.61"/><use xlink:href="#qsmP3O5AH75O_pad-64" x="118668.05" y="61334.61"/><use xlink:href="#qsmP3O5AH75O_pad-64" x="116108.05" y="61334.61"/><use xlink:href="#qsmP3O5AH75O_pad-64" x="121228.05" y="46834.61"/><use xlink:href="#qsmP3O5AH75O_pad-64" x="118668.05" y="46834.61"/><use xlink:href="#qsmP3O5AH75O_pad-64" x="28984.95" y="98376.39"/><use xlink:href="#qsmP3O5AH75O_pad-64" x="23864.95" y="83876.39"/><use xlink:href="#qsmP3O5AH75O_pad-64" x="26424.95" y="83876.39"/><use xlink:href="#qsmP3O5AH75O_pad-64" x="28984.95" y="83876.39"/><use xlink:href="#qsmP3O5AH75O_pad-64" x="23864.95" y="98376.39"/><use xlink:href="#qsmP3O5AH75O_pad-64" x="26424.95" y="98376.39"/><use xlink:href="#qsmP3O5AH75O_pad-64" x="42310" y="83841"/><use xlink:href="#qsmP3O5AH75O_pad-64" x="47430" y="98341"/><use xlink:href="#qsmP3O5AH75O_pad-64" x="44870" y="98341"/><use xlink:href="#qsmP3O5AH75O_pad-64" x="42310" y="98341"/><use xlink:href="#qsmP3O5AH75O_pad-64" x="47430" y="83841"/><use xlink:href="#qsmP3O5AH75O_pad-64" x="44870" y="83841"/><use xlink:href="#qsmP3O5AH75O_pad-64" x="28984" y="135417.01"/><use xlink:href="#qsmP3O5AH75O_pad-64" x="23864" y="120917"/><use xlink:href="#qsmP3O5AH75O_pad-64" x="26424" y="120917"/><use xlink:href="#qsmP3O5AH75O_pad-64" x="28984" y="120917"/><use xlink:href="#qsmP3O5AH75O_pad-64" x="23864" y="135417.01"/><use xlink:href="#qsmP3O5AH75O_pad-64" x="26424" y="135417.01"/><use xlink:href="#qsmP3O5AH75O_pad-64" x="42260.05" y="120936.61"/><use xlink:href="#qsmP3O5AH75O_pad-64" x="47380.05" y="135436.61"/><use xlink:href="#qsmP3O5AH75O_pad-64" x="44820.05" y="135436.61"/><use xlink:href="#qsmP3O5AH75O_pad-64" x="42260.05" y="135436.61"/><use xlink:href="#qsmP3O5AH75O_pad-64" x="47380.05" y="120936.61"/><use xlink:href="#qsmP3O5AH75O_pad-64" x="44820.05" y="120936.61"/><use xlink:href="#qsmP3O5AH75O_pad-64" x="100272.95" y="98376.39"/><use xlink:href="#qsmP3O5AH75O_pad-64" x="97712.95" y="98376.39"/><use xlink:href="#qsmP3O5AH75O_pad-64" x="102832.95" y="83876.39"/><use xlink:href="#qsmP3O5AH75O_pad-64" x="100272.95" y="83876.39"/><use xlink:href="#qsmP3O5AH75O_pad-64" x="97712.95" y="83876.39"/><use xlink:href="#qsmP3O5AH75O_pad-64" x="102832.95" y="98376.39"/><use xlink:href="#qsmP3O5AH75O_pad-64" x="81695" y="120929"/><use xlink:href="#qsmP3O5AH75O_pad-64" x="84255" y="120929"/><use xlink:href="#qsmP3O5AH75O_pad-64" x="79135" y="135429"/><use xlink:href="#qsmP3O5AH75O_pad-64" x="81695" y="135429"/><use xlink:href="#qsmP3O5AH75O_pad-64" x="84255" y="135429"/><use xlink:href="#qsmP3O5AH75O_pad-64" x="79135" y="120929"/><use xlink:href="#qsmP3O5AH75O_pad-64" x="118718" y="83841"/><use xlink:href="#qsmP3O5AH75O_pad-64" x="121278" y="83841"/><use xlink:href="#qsmP3O5AH75O_pad-64" x="116158" y="98341"/><use xlink:href="#qsmP3O5AH75O_pad-64" x="118718" y="98341"/><use xlink:href="#qsmP3O5AH75O_pad-64" x="121278" y="98341"/><use xlink:href="#qsmP3O5AH75O_pad-64" x="116158" y="83841"/><use xlink:href="#qsmP3O5AH75O_pad-64" x="28984.95" y="24274.39"/><use xlink:href="#qsmP3O5AH75O_pad-64" x="23864.95" y="9774.39"/><use xlink:href="#qsmP3O5AH75O_pad-64" x="26424.95" y="9774.39"/><use xlink:href="#qsmP3O5AH75O_pad-64" x="28984.95" y="9774.39"/><use xlink:href="#qsmP3O5AH75O_pad-64" x="23864.95" y="24274.39"/><use xlink:href="#qsmP3O5AH75O_pad-64" x="26424.95" y="24274.39"/><use xlink:href="#qsmP3O5AH75O_pad-64" x="42310" y="9739"/><use xlink:href="#qsmP3O5AH75O_pad-64" x="47430" y="24239"/><use xlink:href="#qsmP3O5AH75O_pad-64" x="44870" y="24239"/><use xlink:href="#qsmP3O5AH75O_pad-64" x="42310" y="24239"/><use xlink:href="#qsmP3O5AH75O_pad-64" x="47430" y="9739"/><use xlink:href="#qsmP3O5AH75O_pad-64" x="44870" y="9739"/><use xlink:href="#qsmP3O5AH75O_pad-64" x="102832.95" y="24274.39"/><use xlink:href="#qsmP3O5AH75O_pad-64" x="97712.95" y="9774.39"/><use xlink:href="#qsmP3O5AH75O_pad-64" x="100272.95" y="9774.39"/><use xlink:href="#qsmP3O5AH75O_pad-64" x="102832.95" y="9774.39"/><use xlink:href="#qsmP3O5AH75O_pad-64" x="97712.95" y="24274.39"/><use xlink:href="#qsmP3O5AH75O_pad-64" x="100272.95" y="24274.39"/><use xlink:href="#qsmP3O5AH75O_pad-64" x="116158" y="9739"/><use xlink:href="#qsmP3O5AH75O_pad-64" x="121278" y="24239"/><use xlink:href="#qsmP3O5AH75O_pad-64" x="118718" y="24239"/><use xlink:href="#qsmP3O5AH75O_pad-64" x="116158" y="24239"/><use xlink:href="#qsmP3O5AH75O_pad-64" x="121278" y="9739"/><use xlink:href="#qsmP3O5AH75O_pad-64" x="118718" y="9739"/><use xlink:href="#qsmP3O5AH75O_pad-64" x="28984" y="61315"/><use xlink:href="#qsmP3O5AH75O_pad-64" x="23864" y="46815"/><use xlink:href="#qsmP3O5AH75O_pad-64" x="26424" y="46815"/><use xlink:href="#qsmP3O5AH75O_pad-64" x="28984" y="46815"/><use xlink:href="#qsmP3O5AH75O_pad-64" x="23864" y="61315"/><use xlink:href="#qsmP3O5AH75O_pad-64" x="26424" y="61315"/><use xlink:href="#qsmP3O5AH75O_pad-64" x="42260.05" y="46834.61"/><use xlink:href="#qsmP3O5AH75O_pad-64" x="47380.05" y="61334.61"/><use xlink:href="#qsmP3O5AH75O_pad-64" x="44820.05" y="61334.61"/><use xlink:href="#qsmP3O5AH75O_pad-64" x="42260.05" y="61334.61"/><use xlink:href="#qsmP3O5AH75O_pad-64" x="47380.05" y="46834.61"/><use xlink:href="#qsmP3O5AH75O_pad-64" x="44820.05" y="46834.61"/><use xlink:href="#qsmP3O5AH75O_pad-64" x="102832" y="61315"/><use xlink:href="#qsmP3O5AH75O_pad-64" x="97712" y="46815"/><use xlink:href="#qsmP3O5AH75O_pad-64" x="100272" y="46815"/><use xlink:href="#qsmP3O5AH75O_pad-64" x="102832" y="46815"/><use xlink:href="#qsmP3O5AH75O_pad-64" x="97712" y="61315"/><use xlink:href="#qsmP3O5AH75O_pad-64" x="100272" y="61315"/><use xlink:href="#qsmP3O5AH75O_pad-65" x="135159" y="118825"/><use xlink:href="#qsmP3O5AH75O_pad-65" x="135159" y="121385"/><use xlink:href="#qsmP3O5AH75O_pad-65" x="120659" y="116265"/><use xlink:href="#qsmP3O5AH75O_pad-65" x="120659" y="118825"/><use xlink:href="#qsmP3O5AH75O_pad-65" x="120659" y="121385"/><use xlink:href="#qsmP3O5AH75O_pad-65" x="135159" y="116265"/></g><mask id="r3Y2-af-_p8K_bottom_mech-mask"><g fill="#000" stroke="#000"><rect x="23314" y="9189" width="112395" height="126797.61" fill="#fff"/><use xlink:href="#r3Y2-af-_p8K_bottom_drill1"/></g></mask></defs><g transform="translate(0,145175.61) scale(1,-1)"><g mask="url(#r3Y2-af-_p8K_bottom_mech-mask)" transform="translate(159023,0) scale(-1,1)"><rect x="23314" y="9189" width="112395" height="126797.61" fill="currentColor" class="r3Y2-af-_p8K_fr4"/></g></g></svg>