M48
;Layer_Color=9474304
;FILE_FORMAT=4:4
METRIC,LZ
;TYPE=PLATED
T6F00S00C1.8000
;TYPE=NON_PLATED
%
G90
G05
T06
G00X00114539Y0018166
M15
G01Y0015566
M16
G00X00228539Y0018166
M15
G01Y0015566
M16
G00X00483779Y0018166
M15
G01Y0015566
M16
G00X00597779Y0018166
M15
G01Y0015566
M16
G00X00853019Y0018166
M15
G01Y0015566
M16
G00X0096702Y0018166
M15
G01Y0015566
M16
G00X0122226Y0018166
M15
G01Y0015566
M16
G00X01336259Y0018166
M15
G01Y0015566
M16
G00X01336391Y0052943
M15
G01Y0055543
M16
G00X01222391Y0052943
M15
G01Y0055543
M16
G00X0096715Y0052943
M15
G01Y0055543
M16
G00X0085315Y0052943
M15
G01Y0055543
M16
G00X0059791Y0052943
M15
G01Y0055543
M16
G00X0048391Y0052943
M15
G01Y0055543
M16
G00X00228671Y0052943
M15
G01Y0055543
M16
G00X0011467Y0052943
M15
G01Y0055543
M16
G00X00114539Y0092268
M15
G01Y0089668
M16
G00X00228539Y0092268
M15
G01Y0089668
M16
G00X00483779Y0092268
M15
G01Y0089668
M16
G00X00597779Y0092268
M15
G01Y0089668
M16
G00X00853019Y0092268
M15
G01Y0089668
M16
G00X0096702Y0092268
M15
G01Y0089668
M16
G00X0122226Y0092268
M15
G01Y0089668
M16
G00X01336259Y0092268
M15
G01Y0089668
M16
G00X01336391Y0127045
M15
G01Y0129645
M16
G00X01222391Y0127045
M15
G01Y0129645
M16
G00X0096715Y0127045
M15
G01Y0129645
M16
G00X0085315Y0127045
M15
G01Y0129645
M16
G00X0059791Y0127045
M15
G01Y0129645
M16
G00X0048391Y0127045
M15
G01Y0129645
M16
G00X00228671Y0127045
M15
G01Y0129645
M16
G00X0011467Y0127045
M15
G01Y0129645
M16
M17
M30
