M48
;Layer_Color=9474304
;FILE_FORMAT=4:4
METRIC,LZ
;TYPE=PLATED
T1F00S00C0.3000
T2F00S00C0.5000
T3F00S00C0.8500
T4F00S00C1.0000
T5F00S00C1.5000
;TYPE=NON_PLATED
T7F00S00C1.1000
%
T01
X0040611Y0032222
X0066365Y0030362
X0067985Y0030387
X00679427Y00285833
X0066414Y0028541
X0075017
X0076338Y00285263
X0076343Y0030511
X0074992Y0030287
X0077961Y00337
X0114127Y0033732
X0127633Y0043689
X011183Y004083
X0105471Y0040734
X0069212Y0040798
X0032962Y0040586
X0025423Y0053363
X0026311Y0074577
X0024266Y0074589
X0022296Y007567
X00132946Y00741396
X0013676Y0072909
X0013664Y0072103
X0009601Y0072113
X0009281Y0072926
Y0074133
X0013915Y0067998
X0017222Y0101572
X0026145Y0092794
X003087Y0111577
X0039411Y0104386
X006777Y0100831
X00692Y0100961
X0069174Y0098464
X006777
X0074609Y0099374
X00757425Y00985315
X0075701Y0101351
X00747385Y01016885
X0075661Y0104402
X00751758Y0115001
X0075136Y0117017
X0076989Y0117144
X0076944Y01145341
X0068357Y0114974
X0067092
X0067108Y011834
X0068436Y0118378
X0067137Y0111571
X0090995Y0100412
X0103222Y0111572
X0111911Y0104668
X0127874Y0101503
X0079254Y0130217
T02
X0056613Y0012931
X0093486Y0012829
X01342Y0012307
X0138541Y0012215
X0138733Y00483
X0134024Y0048409
X0134216Y0071715
X0134169Y007299
Y0074288
X0139621Y0072966
X0139598Y0071597
X0141438Y0072908
X0077516Y0050699
X0076301Y0050688
X0076386Y0047652
X0077546
X0069003Y0047637
X0067663Y0047668
X0067504Y0050836
X0068938Y0050899
X0056612Y0086895
X0093521Y0086957
X0137219Y0107585
X0137225Y0110662
X0142194Y0110667
X0142134Y010758
T03
X0124607Y0138596
Y0142096
T04
X00146539Y0009866
X00196539
Y0024366
X00171539
X00146539
X00515779
X00540779
X00565779
Y0009866
X00515779
X0088502
X0093502
Y0024366
X0091002
X0088502
X01254259
X01279259
X01304259
Y0009866
X01254259
X0125439Y0046743
X0127939
X01304391
X0142575Y004525
Y004975
Y007025
Y007475
X01304391Y0061243
X0125439
X00935151
X00885151
Y0046743
X00910151
X00935151
X0056591
X0054091
X0051591
Y0061243
X0056591
X0019667
X00146671
Y0046743
X0017167
X0019667
X0002425Y004525
Y004975
Y007025
Y007475
Y009525
Y009975
X00146539Y0098468
X00171539
X00196539
Y0083968
X00146539
X00515779
X00565779
Y0098468
X00540779
X00515779
X0088502
X0091002
X0093502
Y0083968
X0088502
X01254259
X01304259
Y0098468
X01279259
X01254259
X0142575Y009975
Y009525
X01304391Y0120845
X0127939
X0125439
Y0135345
X01304391
X0117019Y0134444
Y0131904
Y0129364
Y0126824
Y0124284
Y0121744
X0114479
X0111939
X0109399
X0106859
X0104319
X0101779
Y0124284
Y0126824
Y0129364
Y0131904
Y0134444
Y0136984
Y0139524
X00935151Y0135345
X00885151
Y0120845
X00910151
X00935151
X0117019Y0136984
Y0139524
Y0142064
X0056591Y0135345
X0051591
Y0120845
X0054091
X0056591
X0019667
X0017167
X00146671
Y0135345
X0019667
T05
X0140075Y0044
Y0051
Y0069
Y0076
X0004925
Y0069
Y0051
Y0044
Y0094
Y0101
X0140075
Y0094
T07
X0023865Y00097744
X00264249
X00289849
Y00242744
X00264249
X0023865
X004231Y0024239
X004487
X004743
Y0009739
X004487
X004231
X0097713Y00097744
X01002729
X01028329
X0116158Y0009739
X0118718
Y0024239
X0116158
X01028329Y00242744
X01002729
X0097713
X0121278Y0024239
Y0009739
X01212281Y00468346
Y00613346
X01186681
X0116108
X0102832Y0061315
X0100272
X0097712
Y0046815
X0100272
X0102832
X0116108Y00468346
X01186681
X00473801
X004482
X00422601
Y00613346
X004482
X00473801
X0028984Y0061315
X0026424
X0023864
Y0046815
X0026424
X0028984
X00289849Y00838764
X00264249
X0023865
Y00983764
X00264249
X00289849
X004231Y0098341
X004487
X004743
Y0083841
X004487
X004231
X0097713Y00838764
X01002729
X01028329
X0116158Y0083841
X0118718
Y0098341
X0116158
X01028329Y00983764
X01002729
X0097713
X0121278Y0098341
Y0083841
X0120659Y0116265
Y0118825
X0135159
Y0116265
Y0121385
X0120659
X0084255Y0120929
X0081695
Y0135429
X0084255
X0079135
Y0120929
X00473801Y01209366
X004482
X00422601
Y01354366
X004482
X00473801
X0028984Y0135417
X0026424
X0023864
Y0120917
X0026424
X0028984
M30
